<svg xmlns="http://www.w3.org/2000/svg" xmlns:xlink="http://www.w3.org/1999/xlink" xmlns:lucid="lucid" width="1203" height="623"><g transform="translate(541.5 -178.5)" lucid:page-tab-id="e8dnrSZC6fkI"><path d="M-520 206a6 6 0 0 1 6-6H634a6 6 0 0 1 6 6v568a6 6 0 0 1-6 6H-514a6 6 0 0 1-6-6z" stroke="#dfe3e8" stroke-width="3" fill="#dfe3e8"/><g filter="url(#a)"><path d="M-480 245a5 5 0 0 1 5-5h250a5 5 0 0 1 5 5v122.15a5 5 0 0 1-5 5h-250a5 5 0 0 1-5-5z" fill="#fff" fill-opacity="0"/><path d="M-475 240a5 5 0 0 0-5 5v122.15a5 5 0 0 0 5 5h250a5 5 0 0 0 5-5V245a5 5 0 0 0-5-5z" stroke="#6f7681" stroke-width="3" fill="#6f7681"/><use xlink:href="#b" transform="matrix(1,0,0,1,-464.92,255.46117866489504) translate(74.02994791666666 44.33333333333333)"/><use xlink:href="#c" transform="matrix(1,0,0,1,-464.92,255.46117866489504) translate(0.1367187499999858 71)"/><use xlink:href="#d" transform="matrix(1,0,0,1,-464.92,255.46117866489504) translate(147.31119791666669 71)"/></g><g filter="url(#e)"><path d="M165.68 321.75a5 5 0 0 1 5-5H595a5 5 0 0 1 5 5v412.1a5 5 0 0 1-5 5H170.68a5 5 0 0 1-5-5z" fill="#fff" fill-opacity="0"/><path d="M170.68 316.75a5 5 0 0 0-5 5v412.1a5 5 0 0 0 5 5H595a5 5 0 0 0 5-5v-412.1a5 5 0 0 0-5-5z" stroke="#ad4141" stroke-width="3" fill="#ad4141"/><use xlink:href="#f" transform="matrix(1,0,0,1,190.8747720810954,366.13706536434705) translate(185.45833333333331 20)"/><use xlink:href="#g" transform="matrix(1,0,0,1,190.8747720810954,366.13706536434705) translate(273.4270833333333 20)"/><use xlink:href="#h" transform="matrix(1,0,0,1,190.8747720810954,366.13706536434705) translate(240.06770833333331 46.66666666666667)"/><use xlink:href="#i" transform="matrix(1,0,0,1,190.8747720810954,366.13706536434705) translate(301.7734375 46.66666666666667)"/><use xlink:href="#j" transform="matrix(1,0,0,1,190.8747720810954,366.13706536434705) translate(331.6171875 46.66666666666667)"/></g><g filter="url(#k)"><path d="M185.68 340.95a5 5 0 0 1 5-5h170a5 5 0 0 1 5 5v70a5 5 0 0 1-5 5h-170a5 5 0 0 1-5-5z" fill="#fff" fill-opacity="0"/><path d="M190.68 335.95a5 5 0 0 0-5 5v70a5 5 0 0 0 5 5h170a5 5 0 0 0 5-5v-70a5 5 0 0 0-5-5z" stroke="#54c45e" stroke-width="3" fill="#54c45e"/><use xlink:href="#l" transform="matrix(1,0,0,1,196.12447142366824,345.3062438638551) translate(31.062499999999993 37.666666666666664)"/></g><g filter="url(#k)"><path d="M185.68 440.95a5 5 0 0 1 5-5h170a5 5 0 0 1 5 5v70a5 5 0 0 1-5 5h-170a5 5 0 0 1-5-5z" fill="#fff" fill-opacity="0"/><path d="M190.68 435.95a5 5 0 0 0-5 5v70a5 5 0 0 0 5 5h170a5 5 0 0 0 5-5v-70a5 5 0 0 0-5-5z" stroke="#54c45e" stroke-width="3" fill="#54c45e"/><use xlink:href="#m" transform="matrix(1,0,0,1,196.12447142366824,445.306243863855) translate(49.75390625 37.666666666666664)"/></g><g filter="url(#k)"><path d="M185.68 540.95a5 5 0 0 1 5-5h170a5 5 0 0 1 5 5v70a5 5 0 0 1-5 5h-170a5 5 0 0 1-5-5z" fill="#fff" fill-opacity="0"/><path d="M190.68 535.95a5 5 0 0 0-5 5v70a5 5 0 0 0 5 5h170a5 5 0 0 0 5-5v-70a5 5 0 0 0-5-5z" stroke="#54c45e" stroke-width="3" fill="#54c45e"/><use xlink:href="#n" transform="matrix(1,0,0,1,196.12447142366824,545.306243863855) translate(39.903645833333336 37.666666666666664)"/></g><g filter="url(#o)"><path d="M-147.1 305a5 5 0 0 1 5-5H38.8a5 5 0 0 1 5 5v90.8a5 5 0 0 1-5 5h-180.9a5 5 0 0 1-5-5z" fill="#fff" fill-opacity="0"/><path d="M-142.1 300a5 5 0 0 0-5 5v90.8a5 5 0 0 0 5 5H38.8a5 5 0 0 0 5-5V305a5 5 0 0 0-5-5z" stroke="#00c2a8" stroke-width="3" fill="#00c2a8"/><use xlink:href="#p" transform="matrix(1,0,0,1,-136.02751256477907,311.7944185506009) translate(2.8919270833333286 45.666666666666664)"/><use xlink:href="#q" transform="matrix(1,0,0,1,-136.02751256477907,311.7944185506009) translate(59.662760416666664 45.666666666666664)"/></g><g filter="url(#r)"><path d="M-147.1 455.6a5 5 0 0 1 5-5H22.1a5 5 0 0 1 5 5v210a5 5 0 0 1-5 5h-164.2a5 5 0 0 1-5-5z" fill="#fff" fill-opacity="0"/><path d="M-142.1 450.6a5 5 0 0 0-5 5v210a5 5 0 0 0 5 5H22.1a5 5 0 0 0 5-5v-210a5 5 0 0 0-5-5z" stroke="#1071e5" stroke-width="3" fill="#1071e5"/><use xlink:href="#s" transform="matrix(1,0,0,1,-136.99657914229587,476.33644926328554) translate(26.082031249999993 11.166666666666671)"/><use xlink:href="#t" transform="matrix(1,0,0,1,-136.99657914229587,476.33644926328554) translate(77 37.83333333333334)"/><use xlink:href="#u" transform="matrix(1,0,0,1,-136.99657914229587,476.33644926328554) translate(53.97265625 64.5)"/><use xlink:href="#t" transform="matrix(1,0,0,1,-136.99657914229587,476.33644926328554) translate(77 91.16666666666667)"/><use xlink:href="#u" transform="matrix(1,0,0,1,-136.99657914229587,476.33644926328554) translate(53.97265625 117.83333333333334)"/><use xlink:href="#t" transform="matrix(1,0,0,1,-136.99657914229587,476.33644926328554) translate(77 144.5)"/><use xlink:href="#v" transform="matrix(1,0,0,1,-136.99657914229587,476.33644926328554) translate(53.97265625 171.16666666666669)"/></g><g filter="url(#w)"><path d="M-187.16 245a5 5 0 0 1 5-5h250a5 5 0 0 1 5 5v489.23a5 5 0 0 1-5 5h-250a5 5 0 0 1-5-5z" fill="#fff" fill-opacity="0"/><path d="M-182.16 240a5 5 0 0 0-5 5v489.23a5 5 0 0 0 5 5h250a5 5 0 0 0 5-5V245a5 5 0 0 0-5-5z" fill-opacity="0"/><path d="M-187.16 255.38v8.9m0 5.92v8.9m0 5.93v8.9m0 5.92v8.9m0 5.93v8.9m0 5.92v8.9m0 5.93v8.9m0 5.92v8.9m0 5.93v8.9m0 5.92v8.9m0 5.93v8.9m0 5.92v8.9m0 5.93v8.9m0 5.92v8.9m0 5.93v8.9m0 5.92v8.9m0 5.93v8.9m0 5.92v8.9m0 5.93v8.9m0 5.92v8.9m0 5.93v8.9m0 5.92v8.9m0 5.93v8.9m0 5.92v8.9m0 5.93v8.9m0 5.92v8.9m0 5.93v8.9m0 5.92v8.9m0 5.93v8.9m0 5.92v8.9m0 5.93v8.9m0 5.92v8.9m0 5.93v4.45l.06.78.2.77.3.73.4.66.5.6.6.5.67.42.73.3.76.18.78.07h4.4m5.9 0h8.82m5.88 0h8.83m5.88 0h8.82m5.88 0h8.83m5.88 0h8.82m5.9 0h8.8m5.9 0h8.8m5.9 0h8.82m5.88 0h8.83m5.9 0h8.8m5.9 0h8.82m5.88 0h8.82m5.9 0h8.8m5.9 0h8.82m5.88 0h8.82m5.88 0h8.83m5.88 0h4.4l.8-.07.76-.18.7-.3.68-.4.6-.52.5-.6.42-.66.3-.73.18-.76.06-.77v-4.45m0-5.93v-8.9m0-5.93v-8.9m0-5.92v-8.9m0-5.93v-8.9m0-5.92v-8.9m0-5.93v-8.9m0-5.92V626m0-5.93v-8.9m0-5.92v-8.9m0-5.93v-8.9m0-5.92v-8.9m0-5.93v-8.9m0-5.92v-8.9m0-5.93v-8.9m0-5.92v-8.9m0-5.93v-8.9m0-5.92v-8.9m0-5.93v-8.9m0-5.92v-8.9m0-5.93v-8.9m0-5.92v-8.9m0-5.93v-8.9m0-5.92v-8.9m0-5.93v-8.9m0-5.92v-8.9m0-5.93v-8.9m0-5.92v-8.9m0-5.93v-8.9m0-5.92v-8.9m0-5.93v-8.9m0-5.92v-8.9m0-5.93v-8.9m0-5.92V245l-.06-.78-.18-.76-.3-.73-.4-.67-.52-.6-.6-.5-.67-.42-.7-.3-.78-.18-.78-.06h-4.4m-5.9 0h-8.8m-5.9 0h-8.82m-5.88 0H19.3m-5.87 0H4.6m-5.88 0h-8.82m-5.88 0h-8.82m-5.9 0h-8.8m-5.9 0h-8.82m-5.88 0h-8.82m-5.9 0h-8.8m-5.9 0h-8.8m-5.9 0h-8.82m-5.88 0h-8.83m-5.88 0h-8.82m-5.88 0h-8.83m-5.88 0h-8.82m-5.9 0h-4.4l-.78.06-.76.2-.73.28-.67.42-.6.5-.5.6-.4.67-.3.73-.2.76-.06.78v4.45" stroke="#000" stroke-width="3" fill="none"/></g><path d="M-177.16 246a6 6 0 0 1 6-6h228a6 6 0 0 1 6 6v48a6 6 0 0 1-6 6h-228a6 6 0 0 1-6-6z" stroke="#000" stroke-opacity="0" stroke-width="3" fill="#fff" fill-opacity="0"/><use xlink:href="#x" transform="matrix(1,0,0,1,-172.15776428816594,245) translate(16.06119791666667 32.5)"/><use xlink:href="#y" transform="matrix(1,0,0,1,-172.15776428816594,245) translate(73.04036458333334 32.5)"/><path d="M-120 533.2c0-12.4 26.86-22.48 60-22.48S0 520.8 0 533.2c0 12.42-26.86 22.5-60 22.5s-60-10.08-60-22.5z" stroke="#000" stroke-width="2" fill-opacity="0"/><path d="M-120 587.84c0-12.4 26.86-22.48 60-22.48s60 10.07 60 22.48c0 12.42-26.86 22.48-60 22.48s-60-10.06-60-22.48z" fill-opacity="0"/><path d="M-117.64 581.58l.08-.1.9-1.05 1.17-1.15 1.56-1.3.55-.38m3.3-2.1l1.07-.62 3.9-1.85.26-.1m3.65-1.37l1.43-.54 4.16-1.18m3.76-1.02l5.73-1.13m3.83-.7l5.8-.65m3.88-.44l1.42-.15 4.4-.15m3.9-.14l2.92-.1 2.92.12m3.9.16l5.83.24m3.87.44l5.8.73m3.84.6l5.72 1.2m3.77.97l5.06 1.5.53.2m3.63 1.43l.95.38 3.72 1.8.6.37m3.27 2.1l.8.6 1.5 1.26 1.1 1.13.84.98m1.87 3.4l.04.06.2.75.16.72.08.7.02.62-.03.72-.1.72-.14.73-.22.7m-1.86 3.4l-.08.1-.9 1.05-1.17 1.16-1.56 1.3-.55.4m-3.3 2.08l-1.07.62-3.9 1.85-.26.1m-3.65 1.38l-1.43.54-4.16 1.18m-3.75 1l-5.75 1.14m-3.83.7l-5.8.64m-3.88.43l-1.42.16-4.4.16m-3.9.12l-2.92.1-2.92-.12m-3.9-.16l-5.83-.24m-3.87-.44l-5.8-.72m-3.84-.62l-5.72-1.2m-3.77-.95l-5.06-1.5-.53-.22m-3.63-1.42l-.95-.37-3.72-1.82-.6-.35m-3.27-2.12l-.8-.58-1.5-1.27-1.1-1.14-.84-1m-1.87-3.4l-.04-.05-.2-.75-.16-.73-.08-.72-.02-.6.03-.72.1-.72.15-.73.2-.7" stroke="#000" stroke-width="2" fill="none"/><path d="M-120 642.48c0-12.4 26.86-22.48 60-22.48s60 10.07 60 22.48c0 12.42-26.86 22.48-60 22.48s-60-10.06-60-22.48z" fill-opacity="0"/><path d="M-117.64 636.22l.08-.1.9-1.05 1.17-1.16 1.56-1.28.55-.38m3.3-2.1l1.07-.62 3.9-1.85.26-.1m3.65-1.37l1.43-.55 4.16-1.17m3.75-1.02l5.75-1.13m3.83-.7l5.8-.65m3.88-.43l1.42-.16 4.4-.16m3.9-.14l2.92-.1 2.92.12m3.9.16l5.83.24m3.87.44l5.8.72m3.84.62l5.72 1.2m3.77.96l5.06 1.5.53.2m3.63 1.43l.95.36 3.72 1.82.6.36m3.27 2.1l.8.6 1.5 1.26 1.1 1.13.84 1m1.87 3.38l.04.08.2.74.16.73.08.72.02.6-.03.73-.1.72-.15.73-.2.7m-1.88 3.4l-.08.1-.9 1.04-1.17 1.15-1.56 1.3-.55.37m-3.3 2.1l-1.07.62-3.9 1.85-.26.1m-3.65 1.37l-1.43.54-4.16 1.2m-3.76 1l-5.73 1.13m-3.83.7l-5.8.65m-3.88.43l-1.42.17-4.4.15m-3.9.14l-2.92.1-2.92-.12m-3.9-.16l-5.83-.24m-3.87-.44l-5.8-.72m-3.84-.62l-5.72-1.2m-3.77-.95l-5.06-1.5-.53-.2m-3.63-1.43l-.95-.37-3.72-1.82-.6-.36m-3.27-2.1l-.8-.6-1.5-1.25-1.1-1.14-.84-1m-1.87-3.38l-.04-.06-.2-.76-.16-.73-.08-.7-.02-.62.03-.72.1-.7.14-.75.22-.7" stroke="#000" stroke-width="2" fill="none"/><g filter="url(#z)"><path d="M202.84 665a5 5 0 0 1 5-5h135.7a5 5 0 0 1 5 5v50a5 5 0 0 1-5 5h-135.7a5 5 0 0 1-5-5z" fill="#fff" fill-opacity="0"/><path d="M207.84 660a5 5 0 0 0-5 5v50a5 5 0 0 0 5 5h135.7a5 5 0 0 0 5-5v-50a5 5 0 0 0-5-5z" stroke="#fcce14" stroke-width="3" fill="#fcce14"/><use xlink:href="#A" transform="matrix(1,0,0,1,211.29193505440693,667.02) translate(8.113281249999993 29.666666666666664)"/></g><path d="M275.68 618.95v36.82" stroke="#000" stroke-width="3" fill="none"/><path d="M277.16 617.45v1.53h-2.95v-1.53z" stroke="#000" stroke-width=".05"/><path d="M265.5 638.34l10.18 17.2 10.2-17.2" stroke="#000" stroke-width="3" fill="none"/><g filter="url(#z)"><path d="M420 448.15a5 5 0 0 1 5-5h135.68a5 5 0 0 1 5 5v50a5 5 0 0 1-5 5H425a5 5 0 0 1-5-5z" fill="#fff" fill-opacity="0"/><path d="M425 443.15a5 5 0 0 0-5 5v50a5 5 0 0 0 5 5h135.68a5 5 0 0 0 5-5v-50a5 5 0 0 0-5-5z" stroke="#fcce14" stroke-width="3" fill="#fcce14"/><use xlink:href="#B" transform="matrix(1,0,0,1,428.4496993425727,450.1713984359586) translate(39.51953125 29.666666666666664)"/></g><g filter="url(#z)"><path d="M420 520.95a5 5 0 0 1 5-5h135.68a5 5 0 0 1 5 5v50a5 5 0 0 1-5 5H425a5 5 0 0 1-5-5z" fill="#fff" fill-opacity="0"/><path d="M425 515.95a5 5 0 0 0-5 5v50a5 5 0 0 0 5 5h135.68a5 5 0 0 0 5-5v-50a5 5 0 0 0-5-5z" stroke="#fcce14" stroke-width="3" fill="#fcce14"/><use xlink:href="#C" transform="matrix(1,0,0,1,428.4496993425727,522.966243863855) translate(13.712239583333329 29.666666666666664)"/></g><g filter="url(#z)"><path d="M420 593.74a5 5 0 0 1 5-5h135.68a5 5 0 0 1 5 5v50a5 5 0 0 1-5 5H425a5 5 0 0 1-5-5z" fill="#fff" fill-opacity="0"/><path d="M425 588.74a5 5 0 0 0-5 5v50a5 5 0 0 0 5 5h135.68a5 5 0 0 0 5-5v-50a5 5 0 0 0-5-5z" stroke="#fcce14" stroke-width="3" fill="#fcce14"/><use xlink:href="#D" transform="matrix(1,0,0,1,428.4496993425727,595.7610892917513) translate(35.3984375 29.666666666666664)"/></g><path d="M417 474.13l-47.1.6" stroke="#000" stroke-width="3" fill="none"/><path d="M418.5 475.58l-1.52.02-.04-2.95 1.56-.02z" stroke="#000" stroke-width=".05"/><path d="M387.2 464.33l-17.07 10.4 17.35 9.96M417.44 544.9l-48.33-48.34" stroke="#000" stroke-width="3" fill="none"/><path d="M418.5 543.86v4.17l-2.13-2.13 2.08-2.08z" stroke="#000" stroke-width=".05"/><path d="M388.64 501.7l-19.37-5 4.97 19.4M417.77 617.43l-53.98-97.86" stroke="#000" stroke-width="3" fill="none"/><path d="M418.5 621.8l-2.04-3.7 2.04-1.12z" stroke="#000" stroke-width=".05"/><path d="M381.13 529.92l-17.23-10.15-.6 20M183.05 376.92L3.07 531.42" stroke="#000" stroke-width="3" fill="none"/><path d="M184.2 377.9l-.22.17-1.92-2.24 2.13-1.83z" stroke="#000" stroke-width=".05"/><path d="M9.67 512.35l-6.43 18.93 19.7-3.48M182.9 476.73L3.33 586.43" stroke="#000" stroke-width="3" fill="none"/><path d="M184.2 477.68l-.56.33-1.54-2.5 2.1-1.28z" stroke="#000" stroke-width=".05"/><path d="M12.9 568.64L3.52 586.3l20-.28M183.07 476.95L3.02 640.65" stroke="#000" stroke-width="3" fill="none"/><path d="M184.2 477.94l-.16.13-2-2.18 2.15-1.95z" stroke="#000" stroke-width=".05"/><path d="M9.07 621.4l-5.9 19.1 19.6-4.05M-51.65 403.8v42.57" stroke="#000" stroke-width="3" fill="none"/><path d="M-50.17 402.3v1.55h-2.95v-1.54z" stroke="#000" stroke-width=".05"/><path d="M-61.83 428.94l10.18 17.2 10.18-17.2" stroke="#000" stroke-width="3" fill="none"/><defs><path fill="#fff" d="M1240 0h-202c-47 1-76-24-87-58l-84-261H378L295-59c-11 29-44 59-86 59H4l484-1328h268zM437-503h370c-61-196-127-384-186-583-56 202-123 386-184 583" id="E"/><path fill="#fff" d="M582-811c-92 1-152 44-204 95V0H124v-993c65 5 150-14 196 11 30 17 27 71 39 107 74-72 158-134 301-134 225 0 332 151 332 377V0H738v-632c0-109-49-180-156-179" id="F"/><path fill="#fff" d="M80-702c6-234 206-338 457-298 93 15 166 59 220 115-26 37-46 85-79 115-8 4-17 7-28 7-73 0-113-61-203-61-94 0-160 79-107 152 93 83 270 88 356 179 39 42 70 95 69 176C761-63 553 47 286 6 191-9 109-52 51-106c29-40 47-92 85-123 77-33 115 38 178 55 22 6 48 12 80 12 81 0 133-35 133-110 0-69-60-91-116-111C252-440 75-483 80-702" id="G"/><path fill="#fff" d="M379-993V0H125v-993h254zm-132-444c97 0 163 62 163 159 0 96-66 158-163 158-94 0-157-63-157-158s62-159 157-159" id="H"/><path fill="#fff" d="M619 15c-128 0-198-56-256-127-11 50-5 112-70 112H124v-1437h254v561c71-71 156-133 289-133 266 0 369 213 369 487 0 241-87 415-246 498-51 26-108 39-171 39zm155-527c0-166-35-299-195-299-102 0-149 49-201 111v438c43 54 92 85 176 85 177 0 220-149 220-335" id="I"/><path fill="#fff" d="M379-1437V0H125v-1437h254" id="J"/><path fill="#fff" d="M960-149C871-45 736 15 551 15 231 15 63-191 63-518c0-229 113-378 277-452 59-26 125-39 199-39 278 0 430 170 430 452 0 55-4 97-59 97H316c14 166 83 276 257 279 98 1 159-38 221-71 33-18 71-20 93 9zM741-612c-4-130-65-216-197-216-140 0-203 89-223 216h420" id="K"/><g id="b"><use transform="matrix(0.013020833333333334,0,0,0.013020833333333334,0,0)" xlink:href="#E"/><use transform="matrix(0.013020833333333334,0,0,0.013020833333333334,16.158854166666668,0)" xlink:href="#F"/><use transform="matrix(0.013020833333333334,0,0,0.013020833333333334,30.46875,0)" xlink:href="#G"/><use transform="matrix(0.013020833333333334,0,0,0.013020833333333334,41.106770833333336,0)" xlink:href="#H"/><use transform="matrix(0.013020833333333334,0,0,0.013020833333333334,47.65625,0)" xlink:href="#I"/><use transform="matrix(0.013020833333333334,0,0,0.013020833333333334,61.966145833333336,0)" xlink:href="#J"/><use transform="matrix(0.013020833333333334,0,0,0.013020833333333334,68.515625,0)" xlink:href="#K"/></g><path fill="#fff" d="M391 310C199 30 81-369 140-844c34-271 126-485 251-676 44 28 92 52 132 84 22 19 19 56 3 84-157 285-238 739-134 1136 33 127 72 249 134 358 23 40 7 83-22 100" id="L"/><path fill="#fff" d="M439 15c-225-4-332-150-332-377v-631h254v631c0 110 48 181 156 180 91-1 152-46 204-95v-716h254V0c-65-5-152 14-197-12-30-17-26-70-39-106C664-46 580 18 439 15" id="M"/><path fill="#fff" d="M680-72c-61 52-150 86-256 87-172 2-267-108-267-279v-542c-63-2-138 16-138-53v-101l151-29 53-262c11-66 119-33 188-41v306h245v180H411v525c0 54 23 90 73 93 51 3 85-62 119-7" id="N"/><path fill="#fff" d="M352-974c116-47 283-48 399 0 177 72 288 230 288 475 0 247-110 405-288 478-116 48-283 48-399 0C173-94 62-251 62-499c0-246 112-403 290-475zm-28 477c0 189 54 318 228 318 172 0 225-131 225-318s-53-318-225-318c-174 0-228 130-228 318" id="O"/><path fill="#fff" d="M559-811c-82 0-133 41-177 88V0H128v-993c65 5 150-14 196 11 30 16 27 69 39 104 67-68 139-130 270-131 135-1 210 82 248 184 57-113 162-184 324-184 235 0 350 140 350 377V0h-254v-632c0-119-53-179-160-179-110 0-172 67-172 179V0H715v-632c1-120-46-179-156-179" id="P"/><path fill="#fff" d="M534-1012c240 0 371 147 371 387V0c-80-7-186 24-201-53l-22-66C598-47 516 18 362 15 183 12 73-75 73-255c0-177 142-239 303-283 75-20 169-31 281-34 9-142-26-239-155-239-97 0-149 37-209 70-49 27-108 2-128-33l-46-80c103-96 231-158 415-158zM316-268c-2 80 48 110 125 110 107 0 156-41 216-100v-160c-111 5-199 15-269 48-43 21-70 49-72 102" id="Q"/><g id="c"><use transform="matrix(0.013020833333333334,0,0,0.013020833333333334,0,0)" xlink:href="#L"/><use transform="matrix(0.013020833333333334,0,0,0.013020833333333334,8.307291666666668,0)" xlink:href="#E"/><use transform="matrix(0.013020833333333334,0,0,0.013020833333333334,24.466145833333336,0)" xlink:href="#M"/><use transform="matrix(0.013020833333333334,0,0,0.013020833333333334,38.77604166666667,0)" xlink:href="#N"/><use transform="matrix(0.013020833333333334,0,0,0.013020833333333334,47.76041666666667,0)" xlink:href="#O"/><use transform="matrix(0.013020833333333334,0,0,0.013020833333333334,62.09635416666667,0)" xlink:href="#P"/><use transform="matrix(0.013020833333333334,0,0,0.013020833333333334,83.7890625,0)" xlink:href="#Q"/><use transform="matrix(0.013020833333333334,0,0,0.013020833333333334,96.70572916666667,0)" xlink:href="#N"/><use transform="matrix(0.013020833333333334,0,0,0.013020833333333334,105.95052083333334,0)" xlink:href="#H"/><use transform="matrix(0.013020833333333334,0,0,0.013020833333333334,112.5,0)" xlink:href="#O"/><use transform="matrix(0.013020833333333334,0,0,0.013020833333333334,126.8359375,0)" xlink:href="#F"/></g><path fill="#fff" d="M928-1328v209H382v351h425v201H382v358h547L928 0H118v-1328h810" id="R"/><path fill="#fff" d="M237-422C149-472 82-557 82-689c0-216 159-321 379-321 84 0 155 20 212 50h276c-4 65 18 134-54 149l-78 16c77 287-142 467-449 420-41 23-55 80-11 98 131 54 363 5 481 88 55 38 98 94 94 188-7 175-124 268-266 319-160 56-414 25-516-51C94 225 47 170 47 85c0-102 65-154 143-188-45-27-81-71-78-144 4-90 61-138 125-175zm238 589c116 0 216-18 223-125-14-108-163-84-274-96-28-3-56-4-83-7-38 25-74 57-74 114 0 100 100 114 208 114zM312-683c0 93 51 153 149 153 99 0 150-59 150-153 0-96-50-151-150-151-99 0-149 56-149 151" id="S"/><path fill="#fff" d="M247-1520c190 281 311 680 251 1154-34 270-127 485-251 676-44-28-94-51-133-84-22-18-18-56-2-84C269-143 350-597 246-994c-33-127-73-249-134-358-22-39-7-82 22-100" id="T"/><g id="d"><use transform="matrix(0.013020833333333334,0,0,0.013020833333333334,0,0)" xlink:href="#R"/><use transform="matrix(0.013020833333333334,0,0,0.013020833333333334,13.0078125,0)" xlink:href="#F"/><use transform="matrix(0.013020833333333334,0,0,0.013020833333333334,27.317708333333336,0)" xlink:href="#S"/><use transform="matrix(0.013020833333333334,0,0,0.013020833333333334,39.9609375,0)" xlink:href="#H"/><use transform="matrix(0.013020833333333334,0,0,0.013020833333333334,46.510416666666664,0)" xlink:href="#F"/><use transform="matrix(0.013020833333333334,0,0,0.013020833333333334,60.8203125,0)" xlink:href="#K"/><use transform="matrix(0.013020833333333334,0,0,0.013020833333333334,74.24479166666667,0)" xlink:href="#T"/></g><filter id="a" filterUnits="objectBoundingBox" x="-.04" y="-.03" width="1.08" height="1.15"><feOffset result="offOut" in="SourceAlpha" dy="6"/><feGaussianBlur result="blurOut" in="offOut" stdDeviation="5"/><feColorMatrix result="colorOut" in="blurOut" values="0 0 0 0 0 0 0 0 0 0 0 0 0 0 0 0 0 0 0.5019607843137255 0"/><feBlend in="SourceGraphic" in2="colorOut"/></filter><g id="f"><use transform="matrix(0.013020833333333334,0,0,0.013020833333333334,0,0)" xlink:href="#E"/><use transform="matrix(0.013020833333333334,0,0,0.013020833333333334,16.158854166666668,0)" xlink:href="#F"/><use transform="matrix(0.013020833333333334,0,0,0.013020833333333334,30.46875,0)" xlink:href="#G"/><use transform="matrix(0.013020833333333334,0,0,0.013020833333333334,41.106770833333336,0)" xlink:href="#H"/><use transform="matrix(0.013020833333333334,0,0,0.013020833333333334,47.65625,0)" xlink:href="#I"/><use transform="matrix(0.013020833333333334,0,0,0.013020833333333334,61.966145833333336,0)" xlink:href="#J"/><use transform="matrix(0.013020833333333334,0,0,0.013020833333333334,68.515625,0)" xlink:href="#K"/></g><path fill="#fff" d="M1063-193C972-66 836 14 625 14 325 14 160-160 82-392c-55-162-54-387 4-546 84-230 253-399 553-405 185-4 321 74 409 173-37 47-65 102-108 143-52 29-90-19-122-42-68-49-222-71-314-21-130 72-193 222-193 425 0 205 69 355 201 427 92 51 249 32 318-20 30-23 81-99 128-48" id="U"/><path fill="#fff" d="M836-149C753-51 641 15 467 15 259 15 147-118 88-282c-42-119-44-295-4-419 59-179 186-308 419-308 153 0 247 58 325 142-30 37-55 81-89 113-66 29-96-36-151-51-19-5-41-11-69-11-164 0-199 147-204 317-6 202 85 372 277 308 37-12 60-40 86-61 24-21 64-16 84 9" id="V"/><g id="g"><use transform="matrix(0.013020833333333334,0,0,0.013020833333333334,0,0)" xlink:href="#U"/><use transform="matrix(0.013020833333333334,0,0,0.013020833333333334,14.114583333333334,0)" xlink:href="#O"/><use transform="matrix(0.013020833333333334,0,0,0.013020833333333334,28.450520833333336,0)" xlink:href="#J"/><use transform="matrix(0.013020833333333334,0,0,0.013020833333333334,35,0)" xlink:href="#J"/><use transform="matrix(0.013020833333333334,0,0,0.013020833333333334,41.549479166666664,0)" xlink:href="#K"/><use transform="matrix(0.013020833333333334,0,0,0.013020833333333334,54.97395833333332,0)" xlink:href="#V"/><use transform="matrix(0.013020833333333334,0,0,0.013020833333333334,66.1328125,0)" xlink:href="#N"/><use transform="matrix(0.013020833333333334,0,0,0.013020833333333334,75.37760416666667,0)" xlink:href="#H"/><use transform="matrix(0.013020833333333334,0,0,0.013020833333333334,81.92708333333334,0)" xlink:href="#O"/><use transform="matrix(0.013020833333333334,0,0,0.013020833333333334,96.26302083333334,0)" xlink:href="#F"/></g><path fill="#fff" d="M1-1328h211c47 0 77 24 88 58 97 290 184 584 280 873 10 32 19 65 28 100 14-67 35-133 54-191l249-782c10-30 44-58 87-58h212L724 0H487" id="W"/><path fill="#fff" d="M1198-932c62 158 61 378 0 536C1107-162 916 0 600 0H116v-1328h484c315 6 507 163 598 396zM600-209c264-9 377-187 377-456 0-268-114-446-377-455H380v911h220" id="X"/><g id="h"><use transform="matrix(0.013020833333333334,0,0,0.013020833333333334,0,0)" xlink:href="#L"/><use transform="matrix(0.013020833333333334,0,0,0.013020833333333334,8.307291666666668,0)" xlink:href="#E"/><use transform="matrix(0.013020833333333334,0,0,0.013020833333333334,23.098958333333336,0)" xlink:href="#W"/><use transform="matrix(0.013020833333333334,0,0,0.013020833333333334,38.8671875,0)" xlink:href="#X"/></g><path fill="#fff" d="M545-767c-109 4-148 72-181 151V0H110v-993c66 5 161-12 204 14 28 28 23 102 33 150 53-94 116-183 244-183 43 0 79 10 107 31l-19 190c-6 59-87 22-134 24" id="Y"/><g id="i"><use transform="matrix(0.013020833333333334,0,0,0.013020833333333334,0,0)" xlink:href="#O"/><use transform="matrix(0.013020833333333334,0,0,0.013020833333333334,14.3359375,0)" xlink:href="#Y"/></g><path fill="#fff" d="M1037-902c0 300-189 436-495 441H378V0H115v-1328h427c303 4 495 131 495 426zm-263 0c0-143-81-224-232-224H378v461h164c156 2 232-87 232-237" id="Z"/><g id="j"><use transform="matrix(0.013020833333333334,0,0,0.013020833333333334,0,0)" xlink:href="#U"/><use transform="matrix(0.013020833333333334,0,0,0.013020833333333334,14.114583333333334,0)" xlink:href="#W"/><use transform="matrix(0.013020833333333334,0,0,0.013020833333333334,29.8828125,0)" xlink:href="#Z"/><use transform="matrix(0.013020833333333334,0,0,0.013020833333333334,44.075520833333336,0)" xlink:href="#T"/></g><filter id="e" filterUnits="objectBoundingBox" x="-.02" y="-.01" width="1.05" height="1.05"><feOffset result="offOut" in="SourceAlpha" dy="6"/><feGaussianBlur result="blurOut" in="offOut" stdDeviation="5"/><feColorMatrix result="colorOut" in="blurOut" values="0 0 0 0 0 0 0 0 0 0 0 0 0 0 0 0 0 0 0.5019607843137255 0"/><feBlend in="SourceGraphic" in2="colorOut"/></filter><path fill="#fff" d="M363-958c5 40 8 85 8 127V0H139v-1328c83 3 177-6 251 6 17 7 27 17 36 35l412 720c23 42 42 86 59 131 19-46 36-91 59-133l409-718c14-32 40-41 88-41h198V0h-231c1-296-1-596 2-890 1-21 2-42 4-64l-419 742c-28 50-62 58-128 58-41 0-70-20-92-58" id="aa"/><path fill="#fff" d="M483-1012c112 0 179 37 238 92v-517h254V0H818c-73 2-64-82-83-135C661-54 570 15 422 15 157 15 63-214 63-494c0-232 92-397 247-478 52-26 110-40 173-40zM325-494c0 166 29 308 186 308 106 0 161-51 210-111v-438c-43-55-93-85-178-85-170 0-218 146-218 326" id="ab"/><g id="l"><use transform="matrix(0.013020833333333334,0,0,0.013020833333333334,0,0)" xlink:href="#aa"/><use transform="matrix(0.013020833333333334,0,0,0.013020833333333334,23.307291666666668,0)" xlink:href="#O"/><use transform="matrix(0.013020833333333334,0,0,0.013020833333333334,37.64322916666667,0)" xlink:href="#ab"/><use transform="matrix(0.013020833333333334,0,0,0.013020833333333334,51.95312500000001,0)" xlink:href="#M"/><use transform="matrix(0.013020833333333334,0,0,0.013020833333333334,66.26302083333334,0)" xlink:href="#J"/><use transform="matrix(0.013020833333333334,0,0,0.013020833333333334,72.81250000000001,0)" xlink:href="#K"/><use transform="matrix(0.013020833333333334,0,0,0.013020833333333334,86.23697916666669,0)" xlink:href="#G"/></g><filter id="k" filterUnits="objectBoundingBox" x="-.06" y="-.05" width="1.11" height="1.25"><feOffset result="offOut" in="SourceAlpha" dy="6"/><feGaussianBlur result="blurOut" in="offOut" stdDeviation="5"/><feColorMatrix result="colorOut" in="blurOut" values="0 0 0 0 0 0 0 0 0 0 0 0 0 0 0 0 0 0 0.5019607843137255 0"/><feBlend in="SourceGraphic" in2="colorOut"/></filter><path fill="#fff" d="M1018-942c0 206-115 318-270 377 36 21 66 45 88 81L1133 0H896c-42 0-76-17-97-53L557-467c-20-31-37-43-86-44h-89V0H118v-1328h400c295 3 500 102 500 386zm-256 18c0-141-92-203-244-202H382v428h134c155-2 246-74 246-226" id="ac"/><g id="m"><use transform="matrix(0.013020833333333334,0,0,0.013020833333333334,0,0)" xlink:href="#ac"/><use transform="matrix(0.013020833333333334,0,0,0.013020833333333334,14.544270833333334,0)" xlink:href="#O"/><use transform="matrix(0.013020833333333334,0,0,0.013020833333333334,28.880208333333336,0)" xlink:href="#J"/><use transform="matrix(0.013020833333333334,0,0,0.013020833333333334,35.4296875,0)" xlink:href="#K"/><use transform="matrix(0.013020833333333334,0,0,0.013020833333333334,48.85416666666667,0)" xlink:href="#G"/></g><g id="n"><use transform="matrix(0.013020833333333334,0,0,0.013020833333333334,0,0)" xlink:href="#Z"/><use transform="matrix(0.013020833333333334,0,0,0.013020833333333334,14.192708333333334,0)" xlink:href="#J"/><use transform="matrix(0.013020833333333334,0,0,0.013020833333333334,20.7421875,0)" xlink:href="#M"/><use transform="matrix(0.013020833333333334,0,0,0.013020833333333334,35.052083333333336,0)" xlink:href="#S"/><use transform="matrix(0.013020833333333334,0,0,0.013020833333333334,47.6953125,0)" xlink:href="#H"/><use transform="matrix(0.013020833333333334,0,0,0.013020833333333334,54.24479166666667,0)" xlink:href="#F"/><use transform="matrix(0.013020833333333334,0,0,0.013020833333333334,68.5546875,0)" xlink:href="#G"/></g><path fill="#fff" d="M1179 0H915v-575H377V0H113v-1328h264v567h538v-567h264V0" id="ad"/><g id="p"><use transform="matrix(0.013020833333333334,0,0,0.013020833333333334,0,0)" xlink:href="#ad"/><use transform="matrix(0.013020833333333334,0,0,0.013020833333333334,16.822916666666668,0)" xlink:href="#O"/><use transform="matrix(0.013020833333333334,0,0,0.013020833333333334,31.158854166666668,0)" xlink:href="#G"/><use transform="matrix(0.013020833333333334,0,0,0.013020833333333334,41.497395833333336,0)" xlink:href="#N"/></g><path fill="#fff" d="M405 0H141v-1328h264V0" id="ae"/><path fill="#fff" d="M600 0H369L11-993h210c36-1 65 20 72 46l145 507c21 61 37 123 49 185 14-65 34-123 52-185l150-507c9-25 34-46 68-46h201" id="af"/><path fill="#fff" d="M467 269c-16 34-32 53-81 53H195L372-78 3-993h223c40-1 61 20 70 46 70 199 136 397 201 599 66-198 128-399 192-599 8-25 36-46 68-46h203" id="ag"/><g id="q"><use transform="matrix(0.013020833333333334,0,0,0.013020833333333334,0,0)" xlink:href="#ae"/><use transform="matrix(0.013020833333333334,0,0,0.013020833333333334,7.109375,0)" xlink:href="#F"/><use transform="matrix(0.013020833333333334,0,0,0.013020833333333334,21.041666666666668,0)" xlink:href="#af"/><use transform="matrix(0.013020833333333334,0,0,0.013020833333333334,33.411458333333336,0)" xlink:href="#K"/><use transform="matrix(0.013020833333333334,0,0,0.013020833333333334,46.8359375,0)" xlink:href="#F"/><use transform="matrix(0.013020833333333334,0,0,0.013020833333333334,60.8984375,0)" xlink:href="#N"/><use transform="matrix(0.013020833333333334,0,0,0.013020833333333334,69.8828125,0)" xlink:href="#O"/><use transform="matrix(0.013020833333333334,0,0,0.013020833333333334,84.21875,0)" xlink:href="#Y"/><use transform="matrix(0.013020833333333334,0,0,0.013020833333333334,93.81510416666667,0)" xlink:href="#ag"/></g><filter id="o" filterUnits="objectBoundingBox" x="-.05" y="-.04" width="1.1" height="1.2"><feOffset result="offOut" in="SourceAlpha" dy="6"/><feGaussianBlur result="blurOut" in="offOut" stdDeviation="5"/><feColorMatrix result="colorOut" in="blurOut" values="0 0 0 0 0 0 0 0 0 0 0 0 0 0 0 0 0 0 0.5019607843137255 0"/><feBlend in="SourceGraphic" in2="colorOut"/></filter><path fill="#fff" d="M361-1437v818c49 1 81 0 101-33l182-298c19-25 41-43 83-43h232L719-628c-22 29-46 50-76 70 28 21 49 46 66 77L970 0H742c-39 0-69-13-84-44L476-414c-16-28-25-37-64-37h-51V0H107v-1437h254" id="ah"/><g id="s"><use transform="matrix(0.013020833333333334,0,0,0.013020833333333334,0,0)" xlink:href="#Z"/><use transform="matrix(0.013020833333333334,0,0,0.013020833333333334,14.192708333333334,0)" xlink:href="#J"/><use transform="matrix(0.013020833333333334,0,0,0.013020833333333334,20.7421875,0)" xlink:href="#Q"/><use transform="matrix(0.013020833333333334,0,0,0.013020833333333334,33.42447916666667,0)" xlink:href="#ag"/><use transform="matrix(0.013020833333333334,0,0,0.013020833333333334,46.05468750000001,0)" xlink:href="#I"/><use transform="matrix(0.013020833333333334,0,0,0.013020833333333334,60.36458333333335,0)" xlink:href="#O"/><use transform="matrix(0.013020833333333334,0,0,0.013020833333333334,74.70052083333334,0)" xlink:href="#O"/><use transform="matrix(0.013020833333333334,0,0,0.013020833333333334,89.03645833333334,0)" xlink:href="#ah"/></g><g id="u"><use transform="matrix(0.013020833333333334,0,0,0.013020833333333334,0,0)" xlink:href="#Z"/><use transform="matrix(0.013020833333333334,0,0,0.013020833333333334,14.192708333333334,0)" xlink:href="#J"/><use transform="matrix(0.013020833333333334,0,0,0.013020833333333334,20.7421875,0)" xlink:href="#Q"/><use transform="matrix(0.013020833333333334,0,0,0.013020833333333334,33.42447916666667,0)" xlink:href="#ag"/></g><g id="v"><use transform="matrix(0.013020833333333334,0,0,0.013020833333333334,0,0)" xlink:href="#Z"/><use transform="matrix(0.013020833333333334,0,0,0.013020833333333334,14.192708333333334,0)" xlink:href="#J"/><use transform="matrix(0.013020833333333334,0,0,0.013020833333333334,20.7421875,0)" xlink:href="#Q"/><use transform="matrix(0.013020833333333334,0,0,0.013020833333333334,33.42447916666667,0)" xlink:href="#ag"/></g><filter id="r" filterUnits="objectBoundingBox" x="-.06" y="-.02" width="1.11" height="1.09"><feOffset result="offOut" in="SourceAlpha" dy="6"/><feGaussianBlur result="blurOut" in="offOut" stdDeviation="5"/><feColorMatrix result="colorOut" in="blurOut" values="0 0 0 0 0 0 0 0 0 0 0 0 0 0 0 0 0 0 0.5019607843137255 0"/><feBlend in="SourceGraphic" in2="colorOut"/></filter><filter id="w" filterUnits="objectBoundingBox" x="-.04" y="-.01" width="1.08" height="1.04"><feOffset result="offOut" in="SourceAlpha" dy="6"/><feGaussianBlur result="blurOut" in="offOut" stdDeviation="5"/><feColorMatrix result="colorOut" in="blurOut" values="0 0 0 0 0 0 0 0 0 0 0 0 0 0 0 0 0 0 0.5019607843137255 0"/><feBlend in="SourceGraphic" in2="colorOut"/></filter><path d="M375-536c5 198 97 324 294 324s294-126 294-324v-792h262v792c-5 265-130 431-324 510-132 55-333 55-465 0-195-79-324-244-324-510v-792h263v792" id="ai"/><path d="M80-702c6-234 206-338 457-298 93 15 166 59 220 115-26 37-46 85-79 115-8 4-17 7-28 7-73 0-113-61-203-61-94 0-160 79-107 152 93 83 270 88 356 179 39 42 70 95 69 176C761-63 553 47 286 6 191-9 109-52 51-106c29-40 47-92 85-123 77-33 115 38 178 55 22 6 48 12 80 12 81 0 133-35 133-110 0-69-60-91-116-111C252-440 75-483 80-702" id="aj"/><path d="M960-149C871-45 736 15 551 15 231 15 63-191 63-518c0-229 113-378 277-452 59-26 125-39 199-39 278 0 430 170 430 452 0 55-4 97-59 97H316c14 166 83 276 257 279 98 1 159-38 221-71 33-18 71-20 93 9zM741-612c-4-130-65-216-197-216-140 0-203 89-223 216h420" id="ak"/><path d="M545-767c-109 4-148 72-181 151V0H110v-993c66 5 161-12 204 14 28 28 23 102 33 150 53-94 116-183 244-183 43 0 79 10 107 31l-19 190c-6 59-87 22-134 24" id="al"/><g id="x"><use transform="matrix(0.013020833333333332,0,0,0.013020833333333332,0,0)" xlink:href="#ai"/><use transform="matrix(0.013020833333333332,0,0,0.013020833333333332,17.408854166666664,0)" xlink:href="#aj"/><use transform="matrix(0.013020833333333332,0,0,0.013020833333333332,28.046874999999996,0)" xlink:href="#ak"/><use transform="matrix(0.013020833333333332,0,0,0.013020833333333332,41.471354166666664,0)" xlink:href="#al"/></g><path d="M1063-193C972-66 836 14 625 14 325 14 160-160 82-392c-55-162-54-387 4-546 84-230 253-399 553-405 185-4 321 74 409 173-37 47-65 102-108 143-52 29-90-19-122-42-68-49-222-71-314-21-130 72-193 222-193 425 0 205 69 355 201 427 92 51 249 32 318-20 30-23 81-99 128-48" id="am"/><path d="M352-974c116-47 283-48 399 0 177 72 288 230 288 475 0 247-110 405-288 478-116 48-283 48-399 0C173-94 62-251 62-499c0-246 112-403 290-475zm-28 477c0 189 54 318 228 318 172 0 225-131 225-318s-53-318-225-318c-174 0-228 130-228 318" id="an"/><path d="M582-811c-92 1-152 44-204 95V0H124v-993c65 5 150-14 196 11 30 17 27 71 39 107 74-72 158-134 301-134 225 0 332 151 332 377V0H738v-632c0-109-49-180-156-179" id="ao"/><path d="M562-1233c-141 0-169 100-160 247h230v180H410V0H156v-806c-55-15-135-9-136-77v-103h136c-14-277 106-437 363-437 48 0 83 7 122 18l-6 127c-1 39-36 45-73 45" id="ap"/><path d="M379-993V0H125v-993h254zm-132-444c97 0 163 62 163 159 0 96-66 158-163 158-94 0-157-63-157-158s62-159 157-159" id="aq"/><path d="M237-422C149-472 82-557 82-689c0-216 159-321 379-321 84 0 155 20 212 50h276c-4 65 18 134-54 149l-78 16c77 287-142 467-449 420-41 23-55 80-11 98 131 54 363 5 481 88 55 38 98 94 94 188-7 175-124 268-266 319-160 56-414 25-516-51C94 225 47 170 47 85c0-102 65-154 143-188-45-27-81-71-78-144 4-90 61-138 125-175zm238 589c116 0 216-18 223-125-14-108-163-84-274-96-28-3-56-4-83-7-38 25-74 57-74 114 0 100 100 114 208 114zM312-683c0 93 51 153 149 153 99 0 150-59 150-153 0-96-50-151-150-151-99 0-149 56-149 151" id="ar"/><path d="M439 15c-225-4-332-150-332-377v-631h254v631c0 110 48 181 156 180 91-1 152-46 204-95v-716h254V0c-65-5-152 14-197-12-30-17-26-70-39-106C664-46 580 18 439 15" id="as"/><path d="M534-1012c240 0 371 147 371 387V0c-80-7-186 24-201-53l-22-66C598-47 516 18 362 15 183 12 73-75 73-255c0-177 142-239 303-283 75-20 169-31 281-34 9-142-26-239-155-239-97 0-149 37-209 70-49 27-108 2-128-33l-46-80c103-96 231-158 415-158zM316-268c-2 80 48 110 125 110 107 0 156-41 216-100v-160c-111 5-199 15-269 48-43 21-70 49-72 102" id="at"/><path d="M619 15c-128 0-198-56-256-127-11 50-5 112-70 112H124v-1437h254v561c71-71 156-133 289-133 266 0 369 213 369 487 0 241-87 415-246 498-51 26-108 39-171 39zm155-527c0-166-35-299-195-299-102 0-149 49-201 111v438c43 54 92 85 176 85 177 0 220-149 220-335" id="au"/><path d="M379-1437V0H125v-1437h254" id="av"/><g id="y"><use transform="matrix(0.013020833333333332,0,0,0.013020833333333332,0,0)" xlink:href="#am"/><use transform="matrix(0.013020833333333332,0,0,0.013020833333333332,14.114583333333332,0)" xlink:href="#an"/><use transform="matrix(0.013020833333333332,0,0,0.013020833333333332,28.450520833333332,0)" xlink:href="#ao"/><use transform="matrix(0.013020833333333332,0,0,0.013020833333333332,42.61718749999999,0)" xlink:href="#ap"/><use transform="matrix(0.013020833333333332,0,0,0.013020833333333332,51.05468749999999,0)" xlink:href="#aq"/><use transform="matrix(0.013020833333333332,0,0,0.013020833333333332,57.604166666666664,0)" xlink:href="#ar"/><use transform="matrix(0.013020833333333332,0,0,0.013020833333333332,70.24739583333333,0)" xlink:href="#as"/><use transform="matrix(0.013020833333333332,0,0,0.013020833333333332,84.55729166666666,0)" xlink:href="#al"/><use transform="matrix(0.013020833333333332,0,0,0.013020833333333332,93.45052083333333,0)" xlink:href="#at"/><use transform="matrix(0.013020833333333332,0,0,0.013020833333333332,106.61458333333333,0)" xlink:href="#au"/><use transform="matrix(0.013020833333333332,0,0,0.013020833333333332,120.92447916666666,0)" xlink:href="#av"/><use transform="matrix(0.013020833333333332,0,0,0.013020833333333332,127.47395833333333,0)" xlink:href="#ak"/></g><path fill="#fff" d="M996-1328v214H638V0H376v-1114H18v-214h978" id="aw"/><path fill="#fff" d="M615 15c-112 0-178-37-238-91v398H123V-993c65 5 149-11 197 11 31 24 28 81 42 121 74-81 161-151 314-151 265 0 360 229 360 508 0 232-93 399-248 480-52 26-109 39-173 39zm159-519c0-165-29-307-185-307-108 0-158 47-212 111v440c43 53 94 83 178 83 171 0 219-146 219-327" id="ax"/><g id="A"><use transform="matrix(0.013020833333333334,0,0,0.013020833333333334,0,0)" xlink:href="#aw"/><use transform="matrix(0.013020833333333334,0,0,0.013020833333333334,10.8984375,0)" xlink:href="#K"/><use transform="matrix(0.013020833333333334,0,0,0.013020833333333334,24.322916666666668,0)" xlink:href="#P"/><use transform="matrix(0.013020833333333334,0,0,0.013020833333333334,46.015625,0)" xlink:href="#ax"/><use transform="matrix(0.013020833333333334,0,0,0.013020833333333334,60.325520833333336,0)" xlink:href="#J"/><use transform="matrix(0.013020833333333334,0,0,0.013020833333333334,66.875,0)" xlink:href="#Q"/><use transform="matrix(0.013020833333333334,0,0,0.013020833333333334,79.79166666666667,0)" xlink:href="#N"/><use transform="matrix(0.013020833333333334,0,0,0.013020833333333334,88.71093750000001,0)" xlink:href="#K"/><use transform="matrix(0.013020833333333334,0,0,0.013020833333333334,102.13541666666669,0)" xlink:href="#G"/></g><filter id="z" filterUnits="objectBoundingBox" x="-.07" y="-.07" width="1.14" height="1.33"><feOffset result="offOut" in="SourceAlpha" dy="6"/><feGaussianBlur result="blurOut" in="offOut" stdDeviation="5"/><feColorMatrix result="colorOut" in="blurOut" values="0 0 0 0 0 0 0 0 0 0 0 0 0 0 0 0 0 0 0.5019607843137255 0"/><feBlend in="SourceGraphic" in2="colorOut"/></filter><path fill="#fff" d="M890-1328v209H373v376h433v209H373V0H109v-1328h781" id="ay"/><g id="B"><use transform="matrix(0.013020833333333334,0,0,0.013020833333333334,0,0)" xlink:href="#ay"/><use transform="matrix(0.013020833333333334,0,0,0.013020833333333334,12.239583333333334,0)" xlink:href="#ae"/><use transform="matrix(0.013020833333333334,0,0,0.013020833333333334,19.348958333333336,0)" xlink:href="#J"/><use transform="matrix(0.013020833333333334,0,0,0.013020833333333334,25.898437500000004,0)" xlink:href="#K"/><use transform="matrix(0.013020833333333334,0,0,0.013020833333333334,39.32291666666667,0)" xlink:href="#G"/></g><g id="C"><use transform="matrix(0.013020833333333334,0,0,0.013020833333333334,0,0)" xlink:href="#W"/><use transform="matrix(0.013020833333333334,0,0,0.013020833333333334,14.296875,0)" xlink:href="#Q"/><use transform="matrix(0.013020833333333334,0,0,0.013020833333333334,27.4609375,0)" xlink:href="#Y"/><use transform="matrix(0.013020833333333334,0,0,0.013020833333333334,36.94010416666667,0)" xlink:href="#H"/><use transform="matrix(0.013020833333333334,0,0,0.013020833333333334,43.489583333333336,0)" xlink:href="#Q"/><use transform="matrix(0.013020833333333334,0,0,0.013020833333333334,56.653645833333336,0)" xlink:href="#I"/><use transform="matrix(0.013020833333333334,0,0,0.013020833333333334,70.96354166666667,0)" xlink:href="#J"/><use transform="matrix(0.013020833333333334,0,0,0.013020833333333334,77.51302083333334,0)" xlink:href="#K"/><use transform="matrix(0.013020833333333334,0,0,0.013020833333333334,90.93750000000001,0)" xlink:href="#G"/></g><g id="D"><use transform="matrix(0.013020833333333334,0,0,0.013020833333333334,0,0)" xlink:href="#aw"/><use transform="matrix(0.013020833333333334,0,0,0.013020833333333334,11.184895833333332,0)" xlink:href="#Q"/><use transform="matrix(0.013020833333333334,0,0,0.013020833333333334,24.348958333333332,0)" xlink:href="#G"/><use transform="matrix(0.013020833333333334,0,0,0.013020833333333334,34.986979166666664,0)" xlink:href="#ah"/><use transform="matrix(0.013020833333333334,0,0,0.013020833333333334,47.56510416666667,0)" xlink:href="#G"/></g></defs></g></svg>