<svg xmlns="http://www.w3.org/2000/svg" xmlns:xlink="http://www.w3.org/1999/xlink" xmlns:lucid="lucid" width="1074.14" height="682.22"><g transform="translate(212.63869629329628 -19.275188466199438)" lucid:page-tab-id="YPdnIyyb_Job"><path d="M-191.14 46.77a6 6 0 0 1 6-6H834a6 6 0 0 1 6 6V674a6 6 0 0 1-6 6H-185.14a6 6 0 0 1-6-6z" stroke="#dfe3e8" stroke-width="3" fill="#dfe3e8"/><g filter="url(#a)"><path d="M248.98 85a5 5 0 0 1 5-5h180.9a5 5 0 0 1 5 5v90.8a5 5 0 0 1-5 5h-180.9a5 5 0 0 1-5-5z" fill="#fff" fill-opacity="0"/><path d="M253.98 80a5 5 0 0 0-5 5v90.8a5 5 0 0 0 5 5h180.9a5 5 0 0 0 5-5V85a5 5 0 0 0-5-5z" stroke="#00c2a8" stroke-width="3" fill="#00c2a8"/><use xlink:href="#b" transform="matrix(1,0,0,1,260.04911706860054,91.7944185506009) translate(1.6549479166666572 45.666666666666664)"/><use xlink:href="#c" transform="matrix(1,0,0,1,260.04911706860054,91.7944185506009) translate(108.06119791666666 45.666666666666664)"/></g><g filter="url(#d)"><path d="M214.43 305a5 5 0 0 1 5-5h250a5 5 0 0 1 5 5v122.15a5 5 0 0 1-5 5h-250a5 5 0 0 1-5-5z" fill="#fff" fill-opacity="0"/><path d="M219.43 300a5 5 0 0 0-5 5v122.15a5 5 0 0 0 5 5h250a5 5 0 0 0 5-5V305a5 5 0 0 0-5-5z" stroke="#6f7681" stroke-width="3" fill="#6f7681"/><use xlink:href="#e" transform="matrix(1,0,0,1,229.5106518533519,315.46117866489504) translate(74.02994791666666 44.33333333333333)"/><use xlink:href="#f" transform="matrix(1,0,0,1,229.5106518533519,315.46117866489504) translate(0.1367187499999858 71)"/><use xlink:href="#g" transform="matrix(1,0,0,1,229.5106518533519,315.46117866489504) translate(147.31119791666669 71)"/></g><g filter="url(#h)"><path d="M620 321.07a5 5 0 0 1 5-5h130a5 5 0 0 1 5 5v90a5 5 0 0 1-5 5H625a5 5 0 0 1-5-5z" fill="#fff" fill-opacity="0"/><path d="M625 316.07a5 5 0 0 0-5 5v90a5 5 0 0 0 5 5h130a5 5 0 0 0 5-5v-90a5 5 0 0 0-5-5z" stroke="#6db1ff" stroke-width="3" fill="#6db1ff"/><use xlink:href="#i" transform="matrix(1,0,0,1,628.12,327.7734130978421) translate(31.309895833333332 45.166666666666664)"/></g><g filter="url(#a)"><path d="M-120 321.07a5 5 0 0 1 5-5H65.9a5 5 0 0 1 5 5v90.8a5 5 0 0 1-5 5H-115a5 5 0 0 1-5-5z" fill="#fff" fill-opacity="0"/><path d="M-115 316.07a5 5 0 0 0-5 5v90.8a5 5 0 0 0 5 5H65.9a5 5 0 0 0 5-5v-90.8a5 5 0 0 0-5-5z" stroke="#fc9432" stroke-width="3" fill="#fc9432"/><use xlink:href="#j" transform="matrix(1,0,0,1,-108.92730991512313,327.867831648443) translate(25.90625 45.666666666666664)"/><use xlink:href="#c" transform="matrix(1,0,0,1,-108.92730991512313,327.867831648443) translate(83.80989583333334 45.666666666666664)"/></g><g filter="url(#a)"><path d="M248.98 545a5 5 0 0 1 5-5h180.9a5 5 0 0 1 5 5v90.8a5 5 0 0 1-5 5h-180.9a5 5 0 0 1-5-5z" fill="#fff" fill-opacity="0"/><path d="M253.98 540a5 5 0 0 0-5 5v90.8a5 5 0 0 0 5 5h180.9a5 5 0 0 0 5-5V545a5 5 0 0 0-5-5z" stroke="#54c45e" stroke-width="3" fill="#54c45e"/><use xlink:href="#k" transform="matrix(1,0,0,1,260.04911706860054,551.7944185506009) translate(52.162760416666664 32.33333333333333)"/><use xlink:href="#l" transform="matrix(1,0,0,1,260.04911706860054,551.7944185506009) translate(18.61458333333333 59)"/></g><path d="M73.9 366.48h136.3" stroke="#5e5e5e" stroke-width="3" fill="none"/><path d="M73.95 367.95H72.4V365h1.55z" stroke="#5e5e5e" stroke-width=".05" fill="#5e5e5e"/><path d="M192.77 376.66l17.2-10.18-17.2-10.18" stroke="#5e5e5e" stroke-width="3" fill="none"/><path d="M345.9 295.77h-2.94v-55.35h2.95zm0-76.7h-2.94v-35.26h2.95z" stroke="#5e5e5e" stroke-width=".05" fill="#5e5e5e"/><path d="M345.9 182.3v1.54h-2.94v-1.53z" fill="#5e5e5e"/><path stroke="#5e5e5e" stroke-width=".05" fill="#5e5e5e"/><path d="M355.88 279.1l-11.45 19.35-11.45-19.36 2.54-1.5 8.9 15.06 8.92-15.07z" stroke="#5e5e5e" stroke-width=".05" fill="#5e5e5e"/><use xlink:href="#m" transform="matrix(1,0,0,1,326.18373834951694,219.08298472698132) translate(0 14.222222222222223)"/><path d="M490.9 367.55h-13.47v-2.95h13.48zm124.87 0h-44.4v-2.95h44.4z" stroke="#5e5e5e" stroke-width=".05" fill="#5e5e5e"/><path d="M477.47 367.55h-1.54v-2.95h1.54z" fill="#5e5e5e"/><path stroke="#5e5e5e" stroke-width=".05" fill="#5e5e5e"/><path d="M618.45 366.07l-19.36 11.45-1.5-2.53 15.06-8.93-15.07-8.9 1.5-2.55z" stroke="#5e5e5e" stroke-width=".05" fill="#5e5e5e"/><use xlink:href="#n" transform="matrix(1,0,0,1,490.913460974953,355.40674639609534) translate(0 14.222222222222223)"/><use xlink:href="#o" transform="matrix(1,0,0,1,490.913460974953,355.40674639609534) translate(50.8641975308642 14.222222222222223)"/><path d="M345.9 535.77h-2.94v-39.03h2.95zm0-60.36h-2.94v-40.25h2.95z" stroke="#5e5e5e" stroke-width=".05" fill="#5e5e5e"/><path d="M345.9 433.65v1.54h-2.94v-1.55z" fill="#5e5e5e"/><path stroke="#5e5e5e" stroke-width=".05" fill="#5e5e5e"/><path d="M355.88 519.1l-11.45 19.35-11.45-19.36 2.54-1.5 8.9 15.06 8.92-15.07z" stroke="#5e5e5e" stroke-width=".05" fill="#5e5e5e"/><use xlink:href="#p" transform="matrix(1,0,0,1,329.6405283965618,475.40674633333316) translate(0 14.222222222222223)"/><path d="M506.73 486.1h1.06l-81.35 52.82-1.6-2.47 81.88-53.16zm110.43-71l-80.85 52.5v-2.82h-1.06l80.32-52.14z" stroke="#5e5e5e" stroke-width=".05" fill="#5e5e5e"/><path d="M426.22 538.5h-4.54l3.2-2.08z" fill="#5e5e5e"/><path stroke="#5e5e5e" stroke-width=".05" fill="#5e5e5e"/><path d="M608.6 432.57l-2.64-1.32 7.8-15.68-17.5.74-.13-2.94 22.48-.94z" stroke="#5e5e5e" stroke-width=".05" fill="#5e5e5e"/><use xlink:href="#p" transform="matrix(1,0,0,1,506.72642345215235,464.7796047396676) translate(0 14.222222222222223)"/><defs><path fill="#fff" d="M1292-934c62 161 62 379 0 540-91 237-280 408-598 408S186-158 94-394c-62-161-63-379 0-540 92-237 282-409 600-409 317 0 507 173 598 409zM694-210c263 0 376-186 376-455 0-268-114-455-376-455-263 0-377 187-377 455 0 269 113 455 377 455" id="q"/><path fill="#fff" d="M615 15c-112 0-178-37-238-91v398H123V-993c65 5 149-11 197 11 31 24 28 81 42 121 74-81 161-151 314-151 265 0 360 229 360 508 0 232-93 399-248 480-52 26-109 39-173 39zm159-519c0-165-29-307-185-307-108 0-158 47-212 111v440c43 53 94 83 178 83 171 0 219-146 219-327" id="r"/><path fill="#fff" d="M960-149C871-45 736 15 551 15 231 15 63-191 63-518c0-229 113-378 277-452 59-26 125-39 199-39 278 0 430 170 430 452 0 55-4 97-59 97H316c14 166 83 276 257 279 98 1 159-38 221-71 33-18 71-20 93 9zM741-612c-4-130-65-216-197-216-140 0-203 89-223 216h420" id="s"/><path fill="#fff" d="M545-767c-109 4-148 72-181 151V0H110v-993c66 5 161-12 204 14 28 28 23 102 33 150 53-94 116-183 244-183 43 0 79 10 107 31l-19 190c-6 59-87 22-134 24" id="t"/><path fill="#fff" d="M534-1012c240 0 371 147 371 387V0c-80-7-186 24-201-53l-22-66C598-47 516 18 362 15 183 12 73-75 73-255c0-177 142-239 303-283 75-20 169-31 281-34 9-142-26-239-155-239-97 0-149 37-209 70-49 27-108 2-128-33l-46-80c103-96 231-158 415-158zM316-268c-2 80 48 110 125 110 107 0 156-41 216-100v-160c-111 5-199 15-269 48-43 21-70 49-72 102" id="u"/><path fill="#fff" d="M680-72c-61 52-150 86-256 87-172 2-267-108-267-279v-542c-63-2-138 16-138-53v-101l151-29 53-262c11-66 119-33 188-41v306h245v180H411v525c0 54 23 90 73 93 51 3 85-62 119-7" id="v"/><path fill="#fff" d="M352-974c116-47 283-48 399 0 177 72 288 230 288 475 0 247-110 405-288 478-116 48-283 48-399 0C173-94 62-251 62-499c0-246 112-403 290-475zm-28 477c0 189 54 318 228 318 172 0 225-131 225-318s-53-318-225-318c-174 0-228 130-228 318" id="w"/><g id="b"><use transform="matrix(0.013020833333333334,0,0,0.013020833333333334,0,0)" xlink:href="#q"/><use transform="matrix(0.013020833333333334,0,0,0.013020833333333334,18.033854166666668,0)" xlink:href="#r"/><use transform="matrix(0.013020833333333334,0,0,0.013020833333333334,32.34375,0)" xlink:href="#s"/><use transform="matrix(0.013020833333333334,0,0,0.013020833333333334,45.76822916666667,0)" xlink:href="#t"/><use transform="matrix(0.013020833333333334,0,0,0.013020833333333334,54.66145833333335,0)" xlink:href="#u"/><use transform="matrix(0.013020833333333334,0,0,0.013020833333333334,67.578125,0)" xlink:href="#v"/><use transform="matrix(0.013020833333333334,0,0,0.013020833333333334,76.5625,0)" xlink:href="#w"/><use transform="matrix(0.013020833333333334,0,0,0.013020833333333334,90.8984375,0)" xlink:href="#t"/></g><path fill="#fff" d="M405 0H141v-1328h264V0" id="x"/><path fill="#fff" d="M582-811c-92 1-152 44-204 95V0H124v-993c65 5 150-14 196 11 30 17 27 71 39 107 74-72 158-134 301-134 225 0 332 151 332 377V0H738v-632c0-109-49-180-156-179" id="y"/><path fill="#fff" d="M439 15c-225-4-332-150-332-377v-631h254v631c0 110 48 181 156 180 91-1 152-46 204-95v-716h254V0c-65-5-152 14-197-12-30-17-26-70-39-106C664-46 580 18 439 15" id="z"/><g id="c"><use transform="matrix(0.013020833333333334,0,0,0.013020833333333334,0,0)" xlink:href="#x"/><use transform="matrix(0.013020833333333334,0,0,0.013020833333333334,7.109375,0)" xlink:href="#y"/><use transform="matrix(0.013020833333333334,0,0,0.013020833333333334,21.419270833333336,0)" xlink:href="#r"/><use transform="matrix(0.013020833333333334,0,0,0.013020833333333334,35.72916666666667,0)" xlink:href="#z"/><use transform="matrix(0.013020833333333334,0,0,0.013020833333333334,50.03906250000001,0)" xlink:href="#v"/></g><filter id="a" filterUnits="objectBoundingBox" x="-.05" y="-.04" width="1.1" height="1.2"><feOffset result="offOut" in="SourceAlpha" dy="6"/><feGaussianBlur result="blurOut" in="offOut" stdDeviation="5"/><feColorMatrix result="colorOut" in="blurOut" values="0 0 0 0 0 0 0 0 0 0 0 0 0 0 0 0 0 0 0.5019607843137255 0"/><feBlend in="SourceGraphic" in2="colorOut"/></filter><path fill="#fff" d="M1240 0h-202c-47 1-76-24-87-58l-84-261H378L295-59c-11 29-44 59-86 59H4l484-1328h268zM437-503h370c-61-196-127-384-186-583-56 202-123 386-184 583" id="A"/><path fill="#fff" d="M80-702c6-234 206-338 457-298 93 15 166 59 220 115-26 37-46 85-79 115-8 4-17 7-28 7-73 0-113-61-203-61-94 0-160 79-107 152 93 83 270 88 356 179 39 42 70 95 69 176C761-63 553 47 286 6 191-9 109-52 51-106c29-40 47-92 85-123 77-33 115 38 178 55 22 6 48 12 80 12 81 0 133-35 133-110 0-69-60-91-116-111C252-440 75-483 80-702" id="B"/><path fill="#fff" d="M379-993V0H125v-993h254zm-132-444c97 0 163 62 163 159 0 96-66 158-163 158-94 0-157-63-157-158s62-159 157-159" id="C"/><path fill="#fff" d="M619 15c-128 0-198-56-256-127-11 50-5 112-70 112H124v-1437h254v561c71-71 156-133 289-133 266 0 369 213 369 487 0 241-87 415-246 498-51 26-108 39-171 39zm155-527c0-166-35-299-195-299-102 0-149 49-201 111v438c43 54 92 85 176 85 177 0 220-149 220-335" id="D"/><path fill="#fff" d="M379-1437V0H125v-1437h254" id="E"/><g id="e"><use transform="matrix(0.013020833333333334,0,0,0.013020833333333334,0,0)" xlink:href="#A"/><use transform="matrix(0.013020833333333334,0,0,0.013020833333333334,16.158854166666668,0)" xlink:href="#y"/><use transform="matrix(0.013020833333333334,0,0,0.013020833333333334,30.46875,0)" xlink:href="#B"/><use transform="matrix(0.013020833333333334,0,0,0.013020833333333334,41.106770833333336,0)" xlink:href="#C"/><use transform="matrix(0.013020833333333334,0,0,0.013020833333333334,47.65625,0)" xlink:href="#D"/><use transform="matrix(0.013020833333333334,0,0,0.013020833333333334,61.966145833333336,0)" xlink:href="#E"/><use transform="matrix(0.013020833333333334,0,0,0.013020833333333334,68.515625,0)" xlink:href="#s"/></g><path fill="#fff" d="M391 310C199 30 81-369 140-844c34-271 126-485 251-676 44 28 92 52 132 84 22 19 19 56 3 84-157 285-238 739-134 1136 33 127 72 249 134 358 23 40 7 83-22 100" id="F"/><path fill="#fff" d="M559-811c-82 0-133 41-177 88V0H128v-993c65 5 150-14 196 11 30 16 27 69 39 104 67-68 139-130 270-131 135-1 210 82 248 184 57-113 162-184 324-184 235 0 350 140 350 377V0h-254v-632c0-119-53-179-160-179-110 0-172 67-172 179V0H715v-632c1-120-46-179-156-179" id="G"/><g id="f"><use transform="matrix(0.013020833333333334,0,0,0.013020833333333334,0,0)" xlink:href="#F"/><use transform="matrix(0.013020833333333334,0,0,0.013020833333333334,8.307291666666668,0)" xlink:href="#A"/><use transform="matrix(0.013020833333333334,0,0,0.013020833333333334,24.466145833333336,0)" xlink:href="#z"/><use transform="matrix(0.013020833333333334,0,0,0.013020833333333334,38.77604166666667,0)" xlink:href="#v"/><use transform="matrix(0.013020833333333334,0,0,0.013020833333333334,47.76041666666667,0)" xlink:href="#w"/><use transform="matrix(0.013020833333333334,0,0,0.013020833333333334,62.09635416666667,0)" xlink:href="#G"/><use transform="matrix(0.013020833333333334,0,0,0.013020833333333334,83.7890625,0)" xlink:href="#u"/><use transform="matrix(0.013020833333333334,0,0,0.013020833333333334,96.70572916666667,0)" xlink:href="#v"/><use transform="matrix(0.013020833333333334,0,0,0.013020833333333334,105.95052083333334,0)" xlink:href="#C"/><use transform="matrix(0.013020833333333334,0,0,0.013020833333333334,112.5,0)" xlink:href="#w"/><use transform="matrix(0.013020833333333334,0,0,0.013020833333333334,126.8359375,0)" xlink:href="#y"/></g><path fill="#fff" d="M928-1328v209H382v351h425v201H382v358h547L928 0H118v-1328h810" id="H"/><path fill="#fff" d="M237-422C149-472 82-557 82-689c0-216 159-321 379-321 84 0 155 20 212 50h276c-4 65 18 134-54 149l-78 16c77 287-142 467-449 420-41 23-55 80-11 98 131 54 363 5 481 88 55 38 98 94 94 188-7 175-124 268-266 319-160 56-414 25-516-51C94 225 47 170 47 85c0-102 65-154 143-188-45-27-81-71-78-144 4-90 61-138 125-175zm238 589c116 0 216-18 223-125-14-108-163-84-274-96-28-3-56-4-83-7-38 25-74 57-74 114 0 100 100 114 208 114zM312-683c0 93 51 153 149 153 99 0 150-59 150-153 0-96-50-151-150-151-99 0-149 56-149 151" id="I"/><path fill="#fff" d="M247-1520c190 281 311 680 251 1154-34 270-127 485-251 676-44-28-94-51-133-84-22-18-18-56-2-84C269-143 350-597 246-994c-33-127-73-249-134-358-22-39-7-82 22-100" id="J"/><g id="g"><use transform="matrix(0.013020833333333334,0,0,0.013020833333333334,0,0)" xlink:href="#H"/><use transform="matrix(0.013020833333333334,0,0,0.013020833333333334,13.0078125,0)" xlink:href="#y"/><use transform="matrix(0.013020833333333334,0,0,0.013020833333333334,27.317708333333336,0)" xlink:href="#I"/><use transform="matrix(0.013020833333333334,0,0,0.013020833333333334,39.9609375,0)" xlink:href="#C"/><use transform="matrix(0.013020833333333334,0,0,0.013020833333333334,46.510416666666664,0)" xlink:href="#y"/><use transform="matrix(0.013020833333333334,0,0,0.013020833333333334,60.8203125,0)" xlink:href="#s"/><use transform="matrix(0.013020833333333334,0,0,0.013020833333333334,74.24479166666667,0)" xlink:href="#J"/></g><filter id="d" filterUnits="objectBoundingBox" x="-.04" y="-.03" width="1.08" height="1.15"><feOffset result="offOut" in="SourceAlpha" dy="6"/><feGaussianBlur result="blurOut" in="offOut" stdDeviation="5"/><feColorMatrix result="colorOut" in="blurOut" values="0 0 0 0 0 0 0 0 0 0 0 0 0 0 0 0 0 0 0.5019607843137255 0"/><feBlend in="SourceGraphic" in2="colorOut"/></filter><path fill="#fff" d="M1179 0H915v-575H377V0H113v-1328h264v567h538v-567h264V0" id="K"/><g id="i"><use transform="matrix(0.013020833333333334,0,0,0.013020833333333334,0,0)" xlink:href="#K"/><use transform="matrix(0.013020833333333334,0,0,0.013020833333333334,16.822916666666668,0)" xlink:href="#w"/><use transform="matrix(0.013020833333333334,0,0,0.013020833333333334,31.158854166666668,0)" xlink:href="#B"/><use transform="matrix(0.013020833333333334,0,0,0.013020833333333334,41.497395833333336,0)" xlink:href="#v"/><use transform="matrix(0.013020833333333334,0,0,0.013020833333333334,50.7421875,0)" xlink:href="#B"/></g><filter id="h" filterUnits="objectBoundingBox" x="-.07" y="-.04" width="1.14" height="1.2"><feOffset result="offOut" in="SourceAlpha" dy="6"/><feGaussianBlur result="blurOut" in="offOut" stdDeviation="5"/><feColorMatrix result="colorOut" in="blurOut" values="0 0 0 0 0 0 0 0 0 0 0 0 0 0 0 0 0 0 0.5019607843137255 0"/><feBlend in="SourceGraphic" in2="colorOut"/></filter><path fill="#fff" d="M1198-932c62 158 61 378 0 536C1107-162 916 0 600 0H116v-1328h484c315 6 507 163 598 396zM600-209c264-9 377-187 377-456 0-268-114-446-377-455H380v911h220" id="L"/><g id="j"><use transform="matrix(0.013020833333333334,0,0,0.013020833333333334,0,0)" xlink:href="#L"/><use transform="matrix(0.013020833333333334,0,0,0.013020833333333334,16.809895833333336,0)" xlink:href="#u"/><use transform="matrix(0.013020833333333334,0,0,0.013020833333333334,29.7265625,0)" xlink:href="#v"/><use transform="matrix(0.013020833333333334,0,0,0.013020833333333334,38.7109375,0)" xlink:href="#u"/></g><g id="k"><use transform="matrix(0.013020833333333334,0,0,0.013020833333333334,0,0)" xlink:href="#A"/><use transform="matrix(0.013020833333333334,0,0,0.013020833333333334,16.158854166666668,0)" xlink:href="#t"/><use transform="matrix(0.013020833333333334,0,0,0.013020833333333334,25.638020833333336,0)" xlink:href="#C"/><use transform="matrix(0.013020833333333334,0,0,0.013020833333333334,32.1875,0)" xlink:href="#B"/><use transform="matrix(0.013020833333333334,0,0,0.013020833333333334,42.526041666666664,0)" xlink:href="#v"/><use transform="matrix(0.013020833333333334,0,0,0.013020833333333334,51.51041666666667,0)" xlink:href="#u"/></g><path fill="#fff" d="M1063-193C972-66 836 14 625 14 325 14 160-160 82-392c-55-162-54-387 4-546 84-230 253-399 553-405 185-4 321 74 409 173-37 47-65 102-108 143-52 29-90-19-122-42-68-49-222-71-314-21-130 72-193 222-193 425 0 205 69 355 201 427 92 51 249 32 318-20 30-23 81-99 128-48" id="M"/><path fill="#fff" d="M483-1012c112 0 179 37 238 92v-517h254V0H818c-73 2-64-82-83-135C661-54 570 15 422 15 157 15 63-214 63-494c0-232 92-397 247-478 52-26 110-40 173-40zM325-494c0 166 29 308 186 308 106 0 161-51 210-111v-438c-43-55-93-85-178-85-170 0-218 146-218 326" id="N"/><path fill="#fff" d="M1-1328h211c47 0 77 24 88 58 97 290 184 584 280 873 10 32 19 65 28 100 14-67 35-133 54-191l249-782c10-30 44-58 87-58h212L724 0H487" id="O"/><g id="l"><use transform="matrix(0.013020833333333334,0,0,0.013020833333333334,0,0)" xlink:href="#M"/><use transform="matrix(0.013020833333333334,0,0,0.013020833333333334,14.114583333333334,0)" xlink:href="#E"/><use transform="matrix(0.013020833333333334,0,0,0.013020833333333334,20.6640625,0)" xlink:href="#w"/><use transform="matrix(0.013020833333333334,0,0,0.013020833333333334,35,0)" xlink:href="#z"/><use transform="matrix(0.013020833333333334,0,0,0.013020833333333334,49.309895833333336,0)" xlink:href="#N"/><use transform="matrix(0.013020833333333334,0,0,0.013020833333333334,63.61979166666667,0)" xlink:href="#O"/><use transform="matrix(0.013020833333333334,0,0,0.013020833333333334,79.38802083333334,0)" xlink:href="#C"/><use transform="matrix(0.013020833333333334,0,0,0.013020833333333334,85.93750000000001,0)" xlink:href="#B"/><use transform="matrix(0.013020833333333334,0,0,0.013020833333333334,96.57552083333334,0)" xlink:href="#C"/><use transform="matrix(0.013020833333333334,0,0,0.013020833333333334,103.12500000000001,0)" xlink:href="#w"/><use transform="matrix(0.013020833333333334,0,0,0.013020833333333334,117.4609375,0)" xlink:href="#y"/></g><path fill="#333" d="M169-182c-1-43-94-46-97-3 18 66 151 10 154 114 3 95-165 93-204 36-6-8-10-19-12-30l50-8c3 46 112 56 116 5-17-69-150-10-154-114-4-87 153-88 188-35 5 8 8 18 10 28" id="P"/><path fill="#333" d="M186 0v-106H76V0H24v-248h52v99h110v-99h50V0h-50" id="Q"/><g id="m"><use transform="matrix(0.04938271604938272,0,0,0.04938271604938272,0,0)" xlink:href="#P"/><use transform="matrix(0.04938271604938272,0,0,0.04938271604938272,11.851851851851853,0)" xlink:href="#P"/><use transform="matrix(0.04938271604938272,0,0,0.04938271604938272,23.703703703703706,0)" xlink:href="#Q"/></g><path fill="#333" d="M136-208V0H84v-208H4v-40h212v40h-80" id="R"/><path fill="#333" d="M24-248c93 1 206-16 204 79-1 75-69 88-152 82V0H24v-248zm52 121c47 0 100 7 100-41 0-47-54-39-100-39v80" id="S"/><g id="n"><use transform="matrix(0.04938271604938272,0,0,0.04938271604938272,0,0)" xlink:href="#Q"/><use transform="matrix(0.04938271604938272,0,0,0.04938271604938272,12.790123456790125,0)" xlink:href="#R"/><use transform="matrix(0.04938271604938272,0,0,0.04938271604938272,23.60493827160494,0)" xlink:href="#R"/><use transform="matrix(0.04938271604938272,0,0,0.04938271604938272,34.41975308641975,0)" xlink:href="#S"/></g><path fill="#333" d="M199 0l-22-63H83L61 0H9l90-248h61L250 0h-51zm-33-102l-36-108c-10 38-24 72-36 108h72" id="T"/><path fill="#333" d="M24 0v-248h52V0H24" id="U"/><g id="o"><use transform="matrix(0.04938271604938272,0,0,0.04938271604938272,0,0)" xlink:href="#T"/><use transform="matrix(0.04938271604938272,0,0,0.04938271604938272,12.790123456790125,0)" xlink:href="#S"/><use transform="matrix(0.04938271604938272,0,0,0.04938271604938272,24.641975308641978,0)" xlink:href="#U"/></g><g id="p"><use transform="matrix(0.04938271604938272,0,0,0.04938271604938272,0,0)" xlink:href="#T"/><use transform="matrix(0.04938271604938272,0,0,0.04938271604938272,12.790123456790125,0)" xlink:href="#S"/><use transform="matrix(0.04938271604938272,0,0,0.04938271604938272,24.641975308641978,0)" xlink:href="#U"/></g></defs></g></svg>