<svg xmlns="http://www.w3.org/2000/svg" xmlns:xlink="http://www.w3.org/1999/xlink" xmlns:lucid="lucid" width="2629.61" height="911.42"><g transform="translate(-260.66936700142514 -221.5503769323987)" lucid:page-tab-id="XMrMEFgROiey"><path d="M0 0h3456v1360H0z" fill="#fff"/><path d="M280.67 247.55a6 6 0 0 1 6-6h1218.28a6 6 0 0 1 6 6v692a6 6 0 0 1-6 6H286.67a6 6 0 0 1-6-6z" stroke="#dbdbdb" stroke-width="3" fill="#f2f3f5"/><path d="M659.1 337.08a19 19 0 0 1 19-19h456.83a19 19 0 0 1 19 19v122a19 19 0 0 1-19 19H678.1a19 19 0 0 1-19-19zM1021.66 597.88a19 19 0 0 1 19-19h422a19 19 0 0 1 19 19v305.3a19 19 0 0 1-19 19h-422a19 19 0 0 1-19-19zM313.92 597.88a19 19 0 0 1 19-19h422a19 19 0 0 1 19 19v305.3a19 19 0 0 1-19 19h-422a19 19 0 0 1-19-19z" stroke="#ced4db" stroke-width="3" fill="#ced4db"/><g filter="url(#a)"><path d="M1043.55 613.1a.5.5 0 0 1 .5-.5h168.63a.5.5 0 0 1 .5.5v93.4a.5.5 0 0 1-.5.5h-168.63a.5.5 0 0 1-.5-.5z" fill="#fff" fill-opacity="0"/><path d="M1044.05 612.6a.5.5 0 0 0-.5.5v93.4a.5.5 0 0 0 .5.5h168.63a.5.5 0 0 0 .5-.5v-93.4a.5.5 0 0 0-.5-.5z" stroke="#315796" stroke-width="3" fill="#315796"/><use xlink:href="#b" transform="matrix(1,0,0,1,1053.384311490119,623.6434068677295) translate(17.36979166666667 43.166666666666664)"/></g><g filter="url(#a)"><path d="M1283.55 613.1a.5.5 0 0 1 .5-.5h168.63a.5.5 0 0 1 .5.5v93.4a.5.5 0 0 1-.5.5h-168.63a.5.5 0 0 1-.5-.5z" fill="#fff" fill-opacity="0"/><path d="M1284.05 612.6a.5.5 0 0 0-.5.5v93.4a.5.5 0 0 0 .5.5h168.63a.5.5 0 0 0 .5-.5v-93.4a.5.5 0 0 0-.5-.5z" stroke="#315796" stroke-width="3" fill="#315796"/><use xlink:href="#c" transform="matrix(1,0,0,1,1293.384311490119,623.6434068677295) translate(16.796875000000007 43.166666666666664)"/></g><g filter="url(#a)"><path d="M335.28 613.1a.5.5 0 0 1 .5-.5h168.64a.5.5 0 0 1 .5.5v93.4a.5.5 0 0 1-.5.5H335.78a.5.5 0 0 1-.5-.5z" fill="#fff" fill-opacity="0"/><path d="M335.78 612.6a.5.5 0 0 0-.5.5v93.4a.5.5 0 0 0 .5.5h168.64a.5.5 0 0 0 .5-.5v-93.4a.5.5 0 0 0-.5-.5z" stroke="#315796" stroke-width="3" fill="#315796"/><use xlink:href="#d" transform="matrix(1,0,0,1,345.1216901523673,623.6434068677297) translate(17.36979166666667 43.166666666666664)"/></g><g filter="url(#a)"><path d="M575.28 613.1a.5.5 0 0 1 .5-.5h168.64a.5.5 0 0 1 .5.5v93.4a.5.5 0 0 1-.5.5H575.78a.5.5 0 0 1-.5-.5z" fill="#fff" fill-opacity="0"/><path d="M575.78 612.6a.5.5 0 0 0-.5.5v93.4a.5.5 0 0 0 .5.5h168.64a.5.5 0 0 0 .5-.5v-93.4a.5.5 0 0 0-.5-.5z" stroke="#315796" stroke-width="3" fill="#315796"/><use xlink:href="#e" transform="matrix(1,0,0,1,585.1216901523674,623.6434068677297) translate(16.796875000000007 43.166666666666664)"/></g><path d="M487.28 635.8a.5.5 0 0 1 .5-.5h37a.5.5 0 0 1 .5.5v22.97a.5.5 0 0 1-.5.5h-37a.5.5 0 0 1-.5-.5z" fill="#fff" fill-opacity="0"/><path d="M487.78 636.27a.5.5 0 0 0-.5.5v21.03a.5.5 0 0 0 .5.5h37a.5.5 0 0 0 .5-.5V636.8a.5.5 0 0 0-.5-.5z" stroke="#5e5e5e" fill="#fff"/><use xlink:href="#f" transform="matrix(1,0,0,1,501.6840593712816,635.305422016109) translate(0.49479166666666696 16.444444444444443)"/><path d="M487.28 660.84a.5.5 0 0 1 .5-.5h37a.5.5 0 0 1 .5.5v22.96a.5.5 0 0 1-.5.5h-37a.5.5 0 0 1-.5-.5z" fill="#fff" fill-opacity="0"/><path d="M487.78 661.3a.5.5 0 0 0-.5.5v21.04a.5.5 0 0 0 .5.5h37a.5.5 0 0 0 .5-.5V661.8a.5.5 0 0 0-.5-.5z" stroke="#5e5e5e" fill="#fff"/><use xlink:href="#g" transform="matrix(1,0,0,1,501.6840593712816,660.3366720161091) translate(0.49479166666666696 16.444444444444443)"/><path d="M555.28 635.8a.5.5 0 0 1 .5-.5h37a.5.5 0 0 1 .5.5v22.97a.5.5 0 0 1-.5.5h-37a.5.5 0 0 1-.5-.5z" fill="#fff" fill-opacity="0"/><path d="M555.78 636.27a.5.5 0 0 0-.5.5v21.03a.5.5 0 0 0 .5.5h37a.5.5 0 0 0 .5-.5V636.8a.5.5 0 0 0-.5-.5z" stroke="#5e5e5e" fill="#fff"/><use xlink:href="#f" transform="matrix(1,0,0,1,569.6840593712816,635.305422016109) translate(0.49479166666666696 16.444444444444443)"/><path d="M555.28 660.84a.5.5 0 0 1 .5-.5h37a.5.5 0 0 1 .5.5v22.96a.5.5 0 0 1-.5.5h-37a.5.5 0 0 1-.5-.5z" fill="#fff" fill-opacity="0"/><path d="M555.78 661.3a.5.5 0 0 0-.5.5v21.04a.5.5 0 0 0 .5.5h37a.5.5 0 0 0 .5-.5V661.8a.5.5 0 0 0-.5-.5z" stroke="#5e5e5e" fill="#fff"/><use xlink:href="#g" transform="matrix(1,0,0,1,569.6840593712816,660.3366720161091) translate(0.49479166666666696 16.444444444444443)"/><path d="M527.28 647.3h26" stroke="#5e5e5e" stroke-width="3" fill="none"/><path d="M527.32 648.8h-1.54v-3h1.54zM554.78 648.8h-1.54v-3h1.54z" stroke="#5e5e5e" stroke-width=".05" fill="#5e5e5e"/><path d="M527.28 672.32h26" stroke="#5e5e5e" stroke-width="3" fill="none"/><path d="M527.32 673.82h-1.54v-3h1.54zM554.78 673.82h-1.54v-3h1.54z" stroke="#5e5e5e" stroke-width=".05" fill="#5e5e5e"/><path d="M1195.18 635.8a.5.5 0 0 1 .5-.5h37a.5.5 0 0 1 .5.5v22.97a.5.5 0 0 1-.5.5h-37a.5.5 0 0 1-.5-.5z" fill="#fff" fill-opacity="0"/><path d="M1195.68 636.27a.5.5 0 0 0-.5.5v21.03a.5.5 0 0 0 .5.5h37a.5.5 0 0 0 .5-.5V636.8a.5.5 0 0 0-.5-.5z" stroke="#5e5e5e" fill="#fff"/><use xlink:href="#f" transform="matrix(1,0,0,1,1209.586775807673,635.305422016109) translate(0.49479166666666696 16.444444444444443)"/><path d="M1195.18 660.84a.5.5 0 0 1 .5-.5h37a.5.5 0 0 1 .5.5v22.96a.5.5 0 0 1-.5.5h-37a.5.5 0 0 1-.5-.5z" fill="#fff" fill-opacity="0"/><path d="M1195.68 661.3a.5.5 0 0 0-.5.5v21.04a.5.5 0 0 0 .5.5h37a.5.5 0 0 0 .5-.5V661.8a.5.5 0 0 0-.5-.5z" stroke="#5e5e5e" fill="#fff"/><use xlink:href="#g" transform="matrix(1,0,0,1,1209.586775807673,660.3366720161091) translate(0.49479166666666696 16.444444444444443)"/><path d="M1263.18 635.8a.5.5 0 0 1 .5-.5h37a.5.5 0 0 1 .5.5v22.97a.5.5 0 0 1-.5.5h-37a.5.5 0 0 1-.5-.5z" fill="#fff" fill-opacity="0"/><path d="M1263.68 636.27a.5.5 0 0 0-.5.5v21.03a.5.5 0 0 0 .5.5h37a.5.5 0 0 0 .5-.5V636.8a.5.5 0 0 0-.5-.5z" stroke="#5e5e5e" fill="#fff"/><use xlink:href="#f" transform="matrix(1,0,0,1,1277.586775807673,635.305422016109) translate(0.49479166666666696 16.444444444444443)"/><path d="M1263.18 660.84a.5.5 0 0 1 .5-.5h37a.5.5 0 0 1 .5.5v22.96a.5.5 0 0 1-.5.5h-37a.5.5 0 0 1-.5-.5z" fill="#fff" fill-opacity="0"/><path d="M1263.68 661.3a.5.5 0 0 0-.5.5v21.04a.5.5 0 0 0 .5.5h37a.5.5 0 0 0 .5-.5V661.8a.5.5 0 0 0-.5-.5z" stroke="#5e5e5e" fill="#fff"/><use xlink:href="#g" transform="matrix(1,0,0,1,1277.586775807673,660.3366720161091) translate(0.49479166666666696 16.444444444444443)"/><path d="M1235.18 647.3h26" stroke="#5e5e5e" stroke-width="3" fill="none"/><path d="M1235.22 648.8h-1.54v-3h1.54zM1262.68 648.8h-1.53v-3h1.53z" stroke="#5e5e5e" stroke-width=".05" fill="#5e5e5e"/><path d="M1235.18 672.32h26" stroke="#5e5e5e" stroke-width="3" fill="none"/><path d="M1235.22 673.82h-1.54v-3h1.54zM1262.68 673.82h-1.53v-3h1.53z" stroke="#5e5e5e" stroke-width=".05" fill="#5e5e5e"/><g filter="url(#a)"><path d="M682.02 350.38a.5.5 0 0 1 .5-.5h168.64a.5.5 0 0 1 .5.5v93.4a.5.5 0 0 1-.5.5H682.52a.5.5 0 0 1-.5-.5z" fill="#fff" fill-opacity="0"/><path d="M682.52 349.88a.5.5 0 0 0-.5.5v93.4a.5.5 0 0 0 .5.5h168.64a.5.5 0 0 0 .5-.5v-93.4a.5.5 0 0 0-.5-.5z" stroke="#315796" stroke-width="3" fill="#315796"/><use xlink:href="#h" transform="matrix(1,0,0,1,691.858984346356,360.92219363286637) translate(15.052083333333329 43.166666666666664)"/></g><g filter="url(#a)"><path d="M962.02 350.38a.5.5 0 0 1 .5-.5h168.64a.5.5 0 0 1 .5.5v93.4a.5.5 0 0 1-.5.5H962.52a.5.5 0 0 1-.5-.5z" fill="#fff" fill-opacity="0"/><path d="M962.52 349.88a.5.5 0 0 0-.5.5v93.4a.5.5 0 0 0 .5.5h168.64a.5.5 0 0 0 .5-.5v-93.4a.5.5 0 0 0-.5-.5z" stroke="#315796" stroke-width="3" fill="#315796"/><use xlink:href="#i" transform="matrix(1,0,0,1,971.858984346356,360.92219363286637) translate(15.052083333333329 43.166666666666664)"/></g><path d="M401.57 599.72l306.6-144.24" stroke="#5e5e5e" stroke-width="3" fill="none"/><path d="M401.92 600.36h-5.02l-.03-.08 4.1-1.94zM712.88 454.92l-4.1 1.94-.95-2.02h5z" stroke="#5e5e5e" stroke-width=".05" fill="#5e5e5e"/><path d="M440.9 599.97l540.3-144.74" stroke="#5e5e5e" stroke-width="3" fill="none"/><path d="M441.05 600.36h-4.7l-.18-.68 4.38-1.17zM985.92 455.52l-4.38 1.17-.5-1.86h4.7z" stroke="#5e5e5e" stroke-width=".05" fill="#5e5e5e"/><path d="M641.26 599.12l97.2-143.04" stroke="#5e5e5e" stroke-width="3" fill="none"/><path d="M642.52 599.93l-.3.43h-3.6l1.42-2.12zM739.67 456.96l-2.5-1.7.3-.42h3.63z" stroke="#5e5e5e" stroke-width=".05" fill="#5e5e5e"/><path d="M682.17 599.77l341.94-144.34" stroke="#5e5e5e" stroke-width="3" fill="none"/><path d="M682.46 600.36h-4.93l-.1-.22 4.2-1.76zM1028.84 455.06l-4.18 1.76-.84-1.98h4.93z" stroke="#5e5e5e" stroke-width=".05" fill="#5e5e5e"/><path d="M1110.47 599.74L789.22 455.46" stroke="#5e5e5e" stroke-width="3" fill="none"/><path d="M1115.2 600.22l-.07.14h-4.98l.9-2zM788.64 456.84l-4.14-1.86.07-.14h4.97z" stroke="#5e5e5e" stroke-width=".05" fill="#5e5e5e"/><path d="M1141.94 599l-69.92-142.8" stroke="#5e5e5e" stroke-width="3" fill="none"/><path d="M1144.27 600.36h-3.34l-.36-.73 2.7-1.3zM1073.38 455.57l-2.7 1.3-1-2.03h3.35z" stroke="#5e5e5e" stroke-width=".05" fill="#5e5e5e"/><path d="M1346.5 599.95l-517.57-144.7" stroke="#5e5e5e" stroke-width="3" fill="none"/><path d="M1351.24 599.72l-.17.64h-4.7l.5-1.86zM828.57 456.7l-4.37-1.22.17-.64h4.72z" stroke="#5e5e5e" stroke-width=".05" fill="#5e5e5e"/><path d="M1386.32 599.66l-277.6-144.12" stroke="#5e5e5e" stroke-width="3" fill="none"/><path d="M1390.9 600.36h-5l1.07-2.04zM1108.08 456.88l-3.93-2.04h5z" stroke="#5e5e5e" stroke-width=".05" fill="#5e5e5e"/><path d="M539.93 682.24c-3.82 0-6.9-10.38-6.9-23.18 0-12.8 3.08-23.2 6.9-23.2 3.82 0 6.9 10.4 6.9 23.2 0 12.8-3.08 23.18-6.9 23.18zM1247.93 683.24c-3.82 0-6.9-10.38-6.9-23.18 0-12.8 3.08-23.2 6.9-23.2 3.82 0 6.9 10.4 6.9 23.2 0 12.8-3.08 23.18-6.9 23.18z" stroke="#5e5e5e" stroke-width="2" fill-opacity="0"/><path d="M687.84 431.38a.5.5 0 0 1 .5-.5h37a.5.5 0 0 1 .5.5v22.96a.5.5 0 0 1-.5.5h-37a.5.5 0 0 1-.5-.5z" fill="#fff" fill-opacity="0"/><path d="M688.34 431.85a.5.5 0 0 0-.5.5v21.02a.5.5 0 0 0 .5.5h37a.5.5 0 0 0 .5-.5v-21.02a.5.5 0 0 0-.5-.5z" stroke="#5e5e5e" fill="#fff"/><use xlink:href="#j" transform="matrix(1,0,0,1,702.2417946234416,430.8753117206983) translate(0.49479166666666696 16.444444444444443)"/><path d="M727.84 431.38a.5.5 0 0 1 .5-.5h37a.5.5 0 0 1 .5.5v22.96a.5.5 0 0 1-.5.5h-37a.5.5 0 0 1-.5-.5z" fill="#fff" fill-opacity="0"/><path d="M728.34 431.85a.5.5 0 0 0-.5.5v21.02a.5.5 0 0 0 .5.5h37a.5.5 0 0 0 .5-.5v-21.02a.5.5 0 0 0-.5-.5z" stroke="#5e5e5e" fill="#fff"/><use xlink:href="#k" transform="matrix(1,0,0,1,742.2402205880378,430.8753117206983) translate(0.49479166666666696 16.444444444444443)"/><path d="M767.84 431.38a.5.5 0 0 1 .5-.5h37a.5.5 0 0 1 .5.5v22.96a.5.5 0 0 1-.5.5h-37a.5.5 0 0 1-.5-.5z" fill="#fff" fill-opacity="0"/><path d="M768.34 431.85a.5.5 0 0 0-.5.5v21.02a.5.5 0 0 0 .5.5h37a.5.5 0 0 0 .5-.5v-21.02a.5.5 0 0 0-.5-.5z" stroke="#5e5e5e" fill="#fff"/><use xlink:href="#f" transform="matrix(1,0,0,1,782.2425816411435,430.8753117206983) translate(0.49479166666666696 16.444444444444443)"/><path d="M807.84 431.38a.5.5 0 0 1 .5-.5h37a.5.5 0 0 1 .5.5v22.96a.5.5 0 0 1-.5.5h-37a.5.5 0 0 1-.5-.5z" fill="#fff" fill-opacity="0"/><path d="M808.34 431.85a.5.5 0 0 0-.5.5v21.02a.5.5 0 0 0 .5.5h37a.5.5 0 0 0 .5-.5v-21.02a.5.5 0 0 0-.5-.5z" stroke="#5e5e5e" fill="#fff"/><use xlink:href="#g" transform="matrix(1,0,0,1,822.2410076057399,430.8753117206983) translate(0.49479166666666696 16.444444444444443)"/><path d="M967.84 431.38a.5.5 0 0 1 .5-.5h37a.5.5 0 0 1 .5.5v22.96a.5.5 0 0 1-.5.5h-37a.5.5 0 0 1-.5-.5z" fill="#fff" fill-opacity="0"/><path d="M968.34 431.85a.5.5 0 0 0-.5.5v21.02a.5.5 0 0 0 .5.5h37a.5.5 0 0 0 .5-.5v-21.02a.5.5 0 0 0-.5-.5z" stroke="#5e5e5e" fill="#fff"/><use xlink:href="#j" transform="matrix(1,0,0,1,982.2417946234414,430.8753117206983) translate(0.49479166666666696 16.444444444444443)"/><path d="M1007.84 431.38a.5.5 0 0 1 .5-.5h37a.5.5 0 0 1 .5.5v22.96a.5.5 0 0 1-.5.5h-37a.5.5 0 0 1-.5-.5z" fill="#fff" fill-opacity="0"/><path d="M1008.34 431.85a.5.5 0 0 0-.5.5v21.02a.5.5 0 0 0 .5.5h37a.5.5 0 0 0 .5-.5v-21.02a.5.5 0 0 0-.5-.5z" stroke="#5e5e5e" fill="#fff"/><use xlink:href="#k" transform="matrix(1,0,0,1,1022.2402205880386,430.8753117206983) translate(0.49479166666666696 16.444444444444443)"/><path d="M1047.84 431.38a.5.5 0 0 1 .5-.5h37a.5.5 0 0 1 .5.5v22.96a.5.5 0 0 1-.5.5h-37a.5.5 0 0 1-.5-.5z" fill="#fff" fill-opacity="0"/><path d="M1048.34 431.85a.5.5 0 0 0-.5.5v21.02a.5.5 0 0 0 .5.5h37a.5.5 0 0 0 .5-.5v-21.02a.5.5 0 0 0-.5-.5z" stroke="#5e5e5e" fill="#fff"/><use xlink:href="#f" transform="matrix(1,0,0,1,1062.2425816411435,430.8753117206983) translate(0.49479166666666696 16.444444444444443)"/><path d="M1087.84 431.38a.5.5 0 0 1 .5-.5h37a.5.5 0 0 1 .5.5v22.96a.5.5 0 0 1-.5.5h-37a.5.5 0 0 1-.5-.5z" fill="#fff" fill-opacity="0"/><path d="M1088.34 431.85a.5.5 0 0 0-.5.5v21.02a.5.5 0 0 0 .5.5h37a.5.5 0 0 0 .5-.5v-21.02a.5.5 0 0 0-.5-.5z" stroke="#5e5e5e" fill="#fff"/><use xlink:href="#g" transform="matrix(1,0,0,1,1102.2410076057402,430.8753117206983) translate(0.49479166666666696 16.444444444444443)"/><path d="M381.56 600.86a.5.5 0 0 1 .5-.5h37a.5.5 0 0 1 .5.5v22.97a.5.5 0 0 1-.5.5h-37a.5.5 0 0 1-.5-.5z" fill="#fff" fill-opacity="0"/><path d="M382.06 601.33a.5.5 0 0 0-.5.5v21.03a.5.5 0 0 0 .5.5h37a.5.5 0 0 0 .5-.5v-21.03a.5.5 0 0 0-.5-.5z" stroke="#5e5e5e" fill="#fff"/><use xlink:href="#j" transform="matrix(1,0,0,1,395.96233673408545,600.3563778950144) translate(0.49479166666666696 16.444444444444443)"/><path d="M420.64 600.86a.5.5 0 0 1 .5-.5h37a.5.5 0 0 1 .5.5v22.97a.5.5 0 0 1-.5.5h-37a.5.5 0 0 1-.5-.5z" fill="#fff" fill-opacity="0"/><path d="M421.14 601.33a.5.5 0 0 0-.5.5v21.03a.5.5 0 0 0 .5.5h37a.5.5 0 0 0 .5-.5v-21.03a.5.5 0 0 0-.5-.5z" stroke="#5e5e5e" fill="#fff"/><use xlink:href="#k" transform="matrix(1,0,0,1,435.04587710711854,600.3563778950144) translate(0.49479166666666696 16.444444444444443)"/><path d="M621.1 600.86a.5.5 0 0 1 .5-.5h37a.5.5 0 0 1 .5.5v22.97a.5.5 0 0 1-.5.5h-37a.5.5 0 0 1-.5-.5z" fill="#fff" fill-opacity="0"/><path d="M621.6 601.33a.5.5 0 0 0-.5.5v21.03a.5.5 0 0 0 .5.5h37a.5.5 0 0 0 .5-.5v-21.03a.5.5 0 0 0-.5-.5z" stroke="#5e5e5e" fill="#fff"/><use xlink:href="#j" transform="matrix(1,0,0,1,635.5048939383039,600.3563778950144) translate(0.49479166666666696 16.444444444444443)"/><path d="M661.1 600.86a.5.5 0 0 1 .5-.5h37a.5.5 0 0 1 .5.5v22.97a.5.5 0 0 1-.5.5h-37a.5.5 0 0 1-.5-.5z" fill="#fff" fill-opacity="0"/><path d="M661.6 601.33a.5.5 0 0 0-.5.5v21.03a.5.5 0 0 0 .5.5h37a.5.5 0 0 0 .5-.5v-21.03a.5.5 0 0 0-.5-.5z" stroke="#5e5e5e" fill="#fff"/><use xlink:href="#k" transform="matrix(1,0,0,1,675.5033199029001,600.3563778950144) translate(0.49479166666666696 16.444444444444443)"/><path d="M1089.37 600.86a.5.5 0 0 1 .5-.5h37a.5.5 0 0 1 .5.5v22.97a.5.5 0 0 1-.5.5h-37a.5.5 0 0 1-.5-.5z" fill="#fff" fill-opacity="0"/><path d="M1089.87 601.33a.5.5 0 0 0-.5.5v21.03a.5.5 0 0 0 .5.5h37a.5.5 0 0 0 .5-.5v-21.03a.5.5 0 0 0-.5-.5z" stroke="#5e5e5e" fill="#fff"/><use xlink:href="#j" transform="matrix(1,0,0,1,1103.7675152760555,600.3563778950144) translate(0.49479166666666696 16.444444444444443)"/><path d="M1129.37 600.86a.5.5 0 0 1 .5-.5h37a.5.5 0 0 1 .5.5v22.97a.5.5 0 0 1-.5.5h-37a.5.5 0 0 1-.5-.5z" fill="#fff" fill-opacity="0"/><path d="M1129.87 601.33a.5.5 0 0 0-.5.5v21.03a.5.5 0 0 0 .5.5h37a.5.5 0 0 0 .5-.5v-21.03a.5.5 0 0 0-.5-.5z" stroke="#5e5e5e" fill="#fff"/><use xlink:href="#k" transform="matrix(1,0,0,1,1143.7659412406517,600.3563778950144) translate(0.49479166666666696 16.444444444444443)"/><path d="M1329.37 600.86a.5.5 0 0 1 .5-.5h37a.5.5 0 0 1 .5.5v22.97a.5.5 0 0 1-.5.5h-37a.5.5 0 0 1-.5-.5z" fill="#fff" fill-opacity="0"/><path d="M1329.87 601.33a.5.5 0 0 0-.5.5v21.03a.5.5 0 0 0 .5.5h37a.5.5 0 0 0 .5-.5v-21.03a.5.5 0 0 0-.5-.5z" stroke="#5e5e5e" fill="#fff"/><use xlink:href="#j" transform="matrix(1,0,0,1,1343.7675152760555,600.3563778950144) translate(0.49479166666666696 16.444444444444443)"/><path d="M1369.37 600.86a.5.5 0 0 1 .5-.5h37a.5.5 0 0 1 .5.5v22.97a.5.5 0 0 1-.5.5h-37a.5.5 0 0 1-.5-.5z" fill="#fff" fill-opacity="0"/><path d="M1369.87 601.33a.5.5 0 0 0-.5.5v21.03a.5.5 0 0 0 .5.5h37a.5.5 0 0 0 .5-.5v-21.03a.5.5 0 0 0-.5-.5z" stroke="#5e5e5e" fill="#fff"/><use xlink:href="#k" transform="matrix(1,0,0,1,1383.7659412406517,600.3563778950144) translate(0.49479166666666696 16.444444444444443)"/><path d="M280.67 252.18h1230.28v60H280.67z" fill="none"/><use xlink:href="#l" transform="matrix(1,0,0,1,280.66936700142514,252.1810567010309) translate(586.6913580246913 35.77777777777778)"/><g filter="url(#a)"><path d="M459.1 803.2a.5.5 0 0 1 .5-.5h168.64a.5.5 0 0 1 .5.5v93.4a.5.5 0 0 1-.5.5H459.6a.5.5 0 0 1-.5-.5z" fill="#fff" fill-opacity="0"/><path d="M459.6 802.7a.5.5 0 0 0-.5.5v93.4a.5.5 0 0 0 .5.5h168.64a.5.5 0 0 0 .5-.5v-93.4a.5.5 0 0 0-.5-.5z" stroke="#315796" stroke-width="3" fill="#315796"/><use xlink:href="#m" transform="matrix(1,0,0,1,468.94016366628415,813.7357745564356) translate(18.372395833333336 43.166666666666664)"/></g><g filter="url(#a)"><path d="M1166.84 803.2a.5.5 0 0 1 .5-.5h168.64a.5.5 0 0 1 .5.5v93.4a.5.5 0 0 1-.5.5h-168.64a.5.5 0 0 1-.5-.5z" fill="#fff" fill-opacity="0"/><path d="M1167.34 802.7a.5.5 0 0 0-.5.5v93.4a.5.5 0 0 0 .5.5h168.64a.5.5 0 0 0 .5-.5v-93.4a.5.5 0 0 0-.5-.5z" stroke="#315796" stroke-width="3" fill="#315796"/><use xlink:href="#n" transform="matrix(1,0,0,1,1176.6782448779747,813.7357745564356) translate(18.372395833333336 43.166666666666664)"/></g><path d="M505.38 790.77a.5.5 0 0 1 .5-.5h37a.5.5 0 0 1 .5.5v22.97a.5.5 0 0 1-.5.5h-37a.5.5 0 0 1-.5-.5z" fill="#fff" fill-opacity="0"/><path d="M505.88 791.25a.5.5 0 0 0-.5.5v21.02a.5.5 0 0 0 .5.5h37a.5.5 0 0 0 .5-.5v-21.02a.5.5 0 0 0-.5-.5z" stroke="#5e5e5e" fill="#fff"/><use xlink:href="#j" transform="matrix(1,0,0,1,519.7808102480024,790.2754423330391) translate(0.49479166666666696 16.444444444444443)"/><path d="M544.46 790.77a.5.5 0 0 1 .5-.5h37a.5.5 0 0 1 .5.5v22.97a.5.5 0 0 1-.5.5h-37a.5.5 0 0 1-.5-.5z" fill="#fff" fill-opacity="0"/><path d="M544.96 791.25a.5.5 0 0 0-.5.5v21.02a.5.5 0 0 0 .5.5h37a.5.5 0 0 0 .5-.5v-21.02a.5.5 0 0 0-.5-.5z" stroke="#5e5e5e" fill="#fff"/><use xlink:href="#k" transform="matrix(1,0,0,1,558.8643506210354,790.2754423330391) translate(0.49479166666666696 16.444444444444443)"/><path d="M1213.12 790.7a.5.5 0 0 1 .5-.5h37a.5.5 0 0 1 .5.5v22.98a.5.5 0 0 1-.5.5h-37a.5.5 0 0 1-.5-.5z" fill="#fff" fill-opacity="0"/><path d="M1213.62 791.18a.5.5 0 0 0-.5.5v21.03a.5.5 0 0 0 .5.5h37a.5.5 0 0 0 .5-.5V791.7a.5.5 0 0 0-.5-.5z" stroke="#5e5e5e" fill="#fff"/><use xlink:href="#j" transform="matrix(1,0,0,1,1227.5188914596927,790.2123067010309) translate(0.49479166666666696 16.444444444444443)"/><path d="M1252.2 790.7a.5.5 0 0 1 .5-.5h37a.5.5 0 0 1 .5.5v22.98a.5.5 0 0 1-.5.5h-37a.5.5 0 0 1-.5-.5z" fill="#fff" fill-opacity="0"/><path d="M1252.7 791.18a.5.5 0 0 0-.5.5v21.03a.5.5 0 0 0 .5.5h37a.5.5 0 0 0 .5-.5V791.7a.5.5 0 0 0-.5-.5z" stroke="#5e5e5e" fill="#fff"/><use xlink:href="#k" transform="matrix(1,0,0,1,1266.6024318327259,790.2123067010309) translate(0.49479166666666696 16.444444444444443)"/><path d="M524.4 789.3l-82.16-71.7" stroke="#5e5e5e" stroke-width="3" fill="none"/><path d="M527.82 790.27h-4.32l1.87-2.14zM441.3 718.75l-2.47-2.14h4.32z" stroke="#5e5e5e" stroke-width=".05" fill="#5e5e5e"/><path d="M562.36 789.25l77.2-71.62" stroke="#5e5e5e" stroke-width="3" fill="none"/><path d="M563.36 790.27h-4.3l2.3-2.14zM640.55 718.76l-2-2.15h4.32z" stroke="#5e5e5e" stroke-width=".05" fill="#5e5e5e"/><path d="M1272.9 789.2l76.6-71.56" stroke="#5e5e5e" stroke-width="3" fill="none"/><path d="M1273.9 790.2h-4.3l2.3-2.13zM1350.5 718.76l-2-2.15h4.3z" stroke="#5e5e5e" stroke-width=".05" fill="#5e5e5e"/><path d="M1231.46 789.22l-81.4-71.62" stroke="#5e5e5e" stroke-width="3" fill="none"/><path d="M1234.86 790.2h-4.32l1.88-2.13zM1149.1 718.75l-2.45-2.14h4.32z" stroke="#5e5e5e" stroke-width=".05" fill="#5e5e5e"/><path d="M522.93 884.6a.5.5 0 0 1 .5-.5h37a.5.5 0 0 1 .5.5v22.98a.5.5 0 0 1-.5.5h-37a.5.5 0 0 1-.5-.5z" fill="#fff" fill-opacity="0"/><path d="M523.43 885.08a.5.5 0 0 0-.5.5v21.03a.5.5 0 0 0 .5.5h37a.5.5 0 0 0 .5-.5V885.6a.5.5 0 0 0-.5-.5z" stroke="#5e5e5e" fill="#fff"/><use xlink:href="#o" transform="matrix(1,0,0,1,537.3317305551296,884.1066867653624) translate(0.49479166666666696 16.444444444444443)"/><path d="M1236.8 884.76a.5.5 0 0 1 .5-.5h37a.5.5 0 0 1 .5.5v22.97a.5.5 0 0 1-.5.5h-37a.5.5 0 0 1-.5-.5z" fill="#fff" fill-opacity="0"/><path d="M1237.3 885.23a.5.5 0 0 0-.5.5v21.03a.5.5 0 0 0 .5.5h37a.5.5 0 0 0 .5-.5v-21.03a.5.5 0 0 0-.5-.5z" stroke="#5e5e5e" fill="#fff"/><use xlink:href="#o" transform="matrix(1,0,0,1,1251.210253753005,884.2608086316966) translate(0.49479166666666696 16.444444444444443)"/><path d="M420.1 693.14a.5.5 0 0 1 .5-.5h37a.5.5 0 0 1 .5.5v22.97a.5.5 0 0 1-.5.5h-37a.5.5 0 0 1-.5-.5z" fill="#fff" fill-opacity="0"/><path d="M420.6 693.6a.5.5 0 0 0-.5.5v21.04a.5.5 0 0 0 .5.5h37a.5.5 0 0 0 .5-.5V694.1a.5.5 0 0 0-.5-.5z" stroke="#5e5e5e" fill="#fff"/><use xlink:href="#p" transform="matrix(1,0,0,1,434.5033199029002,692.6439872705151) translate(0.49479166666666696 16.444444444444443)"/><path d="M382.1 693.14a.5.5 0 0 1 .5-.5h37a.5.5 0 0 1 .5.5v22.97a.5.5 0 0 1-.5.5h-37a.5.5 0 0 1-.5-.5z" fill="#fff" fill-opacity="0"/><path d="M382.6 693.6a.5.5 0 0 0-.5.5v21.04a.5.5 0 0 0 .5.5h37a.5.5 0 0 0 .5-.5V694.1a.5.5 0 0 0-.5-.5z" stroke="#5e5e5e" fill="#fff"/><use xlink:href="#o" transform="matrix(1,0,0,1,396.5048939383038,692.6439872705151) translate(0.49479166666666696 16.444444444444443)"/><path d="M622.1 693.14a.5.5 0 0 1 .5-.5h37a.5.5 0 0 1 .5.5v22.97a.5.5 0 0 1-.5.5h-37a.5.5 0 0 1-.5-.5z" fill="#fff" fill-opacity="0"/><path d="M622.6 693.6a.5.5 0 0 0-.5.5v21.04a.5.5 0 0 0 .5.5h37a.5.5 0 0 0 .5-.5V694.1a.5.5 0 0 0-.5-.5z" stroke="#5e5e5e" fill="#fff"/><use xlink:href="#p" transform="matrix(1,0,0,1,636.5048939383038,692.6439872705151) translate(0.49479166666666696 16.444444444444443)"/><path d="M660.1 693.14a.5.5 0 0 1 .5-.5h37a.5.5 0 0 1 .5.5v22.97a.5.5 0 0 1-.5.5h-37a.5.5 0 0 1-.5-.5z" fill="#fff" fill-opacity="0"/><path d="M660.6 693.6a.5.5 0 0 0-.5.5v21.04a.5.5 0 0 0 .5.5h37a.5.5 0 0 0 .5-.5V694.1a.5.5 0 0 0-.5-.5z" stroke="#5e5e5e" fill="#fff"/><use xlink:href="#o" transform="matrix(1,0,0,1,674.5033199029002,692.6439872705151) translate(0.49479166666666696 16.444444444444443)"/><path d="M1128.37 693.14a.5.5 0 0 1 .5-.5h37a.5.5 0 0 1 .5.5v22.97a.5.5 0 0 1-.5.5h-37a.5.5 0 0 1-.5-.5z" fill="#fff" fill-opacity="0"/><path d="M1128.87 693.6a.5.5 0 0 0-.5.5v21.04a.5.5 0 0 0 .5.5h37a.5.5 0 0 0 .5-.5V694.1a.5.5 0 0 0-.5-.5z" stroke="#5e5e5e" fill="#fff"/><use xlink:href="#p" transform="matrix(1,0,0,1,1142.7659412406517,692.6439872705151) translate(0.49479166666666696 16.444444444444443)"/><path d="M1090.37 693.14a.5.5 0 0 1 .5-.5h37a.5.5 0 0 1 .5.5v22.97a.5.5 0 0 1-.5.5h-37a.5.5 0 0 1-.5-.5z" fill="#fff" fill-opacity="0"/><path d="M1090.87 693.6a.5.5 0 0 0-.5.5v21.04a.5.5 0 0 0 .5.5h37a.5.5 0 0 0 .5-.5V694.1a.5.5 0 0 0-.5-.5z" stroke="#5e5e5e" fill="#fff"/><use xlink:href="#o" transform="matrix(1,0,0,1,1104.7675152760553,692.6439872705151) translate(0.49479166666666696 16.444444444444443)"/><path d="M1330.37 693.14a.5.5 0 0 1 .5-.5h37a.5.5 0 0 1 .5.5v22.97a.5.5 0 0 1-.5.5h-37a.5.5 0 0 1-.5-.5z" fill="#fff" fill-opacity="0"/><path d="M1330.87 693.6a.5.5 0 0 0-.5.5v21.04a.5.5 0 0 0 .5.5h37a.5.5 0 0 0 .5-.5V694.1a.5.5 0 0 0-.5-.5z" stroke="#5e5e5e" fill="#fff"/><use xlink:href="#p" transform="matrix(1,0,0,1,1344.7675152760553,692.6439872705151) translate(0.49479166666666696 16.444444444444443)"/><path d="M1368.37 693.14a.5.5 0 0 1 .5-.5h37a.5.5 0 0 1 .5.5v22.97a.5.5 0 0 1-.5.5h-37a.5.5 0 0 1-.5-.5z" fill="#fff" fill-opacity="0"/><path d="M1368.87 693.6a.5.5 0 0 0-.5.5v21.04a.5.5 0 0 0 .5.5h37a.5.5 0 0 0 .5-.5V694.1a.5.5 0 0 0-.5-.5z" stroke="#5e5e5e" fill="#fff"/><use xlink:href="#o" transform="matrix(1,0,0,1,1382.7659412406517,692.6439872705151) translate(0.49479166666666696 16.444444444444443)"/><g filter="url(#q)"><path d="M370.02 1004.97a5 5 0 0 1 5-5h333.82a5 5 0 0 1 5 5v102a5 5 0 0 1-5 5H375.02a5 5 0 0 1-5-5z" fill="#fff" fill-opacity="0"/><path d="M375.02 999.97a5 5 0 0 0-5 5v102a5 5 0 0 0 5 5h333.82a5 5 0 0 0 5-5v-102a5 5 0 0 0-5-5z" stroke="#6db1ff" stroke-width="3" fill="#6db1ff"/><use xlink:href="#r" transform="matrix(1,0,0,1,389.9617748036946,1013.0721923072174) translate(55.58723958333336 49.666666666666664)"/></g><path d="M522.93 985.22a.5.5 0 0 1 .5-.5h37a.5.5 0 0 1 .5.5v22.96a.5.5 0 0 1-.5.5h-37a.5.5 0 0 1-.5-.5z" fill="#fff" fill-opacity="0"/><path d="M523.43 985.7a.5.5 0 0 0-.5.5v21.02a.5.5 0 0 0 .5.5h37a.5.5 0 0 0 .5-.5V986.2a.5.5 0 0 0-.5-.5z" stroke="#5e5e5e" fill="#fff"/><use xlink:href="#s" transform="matrix(1,0,0,1,537.3317305551296,984.7162516435787) translate(-6.796874999999998 16.444444444444443)"/><path d="M412.93 985.22a.5.5 0 0 1 .5-.5h37a.5.5 0 0 1 .5.5v22.96a.5.5 0 0 1-.5.5h-37a.5.5 0 0 1-.5-.5z" fill="#fff" fill-opacity="0"/><path d="M413.43 985.7a.5.5 0 0 0-.5.5v21.02a.5.5 0 0 0 .5.5h37a.5.5 0 0 0 .5-.5V986.2a.5.5 0 0 0-.5-.5z" stroke="#5e5e5e" fill="#fff"/><use xlink:href="#t" transform="matrix(1,0,0,1,427.3333045905332,984.7162516435787) translate(-11.310763888888886 16.444444444444443)"/><path d="M632.93 985.22a.5.5 0 0 1 .5-.5h37a.5.5 0 0 1 .5.5v22.96a.5.5 0 0 1-.5.5h-37a.5.5 0 0 1-.5-.5z" fill="#fff" fill-opacity="0"/><path d="M633.43 985.7a.5.5 0 0 0-.5.5v21.02a.5.5 0 0 0 .5.5h37a.5.5 0 0 0 .5-.5V986.2a.5.5 0 0 0-.5-.5z" stroke="#5e5e5e" fill="#fff"/><use xlink:href="#u" transform="matrix(1,0,0,1,647.3301565197261,984.7162516435787) translate(-11.310763888888886 16.444444444444443)"/><g filter="url(#q)"><path d="M1083.9 1004.97a5 5 0 0 1 5-5h333.82a5 5 0 0 1 5 5v102a5 5 0 0 1-5 5H1088.9a5 5 0 0 1-5-5z" fill="#fff" fill-opacity="0"/><path d="M1088.9 999.97a5 5 0 0 0-5 5v102a5 5 0 0 0 5 5h333.82a5 5 0 0 0 5-5v-102a5 5 0 0 0-5-5z" stroke="#6db1ff" stroke-width="3" fill="#6db1ff"/><use xlink:href="#v" transform="matrix(1,0,0,1,1103.84029800157,1013.0721923072174) translate(55.58723958333336 49.666666666666664)"/></g><path d="M1236.8 985.22a.5.5 0 0 1 .5-.5h37a.5.5 0 0 1 .5.5v22.96a.5.5 0 0 1-.5.5h-37a.5.5 0 0 1-.5-.5z" fill="#fff" fill-opacity="0"/><path d="M1237.3 985.7a.5.5 0 0 0-.5.5v21.02a.5.5 0 0 0 .5.5h37a.5.5 0 0 0 .5-.5V986.2a.5.5 0 0 0-.5-.5z" stroke="#5e5e5e" fill="#fff"/><use xlink:href="#s" transform="matrix(1,0,0,1,1251.210253753005,984.7162516435787) translate(-6.796874999999998 16.444444444444443)"/><path d="M1126.8 985.22a.5.5 0 0 1 .5-.5h37a.5.5 0 0 1 .5.5v22.96a.5.5 0 0 1-.5.5h-37a.5.5 0 0 1-.5-.5z" fill="#fff" fill-opacity="0"/><path d="M1127.3 985.7a.5.5 0 0 0-.5.5v21.02a.5.5 0 0 0 .5.5h37a.5.5 0 0 0 .5-.5V986.2a.5.5 0 0 0-.5-.5z" stroke="#5e5e5e" fill="#fff"/><use xlink:href="#t" transform="matrix(1,0,0,1,1141.2118277884088,984.7162516435787) translate(-11.310763888888886 16.444444444444443)"/><path d="M1346.8 985.22a.5.5 0 0 1 .5-.5h37a.5.5 0 0 1 .5.5v22.96a.5.5 0 0 1-.5.5h-37a.5.5 0 0 1-.5-.5z" fill="#fff" fill-opacity="0"/><path d="M1347.3 985.7a.5.5 0 0 0-.5.5v21.02a.5.5 0 0 0 .5.5h37a.5.5 0 0 0 .5-.5V986.2a.5.5 0 0 0-.5-.5z" stroke="#5e5e5e" fill="#fff"/><use xlink:href="#u" transform="matrix(1,0,0,1,1361.2086797176016,984.7162516435787) translate(-11.310763888888886 16.444444444444443)"/><path d="M542.78 909.58v73.64" stroke="#5e5e5e" stroke-width="3" fill="none"/><path d="M544.28 909.6h-3v-1.52h3zM544.28 984.72h-3v-1.54h3z" stroke="#5e5e5e" stroke-width=".05" fill="#5e5e5e"/><path d="M677.6 718.1l-24.05 265.12" stroke="#5e5e5e" stroke-width="3" fill="none"/><path d="M679.1 718.28l-3-.27.13-1.4h3zM655.04 983.32l-.12 1.4h-3l.14-1.67z" stroke="#5e5e5e" stroke-width=".05" fill="#5e5e5e"/><path d="M402.8 718.1l30.5 265.13" stroke="#5e5e5e" stroke-width="3" fill="none"/><path d="M404.3 717.97l-2.98.34-.2-1.7h3.02zM435 984.72h-3.02l-.16-1.36 2.98-.34z" stroke="#5e5e5e" stroke-width=".05" fill="#5e5e5e"/><path d="M1253.9 909.73v73.5" stroke="#5e5e5e" stroke-width="3" fill="none"/><path d="M1255.4 909.77h-3v-1.54h3zM1255.4 984.72h-3v-1.54h3z" stroke="#5e5e5e" stroke-width=".05" fill="#5e5e5e"/><path d="M1387.63 718.1L1366 983.23" stroke="#5e5e5e" stroke-width="3" fill="none"/><path d="M1389.13 718.27l-3-.25.12-1.4h3zM1367.5 983.3l-.12 1.42h-3l.13-1.66z" stroke="#5e5e5e" stroke-width=".05" fill="#5e5e5e"/><path d="M1112.84 718.1l34.26 265.13" stroke="#5e5e5e" stroke-width="3" fill="none"/><path d="M1114.33 717.95l-2.97.38-.23-1.72h3.03zM1148.8 984.72h-3.02l-.17-1.34 2.98-.38z" stroke="#5e5e5e" stroke-width=".05" fill="#5e5e5e"/><g filter="url(#w)"><path d="M1521.26 1004.97a5 5 0 0 1 5-5H1635a5 5 0 0 1 5 5v102a5 5 0 0 1-5 5h-108.74a5 5 0 0 1-5-5z" fill="#fff" fill-opacity="0"/><path d="M1526.26 999.97a5 5 0 0 0-5 5v102a5 5 0 0 0 5 5H1635a5 5 0 0 0 5-5v-102a5 5 0 0 0-5-5z" stroke="#6f7681" stroke-width="3" fill="#6f7681"/><use xlink:href="#x" transform="matrix(1,0,0,1,1528.1423344664224,1013.0721923072174) translate(11.529947916666664 36.33333333333333)"/><use xlink:href="#y" transform="matrix(1,0,0,1,1528.1423344664224,1013.0721923072174) translate(27.12890625 63)"/></g><path d="M1221.36 602.25H1271v33h-49.64z" fill="none"/><use xlink:href="#z" transform="matrix(1,0,0,1,1221.3589230465434,602.2470424678506) translate(10.762345679012348 19.61111111111111)"/><path d="M515.36 602.25H565v33h-49.64z" fill="none"/><use xlink:href="#z" transform="matrix(1,0,0,1,515.3589230465434,602.2470424678506) translate(10.762345679012348 19.61111111111111)"/><path d="M1640 247.55a6 6 0 0 1 6-6h1218.28a6 6 0 0 1 6 6v692a6 6 0 0 1-6 6H1646a6 6 0 0 1-6-6z" stroke="#dbdbdb" stroke-width="3" fill="#f2f3f5"/><path d="M2018.43 337.08a19 19 0 0 1 19-19h456.83a19 19 0 0 1 19 19v122a19 19 0 0 1-19 19h-456.83a19 19 0 0 1-19-19zM2381 597.88a19 19 0 0 1 19-19h422a19 19 0 0 1 19 19v305.3a19 19 0 0 1-19 19h-422a19 19 0 0 1-19-19zM1673.25 597.88a19 19 0 0 1 19-19h422a19 19 0 0 1 19 19v305.3a19 19 0 0 1-19 19h-422a19 19 0 0 1-19-19z" stroke="#ced4db" stroke-width="3" fill="#ced4db"/><g filter="url(#a)"><path d="M2402.88 613.1a.5.5 0 0 1 .5-.5H2572a.5.5 0 0 1 .5.5v93.4a.5.5 0 0 1-.5.5H2403.4a.5.5 0 0 1-.5-.5z" fill="#fff" fill-opacity="0"/><path d="M2403.38 612.6a.5.5 0 0 0-.5.5v93.4a.5.5 0 0 0 .5.5H2572a.5.5 0 0 0 .5-.5v-93.4a.5.5 0 0 0-.5-.5z" stroke="#315796" stroke-width="3" fill="#315796"/><use xlink:href="#A" transform="matrix(1,0,0,1,2412.7149444886936,623.6434068677296) translate(17.36979166666667 43.166666666666664)"/></g><g filter="url(#a)"><path d="M2642.88 613.1a.5.5 0 0 1 .5-.5H2812a.5.5 0 0 1 .5.5v93.4a.5.5 0 0 1-.5.5H2643.4a.5.5 0 0 1-.5-.5z" fill="#fff" fill-opacity="0"/><path d="M2643.38 612.6a.5.5 0 0 0-.5.5v93.4a.5.5 0 0 0 .5.5H2812a.5.5 0 0 0 .5-.5v-93.4a.5.5 0 0 0-.5-.5z" stroke="#315796" stroke-width="3" fill="#315796"/><use xlink:href="#B" transform="matrix(1,0,0,1,2652.7149444886936,623.6434068677296) translate(16.796875000000007 43.166666666666664)"/></g><g filter="url(#a)"><path d="M1694.6 613.1a.5.5 0 0 1 .5-.5h168.65a.5.5 0 0 1 .5.5v93.4a.5.5 0 0 1-.5.5H1695.1a.5.5 0 0 1-.5-.5z" fill="#fff" fill-opacity="0"/><path d="M1695.1 612.6a.5.5 0 0 0-.5.5v93.4a.5.5 0 0 0 .5.5h168.65a.5.5 0 0 0 .5-.5v-93.4a.5.5 0 0 0-.5-.5z" stroke="#315796" stroke-width="3" fill="#315796"/><use xlink:href="#C" transform="matrix(1,0,0,1,1704.4523231509422,623.6434068677296) translate(17.36979166666667 43.166666666666664)"/></g><g filter="url(#a)"><path d="M1934.6 613.1a.5.5 0 0 1 .5-.5h168.65a.5.5 0 0 1 .5.5v93.4a.5.5 0 0 1-.5.5H1935.1a.5.5 0 0 1-.5-.5z" fill="#fff" fill-opacity="0"/><path d="M1935.1 612.6a.5.5 0 0 0-.5.5v93.4a.5.5 0 0 0 .5.5h168.65a.5.5 0 0 0 .5-.5v-93.4a.5.5 0 0 0-.5-.5z" stroke="#315796" stroke-width="3" fill="#315796"/><use xlink:href="#D" transform="matrix(1,0,0,1,1944.4523231509422,623.6434068677296) translate(16.796875000000007 43.166666666666664)"/></g><path d="M1846.6 635.8a.5.5 0 0 1 .5-.5h37a.5.5 0 0 1 .5.5v22.97a.5.5 0 0 1-.5.5h-37a.5.5 0 0 1-.5-.5z" fill="#fff" fill-opacity="0"/><path d="M1847.1 636.27a.5.5 0 0 0-.5.5v21.03a.5.5 0 0 0 .5.5h37a.5.5 0 0 0 .5-.5V636.8a.5.5 0 0 0-.5-.5z" stroke="#5e5e5e" fill="#fff"/><use xlink:href="#f" transform="matrix(1,0,0,1,1861.0146923698564,635.3054220161089) translate(0.49479166666666696 16.444444444444443)"/><path d="M1846.6 660.84a.5.5 0 0 1 .5-.5h37a.5.5 0 0 1 .5.5v22.96a.5.5 0 0 1-.5.5h-37a.5.5 0 0 1-.5-.5z" fill="#fff" fill-opacity="0"/><path d="M1847.1 661.3a.5.5 0 0 0-.5.5v21.04a.5.5 0 0 0 .5.5h37a.5.5 0 0 0 .5-.5V661.8a.5.5 0 0 0-.5-.5z" stroke="#5e5e5e" fill="#fff"/><use xlink:href="#g" transform="matrix(1,0,0,1,1861.0146923698564,660.3366720161091) translate(0.49479166666666696 16.444444444444443)"/><path d="M1914.6 635.8a.5.5 0 0 1 .5-.5h37a.5.5 0 0 1 .5.5v22.97a.5.5 0 0 1-.5.5h-37a.5.5 0 0 1-.5-.5z" fill="#fff" fill-opacity="0"/><path d="M1915.1 636.27a.5.5 0 0 0-.5.5v21.03a.5.5 0 0 0 .5.5h37a.5.5 0 0 0 .5-.5V636.8a.5.5 0 0 0-.5-.5z" stroke="#5e5e5e" fill="#fff"/><use xlink:href="#f" transform="matrix(1,0,0,1,1929.0146923698564,635.3054220161089) translate(0.49479166666666696 16.444444444444443)"/><path d="M1914.6 660.84a.5.5 0 0 1 .5-.5h37a.5.5 0 0 1 .5.5v22.96a.5.5 0 0 1-.5.5h-37a.5.5 0 0 1-.5-.5z" fill="#fff" fill-opacity="0"/><path d="M1915.1 661.3a.5.5 0 0 0-.5.5v21.04a.5.5 0 0 0 .5.5h37a.5.5 0 0 0 .5-.5V661.8a.5.5 0 0 0-.5-.5z" stroke="#5e5e5e" fill="#fff"/><use xlink:href="#g" transform="matrix(1,0,0,1,1929.0146923698564,660.3366720161091) translate(0.49479166666666696 16.444444444444443)"/><path d="M1886.6 647.3h26" stroke="#5e5e5e" stroke-width="3" fill="none"/><path d="M1886.65 648.8h-1.54v-3h1.55zM1914.1 648.8h-1.52v-3h1.53z" stroke="#5e5e5e" stroke-width=".05" fill="#5e5e5e"/><path d="M1886.6 672.32h26" stroke="#5e5e5e" stroke-width="3" fill="none"/><path d="M1886.65 673.82h-1.54v-3h1.55zM1914.1 673.82h-1.52v-3h1.53z" stroke="#5e5e5e" stroke-width=".05" fill="#5e5e5e"/><path d="M2554.52 635.8a.5.5 0 0 1 .5-.5h37a.5.5 0 0 1 .5.5v22.97a.5.5 0 0 1-.5.5h-37a.5.5 0 0 1-.5-.5z" fill="#fff" fill-opacity="0"/><path d="M2555.02 636.27a.5.5 0 0 0-.5.5v21.03a.5.5 0 0 0 .5.5h37a.5.5 0 0 0 .5-.5V636.8a.5.5 0 0 0-.5-.5z" stroke="#5e5e5e" fill="#fff"/><use xlink:href="#f" transform="matrix(1,0,0,1,2568.917408806248,635.3054220161089) translate(0.49479166666666696 16.444444444444443)"/><path d="M2554.52 660.84a.5.5 0 0 1 .5-.5h37a.5.5 0 0 1 .5.5v22.96a.5.5 0 0 1-.5.5h-37a.5.5 0 0 1-.5-.5z" fill="#fff" fill-opacity="0"/><path d="M2555.02 661.3a.5.5 0 0 0-.5.5v21.04a.5.5 0 0 0 .5.5h37a.5.5 0 0 0 .5-.5V661.8a.5.5 0 0 0-.5-.5z" stroke="#5e5e5e" fill="#fff"/><use xlink:href="#g" transform="matrix(1,0,0,1,2568.917408806248,660.3366720161091) translate(0.49479166666666696 16.444444444444443)"/><path d="M2622.52 635.8a.5.5 0 0 1 .5-.5h37a.5.5 0 0 1 .5.5v22.97a.5.5 0 0 1-.5.5h-37a.5.5 0 0 1-.5-.5z" fill="#fff" fill-opacity="0"/><path d="M2623.02 636.27a.5.5 0 0 0-.5.5v21.03a.5.5 0 0 0 .5.5h37a.5.5 0 0 0 .5-.5V636.8a.5.5 0 0 0-.5-.5z" stroke="#5e5e5e" fill="#fff"/><use xlink:href="#f" transform="matrix(1,0,0,1,2636.917408806248,635.3054220161089) translate(0.49479166666666696 16.444444444444443)"/><path d="M2622.52 660.84a.5.5 0 0 1 .5-.5h37a.5.5 0 0 1 .5.5v22.96a.5.5 0 0 1-.5.5h-37a.5.5 0 0 1-.5-.5z" fill="#fff" fill-opacity="0"/><path d="M2623.02 661.3a.5.5 0 0 0-.5.5v21.04a.5.5 0 0 0 .5.5h37a.5.5 0 0 0 .5-.5V661.8a.5.5 0 0 0-.5-.5z" stroke="#5e5e5e" fill="#fff"/><use xlink:href="#g" transform="matrix(1,0,0,1,2636.917408806248,660.3366720161091) translate(0.49479166666666696 16.444444444444443)"/><path d="M2594.5 647.3h26.02" stroke="#5e5e5e" stroke-width="3" fill="none"/><path d="M2594.55 648.8H2593v-3h1.55zM2622.02 648.8h-1.54v-3h1.54z" stroke="#5e5e5e" stroke-width=".05" fill="#5e5e5e"/><path d="M2594.5 672.32h26.02" stroke="#5e5e5e" stroke-width="3" fill="none"/><path d="M2594.55 673.82H2593v-3h1.55zM2622.02 673.82h-1.54v-3h1.54z" stroke="#5e5e5e" stroke-width=".05" fill="#5e5e5e"/><g filter="url(#a)"><path d="M2041.35 350.38a.5.5 0 0 1 .5-.5h168.64a.5.5 0 0 1 .5.5v93.4a.5.5 0 0 1-.5.5h-168.65a.5.5 0 0 1-.5-.5z" fill="#fff" fill-opacity="0"/><path d="M2041.85 349.88a.5.5 0 0 0-.5.5v93.4a.5.5 0 0 0 .5.5h168.64a.5.5 0 0 0 .5-.5v-93.4a.5.5 0 0 0-.5-.5z" stroke="#315796" stroke-width="3" fill="#315796"/><use xlink:href="#E" transform="matrix(1,0,0,1,2051.189617344931,360.92219363286637) translate(15.052083333333329 43.166666666666664)"/></g><g filter="url(#a)"><path d="M2321.35 350.38a.5.5 0 0 1 .5-.5h168.64a.5.5 0 0 1 .5.5v93.4a.5.5 0 0 1-.5.5h-168.65a.5.5 0 0 1-.5-.5z" fill="#fff" fill-opacity="0"/><path d="M2321.85 349.88a.5.5 0 0 0-.5.5v93.4a.5.5 0 0 0 .5.5h168.64a.5.5 0 0 0 .5-.5v-93.4a.5.5 0 0 0-.5-.5z" stroke="#315796" stroke-width="3" fill="#315796"/><use xlink:href="#F" transform="matrix(1,0,0,1,2331.189617344931,360.92219363286637) translate(15.052083333333329 43.166666666666664)"/></g><path d="M1760.9 599.72l306.6-144.24" stroke="#5e5e5e" stroke-width="3" fill="none"/><path d="M1761.25 600.36h-5.02l-.04-.08 4.1-1.94zM2072.2 454.92l-4.1 1.94-.94-2.02h5.02z" stroke="#5e5e5e" stroke-width=".05" fill="#5e5e5e"/><path d="M1800.24 599.97l540.28-144.74" stroke="#5e5e5e" stroke-width="3" fill="none"/><path d="M1800.38 600.36h-4.7l-.18-.68 4.38-1.17zM2345.25 455.52l-4.38 1.17-.5-1.86h4.7z" stroke="#5e5e5e" stroke-width=".05" fill="#5e5e5e"/><path d="M2000.6 599.12l97.18-143.04" stroke="#5e5e5e" stroke-width="3" fill="none"/><path d="M2001.86 599.93l-.3.43h-3.62l1.43-2.12zM2099 456.96l-2.48-1.7.3-.42h3.6z" stroke="#5e5e5e" stroke-width=".05" fill="#5e5e5e"/><path d="M2041.5 599.77l341.94-144.34" stroke="#5e5e5e" stroke-width="3" fill="none"/><path d="M2041.8 600.36h-4.94l-.1-.22 4.2-1.76zM2388.17 455.06l-4.18 1.76-.84-1.98h4.92z" stroke="#5e5e5e" stroke-width=".05" fill="#5e5e5e"/><path d="M2469.8 599.74l-321.25-144.28" stroke="#5e5e5e" stroke-width="3" fill="none"/><path d="M2474.52 600.22l-.06.14h-4.98l.9-2zM2147.97 456.84l-4.14-1.86.07-.14h4.97z" stroke="#5e5e5e" stroke-width=".05" fill="#5e5e5e"/><path d="M2501.27 599l-69.92-142.8" stroke="#5e5e5e" stroke-width="3" fill="none"/><path d="M2503.6 600.36h-3.34l-.35-.73 2.7-1.3zM2432.72 455.57l-2.7 1.3-1-2.03h3.34z" stroke="#5e5e5e" stroke-width=".05" fill="#5e5e5e"/><path d="M2705.84 599.95l-517.58-144.7" stroke="#5e5e5e" stroke-width="3" fill="none"/><path d="M2710.58 599.72l-.18.64h-4.72l.53-1.86zM2187.9 456.7l-4.37-1.22.17-.64h4.72z" stroke="#5e5e5e" stroke-width=".05" fill="#5e5e5e"/><path d="M2745.65 599.66l-277.58-144.12" stroke="#5e5e5e" stroke-width="3" fill="none"/><path d="M2750.23 600.36h-5l1.07-2.04zM2467.4 456.88l-3.92-2.04h5z" stroke="#5e5e5e" stroke-width=".05" fill="#5e5e5e"/><path d="M1899.26 682.24c-3.82 0-6.9-10.38-6.9-23.18 0-12.8 3.08-23.18 6.9-23.18 3.82 0 6.9 10.37 6.9 23.18 0 12.8-3.08 23.18-6.9 23.18zM2607.26 683.24c-3.82 0-6.9-10.38-6.9-23.18 0-12.8 3.08-23.18 6.9-23.18 3.82 0 6.9 10.37 6.9 23.18 0 12.8-3.08 23.18-6.9 23.18z" stroke="#5e5e5e" stroke-width="2" fill-opacity="0"/><path d="M2047.17 431.38a.5.5 0 0 1 .5-.5h37a.5.5 0 0 1 .5.5v22.96a.5.5 0 0 1-.5.5h-37a.5.5 0 0 1-.5-.5z" fill="#fff" fill-opacity="0"/><path d="M2047.67 431.85a.5.5 0 0 0-.5.5v21.02a.5.5 0 0 0 .5.5h37a.5.5 0 0 0 .5-.5v-21.02a.5.5 0 0 0-.5-.5z" stroke="#5e5e5e" fill="#fff"/><use xlink:href="#j" transform="matrix(1,0,0,1,2061.5724276220167,430.8753117206983) translate(0.49479166666666696 16.444444444444443)"/><path d="M2087.17 431.38a.5.5 0 0 1 .5-.5h37a.5.5 0 0 1 .5.5v22.96a.5.5 0 0 1-.5.5h-37a.5.5 0 0 1-.5-.5z" fill="#fff" fill-opacity="0"/><path d="M2087.67 431.85a.5.5 0 0 0-.5.5v21.02a.5.5 0 0 0 .5.5h37a.5.5 0 0 0 .5-.5v-21.02a.5.5 0 0 0-.5-.5z" stroke="#5e5e5e" fill="#fff"/><use xlink:href="#k" transform="matrix(1,0,0,1,2101.5708535866133,430.8753117206983) translate(0.49479166666666696 16.444444444444443)"/><path d="M2127.17 431.38a.5.5 0 0 1 .5-.5h37a.5.5 0 0 1 .5.5v22.96a.5.5 0 0 1-.5.5h-37a.5.5 0 0 1-.5-.5z" fill="#fff" fill-opacity="0"/><path d="M2127.67 431.85a.5.5 0 0 0-.5.5v21.02a.5.5 0 0 0 .5.5h37a.5.5 0 0 0 .5-.5v-21.02a.5.5 0 0 0-.5-.5z" stroke="#5e5e5e" fill="#fff"/><use xlink:href="#f" transform="matrix(1,0,0,1,2141.5732146397186,430.8753117206983) translate(0.49479166666666696 16.444444444444443)"/><path d="M2167.17 431.38a.5.5 0 0 1 .5-.5h37a.5.5 0 0 1 .5.5v22.96a.5.5 0 0 1-.5.5h-37a.5.5 0 0 1-.5-.5z" fill="#fff" fill-opacity="0"/><path d="M2167.67 431.85a.5.5 0 0 0-.5.5v21.02a.5.5 0 0 0 .5.5h37a.5.5 0 0 0 .5-.5v-21.02a.5.5 0 0 0-.5-.5z" stroke="#5e5e5e" fill="#fff"/><use xlink:href="#g" transform="matrix(1,0,0,1,2181.5716406043152,430.8753117206983) translate(0.49479166666666696 16.444444444444443)"/><path d="M2327.17 431.38a.5.5 0 0 1 .5-.5h37a.5.5 0 0 1 .5.5v22.96a.5.5 0 0 1-.5.5h-37a.5.5 0 0 1-.5-.5z" fill="#fff" fill-opacity="0"/><path d="M2327.67 431.85a.5.5 0 0 0-.5.5v21.02a.5.5 0 0 0 .5.5h37a.5.5 0 0 0 .5-.5v-21.02a.5.5 0 0 0-.5-.5z" stroke="#5e5e5e" fill="#fff"/><use xlink:href="#j" transform="matrix(1,0,0,1,2341.572427622017,430.8753117206983) translate(0.49479166666666696 16.444444444444443)"/><path d="M2367.17 431.38a.5.5 0 0 1 .5-.5h37a.5.5 0 0 1 .5.5v22.96a.5.5 0 0 1-.5.5h-37a.5.5 0 0 1-.5-.5z" fill="#fff" fill-opacity="0"/><path d="M2367.67 431.85a.5.5 0 0 0-.5.5v21.02a.5.5 0 0 0 .5.5h37a.5.5 0 0 0 .5-.5v-21.02a.5.5 0 0 0-.5-.5z" stroke="#5e5e5e" fill="#fff"/><use xlink:href="#k" transform="matrix(1,0,0,1,2381.5708535866142,430.8753117206983) translate(0.49479166666666696 16.444444444444443)"/><path d="M2407.17 431.38a.5.5 0 0 1 .5-.5h37a.5.5 0 0 1 .5.5v22.96a.5.5 0 0 1-.5.5h-37a.5.5 0 0 1-.5-.5z" fill="#fff" fill-opacity="0"/><path d="M2407.67 431.85a.5.5 0 0 0-.5.5v21.02a.5.5 0 0 0 .5.5h37a.5.5 0 0 0 .5-.5v-21.02a.5.5 0 0 0-.5-.5z" stroke="#5e5e5e" fill="#fff"/><use xlink:href="#f" transform="matrix(1,0,0,1,2421.573214639719,430.8753117206983) translate(0.49479166666666696 16.444444444444443)"/><path d="M2447.17 431.38a.5.5 0 0 1 .5-.5h37a.5.5 0 0 1 .5.5v22.96a.5.5 0 0 1-.5.5h-37a.5.5 0 0 1-.5-.5z" fill="#fff" fill-opacity="0"/><path d="M2447.67 431.85a.5.5 0 0 0-.5.5v21.02a.5.5 0 0 0 .5.5h37a.5.5 0 0 0 .5-.5v-21.02a.5.5 0 0 0-.5-.5z" stroke="#5e5e5e" fill="#fff"/><use xlink:href="#g" transform="matrix(1,0,0,1,2461.5716406043157,430.8753117206983) translate(0.49479166666666696 16.444444444444443)"/><path d="M1740.9 600.86a.5.5 0 0 1 .5-.5h37a.5.5 0 0 1 .5.5v22.97a.5.5 0 0 1-.5.5h-37a.5.5 0 0 1-.5-.5z" fill="#fff" fill-opacity="0"/><path d="M1741.4 601.33a.5.5 0 0 0-.5.5v21.03a.5.5 0 0 0 .5.5h37a.5.5 0 0 0 .5-.5v-21.03a.5.5 0 0 0-.5-.5z" stroke="#5e5e5e" fill="#fff"/><use xlink:href="#j" transform="matrix(1,0,0,1,1755.2929697326604,600.3563778950142) translate(0.49479166666666696 16.444444444444443)"/><path d="M1779.97 600.86a.5.5 0 0 1 .5-.5h37a.5.5 0 0 1 .5.5v22.97a.5.5 0 0 1-.5.5h-37a.5.5 0 0 1-.5-.5z" fill="#fff" fill-opacity="0"/><path d="M1780.47 601.33a.5.5 0 0 0-.5.5v21.03a.5.5 0 0 0 .5.5h37a.5.5 0 0 0 .5-.5v-21.03a.5.5 0 0 0-.5-.5z" stroke="#5e5e5e" fill="#fff"/><use xlink:href="#k" transform="matrix(1,0,0,1,1794.3765101056933,600.3563778950142) translate(0.49479166666666696 16.444444444444443)"/><path d="M1980.43 600.86a.5.5 0 0 1 .5-.5h37a.5.5 0 0 1 .5.5v22.97a.5.5 0 0 1-.5.5h-37a.5.5 0 0 1-.5-.5z" fill="#fff" fill-opacity="0"/><path d="M1980.93 601.33a.5.5 0 0 0-.5.5v21.03a.5.5 0 0 0 .5.5h37a.5.5 0 0 0 .5-.5v-21.03a.5.5 0 0 0-.5-.5z" stroke="#5e5e5e" fill="#fff"/><use xlink:href="#j" transform="matrix(1,0,0,1,1994.8355269368788,600.3563778950142) translate(0.49479166666666696 16.444444444444443)"/><path d="M2020.43 600.86a.5.5 0 0 1 .5-.5h37a.5.5 0 0 1 .5.5v22.97a.5.5 0 0 1-.5.5h-37a.5.5 0 0 1-.5-.5z" fill="#fff" fill-opacity="0"/><path d="M2020.93 601.33a.5.5 0 0 0-.5.5v21.03a.5.5 0 0 0 .5.5h37a.5.5 0 0 0 .5-.5v-21.03a.5.5 0 0 0-.5-.5z" stroke="#5e5e5e" fill="#fff"/><use xlink:href="#k" transform="matrix(1,0,0,1,2034.833952901475,600.3563778950142) translate(0.49479166666666696 16.444444444444443)"/><path d="M2448.7 600.86a.5.5 0 0 1 .5-.5h37a.5.5 0 0 1 .5.5v22.97a.5.5 0 0 1-.5.5h-37a.5.5 0 0 1-.5-.5z" fill="#fff" fill-opacity="0"/><path d="M2449.2 601.33a.5.5 0 0 0-.5.5v21.03a.5.5 0 0 0 .5.5h37a.5.5 0 0 0 .5-.5v-21.03a.5.5 0 0 0-.5-.5z" stroke="#5e5e5e" fill="#fff"/><use xlink:href="#j" transform="matrix(1,0,0,1,2463.098148274631,600.3563778950142) translate(0.49479166666666696 16.444444444444443)"/><path d="M2488.7 600.86a.5.5 0 0 1 .5-.5h37a.5.5 0 0 1 .5.5v22.97a.5.5 0 0 1-.5.5h-37a.5.5 0 0 1-.5-.5z" fill="#fff" fill-opacity="0"/><path d="M2489.2 601.33a.5.5 0 0 0-.5.5v21.03a.5.5 0 0 0 .5.5h37a.5.5 0 0 0 .5-.5v-21.03a.5.5 0 0 0-.5-.5z" stroke="#5e5e5e" fill="#fff"/><use xlink:href="#k" transform="matrix(1,0,0,1,2503.0965742392273,600.3563778950142) translate(0.49479166666666696 16.444444444444443)"/><path d="M2688.7 600.86a.5.5 0 0 1 .5-.5h37a.5.5 0 0 1 .5.5v22.97a.5.5 0 0 1-.5.5h-37a.5.5 0 0 1-.5-.5z" fill="#fff" fill-opacity="0"/><path d="M2689.2 601.33a.5.5 0 0 0-.5.5v21.03a.5.5 0 0 0 .5.5h37a.5.5 0 0 0 .5-.5v-21.03a.5.5 0 0 0-.5-.5z" stroke="#5e5e5e" fill="#fff"/><use xlink:href="#j" transform="matrix(1,0,0,1,2703.0981482746306,600.3563778950142) translate(0.49479166666666696 16.444444444444443)"/><path d="M2728.7 600.86a.5.5 0 0 1 .5-.5h37a.5.5 0 0 1 .5.5v22.97a.5.5 0 0 1-.5.5h-37a.5.5 0 0 1-.5-.5z" fill="#fff" fill-opacity="0"/><path d="M2729.2 601.33a.5.5 0 0 0-.5.5v21.03a.5.5 0 0 0 .5.5h37a.5.5 0 0 0 .5-.5v-21.03a.5.5 0 0 0-.5-.5z" stroke="#5e5e5e" fill="#fff"/><use xlink:href="#k" transform="matrix(1,0,0,1,2743.096574239227,600.3563778950142) translate(0.49479166666666696 16.444444444444443)"/><path d="M1640 252.18h1230.28v60H1640z" fill="none"/><use xlink:href="#G" transform="matrix(1,0,0,1,1640.0000000000002,252.1810567010309) translate(586.6913580246913 35.77777777777778)"/><g filter="url(#a)"><path d="M1818.43 803.2a.5.5 0 0 1 .5-.5h168.64a.5.5 0 0 1 .5.5v93.4a.5.5 0 0 1-.5.5h-168.64a.5.5 0 0 1-.5-.5z" fill="#fff" fill-opacity="0"/><path d="M1818.93 802.7a.5.5 0 0 0-.5.5v93.4a.5.5 0 0 0 .5.5h168.64a.5.5 0 0 0 .5-.5v-93.4a.5.5 0 0 0-.5-.5z" stroke="#315796" stroke-width="3" fill="#315796"/><use xlink:href="#H" transform="matrix(1,0,0,1,1828.270796664859,813.7357745564356) translate(18.372395833333336 43.166666666666664)"/></g><g filter="url(#a)"><path d="M2526.17 803.2a.5.5 0 0 1 .5-.5h168.64a.5.5 0 0 1 .5.5v93.4a.5.5 0 0 1-.5.5h-168.63a.5.5 0 0 1-.5-.5z" fill="#fff" fill-opacity="0"/><path d="M2526.67 802.7a.5.5 0 0 0-.5.5v93.4a.5.5 0 0 0 .5.5h168.64a.5.5 0 0 0 .5-.5v-93.4a.5.5 0 0 0-.5-.5z" stroke="#315796" stroke-width="3" fill="#315796"/><use xlink:href="#I" transform="matrix(1,0,0,1,2536.0088778765494,813.7357745564356) translate(18.372395833333336 43.166666666666664)"/></g><path d="M1864.7 790.77a.5.5 0 0 1 .5-.5h37a.5.5 0 0 1 .5.5v22.97a.5.5 0 0 1-.5.5h-37a.5.5 0 0 1-.5-.5z" fill="#fff" fill-opacity="0"/><path d="M1865.2 791.25a.5.5 0 0 0-.5.5v21.02a.5.5 0 0 0 .5.5h37a.5.5 0 0 0 .5-.5v-21.02a.5.5 0 0 0-.5-.5z" stroke="#5e5e5e" fill="#fff"/><use xlink:href="#j" transform="matrix(1,0,0,1,1879.1114432465772,790.2754423330391) translate(0.49479166666666696 16.444444444444443)"/><path d="M1903.8 790.77a.5.5 0 0 1 .5-.5h37a.5.5 0 0 1 .5.5v22.97a.5.5 0 0 1-.5.5h-37a.5.5 0 0 1-.5-.5z" fill="#fff" fill-opacity="0"/><path d="M1904.3 791.25a.5.5 0 0 0-.5.5v21.02a.5.5 0 0 0 .5.5h37a.5.5 0 0 0 .5-.5v-21.02a.5.5 0 0 0-.5-.5z" stroke="#5e5e5e" fill="#fff"/><use xlink:href="#k" transform="matrix(1,0,0,1,1918.1949836196102,790.2754423330391) translate(0.49479166666666696 16.444444444444443)"/><path d="M2572.45 790.7a.5.5 0 0 1 .5-.5h37a.5.5 0 0 1 .5.5v22.98a.5.5 0 0 1-.5.5h-37a.5.5 0 0 1-.5-.5z" fill="#fff" fill-opacity="0"/><path d="M2572.95 791.18a.5.5 0 0 0-.5.5v21.03a.5.5 0 0 0 .5.5h37a.5.5 0 0 0 .5-.5V791.7a.5.5 0 0 0-.5-.5z" stroke="#5e5e5e" fill="#fff"/><use xlink:href="#j" transform="matrix(1,0,0,1,2586.849524458268,790.2123067010309) translate(0.49479166666666696 16.444444444444443)"/><path d="M2611.53 790.7a.5.5 0 0 1 .5-.5h37a.5.5 0 0 1 .5.5v22.98a.5.5 0 0 1-.5.5h-37a.5.5 0 0 1-.5-.5z" fill="#fff" fill-opacity="0"/><path d="M2612.03 791.18a.5.5 0 0 0-.5.5v21.03a.5.5 0 0 0 .5.5h37a.5.5 0 0 0 .5-.5V791.7a.5.5 0 0 0-.5-.5z" stroke="#5e5e5e" fill="#fff"/><use xlink:href="#k" transform="matrix(1,0,0,1,2625.933064831301,790.2123067010309) translate(0.49479166666666696 16.444444444444443)"/><path d="M1883.74 789.3l-82.17-71.7" stroke="#5e5e5e" stroke-width="3" fill="none"/><path d="M1887.15 790.27h-4.32l1.87-2.14zM1800.62 718.75l-2.46-2.14h4.32z" stroke="#5e5e5e" stroke-width=".05" fill="#5e5e5e"/><path d="M1921.7 789.25l77.2-71.62" stroke="#5e5e5e" stroke-width="3" fill="none"/><path d="M1922.7 790.27h-4.32l2.32-2.14zM1999.88 718.76l-2-2.15h4.32z" stroke="#5e5e5e" stroke-width=".05" fill="#5e5e5e"/><path d="M2632.22 789.2l76.63-71.56" stroke="#5e5e5e" stroke-width="3" fill="none"/><path d="M2633.23 790.2h-4.3l2.3-2.13zM2709.84 718.76l-2-2.15h4.3z" stroke="#5e5e5e" stroke-width=".05" fill="#5e5e5e"/><path d="M2590.8 789.22l-81.42-71.62" stroke="#5e5e5e" stroke-width="3" fill="none"/><path d="M2594.2 790.2h-4.33l1.88-2.13zM2508.42 718.75l-2.44-2.14h4.32z" stroke="#5e5e5e" stroke-width=".05" fill="#5e5e5e"/><path d="M1882.26 884.6a.5.5 0 0 1 .5-.5h37a.5.5 0 0 1 .5.5v22.98a.5.5 0 0 1-.5.5h-37a.5.5 0 0 1-.5-.5z" fill="#fff" fill-opacity="0"/><path d="M1882.76 885.08a.5.5 0 0 0-.5.5v21.03a.5.5 0 0 0 .5.5h37a.5.5 0 0 0 .5-.5V885.6a.5.5 0 0 0-.5-.5z" stroke="#5e5e5e" fill="#fff"/><use xlink:href="#o" transform="matrix(1,0,0,1,1896.6623635537046,884.1066867653624) translate(0.49479166666666696 16.444444444444443)"/><path d="M2596.14 884.76a.5.5 0 0 1 .5-.5h37a.5.5 0 0 1 .5.5v22.97a.5.5 0 0 1-.5.5h-37a.5.5 0 0 1-.5-.5z" fill="#fff" fill-opacity="0"/><path d="M2596.64 885.23a.5.5 0 0 0-.5.5v21.03a.5.5 0 0 0 .5.5h37a.5.5 0 0 0 .5-.5v-21.03a.5.5 0 0 0-.5-.5z" stroke="#5e5e5e" fill="#fff"/><use xlink:href="#o" transform="matrix(1,0,0,1,2610.5408867515803,884.2608086316966) translate(0.49479166666666696 16.444444444444443)"/><path d="M1779.43 693.14a.5.5 0 0 1 .5-.5h37a.5.5 0 0 1 .5.5v22.97a.5.5 0 0 1-.5.5h-37a.5.5 0 0 1-.5-.5z" fill="#fff" fill-opacity="0"/><path d="M1779.93 693.6a.5.5 0 0 0-.5.5v21.04a.5.5 0 0 0 .5.5h37a.5.5 0 0 0 .5-.5V694.1a.5.5 0 0 0-.5-.5z" stroke="#5e5e5e" fill="#fff"/><use xlink:href="#p" transform="matrix(1,0,0,1,1793.833952901475,692.643987270515) translate(0.49479166666666696 16.444444444444443)"/><path d="M1741.43 693.14a.5.5 0 0 1 .5-.5h37a.5.5 0 0 1 .5.5v22.97a.5.5 0 0 1-.5.5h-37a.5.5 0 0 1-.5-.5z" fill="#fff" fill-opacity="0"/><path d="M1741.93 693.6a.5.5 0 0 0-.5.5v21.04a.5.5 0 0 0 .5.5h37a.5.5 0 0 0 .5-.5V694.1a.5.5 0 0 0-.5-.5z" stroke="#5e5e5e" fill="#fff"/><use xlink:href="#o" transform="matrix(1,0,0,1,1755.8355269368788,692.643987270515) translate(0.49479166666666696 16.444444444444443)"/><path d="M1981.43 693.14a.5.5 0 0 1 .5-.5h37a.5.5 0 0 1 .5.5v22.97a.5.5 0 0 1-.5.5h-37a.5.5 0 0 1-.5-.5z" fill="#fff" fill-opacity="0"/><path d="M1981.93 693.6a.5.5 0 0 0-.5.5v21.04a.5.5 0 0 0 .5.5h37a.5.5 0 0 0 .5-.5V694.1a.5.5 0 0 0-.5-.5z" stroke="#5e5e5e" fill="#fff"/><use xlink:href="#p" transform="matrix(1,0,0,1,1995.8355269368788,692.643987270515) translate(0.49479166666666696 16.444444444444443)"/><path d="M2019.43 693.14a.5.5 0 0 1 .5-.5h37a.5.5 0 0 1 .5.5v22.97a.5.5 0 0 1-.5.5h-37a.5.5 0 0 1-.5-.5z" fill="#fff" fill-opacity="0"/><path d="M2019.93 693.6a.5.5 0 0 0-.5.5v21.04a.5.5 0 0 0 .5.5h37a.5.5 0 0 0 .5-.5V694.1a.5.5 0 0 0-.5-.5z" stroke="#5e5e5e" fill="#fff"/><use xlink:href="#o" transform="matrix(1,0,0,1,2033.833952901475,692.643987270515) translate(0.49479166666666696 16.444444444444443)"/><path d="M2487.7 693.14a.5.5 0 0 1 .5-.5h37a.5.5 0 0 1 .5.5v22.97a.5.5 0 0 1-.5.5h-37a.5.5 0 0 1-.5-.5z" fill="#fff" fill-opacity="0"/><path d="M2488.2 693.6a.5.5 0 0 0-.5.5v21.04a.5.5 0 0 0 .5.5h37a.5.5 0 0 0 .5-.5V694.1a.5.5 0 0 0-.5-.5z" stroke="#5e5e5e" fill="#fff"/><use xlink:href="#p" transform="matrix(1,0,0,1,2502.0965742392273,692.643987270515) translate(0.49479166666666696 16.444444444444443)"/><path d="M2449.7 693.14a.5.5 0 0 1 .5-.5h37a.5.5 0 0 1 .5.5v22.97a.5.5 0 0 1-.5.5h-37a.5.5 0 0 1-.5-.5z" fill="#fff" fill-opacity="0"/><path d="M2450.2 693.6a.5.5 0 0 0-.5.5v21.04a.5.5 0 0 0 .5.5h37a.5.5 0 0 0 .5-.5V694.1a.5.5 0 0 0-.5-.5z" stroke="#5e5e5e" fill="#fff"/><use xlink:href="#o" transform="matrix(1,0,0,1,2464.098148274631,692.643987270515) translate(0.49479166666666696 16.444444444444443)"/><path d="M2689.7 693.14a.5.5 0 0 1 .5-.5h37a.5.5 0 0 1 .5.5v22.97a.5.5 0 0 1-.5.5h-37a.5.5 0 0 1-.5-.5z" fill="#fff" fill-opacity="0"/><path d="M2690.2 693.6a.5.5 0 0 0-.5.5v21.04a.5.5 0 0 0 .5.5h37a.5.5 0 0 0 .5-.5V694.1a.5.5 0 0 0-.5-.5z" stroke="#5e5e5e" fill="#fff"/><use xlink:href="#p" transform="matrix(1,0,0,1,2704.0981482746306,692.643987270515) translate(0.49479166666666696 16.444444444444443)"/><path d="M2727.7 693.14a.5.5 0 0 1 .5-.5h37a.5.5 0 0 1 .5.5v22.97a.5.5 0 0 1-.5.5h-37a.5.5 0 0 1-.5-.5z" fill="#fff" fill-opacity="0"/><path d="M2728.2 693.6a.5.5 0 0 0-.5.5v21.04a.5.5 0 0 0 .5.5h37a.5.5 0 0 0 .5-.5V694.1a.5.5 0 0 0-.5-.5z" stroke="#5e5e5e" fill="#fff"/><use xlink:href="#o" transform="matrix(1,0,0,1,2742.096574239227,692.643987270515) translate(0.49479166666666696 16.444444444444443)"/><g filter="url(#q)"><path d="M1729.35 1004.97a5 5 0 0 1 5-5h333.82a5 5 0 0 1 5 5v102a5 5 0 0 1-5 5h-333.82a5 5 0 0 1-5-5z" fill="#fff" fill-opacity="0"/><path d="M1734.35 999.97a5 5 0 0 0-5 5v102a5 5 0 0 0 5 5h333.82a5 5 0 0 0 5-5v-102a5 5 0 0 0-5-5z" stroke="#6db1ff" stroke-width="3" fill="#6db1ff"/><use xlink:href="#J" transform="matrix(1,0,0,1,1749.2924078022695,1013.0721923072174) translate(55.58723958333336 49.666666666666664)"/></g><path d="M1882.26 985.22a.5.5 0 0 1 .5-.5h37a.5.5 0 0 1 .5.5v22.96a.5.5 0 0 1-.5.5h-37a.5.5 0 0 1-.5-.5z" fill="#fff" fill-opacity="0"/><path d="M1882.76 985.7a.5.5 0 0 0-.5.5v21.02a.5.5 0 0 0 .5.5h37a.5.5 0 0 0 .5-.5V986.2a.5.5 0 0 0-.5-.5z" stroke="#5e5e5e" fill="#fff"/><use xlink:href="#s" transform="matrix(1,0,0,1,1896.6623635537046,984.7162516435787) translate(-6.796874999999998 16.444444444444443)"/><path d="M1772.26 985.22a.5.5 0 0 1 .5-.5h37a.5.5 0 0 1 .5.5v22.96a.5.5 0 0 1-.5.5h-37a.5.5 0 0 1-.5-.5z" fill="#fff" fill-opacity="0"/><path d="M1772.76 985.7a.5.5 0 0 0-.5.5v21.02a.5.5 0 0 0 .5.5h37a.5.5 0 0 0 .5-.5V986.2a.5.5 0 0 0-.5-.5z" stroke="#5e5e5e" fill="#fff"/><use xlink:href="#t" transform="matrix(1,0,0,1,1786.663937589108,984.7162516435787) translate(-11.310763888888886 16.444444444444443)"/><path d="M1992.26 985.22a.5.5 0 0 1 .5-.5h37a.5.5 0 0 1 .5.5v22.96a.5.5 0 0 1-.5.5h-37a.5.5 0 0 1-.5-.5z" fill="#fff" fill-opacity="0"/><path d="M1992.76 985.7a.5.5 0 0 0-.5.5v21.02a.5.5 0 0 0 .5.5h37a.5.5 0 0 0 .5-.5V986.2a.5.5 0 0 0-.5-.5z" stroke="#5e5e5e" fill="#fff"/><use xlink:href="#u" transform="matrix(1,0,0,1,2006.6607895183008,984.7162516435787) translate(-11.310763888888886 16.444444444444443)"/><g filter="url(#q)"><path d="M2443.23 1004.97a5 5 0 0 1 5-5h333.82a5 5 0 0 1 5 5v102a5 5 0 0 1-5 5h-333.82a5 5 0 0 1-5-5z" fill="#fff" fill-opacity="0"/><path d="M2448.23 999.97a5 5 0 0 0-5 5v102a5 5 0 0 0 5 5h333.82a5 5 0 0 0 5-5v-102a5 5 0 0 0-5-5z" stroke="#6db1ff" stroke-width="3" fill="#6db1ff"/><use xlink:href="#K" transform="matrix(1,0,0,1,2463.170931000145,1013.0721923072174) translate(55.58723958333336 49.666666666666664)"/></g><path d="M2596.14 985.22a.5.5 0 0 1 .5-.5h37a.5.5 0 0 1 .5.5v22.96a.5.5 0 0 1-.5.5h-37a.5.5 0 0 1-.5-.5z" fill="#fff" fill-opacity="0"/><path d="M2596.64 985.7a.5.5 0 0 0-.5.5v21.02a.5.5 0 0 0 .5.5h37a.5.5 0 0 0 .5-.5V986.2a.5.5 0 0 0-.5-.5z" stroke="#5e5e5e" fill="#fff"/><use xlink:href="#s" transform="matrix(1,0,0,1,2610.5408867515807,984.7162516435787) translate(-6.796874999999998 16.444444444444443)"/><path d="M2486.14 985.22a.5.5 0 0 1 .5-.5h37a.5.5 0 0 1 .5.5v22.96a.5.5 0 0 1-.5.5h-37a.5.5 0 0 1-.5-.5z" fill="#fff" fill-opacity="0"/><path d="M2486.64 985.7a.5.5 0 0 0-.5.5v21.02a.5.5 0 0 0 .5.5h37a.5.5 0 0 0 .5-.5V986.2a.5.5 0 0 0-.5-.5z" stroke="#5e5e5e" fill="#fff"/><use xlink:href="#t" transform="matrix(1,0,0,1,2500.5424607869845,984.7162516435787) translate(-11.310763888888886 16.444444444444443)"/><path d="M2706.14 985.22a.5.5 0 0 1 .5-.5h37a.5.5 0 0 1 .5.5v22.96a.5.5 0 0 1-.5.5h-37a.5.5 0 0 1-.5-.5z" fill="#fff" fill-opacity="0"/><path d="M2706.64 985.7a.5.5 0 0 0-.5.5v21.02a.5.5 0 0 0 .5.5h37a.5.5 0 0 0 .5-.5V986.2a.5.5 0 0 0-.5-.5z" stroke="#5e5e5e" fill="#fff"/><use xlink:href="#u" transform="matrix(1,0,0,1,2720.539312716177,984.7162516435787) translate(-11.310763888888886 16.444444444444443)"/><path d="M1902.1 909.58v73.64" stroke="#5e5e5e" stroke-width="3" fill="none"/><path d="M1903.6 909.6h-3v-1.52h3zM1903.6 984.72h-3v-1.54h3z" stroke="#5e5e5e" stroke-width=".05" fill="#5e5e5e"/><path d="M2036.93 718.1l-24.05 265.12" stroke="#5e5e5e" stroke-width="3" fill="none"/><path d="M2038.42 718.28l-3-.27.14-1.4h3zM2014.38 983.32l-.13 1.4h-3l.14-1.67z" stroke="#5e5e5e" stroke-width=".05" fill="#5e5e5e"/><path d="M1762.13 718.1l30.5 265.13" stroke="#5e5e5e" stroke-width="3" fill="none"/><path d="M1763.63 717.97l-2.98.34-.2-1.7h3.02zM1794.33 984.72h-3.02l-.15-1.36 2.98-.34z" stroke="#5e5e5e" stroke-width=".05" fill="#5e5e5e"/><path d="M2613.24 909.73v73.5" stroke="#5e5e5e" stroke-width="3" fill="none"/><path d="M2614.74 909.77h-3v-1.54h3zM2614.74 984.72h-3v-1.54h3z" stroke="#5e5e5e" stroke-width=".05" fill="#5e5e5e"/><path d="M2746.97 718.1l-21.64 265.12" stroke="#5e5e5e" stroke-width="3" fill="none"/><path d="M2748.46 718.27l-3-.25.12-1.4h3zM2726.83 983.3l-.12 1.42h-3l.14-1.66z" stroke="#5e5e5e" stroke-width=".05" fill="#5e5e5e"/><path d="M2472.17 718.1l34.26 265.13" stroke="#5e5e5e" stroke-width="3" fill="none"/><path d="M2473.66 717.95l-2.97.38-.23-1.72h3.02zM2508.13 984.72h-3.02l-.16-1.34 2.97-.38z" stroke="#5e5e5e" stroke-width=".05" fill="#5e5e5e"/><path d="M2580.7 602.25h49.64v33h-49.65z" fill="none"/><use xlink:href="#z" transform="matrix(1,0,0,1,2580.689556045118,602.2470424678506) translate(10.762345679012348 19.61111111111111)"/><path d="M1874.7 602.25h49.64v33h-49.65z" fill="none"/><use xlink:href="#z" transform="matrix(1,0,0,1,1874.689556045118,602.2470424678506) translate(10.762345679012348 19.61111111111111)"/><path d="M1166.36 693.14a.5.5 0 0 1 .5-.5h37a.5.5 0 0 1 .5.5v22.97a.5.5 0 0 1-.5.5h-37a.5.5 0 0 1-.5-.5z" fill="#fff" fill-opacity="0"/><path d="M1166.86 693.6a.5.5 0 0 0-.5.5v21.04a.5.5 0 0 0 .5.5h37a.5.5 0 0 0 .5-.5V694.1a.5.5 0 0 0-.5-.5z" stroke="#5e5e5e" fill="#fff"/><use xlink:href="#L" transform="matrix(1,0,0,1,1180.7643672052482,692.6439872705151) translate(0.49479166666666696 16.444444444444443)"/><path d="M1406.36 693.14a.5.5 0 0 1 .5-.5h37a.5.5 0 0 1 .5.5v22.97a.5.5 0 0 1-.5.5h-37a.5.5 0 0 1-.5-.5z" fill="#fff" fill-opacity="0"/><path d="M1406.86 693.6a.5.5 0 0 0-.5.5v21.04a.5.5 0 0 0 .5.5h37a.5.5 0 0 0 .5-.5V694.1a.5.5 0 0 0-.5-.5z" stroke="#5e5e5e" fill="#fff"/><use xlink:href="#L" transform="matrix(1,0,0,1,1420.7643672052482,692.6439872705151) translate(0.49479166666666696 16.444444444444443)"/><path d="M2525.7 693.14a.5.5 0 0 1 .5-.5h37a.5.5 0 0 1 .5.5v22.97a.5.5 0 0 1-.5.5h-37a.5.5 0 0 1-.5-.5z" fill="#fff" fill-opacity="0"/><path d="M2526.2 693.6a.5.5 0 0 0-.5.5v21.04a.5.5 0 0 0 .5.5h37a.5.5 0 0 0 .5-.5V694.1a.5.5 0 0 0-.5-.5z" stroke="#5e5e5e" fill="#fff"/><use xlink:href="#L" transform="matrix(1,0,0,1,2540.095000203824,692.6439872705151) translate(0.49479166666666696 16.444444444444443)"/><path d="M2765.7 693.14a.5.5 0 0 1 .5-.5h37a.5.5 0 0 1 .5.5v22.97a.5.5 0 0 1-.5.5h-37a.5.5 0 0 1-.5-.5z" fill="#fff" fill-opacity="0"/><path d="M2766.2 693.6a.5.5 0 0 0-.5.5v21.04a.5.5 0 0 0 .5.5h37a.5.5 0 0 0 .5-.5V694.1a.5.5 0 0 0-.5-.5z" stroke="#5e5e5e" fill="#fff"/><use xlink:href="#L" transform="matrix(1,0,0,1,2780.0950002038235,692.6439872705151) translate(0.49479166666666696 16.444444444444443)"/><path d="M1184.98 718.1l.02 21.9h1359.33v-21.9" stroke="#5e5e5e" stroke-width="3" fill="none"/><path d="M1186.48 718.15h-3v-1.54h3zM2545.82 718.15h-3v-1.54h3z" stroke="#5e5e5e" stroke-width=".05" fill="#5e5e5e"/><path d="M1423.37 718.1l.08 41.9h1359.33l-.08-41.9" stroke="#5e5e5e" stroke-width="3" fill="none"/><path d="M1424.87 718.15h-3v-1.54h3zM2784.2 718.15h-3v-1.54h3z" stroke="#5e5e5e" stroke-width=".05" fill="#5e5e5e"/><defs><path fill="#fff" d="M483-1012c112 0 179 37 238 92v-517h254V0H818c-73 2-64-82-83-135C661-54 570 15 422 15 157 15 63-214 63-494c0-232 92-397 247-478 52-26 110-40 173-40zM325-494c0 166 29 308 186 308 106 0 161-51 210-111v-438c-43-55-93-85-178-85-170 0-218 146-218 326" id="M"/><path fill="#fff" d="M836-149C753-51 641 15 467 15 259 15 147-118 88-282c-42-119-44-295-4-419 59-179 186-308 419-308 153 0 247 58 325 142-30 37-55 81-89 113-66 29-96-36-151-51-19-5-41-11-69-11-164 0-199 147-204 317-6 202 85 372 277 308 37-12 60-40 86-61 24-21 64-16 84 9" id="N"/><path fill="#fff" d="M236-180h257c2-279-3-565 3-840L323-871c-27 30-91 18-110-9l-76-104 399-346h198v1150h227V0H236v-180" id="O"/><path fill="#fff" d="M61-690h505v212H61v-212" id="P"/><path fill="#fff" d="M379-1437V0H125v-1437h254" id="Q"/><path fill="#fff" d="M960-149C871-45 736 15 551 15 231 15 63-191 63-518c0-229 113-378 277-452 59-26 125-39 199-39 278 0 430 170 430 452 0 55-4 97-59 97H316c14 166 83 276 257 279 98 1 159-38 221-71 33-18 71-20 93 9zM741-612c-4-130-65-216-197-216-140 0-203 89-223 216h420" id="R"/><path fill="#fff" d="M534-1012c240 0 371 147 371 387V0c-80-7-186 24-201-53l-22-66C598-47 516 18 362 15 183 12 73-75 73-255c0-177 142-239 303-283 75-20 169-31 281-34 9-142-26-239-155-239-97 0-149 37-209 70-49 27-108 2-128-33l-46-80c103-96 231-158 415-158zM316-268c-2 80 48 110 125 110 107 0 156-41 216-100v-160c-111 5-199 15-269 48-43 21-70 49-72 102" id="S"/><path fill="#fff" d="M562-1233c-141 0-169 100-160 247h230v180H410V0H156v-806c-55-15-135-9-136-77v-103h136c-14-277 106-437 363-437 48 0 83 7 122 18l-6 127c-1 39-36 45-73 45" id="T"/><path fill="#fff" d="M89-955c40-238 181-388 449-388 250 0 409 134 409 381 0 232-139 347-258 472L407-195c126-46 310-24 475-29 49-1 86 32 85 80V0H69c-2-76 0-138 43-180 161-160 326-321 472-494 63-74 110-153 115-281 6-143-107-217-242-175-61 19-100 69-121 131-19 56-46 79-119 66" id="U"/><g id="b"><use transform="matrix(0.013020833333333334,0,0,0.013020833333333334,0,0)" xlink:href="#M"/><use transform="matrix(0.013020833333333334,0,0,0.013020833333333334,14.309895833333334,0)" xlink:href="#N"/><use transform="matrix(0.013020833333333334,0,0,0.013020833333333334,25.46875,0)" xlink:href="#O"/><use transform="matrix(0.013020833333333334,0,0,0.013020833333333334,38.984375,0)" xlink:href="#P"/><use transform="matrix(0.013020833333333334,0,0,0.013020833333333334,47.1484375,0)" xlink:href="#Q"/><use transform="matrix(0.013020833333333334,0,0,0.013020833333333334,53.69791666666667,0)" xlink:href="#R"/><use transform="matrix(0.013020833333333334,0,0,0.013020833333333334,67.12239583333333,0)" xlink:href="#S"/><use transform="matrix(0.013020833333333334,0,0,0.013020833333333334,80.14322916666666,0)" xlink:href="#T"/><use transform="matrix(0.013020833333333334,0,0,0.013020833333333334,88.58072916666666,0)" xlink:href="#U"/><use transform="matrix(0.013020833333333334,0,0,0.013020833333333334,102.09635416666666,0)" xlink:href="#S"/></g><filter id="a" filterUnits="objectBoundingBox" x="-.06" y="-.04" width="1.12" height="1.21"><feOffset result="offOut" in="SourceAlpha" dy="6"/><feGaussianBlur result="blurOut" in="offOut" stdDeviation="5"/><feColorMatrix result="colorOut" in="blurOut" values="0 0 0 0 0 0 0 0 0 0 0 0 0 0 0 0 0 0 0.5019607843137255 0"/><feBlend in="SourceGraphic" in2="colorOut"/></filter><path fill="#fff" d="M619 15c-128 0-198-56-256-127-11 50-5 112-70 112H124v-1437h254v561c71-71 156-133 289-133 266 0 369 213 369 487 0 241-87 415-246 498-51 26-108 39-171 39zm155-527c0-166-35-299-195-299-102 0-149 49-201 111v438c43 54 92 85 176 85 177 0 220-149 220-335" id="V"/><g id="c"><use transform="matrix(0.013020833333333334,0,0,0.013020833333333334,0,0)" xlink:href="#M"/><use transform="matrix(0.013020833333333334,0,0,0.013020833333333334,14.309895833333334,0)" xlink:href="#N"/><use transform="matrix(0.013020833333333334,0,0,0.013020833333333334,25.46875,0)" xlink:href="#O"/><use transform="matrix(0.013020833333333334,0,0,0.013020833333333334,38.984375,0)" xlink:href="#P"/><use transform="matrix(0.013020833333333334,0,0,0.013020833333333334,47.1484375,0)" xlink:href="#Q"/><use transform="matrix(0.013020833333333334,0,0,0.013020833333333334,53.69791666666667,0)" xlink:href="#R"/><use transform="matrix(0.013020833333333334,0,0,0.013020833333333334,67.12239583333333,0)" xlink:href="#S"/><use transform="matrix(0.013020833333333334,0,0,0.013020833333333334,80.14322916666666,0)" xlink:href="#T"/><use transform="matrix(0.013020833333333334,0,0,0.013020833333333334,88.58072916666666,0)" xlink:href="#U"/><use transform="matrix(0.013020833333333334,0,0,0.013020833333333334,102.09635416666666,0)" xlink:href="#V"/></g><g id="d"><use transform="matrix(0.013020833333333334,0,0,0.013020833333333334,0,0)" xlink:href="#M"/><use transform="matrix(0.013020833333333334,0,0,0.013020833333333334,14.309895833333334,0)" xlink:href="#N"/><use transform="matrix(0.013020833333333334,0,0,0.013020833333333334,25.46875,0)" xlink:href="#O"/><use transform="matrix(0.013020833333333334,0,0,0.013020833333333334,38.984375,0)" xlink:href="#P"/><use transform="matrix(0.013020833333333334,0,0,0.013020833333333334,47.1484375,0)" xlink:href="#Q"/><use transform="matrix(0.013020833333333334,0,0,0.013020833333333334,53.69791666666667,0)" xlink:href="#R"/><use transform="matrix(0.013020833333333334,0,0,0.013020833333333334,67.12239583333333,0)" xlink:href="#S"/><use transform="matrix(0.013020833333333334,0,0,0.013020833333333334,80.14322916666666,0)" xlink:href="#T"/><use transform="matrix(0.013020833333333334,0,0,0.013020833333333334,88.58072916666666,0)" xlink:href="#O"/><use transform="matrix(0.013020833333333334,0,0,0.013020833333333334,102.09635416666666,0)" xlink:href="#S"/></g><g id="e"><use transform="matrix(0.013020833333333334,0,0,0.013020833333333334,0,0)" xlink:href="#M"/><use transform="matrix(0.013020833333333334,0,0,0.013020833333333334,14.309895833333334,0)" xlink:href="#N"/><use transform="matrix(0.013020833333333334,0,0,0.013020833333333334,25.46875,0)" xlink:href="#O"/><use transform="matrix(0.013020833333333334,0,0,0.013020833333333334,38.984375,0)" xlink:href="#P"/><use transform="matrix(0.013020833333333334,0,0,0.013020833333333334,47.1484375,0)" xlink:href="#Q"/><use transform="matrix(0.013020833333333334,0,0,0.013020833333333334,53.69791666666667,0)" xlink:href="#R"/><use transform="matrix(0.013020833333333334,0,0,0.013020833333333334,67.12239583333333,0)" xlink:href="#S"/><use transform="matrix(0.013020833333333334,0,0,0.013020833333333334,80.14322916666666,0)" xlink:href="#T"/><use transform="matrix(0.013020833333333334,0,0,0.013020833333333334,88.58072916666666,0)" xlink:href="#O"/><use transform="matrix(0.013020833333333334,0,0,0.013020833333333334,102.09635416666666,0)" xlink:href="#V"/></g><path d="M113-955c38-239 181-388 448-388 186 0 310 81 369 209 18 42 27 87 27 134 1 168-77 256-203 297 151 51 227 154 227 307C981-126 800 8 532 14 260 20 143-131 76-338c63-25 186-102 236-14 46 82 93 164 218 164 130 0 203-76 210-200 9-175-112-206-288-206v-171c158-2 269-37 269-193 0-117-60-182-173-183-99-1-165 67-190 142-19 57-44 79-118 66" id="W"/><use transform="matrix(0.008680555555555554,0,0,0.008680555555555554,0,0)" xlink:href="#W" id="f"/><path d="M1007-505c-9 70 29 185-49 186H854V0H644v-319H105c-83-4-69-108-90-173l609-837h230v824h153zm-363 0c3-182-8-376 8-546L269-505h375" id="X"/><use transform="matrix(0.008680555555555554,0,0,0.008680555555555554,0,0)" xlink:href="#X" id="g"/><path fill="#fff" d="M80-702c6-234 206-338 457-298 93 15 166 59 220 115-26 37-46 85-79 115-8 4-17 7-28 7-73 0-113-61-203-61-94 0-160 79-107 152 93 83 270 88 356 179 39 42 70 95 69 176C761-63 553 47 286 6 191-9 109-52 51-106c29-40 47-92 85-123 77-33 115 38 178 55 22 6 48 12 80 12 81 0 133-35 133-110 0-69-60-91-116-111C252-440 75-483 80-702" id="Y"/><path fill="#fff" d="M615 15c-112 0-178-37-238-91v398H123V-993c65 5 149-11 197 11 31 24 28 81 42 121 74-81 161-151 314-151 265 0 360 229 360 508 0 232-93 399-248 480-52 26-109 39-173 39zm159-519c0-165-29-307-185-307-108 0-158 47-212 111v440c43 53 94 83 178 83 171 0 219-146 219-327" id="Z"/><path fill="#fff" d="M379-993V0H125v-993h254zm-132-444c97 0 163 62 163 159 0 96-66 158-163 158-94 0-157-63-157-158s62-159 157-159" id="aa"/><path fill="#fff" d="M582-811c-92 1-152 44-204 95V0H124v-993c65 5 150-14 196 11 30 17 27 71 39 107 74-72 158-134 301-134 225 0 332 151 332 377V0H738v-632c0-109-49-180-156-179" id="ab"/><g id="h"><use transform="matrix(0.013020833333333334,0,0,0.013020833333333334,0,0)" xlink:href="#M"/><use transform="matrix(0.013020833333333334,0,0,0.013020833333333334,14.309895833333334,0)" xlink:href="#N"/><use transform="matrix(0.013020833333333334,0,0,0.013020833333333334,25.46875,0)" xlink:href="#O"/><use transform="matrix(0.013020833333333334,0,0,0.013020833333333334,38.984375,0)" xlink:href="#P"/><use transform="matrix(0.013020833333333334,0,0,0.013020833333333334,47.1484375,0)" xlink:href="#Y"/><use transform="matrix(0.013020833333333334,0,0,0.013020833333333334,57.786458333333336,0)" xlink:href="#Z"/><use transform="matrix(0.013020833333333334,0,0,0.013020833333333334,72.09635416666667,0)" xlink:href="#aa"/><use transform="matrix(0.013020833333333334,0,0,0.013020833333333334,78.64583333333334,0)" xlink:href="#ab"/><use transform="matrix(0.013020833333333334,0,0,0.013020833333333334,92.95572916666667,0)" xlink:href="#R"/><use transform="matrix(0.013020833333333334,0,0,0.013020833333333334,106.38020833333334,0)" xlink:href="#O"/></g><g id="i"><use transform="matrix(0.013020833333333334,0,0,0.013020833333333334,0,0)" xlink:href="#M"/><use transform="matrix(0.013020833333333334,0,0,0.013020833333333334,14.309895833333334,0)" xlink:href="#N"/><use transform="matrix(0.013020833333333334,0,0,0.013020833333333334,25.46875,0)" xlink:href="#O"/><use transform="matrix(0.013020833333333334,0,0,0.013020833333333334,38.984375,0)" xlink:href="#P"/><use transform="matrix(0.013020833333333334,0,0,0.013020833333333334,47.1484375,0)" xlink:href="#Y"/><use transform="matrix(0.013020833333333334,0,0,0.013020833333333334,57.786458333333336,0)" xlink:href="#Z"/><use transform="matrix(0.013020833333333334,0,0,0.013020833333333334,72.09635416666667,0)" xlink:href="#aa"/><use transform="matrix(0.013020833333333334,0,0,0.013020833333333334,78.64583333333334,0)" xlink:href="#ab"/><use transform="matrix(0.013020833333333334,0,0,0.013020833333333334,92.95572916666667,0)" xlink:href="#R"/><use transform="matrix(0.013020833333333334,0,0,0.013020833333333334,106.38020833333334,0)" xlink:href="#U"/></g><path d="M236-180h257c2-279-3-565 3-840L323-871c-27 30-91 18-110-9l-76-104 399-346h198v1150h227V0H236v-180" id="ac"/><use transform="matrix(0.008680555555555554,0,0,0.008680555555555554,0,0)" xlink:href="#ac" id="j"/><path d="M89-955c40-238 181-388 449-388 250 0 409 134 409 381 0 232-139 347-258 472L407-195c126-46 310-24 475-29 49-1 86 32 85 80V0H69c-2-76 0-138 43-180 161-160 326-321 472-494 63-74 110-153 115-281 6-143-107-217-242-175-61 19-100 69-121 131-19 56-46 79-119 66" id="ad"/><use transform="matrix(0.008680555555555554,0,0,0.008680555555555554,0,0)" xlink:href="#ad" id="k"/><path fill="#979ea8" d="M24-248c120-7 223 5 221 122C244-46 201 0 124 0H24v-248zM76-40c74 7 117-18 117-86 0-67-45-88-117-82v168" id="ae"/><path fill="#979ea8" d="M67-125c0 53 21 87 73 88 37 1 54-22 65-47l45 17C233-25 199 4 140 4 58 4 20-42 15-125 8-235 124-281 211-232c18 10 29 29 36 50l-46 12c-8-25-30-41-62-41-52 0-71 34-72 86" id="af"/><path fill="#979ea8" d="M23 0v-37h61v-169l-59 37v-38l62-41h46v211h57V0H23" id="ag"/><g id="l"><use transform="matrix(0.08024691358024691,0,0,0.08024691358024691,0,0)" xlink:href="#ae"/><use transform="matrix(0.08024691358024691,0,0,0.08024691358024691,20.78395061728395,0)" xlink:href="#af"/><use transform="matrix(0.08024691358024691,0,0,0.08024691358024691,41.5679012345679,0)" xlink:href="#ag"/></g><g id="m"><use transform="matrix(0.013020833333333334,0,0,0.013020833333333334,0,0)" xlink:href="#M"/><use transform="matrix(0.013020833333333334,0,0,0.013020833333333334,14.309895833333334,0)" xlink:href="#N"/><use transform="matrix(0.013020833333333334,0,0,0.013020833333333334,25.46875,0)" xlink:href="#O"/><use transform="matrix(0.013020833333333334,0,0,0.013020833333333334,38.984375,0)" xlink:href="#P"/><use transform="matrix(0.013020833333333334,0,0,0.013020833333333334,47.1484375,0)" xlink:href="#Q"/><use transform="matrix(0.013020833333333334,0,0,0.013020833333333334,53.69791666666667,0)" xlink:href="#R"/><use transform="matrix(0.013020833333333334,0,0,0.013020833333333334,67.12239583333333,0)" xlink:href="#S"/><use transform="matrix(0.013020833333333334,0,0,0.013020833333333334,80.14322916666666,0)" xlink:href="#T"/><use transform="matrix(0.013020833333333334,0,0,0.013020833333333334,88.58072916666666,0)" xlink:href="#O"/><use transform="matrix(0.013020833333333334,0,0,0.013020833333333334,102.09635416666666,0)" xlink:href="#N"/></g><g id="n"><use transform="matrix(0.013020833333333334,0,0,0.013020833333333334,0,0)" xlink:href="#M"/><use transform="matrix(0.013020833333333334,0,0,0.013020833333333334,14.309895833333334,0)" xlink:href="#N"/><use transform="matrix(0.013020833333333334,0,0,0.013020833333333334,25.46875,0)" xlink:href="#O"/><use transform="matrix(0.013020833333333334,0,0,0.013020833333333334,38.984375,0)" xlink:href="#P"/><use transform="matrix(0.013020833333333334,0,0,0.013020833333333334,47.1484375,0)" xlink:href="#Q"/><use transform="matrix(0.013020833333333334,0,0,0.013020833333333334,53.69791666666667,0)" xlink:href="#R"/><use transform="matrix(0.013020833333333334,0,0,0.013020833333333334,67.12239583333333,0)" xlink:href="#S"/><use transform="matrix(0.013020833333333334,0,0,0.013020833333333334,80.14322916666666,0)" xlink:href="#T"/><use transform="matrix(0.013020833333333334,0,0,0.013020833333333334,88.58072916666666,0)" xlink:href="#U"/><use transform="matrix(0.013020833333333334,0,0,0.013020833333333334,102.09635416666666,0)" xlink:href="#N"/></g><path d="M463-670c-69 0-128 14-183 34l-149-41 108-651h650v101c-3 78-52 116-142 116H407l-44 261c53-11 103-16 152-16 263 0 419 147 419 406 0 232-122 371-292 440-125 51-309 39-418-14-62-30-119-68-165-112l74-102c44-65 117-14 161 14 42 27 94 49 166 47 158-4 231-103 233-261 2-143-84-223-230-222" id="ah"/><use transform="matrix(0.008680555555555554,0,0,0.008680555555555554,0,0)" xlink:href="#ah" id="o"/><path d="M977-395c0 272-183 410-458 410S61-123 61-395c0-179 82-285 228-334-115-51-185-151-185-308 0-185 109-293 248-348 99-39 235-39 334 0 140 55 248 162 248 348 0 158-70 257-186 308 146 49 229 155 229 334zm-654-4c0 133 63 217 196 217s196-84 196-217c0-142-55-224-196-224-140 0-196 84-196 224zm28-633c0 123 44 210 168 210 123 0 168-87 168-210 0-114-53-191-168-191s-168 77-168 191" id="ai"/><use transform="matrix(0.008680555555555554,0,0,0.008680555555555554,0,0)" xlink:href="#ai" id="p"/><path fill="#fff" d="M545-767c-109 4-148 72-181 151V0H110v-993c66 5 161-12 204 14 28 28 23 102 33 150 53-94 116-183 244-183 43 0 79 10 107 31l-19 190c-6 59-87 22-134 24" id="aj"/><path fill="#fff" d="M600 0H369L11-993h210c36-1 65 20 72 46l145 507c21 61 37 123 49 185 14-65 34-123 52-185l150-507c9-25 34-46 68-46h201" id="ak"/><g id="r"><use transform="matrix(0.013020833333333334,0,0,0.013020833333333334,0,0)" xlink:href="#M"/><use transform="matrix(0.013020833333333334,0,0,0.013020833333333334,14.309895833333334,0)" xlink:href="#N"/><use transform="matrix(0.013020833333333334,0,0,0.013020833333333334,25.46875,0)" xlink:href="#O"/><use transform="matrix(0.013020833333333334,0,0,0.013020833333333334,38.984375,0)" xlink:href="#P"/><use transform="matrix(0.013020833333333334,0,0,0.013020833333333334,47.1484375,0)" xlink:href="#Q"/><use transform="matrix(0.013020833333333334,0,0,0.013020833333333334,53.69791666666667,0)" xlink:href="#R"/><use transform="matrix(0.013020833333333334,0,0,0.013020833333333334,67.12239583333333,0)" xlink:href="#S"/><use transform="matrix(0.013020833333333334,0,0,0.013020833333333334,80.14322916666666,0)" xlink:href="#T"/><use transform="matrix(0.013020833333333334,0,0,0.013020833333333334,88.58072916666666,0)" xlink:href="#O"/><use transform="matrix(0.013020833333333334,0,0,0.013020833333333334,102.09635416666666,0)" xlink:href="#P"/><use transform="matrix(0.013020833333333334,0,0,0.013020833333333334,110.26041666666664,0)" xlink:href="#Y"/><use transform="matrix(0.013020833333333334,0,0,0.013020833333333334,120.89843749999999,0)" xlink:href="#R"/><use transform="matrix(0.013020833333333334,0,0,0.013020833333333334,134.32291666666666,0)" xlink:href="#aj"/><use transform="matrix(0.013020833333333334,0,0,0.013020833333333334,144.03645833333331,0)" xlink:href="#ak"/><use transform="matrix(0.013020833333333334,0,0,0.013020833333333334,156.40624999999997,0)" xlink:href="#R"/><use transform="matrix(0.013020833333333334,0,0,0.013020833333333334,169.83072916666663,0)" xlink:href="#aj"/><use transform="matrix(0.013020833333333334,0,0,0.013020833333333334,179.3098958333333,0)" xlink:href="#O"/></g><filter id="q" filterUnits="objectBoundingBox" x="-.03" y="-.04" width="1.06" height="1.18"><feOffset result="offOut" in="SourceAlpha" dy="6"/><feGaussianBlur result="blurOut" in="offOut" stdDeviation="5"/><feColorMatrix result="colorOut" in="blurOut" values="0 0 0 0 0 0 0 0 0 0 0 0 0 0 0 0 0 0 0.5019607843137255 0"/><feBlend in="SourceGraphic" in2="colorOut"/></filter><path d="M379-993V0H125v-993h254zm-132-444c97 0 163 62 163 159 0 96-66 158-163 158-94 0-157-63-157-158s62-159 157-159" id="al"/><path d="M371-216h461V0H108v-1328h263v1112" id="am"/><path d="M1292-934c62 161 62 379 0 540-91 237-280 408-598 408S186-158 94-394c-62-161-63-379 0-540 92-237 282-409 600-409 317 0 507 173 598 409zM694-210c263 0 376-186 376-455 0-268-114-455-376-455-263 0-377 187-377 455 0 269 113 455 377 455" id="an"/><g id="s"><use transform="matrix(0.008680555555555554,0,0,0.008680555555555554,0,0)" xlink:href="#al"/><use transform="matrix(0.008680555555555554,0,0,0.008680555555555554,4.366319444444444,0)" xlink:href="#am"/><use transform="matrix(0.008680555555555554,0,0,0.008680555555555554,11.571180555555554,0)" xlink:href="#an"/></g><path d="M1037-902c0 300-189 436-495 441H378V0H115v-1328h427c303 4 495 131 495 426zm-263 0c0-143-81-224-232-224H378v461h164c156 2 232-87 232-237" id="ao"/><path d="M1063-193C972-66 836 14 625 14 325 14 160-160 82-392c-55-162-54-387 4-546 84-230 253-399 553-405 185-4 321 74 409 173-37 47-65 102-108 143-52 29-90-19-122-42-68-49-222-71-314-21-130 72-193 222-193 425 0 205 69 355 201 427 92 51 249 32 318-20 30-23 81-99 128-48" id="ap"/><path d="M405 0H141v-1328h264V0" id="aq"/><g id="t"><use transform="matrix(0.008680555555555554,0,0,0.008680555555555554,0,0)" xlink:href="#ao"/><use transform="matrix(0.008680555555555554,0,0,0.008680555555555554,9.461805555555554,0)" xlink:href="#ap"/><use transform="matrix(0.008680555555555554,0,0,0.008680555555555554,18.871527777777775,0)" xlink:href="#aq"/><use transform="matrix(0.008680555555555554,0,0,0.008680555555555554,23.611111111111107,0)" xlink:href="#ac"/></g><g id="u"><use transform="matrix(0.008680555555555554,0,0,0.008680555555555554,0,0)" xlink:href="#ao"/><use transform="matrix(0.008680555555555554,0,0,0.008680555555555554,9.461805555555554,0)" xlink:href="#ap"/><use transform="matrix(0.008680555555555554,0,0,0.008680555555555554,18.871527777777775,0)" xlink:href="#aq"/><use transform="matrix(0.008680555555555554,0,0,0.008680555555555554,23.611111111111107,0)" xlink:href="#ad"/></g><g id="v"><use transform="matrix(0.013020833333333334,0,0,0.013020833333333334,0,0)" xlink:href="#M"/><use transform="matrix(0.013020833333333334,0,0,0.013020833333333334,14.309895833333334,0)" xlink:href="#N"/><use transform="matrix(0.013020833333333334,0,0,0.013020833333333334,25.46875,0)" xlink:href="#O"/><use transform="matrix(0.013020833333333334,0,0,0.013020833333333334,38.984375,0)" xlink:href="#P"/><use transform="matrix(0.013020833333333334,0,0,0.013020833333333334,47.1484375,0)" xlink:href="#Q"/><use transform="matrix(0.013020833333333334,0,0,0.013020833333333334,53.69791666666667,0)" xlink:href="#R"/><use transform="matrix(0.013020833333333334,0,0,0.013020833333333334,67.12239583333333,0)" xlink:href="#S"/><use transform="matrix(0.013020833333333334,0,0,0.013020833333333334,80.14322916666666,0)" xlink:href="#T"/><use transform="matrix(0.013020833333333334,0,0,0.013020833333333334,88.58072916666666,0)" xlink:href="#U"/><use transform="matrix(0.013020833333333334,0,0,0.013020833333333334,102.09635416666666,0)" xlink:href="#P"/><use transform="matrix(0.013020833333333334,0,0,0.013020833333333334,110.26041666666664,0)" xlink:href="#Y"/><use transform="matrix(0.013020833333333334,0,0,0.013020833333333334,120.89843749999999,0)" xlink:href="#R"/><use transform="matrix(0.013020833333333334,0,0,0.013020833333333334,134.32291666666666,0)" xlink:href="#aj"/><use transform="matrix(0.013020833333333334,0,0,0.013020833333333334,144.03645833333331,0)" xlink:href="#ak"/><use transform="matrix(0.013020833333333334,0,0,0.013020833333333334,156.40624999999997,0)" xlink:href="#R"/><use transform="matrix(0.013020833333333334,0,0,0.013020833333333334,169.83072916666663,0)" xlink:href="#aj"/><use transform="matrix(0.013020833333333334,0,0,0.013020833333333334,179.3098958333333,0)" xlink:href="#O"/></g><path fill="#fff" d="M1240 0h-202c-47 1-76-24-87-58l-84-261H378L295-59c-11 29-44 59-86 59H4l484-1328h268zM437-503h370c-61-196-127-384-186-583-56 202-123 386-184 583" id="ar"/><g id="x"><use transform="matrix(0.013020833333333334,0,0,0.013020833333333334,0,0)" xlink:href="#ar"/><use transform="matrix(0.013020833333333334,0,0,0.013020833333333334,16.158854166666668,0)" xlink:href="#ab"/><use transform="matrix(0.013020833333333334,0,0,0.013020833333333334,30.46875,0)" xlink:href="#Y"/><use transform="matrix(0.013020833333333334,0,0,0.013020833333333334,41.106770833333336,0)" xlink:href="#aa"/><use transform="matrix(0.013020833333333334,0,0,0.013020833333333334,47.65625,0)" xlink:href="#V"/><use transform="matrix(0.013020833333333334,0,0,0.013020833333333334,61.966145833333336,0)" xlink:href="#Q"/><use transform="matrix(0.013020833333333334,0,0,0.013020833333333334,68.515625,0)" xlink:href="#R"/></g><path fill="#fff" d="M1179 0H915v-575H377V0H113v-1328h264v567h538v-567h264V0" id="as"/><path fill="#fff" d="M352-974c116-47 283-48 399 0 177 72 288 230 288 475 0 247-110 405-288 478-116 48-283 48-399 0C173-94 62-251 62-499c0-246 112-403 290-475zm-28 477c0 189 54 318 228 318 172 0 225-131 225-318s-53-318-225-318c-174 0-228 130-228 318" id="at"/><path fill="#fff" d="M680-72c-61 52-150 86-256 87-172 2-267-108-267-279v-542c-63-2-138 16-138-53v-101l151-29 53-262c11-66 119-33 188-41v306h245v180H411v525c0 54 23 90 73 93 51 3 85-62 119-7" id="au"/><g id="y"><use transform="matrix(0.013020833333333334,0,0,0.013020833333333334,0,0)" xlink:href="#as"/><use transform="matrix(0.013020833333333334,0,0,0.013020833333333334,16.822916666666668,0)" xlink:href="#at"/><use transform="matrix(0.013020833333333334,0,0,0.013020833333333334,31.158854166666668,0)" xlink:href="#Y"/><use transform="matrix(0.013020833333333334,0,0,0.013020833333333334,41.497395833333336,0)" xlink:href="#au"/></g><filter id="w" filterUnits="objectBoundingBox" x="-.08" y="-.04" width="1.17" height="1.18"><feOffset result="offOut" in="SourceAlpha" dy="6"/><feGaussianBlur result="blurOut" in="offOut" stdDeviation="5"/><feColorMatrix result="colorOut" in="blurOut" values="0 0 0 0 0 0 0 0 0 0 0 0 0 0 0 0 0 0 0.5019607843137255 0"/><feBlend in="SourceGraphic" in2="colorOut"/></filter><path fill="#333" d="M24-248c93 1 206-16 204 79-1 75-69 88-152 82V0H24v-248zm52 121c47 0 100 7 100-41 0-47-54-39-100-39v80" id="av"/><path fill="#333" d="M110-194c64 0 96 36 96 99 0 64-35 99-97 99-61 0-95-36-95-99 0-62 34-99 96-99zm-1 164c35 0 45-28 45-65 0-40-10-65-43-65-34 0-45 26-45 65 0 36 10 65 43 65" id="aw"/><path fill="#333" d="M128-127c34 4 56 21 59 58 7 91-148 94-172 28-4-9-6-17-7-26l51-5c1 24 16 35 40 36 23 0 39-12 38-36-1-31-31-36-65-34v-40c32 2 59-3 59-33 0-20-13-33-34-33s-33 13-35 32l-50-3c6-44 37-68 86-68 50 0 83 20 83 66 0 35-22 52-53 58" id="ax"/><g id="z"><use transform="matrix(0.04320987654320987,0,0,0.04320987654320987,0,0)" xlink:href="#av"/><use transform="matrix(0.04320987654320987,0,0,0.04320987654320987,10.370370370370368,0)" xlink:href="#aw"/><use transform="matrix(0.04320987654320987,0,0,0.04320987654320987,19.83333333333333,0)" xlink:href="#ax"/></g><g id="A"><use transform="matrix(0.013020833333333334,0,0,0.013020833333333334,0,0)" xlink:href="#M"/><use transform="matrix(0.013020833333333334,0,0,0.013020833333333334,14.309895833333334,0)" xlink:href="#N"/><use transform="matrix(0.013020833333333334,0,0,0.013020833333333334,25.46875,0)" xlink:href="#U"/><use transform="matrix(0.013020833333333334,0,0,0.013020833333333334,38.984375,0)" xlink:href="#P"/><use transform="matrix(0.013020833333333334,0,0,0.013020833333333334,47.1484375,0)" xlink:href="#Q"/><use transform="matrix(0.013020833333333334,0,0,0.013020833333333334,53.69791666666667,0)" xlink:href="#R"/><use transform="matrix(0.013020833333333334,0,0,0.013020833333333334,67.12239583333333,0)" xlink:href="#S"/><use transform="matrix(0.013020833333333334,0,0,0.013020833333333334,80.14322916666666,0)" xlink:href="#T"/><use transform="matrix(0.013020833333333334,0,0,0.013020833333333334,88.58072916666666,0)" xlink:href="#U"/><use transform="matrix(0.013020833333333334,0,0,0.013020833333333334,102.09635416666666,0)" xlink:href="#S"/></g><g id="B"><use transform="matrix(0.013020833333333334,0,0,0.013020833333333334,0,0)" xlink:href="#M"/><use transform="matrix(0.013020833333333334,0,0,0.013020833333333334,14.309895833333334,0)" xlink:href="#N"/><use transform="matrix(0.013020833333333334,0,0,0.013020833333333334,25.46875,0)" xlink:href="#U"/><use transform="matrix(0.013020833333333334,0,0,0.013020833333333334,38.984375,0)" xlink:href="#P"/><use transform="matrix(0.013020833333333334,0,0,0.013020833333333334,47.1484375,0)" xlink:href="#Q"/><use transform="matrix(0.013020833333333334,0,0,0.013020833333333334,53.69791666666667,0)" xlink:href="#R"/><use transform="matrix(0.013020833333333334,0,0,0.013020833333333334,67.12239583333333,0)" xlink:href="#S"/><use transform="matrix(0.013020833333333334,0,0,0.013020833333333334,80.14322916666666,0)" xlink:href="#T"/><use transform="matrix(0.013020833333333334,0,0,0.013020833333333334,88.58072916666666,0)" xlink:href="#U"/><use transform="matrix(0.013020833333333334,0,0,0.013020833333333334,102.09635416666666,0)" xlink:href="#V"/></g><g id="C"><use transform="matrix(0.013020833333333334,0,0,0.013020833333333334,0,0)" xlink:href="#M"/><use transform="matrix(0.013020833333333334,0,0,0.013020833333333334,14.309895833333334,0)" xlink:href="#N"/><use transform="matrix(0.013020833333333334,0,0,0.013020833333333334,25.46875,0)" xlink:href="#U"/><use transform="matrix(0.013020833333333334,0,0,0.013020833333333334,38.984375,0)" xlink:href="#P"/><use transform="matrix(0.013020833333333334,0,0,0.013020833333333334,47.1484375,0)" xlink:href="#Q"/><use transform="matrix(0.013020833333333334,0,0,0.013020833333333334,53.69791666666667,0)" xlink:href="#R"/><use transform="matrix(0.013020833333333334,0,0,0.013020833333333334,67.12239583333333,0)" xlink:href="#S"/><use transform="matrix(0.013020833333333334,0,0,0.013020833333333334,80.14322916666666,0)" xlink:href="#T"/><use transform="matrix(0.013020833333333334,0,0,0.013020833333333334,88.58072916666666,0)" xlink:href="#O"/><use transform="matrix(0.013020833333333334,0,0,0.013020833333333334,102.09635416666666,0)" xlink:href="#S"/></g><g id="D"><use transform="matrix(0.013020833333333334,0,0,0.013020833333333334,0,0)" xlink:href="#M"/><use transform="matrix(0.013020833333333334,0,0,0.013020833333333334,14.309895833333334,0)" xlink:href="#N"/><use transform="matrix(0.013020833333333334,0,0,0.013020833333333334,25.46875,0)" xlink:href="#U"/><use transform="matrix(0.013020833333333334,0,0,0.013020833333333334,38.984375,0)" xlink:href="#P"/><use transform="matrix(0.013020833333333334,0,0,0.013020833333333334,47.1484375,0)" xlink:href="#Q"/><use transform="matrix(0.013020833333333334,0,0,0.013020833333333334,53.69791666666667,0)" xlink:href="#R"/><use transform="matrix(0.013020833333333334,0,0,0.013020833333333334,67.12239583333333,0)" xlink:href="#S"/><use transform="matrix(0.013020833333333334,0,0,0.013020833333333334,80.14322916666666,0)" xlink:href="#T"/><use transform="matrix(0.013020833333333334,0,0,0.013020833333333334,88.58072916666666,0)" xlink:href="#O"/><use transform="matrix(0.013020833333333334,0,0,0.013020833333333334,102.09635416666666,0)" xlink:href="#V"/></g><g id="E"><use transform="matrix(0.013020833333333334,0,0,0.013020833333333334,0,0)" xlink:href="#M"/><use transform="matrix(0.013020833333333334,0,0,0.013020833333333334,14.309895833333334,0)" xlink:href="#N"/><use transform="matrix(0.013020833333333334,0,0,0.013020833333333334,25.46875,0)" xlink:href="#U"/><use transform="matrix(0.013020833333333334,0,0,0.013020833333333334,38.984375,0)" xlink:href="#P"/><use transform="matrix(0.013020833333333334,0,0,0.013020833333333334,47.1484375,0)" xlink:href="#Y"/><use transform="matrix(0.013020833333333334,0,0,0.013020833333333334,57.786458333333336,0)" xlink:href="#Z"/><use transform="matrix(0.013020833333333334,0,0,0.013020833333333334,72.09635416666667,0)" xlink:href="#aa"/><use transform="matrix(0.013020833333333334,0,0,0.013020833333333334,78.64583333333334,0)" xlink:href="#ab"/><use transform="matrix(0.013020833333333334,0,0,0.013020833333333334,92.95572916666667,0)" xlink:href="#R"/><use transform="matrix(0.013020833333333334,0,0,0.013020833333333334,106.38020833333334,0)" xlink:href="#O"/></g><g id="F"><use transform="matrix(0.013020833333333334,0,0,0.013020833333333334,0,0)" xlink:href="#M"/><use transform="matrix(0.013020833333333334,0,0,0.013020833333333334,14.309895833333334,0)" xlink:href="#N"/><use transform="matrix(0.013020833333333334,0,0,0.013020833333333334,25.46875,0)" xlink:href="#U"/><use transform="matrix(0.013020833333333334,0,0,0.013020833333333334,38.984375,0)" xlink:href="#P"/><use transform="matrix(0.013020833333333334,0,0,0.013020833333333334,47.1484375,0)" xlink:href="#Y"/><use transform="matrix(0.013020833333333334,0,0,0.013020833333333334,57.786458333333336,0)" xlink:href="#Z"/><use transform="matrix(0.013020833333333334,0,0,0.013020833333333334,72.09635416666667,0)" xlink:href="#aa"/><use transform="matrix(0.013020833333333334,0,0,0.013020833333333334,78.64583333333334,0)" xlink:href="#ab"/><use transform="matrix(0.013020833333333334,0,0,0.013020833333333334,92.95572916666667,0)" xlink:href="#R"/><use transform="matrix(0.013020833333333334,0,0,0.013020833333333334,106.38020833333334,0)" xlink:href="#U"/></g><path fill="#979ea8" d="M182-182c0 78-84 86-111 141h115V0H12c-6-101 99-100 120-180 1-22-12-31-33-32-23 0-32 14-35 34l-49-3c5-45 32-70 84-70 51 0 83 22 83 69" id="ay"/><g id="G"><use transform="matrix(0.08024691358024691,0,0,0.08024691358024691,0,0)" xlink:href="#ae"/><use transform="matrix(0.08024691358024691,0,0,0.08024691358024691,20.78395061728395,0)" xlink:href="#af"/><use transform="matrix(0.08024691358024691,0,0,0.08024691358024691,41.5679012345679,0)" xlink:href="#ay"/></g><g id="H"><use transform="matrix(0.013020833333333334,0,0,0.013020833333333334,0,0)" xlink:href="#M"/><use transform="matrix(0.013020833333333334,0,0,0.013020833333333334,14.309895833333334,0)" xlink:href="#N"/><use transform="matrix(0.013020833333333334,0,0,0.013020833333333334,25.46875,0)" xlink:href="#U"/><use transform="matrix(0.013020833333333334,0,0,0.013020833333333334,38.984375,0)" xlink:href="#P"/><use transform="matrix(0.013020833333333334,0,0,0.013020833333333334,47.1484375,0)" xlink:href="#Q"/><use transform="matrix(0.013020833333333334,0,0,0.013020833333333334,53.69791666666667,0)" xlink:href="#R"/><use transform="matrix(0.013020833333333334,0,0,0.013020833333333334,67.12239583333333,0)" xlink:href="#S"/><use transform="matrix(0.013020833333333334,0,0,0.013020833333333334,80.14322916666666,0)" xlink:href="#T"/><use transform="matrix(0.013020833333333334,0,0,0.013020833333333334,88.58072916666666,0)" xlink:href="#O"/><use transform="matrix(0.013020833333333334,0,0,0.013020833333333334,102.09635416666666,0)" xlink:href="#N"/></g><g id="I"><use transform="matrix(0.013020833333333334,0,0,0.013020833333333334,0,0)" xlink:href="#M"/><use transform="matrix(0.013020833333333334,0,0,0.013020833333333334,14.309895833333334,0)" xlink:href="#N"/><use transform="matrix(0.013020833333333334,0,0,0.013020833333333334,25.46875,0)" xlink:href="#U"/><use transform="matrix(0.013020833333333334,0,0,0.013020833333333334,38.984375,0)" xlink:href="#P"/><use transform="matrix(0.013020833333333334,0,0,0.013020833333333334,47.1484375,0)" xlink:href="#Q"/><use transform="matrix(0.013020833333333334,0,0,0.013020833333333334,53.69791666666667,0)" xlink:href="#R"/><use transform="matrix(0.013020833333333334,0,0,0.013020833333333334,67.12239583333333,0)" xlink:href="#S"/><use transform="matrix(0.013020833333333334,0,0,0.013020833333333334,80.14322916666666,0)" xlink:href="#T"/><use transform="matrix(0.013020833333333334,0,0,0.013020833333333334,88.58072916666666,0)" xlink:href="#U"/><use transform="matrix(0.013020833333333334,0,0,0.013020833333333334,102.09635416666666,0)" xlink:href="#N"/></g><g id="J"><use transform="matrix(0.013020833333333334,0,0,0.013020833333333334,0,0)" xlink:href="#M"/><use transform="matrix(0.013020833333333334,0,0,0.013020833333333334,14.309895833333334,0)" xlink:href="#N"/><use transform="matrix(0.013020833333333334,0,0,0.013020833333333334,25.46875,0)" xlink:href="#U"/><use transform="matrix(0.013020833333333334,0,0,0.013020833333333334,38.984375,0)" xlink:href="#P"/><use transform="matrix(0.013020833333333334,0,0,0.013020833333333334,47.1484375,0)" xlink:href="#Q"/><use transform="matrix(0.013020833333333334,0,0,0.013020833333333334,53.69791666666667,0)" xlink:href="#R"/><use transform="matrix(0.013020833333333334,0,0,0.013020833333333334,67.12239583333333,0)" xlink:href="#S"/><use transform="matrix(0.013020833333333334,0,0,0.013020833333333334,80.14322916666666,0)" xlink:href="#T"/><use transform="matrix(0.013020833333333334,0,0,0.013020833333333334,88.58072916666666,0)" xlink:href="#O"/><use transform="matrix(0.013020833333333334,0,0,0.013020833333333334,102.09635416666666,0)" xlink:href="#P"/><use transform="matrix(0.013020833333333334,0,0,0.013020833333333334,110.26041666666664,0)" xlink:href="#Y"/><use transform="matrix(0.013020833333333334,0,0,0.013020833333333334,120.89843749999999,0)" xlink:href="#R"/><use transform="matrix(0.013020833333333334,0,0,0.013020833333333334,134.32291666666666,0)" xlink:href="#aj"/><use transform="matrix(0.013020833333333334,0,0,0.013020833333333334,144.03645833333331,0)" xlink:href="#ak"/><use transform="matrix(0.013020833333333334,0,0,0.013020833333333334,156.40624999999997,0)" xlink:href="#R"/><use transform="matrix(0.013020833333333334,0,0,0.013020833333333334,169.83072916666663,0)" xlink:href="#aj"/><use transform="matrix(0.013020833333333334,0,0,0.013020833333333334,179.3098958333333,0)" xlink:href="#O"/></g><g id="K"><use transform="matrix(0.013020833333333334,0,0,0.013020833333333334,0,0)" xlink:href="#M"/><use transform="matrix(0.013020833333333334,0,0,0.013020833333333334,14.309895833333334,0)" xlink:href="#N"/><use transform="matrix(0.013020833333333334,0,0,0.013020833333333334,25.46875,0)" xlink:href="#U"/><use transform="matrix(0.013020833333333334,0,0,0.013020833333333334,38.984375,0)" xlink:href="#P"/><use transform="matrix(0.013020833333333334,0,0,0.013020833333333334,47.1484375,0)" xlink:href="#Q"/><use transform="matrix(0.013020833333333334,0,0,0.013020833333333334,53.69791666666667,0)" xlink:href="#R"/><use transform="matrix(0.013020833333333334,0,0,0.013020833333333334,67.12239583333333,0)" xlink:href="#S"/><use transform="matrix(0.013020833333333334,0,0,0.013020833333333334,80.14322916666666,0)" xlink:href="#T"/><use transform="matrix(0.013020833333333334,0,0,0.013020833333333334,88.58072916666666,0)" xlink:href="#U"/><use transform="matrix(0.013020833333333334,0,0,0.013020833333333334,102.09635416666666,0)" xlink:href="#P"/><use transform="matrix(0.013020833333333334,0,0,0.013020833333333334,110.26041666666664,0)" xlink:href="#Y"/><use transform="matrix(0.013020833333333334,0,0,0.013020833333333334,120.89843749999999,0)" xlink:href="#R"/><use transform="matrix(0.013020833333333334,0,0,0.013020833333333334,134.32291666666666,0)" xlink:href="#aj"/><use transform="matrix(0.013020833333333334,0,0,0.013020833333333334,144.03645833333331,0)" xlink:href="#ak"/><use transform="matrix(0.013020833333333334,0,0,0.013020833333333334,156.40624999999997,0)" xlink:href="#R"/><use transform="matrix(0.013020833333333334,0,0,0.013020833333333334,169.83072916666663,0)" xlink:href="#aj"/><use transform="matrix(0.013020833333333334,0,0,0.013020833333333334,179.3098958333333,0)" xlink:href="#O"/></g><path d="M456-845c80-38 203-43 294-6 146 60 243 188 243 393 0 223-117 364-277 436-109 49-273 49-382 1C168-93 67-246 67-479c0-175 67-295 150-418l300-442c25-33 77-59 136-59h226c-141 184-282 368-423 553zm64 158c-139 0-209 104-209 247 0 149 63 249 209 249 141 0 219-103 219-248 0-149-72-248-219-248" id="az"/><use transform="matrix(0.008680555555555554,0,0,0.008680555555555554,0,0)" xlink:href="#az" id="L"/></defs></g></svg>