<svg xmlns="http://www.w3.org/2000/svg" xmlns:xlink="http://www.w3.org/1999/xlink" xmlns:lucid="lucid" width="2620" height="680"><g transform="translate(-120 -400)" lucid:page-tab-id="SUWQ.NX55tFj"><path d="M0 0h3456v1360H0z" fill="#fff"/><path d="M140 497.4a36 36 0 0 1 36-36h2508a36 36 0 0 1 36 36V1024a36 36 0 0 1-36 36H176a36 36 0 0 1-36-36z" stroke="#979ea8" stroke-width="3" fill="#979ea8"/><use xlink:href="#a" transform="matrix(1,0,0,1,145,466.408860723077) translate(1243.8012962962962 17.77777777777778)"/><path d="M172.77 420h2515.27v60H172.77z" fill="none"/><use xlink:href="#b" transform="matrix(1,0,0,1,172.7686880858787,420) translate(1176.8148148148148 35.33333333333333)"/><use xlink:href="#c" transform="matrix(1,0,0,1,172.7686880858787,420) translate(1241.4074074074074 35.33333333333333)"/><path d="M172.77 498.24a6 6 0 0 1 6-6h1218.28a6 6 0 0 1 6 6v535.23a6 6 0 0 1-6 6H178.77a6 6 0 0 1-6-6z" stroke="#dbdbdb" stroke-width="3" fill="#f2f3f5"/><path d="M551.2 562.18a19 19 0 0 1 19-19h456.83a19 19 0 0 1 19 19v147.6a19 19 0 0 1-19 19H570.2a19 19 0 0 1-19-19zM913.76 848.57a19 19 0 0 1 19-19h422a19 19 0 0 1 19 19V997.1a19 19 0 0 1-19 19h-422a19 19 0 0 1-19-19zM206.02 848.57a19 19 0 0 1 19-19h422a19 19 0 0 1 19 19V997.1a19 19 0 0 1-19 19h-422a19 19 0 0 1-19-19z" stroke="#ced4db" stroke-width="3" fill="#ced4db"/><g filter="url(#d)"><path d="M935.64 863.8a.5.5 0 0 1 .5-.5h168.64a.5.5 0 0 1 .5.5v93.4a.5.5 0 0 1-.5.5H936.15a.5.5 0 0 1-.5-.5z" fill="#fff" fill-opacity="0"/><path d="M936.14 863.3a.5.5 0 0 0-.5.5v93.4a.5.5 0 0 0 .5.5h168.64a.5.5 0 0 0 .5-.5v-93.4a.5.5 0 0 0-.5-.5z" stroke="#315796" stroke-width="3" fill="#315796"/><use xlink:href="#e" transform="matrix(1,0,0,1,945.4836325745723,874.3330261138427) translate(17.36979166666667 43.166666666666664)"/></g><g filter="url(#d)"><path d="M1175.64 863.8a.5.5 0 0 1 .5-.5h168.64a.5.5 0 0 1 .5.5v93.4a.5.5 0 0 1-.5.5h-168.63a.5.5 0 0 1-.5-.5z" fill="#fff" fill-opacity="0"/><path d="M1176.14 863.3a.5.5 0 0 0-.5.5v93.4a.5.5 0 0 0 .5.5h168.64a.5.5 0 0 0 .5-.5v-93.4a.5.5 0 0 0-.5-.5z" stroke="#315796" stroke-width="3" fill="#315796"/><use xlink:href="#f" transform="matrix(1,0,0,1,1185.4836325745725,874.3330261138427) translate(16.796875000000007 43.166666666666664)"/></g><g filter="url(#d)"><path d="M227.38 863.8a.5.5 0 0 1 .5-.5h168.64a.5.5 0 0 1 .5.5v93.4a.5.5 0 0 1-.5.5H227.88a.5.5 0 0 1-.5-.5z" fill="#fff" fill-opacity="0"/><path d="M227.88 863.3a.5.5 0 0 0-.5.5v93.4a.5.5 0 0 0 .5.5h168.64a.5.5 0 0 0 .5-.5v-93.4a.5.5 0 0 0-.5-.5z" stroke="#315796" stroke-width="3" fill="#315796"/><use xlink:href="#g" transform="matrix(1,0,0,1,237.22101123682074,874.3330261138427) translate(17.36979166666667 43.166666666666664)"/></g><g filter="url(#d)"><path d="M467.38 863.8a.5.5 0 0 1 .5-.5h168.64a.5.5 0 0 1 .5.5v93.4a.5.5 0 0 1-.5.5H467.88a.5.5 0 0 1-.5-.5z" fill="#fff" fill-opacity="0"/><path d="M467.88 863.3a.5.5 0 0 0-.5.5v93.4a.5.5 0 0 0 .5.5h168.64a.5.5 0 0 0 .5-.5v-93.4a.5.5 0 0 0-.5-.5z" stroke="#315796" stroke-width="3" fill="#315796"/><use xlink:href="#h" transform="matrix(1,0,0,1,477.22101123682074,874.3330261138427) translate(16.796875000000007 43.166666666666664)"/></g><g filter="url(#d)"><path d="M574.12 601.07a.5.5 0 0 1 .5-.5h168.64a.5.5 0 0 1 .5.5v93.4a.5.5 0 0 1-.5.5H574.62a.5.5 0 0 1-.5-.5z" fill="#fff" fill-opacity="0"/><path d="M574.62 600.57a.5.5 0 0 0-.5.5v93.4a.5.5 0 0 0 .5.5h168.64a.5.5 0 0 0 .5-.5v-93.4a.5.5 0 0 0-.5-.5z" stroke="#315796" stroke-width="3" fill="#315796"/><use xlink:href="#i" transform="matrix(1,0,0,1,583.9583054308096,611.6118128789795) translate(15.052083333333329 43.166666666666664)"/></g><g filter="url(#d)"><path d="M854.12 601.07a.5.5 0 0 1 .5-.5h168.64a.5.5 0 0 1 .5.5v93.4a.5.5 0 0 1-.5.5H854.62a.5.5 0 0 1-.5-.5z" fill="#fff" fill-opacity="0"/><path d="M854.62 600.57a.5.5 0 0 0-.5.5v93.4a.5.5 0 0 0 .5.5h168.64a.5.5 0 0 0 .5-.5v-93.4a.5.5 0 0 0-.5-.5z" stroke="#315796" stroke-width="3" fill="#315796"/><use xlink:href="#j" transform="matrix(1,0,0,1,863.9583054308096,611.6118128789795) translate(15.052083333333329 43.166666666666664)"/></g><path d="M314.25 862.6l4.08-2.02m5.42-2.73l8.15-4.07m5.42-2.72l8.14-4.08m5.43-2.72l8.14-4.08m5.42-2.72l8.15-4.08m5.43-2.72l8.14-4.08m5.43-2.72l8.14-4.08m5.43-2.7l8.14-4.1m5.44-2.7l8.14-4.1m5.43-2.7l8.15-4.1m5.43-2.7l8.14-4.1m5.43-2.7l8.14-4.1m5.42-2.7l8.14-4.1m5.43-2.7l8.13-4.08m5.43-2.72l8.14-4.08m5.43-2.72l8.14-4.08m5.43-2.72l8.14-4.08m5.43-2.72L549 745m5.44-2.72l8.14-4.07m5.43-2.7l8.15-4.1m5.43-2.7l8.14-4.1m5.43-2.7l8.14-4.1m5.42-2.7l8.14-4.1m5.43-2.7l8.13-4.1m5.43-2.7l8.14-4.1m5.43-2.7l4.07-2.04" stroke="#e08fff" stroke-width="3" fill="none"/><path d="M314.63 863.3h-5.06l4.05-2.04zM654.13 694l-1-2.02h5.06z" stroke="#e08fff" stroke-width=".05" fill="#e08fff"/><path d="M314.36 862.9l4.35-1.2m5.82-1.6l8.7-2.36m5.8-1.6l8.7-2.37m5.8-1.6l8.72-2.37m5.8-1.58l8.7-2.38m5.8-1.6l8.72-2.37m5.8-1.58l8.7-2.4m5.8-1.58l8.7-2.38m5.82-1.58l8.7-2.38m5.8-1.6l8.7-2.37m5.82-1.57l8.7-2.38m5.8-1.6l8.7-2.37m5.8-1.58l8.72-2.38m5.8-1.6l8.7-2.37m5.8-1.58l8.72-2.38m5.8-1.6l8.7-2.38m5.8-1.6l8.7-2.37m5.82-1.58l8.7-2.38m5.8-1.6l8.7-2.38m5.8-1.58l8.72-2.38m5.8-1.6l8.7-2.37m5.8-1.6l8.72-2.37m5.8-1.6l8.7-2.37m5.8-1.58l8.7-2.38m5.82-1.6l8.7-2.37m5.8-1.58l8.7-2.38m5.8-1.6l8.72-2.37m5.8-1.6l8.7-2.36m5.8-1.6l8.72-2.37m5.8-1.58l8.7-2.4m5.8-1.58l8.7-2.38m5.82-1.6l8.7-2.37m5.8-1.58l8.7-2.4m5.8-1.58l8.72-2.38m5.8-1.58l8.7-2.38m5.8-1.6l8.72-2.37m5.8-1.57l8.7-2.38m5.8-1.6l8.7-2.37m5.82-1.58l8.7-2.38m5.8-1.6l8.7-2.37m5.82-1.58l8.7-2.38m5.8-1.6l8.7-2.38m5.8-1.6l8.72-2.36m5.8-1.6l4.35-1.18" stroke="#e08fff" stroke-width="3" fill="none"/><path d="M314.5 863.3h-4.7l-.18-.67 4.38-1.2zM942.97 692.64l-4.38 1.2-.5-1.86h4.7z" stroke="#e08fff" stroke-width=".05" fill="#e08fff"/><path d="M551.2 862l2.4-3.9m3.15-5.18l4.75-7.8m3.16-5.18l4.75-7.8m3.17-5.18l4.75-7.8m3.16-5.18l4.75-7.8m3.17-5.18l4.74-7.8m3.17-5.18l4.75-7.8m3.17-5.18l4.75-7.8m3.16-5.18l4.75-7.8m3.16-5.18l4.75-7.8m3.15-5.18l4.75-7.8m3.16-5.18l4.75-7.8m3.17-5.18l4.75-7.8m3.16-5.18l2.38-3.9" stroke="#e08fff" stroke-width="3" fill="none"/><path d="M552.5 862.75l-.3.54h-3.52l1.27-2.1zM655.32 694.08l-2.56-1.56.32-.54h3.5z" stroke="#e08fff" stroke-width=".05" fill="#e08fff"/><path d="M551.8 862.68l4.15-1.82m5.52-2.43l8.28-3.64m5.52-2.44l8.28-3.65m5.53-2.42l8.28-3.64m5.52-2.43l8.28-3.64m5.52-2.43l8.3-3.64m5.5-2.44l8.3-3.65m5.5-2.42l8.3-3.64m5.5-2.43l8.3-3.64m5.52-2.43l8.28-3.64m5.52-2.44l8.28-3.65m5.52-2.42l8.3-3.64m5.5-2.43l8.3-3.64m5.5-2.43l8.3-3.64m5.52-2.44l8.28-3.65m5.52-2.42l8.28-3.64m5.52-2.43l8.28-3.64m5.53-2.43l8.28-3.64m5.53-2.44l8.28-3.65m5.53-2.42l8.3-3.64m5.5-2.43l8.3-3.64m5.5-2.43l8.3-3.64m5.5-2.44l8.3-3.64m5.52-2.44l8.28-3.64m5.52-2.43l8.28-3.63m5.53-2.44l8.28-3.64m5.52-2.44l8.28-3.64m5.52-2.43l8.28-3.66m5.53-2.43l4.14-1.8" stroke="#e08fff" stroke-width="3" fill="none"/><path d="M552.1 863.3h-4.95l-.07-.18 4.16-1.83zM943.03 692.15l-4.15 1.83-.88-2h4.96z" stroke="#e08fff" stroke-width=".05" fill="#e08fff"/><path d="M1022.08 862.65l-4-1.9m-5.35-2.5l-8.02-3.8m-5.33-2.5l-8.02-3.8m-5.35-2.5l-8-3.78m-5.36-2.52l-8.02-3.78m-5.34-2.52l-8.02-3.78m-5.35-2.52l-8-3.77m-5.35-2.52l-8.02-3.78m-5.34-2.52l-8.03-3.78m-5.35-2.52l-8-3.78m-5.36-2.52l-8.02-3.77m-5.34-2.53l-8.02-3.78m-5.35-2.53l-8-3.78m-5.36-2.53l-8.02-3.77m-5.34-2.52l-8-3.78m-5.36-2.52l-8-3.78m-5.36-2.52l-8.02-3.78m-5.34-2.52l-8.02-3.77m-5.35-2.5l-8-3.8m-5.36-2.5l-8.03-3.8m-5.34-2.5l-8.02-3.78m-5.33-2.52l-8.02-3.78M732.1 726l-8.02-3.78m-5.34-2.52l-8.02-3.78m-5.34-2.52l-8.02-3.77M692 707.1l-8-3.77m-5.35-2.52l-8.02-3.77m-5.34-2.52l-4.02-1.88" stroke="#e08fff" stroke-width="3" fill="none"/><path d="M1026.8 863.2l-.04.1h-5.02l.95-2.03zM660.67 694l-4.1-1.94.03-.08h5.02z" stroke="#e08fff" stroke-width=".05" fill="#e08fff"/><path d="M1022.78 861.94l-1.9-3.9m-2.54-5.18l-3.8-7.78m-2.54-5.2l-3.8-7.77m-2.54-5.18l-3.8-7.78m-2.54-5.2l-3.8-7.77m-2.54-5.2l-3.8-7.77m-2.55-5.2l-3.8-7.77m-2.54-5.2l-3.8-7.77m-2.55-5.2l-3.8-7.77m-2.54-5.2l-3.8-7.78m-2.53-5.2l-3.8-7.77m-2.55-5.2l-3.8-7.77m-2.54-5.2l-3.8-7.77m-2.54-5.18l-1.9-3.9" stroke="#e08fff" stroke-width="3" fill="none"/><path d="M1025.1 863.3h-3.33l-.35-.74 2.7-1.3zM941.7 692.7l-2.7 1.32-1-2.04h3.35z" stroke="#e08fff" stroke-width=".05" fill="#e08fff"/><path d="M1260.33 862.88l-4.27-1.22m-5.7-1.63l-8.57-2.43m-5.7-1.63l-8.57-2.43m-5.7-1.62l-8.56-2.44m-5.7-1.62l-8.56-2.44m-5.7-1.62l-8.55-2.44m-5.7-1.62l-8.56-2.44m-5.72-1.62l-8.55-2.44m-5.7-1.62l-8.57-2.44m-5.7-1.62l-8.56-2.43m-5.7-1.63l-8.56-2.43m-5.7-1.63l-8.56-2.43m-5.7-1.62l-8.56-2.43m-5.7-1.63l-8.56-2.43m-5.7-1.63l-8.56-2.44m-5.7-1.62l-8.56-2.43m-5.7-1.62l-8.56-2.44m-5.7-1.6l-8.56-2.45m-5.7-1.62l-8.57-2.43m-5.7-1.63l-8.56-2.43m-5.7-1.63l-8.57-2.42m-5.7-1.63l-8.56-2.43m-5.7-1.63l-8.56-2.44m-5.7-1.63l-8.55-2.43m-5.7-1.62l-8.56-2.44m-5.72-1.62l-8.56-2.44m-5.7-1.62l-8.56-2.44m-5.7-1.62l-8.56-2.44m-5.7-1.62l-8.56-2.44m-5.7-1.62l-8.56-2.43m-5.7-1.63l-8.56-2.43m-5.7-1.64l-8.56-2.43m-5.7-1.63l-8.56-2.43m-5.7-1.63l-8.56-2.43m-5.7-1.62l-8.57-2.43m-5.7-1.62l-8.56-2.44m-5.7-1.63l-8.55-2.44m-5.7-1.62l-8.56-2.43m-5.7-1.62l-8.57-2.44m-5.7-1.6l-8.56-2.45m-5.7-1.62l-8.56-2.44m-5.7-1.63l-8.55-2.43m-5.7-1.63l-4.3-1.2" stroke="#e08fff" stroke-width="3" fill="none"/><path d="M1265.07 862.66l-.17.63h-4.72l.53-1.88zM661 693.85l-4.38-1.24.18-.62h4.72z" stroke="#e08fff" stroke-width=".05" fill="#e08fff"/><path d="M1260.45 862.58l-4-2.12m-5.32-2.83l-7.98-4.25m-5.33-2.83l-7.98-4.25m-5.33-2.83l-7.97-4.25m-5.33-2.83l-7.98-4.26m-5.33-2.83l-8-4.24m-5.32-2.83l-7.98-4.25m-5.33-2.83l-7.98-4.24m-5.34-2.83l-7.98-4.24m-5.33-2.83l-7.98-4.25m-5.33-2.83l-7.98-4.25m-5.33-2.83l-7.98-4.25m-5.33-2.84l-8-4.25m-5.3-2.82l-8-4.25m-5.32-2.83l-7.98-4.25m-5.33-2.83l-8-4.25m-5.32-2.83l-8-4.24m-5.3-2.84l-8-4.24m-5.32-2.83l-8-4.26m-5.3-2.83l-8-4.24m-5.32-2.83l-8-4.25m-5.3-2.83l-8-4.25m-5.32-2.83l-8-4.25m-5.3-2.83l-8-4.26M945 694.8l-4-2.1" stroke="#e08fff" stroke-width="3" fill="none"/><path d="M1264.97 863.3h-4.94l1.1-2.06zM940.34 694.03l-3.85-2.05h4.92z" stroke="#e08fff" stroke-width=".05" fill="#e08fff"/><path d="M617.45 668.52a.5.5 0 0 1 .5-.5h81.98a.5.5 0 0 1 .5.5v22.96a.5.5 0 0 1-.5.5h-81.98a.5.5 0 0 1-.5-.5z" fill="#fff" fill-opacity="0"/><path d="M617.95 669a.5.5 0 0 0-.5.5v21a.5.5 0 0 0 .5.5h81.98a.5.5 0 0 0 .5-.5v-21a.5.5 0 0 0-.5-.5z" stroke="#5e5e5e" fill="#fff"/><use xlink:href="#k" transform="matrix(1,0,0,1,648.8980120082457,668.015625) translate(-29.096354166666664 16.444444444444443)"/><path d="M172.77 492.24h1230.28v60H172.77z" fill="none"/><use xlink:href="#l" transform="matrix(1,0,0,1,172.76868808587858,492.239996178512) translate(586.6913580246913 35.77777777777778)"/><path d="M708.1 557.4h161.6v36H708.1z" fill="none"/><use xlink:href="#m" transform="matrix(1,0,0,1,708.1008124530115,557.4004517585302) translate(34.73456790123456 22.944444444444443)"/><path d="M355.2 980.1h161.63v36H355.2z" fill="none"/><use xlink:href="#n" transform="matrix(1,0,0,1,355.2131391345251,980.0974341564606) translate(34.73456790123456 22.944444444444443)"/><path d="M1062.95 980.1h161.6v36h-161.6z" fill="none"/><use xlink:href="#o" transform="matrix(1,0,0,1,1062.9512203462155,980.0974341564606) translate(34.73456790123456 22.944444444444443)"/><path d="M187.86 513.75H395.3v38.3H187.85z" fill="none"/><use xlink:href="#p" transform="matrix(1,0,0,1,187.85617491543883,513.748500038067) translate(52.80246913580247 25.27777777777778)"/><path d="M195.95 566.4h-4.38v-3h4.38zm14.6 0h-8.76v-3h8.75zm14.6 0h-8.76v-3h8.75zm14.6 0H231v-3h8.75zm116.8 0h-8.77v-3h8.76zm14.6 0h-8.77v-3h8.76zm14.6 0h-8.77v-3h8.76zm10.2 0h-4.37v-3h4.38z" stroke="#e08fff" stroke-width=".05" fill="#e08fff"/><path d="M191.6 566.4h-1.53v-3h1.54zM397.46 566.4h-1.54v-3h1.54z" stroke="#e08fff" stroke-width=".05" fill="#e08fff"/><use xlink:href="#q" transform="matrix(1,0,0,1,243.12383774597492,554.2422889514186) translate(0 14.222222222222223)"/><use xlink:href="#r" transform="matrix(1,0,0,1,243.12383774597492,554.2422889514186) translate(52.938271604938286 14.222222222222223)"/><path d="M1457.77 498.24a6 6 0 0 1 6-6h1218.27a6 6 0 0 1 6 6v535.23a6 6 0 0 1-6 6H1463.77a6 6 0 0 1-6-6z" stroke="#dbdbdb" stroke-width="3" fill="#f2f3f5"/><path d="M1836.2 562.18a19 19 0 0 1 19-19h456.83a19 19 0 0 1 19 19v147.6a19 19 0 0 1-19 19H1855.2a19 19 0 0 1-19-19zM2198.75 848.57a19 19 0 0 1 19-19h422a19 19 0 0 1 19 19V997.1a19 19 0 0 1-19 19h-422a19 19 0 0 1-19-19zM1491.02 848.57a19 19 0 0 1 19-19h422a19 19 0 0 1 19 19V997.1a19 19 0 0 1-19 19h-422a19 19 0 0 1-19-19z" stroke="#ced4db" stroke-width="3" fill="#ced4db"/><g filter="url(#d)"><path d="M2220.64 863.8a.5.5 0 0 1 .5-.5h168.64a.5.5 0 0 1 .5.5v93.4a.5.5 0 0 1-.5.5h-168.64a.5.5 0 0 1-.5-.5z" fill="#fff" fill-opacity="0"/><path d="M2221.14 863.3a.5.5 0 0 0-.5.5v93.4a.5.5 0 0 0 .5.5h168.64a.5.5 0 0 0 .5-.5v-93.4a.5.5 0 0 0-.5-.5z" stroke="#315796" stroke-width="3" fill="#315796"/><use xlink:href="#s" transform="matrix(1,0,0,1,2230.4802599595323,874.3330261138427) translate(17.36979166666667 43.166666666666664)"/></g><g filter="url(#d)"><path d="M2460.64 863.8a.5.5 0 0 1 .5-.5h168.64a.5.5 0 0 1 .5.5v93.4a.5.5 0 0 1-.5.5h-168.64a.5.5 0 0 1-.5-.5z" fill="#fff" fill-opacity="0"/><path d="M2461.14 863.3a.5.5 0 0 0-.5.5v93.4a.5.5 0 0 0 .5.5h168.64a.5.5 0 0 0 .5-.5v-93.4a.5.5 0 0 0-.5-.5z" stroke="#315796" stroke-width="3" fill="#315796"/><use xlink:href="#t" transform="matrix(1,0,0,1,2470.4802599595323,874.3330261138427) translate(16.796875000000007 43.166666666666664)"/></g><g filter="url(#d)"><path d="M1512.38 863.8a.5.5 0 0 1 .5-.5h168.64a.5.5 0 0 1 .5.5v93.4a.5.5 0 0 1-.5.5h-168.64a.5.5 0 0 1-.5-.5z" fill="#fff" fill-opacity="0"/><path d="M1512.88 863.3a.5.5 0 0 0-.5.5v93.4a.5.5 0 0 0 .5.5h168.64a.5.5 0 0 0 .5-.5v-93.4a.5.5 0 0 0-.5-.5z" stroke="#315796" stroke-width="3" fill="#315796"/><use xlink:href="#u" transform="matrix(1,0,0,1,1522.2176386217811,874.3330261138427) translate(17.36979166666667 43.166666666666664)"/></g><g filter="url(#d)"><path d="M1752.38 863.8a.5.5 0 0 1 .5-.5h168.64a.5.5 0 0 1 .5.5v93.4a.5.5 0 0 1-.5.5h-168.64a.5.5 0 0 1-.5-.5z" fill="#fff" fill-opacity="0"/><path d="M1752.88 863.3a.5.5 0 0 0-.5.5v93.4a.5.5 0 0 0 .5.5h168.64a.5.5 0 0 0 .5-.5v-93.4a.5.5 0 0 0-.5-.5z" stroke="#315796" stroke-width="3" fill="#315796"/><use xlink:href="#v" transform="matrix(1,0,0,1,1762.217638621781,874.3330261138427) translate(16.796875000000007 43.166666666666664)"/></g><g filter="url(#d)"><path d="M1859.12 601.07a.5.5 0 0 1 .5-.5h168.63a.5.5 0 0 1 .5.5v93.4a.5.5 0 0 1-.5.5h-168.63a.5.5 0 0 1-.5-.5z" fill="#fff" fill-opacity="0"/><path d="M1859.62 600.57a.5.5 0 0 0-.5.5v93.4a.5.5 0 0 0 .5.5h168.63a.5.5 0 0 0 .5-.5v-93.4a.5.5 0 0 0-.5-.5z" stroke="#315796" stroke-width="3" fill="#315796"/><use xlink:href="#w" transform="matrix(1,0,0,1,1868.95493281577,611.6118128789795) translate(15.052083333333329 43.166666666666664)"/></g><g filter="url(#d)"><path d="M2139.12 601.07a.5.5 0 0 1 .5-.5h168.63a.5.5 0 0 1 .5.5v93.4a.5.5 0 0 1-.5.5h-168.63a.5.5 0 0 1-.5-.5z" fill="#fff" fill-opacity="0"/><path d="M2139.62 600.57a.5.5 0 0 0-.5.5v93.4a.5.5 0 0 0 .5.5h168.63a.5.5 0 0 0 .5-.5v-93.4a.5.5 0 0 0-.5-.5z" stroke="#315796" stroke-width="3" fill="#315796"/><use xlink:href="#x" transform="matrix(1,0,0,1,2148.95493281577,611.6118128789795) translate(15.052083333333329 43.166666666666664)"/></g><path d="M1457.77 492.24h1230.27v60H1457.77z" fill="none"/><use xlink:href="#y" transform="matrix(1,0,0,1,1457.765315470839,492.2399961785118) translate(586.6913580246913 35.77777777777778)"/><path d="M1993.1 557.4h161.6v36h-161.6z" fill="none"/><use xlink:href="#z" transform="matrix(1,0,0,1,1993.0974398379717,557.4004517585302) translate(34.73456790123456 22.944444444444443)"/><path d="M1640.2 980.1h161.62v36h-161.6z" fill="none"/><use xlink:href="#A" transform="matrix(1,0,0,1,1640.2097665194856,980.0974341564606) translate(34.73456790123456 22.944444444444443)"/><path d="M2347.95 980.1h161.6v36h-161.6z" fill="none"/><use xlink:href="#B" transform="matrix(1,0,0,1,2347.9478477311754,980.0974341564606) translate(34.73456790123456 22.944444444444443)"/><path d="M1018.94 860.3v-4.47m0-5.94v-8.93m0-5.94v-8.9m0-5.96v-8.9m0-5.96v-8.9m0-5.94V786l.07-.94.23-.9.36-.88.5-.8.6-.72.7-.6.82-.5.87-.37.9-.23.94-.07h4.5m6 0h9m6 0h9m6 0h9m6 0h9m6 0h9m6 0h9m6 0h9m6 0h9m6 0h9m6 0h9m6 0h9m6 0h9m6 0h9m6 0h9m6 0h9m6 0h9m6 0h9m6 0h9m6 0h9m6 0h9m6 0h9m6.02 0h9m6 0h9m6 0h9m6 0h9m6 0h9m6 0h9m6 0h9m6 0h9m6 0h9m6 0h9m6 0h9m6 0h9m6 0h9m6 0h9m6 0h9m6 0h9m6 0h9m6 0h9m6 0h9m6 0h9m6 0h9m6 0h9m6 0h9m6 0h9m6 0h9m6 0h9m6 0h9m6 0h9m6 0h9.02m6 0h9m6 0h9m6 0h9m6 0h9m6 0h9m6 0h9m6 0h9m6 0h9m6 0h9m6 0h9m6 0h9m6 0h9m6 0h9m6 0h9m6 0h9m6 0h9m6 0h9m6 0h9m6 0h9m6 0h9m6 0h9m6 0h9m6 0h9m6 0h9m6 0h9m6 0h9m6 0h9m6 0h9m6.02 0h9m6 0h9m6 0h9m6 0h9m6 0h9m6 0h9m6 0h4.5l.94.07.9.22.88.35.8.5.72.6.6.72.5.8.37.88.23.9.07.95v4.55m0 6.06v9.1m0 6.07v9.1m0 6.05v9.1m0 6.06v9.1m0 6.06v4.55" stroke="#e08fff" stroke-width="3" fill="none"/><path d="M1020.44 861.8h-3v-1.55h3zM2307.5 863.3h-3v-1.55h3z" stroke="#e08fff" stroke-width=".05" fill="#e08fff"/><path d="M1264.5 861.8v-4.6m0-6.1v-9.15m0-6.1v-9.17m0-6.1V816l.07-.94.22-.9.35-.88.5-.8.6-.72.7-.6.82-.5.87-.37.9-.23.95-.07h4.5m5.98 0h9m5.98 0h9m6 0h8.97m6 0h9m5.98 0h9m6 0h8.98m6 0h9m5.98 0h9m6 0h8.97m6 0h9m5.98 0h9m6 0h8.98m6 0h9m5.98 0h9m5.98 0h9m6 0h8.98m6 0h8.98m6 0h8.98m6 0h9m5.98 0h9m5.98 0h9m6 0h8.98m6 0h8.98m6 0h8.98m6 0h9m5.98 0h9m5.98 0h9m6 0h8.98m6 0h8.98m6 0h8.98m6 0h8.98m6 0h9m5.98 0h9m5.98 0h9m6 0h8.98m6 0h8.98m6 0h8.98m6 0h9m5.98 0h9m5.98 0h9m6 0h8.98m6 0h8.98m6 0h8.98m6 0h8.98m6 0h9m5.98 0h9m5.98 0h9m6 0h8.98m6 0h8.98m6 0h8.98m6 0h9m5.98 0h9m5.98 0h9m6 0h8.98m6 0h8.98m6 0h8.98m6 0h9m5.98 0h9m5.98 0h9m6 0h8.98m6 0h8.98m6 0h8.98m6 0h9m5.98 0h9m5.98 0h9m6 0h8.97m6 0h9m5.98 0h9m5.98 0h9m6 0h8.98m6 0h9m5.98 0h9m6 0h8.98m6 0h8.98m6 0h8.98m6 0h9m5.98 0h9m5.98 0h9m6 0h8.98m6 0h8.98m6 0h8.98m6 0h9m5.98 0h9m5.98 0h9m6 0h4.48l.94.07.9.22.88.35.8.5.72.6.6.72.5.8.37.88.22.9.06.95v4.58m0 6.1v9.16m0 6.1v9.16m0 6.1v4.6" stroke="#e08fff" stroke-width="3" fill="none"/><path d="M1266 863.3h-3v-1.55h3zM2551.56 863.3h-3v-1.55h3z" stroke="#e08fff" stroke-width=".05" fill="#e08fff"/><path d="M900 668.52a.5.5 0 0 1 .5-.5h81.98a.5.5 0 0 1 .5.5v22.96a.5.5 0 0 1-.5.5H900.5a.5.5 0 0 1-.5-.5z" fill="#fff" fill-opacity="0"/><path d="M900.5 669a.5.5 0 0 0-.5.5v21a.5.5 0 0 0 .5.5h81.98a.5.5 0 0 0 .5-.5v-21a.5.5 0 0 0-.5-.5z" stroke="#5e5e5e" fill="#fff"/><use xlink:href="#k" transform="matrix(1,0,0,1,931.4492312282902,668.015625) translate(-29.096354166666664 16.444444444444443)"/><path d="M272.23 863.8a.5.5 0 0 1 .5-.5h81.98a.5.5 0 0 1 .5.5v22.96a.5.5 0 0 1-.5.5h-81.97a.5.5 0 0 1-.5-.5z" fill="#fff" fill-opacity="0"/><path d="M272.73 864.25a.5.5 0 0 0-.5.5v21.04a.5.5 0 0 0 .5.5h81.98a.5.5 0 0 0 .5-.5v-21.04a.5.5 0 0 0-.5-.5z" stroke="#5e5e5e" fill="#fff"/><use xlink:href="#k" transform="matrix(1,0,0,1,303.68286844120536,863.2861442016746) translate(-29.096354166666664 16.444444444444443)"/><path d="M510.7 863.8a.5.5 0 0 1 .5-.5h82a.5.5 0 0 1 .5.5v22.96a.5.5 0 0 1-.5.5h-82a.5.5 0 0 1-.5-.5z" fill="#fff" fill-opacity="0"/><path d="M511.2 864.25a.5.5 0 0 0-.5.5v21.04a.5.5 0 0 0 .5.5h82a.5.5 0 0 0 .5-.5v-21.04a.5.5 0 0 0-.5-.5z" stroke="#5e5e5e" fill="#fff"/><use xlink:href="#k" transform="matrix(1,0,0,1,542.1607178142568,863.2861442016746) translate(-29.096354166666664 16.444444444444443)"/><path d="M982.98 863.8a.5.5 0 0 1 .5-.5h81.98a.5.5 0 0 1 .5.5v22.96a.5.5 0 0 1-.5.5h-81.98a.5.5 0 0 1-.5-.5z" fill="#fff" fill-opacity="0"/><path d="M983.48 864.25a.5.5 0 0 0-.5.5v21.04a.5.5 0 0 0 .5.5h81.98a.5.5 0 0 0 .5-.5v-21.04a.5.5 0 0 0-.5-.5z" stroke="#5e5e5e" fill="#fff"/><use xlink:href="#k" transform="matrix(1,0,0,1,1014.4287331498998,863.2861442016746) translate(-29.096354166666664 16.444444444444443)"/><path d="M1221.46 863.8a.5.5 0 0 1 .5-.5h81.98a.5.5 0 0 1 .5.5v22.96a.5.5 0 0 1-.5.5h-81.98a.5.5 0 0 1-.5-.5z" fill="#fff" fill-opacity="0"/><path d="M1221.96 864.25a.5.5 0 0 0-.5.5v21.04a.5.5 0 0 0 .5.5h81.98a.5.5 0 0 0 .5-.5v-21.04a.5.5 0 0 0-.5-.5z" stroke="#5e5e5e" fill="#fff"/><use xlink:href="#k" transform="matrix(1,0,0,1,1252.906582522951,863.2861442016746) translate(-29.096354166666664 16.444444444444443)"/><path d="M1599.82 862.6l4.08-2.02m5.42-2.73l8.14-4.07m5.43-2.72l8.13-4.08m5.43-2.72l8.14-4.08m5.43-2.72l8.14-4.08m5.43-2.72l8.14-4.08m5.43-2.72l8.14-4.08m5.44-2.7l8.14-4.1m5.43-2.7l8.15-4.1m5.43-2.7l8.14-4.1m5.43-2.7l8.14-4.1m5.42-2.7l8.14-4.1m5.43-2.7l8.13-4.1m5.43-2.7l8.14-4.08m5.43-2.72l8.14-4.08m5.43-2.72l8.14-4.08m5.43-2.72l8.14-4.08m5.44-2.72l8.14-4.08m5.43-2.72l8.15-4.07m5.43-2.7l8.14-4.1m5.43-2.7l8.14-4.1m5.42-2.7l8.14-4.1m5.43-2.7l8.13-4.1m5.43-2.7l8.14-4.1m5.43-2.7l8.14-4.1m5.42-2.7l4.07-2.04" stroke="#e08fff" stroke-width="3" fill="none"/><path d="M1600.2 863.3h-5.07l4.06-2.04zM1939.7 694l-1-2.02h5.06z" stroke="#e08fff" stroke-width=".05" fill="#e08fff"/><path d="M1599.93 862.9l4.35-1.2m5.8-1.6l8.7-2.36m5.8-1.6l8.72-2.37m5.8-1.6l8.7-2.37m5.8-1.58l8.72-2.38m5.8-1.6l8.7-2.37m5.8-1.58l8.7-2.4m5.82-1.58l8.7-2.38m5.8-1.58l8.7-2.38m5.82-1.6l8.7-2.37m5.8-1.57l8.7-2.38m5.8-1.6l8.72-2.37m5.8-1.58l8.7-2.38m5.8-1.6l8.7-2.37m5.82-1.58l8.7-2.38m5.8-1.6l8.7-2.38m5.82-1.6l8.7-2.37m5.8-1.58l8.7-2.38m5.8-1.6l8.72-2.38m5.8-1.58l8.7-2.38m5.8-1.6l8.72-2.37m5.8-1.6l8.7-2.37m5.8-1.6l8.7-2.37m5.82-1.58l8.7-2.38m5.8-1.6l8.7-2.37m5.8-1.58l8.72-2.38m5.8-1.6l8.7-2.37m5.8-1.6l8.72-2.36m5.8-1.6l8.7-2.37m5.8-1.58l8.7-2.4m5.82-1.58l8.7-2.38m5.8-1.6l8.7-2.37m5.82-1.58l8.7-2.4m5.8-1.58l8.7-2.38m5.8-1.58l8.72-2.38m5.8-1.6l8.7-2.37m5.8-1.57l8.7-2.38m5.82-1.6l8.7-2.37m5.8-1.58l8.7-2.38m5.82-1.6l8.7-2.37m5.8-1.58l8.7-2.38m5.8-1.6l8.72-2.38m5.8-1.6l8.7-2.36m5.8-1.6l4.36-1.18" stroke="#e08fff" stroke-width="3" fill="none"/><path d="M1600.08 863.3h-4.7l-.2-.67 4.4-1.2zM2228.54 692.64l-4.38 1.2-.5-1.86h4.7z" stroke="#e08fff" stroke-width=".05" fill="#e08fff"/><path d="M1836.78 862l2.38-3.9m3.16-5.18l4.75-7.8m3.16-5.18l4.75-7.8m3.16-5.18l4.75-7.8m3.15-5.18l4.75-7.8m3.16-5.18l4.75-7.8m3.18-5.18l4.74-7.8m3.17-5.18l4.73-7.8m3.17-5.18l4.74-7.8m3.17-5.18l4.76-7.8m3.16-5.18l4.75-7.8m3.16-5.18l4.75-7.8m3.16-5.18l4.75-7.8m3.15-5.18l2.38-3.9" stroke="#e08fff" stroke-width="3" fill="none"/><path d="M1838.08 862.75l-.32.54h-3.52l1.28-2.1zM1940.9 694.08l-2.57-1.56.32-.54h3.5z" stroke="#e08fff" stroke-width=".05" fill="#e08fff"/><path d="M1837.38 862.68l4.14-1.82m5.52-2.43l8.28-3.64m5.52-2.44l8.28-3.65m5.52-2.42l8.3-3.64m5.5-2.43l8.3-3.64m5.5-2.43l8.3-3.64m5.52-2.44l8.28-3.65m5.52-2.42l8.28-3.64m5.52-2.43l8.28-3.64m5.53-2.43l8.28-3.64m5.52-2.44l8.28-3.65m5.52-2.42l8.3-3.64m5.5-2.43l8.3-3.64m5.5-2.43l8.3-3.64m5.5-2.44l8.3-3.65m5.52-2.42l8.27-3.64m5.52-2.43l8.27-3.64m5.53-2.43l8.28-3.64m5.52-2.44l8.28-3.65m5.52-2.42l8.28-3.64m5.53-2.43l8.3-3.64m5.5-2.43l8.3-3.64m5.5-2.44l8.3-3.64m5.52-2.44l8.28-3.64m5.52-2.43l8.28-3.63m5.52-2.44l8.3-3.64m5.5-2.44l8.3-3.64m5.5-2.43l8.3-3.66m5.52-2.43l4.14-1.8" stroke="#e08fff" stroke-width="3" fill="none"/><path d="M1837.68 863.3h-4.96l-.07-.18 4.16-1.83zM2228.6 692.15l-4.15 1.83-.88-2h4.96z" stroke="#e08fff" stroke-width=".05" fill="#e08fff"/><path d="M2307.65 862.65l-4-1.9m-5.35-2.5l-8.02-3.8m-5.35-2.5l-8-3.8m-5.36-2.5l-8.02-3.78m-5.34-2.52l-8-3.78m-5.36-2.52l-8-3.78m-5.36-2.52l-8.02-3.77m-5.34-2.52l-8.02-3.78m-5.34-2.52l-8.02-3.78m-5.35-2.52l-8.03-3.78m-5.34-2.52l-8.02-3.77m-5.33-2.53l-8.02-3.78m-5.35-2.53l-8.02-3.78m-5.34-2.53l-8.02-3.77m-5.34-2.52l-8.02-3.78m-5.35-2.52l-8-3.78m-5.35-2.52l-8.02-3.78m-5.34-2.52l-8.03-3.77m-5.35-2.5l-8-3.8m-5.36-2.5l-8.02-3.8m-5.34-2.5l-8.02-3.78m-5.35-2.52l-8-3.78m-5.36-2.52l-8.02-3.78m-5.34-2.52l-8-3.78m-5.36-2.52l-8-3.77m-5.36-2.52l-8.02-3.77m-5.34-2.52l-8.02-3.77m-5.35-2.52l-4-1.88" stroke="#e08fff" stroke-width="3" fill="none"/><path d="M2312.36 863.2l-.03.1h-5.02l.96-2.03zM1946.24 694l-4.1-1.94.03-.08h5.02z" stroke="#e08fff" stroke-width=".05" fill="#e08fff"/><path d="M2308.35 861.94l-1.9-3.9m-2.54-5.18l-3.8-7.78m-2.53-5.2l-3.8-7.77m-2.54-5.18l-3.8-7.78m-2.54-5.2l-3.82-7.77m-2.54-5.2l-3.8-7.77m-2.54-5.2l-3.8-7.77m-2.54-5.2l-3.8-7.77m-2.54-5.2l-3.8-7.77m-2.54-5.2l-3.8-7.78m-2.54-5.2l-3.8-7.77m-2.55-5.2l-3.8-7.77m-2.55-5.2l-3.8-7.77m-2.54-5.18l-1.9-3.9" stroke="#e08fff" stroke-width="3" fill="none"/><path d="M2310.68 863.3h-3.34l-.35-.74 2.68-1.3zM2227.27 692.7l-2.7 1.32-1-2.04h3.35z" stroke="#e08fff" stroke-width=".05" fill="#e08fff"/><path d="M2545.9 862.88l-4.28-1.22m-5.7-1.63l-8.56-2.43m-5.7-1.63l-8.56-2.43m-5.7-1.62l-8.56-2.44m-5.7-1.62l-8.56-2.44m-5.7-1.62l-8.56-2.44m-5.7-1.62l-8.56-2.44m-5.7-1.62l-8.57-2.44m-5.7-1.62l-8.57-2.44m-5.7-1.62l-8.56-2.43m-5.7-1.63l-8.56-2.43m-5.7-1.63l-8.55-2.43m-5.7-1.62l-8.56-2.43m-5.72-1.63l-8.55-2.43m-5.7-1.63l-8.56-2.44m-5.7-1.62l-8.56-2.43m-5.7-1.62l-8.55-2.44m-5.7-1.6l-8.57-2.45m-5.7-1.62l-8.56-2.43m-5.7-1.63l-8.56-2.43m-5.7-1.63l-8.56-2.42m-5.7-1.63l-8.56-2.43m-5.7-1.63l-8.56-2.44m-5.7-1.63l-8.56-2.43m-5.7-1.62l-8.57-2.44m-5.7-1.62l-8.56-2.44m-5.7-1.62l-8.57-2.44m-5.7-1.62l-8.56-2.44m-5.7-1.62l-8.56-2.44m-5.7-1.62l-8.55-2.43m-5.7-1.63l-8.56-2.43m-5.72-1.64l-8.55-2.43m-5.7-1.63l-8.57-2.43m-5.7-1.63l-8.56-2.43m-5.7-1.62l-8.56-2.43m-5.7-1.62l-8.56-2.44m-5.7-1.63l-8.56-2.44m-5.7-1.62l-8.56-2.43m-5.7-1.62l-8.56-2.44m-5.7-1.6l-8.56-2.45m-5.7-1.62l-8.56-2.44m-5.7-1.63l-8.57-2.43m-5.7-1.63l-4.27-1.2" stroke="#e08fff" stroke-width="3" fill="none"/><path d="M2550.64 862.66l-.18.63h-4.72l.54-1.88zM1946.56 693.85l-4.37-1.24.17-.62h4.72z" stroke="#e08fff" stroke-width=".05" fill="#e08fff"/><path d="M2546.02 862.58l-4-2.12m-5.32-2.83l-7.98-4.25m-5.33-2.83l-8-4.25m-5.32-2.83l-7.98-4.25m-5.33-2.83l-7.98-4.26m-5.34-2.83l-7.98-4.24m-5.33-2.83l-7.98-4.25m-5.33-2.83l-8-4.24m-5.3-2.83l-8-4.24m-5.32-2.83l-7.98-4.25m-5.33-2.83l-7.97-4.25m-5.33-2.83l-8-4.25m-5.3-2.84l-8-4.25m-5.32-2.82l-8-4.25m-5.3-2.83l-8-4.25m-5.32-2.83l-8-4.25m-5.3-2.83l-8-4.24m-5.32-2.84l-8-4.24m-5.3-2.83l-8-4.26m-5.32-2.83l-8-4.24m-5.3-2.83l-8-4.25m-5.32-2.83l-8-4.25m-5.3-2.83l-8-4.25m-5.32-2.83l-8-4.26m-5.3-2.83l-4-2.1" stroke="#e08fff" stroke-width="3" fill="none"/><path d="M2550.54 863.3h-4.94l1.1-2.06zM2225.9 694.03l-3.85-2.05h4.94z" stroke="#e08fff" stroke-width=".05" fill="#e08fff"/><path d="M1903.02 668.52a.5.5 0 0 1 .5-.5h81.98a.5.5 0 0 1 .5.5v22.96a.5.5 0 0 1-.5.5h-81.98a.5.5 0 0 1-.5-.5z" fill="#fff" fill-opacity="0"/><path d="M1903.52 669a.5.5 0 0 0-.5.5v21a.5.5 0 0 0 .5.5h81.98a.5.5 0 0 0 .5-.5v-21a.5.5 0 0 0-.5-.5z" stroke="#5e5e5e" fill="#fff"/><use xlink:href="#k" transform="matrix(1,0,0,1,1934.4667785577876,668.015625) translate(-29.096354166666664 16.444444444444443)"/><path d="M2185.57 668.52a.5.5 0 0 1 .5-.5h81.98a.5.5 0 0 1 .5.5v22.96a.5.5 0 0 1-.5.5h-81.98a.5.5 0 0 1-.5-.5z" fill="#fff" fill-opacity="0"/><path d="M2186.07 669a.5.5 0 0 0-.5.5v21a.5.5 0 0 0 .5.5h81.98a.5.5 0 0 0 .5-.5v-21a.5.5 0 0 0-.5-.5z" stroke="#5e5e5e" fill="#fff"/><use xlink:href="#k" transform="matrix(1,0,0,1,2217.017997777832,668.015625) translate(-29.096354166666664 16.444444444444443)"/><path d="M1557.8 863.8a.5.5 0 0 1 .5-.5h81.98a.5.5 0 0 1 .5.5v22.96a.5.5 0 0 1-.5.5h-81.98a.5.5 0 0 1-.5-.5z" fill="#fff" fill-opacity="0"/><path d="M1558.3 864.25a.5.5 0 0 0-.5.5v21.04a.5.5 0 0 0 .5.5h81.98a.5.5 0 0 0 .5-.5v-21.04a.5.5 0 0 0-.5-.5z" stroke="#5e5e5e" fill="#fff"/><use xlink:href="#k" transform="matrix(1,0,0,1,1589.2516349907473,863.2861442016746) translate(-29.096354166666664 16.444444444444443)"/><path d="M1796.28 863.8a.5.5 0 0 1 .5-.5h81.98a.5.5 0 0 1 .5.5v22.96a.5.5 0 0 1-.5.5h-81.98a.5.5 0 0 1-.5-.5z" fill="#fff" fill-opacity="0"/><path d="M1796.78 864.25a.5.5 0 0 0-.5.5v21.04a.5.5 0 0 0 .5.5h81.98a.5.5 0 0 0 .5-.5v-21.04a.5.5 0 0 0-.5-.5z" stroke="#5e5e5e" fill="#fff"/><use xlink:href="#k" transform="matrix(1,0,0,1,1827.7294843637987,863.2861442016746) translate(-29.096354166666664 16.444444444444443)"/><path d="M2268.55 863.8a.5.5 0 0 1 .5-.5h81.98a.5.5 0 0 1 .5.5v22.96a.5.5 0 0 1-.5.5h-81.98a.5.5 0 0 1-.5-.5z" fill="#fff" fill-opacity="0"/><path d="M2269.05 864.25a.5.5 0 0 0-.5.5v21.04a.5.5 0 0 0 .5.5h81.98a.5.5 0 0 0 .5-.5v-21.04a.5.5 0 0 0-.5-.5z" stroke="#5e5e5e" fill="#fff"/><use xlink:href="#k" transform="matrix(1,0,0,1,2299.9974996994415,863.2861442016746) translate(-29.096354166666664 16.444444444444443)"/><path d="M2507.03 863.8a.5.5 0 0 1 .5-.5h81.98a.5.5 0 0 1 .5.5v22.96a.5.5 0 0 1-.5.5h-81.97a.5.5 0 0 1-.5-.5z" fill="#fff" fill-opacity="0"/><path d="M2507.53 864.25a.5.5 0 0 0-.5.5v21.04a.5.5 0 0 0 .5.5h81.98a.5.5 0 0 0 .5-.5v-21.04a.5.5 0 0 0-.5-.5z" stroke="#5e5e5e" fill="#fff"/><g><use xlink:href="#k" transform="matrix(1,0,0,1,2538.4753490724934,863.2861442016746) translate(-29.096354166666664 16.444444444444443)"/></g><defs><path fill="#333" d="M76-208v77h127v40H76V0H24v-248h183v40H76" id="C"/><path fill="#333" d="M199 0l-22-63H83L61 0H9l90-248h61L250 0h-51zm-33-102l-36-108c-10 38-24 72-36 108h72" id="D"/><path fill="#333" d="M182-130c37 4 62 22 62 59C244 23 116-4 24 0v-248c84 5 203-23 205 63 0 31-19 50-47 55zM76-148c40-3 101 13 101-30 0-44-60-28-101-31v61zm0 110c48-3 116 14 116-37 0-48-69-32-116-35v72" id="E"/><path fill="#333" d="M240-174c0 40-23 61-54 70L253 0h-59l-57-94H76V0H24v-248c93 4 217-23 216 74zM76-134c48-2 112 12 112-38 0-48-66-32-112-35v73" id="F"/><path fill="#333" d="M24 0v-248h52V0H24" id="G"/><path fill="#333" d="M67-125c0 53 21 87 73 88 37 1 54-22 65-47l45 17C233-25 199 4 140 4 58 4 20-42 15-125 8-235 124-281 211-232c18 10 29 29 36 50l-46 12c-8-25-30-41-62-41-52 0-71 34-72 86" id="H"/><g id="a"><use transform="matrix(0.06172839506172839,0,0,0.06172839506172839,0,0)" xlink:href="#C"/><use transform="matrix(0.06172839506172839,0,0,0.06172839506172839,12.28395061728395,0)" xlink:href="#D"/><use transform="matrix(0.06172839506172839,0,0,0.06172839506172839,28.2716049382716,0)" xlink:href="#E"/><use transform="matrix(0.06172839506172839,0,0,0.06172839506172839,44.25925925925925,0)" xlink:href="#F"/><use transform="matrix(0.06172839506172839,0,0,0.06172839506172839,60.246913580246904,0)" xlink:href="#G"/><use transform="matrix(0.06172839506172839,0,0,0.06172839506172839,66.41975308641975,0)" xlink:href="#H"/></g><path fill="#333" d="M67-125c0 54 23 88 75 88 28 0 53-7 68-21v-34h-60v-39h108v91C232-14 192 4 140 4 58 4 20-42 15-125 8-236 126-280 215-234c19 10 29 26 37 47l-47 15c-11-23-29-39-63-39-53 1-75 33-75 86" id="I"/><path fill="#333" d="M24-248c93 1 206-16 204 79-1 75-69 88-152 82V0H24v-248zm52 121c47 0 100 7 100-41 0-47-54-39-100-39v80" id="J"/><g id="b"><use transform="matrix(0.07407407407407407,0,0,0.07407407407407407,0,0)" xlink:href="#E"/><use transform="matrix(0.07407407407407407,0,0,0.07407407407407407,19.185185185185183,0)" xlink:href="#I"/><use transform="matrix(0.07407407407407407,0,0,0.07407407407407407,39.925925925925924,0)" xlink:href="#J"/></g><path fill="#333" d="M140-251c80 0 125 45 125 126S219 4 139 4C58 4 15-44 15-125s44-126 125-126zm-1 214c52 0 73-35 73-88 0-50-21-86-72-86-52 0-73 35-73 86s22 88 72 88" id="K"/><path fill="#333" d="M128 0H69L1-190h53L99-40l48-150h52" id="L"/><path fill="#333" d="M185-48c-13 30-37 53-82 52C43 2 14-33 14-96s30-98 90-98c62 0 83 45 84 108H66c0 31 8 55 39 56 18 0 30-7 34-22zm-45-69c5-46-57-63-70-21-2 6-4 13-4 21h74" id="M"/><path fill="#333" d="M135-150c-39-12-60 13-60 57V0H25l-1-190h47c2 13-1 29 3 40 6-28 27-53 61-41v41" id="N"/><path fill="#333" d="M25 0v-261h50V0H25" id="O"/><path fill="#333" d="M133-34C117-15 103 5 69 4 32 3 11-16 11-54c-1-60 55-63 116-61 1-26-3-47-28-47-18 1-26 9-28 27l-52-2c7-38 36-58 82-57s74 22 75 68l1 82c-1 14 12 18 25 15v27c-30 8-71 5-69-32zm-48 3c29 0 43-24 42-57-32 0-66-3-65 30 0 17 8 27 23 27" id="P"/><path fill="#333" d="M123 10C108 53 80 86 19 72V37c35 8 53-11 59-39L3-190h52l48 148c12-52 28-100 44-148h51" id="Q"/><g id="c"><use transform="matrix(0.07407407407407407,0,0,0.07407407407407407,0,0)" xlink:href="#K"/><use transform="matrix(0.07407407407407407,0,0,0.07407407407407407,20.74074074074074,0)" xlink:href="#L"/><use transform="matrix(0.07407407407407407,0,0,0.07407407407407407,35.55555555555556,0)" xlink:href="#M"/><use transform="matrix(0.07407407407407407,0,0,0.07407407407407407,50.37037037037037,0)" xlink:href="#N"/><use transform="matrix(0.07407407407407407,0,0,0.07407407407407407,60.74074074074074,0)" xlink:href="#O"/><use transform="matrix(0.07407407407407407,0,0,0.07407407407407407,68.14814814814814,0)" xlink:href="#P"/><use transform="matrix(0.07407407407407407,0,0,0.07407407407407407,82.96296296296295,0)" xlink:href="#Q"/></g><path fill="#fff" d="M483-1012c112 0 179 37 238 92v-517h254V0H818c-73 2-64-82-83-135C661-54 570 15 422 15 157 15 63-214 63-494c0-232 92-397 247-478 52-26 110-40 173-40zM325-494c0 166 29 308 186 308 106 0 161-51 210-111v-438c-43-55-93-85-178-85-170 0-218 146-218 326" id="R"/><path fill="#fff" d="M836-149C753-51 641 15 467 15 259 15 147-118 88-282c-42-119-44-295-4-419 59-179 186-308 419-308 153 0 247 58 325 142-30 37-55 81-89 113-66 29-96-36-151-51-19-5-41-11-69-11-164 0-199 147-204 317-6 202 85 372 277 308 37-12 60-40 86-61 24-21 64-16 84 9" id="S"/><path fill="#fff" d="M236-180h257c2-279-3-565 3-840L323-871c-27 30-91 18-110-9l-76-104 399-346h198v1150h227V0H236v-180" id="T"/><path fill="#fff" d="M61-690h505v212H61v-212" id="U"/><path fill="#fff" d="M379-1437V0H125v-1437h254" id="V"/><path fill="#fff" d="M960-149C871-45 736 15 551 15 231 15 63-191 63-518c0-229 113-378 277-452 59-26 125-39 199-39 278 0 430 170 430 452 0 55-4 97-59 97H316c14 166 83 276 257 279 98 1 159-38 221-71 33-18 71-20 93 9zM741-612c-4-130-65-216-197-216-140 0-203 89-223 216h420" id="W"/><path fill="#fff" d="M534-1012c240 0 371 147 371 387V0c-80-7-186 24-201-53l-22-66C598-47 516 18 362 15 183 12 73-75 73-255c0-177 142-239 303-283 75-20 169-31 281-34 9-142-26-239-155-239-97 0-149 37-209 70-49 27-108 2-128-33l-46-80c103-96 231-158 415-158zM316-268c-2 80 48 110 125 110 107 0 156-41 216-100v-160c-111 5-199 15-269 48-43 21-70 49-72 102" id="X"/><path fill="#fff" d="M562-1233c-141 0-169 100-160 247h230v180H410V0H156v-806c-55-15-135-9-136-77v-103h136c-14-277 106-437 363-437 48 0 83 7 122 18l-6 127c-1 39-36 45-73 45" id="Y"/><path fill="#fff" d="M89-955c40-238 181-388 449-388 250 0 409 134 409 381 0 232-139 347-258 472L407-195c126-46 310-24 475-29 49-1 86 32 85 80V0H69c-2-76 0-138 43-180 161-160 326-321 472-494 63-74 110-153 115-281 6-143-107-217-242-175-61 19-100 69-121 131-19 56-46 79-119 66" id="Z"/><g id="e"><use transform="matrix(0.013020833333333334,0,0,0.013020833333333334,0,0)" xlink:href="#R"/><use transform="matrix(0.013020833333333334,0,0,0.013020833333333334,14.309895833333334,0)" xlink:href="#S"/><use transform="matrix(0.013020833333333334,0,0,0.013020833333333334,25.46875,0)" xlink:href="#T"/><use transform="matrix(0.013020833333333334,0,0,0.013020833333333334,38.984375,0)" xlink:href="#U"/><use transform="matrix(0.013020833333333334,0,0,0.013020833333333334,47.1484375,0)" xlink:href="#V"/><use transform="matrix(0.013020833333333334,0,0,0.013020833333333334,53.69791666666667,0)" xlink:href="#W"/><use transform="matrix(0.013020833333333334,0,0,0.013020833333333334,67.12239583333333,0)" xlink:href="#X"/><use transform="matrix(0.013020833333333334,0,0,0.013020833333333334,80.14322916666666,0)" xlink:href="#Y"/><use transform="matrix(0.013020833333333334,0,0,0.013020833333333334,88.58072916666666,0)" xlink:href="#Z"/><use transform="matrix(0.013020833333333334,0,0,0.013020833333333334,102.09635416666666,0)" xlink:href="#X"/></g><filter id="d" filterUnits="objectBoundingBox" x="-.06" y="-.04" width="1.12" height="1.21"><feOffset result="offOut" in="SourceAlpha" dy="6"/><feGaussianBlur result="blurOut" in="offOut" stdDeviation="5"/><feColorMatrix result="colorOut" in="blurOut" values="0 0 0 0 0 0 0 0 0 0 0 0 0 0 0 0 0 0 0.5019607843137255 0"/><feBlend in="SourceGraphic" in2="colorOut"/></filter><path fill="#fff" d="M619 15c-128 0-198-56-256-127-11 50-5 112-70 112H124v-1437h254v561c71-71 156-133 289-133 266 0 369 213 369 487 0 241-87 415-246 498-51 26-108 39-171 39zm155-527c0-166-35-299-195-299-102 0-149 49-201 111v438c43 54 92 85 176 85 177 0 220-149 220-335" id="aa"/><g id="f"><use transform="matrix(0.013020833333333334,0,0,0.013020833333333334,0,0)" xlink:href="#R"/><use transform="matrix(0.013020833333333334,0,0,0.013020833333333334,14.309895833333334,0)" xlink:href="#S"/><use transform="matrix(0.013020833333333334,0,0,0.013020833333333334,25.46875,0)" xlink:href="#T"/><use transform="matrix(0.013020833333333334,0,0,0.013020833333333334,38.984375,0)" xlink:href="#U"/><use transform="matrix(0.013020833333333334,0,0,0.013020833333333334,47.1484375,0)" xlink:href="#V"/><use transform="matrix(0.013020833333333334,0,0,0.013020833333333334,53.69791666666667,0)" xlink:href="#W"/><use transform="matrix(0.013020833333333334,0,0,0.013020833333333334,67.12239583333333,0)" xlink:href="#X"/><use transform="matrix(0.013020833333333334,0,0,0.013020833333333334,80.14322916666666,0)" xlink:href="#Y"/><use transform="matrix(0.013020833333333334,0,0,0.013020833333333334,88.58072916666666,0)" xlink:href="#Z"/><use transform="matrix(0.013020833333333334,0,0,0.013020833333333334,102.09635416666666,0)" xlink:href="#aa"/></g><g id="g"><use transform="matrix(0.013020833333333334,0,0,0.013020833333333334,0,0)" xlink:href="#R"/><use transform="matrix(0.013020833333333334,0,0,0.013020833333333334,14.309895833333334,0)" xlink:href="#S"/><use transform="matrix(0.013020833333333334,0,0,0.013020833333333334,25.46875,0)" xlink:href="#T"/><use transform="matrix(0.013020833333333334,0,0,0.013020833333333334,38.984375,0)" xlink:href="#U"/><use transform="matrix(0.013020833333333334,0,0,0.013020833333333334,47.1484375,0)" xlink:href="#V"/><use transform="matrix(0.013020833333333334,0,0,0.013020833333333334,53.69791666666667,0)" xlink:href="#W"/><use transform="matrix(0.013020833333333334,0,0,0.013020833333333334,67.12239583333333,0)" xlink:href="#X"/><use transform="matrix(0.013020833333333334,0,0,0.013020833333333334,80.14322916666666,0)" xlink:href="#Y"/><use transform="matrix(0.013020833333333334,0,0,0.013020833333333334,88.58072916666666,0)" xlink:href="#T"/><use transform="matrix(0.013020833333333334,0,0,0.013020833333333334,102.09635416666666,0)" xlink:href="#X"/></g><g id="h"><use transform="matrix(0.013020833333333334,0,0,0.013020833333333334,0,0)" xlink:href="#R"/><use transform="matrix(0.013020833333333334,0,0,0.013020833333333334,14.309895833333334,0)" xlink:href="#S"/><use transform="matrix(0.013020833333333334,0,0,0.013020833333333334,25.46875,0)" xlink:href="#T"/><use transform="matrix(0.013020833333333334,0,0,0.013020833333333334,38.984375,0)" xlink:href="#U"/><use transform="matrix(0.013020833333333334,0,0,0.013020833333333334,47.1484375,0)" xlink:href="#V"/><use transform="matrix(0.013020833333333334,0,0,0.013020833333333334,53.69791666666667,0)" xlink:href="#W"/><use transform="matrix(0.013020833333333334,0,0,0.013020833333333334,67.12239583333333,0)" xlink:href="#X"/><use transform="matrix(0.013020833333333334,0,0,0.013020833333333334,80.14322916666666,0)" xlink:href="#Y"/><use transform="matrix(0.013020833333333334,0,0,0.013020833333333334,88.58072916666666,0)" xlink:href="#T"/><use transform="matrix(0.013020833333333334,0,0,0.013020833333333334,102.09635416666666,0)" xlink:href="#aa"/></g><path fill="#fff" d="M80-702c6-234 206-338 457-298 93 15 166 59 220 115-26 37-46 85-79 115-8 4-17 7-28 7-73 0-113-61-203-61-94 0-160 79-107 152 93 83 270 88 356 179 39 42 70 95 69 176C761-63 553 47 286 6 191-9 109-52 51-106c29-40 47-92 85-123 77-33 115 38 178 55 22 6 48 12 80 12 81 0 133-35 133-110 0-69-60-91-116-111C252-440 75-483 80-702" id="ab"/><path fill="#fff" d="M615 15c-112 0-178-37-238-91v398H123V-993c65 5 149-11 197 11 31 24 28 81 42 121 74-81 161-151 314-151 265 0 360 229 360 508 0 232-93 399-248 480-52 26-109 39-173 39zm159-519c0-165-29-307-185-307-108 0-158 47-212 111v440c43 53 94 83 178 83 171 0 219-146 219-327" id="ac"/><path fill="#fff" d="M379-993V0H125v-993h254zm-132-444c97 0 163 62 163 159 0 96-66 158-163 158-94 0-157-63-157-158s62-159 157-159" id="ad"/><path fill="#fff" d="M582-811c-92 1-152 44-204 95V0H124v-993c65 5 150-14 196 11 30 17 27 71 39 107 74-72 158-134 301-134 225 0 332 151 332 377V0H738v-632c0-109-49-180-156-179" id="ae"/><g id="i"><use transform="matrix(0.013020833333333334,0,0,0.013020833333333334,0,0)" xlink:href="#R"/><use transform="matrix(0.013020833333333334,0,0,0.013020833333333334,14.309895833333334,0)" xlink:href="#S"/><use transform="matrix(0.013020833333333334,0,0,0.013020833333333334,25.46875,0)" xlink:href="#T"/><use transform="matrix(0.013020833333333334,0,0,0.013020833333333334,38.984375,0)" xlink:href="#U"/><use transform="matrix(0.013020833333333334,0,0,0.013020833333333334,47.1484375,0)" xlink:href="#ab"/><use transform="matrix(0.013020833333333334,0,0,0.013020833333333334,57.786458333333336,0)" xlink:href="#ac"/><use transform="matrix(0.013020833333333334,0,0,0.013020833333333334,72.09635416666667,0)" xlink:href="#ad"/><use transform="matrix(0.013020833333333334,0,0,0.013020833333333334,78.64583333333334,0)" xlink:href="#ae"/><use transform="matrix(0.013020833333333334,0,0,0.013020833333333334,92.95572916666667,0)" xlink:href="#W"/><use transform="matrix(0.013020833333333334,0,0,0.013020833333333334,106.38020833333334,0)" xlink:href="#T"/></g><g id="j"><use transform="matrix(0.013020833333333334,0,0,0.013020833333333334,0,0)" xlink:href="#R"/><use transform="matrix(0.013020833333333334,0,0,0.013020833333333334,14.309895833333334,0)" xlink:href="#S"/><use transform="matrix(0.013020833333333334,0,0,0.013020833333333334,25.46875,0)" xlink:href="#T"/><use transform="matrix(0.013020833333333334,0,0,0.013020833333333334,38.984375,0)" xlink:href="#U"/><use transform="matrix(0.013020833333333334,0,0,0.013020833333333334,47.1484375,0)" xlink:href="#ab"/><use transform="matrix(0.013020833333333334,0,0,0.013020833333333334,57.786458333333336,0)" xlink:href="#ac"/><use transform="matrix(0.013020833333333334,0,0,0.013020833333333334,72.09635416666667,0)" xlink:href="#ad"/><use transform="matrix(0.013020833333333334,0,0,0.013020833333333334,78.64583333333334,0)" xlink:href="#ae"/><use transform="matrix(0.013020833333333334,0,0,0.013020833333333334,92.95572916666667,0)" xlink:href="#W"/><use transform="matrix(0.013020833333333334,0,0,0.013020833333333334,106.38020833333334,0)" xlink:href="#Z"/></g><path d="M371-216h461V0H108v-1328h263v1112" id="af"/><path d="M352-974c116-47 283-48 399 0 177 72 288 230 288 475 0 247-110 405-288 478-116 48-283 48-399 0C173-94 62-251 62-499c0-246 112-403 290-475zm-28 477c0 189 54 318 228 318 172 0 225-131 225-318s-53-318-225-318c-174 0-228 130-228 318" id="ag"/><path d="M615 15c-112 0-178-37-238-91v398H123V-993c65 5 149-11 197 11 31 24 28 81 42 121 74-81 161-151 314-151 265 0 360 229 360 508 0 232-93 399-248 480-52 26-109 39-173 39zm159-519c0-165-29-307-185-307-108 0-158 47-212 111v440c43 53 94 83 178 83 171 0 219-146 219-327" id="ah"/><path d="M619 15c-128 0-198-56-256-127-11 50-5 112-70 112H124v-1437h254v561c71-71 156-133 289-133 266 0 369 213 369 487 0 241-87 415-246 498-51 26-108 39-171 39zm155-527c0-166-35-299-195-299-102 0-149 49-201 111v438c43 54 92 85 176 85 177 0 220-149 220-335" id="ai"/><path d="M534-1012c240 0 371 147 371 387V0c-80-7-186 24-201-53l-22-66C598-47 516 18 362 15 183 12 73-75 73-255c0-177 142-239 303-283 75-20 169-31 281-34 9-142-26-239-155-239-97 0-149 37-209 70-49 27-108 2-128-33l-46-80c103-96 231-158 415-158zM316-268c-2 80 48 110 125 110 107 0 156-41 216-100v-160c-111 5-199 15-269 48-43 21-70 49-72 102" id="aj"/><path d="M836-149C753-51 641 15 467 15 259 15 147-118 88-282c-42-119-44-295-4-419 59-179 186-308 419-308 153 0 247 58 325 142-30 37-55 81-89 113-66 29-96-36-151-51-19-5-41-11-69-11-164 0-199 147-204 317-6 202 85 372 277 308 37-12 60-40 86-61 24-21 64-16 84 9" id="ak"/><path d="M361-1437v818c49 1 81 0 101-33l182-298c19-25 41-43 83-43h232L719-628c-22 29-46 50-76 70 28 21 49 46 66 77L970 0H742c-39 0-69-13-84-44L476-414c-16-28-25-37-64-37h-51V0H107v-1437h254" id="al"/><path d="M960-966c48 161 48 442 0 603C896-149 775 14 517 14 261 14 140-150 78-363c-47-161-48-443 0-603 63-213 183-377 439-377s380 165 443 377zM602-206c161-87 169-454 126-694-24-133-71-244-211-244-138 0-184 113-207 244-41 238-36 607 122 694 54 29 116 28 170 0" id="am"/><g id="k"><use transform="matrix(0.008680555555555554,0,0,0.008680555555555554,0,0)" xlink:href="#af"/><use transform="matrix(0.008680555555555554,0,0,0.008680555555555554,7.239583333333332,0)" xlink:href="#ag"/><use transform="matrix(0.008680555555555554,0,0,0.008680555555555554,16.796874999999996,0)" xlink:href="#ag"/><use transform="matrix(0.008680555555555554,0,0,0.008680555555555554,26.354166666666664,0)" xlink:href="#ah"/><use transform="matrix(0.008680555555555554,0,0,0.008680555555555554,35.894097222222214,0)" xlink:href="#ai"/><use transform="matrix(0.008680555555555554,0,0,0.008680555555555554,45.43402777777777,0)" xlink:href="#aj"/><use transform="matrix(0.008680555555555554,0,0,0.008680555555555554,54.210069444444436,0)" xlink:href="#ak"/><use transform="matrix(0.008680555555555554,0,0,0.008680555555555554,61.64930555555554,0)" xlink:href="#al"/><use transform="matrix(0.008680555555555554,0,0,0.008680555555555554,70.18229166666666,0)" xlink:href="#am"/></g><path fill="#979ea8" d="M24-248c120-7 223 5 221 122C244-46 201 0 124 0H24v-248zM76-40c74 7 117-18 117-86 0-67-45-88-117-82v168" id="an"/><path fill="#979ea8" d="M67-125c0 53 21 87 73 88 37 1 54-22 65-47l45 17C233-25 199 4 140 4 58 4 20-42 15-125 8-235 124-281 211-232c18 10 29 29 36 50l-46 12c-8-25-30-41-62-41-52 0-71 34-72 86" id="ao"/><path fill="#979ea8" d="M23 0v-37h61v-169l-59 37v-38l62-41h46v211h57V0H23" id="ap"/><g id="l"><use transform="matrix(0.08024691358024691,0,0,0.08024691358024691,0,0)" xlink:href="#an"/><use transform="matrix(0.08024691358024691,0,0,0.08024691358024691,20.78395061728395,0)" xlink:href="#ao"/><use transform="matrix(0.08024691358024691,0,0,0.08024691358024691,41.5679012345679,0)" xlink:href="#ap"/></g><path fill="#333" d="M169-182c-1-43-94-46-97-3 18 66 151 10 154 114 3 95-165 93-204 36-6-8-10-19-12-30l50-8c3 46 112 56 116 5-17-69-150-10-154-114-4-87 153-88 188-35 5 8 8 18 10 28" id="aq"/><path fill="#333" d="M115-159c48 0 72 30 72 78 0 54-30 85-83 85-64 0-91-50-91-122 0-98 58-163 141-120 15 8 21 24 27 44l-47 6c-5-31-48-31-61-4-7 14-11 33-11 60 9-17 28-27 53-27zM102-35c24 0 36-20 36-45s-11-43-37-43c-23 0-36 14-36 38 0 27 11 50 37 50" id="ar"/><path fill="#333" d="M139-81c0-46-55-55-73-27H18l9-140h149v37H72l-4 63c44-38 133-4 122 66C201 21 21 35 11-62l49-4c5 18 15 30 39 30 26 0 40-18 40-45" id="as"/><path fill="#333" d="M23 0v-37h61v-169l-59 37v-38l62-41h46v211h57V0H23" id="at"/><path fill="#333" d="M101-251c68 0 84 54 84 127C185-50 166 4 99 4S15-52 14-124c-1-75 17-127 87-127zm-1 216c37-5 36-46 36-89s4-89-36-89c-39 0-36 45-36 89 0 43-3 85 36 89" id="au"/><g id="m"><use transform="matrix(0.06172839506172839,0,0,0.06172839506172839,0,0)" xlink:href="#D"/><use transform="matrix(0.06172839506172839,0,0,0.06172839506172839,15.987654320987653,0)" xlink:href="#aq"/><use transform="matrix(0.06172839506172839,0,0,0.06172839506172839,30.80246913580247,0)" xlink:href="#ar"/><use transform="matrix(0.06172839506172839,0,0,0.06172839506172839,43.148148148148145,0)" xlink:href="#as"/><use transform="matrix(0.06172839506172839,0,0,0.06172839506172839,55.49382716049382,0)" xlink:href="#at"/><use transform="matrix(0.06172839506172839,0,0,0.06172839506172839,67.8395061728395,0)" xlink:href="#au"/><use transform="matrix(0.06172839506172839,0,0,0.06172839506172839,80.18518518518519,0)" xlink:href="#au"/></g><g id="n"><use transform="matrix(0.06172839506172839,0,0,0.06172839506172839,0,0)" xlink:href="#D"/><use transform="matrix(0.06172839506172839,0,0,0.06172839506172839,15.987654320987653,0)" xlink:href="#aq"/><use transform="matrix(0.06172839506172839,0,0,0.06172839506172839,30.80246913580247,0)" xlink:href="#ar"/><use transform="matrix(0.06172839506172839,0,0,0.06172839506172839,43.148148148148145,0)" xlink:href="#as"/><use transform="matrix(0.06172839506172839,0,0,0.06172839506172839,55.49382716049382,0)" xlink:href="#at"/><use transform="matrix(0.06172839506172839,0,0,0.06172839506172839,67.8395061728395,0)" xlink:href="#au"/><use transform="matrix(0.06172839506172839,0,0,0.06172839506172839,80.18518518518519,0)" xlink:href="#at"/></g><path fill="#333" d="M182-182c0 78-84 86-111 141h115V0H12c-6-101 99-100 120-180 1-22-12-31-33-32-23 0-32 14-35 34l-49-3c5-45 32-70 84-70 51 0 83 22 83 69" id="av"/><g id="o"><use transform="matrix(0.06172839506172839,0,0,0.06172839506172839,0,0)" xlink:href="#D"/><use transform="matrix(0.06172839506172839,0,0,0.06172839506172839,15.987654320987653,0)" xlink:href="#aq"/><use transform="matrix(0.06172839506172839,0,0,0.06172839506172839,30.80246913580247,0)" xlink:href="#ar"/><use transform="matrix(0.06172839506172839,0,0,0.06172839506172839,43.148148148148145,0)" xlink:href="#as"/><use transform="matrix(0.06172839506172839,0,0,0.06172839506172839,55.49382716049382,0)" xlink:href="#at"/><use transform="matrix(0.06172839506172839,0,0,0.06172839506172839,67.8395061728395,0)" xlink:href="#au"/><use transform="matrix(0.06172839506172839,0,0,0.06172839506172839,80.18518518518519,0)" xlink:href="#av"/></g><path fill="#979ea8" d="M24 0v-248h52v208h133V0H24" id="aw"/><path fill="#979ea8" d="M185-48c-13 30-37 53-82 52C43 2 14-33 14-96s30-98 90-98c62 0 83 45 84 108H66c0 31 8 55 39 56 18 0 30-7 34-22zm-45-69c5-46-57-63-70-21-2 6-4 13-4 21h74" id="ax"/><path fill="#979ea8" d="M195-6C206 82 75 100 31 46c-4-6-6-13-8-21l49-6c3 16 16 24 34 25 40 0 42-37 40-79-11 22-30 35-61 35-53 0-70-43-70-97 0-56 18-96 73-97 30 0 46 14 59 34l2-30h47zm-90-29c32 0 41-27 41-63 0-35-9-62-40-62-32 0-39 29-40 63 0 36 9 62 39 62" id="ay"/><path fill="#979ea8" d="M135-194c87-1 58 113 63 194h-50c-7-57 23-157-34-157-59 0-34 97-39 157H25l-1-190h47c2 12-1 28 3 38 12-26 28-41 61-42" id="az"/><path fill="#979ea8" d="M88-194c31-1 46 15 58 34l-1-101h50l1 261h-48c-2-10 0-23-3-31C134-8 116 4 84 4 32 4 16-41 15-95c0-56 19-97 73-99zm17 164c33 0 40-30 41-66 1-37-9-64-41-64s-38 30-39 65c0 43 13 65 39 65" id="aA"/><g id="p"><use transform="matrix(0.08024691358024691,0,0,0.08024691358024691,0,0)" xlink:href="#aw"/><use transform="matrix(0.08024691358024691,0,0,0.08024691358024691,17.574074074074073,0)" xlink:href="#ax"/><use transform="matrix(0.08024691358024691,0,0,0.08024691358024691,33.623456790123456,0)" xlink:href="#ay"/><use transform="matrix(0.08024691358024691,0,0,0.08024691358024691,51.197530864197525,0)" xlink:href="#ax"/><use transform="matrix(0.08024691358024691,0,0,0.08024691358024691,67.24691358024691,0)" xlink:href="#az"/><use transform="matrix(0.08024691358024691,0,0,0.08024691358024691,84.82098765432099,0)" xlink:href="#aA"/></g><path fill="#979ea8" d="M182-130c37 4 62 22 62 59C244 23 116-4 24 0v-248c84 5 203-23 205 63 0 31-19 50-47 55zM76-148c40-3 101 13 101-30 0-44-60-28-101-31v61zm0 110c48-3 116 14 116-37 0-48-69-32-116-35v72" id="aB"/><path fill="#979ea8" d="M67-125c0 54 23 88 75 88 28 0 53-7 68-21v-34h-60v-39h108v91C232-14 192 4 140 4 58 4 20-42 15-125 8-236 126-280 215-234c19 10 29 26 37 47l-47 15c-11-23-29-39-63-39-53 1-75 33-75 86" id="aC"/><path fill="#979ea8" d="M24-248c93 1 206-16 204 79-1 75-69 88-152 82V0H24v-248zm52 121c47 0 100 7 100-41 0-47-54-39-100-39v80" id="aD"/><g id="q"><use transform="matrix(0.04938271604938272,0,0,0.04938271604938272,0,0)" xlink:href="#ax"/><use transform="matrix(0.04938271604938272,0,0,0.04938271604938272,9.876543209876544,0)" xlink:href="#aB"/><use transform="matrix(0.04938271604938272,0,0,0.04938271604938272,22.66666666666667,0)" xlink:href="#aC"/><use transform="matrix(0.04938271604938272,0,0,0.04938271604938272,36.49382716049384,0)" xlink:href="#aD"/></g><path fill="#979ea8" d="M24 0v-248h195v40H76v63h132v40H76v65h150V0H24" id="aE"/><path fill="#979ea8" d="M147 0H94L2-248h55l64 206c17-72 42-137 63-206h54" id="aF"/><path fill="#979ea8" d="M175 0L67-191c6 58 2 128 3 191H24v-248h59L193-55c-6-58-2-129-3-193h46V0h-61" id="aG"/><g id="r"><use transform="matrix(0.04938271604938272,0,0,0.04938271604938272,0,0)" xlink:href="#aE"/><use transform="matrix(0.04938271604938272,0,0,0.04938271604938272,11.851851851851853,0)" xlink:href="#aF"/><use transform="matrix(0.04938271604938272,0,0,0.04938271604938272,23.703703703703706,0)" xlink:href="#aD"/><use transform="matrix(0.04938271604938272,0,0,0.04938271604938272,35.55555555555556,0)" xlink:href="#aG"/></g><g id="s"><use transform="matrix(0.013020833333333334,0,0,0.013020833333333334,0,0)" xlink:href="#R"/><use transform="matrix(0.013020833333333334,0,0,0.013020833333333334,14.309895833333334,0)" xlink:href="#S"/><use transform="matrix(0.013020833333333334,0,0,0.013020833333333334,25.46875,0)" xlink:href="#Z"/><use transform="matrix(0.013020833333333334,0,0,0.013020833333333334,38.984375,0)" xlink:href="#U"/><use transform="matrix(0.013020833333333334,0,0,0.013020833333333334,47.1484375,0)" xlink:href="#V"/><use transform="matrix(0.013020833333333334,0,0,0.013020833333333334,53.69791666666667,0)" xlink:href="#W"/><use transform="matrix(0.013020833333333334,0,0,0.013020833333333334,67.12239583333333,0)" xlink:href="#X"/><use transform="matrix(0.013020833333333334,0,0,0.013020833333333334,80.14322916666666,0)" xlink:href="#Y"/><use transform="matrix(0.013020833333333334,0,0,0.013020833333333334,88.58072916666666,0)" xlink:href="#Z"/><use transform="matrix(0.013020833333333334,0,0,0.013020833333333334,102.09635416666666,0)" xlink:href="#X"/></g><g id="t"><use transform="matrix(0.013020833333333334,0,0,0.013020833333333334,0,0)" xlink:href="#R"/><use transform="matrix(0.013020833333333334,0,0,0.013020833333333334,14.309895833333334,0)" xlink:href="#S"/><use transform="matrix(0.013020833333333334,0,0,0.013020833333333334,25.46875,0)" xlink:href="#Z"/><use transform="matrix(0.013020833333333334,0,0,0.013020833333333334,38.984375,0)" xlink:href="#U"/><use transform="matrix(0.013020833333333334,0,0,0.013020833333333334,47.1484375,0)" xlink:href="#V"/><use transform="matrix(0.013020833333333334,0,0,0.013020833333333334,53.69791666666667,0)" xlink:href="#W"/><use transform="matrix(0.013020833333333334,0,0,0.013020833333333334,67.12239583333333,0)" xlink:href="#X"/><use transform="matrix(0.013020833333333334,0,0,0.013020833333333334,80.14322916666666,0)" xlink:href="#Y"/><use transform="matrix(0.013020833333333334,0,0,0.013020833333333334,88.58072916666666,0)" xlink:href="#Z"/><use transform="matrix(0.013020833333333334,0,0,0.013020833333333334,102.09635416666666,0)" xlink:href="#aa"/></g><g id="u"><use transform="matrix(0.013020833333333334,0,0,0.013020833333333334,0,0)" xlink:href="#R"/><use transform="matrix(0.013020833333333334,0,0,0.013020833333333334,14.309895833333334,0)" xlink:href="#S"/><use transform="matrix(0.013020833333333334,0,0,0.013020833333333334,25.46875,0)" xlink:href="#Z"/><use transform="matrix(0.013020833333333334,0,0,0.013020833333333334,38.984375,0)" xlink:href="#U"/><use transform="matrix(0.013020833333333334,0,0,0.013020833333333334,47.1484375,0)" xlink:href="#V"/><use transform="matrix(0.013020833333333334,0,0,0.013020833333333334,53.69791666666667,0)" xlink:href="#W"/><use transform="matrix(0.013020833333333334,0,0,0.013020833333333334,67.12239583333333,0)" xlink:href="#X"/><use transform="matrix(0.013020833333333334,0,0,0.013020833333333334,80.14322916666666,0)" xlink:href="#Y"/><use transform="matrix(0.013020833333333334,0,0,0.013020833333333334,88.58072916666666,0)" xlink:href="#T"/><use transform="matrix(0.013020833333333334,0,0,0.013020833333333334,102.09635416666666,0)" xlink:href="#X"/></g><g id="v"><use transform="matrix(0.013020833333333334,0,0,0.013020833333333334,0,0)" xlink:href="#R"/><use transform="matrix(0.013020833333333334,0,0,0.013020833333333334,14.309895833333334,0)" xlink:href="#S"/><use transform="matrix(0.013020833333333334,0,0,0.013020833333333334,25.46875,0)" xlink:href="#Z"/><use transform="matrix(0.013020833333333334,0,0,0.013020833333333334,38.984375,0)" xlink:href="#U"/><use transform="matrix(0.013020833333333334,0,0,0.013020833333333334,47.1484375,0)" xlink:href="#V"/><use transform="matrix(0.013020833333333334,0,0,0.013020833333333334,53.69791666666667,0)" xlink:href="#W"/><use transform="matrix(0.013020833333333334,0,0,0.013020833333333334,67.12239583333333,0)" xlink:href="#X"/><use transform="matrix(0.013020833333333334,0,0,0.013020833333333334,80.14322916666666,0)" xlink:href="#Y"/><use transform="matrix(0.013020833333333334,0,0,0.013020833333333334,88.58072916666666,0)" xlink:href="#T"/><use transform="matrix(0.013020833333333334,0,0,0.013020833333333334,102.09635416666666,0)" xlink:href="#aa"/></g><g id="w"><use transform="matrix(0.013020833333333334,0,0,0.013020833333333334,0,0)" xlink:href="#R"/><use transform="matrix(0.013020833333333334,0,0,0.013020833333333334,14.309895833333334,0)" xlink:href="#S"/><use transform="matrix(0.013020833333333334,0,0,0.013020833333333334,25.46875,0)" xlink:href="#Z"/><use transform="matrix(0.013020833333333334,0,0,0.013020833333333334,38.984375,0)" xlink:href="#U"/><use transform="matrix(0.013020833333333334,0,0,0.013020833333333334,47.1484375,0)" xlink:href="#ab"/><use transform="matrix(0.013020833333333334,0,0,0.013020833333333334,57.786458333333336,0)" xlink:href="#ac"/><use transform="matrix(0.013020833333333334,0,0,0.013020833333333334,72.09635416666667,0)" xlink:href="#ad"/><use transform="matrix(0.013020833333333334,0,0,0.013020833333333334,78.64583333333334,0)" xlink:href="#ae"/><use transform="matrix(0.013020833333333334,0,0,0.013020833333333334,92.95572916666667,0)" xlink:href="#W"/><use transform="matrix(0.013020833333333334,0,0,0.013020833333333334,106.38020833333334,0)" xlink:href="#T"/></g><g id="x"><use transform="matrix(0.013020833333333334,0,0,0.013020833333333334,0,0)" xlink:href="#R"/><use transform="matrix(0.013020833333333334,0,0,0.013020833333333334,14.309895833333334,0)" xlink:href="#S"/><use transform="matrix(0.013020833333333334,0,0,0.013020833333333334,25.46875,0)" xlink:href="#Z"/><use transform="matrix(0.013020833333333334,0,0,0.013020833333333334,38.984375,0)" xlink:href="#U"/><use transform="matrix(0.013020833333333334,0,0,0.013020833333333334,47.1484375,0)" xlink:href="#ab"/><use transform="matrix(0.013020833333333334,0,0,0.013020833333333334,57.786458333333336,0)" xlink:href="#ac"/><use transform="matrix(0.013020833333333334,0,0,0.013020833333333334,72.09635416666667,0)" xlink:href="#ad"/><use transform="matrix(0.013020833333333334,0,0,0.013020833333333334,78.64583333333334,0)" xlink:href="#ae"/><use transform="matrix(0.013020833333333334,0,0,0.013020833333333334,92.95572916666667,0)" xlink:href="#W"/><use transform="matrix(0.013020833333333334,0,0,0.013020833333333334,106.38020833333334,0)" xlink:href="#Z"/></g><path fill="#979ea8" d="M182-182c0 78-84 86-111 141h115V0H12c-6-101 99-100 120-180 1-22-12-31-33-32-23 0-32 14-35 34l-49-3c5-45 32-70 84-70 51 0 83 22 83 69" id="aH"/><g id="y"><use transform="matrix(0.08024691358024691,0,0,0.08024691358024691,0,0)" xlink:href="#an"/><use transform="matrix(0.08024691358024691,0,0,0.08024691358024691,20.78395061728395,0)" xlink:href="#ao"/><use transform="matrix(0.08024691358024691,0,0,0.08024691358024691,41.5679012345679,0)" xlink:href="#aH"/></g><g id="z"><use transform="matrix(0.06172839506172839,0,0,0.06172839506172839,0,0)" xlink:href="#D"/><use transform="matrix(0.06172839506172839,0,0,0.06172839506172839,15.987654320987653,0)" xlink:href="#aq"/><use transform="matrix(0.06172839506172839,0,0,0.06172839506172839,30.80246913580247,0)" xlink:href="#ar"/><use transform="matrix(0.06172839506172839,0,0,0.06172839506172839,43.148148148148145,0)" xlink:href="#as"/><use transform="matrix(0.06172839506172839,0,0,0.06172839506172839,55.49382716049382,0)" xlink:href="#av"/><use transform="matrix(0.06172839506172839,0,0,0.06172839506172839,67.8395061728395,0)" xlink:href="#au"/><use transform="matrix(0.06172839506172839,0,0,0.06172839506172839,80.18518518518519,0)" xlink:href="#au"/></g><g id="A"><use transform="matrix(0.06172839506172839,0,0,0.06172839506172839,0,0)" xlink:href="#D"/><use transform="matrix(0.06172839506172839,0,0,0.06172839506172839,15.987654320987653,0)" xlink:href="#aq"/><use transform="matrix(0.06172839506172839,0,0,0.06172839506172839,30.80246913580247,0)" xlink:href="#ar"/><use transform="matrix(0.06172839506172839,0,0,0.06172839506172839,43.148148148148145,0)" xlink:href="#as"/><use transform="matrix(0.06172839506172839,0,0,0.06172839506172839,55.49382716049382,0)" xlink:href="#av"/><use transform="matrix(0.06172839506172839,0,0,0.06172839506172839,67.8395061728395,0)" xlink:href="#au"/><use transform="matrix(0.06172839506172839,0,0,0.06172839506172839,80.18518518518519,0)" xlink:href="#at"/></g><g id="B"><use transform="matrix(0.06172839506172839,0,0,0.06172839506172839,0,0)" xlink:href="#D"/><use transform="matrix(0.06172839506172839,0,0,0.06172839506172839,15.987654320987653,0)" xlink:href="#aq"/><use transform="matrix(0.06172839506172839,0,0,0.06172839506172839,30.80246913580247,0)" xlink:href="#ar"/><use transform="matrix(0.06172839506172839,0,0,0.06172839506172839,43.148148148148145,0)" xlink:href="#as"/><use transform="matrix(0.06172839506172839,0,0,0.06172839506172839,55.49382716049382,0)" xlink:href="#av"/><use transform="matrix(0.06172839506172839,0,0,0.06172839506172839,67.8395061728395,0)" xlink:href="#au"/><use transform="matrix(0.06172839506172839,0,0,0.06172839506172839,80.18518518518519,0)" xlink:href="#av"/></g></defs></g></svg>