<svg xmlns="http://www.w3.org/2000/svg" xmlns:xlink="http://www.w3.org/1999/xlink" xmlns:lucid="lucid" width="2620" height="680"><g transform="translate(-120 -400)" lucid:page-tab-id="SUWQ.NX55tFj"><path d="M0 0h3456v1360H0z" fill="#fff"/><path d="M140 497.4a36 36 0 0 1 36-36h2508a36 36 0 0 1 36 36V1024a36 36 0 0 1-36 36H176a36 36 0 0 1-36-36z" stroke="#979ea8" stroke-width="3" fill="#979ea8"/><use xlink:href="#a" transform="matrix(1,0,0,1,145,466.408860723077) translate(1243.8012962962962 17.77777777777778)"/><path d="M172.77 420h2515.27v60H172.77z" fill="none"/><use xlink:href="#b" transform="matrix(1,0,0,1,172.7686880858787,420) translate(1176.8148148148148 35.33333333333333)"/><use xlink:href="#c" transform="matrix(1,0,0,1,172.7686880858787,420) translate(1241.4074074074074 35.33333333333333)"/><path d="M172.77 498.24a6 6 0 0 1 6-6h1218.28a6 6 0 0 1 6 6v535.24a6 6 0 0 1-6 6H178.77a6 6 0 0 1-6-6z" stroke="#dbdbdb" stroke-width="3" fill="#f2f3f5"/><path d="M551.2 562.18a19 19 0 0 1 19-19h456.83a19 19 0 0 1 19 19v147.6a19 19 0 0 1-19 19H570.2a19 19 0 0 1-19-19zM913.76 848.56a19 19 0 0 1 19-19h422a19 19 0 0 1 19 19V997.1a19 19 0 0 1-19 19h-422a19 19 0 0 1-19-19zM206.02 848.56a19 19 0 0 1 19-19h422a19 19 0 0 1 19 19V997.1a19 19 0 0 1-19 19h-422a19 19 0 0 1-19-19z" stroke="#ced4db" stroke-width="3" fill="#ced4db"/><g filter="url(#d)"><path d="M936.14 863.3a.5.5 0 0 0-.5.5v93.4a.5.5 0 0 0 .5.5h168.64a.5.5 0 0 0 .5-.5v-93.4a.5.5 0 0 0-.5-.5z" stroke="#315796" stroke-width="3" fill="#315796"/><use xlink:href="#e" transform="matrix(1,0,0,1,945.4836325745723,874.3330261138427) translate(17.36979166666667 43.166666666666664)"/></g><g filter="url(#d)"><path d="M1176.14 863.3a.5.5 0 0 0-.5.5v93.4a.5.5 0 0 0 .5.5h168.64a.5.5 0 0 0 .5-.5v-93.4a.5.5 0 0 0-.5-.5z" stroke="#315796" stroke-width="3" fill="#315796"/><use xlink:href="#f" transform="matrix(1,0,0,1,1185.4836325745725,874.3330261138427) translate(16.796875000000007 43.166666666666664)"/></g><g filter="url(#d)"><path d="M227.88 863.3a.5.5 0 0 0-.5.5v93.4a.5.5 0 0 0 .5.5h168.64a.5.5 0 0 0 .5-.5v-93.4a.5.5 0 0 0-.5-.5z" stroke="#315796" stroke-width="3" fill="#315796"/><use xlink:href="#g" transform="matrix(1,0,0,1,237.22101123682074,874.3330261138427) translate(17.36979166666667 43.166666666666664)"/></g><g filter="url(#d)"><path d="M467.88 863.3a.5.5 0 0 0-.5.5v93.4a.5.5 0 0 0 .5.5h168.64a.5.5 0 0 0 .5-.5v-93.4a.5.5 0 0 0-.5-.5z" stroke="#315796" stroke-width="3" fill="#315796"/><use xlink:href="#h" transform="matrix(1,0,0,1,477.22101123682074,874.3330261138427) translate(16.796875000000007 43.166666666666664)"/></g><g filter="url(#d)"><path d="M574.62 600.56a.5.5 0 0 0-.5.5v93.42a.5.5 0 0 0 .5.5h168.64a.5.5 0 0 0 .5-.5v-93.42a.5.5 0 0 0-.5-.5z" stroke="#315796" stroke-width="3" fill="#315796"/><use xlink:href="#i" transform="matrix(1,0,0,1,583.9583054308096,611.6118128789795) translate(15.052083333333329 43.166666666666664)"/></g><g filter="url(#d)"><path d="M854.62 600.56a.5.5 0 0 0-.5.5v93.42a.5.5 0 0 0 .5.5h168.64a.5.5 0 0 0 .5-.5v-93.42a.5.5 0 0 0-.5-.5z" stroke="#315796" stroke-width="3" fill="#315796"/><use xlink:href="#j" transform="matrix(1,0,0,1,863.9583054308096,611.6118128789795) translate(15.052083333333329 43.166666666666664)"/></g><path d="M293.7 850.9l3.98-1.9m5.33-2.53l8-3.8m5.34-2.52l8-3.78m5.32-2.53l8-3.8m5.33-2.5l7.98-3.8m5.33-2.52l8-3.8m5.34-2.52l8-3.78m5.33-2.53l8-3.8m5.32-2.52l8-3.8m5.32-2.5l8-3.8m5.32-2.53l8-3.78m5.33-2.53l8-3.8m5.32-2.5l8-3.8m5.32-2.52l8-3.8m5.32-2.52l8-3.78m5.33-2.53l8-3.8m5.32-2.52l8-3.8m5.32-2.5l8-3.8m5.32-2.53l8-3.78m5.33-2.53l8-3.8m5.32-2.5l8-3.8m5.32-2.53l8-3.77m5.32-2.53l8-3.8m5.33-2.5l4-1.9" stroke="#e08fff" stroke-width="3" fill="none"/><path d="M294.03 851.53H289l-.02-.07 4.1-1.95zM604.84 705.06l.03.07-4.1 1.94-.95-2.02z" stroke="#e08fff" stroke-width=".05" fill="#e08fff"/><path d="M333 851.14l4.4-1.18m5.84-1.58l8.76-2.36m5.84-1.58l8.77-2.36m5.85-1.57l8.76-2.36m5.86-1.57l8.76-2.37m5.84-1.57l8.77-2.36m5.84-1.58l8.76-2.37m5.85-1.58l8.76-2.36m5.84-1.58l8.77-2.37m5.84-1.57l8.75-2.36m5.85-1.58l8.76-2.36m5.84-1.58l8.77-2.36m5.84-1.57l8.77-2.37m5.85-1.57l8.76-2.37m5.84-1.57l8.77-2.37m5.83-1.58l8.76-2.36m5.84-1.6l8.76-2.35m5.84-1.57l8.77-2.37m5.85-1.56l8.76-2.36m5.86-1.58l8.76-2.36m5.84-1.58l8.77-2.36m5.84-1.57l8.76-2.37m5.85-1.57l8.76-2.38m5.84-1.57l8.77-2.36m5.84-1.6l8.75-2.35m5.85-1.58l8.76-2.36m5.84-1.56l8.77-2.37M723 746l8.77-2.36m5.85-1.58l8.76-2.36m5.84-1.58l8.77-2.36m5.83-1.57l8.76-2.38m5.84-1.57l8.76-2.36m5.84-1.6l8.77-2.35m5.85-1.58l8.76-2.36m5.86-1.57l8.76-2.36m5.84-1.57l8.77-2.37m5.84-1.57l8.76-2.36m5.85-1.58l4.38-1.18" stroke="#e08fff" stroke-width="3" fill="none"/><path d="M333.16 851.53h-4.7l-.18-.67 4.38-1.18zM878 705.05l.2.67-4.4 1.18-.5-1.85z" stroke="#e08fff" stroke-width=".05" fill="#e08fff"/><path d="M533.35 850.3l2.43-3.6m3.25-4.8l4.88-7.2m3.26-4.8l4.88-7.2m3.25-4.8l4.86-7.2m3.25-4.8l4.9-7.2m3.24-4.8l4.87-7.2m3.26-4.8l4.88-7.2m3.25-4.8l4.86-7.2m3.25-4.8l4.9-7.2m3.24-4.8l4.88-7.2m3.25-4.8l4.87-7.2m3.25-4.8l4.87-7.2m3.25-4.8l2.44-3.6" stroke="#e08fff" stroke-width="3" fill="none"/><path d="M534.6 851.1l-.28.43h-3.62l1.43-2.12zM633.5 705.05l-1.42 2.1-2.5-1.67.3-.43z" stroke="#e08fff" stroke-width=".05" fill="#e08fff"/><path d="M574.24 850.94l4.1-1.74m5.48-2.33l8.2-3.48m5.48-2.34l8.2-3.5m5.48-2.3l8.2-3.5m5.48-2.32l8.2-3.5m5.48-2.32l8.2-3.48m5.48-2.33l8.2-3.48m5.48-2.32l8.2-3.5m5.48-2.3l8.2-3.5m5.48-2.32l8.2-3.5m5.5-2.32l8.2-3.48m5.47-2.33l8.2-3.5m5.48-2.3l8.22-3.5m5.47-2.32l8.2-3.5m5.47-2.3l8.2-3.5m5.48-2.33l8.2-3.48m5.48-2.33l8.2-3.5m5.48-2.32l8.22-3.5m5.47-2.3l8.2-3.5m5.48-2.33l8.2-3.48m5.48-2.33l8.2-3.5m5.48-2.3l8.2-3.5m5.48-2.32l8.2-3.5m5.48-2.3l8.2-3.5m5.48-2.33l8.2-3.5m5.48-2.32l4.1-1.74" stroke="#e08fff" stroke-width="3" fill="none"/><path d="M574.53 851.53h-4.93l-.1-.2 4.2-1.78zM920.9 705.05l.1.2-4.18 1.78-.84-1.98z" stroke="#e08fff" stroke-width=".05" fill="#e08fff"/><path d="M1002.43 850.9l-4.2-1.88m-5.57-2.53l-8.38-3.8m-5.6-2.52l-8.36-3.8m-5.6-2.52l-8.37-3.8m-5.58-2.5l-8.38-3.8m-5.6-2.53l-8.37-3.8m-5.6-2.5l-8.37-3.8m-5.58-2.53l-8.38-3.8m-5.6-2.5l-8.36-3.8m-5.6-2.53l-8.37-3.8m-5.58-2.5l-8.4-3.8m-5.57-2.53l-8.38-3.8m-5.6-2.5l-8.37-3.8m-5.58-2.53l-8.38-3.78m-5.58-2.52l-8.38-3.8m-5.6-2.52l-8.37-3.8m-5.6-2.5l-8.37-3.8m-5.58-2.53l-8.38-3.78m-5.6-2.53l-8.36-3.8m-5.58-2.52l-8.38-3.78m-5.58-2.53l-8.38-3.78m-5.6-2.53l-8.36-3.8m-5.6-2.52l-8.37-3.8m-5.58-2.5l-4.2-1.9" stroke="#e08fff" stroke-width="3" fill="none"/><path d="M1007.15 851.4l-.06.13h-5l.9-2zM681.6 705.05l-.9 2-4.14-1.87.06-.13z" stroke="#e08fff" stroke-width=".05" fill="#e08fff"/><path d="M1034.27 850.18l-1.92-3.92m-2.56-5.23l-3.84-7.85m-2.56-5.22l-3.84-7.85m-2.55-5.2l-3.83-7.86m-2.56-5.22l-3.82-7.85m-2.56-5.22l-3.84-7.85m-2.55-5.22l-3.84-7.85m-2.57-5.22l-3.83-7.84m-2.56-5.23l-3.84-7.84m-2.56-5.24l-3.83-7.84m-2.55-5.23l-3.84-7.85m-2.54-5.23l-1.92-3.92" stroke="#e08fff" stroke-width="3" fill="none"/><path d="M1036.6 851.52h-3.34l-.36-.72 2.7-1.32zM964.95 705.06l.35.72-2.7 1.32-1-2.05z" stroke="#e08fff" stroke-width=".05" fill="#e08fff"/><path d="M1238.62 851.12l-4.3-1.2m-5.76-1.63l-8.63-2.44m-5.75-1.62l-8.63-2.43m-5.75-1.6l-8.62-2.43m-5.76-1.62l-8.62-2.43m-5.75-1.62l-8.63-2.42m-5.75-1.62l-8.63-2.43m-5.75-1.62l-8.64-2.42m-5.75-1.6l-8.62-2.44m-5.75-1.62l-8.62-2.43m-5.75-1.63l-8.62-2.42m-5.75-1.62l-8.63-2.43m-5.75-1.62l-8.63-2.43m-5.75-1.62l-8.63-2.42m-5.76-1.6l-8.63-2.44m-5.74-1.62l-8.62-2.43m-5.75-1.6l-8.64-2.43m-5.75-1.62l-8.62-2.43m-5.75-1.62l-8.63-2.42m-5.75-1.62l-8.63-2.43m-5.75-1.62l-8.62-2.42m-5.76-1.6l-8.63-2.44m-5.75-1.62L918 760.9m-5.76-1.63l-8.63-2.42m-5.74-1.62l-8.63-2.43m-5.75-1.62l-8.63-2.43m-5.75-1.62l-8.62-2.42m-5.76-1.6l-8.62-2.44m-5.75-1.62l-8.63-2.43m-5.75-1.6l-8.63-2.43m-5.75-1.62l-8.64-2.43m-5.75-1.62l-8.62-2.42m-5.75-1.62l-8.62-2.43m-5.75-1.62l-8.62-2.42m-5.75-1.6l-8.63-2.44m-5.75-1.62l-8.63-2.43m-5.75-1.63l-4.3-1.2" stroke="#e08fff" stroke-width="3" fill="none"/><path d="M1243.36 850.9l-.18.63h-4.7l.5-1.86zM721.16 705.05l-.52 1.86-4.37-1.22.18-.63z" stroke="#e08fff" stroke-width=".05" fill="#e08fff"/><path d="M1278.44 850.83l-3.96-2.07m-5.3-2.76l-7.92-4.15m-5.3-2.76l-7.92-4.16m-5.3-2.76l-7.92-4.15m-5.3-2.76l-7.92-4.15m-5.3-2.76l-7.92-4.14m-5.3-2.77l-7.93-4.14m-5.28-2.76l-7.94-4.14m-5.28-2.77l-7.94-4.14m-5.28-2.77l-7.93-4.15m-5.3-2.76l-7.93-4.15m-5.3-2.76l-7.92-4.14m-5.3-2.76l-7.92-4.15m-5.3-2.76l-7.92-4.15m-5.28-2.77l-7.93-4.14m-5.3-2.77l-7.93-4.14m-5.3-2.77l-7.92-4.14m-5.3-2.76l-7.92-4.15m-5.3-2.75l-7.92-4.15m-5.28-2.76l-7.93-4.15m-5.3-2.77l-7.94-4.15m-5.28-2.76l-3.97-2.07" stroke="#e08fff" stroke-width="3" fill="none"/><path d="M1283.02 851.53h-4.98l1.07-2.04zM1001.22 705.05l-1.07 2.04-3.9-2.05z" stroke="#e08fff" stroke-width=".05" fill="#e08fff"/><path d="M580.44 682.53a.5.5 0 0 0-.5.5v21.03a.5.5 0 0 0 .5.5h37a.5.5 0 0 0 .5-.5v-21.03a.5.5 0 0 0-.5-.5z" stroke="#5e5e5e" fill="#fff"/><use xlink:href="#k" transform="matrix(1,0,0,1,594.3411157078953,681.5649309668115) translate(0.49479166666666696 16.444444444444443)"/><path d="M620.44 682.53a.5.5 0 0 0-.5.5v21.03a.5.5 0 0 0 .5.5h37a.5.5 0 0 0 .5-.5v-21.03a.5.5 0 0 0-.5-.5z" stroke="#5e5e5e" fill="#fff"/><use xlink:href="#l" transform="matrix(1,0,0,1,634.3395416724915,681.5649309668115) translate(0.49479166666666696 16.444444444444443)"/><path d="M660.44 682.53a.5.5 0 0 0-.5.5v21.03a.5.5 0 0 0 .5.5h37a.5.5 0 0 0 .5-.5v-21.03a.5.5 0 0 0-.5-.5z" stroke="#5e5e5e" fill="#fff"/><use xlink:href="#m" transform="matrix(1,0,0,1,674.3419027255972,681.5649309668115) translate(0.49479166666666696 16.444444444444443)"/><path d="M700.44 682.53a.5.5 0 0 0-.5.5v21.03a.5.5 0 0 0 .5.5h37a.5.5 0 0 0 .5-.5v-21.03a.5.5 0 0 0-.5-.5z" stroke="#5e5e5e" fill="#fff"/><use xlink:href="#n" transform="matrix(1,0,0,1,714.3403286901936,681.5649309668115) translate(0.49479166666666696 16.444444444444443)"/><path d="M860.44 682.53a.5.5 0 0 0-.5.5v21.03a.5.5 0 0 0 .5.5h37a.5.5 0 0 0 .5-.5v-21.03a.5.5 0 0 0-.5-.5z" stroke="#5e5e5e" fill="#fff"/><use xlink:href="#k" transform="matrix(1,0,0,1,874.341115707895,681.5649309668115) translate(0.49479166666666696 16.444444444444443)"/><path d="M900.44 682.53a.5.5 0 0 0-.5.5v21.03a.5.5 0 0 0 .5.5h37a.5.5 0 0 0 .5-.5v-21.03a.5.5 0 0 0-.5-.5z" stroke="#5e5e5e" fill="#fff"/><use xlink:href="#l" transform="matrix(1,0,0,1,914.3395416724924,681.5649309668115) translate(0.49479166666666696 16.444444444444443)"/><path d="M940.44 682.53a.5.5 0 0 0-.5.5v21.03a.5.5 0 0 0 .5.5h37a.5.5 0 0 0 .5-.5v-21.03a.5.5 0 0 0-.5-.5z" stroke="#5e5e5e" fill="#fff"/><use xlink:href="#m" transform="matrix(1,0,0,1,954.341902725597,681.5649309668115) translate(0.49479166666666696 16.444444444444443)"/><path d="M980.44 682.53a.5.5 0 0 0-.5.5v21.03a.5.5 0 0 0 .5.5h37a.5.5 0 0 0 .5-.5v-21.03a.5.5 0 0 0-.5-.5z" stroke="#5e5e5e" fill="#fff"/><use xlink:href="#n" transform="matrix(1,0,0,1,994.3403286901935,681.5649309668115) translate(0.49479166666666696 16.444444444444443)"/><path d="M274.16 852.02a.5.5 0 0 0-.5.5v21.03a.5.5 0 0 0 .5.5h37a.5.5 0 0 0 .5-.5v-21.03a.5.5 0 0 0-.5-.5z" stroke="#5e5e5e" fill="#fff"/><use xlink:href="#k" transform="matrix(1,0,0,1,288.0616578185392,851.0459971411276) translate(0.49479166666666696 16.444444444444443)"/><path d="M313.24 852.02a.5.5 0 0 0-.5.5v21.03a.5.5 0 0 0 .5.5h37a.5.5 0 0 0 .5-.5v-21.03a.5.5 0 0 0-.5-.5z" stroke="#5e5e5e" fill="#fff"/><use xlink:href="#l" transform="matrix(1,0,0,1,327.14519819157215,851.0459971411276) translate(0.49479166666666696 16.444444444444443)"/><path d="M513.7 852.02a.5.5 0 0 0-.5.5v21.03a.5.5 0 0 0 .5.5h37a.5.5 0 0 0 .5-.5v-21.03a.5.5 0 0 0-.5-.5z" stroke="#5e5e5e" fill="#fff"/><use xlink:href="#k" transform="matrix(1,0,0,1,527.6042150227576,851.0459971411276) translate(0.49479166666666696 16.444444444444443)"/><path d="M553.7 852.02a.5.5 0 0 0-.5.5v21.03a.5.5 0 0 0 .5.5h37a.5.5 0 0 0 .5-.5v-21.03a.5.5 0 0 0-.5-.5z" stroke="#5e5e5e" fill="#fff"/><use xlink:href="#l" transform="matrix(1,0,0,1,567.6026409873538,851.0459971411276) translate(0.49479166666666696 16.444444444444443)"/><path d="M981.97 852.02a.5.5 0 0 0-.5.5v21.03a.5.5 0 0 0 .5.5h37a.5.5 0 0 0 .5-.5v-21.03a.5.5 0 0 0-.5-.5z" stroke="#5e5e5e" fill="#fff"/><use xlink:href="#k" transform="matrix(1,0,0,1,995.8668363605088,851.0459971411276) translate(0.49479166666666696 16.444444444444443)"/><path d="M1021.96 852.02a.5.5 0 0 0-.5.5v21.03a.5.5 0 0 0 .5.5h37a.5.5 0 0 0 .5-.5v-21.03a.5.5 0 0 0-.5-.5z" stroke="#5e5e5e" fill="#fff"/><use xlink:href="#l" transform="matrix(1,0,0,1,1035.8652623251053,851.0459971411276) translate(0.49479166666666696 16.444444444444443)"/><path d="M1221.97 852.02a.5.5 0 0 0-.5.5v21.03a.5.5 0 0 0 .5.5h37a.5.5 0 0 0 .5-.5v-21.03a.5.5 0 0 0-.5-.5z" stroke="#5e5e5e" fill="#fff"/><use xlink:href="#k" transform="matrix(1,0,0,1,1235.8668363605088,851.0459971411276) translate(0.49479166666666696 16.444444444444443)"/><path d="M1261.96 852.02a.5.5 0 0 0-.5.5v21.03a.5.5 0 0 0 .5.5h37a.5.5 0 0 0 .5-.5v-21.03a.5.5 0 0 0-.5-.5z" stroke="#5e5e5e" fill="#fff"/><use xlink:href="#l" transform="matrix(1,0,0,1,1275.865262325105,851.0459971411276) translate(0.49479166666666696 16.444444444444443)"/><path d="M172.77 492.24h1230.28v60H172.77z" fill="none"/><use xlink:href="#o" transform="matrix(1,0,0,1,172.76868808587858,492.239996178512) translate(586.6913580246913 35.77777777777778)"/><path d="M1113.46 852.94h49.65v33h-49.64z" fill="none"/><use xlink:href="#p" transform="matrix(1,0,0,1,1113.4582441309976,852.936661713964) translate(10.762345679012348 19.61111111111111)"/><path d="M407.46 852.94h49.65v33h-49.64z" fill="none"/><use xlink:href="#p" transform="matrix(1,0,0,1,407.45824413099683,852.936661713964) translate(10.762345679012348 19.61111111111111)"/><path d="M708.1 557.4h161.6v36H708.1z" fill="none"/><use xlink:href="#q" transform="matrix(1,0,0,1,708.1008124530115,557.4004517585302) translate(34.73456790123456 22.944444444444443)"/><path d="M355.2 980.1h161.63v36H355.2z" fill="none"/><use xlink:href="#r" transform="matrix(1,0,0,1,355.2131391345251,980.0974341564606) translate(34.73456790123456 22.944444444444443)"/><path d="M1062.95 980.1h161.6v36h-161.6z" fill="none"/><use xlink:href="#s" transform="matrix(1,0,0,1,1062.9512203462155,980.0974341564606) translate(34.73456790123456 22.944444444444443)"/><path d="M187.86 513.75H395.3v38.3H187.85z" fill="none"/><use xlink:href="#t" transform="matrix(1,0,0,1,187.85617491543883,513.748500038067) translate(52.80246913580247 25.27777777777778)"/><path d="M195.95 566.4h-4.38v-3h4.38zm14.6 0h-8.76v-3h8.75zm14.6 0h-8.76v-3h8.75zm14.6 0H231v-3h8.75zm9.28 0h-3.44v-3h3.43zm107.5 0h-8.75v-3h8.76zm14.6 0h-8.75v-3h8.76zm14.6 0H377v-3h8.76zm10.23 0h-4.38v-3h4.38zm-54.02 0h-3.43v-3h3.44z" stroke="#e08fff" stroke-width=".05" fill="#e08fff"/><path d="M191.6 566.4h-1.53v-3h1.54zM397.46 566.4h-1.54v-3h1.54z" stroke="#e08fff" stroke-width=".05" fill="#e08fff"/><use xlink:href="#u" transform="matrix(1,0,0,1,249.02507231387614,554.2422889514186) translate(0 14.222222222222223)"/><use xlink:href="#v" transform="matrix(1,0,0,1,249.02507231387614,554.2422889514186) translate(52.938271604938286 14.222222222222223)"/><path d="M195.48 589.2h-4.38v-3h4.38zm14.6 0h-8.76v-3h8.76zm14.6 0h-8.76v-3h8.76zm14.6 0h-8.76v-3h8.76zm11.75 0h-5.9v-3h5.9zm105.04 0h-8.75v-3h8.75zm14.6 0h-8.76v-3h8.77zm14.6 0h-8.76v-3h8.77zm10.22 0h-4.4v-3h4.4zm-54.02 0h-5.9v-3h5.9z" stroke="#00c2a8" stroke-width=".05" fill="#00c2a8"/><path d="M191.14 589.2h-1.54v-3h1.54zM397 589.2h-1.54v-3H397z" stroke="#00c2a8" stroke-width=".05" fill="#00c2a8"/><use xlink:href="#w" transform="matrix(1,0,0,1,251.02509134484478,577.028306168277) translate(0 14.222222222222223)"/><use xlink:href="#v" transform="matrix(1,0,0,1,251.02509134484478,577.028306168277) translate(48.00000000000001 14.222222222222223)"/><path d="M1457.77 498.24a6 6 0 0 1 6-6h1218.27a6 6 0 0 1 6 6v535.24a6 6 0 0 1-6 6H1463.77a6 6 0 0 1-6-6z" stroke="#dbdbdb" stroke-width="3" fill="#f2f3f5"/><path d="M1836.2 562.18a19 19 0 0 1 19-19h456.83a19 19 0 0 1 19 19v147.6a19 19 0 0 1-19 19H1855.2a19 19 0 0 1-19-19zM2198.75 848.56a19 19 0 0 1 19-19h422a19 19 0 0 1 19 19V997.1a19 19 0 0 1-19 19h-422a19 19 0 0 1-19-19zM1491.02 848.56a19 19 0 0 1 19-19h422a19 19 0 0 1 19 19V997.1a19 19 0 0 1-19 19h-422a19 19 0 0 1-19-19z" stroke="#ced4db" stroke-width="3" fill="#ced4db"/><g filter="url(#d)"><path d="M2221.14 863.3a.5.5 0 0 0-.5.5v93.4a.5.5 0 0 0 .5.5h168.64a.5.5 0 0 0 .5-.5v-93.4a.5.5 0 0 0-.5-.5z" stroke="#315796" stroke-width="3" fill="#315796"/><use xlink:href="#x" transform="matrix(1,0,0,1,2230.4802599595323,874.3330261138427) translate(17.36979166666667 43.166666666666664)"/></g><g filter="url(#d)"><path d="M2461.14 863.3a.5.5 0 0 0-.5.5v93.4a.5.5 0 0 0 .5.5h168.64a.5.5 0 0 0 .5-.5v-93.4a.5.5 0 0 0-.5-.5z" stroke="#315796" stroke-width="3" fill="#315796"/><use xlink:href="#y" transform="matrix(1,0,0,1,2470.4802599595323,874.3330261138427) translate(16.796875000000007 43.166666666666664)"/></g><g filter="url(#d)"><path d="M1512.88 863.3a.5.5 0 0 0-.5.5v93.4a.5.5 0 0 0 .5.5h168.64a.5.5 0 0 0 .5-.5v-93.4a.5.5 0 0 0-.5-.5z" stroke="#315796" stroke-width="3" fill="#315796"/><use xlink:href="#z" transform="matrix(1,0,0,1,1522.2176386217811,874.3330261138427) translate(17.36979166666667 43.166666666666664)"/></g><g filter="url(#d)"><path d="M1752.88 863.3a.5.5 0 0 0-.5.5v93.4a.5.5 0 0 0 .5.5h168.64a.5.5 0 0 0 .5-.5v-93.4a.5.5 0 0 0-.5-.5z" stroke="#315796" stroke-width="3" fill="#315796"/><use xlink:href="#A" transform="matrix(1,0,0,1,1762.217638621781,874.3330261138427) translate(16.796875000000007 43.166666666666664)"/></g><g filter="url(#d)"><path d="M1859.62 600.56a.5.5 0 0 0-.5.5v93.42a.5.5 0 0 0 .5.5h168.63a.5.5 0 0 0 .5-.5v-93.42a.5.5 0 0 0-.5-.5z" stroke="#315796" stroke-width="3" fill="#315796"/><use xlink:href="#B" transform="matrix(1,0,0,1,1868.95493281577,611.6118128789795) translate(15.052083333333329 43.166666666666664)"/></g><g filter="url(#d)"><path d="M2139.62 600.56a.5.5 0 0 0-.5.5v93.42a.5.5 0 0 0 .5.5h168.63a.5.5 0 0 0 .5-.5v-93.42a.5.5 0 0 0-.5-.5z" stroke="#315796" stroke-width="3" fill="#315796"/><use xlink:href="#C" transform="matrix(1,0,0,1,2148.95493281577,611.6118128789795) translate(15.052083333333329 43.166666666666664)"/></g><path d="M1578.68 850.9l4-1.9m5.33-2.53l8-3.8m5.34-2.52l8-3.78m5.32-2.53l8-3.8m5.33-2.5l7.98-3.8m5.33-2.52l8-3.8m5.34-2.52l8-3.78m5.32-2.53l8-3.8m5.33-2.52l7.98-3.8m5.33-2.5l8-3.8m5.34-2.53l8-3.78m5.32-2.53l8-3.8m5.33-2.5l7.98-3.8m5.33-2.52l8-3.8m5.34-2.52l8-3.78m5.32-2.53l8-3.8m5.33-2.52l7.98-3.8m5.33-2.5l8-3.8m5.34-2.53l8-3.78m5.32-2.53l8-3.8m5.33-2.5l7.98-3.8m5.33-2.53l8-3.77m5.34-2.53l8-3.8m5.32-2.5l4-1.9" stroke="#e08fff" stroke-width="3" fill="none"/><path d="M1579.03 851.53H1574l-.03-.07 4.1-1.95zM1889.84 705.06l.03.07-4.1 1.94-.95-2.02z" stroke="#e08fff" stroke-width=".05" fill="#e08fff"/><path d="M1618 851.14l4.4-1.18m5.83-1.58l8.77-2.36m5.84-1.58l8.76-2.36m5.85-1.57l8.76-2.36m5.85-1.57l8.77-2.37m5.84-1.57l8.76-2.36m5.85-1.58l8.76-2.37m5.84-1.58l8.77-2.36m5.84-1.58l8.76-2.37m5.85-1.57l8.75-2.36m5.84-1.58l8.76-2.36m5.84-1.58l8.76-2.36m5.85-1.57l8.77-2.37m5.84-1.57l8.78-2.37m5.84-1.57l8.76-2.37m5.85-1.58l8.76-2.36m5.83-1.6l8.77-2.35m5.84-1.57l8.76-2.37m5.85-1.56l8.76-2.36m5.85-1.58l8.77-2.36m5.84-1.58l8.76-2.36m5.85-1.57l8.76-2.37m5.84-1.57l8.77-2.38m5.84-1.57l8.76-2.36m5.85-1.6l8.75-2.35m5.84-1.58l8.76-2.36m5.84-1.56l8.76-2.37M2008 746l8.77-2.36m5.84-1.58l8.78-2.36m5.84-1.58l8.76-2.36m5.85-1.57l8.76-2.38m5.83-1.57l8.77-2.36m5.84-1.6l8.76-2.35m5.85-1.58l8.76-2.36m5.85-1.57l8.77-2.36m5.84-1.57l8.76-2.37m5.85-1.57l8.76-2.36m5.84-1.58l4.4-1.18" stroke="#e08fff" stroke-width="3" fill="none"/><path d="M1618.15 851.53h-4.7l-.18-.67 4.38-1.18zM2163 705.05l.2.67-4.4 1.18-.5-1.85z" stroke="#e08fff" stroke-width=".05" fill="#e08fff"/><path d="M1818.34 850.3l2.44-3.6m3.25-4.8l4.88-7.2m3.26-4.8l4.87-7.2m3.25-4.8l4.88-7.2m3.25-4.8l4.88-7.2m3.25-4.8l4.88-7.2m3.26-4.8l4.88-7.2m3.25-4.8l4.86-7.2m3.25-4.8l4.9-7.2m3.24-4.8l4.87-7.2m3.26-4.8l4.88-7.2m3.25-4.8l4.86-7.2m3.25-4.8l2.45-3.6" stroke="#e08fff" stroke-width="3" fill="none"/><path d="M1819.6 851.1l-.3.43h-3.6l1.42-2.12zM1918.5 705.05l-1.43 2.1-2.48-1.67.28-.43z" stroke="#e08fff" stroke-width=".05" fill="#e08fff"/><path d="M1859.23 850.94l4.1-1.74m5.48-2.33l8.22-3.48m5.47-2.34l8.2-3.5m5.47-2.3l8.2-3.5m5.5-2.32l8.2-3.5m5.47-2.32l8.2-3.48m5.48-2.33l8.2-3.48m5.48-2.32l8.2-3.5m5.48-2.3l8.2-3.5m5.48-2.32l8.2-3.5m5.48-2.32l8.2-3.48m5.48-2.33l8.2-3.5m5.48-2.3l8.2-3.5m5.5-2.32l8.2-3.5m5.47-2.3l8.2-3.5m5.48-2.33l8.2-3.48m5.48-2.33l8.2-3.5m5.48-2.32l8.22-3.5m5.47-2.3l8.2-3.5m5.47-2.33l8.2-3.48m5.48-2.33l8.2-3.5m5.5-2.3l8.2-3.5m5.47-2.32l8.2-3.5m5.48-2.3l8.2-3.5m5.48-2.33l8.2-3.5m5.48-2.32l4.1-1.74" stroke="#e08fff" stroke-width="3" fill="none"/><path d="M1859.53 851.53h-4.94l-.1-.2 4.18-1.78zM2205.9 705.05l.1.2-4.18 1.78-.85-1.98z" stroke="#e08fff" stroke-width=".05" fill="#e08fff"/><path d="M2287.43 850.9l-4.2-1.88m-5.58-2.53l-8.37-3.8m-5.6-2.52l-8.37-3.8m-5.57-2.52l-8.38-3.8m-5.6-2.5l-8.36-3.8m-5.6-2.53l-8.38-3.8m-5.58-2.5l-8.38-3.8m-5.6-2.53l-8.36-3.8m-5.6-2.5l-8.37-3.8m-5.58-2.53l-8.38-3.8m-5.58-2.5l-8.4-3.8m-5.58-2.53l-8.38-3.8m-5.58-2.5l-8.38-3.8m-5.58-2.53l-8.38-3.78m-5.6-2.52l-8.37-3.8m-5.58-2.52l-8.38-3.8m-5.6-2.5l-8.37-3.8m-5.6-2.53l-8.36-3.78m-5.6-2.53l-8.37-3.8m-5.58-2.52l-8.38-3.78m-5.6-2.53l-8.36-3.78m-5.6-2.53l-8.37-3.8m-5.57-2.52l-8.38-3.8m-5.6-2.5l-4.17-1.9" stroke="#e08fff" stroke-width="3" fill="none"/><path d="M2292.15 851.4l-.06.13h-5l.9-2zM1966.6 705.05l-.9 2-4.14-1.87.06-.13z" stroke="#e08fff" stroke-width=".05" fill="#e08fff"/><path d="M2319.27 850.18l-1.92-3.92m-2.56-5.23l-3.85-7.85m-2.55-5.22l-3.84-7.85m-2.56-5.2l-3.83-7.86m-2.56-5.22l-3.83-7.85m-2.55-5.22l-3.84-7.85m-2.56-5.22l-3.83-7.85m-2.57-5.22l-3.84-7.84m-2.57-5.23l-3.83-7.84m-2.56-5.24l-3.83-7.84m-2.55-5.23l-3.84-7.85m-2.55-5.23l-1.9-3.92" stroke="#e08fff" stroke-width="3" fill="none"/><path d="M2321.6 851.52h-3.35l-.35-.72 2.7-1.32zM2249.95 705.06l.35.72-2.7 1.32-1-2.05z" stroke="#e08fff" stroke-width=".05" fill="#e08fff"/><path d="M2523.62 851.12l-4.3-1.2m-5.76-1.63l-8.63-2.44m-5.75-1.62l-8.63-2.43m-5.75-1.6l-8.63-2.43m-5.75-1.62l-8.63-2.43m-5.76-1.62l-8.62-2.42m-5.76-1.62l-8.62-2.43m-5.75-1.62l-8.64-2.42m-5.75-1.6l-8.62-2.44m-5.75-1.62l-8.63-2.43m-5.75-1.63l-8.63-2.42m-5.75-1.62l-8.62-2.43m-5.76-1.62l-8.63-2.43m-5.75-1.62l-8.63-2.42m-5.76-1.6l-8.63-2.44m-5.74-1.62l-8.63-2.43m-5.75-1.6l-8.63-2.43m-5.75-1.62l-8.62-2.43m-5.75-1.62l-8.63-2.42m-5.75-1.62l-8.63-2.43m-5.75-1.62l-8.63-2.42m-5.75-1.6l-8.64-2.44m-5.75-1.62l-8.6-2.43m-5.77-1.63l-8.62-2.42m-5.74-1.62l-8.63-2.43m-5.75-1.62l-8.63-2.43m-5.75-1.62l-8.63-2.42m-5.75-1.6l-8.63-2.44m-5.76-1.62l-8.62-2.43m-5.76-1.6l-8.62-2.43m-5.75-1.62l-8.64-2.43m-5.75-1.62l-8.62-2.42m-5.75-1.62l-8.63-2.43m-5.75-1.62l-8.63-2.42m-5.75-1.6l-8.62-2.44m-5.76-1.62l-8.63-2.43m-5.75-1.63l-4.32-1.2" stroke="#e08fff" stroke-width="3" fill="none"/><path d="M2528.36 850.9l-.18.63h-4.7l.5-1.86zM2006.16 705.05l-.53 1.86-4.37-1.22.18-.63z" stroke="#e08fff" stroke-width=".05" fill="#e08fff"/><path d="M2563.44 850.83l-3.96-2.07m-5.3-2.76l-7.93-4.15m-5.28-2.76l-7.94-4.16m-5.28-2.76l-7.94-4.15m-5.28-2.76l-7.93-4.15m-5.3-2.76l-7.93-4.14m-5.3-2.77l-7.92-4.14m-5.3-2.76l-7.92-4.14m-5.3-2.77l-7.92-4.14m-5.28-2.77l-7.93-4.15m-5.3-2.76l-7.93-4.15m-5.3-2.76l-7.92-4.14m-5.3-2.76l-7.92-4.15m-5.3-2.76l-7.92-4.15m-5.28-2.77l-7.93-4.14m-5.3-2.77l-7.94-4.14m-5.28-2.77l-7.94-4.14m-5.28-2.76l-7.94-4.15m-5.28-2.75l-7.94-4.15m-5.3-2.76l-7.92-4.15m-5.3-2.77l-7.92-4.15m-5.3-2.76l-3.95-2.07" stroke="#e08fff" stroke-width="3" fill="none"/><path d="M2568 851.53h-4.96l1.06-2.04zM2286.2 705.05l-1.05 2.04-3.92-2.05z" stroke="#e08fff" stroke-width=".05" fill="#e08fff"/><path d="M1865.44 682.53a.5.5 0 0 0-.5.5v21.03a.5.5 0 0 0 .5.5h37a.5.5 0 0 0 .5-.5v-21.03a.5.5 0 0 0-.5-.5z" stroke="#5e5e5e" fill="#fff"/><use xlink:href="#k" transform="matrix(1,0,0,1,1879.3377430928554,681.5649309668115) translate(0.49479166666666696 16.444444444444443)"/><path d="M1905.43 682.53a.5.5 0 0 0-.5.5v21.03a.5.5 0 0 0 .5.5h37a.5.5 0 0 0 .5-.5v-21.03a.5.5 0 0 0-.5-.5z" stroke="#5e5e5e" fill="#fff"/><use xlink:href="#l" transform="matrix(1,0,0,1,1919.3361690574516,681.5649309668115) translate(0.49479166666666696 16.444444444444443)"/><path d="M1945.44 682.53a.5.5 0 0 0-.5.5v21.03a.5.5 0 0 0 .5.5h37a.5.5 0 0 0 .5-.5v-21.03a.5.5 0 0 0-.5-.5z" stroke="#5e5e5e" fill="#fff"/><use xlink:href="#m" transform="matrix(1,0,0,1,1959.3385301105573,681.5649309668115) translate(0.49479166666666696 16.444444444444443)"/><path d="M1985.44 682.53a.5.5 0 0 0-.5.5v21.03a.5.5 0 0 0 .5.5h37a.5.5 0 0 0 .5-.5v-21.03a.5.5 0 0 0-.5-.5z" stroke="#5e5e5e" fill="#fff"/><use xlink:href="#n" transform="matrix(1,0,0,1,1999.3369560751541,681.5649309668115) translate(0.49479166666666696 16.444444444444443)"/><path d="M2145.44 682.53a.5.5 0 0 0-.5.5v21.03a.5.5 0 0 0 .5.5h37a.5.5 0 0 0 .5-.5v-21.03a.5.5 0 0 0-.5-.5z" stroke="#5e5e5e" fill="#fff"/><use xlink:href="#k" transform="matrix(1,0,0,1,2159.337743092856,681.5649309668115) translate(0.49479166666666696 16.444444444444443)"/><path d="M2185.43 682.53a.5.5 0 0 0-.5.5v21.03a.5.5 0 0 0 .5.5h37a.5.5 0 0 0 .5-.5v-21.03a.5.5 0 0 0-.5-.5z" stroke="#5e5e5e" fill="#fff"/><use xlink:href="#l" transform="matrix(1,0,0,1,2199.336169057453,681.5649309668115) translate(0.49479166666666696 16.444444444444443)"/><path d="M2225.44 682.53a.5.5 0 0 0-.5.5v21.03a.5.5 0 0 0 .5.5h37a.5.5 0 0 0 .5-.5v-21.03a.5.5 0 0 0-.5-.5z" stroke="#5e5e5e" fill="#fff"/><use xlink:href="#m" transform="matrix(1,0,0,1,2239.3385301105573,681.5649309668115) translate(0.49479166666666696 16.444444444444443)"/><path d="M2265.44 682.53a.5.5 0 0 0-.5.5v21.03a.5.5 0 0 0 .5.5h37a.5.5 0 0 0 .5-.5v-21.03a.5.5 0 0 0-.5-.5z" stroke="#5e5e5e" fill="#fff"/><use xlink:href="#n" transform="matrix(1,0,0,1,2279.3369560751544,681.5649309668115) translate(0.49479166666666696 16.444444444444443)"/><path d="M1559.16 852.02a.5.5 0 0 0-.5.5v21.03a.5.5 0 0 0 .5.5h37a.5.5 0 0 0 .5-.5v-21.03a.5.5 0 0 0-.5-.5z" stroke="#5e5e5e" fill="#fff"/><use xlink:href="#k" transform="matrix(1,0,0,1,1573.0582852034995,851.0459971411274) translate(0.49479166666666696 16.444444444444443)"/><path d="M1598.24 852.02a.5.5 0 0 0-.5.5v21.03a.5.5 0 0 0 .5.5h37a.5.5 0 0 0 .5-.5v-21.03a.5.5 0 0 0-.5-.5z" stroke="#5e5e5e" fill="#fff"/><use xlink:href="#l" transform="matrix(1,0,0,1,1612.1418255765325,851.0459971411274) translate(0.49479166666666696 16.444444444444443)"/><path d="M1798.7 852.02a.5.5 0 0 0-.5.5v21.03a.5.5 0 0 0 .5.5h37a.5.5 0 0 0 .5-.5v-21.03a.5.5 0 0 0-.5-.5z" stroke="#5e5e5e" fill="#fff"/><use xlink:href="#k" transform="matrix(1,0,0,1,1812.6008424077177,851.0459971411274) translate(0.49479166666666696 16.444444444444443)"/><path d="M1838.7 852.02a.5.5 0 0 0-.5.5v21.03a.5.5 0 0 0 .5.5h37a.5.5 0 0 0 .5-.5v-21.03a.5.5 0 0 0-.5-.5z" stroke="#5e5e5e" fill="#fff"/><use xlink:href="#l" transform="matrix(1,0,0,1,1852.5992683723139,851.0459971411274) translate(0.49479166666666696 16.444444444444443)"/><path d="M2266.96 852.02a.5.5 0 0 0-.5.5v21.03a.5.5 0 0 0 .5.5h37a.5.5 0 0 0 .5-.5v-21.03a.5.5 0 0 0-.5-.5z" stroke="#5e5e5e" fill="#fff"/><use xlink:href="#k" transform="matrix(1,0,0,1,2280.8634637454697,851.0459971411274) translate(0.49479166666666696 16.444444444444443)"/><path d="M2306.96 852.02a.5.5 0 0 0-.5.5v21.03a.5.5 0 0 0 .5.5h37a.5.5 0 0 0 .5-.5v-21.03a.5.5 0 0 0-.5-.5z" stroke="#5e5e5e" fill="#fff"/><use xlink:href="#l" transform="matrix(1,0,0,1,2320.861889710066,851.0459971411274) translate(0.49479166666666696 16.444444444444443)"/><path d="M2506.96 852.02a.5.5 0 0 0-.5.5v21.03a.5.5 0 0 0 .5.5h37a.5.5 0 0 0 .5-.5v-21.03a.5.5 0 0 0-.5-.5z" stroke="#5e5e5e" fill="#fff"/><use xlink:href="#k" transform="matrix(1,0,0,1,2520.8634637454693,851.0459971411274) translate(0.49479166666666696 16.444444444444443)"/><path d="M2546.96 852.02a.5.5 0 0 0-.5.5v21.03a.5.5 0 0 0 .5.5h37a.5.5 0 0 0 .5-.5v-21.03a.5.5 0 0 0-.5-.5z" stroke="#5e5e5e" fill="#fff"/><use xlink:href="#l" transform="matrix(1,0,0,1,2560.8618897100655,851.0459971411274) translate(0.49479166666666696 16.444444444444443)"/><path d="M1457.77 492.24h1230.27v60H1457.77z" fill="none"/><use xlink:href="#D" transform="matrix(1,0,0,1,1457.765315470839,492.2399961785118) translate(586.6913580246913 35.77777777777778)"/><path d="M2398.45 852.94h49.66v33h-49.65z" fill="none"/><use xlink:href="#p" transform="matrix(1,0,0,1,2398.4548715159576,852.936661713964) translate(10.762345679012348 19.61111111111111)"/><path d="M1692.45 852.94h49.66v33h-49.65z" fill="none"/><use xlink:href="#p" transform="matrix(1,0,0,1,1692.4548715159572,852.936661713964) translate(10.762345679012348 19.61111111111111)"/><path d="M1993.1 557.4h161.6v36h-161.6z" fill="none"/><use xlink:href="#E" transform="matrix(1,0,0,1,1993.0974398379717,557.4004517585302) translate(34.73456790123456 22.944444444444443)"/><path d="M1640.2 980.1h161.62v36h-161.6z" fill="none"/><use xlink:href="#F" transform="matrix(1,0,0,1,1640.2097665194856,980.0974341564606) translate(34.73456790123456 22.944444444444443)"/><path d="M2347.95 980.1h161.6v36h-161.6z" fill="none"/><use xlink:href="#G" transform="matrix(1,0,0,1,2347.9478477311754,980.0974341564606) translate(34.73456790123456 22.944444444444443)"/><path d="M1000.5 940.97a.5.5 0 0 0-.5.5v21.03a.5.5 0 0 0 .5.5h37a.5.5 0 0 0 .5-.5v-21.03a.5.5 0 0 0-.5-.5z" stroke="#5e5e5e" fill="#fff"/><use xlink:href="#H" transform="matrix(1,0,0,1,1014.4014034405819,940) translate(0.49479166666666696 16.444444444444443)"/><path d="M1241.96 940.97a.5.5 0 0 0-.5.5v21.03a.5.5 0 0 0 .5.5h37a.5.5 0 0 0 .5-.5v-21.03a.5.5 0 0 0-.5-.5z" stroke="#5e5e5e" fill="#fff"/><use xlink:href="#I" transform="matrix(1,0,0,1,1255.866049342807,940) translate(0.49479166666666696 16.444444444444443)"/><path d="M2286.96 940.97a.5.5 0 0 0-.5.5v21.03a.5.5 0 0 0 .5.5h37a.5.5 0 0 0 .5-.5v-21.03a.5.5 0 0 0-.5-.5z" stroke="#5e5e5e" fill="#fff"/><use xlink:href="#H" transform="matrix(1,0,0,1,2300.862676727767,940) translate(0.49479166666666696 16.444444444444443)"/><path d="M2526.96 940.97a.5.5 0 0 0-.5.5v21.03a.5.5 0 0 0 .5.5h37a.5.5 0 0 0 .5-.5v-21.03a.5.5 0 0 0-.5-.5z" stroke="#5e5e5e" fill="#fff"/><use xlink:href="#I" transform="matrix(1,0,0,1,2540.862676727767,940) translate(0.49479166666666696 16.444444444444443)"/><path d="M1015.05 964.98v4.5m0 6v9m0 6v9m0 6v9m.48 5.52h9m6 0h9m6 0h9m6 0h9m6 0h9m6 0h9m6 0h9m6 0h9m6 0h9m6 0h9m6 0h9m6 0h9m6 0h9m6 0h9m6 0h9m6 0h9m6 0h9m6 0h9m6 0h9m6 0h9m6 0h9m6 0h9m6 0h9m6 0h9m6 0h9m6 0h9m6 0h9m6 0h9m6 0h9m6 0h9m6 0h9m6 0h9m6 0h9m6 0h9m6 0h9m6 0h9m6 0h9m6 0h9m6 0h9m6 0h9m6 0h9m6 0h9m6 0h9m6 0h9m6 0h9m6 0h9m6 0h9m6 0h9m6 0h9m6 0h9m6 0h9m6 0h9m6 0h9m6 0h9m6 0h9m6 0h9m6 0h9m6 0h9m6 0h9m6 0h9m6 0h9m6 0h9m6 0h9m6 0h9m6 0h9m6 0h9m6 0h9m6 0h9m6 0h9m6 0h9m6 0h9m6 0h9m6 0h9m6 0h9m6 0h9m6 0h9m6 0h9m6 0h9m6 0h9m6 0h9m6 0h9m6 0h9m6 0h9m6 0h9m6 0h9m6 0h9m.62-5.53l.24-9m.15-6l.24-9m.15-6l.24-9m.15-6l.12-4.5" stroke="#e08fff" stroke-width="3" fill="none"/><path d="M1016.55 963.5V965h-3v-1.54zM2303 963.5l-.03 1.56-3-.08.04-1.5z" stroke="#e08fff" stroke-width=".05" fill="#e08fff"/><path d="M1260.1 965v4.5m0 6v9.02m0 6v9.02m0 6v9.03m0 6v9.02m0 6v4.4h4.6m6 0h9.03m6 0h9.02m6 0h9.02m6 0h9.03m6 0h9.02m6 0h9.03m6 0h9.02m6 0h9.02m6 0h9.02m6 0h9.02m6 0h9.03m6 0h9.02m6 0h9m6.02 0h9.02m6 0h9.02m6 0h9.03m6 0h9m6.02 0h9m6.02 0h9.02m6 0h9.02m6 0h9.03m6.02 0h9m6.02 0h9m6.02 0h9.02m6 0h9.02m6 0h9.03m6 0h9.02m6 0h9.02m6 0h9.03m6 0h9.02m6 0h9.03m6 0h9.02m6 0h9.02m6 0h9.02m6 0h9.02m6 0h9.03m6 0h9.02m6 0h9m6.02 0h9.02m6 0h9.02m6 0h9.03m6 0h9m6.02 0h9m6.02 0h9.02m6 0h9.02m6 0h9.03m6.02 0h9m6.02 0h9m6.02 0h9.02m6 0h9.02m6 0h9.03m6 0h9.02m6 0h9.03m6 0h9.02m6 0h9.02m6 0h9.03m6 0h9.02m6 0h9.03m6 0h9.02m6 0h9.02m6 0h9.03m6 0h9.02m6 0h9.02m6 0h9.02m6 0h9.02m6 0h9.03m6 0h9m6.02 0h9.02m6 0h9.02m6 0h9.02m6 0h9.03m6.02 0h9m6.02 0h9.02m6 0h9.02m6 0h9.02m6 0h9.03m6 0h9.02m6 0h9.03m6 0h9.02m6 0h9.02m6 0h9.03m6 0h9.02m6 0h9.03m6 0h9.02m6 0h9.02m6 0h.33v-8.7m0-6v-9.02m0-6v-9.02m0-6v-9.03m0-6v-9.02m0-6v-4.5" stroke="#e08fff" stroke-width="3" fill="none"/><path d="M1261.6 963.5v1.53h-3v-1.54zM2549.57 959.2v1.53h-3v-1.54z" stroke="#e08fff" stroke-width=".05" fill="#e08fff"/><defs><path fill="#333" d="M76-208v77h127v40H76V0H24v-248h183v40H76" id="J"/><path fill="#333" d="M199 0l-22-63H83L61 0H9l90-248h61L250 0h-51zm-33-102l-36-108c-10 38-24 72-36 108h72" id="K"/><path fill="#333" d="M182-130c37 4 62 22 62 59C244 23 116-4 24 0v-248c84 5 203-23 205 63 0 31-19 50-47 55zM76-148c40-3 101 13 101-30 0-44-60-28-101-31v61zm0 110c48-3 116 14 116-37 0-48-69-32-116-35v72" id="L"/><path fill="#333" d="M240-174c0 40-23 61-54 70L253 0h-59l-57-94H76V0H24v-248c93 4 217-23 216 74zM76-134c48-2 112 12 112-38 0-48-66-32-112-35v73" id="M"/><path fill="#333" d="M24 0v-248h52V0H24" id="N"/><path fill="#333" d="M67-125c0 53 21 87 73 88 37 1 54-22 65-47l45 17C233-25 199 4 140 4 58 4 20-42 15-125 8-235 124-281 211-232c18 10 29 29 36 50l-46 12c-8-25-30-41-62-41-52 0-71 34-72 86" id="O"/><g id="a"><use transform="matrix(0.06172839506172839,0,0,0.06172839506172839,0,0)" xlink:href="#J"/><use transform="matrix(0.06172839506172839,0,0,0.06172839506172839,12.28395061728395,0)" xlink:href="#K"/><use transform="matrix(0.06172839506172839,0,0,0.06172839506172839,28.2716049382716,0)" xlink:href="#L"/><use transform="matrix(0.06172839506172839,0,0,0.06172839506172839,44.25925925925925,0)" xlink:href="#M"/><use transform="matrix(0.06172839506172839,0,0,0.06172839506172839,60.246913580246904,0)" xlink:href="#N"/><use transform="matrix(0.06172839506172839,0,0,0.06172839506172839,66.41975308641975,0)" xlink:href="#O"/></g><path fill="#333" d="M67-125c0 54 23 88 75 88 28 0 53-7 68-21v-34h-60v-39h108v91C232-14 192 4 140 4 58 4 20-42 15-125 8-236 126-280 215-234c19 10 29 26 37 47l-47 15c-11-23-29-39-63-39-53 1-75 33-75 86" id="P"/><path fill="#333" d="M24-248c93 1 206-16 204 79-1 75-69 88-152 82V0H24v-248zm52 121c47 0 100 7 100-41 0-47-54-39-100-39v80" id="Q"/><g id="b"><use transform="matrix(0.07407407407407407,0,0,0.07407407407407407,0,0)" xlink:href="#L"/><use transform="matrix(0.07407407407407407,0,0,0.07407407407407407,19.185185185185183,0)" xlink:href="#P"/><use transform="matrix(0.07407407407407407,0,0,0.07407407407407407,39.925925925925924,0)" xlink:href="#Q"/></g><path fill="#333" d="M140-251c80 0 125 45 125 126S219 4 139 4C58 4 15-44 15-125s44-126 125-126zm-1 214c52 0 73-35 73-88 0-50-21-86-72-86-52 0-73 35-73 86s22 88 72 88" id="R"/><path fill="#333" d="M128 0H69L1-190h53L99-40l48-150h52" id="S"/><path fill="#333" d="M185-48c-13 30-37 53-82 52C43 2 14-33 14-96s30-98 90-98c62 0 83 45 84 108H66c0 31 8 55 39 56 18 0 30-7 34-22zm-45-69c5-46-57-63-70-21-2 6-4 13-4 21h74" id="T"/><path fill="#333" d="M135-150c-39-12-60 13-60 57V0H25l-1-190h47c2 13-1 29 3 40 6-28 27-53 61-41v41" id="U"/><path fill="#333" d="M25 0v-261h50V0H25" id="V"/><path fill="#333" d="M133-34C117-15 103 5 69 4 32 3 11-16 11-54c-1-60 55-63 116-61 1-26-3-47-28-47-18 1-26 9-28 27l-52-2c7-38 36-58 82-57s74 22 75 68l1 82c-1 14 12 18 25 15v27c-30 8-71 5-69-32zm-48 3c29 0 43-24 42-57-32 0-66-3-65 30 0 17 8 27 23 27" id="W"/><path fill="#333" d="M123 10C108 53 80 86 19 72V37c35 8 53-11 59-39L3-190h52l48 148c12-52 28-100 44-148h51" id="X"/><g id="c"><use transform="matrix(0.07407407407407407,0,0,0.07407407407407407,0,0)" xlink:href="#R"/><use transform="matrix(0.07407407407407407,0,0,0.07407407407407407,20.74074074074074,0)" xlink:href="#S"/><use transform="matrix(0.07407407407407407,0,0,0.07407407407407407,35.55555555555556,0)" xlink:href="#T"/><use transform="matrix(0.07407407407407407,0,0,0.07407407407407407,50.37037037037037,0)" xlink:href="#U"/><use transform="matrix(0.07407407407407407,0,0,0.07407407407407407,60.74074074074074,0)" xlink:href="#V"/><use transform="matrix(0.07407407407407407,0,0,0.07407407407407407,68.14814814814814,0)" xlink:href="#W"/><use transform="matrix(0.07407407407407407,0,0,0.07407407407407407,82.96296296296295,0)" xlink:href="#X"/></g><path fill="#fff" d="M483-1012c112 0 179 37 238 92v-517h254V0H818c-73 2-64-82-83-135C661-54 570 15 422 15 157 15 63-214 63-494c0-232 92-397 247-478 52-26 110-40 173-40zM325-494c0 166 29 308 186 308 106 0 161-51 210-111v-438c-43-55-93-85-178-85-170 0-218 146-218 326" id="Y"/><path fill="#fff" d="M836-149C753-51 641 15 467 15 259 15 147-118 88-282c-42-119-44-295-4-419 59-179 186-308 419-308 153 0 247 58 325 142-30 37-55 81-89 113-66 29-96-36-151-51-19-5-41-11-69-11-164 0-199 147-204 317-6 202 85 372 277 308 37-12 60-40 86-61 24-21 64-16 84 9" id="Z"/><path fill="#fff" d="M236-180h257c2-279-3-565 3-840L323-871c-27 30-91 18-110-9l-76-104 399-346h198v1150h227V0H236v-180" id="aa"/><path fill="#fff" d="M61-690h505v212H61v-212" id="ab"/><path fill="#fff" d="M379-1437V0H125v-1437h254" id="ac"/><path fill="#fff" d="M960-149C871-45 736 15 551 15 231 15 63-191 63-518c0-229 113-378 277-452 59-26 125-39 199-39 278 0 430 170 430 452 0 55-4 97-59 97H316c14 166 83 276 257 279 98 1 159-38 221-71 33-18 71-20 93 9zM741-612c-4-130-65-216-197-216-140 0-203 89-223 216h420" id="ad"/><path fill="#fff" d="M534-1012c240 0 371 147 371 387V0c-80-7-186 24-201-53l-22-66C598-47 516 18 362 15 183 12 73-75 73-255c0-177 142-239 303-283 75-20 169-31 281-34 9-142-26-239-155-239-97 0-149 37-209 70-49 27-108 2-128-33l-46-80c103-96 231-158 415-158zM316-268c-2 80 48 110 125 110 107 0 156-41 216-100v-160c-111 5-199 15-269 48-43 21-70 49-72 102" id="ae"/><path fill="#fff" d="M562-1233c-141 0-169 100-160 247h230v180H410V0H156v-806c-55-15-135-9-136-77v-103h136c-14-277 106-437 363-437 48 0 83 7 122 18l-6 127c-1 39-36 45-73 45" id="af"/><path fill="#fff" d="M89-955c40-238 181-388 449-388 250 0 409 134 409 381 0 232-139 347-258 472L407-195c126-46 310-24 475-29 49-1 86 32 85 80V0H69c-2-76 0-138 43-180 161-160 326-321 472-494 63-74 110-153 115-281 6-143-107-217-242-175-61 19-100 69-121 131-19 56-46 79-119 66" id="ag"/><g id="e"><use transform="matrix(0.013020833333333334,0,0,0.013020833333333334,0,0)" xlink:href="#Y"/><use transform="matrix(0.013020833333333334,0,0,0.013020833333333334,14.309895833333334,0)" xlink:href="#Z"/><use transform="matrix(0.013020833333333334,0,0,0.013020833333333334,25.46875,0)" xlink:href="#aa"/><use transform="matrix(0.013020833333333334,0,0,0.013020833333333334,38.984375,0)" xlink:href="#ab"/><use transform="matrix(0.013020833333333334,0,0,0.013020833333333334,47.1484375,0)" xlink:href="#ac"/><use transform="matrix(0.013020833333333334,0,0,0.013020833333333334,53.69791666666667,0)" xlink:href="#ad"/><use transform="matrix(0.013020833333333334,0,0,0.013020833333333334,67.12239583333333,0)" xlink:href="#ae"/><use transform="matrix(0.013020833333333334,0,0,0.013020833333333334,80.14322916666666,0)" xlink:href="#af"/><use transform="matrix(0.013020833333333334,0,0,0.013020833333333334,88.58072916666666,0)" xlink:href="#ag"/><use transform="matrix(0.013020833333333334,0,0,0.013020833333333334,102.09635416666666,0)" xlink:href="#ae"/></g><filter id="d" filterUnits="objectBoundingBox" x="-.06" y="-.04" width="1.12" height="1.21"><feOffset result="offOut" in="SourceAlpha" dy="6"/><feGaussianBlur result="blurOut" in="offOut" stdDeviation="5"/><feColorMatrix result="colorOut" in="blurOut" values="0 0 0 0 0 0 0 0 0 0 0 0 0 0 0 0 0 0 0.5019607843137255 0"/><feBlend in="SourceGraphic" in2="colorOut"/></filter><path fill="#fff" d="M619 15c-128 0-198-56-256-127-11 50-5 112-70 112H124v-1437h254v561c71-71 156-133 289-133 266 0 369 213 369 487 0 241-87 415-246 498-51 26-108 39-171 39zm155-527c0-166-35-299-195-299-102 0-149 49-201 111v438c43 54 92 85 176 85 177 0 220-149 220-335" id="ah"/><g id="f"><use transform="matrix(0.013020833333333334,0,0,0.013020833333333334,0,0)" xlink:href="#Y"/><use transform="matrix(0.013020833333333334,0,0,0.013020833333333334,14.309895833333334,0)" xlink:href="#Z"/><use transform="matrix(0.013020833333333334,0,0,0.013020833333333334,25.46875,0)" xlink:href="#aa"/><use transform="matrix(0.013020833333333334,0,0,0.013020833333333334,38.984375,0)" xlink:href="#ab"/><use transform="matrix(0.013020833333333334,0,0,0.013020833333333334,47.1484375,0)" xlink:href="#ac"/><use transform="matrix(0.013020833333333334,0,0,0.013020833333333334,53.69791666666667,0)" xlink:href="#ad"/><use transform="matrix(0.013020833333333334,0,0,0.013020833333333334,67.12239583333333,0)" xlink:href="#ae"/><use transform="matrix(0.013020833333333334,0,0,0.013020833333333334,80.14322916666666,0)" xlink:href="#af"/><use transform="matrix(0.013020833333333334,0,0,0.013020833333333334,88.58072916666666,0)" xlink:href="#ag"/><use transform="matrix(0.013020833333333334,0,0,0.013020833333333334,102.09635416666666,0)" xlink:href="#ah"/></g><g id="g"><use transform="matrix(0.013020833333333334,0,0,0.013020833333333334,0,0)" xlink:href="#Y"/><use transform="matrix(0.013020833333333334,0,0,0.013020833333333334,14.309895833333334,0)" xlink:href="#Z"/><use transform="matrix(0.013020833333333334,0,0,0.013020833333333334,25.46875,0)" xlink:href="#aa"/><use transform="matrix(0.013020833333333334,0,0,0.013020833333333334,38.984375,0)" xlink:href="#ab"/><use transform="matrix(0.013020833333333334,0,0,0.013020833333333334,47.1484375,0)" xlink:href="#ac"/><use transform="matrix(0.013020833333333334,0,0,0.013020833333333334,53.69791666666667,0)" xlink:href="#ad"/><use transform="matrix(0.013020833333333334,0,0,0.013020833333333334,67.12239583333333,0)" xlink:href="#ae"/><use transform="matrix(0.013020833333333334,0,0,0.013020833333333334,80.14322916666666,0)" xlink:href="#af"/><use transform="matrix(0.013020833333333334,0,0,0.013020833333333334,88.58072916666666,0)" xlink:href="#aa"/><use transform="matrix(0.013020833333333334,0,0,0.013020833333333334,102.09635416666666,0)" xlink:href="#ae"/></g><g id="h"><use transform="matrix(0.013020833333333334,0,0,0.013020833333333334,0,0)" xlink:href="#Y"/><use transform="matrix(0.013020833333333334,0,0,0.013020833333333334,14.309895833333334,0)" xlink:href="#Z"/><use transform="matrix(0.013020833333333334,0,0,0.013020833333333334,25.46875,0)" xlink:href="#aa"/><use transform="matrix(0.013020833333333334,0,0,0.013020833333333334,38.984375,0)" xlink:href="#ab"/><use transform="matrix(0.013020833333333334,0,0,0.013020833333333334,47.1484375,0)" xlink:href="#ac"/><use transform="matrix(0.013020833333333334,0,0,0.013020833333333334,53.69791666666667,0)" xlink:href="#ad"/><use transform="matrix(0.013020833333333334,0,0,0.013020833333333334,67.12239583333333,0)" xlink:href="#ae"/><use transform="matrix(0.013020833333333334,0,0,0.013020833333333334,80.14322916666666,0)" xlink:href="#af"/><use transform="matrix(0.013020833333333334,0,0,0.013020833333333334,88.58072916666666,0)" xlink:href="#aa"/><use transform="matrix(0.013020833333333334,0,0,0.013020833333333334,102.09635416666666,0)" xlink:href="#ah"/></g><path fill="#fff" d="M80-702c6-234 206-338 457-298 93 15 166 59 220 115-26 37-46 85-79 115-8 4-17 7-28 7-73 0-113-61-203-61-94 0-160 79-107 152 93 83 270 88 356 179 39 42 70 95 69 176C761-63 553 47 286 6 191-9 109-52 51-106c29-40 47-92 85-123 77-33 115 38 178 55 22 6 48 12 80 12 81 0 133-35 133-110 0-69-60-91-116-111C252-440 75-483 80-702" id="ai"/><path fill="#fff" d="M615 15c-112 0-178-37-238-91v398H123V-993c65 5 149-11 197 11 31 24 28 81 42 121 74-81 161-151 314-151 265 0 360 229 360 508 0 232-93 399-248 480-52 26-109 39-173 39zm159-519c0-165-29-307-185-307-108 0-158 47-212 111v440c43 53 94 83 178 83 171 0 219-146 219-327" id="aj"/><path fill="#fff" d="M379-993V0H125v-993h254zm-132-444c97 0 163 62 163 159 0 96-66 158-163 158-94 0-157-63-157-158s62-159 157-159" id="ak"/><path fill="#fff" d="M582-811c-92 1-152 44-204 95V0H124v-993c65 5 150-14 196 11 30 17 27 71 39 107 74-72 158-134 301-134 225 0 332 151 332 377V0H738v-632c0-109-49-180-156-179" id="al"/><g id="i"><use transform="matrix(0.013020833333333334,0,0,0.013020833333333334,0,0)" xlink:href="#Y"/><use transform="matrix(0.013020833333333334,0,0,0.013020833333333334,14.309895833333334,0)" xlink:href="#Z"/><use transform="matrix(0.013020833333333334,0,0,0.013020833333333334,25.46875,0)" xlink:href="#aa"/><use transform="matrix(0.013020833333333334,0,0,0.013020833333333334,38.984375,0)" xlink:href="#ab"/><use transform="matrix(0.013020833333333334,0,0,0.013020833333333334,47.1484375,0)" xlink:href="#ai"/><use transform="matrix(0.013020833333333334,0,0,0.013020833333333334,57.786458333333336,0)" xlink:href="#aj"/><use transform="matrix(0.013020833333333334,0,0,0.013020833333333334,72.09635416666667,0)" xlink:href="#ak"/><use transform="matrix(0.013020833333333334,0,0,0.013020833333333334,78.64583333333334,0)" xlink:href="#al"/><use transform="matrix(0.013020833333333334,0,0,0.013020833333333334,92.95572916666667,0)" xlink:href="#ad"/><use transform="matrix(0.013020833333333334,0,0,0.013020833333333334,106.38020833333334,0)" xlink:href="#aa"/></g><g id="j"><use transform="matrix(0.013020833333333334,0,0,0.013020833333333334,0,0)" xlink:href="#Y"/><use transform="matrix(0.013020833333333334,0,0,0.013020833333333334,14.309895833333334,0)" xlink:href="#Z"/><use transform="matrix(0.013020833333333334,0,0,0.013020833333333334,25.46875,0)" xlink:href="#aa"/><use transform="matrix(0.013020833333333334,0,0,0.013020833333333334,38.984375,0)" xlink:href="#ab"/><use transform="matrix(0.013020833333333334,0,0,0.013020833333333334,47.1484375,0)" xlink:href="#ai"/><use transform="matrix(0.013020833333333334,0,0,0.013020833333333334,57.786458333333336,0)" xlink:href="#aj"/><use transform="matrix(0.013020833333333334,0,0,0.013020833333333334,72.09635416666667,0)" xlink:href="#ak"/><use transform="matrix(0.013020833333333334,0,0,0.013020833333333334,78.64583333333334,0)" xlink:href="#al"/><use transform="matrix(0.013020833333333334,0,0,0.013020833333333334,92.95572916666667,0)" xlink:href="#ad"/><use transform="matrix(0.013020833333333334,0,0,0.013020833333333334,106.38020833333334,0)" xlink:href="#ag"/></g><path d="M236-180h257c2-279-3-565 3-840L323-871c-27 30-91 18-110-9l-76-104 399-346h198v1150h227V0H236v-180" id="am"/><use transform="matrix(0.008680555555555554,0,0,0.008680555555555554,0,0)" xlink:href="#am" id="k"/><path d="M89-955c40-238 181-388 449-388 250 0 409 134 409 381 0 232-139 347-258 472L407-195c126-46 310-24 475-29 49-1 86 32 85 80V0H69c-2-76 0-138 43-180 161-160 326-321 472-494 63-74 110-153 115-281 6-143-107-217-242-175-61 19-100 69-121 131-19 56-46 79-119 66" id="an"/><use transform="matrix(0.008680555555555554,0,0,0.008680555555555554,0,0)" xlink:href="#an" id="l"/><path d="M113-955c38-239 181-388 448-388 186 0 310 81 369 209 18 42 27 87 27 134 1 168-77 256-203 297 151 51 227 154 227 307C981-126 800 8 532 14 260 20 143-131 76-338c63-25 186-102 236-14 46 82 93 164 218 164 130 0 203-76 210-200 9-175-112-206-288-206v-171c158-2 269-37 269-193 0-117-60-182-173-183-99-1-165 67-190 142-19 57-44 79-118 66" id="ao"/><use transform="matrix(0.008680555555555554,0,0,0.008680555555555554,0,0)" xlink:href="#ao" id="m"/><path d="M1007-505c-9 70 29 185-49 186H854V0H644v-319H105c-83-4-69-108-90-173l609-837h230v824h153zm-363 0c3-182-8-376 8-546L269-505h375" id="ap"/><use transform="matrix(0.008680555555555554,0,0,0.008680555555555554,0,0)" xlink:href="#ap" id="n"/><path fill="#979ea8" d="M24-248c120-7 223 5 221 122C244-46 201 0 124 0H24v-248zM76-40c74 7 117-18 117-86 0-67-45-88-117-82v168" id="aq"/><path fill="#979ea8" d="M67-125c0 53 21 87 73 88 37 1 54-22 65-47l45 17C233-25 199 4 140 4 58 4 20-42 15-125 8-235 124-281 211-232c18 10 29 29 36 50l-46 12c-8-25-30-41-62-41-52 0-71 34-72 86" id="ar"/><path fill="#979ea8" d="M23 0v-37h61v-169l-59 37v-38l62-41h46v211h57V0H23" id="as"/><g id="o"><use transform="matrix(0.08024691358024691,0,0,0.08024691358024691,0,0)" xlink:href="#aq"/><use transform="matrix(0.08024691358024691,0,0,0.08024691358024691,20.78395061728395,0)" xlink:href="#ar"/><use transform="matrix(0.08024691358024691,0,0,0.08024691358024691,41.5679012345679,0)" xlink:href="#as"/></g><path fill="#333" d="M110-194c64 0 96 36 96 99 0 64-35 99-97 99-61 0-95-36-95-99 0-62 34-99 96-99zm-1 164c35 0 45-28 45-65 0-40-10-65-43-65-34 0-45 26-45 65 0 36 10 65 43 65" id="at"/><path fill="#333" d="M128-127c34 4 56 21 59 58 7 91-148 94-172 28-4-9-6-17-7-26l51-5c1 24 16 35 40 36 23 0 39-12 38-36-1-31-31-36-65-34v-40c32 2 59-3 59-33 0-20-13-33-34-33s-33 13-35 32l-50-3c6-44 37-68 86-68 50 0 83 20 83 66 0 35-22 52-53 58" id="au"/><g id="p"><use transform="matrix(0.04320987654320987,0,0,0.04320987654320987,0,0)" xlink:href="#Q"/><use transform="matrix(0.04320987654320987,0,0,0.04320987654320987,10.370370370370368,0)" xlink:href="#at"/><use transform="matrix(0.04320987654320987,0,0,0.04320987654320987,19.83333333333333,0)" xlink:href="#au"/></g><path fill="#333" d="M169-182c-1-43-94-46-97-3 18 66 151 10 154 114 3 95-165 93-204 36-6-8-10-19-12-30l50-8c3 46 112 56 116 5-17-69-150-10-154-114-4-87 153-88 188-35 5 8 8 18 10 28" id="av"/><path fill="#333" d="M115-159c48 0 72 30 72 78 0 54-30 85-83 85-64 0-91-50-91-122 0-98 58-163 141-120 15 8 21 24 27 44l-47 6c-5-31-48-31-61-4-7 14-11 33-11 60 9-17 28-27 53-27zM102-35c24 0 36-20 36-45s-11-43-37-43c-23 0-36 14-36 38 0 27 11 50 37 50" id="aw"/><path fill="#333" d="M139-81c0-46-55-55-73-27H18l9-140h149v37H72l-4 63c44-38 133-4 122 66C201 21 21 35 11-62l49-4c5 18 15 30 39 30 26 0 40-18 40-45" id="ax"/><path fill="#333" d="M23 0v-37h61v-169l-59 37v-38l62-41h46v211h57V0H23" id="ay"/><path fill="#333" d="M101-251c68 0 84 54 84 127C185-50 166 4 99 4S15-52 14-124c-1-75 17-127 87-127zm-1 216c37-5 36-46 36-89s4-89-36-89c-39 0-36 45-36 89 0 43-3 85 36 89" id="az"/><g id="q"><use transform="matrix(0.06172839506172839,0,0,0.06172839506172839,0,0)" xlink:href="#K"/><use transform="matrix(0.06172839506172839,0,0,0.06172839506172839,15.987654320987653,0)" xlink:href="#av"/><use transform="matrix(0.06172839506172839,0,0,0.06172839506172839,30.80246913580247,0)" xlink:href="#aw"/><use transform="matrix(0.06172839506172839,0,0,0.06172839506172839,43.148148148148145,0)" xlink:href="#ax"/><use transform="matrix(0.06172839506172839,0,0,0.06172839506172839,55.49382716049382,0)" xlink:href="#ay"/><use transform="matrix(0.06172839506172839,0,0,0.06172839506172839,67.8395061728395,0)" xlink:href="#az"/><use transform="matrix(0.06172839506172839,0,0,0.06172839506172839,80.18518518518519,0)" xlink:href="#az"/></g><g id="r"><use transform="matrix(0.06172839506172839,0,0,0.06172839506172839,0,0)" xlink:href="#K"/><use transform="matrix(0.06172839506172839,0,0,0.06172839506172839,15.987654320987653,0)" xlink:href="#av"/><use transform="matrix(0.06172839506172839,0,0,0.06172839506172839,30.80246913580247,0)" xlink:href="#aw"/><use transform="matrix(0.06172839506172839,0,0,0.06172839506172839,43.148148148148145,0)" xlink:href="#ax"/><use transform="matrix(0.06172839506172839,0,0,0.06172839506172839,55.49382716049382,0)" xlink:href="#ay"/><use transform="matrix(0.06172839506172839,0,0,0.06172839506172839,67.8395061728395,0)" xlink:href="#az"/><use transform="matrix(0.06172839506172839,0,0,0.06172839506172839,80.18518518518519,0)" xlink:href="#ay"/></g><path fill="#333" d="M182-182c0 78-84 86-111 141h115V0H12c-6-101 99-100 120-180 1-22-12-31-33-32-23 0-32 14-35 34l-49-3c5-45 32-70 84-70 51 0 83 22 83 69" id="aA"/><g id="s"><use transform="matrix(0.06172839506172839,0,0,0.06172839506172839,0,0)" xlink:href="#K"/><use transform="matrix(0.06172839506172839,0,0,0.06172839506172839,15.987654320987653,0)" xlink:href="#av"/><use transform="matrix(0.06172839506172839,0,0,0.06172839506172839,30.80246913580247,0)" xlink:href="#aw"/><use transform="matrix(0.06172839506172839,0,0,0.06172839506172839,43.148148148148145,0)" xlink:href="#ax"/><use transform="matrix(0.06172839506172839,0,0,0.06172839506172839,55.49382716049382,0)" xlink:href="#ay"/><use transform="matrix(0.06172839506172839,0,0,0.06172839506172839,67.8395061728395,0)" xlink:href="#az"/><use transform="matrix(0.06172839506172839,0,0,0.06172839506172839,80.18518518518519,0)" xlink:href="#aA"/></g><path fill="#979ea8" d="M24 0v-248h52v208h133V0H24" id="aB"/><path fill="#979ea8" d="M185-48c-13 30-37 53-82 52C43 2 14-33 14-96s30-98 90-98c62 0 83 45 84 108H66c0 31 8 55 39 56 18 0 30-7 34-22zm-45-69c5-46-57-63-70-21-2 6-4 13-4 21h74" id="aC"/><path fill="#979ea8" d="M195-6C206 82 75 100 31 46c-4-6-6-13-8-21l49-6c3 16 16 24 34 25 40 0 42-37 40-79-11 22-30 35-61 35-53 0-70-43-70-97 0-56 18-96 73-97 30 0 46 14 59 34l2-30h47zm-90-29c32 0 41-27 41-63 0-35-9-62-40-62-32 0-39 29-40 63 0 36 9 62 39 62" id="aD"/><path fill="#979ea8" d="M135-194c87-1 58 113 63 194h-50c-7-57 23-157-34-157-59 0-34 97-39 157H25l-1-190h47c2 12-1 28 3 38 12-26 28-41 61-42" id="aE"/><path fill="#979ea8" d="M88-194c31-1 46 15 58 34l-1-101h50l1 261h-48c-2-10 0-23-3-31C134-8 116 4 84 4 32 4 16-41 15-95c0-56 19-97 73-99zm17 164c33 0 40-30 41-66 1-37-9-64-41-64s-38 30-39 65c0 43 13 65 39 65" id="aF"/><g id="t"><use transform="matrix(0.08024691358024691,0,0,0.08024691358024691,0,0)" xlink:href="#aB"/><use transform="matrix(0.08024691358024691,0,0,0.08024691358024691,17.574074074074073,0)" xlink:href="#aC"/><use transform="matrix(0.08024691358024691,0,0,0.08024691358024691,33.623456790123456,0)" xlink:href="#aD"/><use transform="matrix(0.08024691358024691,0,0,0.08024691358024691,51.197530864197525,0)" xlink:href="#aC"/><use transform="matrix(0.08024691358024691,0,0,0.08024691358024691,67.24691358024691,0)" xlink:href="#aE"/><use transform="matrix(0.08024691358024691,0,0,0.08024691358024691,84.82098765432099,0)" xlink:href="#aF"/></g><path fill="#979ea8" d="M182-130c37 4 62 22 62 59C244 23 116-4 24 0v-248c84 5 203-23 205 63 0 31-19 50-47 55zM76-148c40-3 101 13 101-30 0-44-60-28-101-31v61zm0 110c48-3 116 14 116-37 0-48-69-32-116-35v72" id="aG"/><path fill="#979ea8" d="M67-125c0 54 23 88 75 88 28 0 53-7 68-21v-34h-60v-39h108v91C232-14 192 4 140 4 58 4 20-42 15-125 8-236 126-280 215-234c19 10 29 26 37 47l-47 15c-11-23-29-39-63-39-53 1-75 33-75 86" id="aH"/><path fill="#979ea8" d="M24-248c93 1 206-16 204 79-1 75-69 88-152 82V0H24v-248zm52 121c47 0 100 7 100-41 0-47-54-39-100-39v80" id="aI"/><g id="u"><use transform="matrix(0.04938271604938272,0,0,0.04938271604938272,0,0)" xlink:href="#aC"/><use transform="matrix(0.04938271604938272,0,0,0.04938271604938272,9.876543209876544,0)" xlink:href="#aG"/><use transform="matrix(0.04938271604938272,0,0,0.04938271604938272,22.66666666666667,0)" xlink:href="#aH"/><use transform="matrix(0.04938271604938272,0,0,0.04938271604938272,36.49382716049384,0)" xlink:href="#aI"/></g><path fill="#979ea8" d="M24 0v-248h52V0H24" id="aJ"/><path fill="#979ea8" d="M128 0H69L1-190h53L99-40l48-150h52" id="aK"/><path fill="#979ea8" d="M165-50V0h-47v-50H5v-38l105-160h55v161h33v37h-33zm-47-37l2-116L46-87h72" id="aL"/><g id="v"><use transform="matrix(0.04938271604938272,0,0,0.04938271604938272,0,0)" xlink:href="#aJ"/><use transform="matrix(0.04938271604938272,0,0,0.04938271604938272,4.938271604938272,0)" xlink:href="#aI"/><use transform="matrix(0.04938271604938272,0,0,0.04938271604938272,16.790123456790127,0)" xlink:href="#aK"/><use transform="matrix(0.04938271604938272,0,0,0.04938271604938272,26.666666666666668,0)" xlink:href="#aL"/></g><path fill="#979ea8" d="M25-224v-37h50v37H25zM25 0v-190h50V0H25" id="aM"/><g id="w"><use transform="matrix(0.04938271604938272,0,0,0.04938271604938272,0,0)" xlink:href="#aM"/><use transform="matrix(0.04938271604938272,0,0,0.04938271604938272,4.938271604938272,0)" xlink:href="#aG"/><use transform="matrix(0.04938271604938272,0,0,0.04938271604938272,17.7283950617284,0)" xlink:href="#aH"/><use transform="matrix(0.04938271604938272,0,0,0.04938271604938272,31.555555555555557,0)" xlink:href="#aI"/></g><g id="x"><use transform="matrix(0.013020833333333334,0,0,0.013020833333333334,0,0)" xlink:href="#Y"/><use transform="matrix(0.013020833333333334,0,0,0.013020833333333334,14.309895833333334,0)" xlink:href="#Z"/><use transform="matrix(0.013020833333333334,0,0,0.013020833333333334,25.46875,0)" xlink:href="#ag"/><use transform="matrix(0.013020833333333334,0,0,0.013020833333333334,38.984375,0)" xlink:href="#ab"/><use transform="matrix(0.013020833333333334,0,0,0.013020833333333334,47.1484375,0)" xlink:href="#ac"/><use transform="matrix(0.013020833333333334,0,0,0.013020833333333334,53.69791666666667,0)" xlink:href="#ad"/><use transform="matrix(0.013020833333333334,0,0,0.013020833333333334,67.12239583333333,0)" xlink:href="#ae"/><use transform="matrix(0.013020833333333334,0,0,0.013020833333333334,80.14322916666666,0)" xlink:href="#af"/><use transform="matrix(0.013020833333333334,0,0,0.013020833333333334,88.58072916666666,0)" xlink:href="#ag"/><use transform="matrix(0.013020833333333334,0,0,0.013020833333333334,102.09635416666666,0)" xlink:href="#ae"/></g><g id="y"><use transform="matrix(0.013020833333333334,0,0,0.013020833333333334,0,0)" xlink:href="#Y"/><use transform="matrix(0.013020833333333334,0,0,0.013020833333333334,14.309895833333334,0)" xlink:href="#Z"/><use transform="matrix(0.013020833333333334,0,0,0.013020833333333334,25.46875,0)" xlink:href="#ag"/><use transform="matrix(0.013020833333333334,0,0,0.013020833333333334,38.984375,0)" xlink:href="#ab"/><use transform="matrix(0.013020833333333334,0,0,0.013020833333333334,47.1484375,0)" xlink:href="#ac"/><use transform="matrix(0.013020833333333334,0,0,0.013020833333333334,53.69791666666667,0)" xlink:href="#ad"/><use transform="matrix(0.013020833333333334,0,0,0.013020833333333334,67.12239583333333,0)" xlink:href="#ae"/><use transform="matrix(0.013020833333333334,0,0,0.013020833333333334,80.14322916666666,0)" xlink:href="#af"/><use transform="matrix(0.013020833333333334,0,0,0.013020833333333334,88.58072916666666,0)" xlink:href="#ag"/><use transform="matrix(0.013020833333333334,0,0,0.013020833333333334,102.09635416666666,0)" xlink:href="#ah"/></g><g id="z"><use transform="matrix(0.013020833333333334,0,0,0.013020833333333334,0,0)" xlink:href="#Y"/><use transform="matrix(0.013020833333333334,0,0,0.013020833333333334,14.309895833333334,0)" xlink:href="#Z"/><use transform="matrix(0.013020833333333334,0,0,0.013020833333333334,25.46875,0)" xlink:href="#ag"/><use transform="matrix(0.013020833333333334,0,0,0.013020833333333334,38.984375,0)" xlink:href="#ab"/><use transform="matrix(0.013020833333333334,0,0,0.013020833333333334,47.1484375,0)" xlink:href="#ac"/><use transform="matrix(0.013020833333333334,0,0,0.013020833333333334,53.69791666666667,0)" xlink:href="#ad"/><use transform="matrix(0.013020833333333334,0,0,0.013020833333333334,67.12239583333333,0)" xlink:href="#ae"/><use transform="matrix(0.013020833333333334,0,0,0.013020833333333334,80.14322916666666,0)" xlink:href="#af"/><use transform="matrix(0.013020833333333334,0,0,0.013020833333333334,88.58072916666666,0)" xlink:href="#aa"/><use transform="matrix(0.013020833333333334,0,0,0.013020833333333334,102.09635416666666,0)" xlink:href="#ae"/></g><g id="A"><use transform="matrix(0.013020833333333334,0,0,0.013020833333333334,0,0)" xlink:href="#Y"/><use transform="matrix(0.013020833333333334,0,0,0.013020833333333334,14.309895833333334,0)" xlink:href="#Z"/><use transform="matrix(0.013020833333333334,0,0,0.013020833333333334,25.46875,0)" xlink:href="#ag"/><use transform="matrix(0.013020833333333334,0,0,0.013020833333333334,38.984375,0)" xlink:href="#ab"/><use transform="matrix(0.013020833333333334,0,0,0.013020833333333334,47.1484375,0)" xlink:href="#ac"/><use transform="matrix(0.013020833333333334,0,0,0.013020833333333334,53.69791666666667,0)" xlink:href="#ad"/><use transform="matrix(0.013020833333333334,0,0,0.013020833333333334,67.12239583333333,0)" xlink:href="#ae"/><use transform="matrix(0.013020833333333334,0,0,0.013020833333333334,80.14322916666666,0)" xlink:href="#af"/><use transform="matrix(0.013020833333333334,0,0,0.013020833333333334,88.58072916666666,0)" xlink:href="#aa"/><use transform="matrix(0.013020833333333334,0,0,0.013020833333333334,102.09635416666666,0)" xlink:href="#ah"/></g><g id="B"><use transform="matrix(0.013020833333333334,0,0,0.013020833333333334,0,0)" xlink:href="#Y"/><use transform="matrix(0.013020833333333334,0,0,0.013020833333333334,14.309895833333334,0)" xlink:href="#Z"/><use transform="matrix(0.013020833333333334,0,0,0.013020833333333334,25.46875,0)" xlink:href="#ag"/><use transform="matrix(0.013020833333333334,0,0,0.013020833333333334,38.984375,0)" xlink:href="#ab"/><use transform="matrix(0.013020833333333334,0,0,0.013020833333333334,47.1484375,0)" xlink:href="#ai"/><use transform="matrix(0.013020833333333334,0,0,0.013020833333333334,57.786458333333336,0)" xlink:href="#aj"/><use transform="matrix(0.013020833333333334,0,0,0.013020833333333334,72.09635416666667,0)" xlink:href="#ak"/><use transform="matrix(0.013020833333333334,0,0,0.013020833333333334,78.64583333333334,0)" xlink:href="#al"/><use transform="matrix(0.013020833333333334,0,0,0.013020833333333334,92.95572916666667,0)" xlink:href="#ad"/><use transform="matrix(0.013020833333333334,0,0,0.013020833333333334,106.38020833333334,0)" xlink:href="#aa"/></g><g id="C"><use transform="matrix(0.013020833333333334,0,0,0.013020833333333334,0,0)" xlink:href="#Y"/><use transform="matrix(0.013020833333333334,0,0,0.013020833333333334,14.309895833333334,0)" xlink:href="#Z"/><use transform="matrix(0.013020833333333334,0,0,0.013020833333333334,25.46875,0)" xlink:href="#ag"/><use transform="matrix(0.013020833333333334,0,0,0.013020833333333334,38.984375,0)" xlink:href="#ab"/><use transform="matrix(0.013020833333333334,0,0,0.013020833333333334,47.1484375,0)" xlink:href="#ai"/><use transform="matrix(0.013020833333333334,0,0,0.013020833333333334,57.786458333333336,0)" xlink:href="#aj"/><use transform="matrix(0.013020833333333334,0,0,0.013020833333333334,72.09635416666667,0)" xlink:href="#ak"/><use transform="matrix(0.013020833333333334,0,0,0.013020833333333334,78.64583333333334,0)" xlink:href="#al"/><use transform="matrix(0.013020833333333334,0,0,0.013020833333333334,92.95572916666667,0)" xlink:href="#ad"/><use transform="matrix(0.013020833333333334,0,0,0.013020833333333334,106.38020833333334,0)" xlink:href="#ag"/></g><path fill="#979ea8" d="M182-182c0 78-84 86-111 141h115V0H12c-6-101 99-100 120-180 1-22-12-31-33-32-23 0-32 14-35 34l-49-3c5-45 32-70 84-70 51 0 83 22 83 69" id="aN"/><g id="D"><use transform="matrix(0.08024691358024691,0,0,0.08024691358024691,0,0)" xlink:href="#aq"/><use transform="matrix(0.08024691358024691,0,0,0.08024691358024691,20.78395061728395,0)" xlink:href="#ar"/><use transform="matrix(0.08024691358024691,0,0,0.08024691358024691,41.5679012345679,0)" xlink:href="#aN"/></g><g id="E"><use transform="matrix(0.06172839506172839,0,0,0.06172839506172839,0,0)" xlink:href="#K"/><use transform="matrix(0.06172839506172839,0,0,0.06172839506172839,15.987654320987653,0)" xlink:href="#av"/><use transform="matrix(0.06172839506172839,0,0,0.06172839506172839,30.80246913580247,0)" xlink:href="#aw"/><use transform="matrix(0.06172839506172839,0,0,0.06172839506172839,43.148148148148145,0)" xlink:href="#ax"/><use transform="matrix(0.06172839506172839,0,0,0.06172839506172839,55.49382716049382,0)" xlink:href="#aA"/><use transform="matrix(0.06172839506172839,0,0,0.06172839506172839,67.8395061728395,0)" xlink:href="#az"/><use transform="matrix(0.06172839506172839,0,0,0.06172839506172839,80.18518518518519,0)" xlink:href="#az"/></g><g id="F"><use transform="matrix(0.06172839506172839,0,0,0.06172839506172839,0,0)" xlink:href="#K"/><use transform="matrix(0.06172839506172839,0,0,0.06172839506172839,15.987654320987653,0)" xlink:href="#av"/><use transform="matrix(0.06172839506172839,0,0,0.06172839506172839,30.80246913580247,0)" xlink:href="#aw"/><use transform="matrix(0.06172839506172839,0,0,0.06172839506172839,43.148148148148145,0)" xlink:href="#ax"/><use transform="matrix(0.06172839506172839,0,0,0.06172839506172839,55.49382716049382,0)" xlink:href="#aA"/><use transform="matrix(0.06172839506172839,0,0,0.06172839506172839,67.8395061728395,0)" xlink:href="#az"/><use transform="matrix(0.06172839506172839,0,0,0.06172839506172839,80.18518518518519,0)" xlink:href="#ay"/></g><g id="G"><use transform="matrix(0.06172839506172839,0,0,0.06172839506172839,0,0)" xlink:href="#K"/><use transform="matrix(0.06172839506172839,0,0,0.06172839506172839,15.987654320987653,0)" xlink:href="#av"/><use transform="matrix(0.06172839506172839,0,0,0.06172839506172839,30.80246913580247,0)" xlink:href="#aw"/><use transform="matrix(0.06172839506172839,0,0,0.06172839506172839,43.148148148148145,0)" xlink:href="#ax"/><use transform="matrix(0.06172839506172839,0,0,0.06172839506172839,55.49382716049382,0)" xlink:href="#aA"/><use transform="matrix(0.06172839506172839,0,0,0.06172839506172839,67.8395061728395,0)" xlink:href="#az"/><use transform="matrix(0.06172839506172839,0,0,0.06172839506172839,80.18518518518519,0)" xlink:href="#aA"/></g><path d="M456-845c80-38 203-43 294-6 146 60 243 188 243 393 0 223-117 364-277 436-109 49-273 49-382 1C168-93 67-246 67-479c0-175 67-295 150-418l300-442c25-33 77-59 136-59h226c-141 184-282 368-423 553zm64 158c-139 0-209 104-209 247 0 149 63 249 209 249 141 0 219-103 219-248 0-149-72-248-219-248" id="aO"/><use transform="matrix(0.008680555555555554,0,0,0.008680555555555554,0,0)" xlink:href="#aO" id="H"/><path d="M523 15C238 15 92-170 92-458c0-173 68-287 155-413l322-470c36-61 157-38 250-42-146 199-294 396-439 596 80-61 238-82 352-34 142 60 235 185 235 385 0 213-110 349-263 416-54 23-115 35-181 35zm5-729c-170 0-266 117-266 287 0 178 83 297 258 297 174 0 271-117 271-293 0-177-89-291-263-291" id="aP"/><use transform="matrix(0.008680555555555554,0,0,0.008680555555555554,0,0)" xlink:href="#aP" id="I"/></defs></g></svg>