<?xml version="1.0" encoding="UTF-8"?>
<svg xmlns="http://www.w3.org/2000/svg" xmlns:xlink="http://www.w3.org/1999/xlink"
     width="1110" height="976.25" viewBox="0 -976.25 1110 976.25" font-family="monospace">
<defs>
</defs>
<rect x="0" y="-976.25" width="1110" height="976.25" fill="#00285A" />
<rect x="20" y="-951.25" width="1060" height="926.25" fill="hsl(0, 0%, 90%)" rx="25" stroke="hsl(0, 0%, 60.0%)" stroke-width="4" />
<rect x="45.5" y="-673.75" width="1010" height="617.5" fill="hsl(0, 0%, 80%)" rx="25" stroke="hsl(0, 0%, 52.5%)" stroke-width="4" />
<rect x="71.0" y="-396.25" width="960" height="308.75" fill="hsl(0, 0%, 70%)" rx="25" stroke="hsl(0, 0%, 45.0%)" stroke-width="4" />
<rect x="131.0" y="-311.25" width="120" height="120" fill="#5167B7" text="LEAF1" />
<text x="191.0" y="-245.25" font-size="25" fill="white" text-anchor="middle" dy="0em">LEAF1</text>
<rect x="371.0" y="-311.25" width="120" height="120" fill="#5167B7" text="LEAF2" />
<text x="431.0" y="-245.25" font-size="25" fill="white" text-anchor="middle" dy="0em">LEAF2</text>
<rect x="611.0" y="-311.25" width="120" height="120" fill="#5167B7" text="LEAF3" />
<text x="671.0" y="-245.25" font-size="25" fill="white" text-anchor="middle" dy="0em">LEAF3</text>
<rect x="851.0" y="-311.25" width="120" height="120" fill="#5167B7" text="LEAF4" />
<text x="911.0" y="-245.25" font-size="25" fill="white" text-anchor="middle" dy="0em">LEAF4</text>
<rect x="370.5" y="-588.75" width="120" height="120" fill="#5167B7" text="SPINE1" />
<text x="430.5" y="-522.75" font-size="25" fill="white" text-anchor="middle" dy="0em">SPINE1</text>
<rect x="610.5" y="-588.75" width="120" height="120" fill="#5167B7" text="SPINE2" />
<text x="670.5" y="-522.75" font-size="25" fill="white" text-anchor="middle" dy="0em">SPINE2</text>
<rect x="370.0" y="-866.25" width="120" height="120" fill="#5167B7" text="SUPER-SPINE1" />
<text x="430.0" y="-809.25" font-size="18" fill="white" text-anchor="middle" dy="0em">SUPER</text>
<text x="430.0" y="-791.25" font-size="18" fill="white" text-anchor="middle" dy="0em">SPINE1</text>
<rect x="610.0" y="-866.25" width="120" height="120" fill="#5167B7" text="SUPER-SPINE2" />
<text x="670.0" y="-809.25" font-size="18" fill="white" text-anchor="middle" dy="0em">SUPER</text>
<text x="670.0" y="-791.25" font-size="18" fill="white" text-anchor="middle" dy="0em">SPINE2</text>
<rect x="408.5" y="-746.25" width="20" height="30" fill="white" stroke="black" />
<text x="418.5" y="-725.9166666666666" font-size="16" fill="black" text-anchor="middle" dy="0em">6</text>
<rect x="431.5" y="-746.25" width="20" height="30" fill="white" stroke="black" />
<text x="441.5" y="-725.9166666666666" font-size="16" fill="black" text-anchor="middle" dy="0em">7</text>
<rect x="648.5" y="-746.25" width="20" height="30" fill="white" stroke="black" />
<text x="658.5" y="-725.9166666666666" font-size="16" fill="black" text-anchor="middle" dy="0em">6</text>
<rect x="671.5" y="-746.25" width="20" height="30" fill="white" stroke="black" />
<text x="681.5" y="-725.9166666666666" font-size="16" fill="black" text-anchor="middle" dy="0em">7</text>
<rect x="409.0" y="-618.75" width="20" height="30" fill="white" stroke="black" />
<text x="419.0" y="-598.4166666666666" font-size="16" fill="black" text-anchor="middle" dy="0em">6</text>
<rect x="432.0" y="-618.75" width="20" height="30" fill="white" stroke="black" />
<text x="442.0" y="-598.4166666666666" font-size="16" fill="black" text-anchor="middle" dy="0em">7</text>
<rect x="386.0" y="-468.75" width="20" height="30" fill="white" stroke="black" />
<text x="396.0" y="-448.4166666666667" font-size="16" fill="black" text-anchor="middle" dy="0em">1</text>
<rect x="409.0" y="-468.75" width="20" height="30" fill="white" stroke="black" />
<text x="419.0" y="-448.4166666666667" font-size="16" fill="black" text-anchor="middle" dy="0em">2</text>
<rect x="432.0" y="-468.75" width="20" height="30" fill="white" stroke="black" />
<text x="442.0" y="-448.4166666666667" font-size="16" fill="black" text-anchor="middle" dy="0em">3</text>
<rect x="455.0" y="-468.75" width="20" height="30" fill="white" stroke="black" />
<text x="465.0" y="-448.4166666666667" font-size="16" fill="black" text-anchor="middle" dy="0em">4</text>
<rect x="490.5" y="-550.25" width="30" height="20" fill="white" stroke="black" />
<text x="505.5" y="-534.9166666666666" font-size="16" fill="black" text-anchor="middle" dy="0em">47</text>
<rect x="490.5" y="-527.25" width="30" height="20" fill="white" stroke="black" />
<text x="505.5" y="-511.9166666666667" font-size="16" fill="black" text-anchor="middle" dy="0em">48</text>
<rect x="649.0" y="-618.75" width="20" height="30" fill="white" stroke="black" />
<text x="659.0" y="-598.4166666666666" font-size="16" fill="black" text-anchor="middle" dy="0em">6</text>
<rect x="672.0" y="-618.75" width="20" height="30" fill="white" stroke="black" />
<text x="682.0" y="-598.4166666666666" font-size="16" fill="black" text-anchor="middle" dy="0em">7</text>
<rect x="626.0" y="-468.75" width="20" height="30" fill="white" stroke="black" />
<text x="636.0" y="-448.4166666666667" font-size="16" fill="black" text-anchor="middle" dy="0em">1</text>
<rect x="649.0" y="-468.75" width="20" height="30" fill="white" stroke="black" />
<text x="659.0" y="-448.4166666666667" font-size="16" fill="black" text-anchor="middle" dy="0em">2</text>
<rect x="672.0" y="-468.75" width="20" height="30" fill="white" stroke="black" />
<text x="682.0" y="-448.4166666666667" font-size="16" fill="black" text-anchor="middle" dy="0em">3</text>
<rect x="695.0" y="-468.75" width="20" height="30" fill="white" stroke="black" />
<text x="705.0" y="-448.4166666666667" font-size="16" fill="black" text-anchor="middle" dy="0em">4</text>
<rect x="580.5" y="-550.25" width="30" height="20" fill="white" stroke="black" />
<text x="595.5" y="-534.9166666666666" font-size="16" fill="black" text-anchor="middle" dy="0em">47</text>
<rect x="580.5" y="-527.25" width="30" height="20" fill="white" stroke="black" />
<text x="595.5" y="-511.9166666666667" font-size="16" fill="black" text-anchor="middle" dy="0em">48</text>
<rect x="169.5" y="-341.25" width="20" height="30" fill="white" stroke="black" />
<text x="179.5" y="-320.9166666666667" font-size="16" fill="black" text-anchor="middle" dy="0em">2</text>
<rect x="192.5" y="-341.25" width="20" height="30" fill="white" stroke="black" />
<text x="202.5" y="-320.9166666666667" font-size="16" fill="black" text-anchor="middle" dy="0em">1</text>
<rect x="251.0" y="-272.75" width="30" height="20" fill="white" stroke="black" />
<text x="266.0" y="-257.4166666666667" font-size="16" fill="black" text-anchor="middle" dy="0em">47</text>
<rect x="251.0" y="-249.75" width="30" height="20" fill="white" stroke="black" />
<text x="266.0" y="-234.41666666666666" font-size="16" fill="black" text-anchor="middle" dy="0em">48</text>
<rect x="409.5" y="-341.25" width="20" height="30" fill="white" stroke="black" />
<text x="419.5" y="-320.9166666666667" font-size="16" fill="black" text-anchor="middle" dy="0em">2</text>
<rect x="432.5" y="-341.25" width="20" height="30" fill="white" stroke="black" />
<text x="442.5" y="-320.9166666666667" font-size="16" fill="black" text-anchor="middle" dy="0em">1</text>
<rect x="491.0" y="-261.25" width="30" height="20" fill="white" stroke="black" />
<text x="506.0" y="-245.91666666666666" font-size="16" fill="black" text-anchor="middle" dy="0em">50</text>
<rect x="341.0" y="-272.75" width="30" height="20" fill="white" stroke="black" />
<text x="356.0" y="-257.4166666666667" font-size="16" fill="black" text-anchor="middle" dy="0em">47</text>
<rect x="341.0" y="-249.75" width="30" height="20" fill="white" stroke="black" />
<text x="356.0" y="-234.41666666666666" font-size="16" fill="black" text-anchor="middle" dy="0em">48</text>
<rect x="649.5" y="-341.25" width="20" height="30" fill="white" stroke="black" />
<text x="659.5" y="-320.9166666666667" font-size="16" fill="black" text-anchor="middle" dy="0em">2</text>
<rect x="672.5" y="-341.25" width="20" height="30" fill="white" stroke="black" />
<text x="682.5" y="-320.9166666666667" font-size="16" fill="black" text-anchor="middle" dy="0em">1</text>
<rect x="731.0" y="-272.75" width="30" height="20" fill="white" stroke="black" />
<text x="746.0" y="-257.4166666666667" font-size="16" fill="black" text-anchor="middle" dy="0em">47</text>
<rect x="731.0" y="-249.75" width="30" height="20" fill="white" stroke="black" />
<text x="746.0" y="-234.41666666666666" font-size="16" fill="black" text-anchor="middle" dy="0em">48</text>
<rect x="581.0" y="-261.25" width="30" height="20" fill="white" stroke="black" />
<text x="596.0" y="-245.91666666666666" font-size="16" fill="black" text-anchor="middle" dy="0em">50</text>
<rect x="889.5" y="-341.25" width="20" height="30" fill="white" stroke="black" />
<text x="899.5" y="-320.9166666666667" font-size="16" fill="black" text-anchor="middle" dy="0em">2</text>
<rect x="912.5" y="-341.25" width="20" height="30" fill="white" stroke="black" />
<text x="922.5" y="-320.9166666666667" font-size="16" fill="black" text-anchor="middle" dy="0em">1</text>
<rect x="821.0" y="-272.75" width="30" height="20" fill="white" stroke="black" />
<text x="836.0" y="-257.4166666666667" font-size="16" fill="black" text-anchor="middle" dy="0em">47</text>
<rect x="821.0" y="-249.75" width="30" height="20" fill="white" stroke="black" />
<text x="836.0" y="-234.41666666666666" font-size="16" fill="black" text-anchor="middle" dy="0em">48</text>
<path d="M418.5,-716.25 L419.0,-618.75" stroke="black" stroke-width="2" />
<path d="M441.5,-716.25 L659.0,-618.75" stroke="black" stroke-width="2" />
<path d="M658.5,-716.25 L442.0,-618.75" stroke="black" stroke-width="2" />
<path d="M681.5,-716.25 L682.0,-618.75" stroke="black" stroke-width="2" />
<path d="M580.5,-540.25 L520.5,-540.25" stroke="black" stroke-width="2" />
<path d="M580.5,-517.25 L520.5,-517.25" stroke="black" stroke-width="2" />
<path d="M636.0,-438.75 L179.5,-341.25" stroke="black" stroke-width="2" />
<path d="M659.0,-438.75 L419.5,-341.25" stroke="black" stroke-width="2" />
<path d="M682.0,-438.75 L659.5,-341.25" stroke="black" stroke-width="2" />
<path d="M705.0,-438.75 L899.5,-341.25" stroke="black" stroke-width="2" />
<path d="M396.0,-438.75 L202.5,-341.25" stroke="black" stroke-width="2" />
<path d="M419.0,-438.75 L442.5,-341.25" stroke="black" stroke-width="2" />
<path d="M442.0,-438.75 L682.5,-341.25" stroke="black" stroke-width="2" />
<path d="M465.0,-438.75 L922.5,-341.25" stroke="black" stroke-width="2" />
<path d="M281.0,-262.75 L341.0,-262.75" stroke="black" stroke-width="2" />
<path d="M281.0,-239.75 L341.0,-239.75" stroke="black" stroke-width="2" />
<path d="M521.0,-251.25 L581.0,-251.25" stroke="black" stroke-width="2" />
<path d="M761.0,-262.75 L821.0,-262.75" stroke="black" stroke-width="2" />
<path d="M761.0,-239.75 L821.0,-239.75" stroke="black" stroke-width="2" />
<rect x="505.36" y="-947.25" width="89.28" height="23" fill="hsl(0, 0%, 90%)" />
<text x="550.0" y="-927.25" font-size="24" fill="black" text-anchor="middle" dy="0em">FABRIC</text>
<rect x="505.86" y="-669.75" width="89.28" height="23" fill="hsl(0, 0%, 80%)" />
<text x="550.5" y="-649.75" font-size="24" fill="black" text-anchor="middle" dy="0em">SPINES</text>
<rect x="513.8" y="-392.25" width="74.4" height="23" fill="hsl(0, 0%, 70%)" />
<text x="551.0" y="-372.25" font-size="24" fill="black" text-anchor="middle" dy="0em">LEAFS</text>
</svg>