<?xml version="1.0" encoding="UTF-8"?>
<svg xmlns="http://www.w3.org/2000/svg" xmlns:xlink="http://www.w3.org/1999/xlink"
     width="1185" height="1045.0" viewBox="0 -1045.0 1185 1045.0" font-family="monospace">
<defs>
</defs>
<rect x="0" y="-1045.0" width="1185" height="1045.0" fill="#00285A" />
<rect x="20" y="-1020.0" width="1135" height="995.0" fill="hsl(0, 0%, 90%)" rx="25" stroke="hsl(0, 0%, 60.0%)" stroke-width="4" />
<rect x="45.5" y="-982.5" width="1085" height="926.25" fill="hsl(0, 0%, 80%)" rx="25" stroke="hsl(0, 0%, 52.5%)" stroke-width="4" />
<rect x="71.0" y="-705.0" width="1035" height="617.5" fill="hsl(0, 0%, 70%)" rx="25" stroke="hsl(0, 0%, 45.0%)" stroke-width="4" />
<rect x="96.5" y="-427.5" width="480" height="308.75" fill="hsl(0, 0%, 60%)" rx="25" stroke="hsl(0, 0%, 37.5%)" stroke-width="4" />
<rect x="156.5" y="-342.5" width="120" height="120" fill="#5167B7" text="LEAF1" />
<text x="216.5" y="-276.5" font-size="25" fill="white" text-anchor="middle" dy="0em">LEAF1</text>
<rect x="396.5" y="-342.5" width="120" height="120" fill="#5167B7" text="LEAF2" />
<text x="456.5" y="-276.5" font-size="25" fill="white" text-anchor="middle" dy="0em">LEAF2</text>
<rect x="601.5" y="-427.5" width="480" height="308.75" fill="hsl(0, 0%, 60%)" rx="25" stroke="hsl(0, 0%, 37.5%)" stroke-width="4" />
<rect x="661.5" y="-342.5" width="120" height="120" fill="#5167B7" text="LEAF3" />
<text x="721.5" y="-276.5" font-size="25" fill="white" text-anchor="middle" dy="0em">LEAF3</text>
<rect x="901.5" y="-342.5" width="120" height="120" fill="#5167B7" text="LEAF4" />
<text x="961.5" y="-276.5" font-size="25" fill="white" text-anchor="middle" dy="0em">LEAF4</text>
<rect x="408.5" y="-620.0" width="120" height="120" fill="#5167B7" text="SPINE1" />
<text x="468.5" y="-554.0" font-size="25" fill="white" text-anchor="middle" dy="0em">SPINE1</text>
<rect x="648.5" y="-620.0" width="120" height="120" fill="#5167B7" text="SPINE2" />
<text x="708.5" y="-554.0" font-size="25" fill="white" text-anchor="middle" dy="0em">SPINE2</text>
<rect x="408.0" y="-897.5" width="120" height="120" fill="#5167B7" text="SUPER-SPINE1" />
<text x="468.0" y="-840.5" font-size="18" fill="white" text-anchor="middle" dy="0em">SUPER</text>
<text x="468.0" y="-822.5" font-size="18" fill="white" text-anchor="middle" dy="0em">SPINE1</text>
<rect x="648.0" y="-897.5" width="120" height="120" fill="#5167B7" text="SUPER-SPINE2" />
<text x="708.0" y="-840.5" font-size="18" fill="white" text-anchor="middle" dy="0em">SUPER</text>
<text x="708.0" y="-822.5" font-size="18" fill="white" text-anchor="middle" dy="0em">SPINE2</text>
<rect x="446.5" y="-777.5" width="20" height="30" fill="white" stroke="black" />
<text x="456.5" y="-757.1666666666666" font-size="16" fill="black" text-anchor="middle" dy="0em">6</text>
<rect x="469.5" y="-777.5" width="20" height="30" fill="white" stroke="black" />
<text x="479.5" y="-757.1666666666666" font-size="16" fill="black" text-anchor="middle" dy="0em">7</text>
<rect x="686.5" y="-777.5" width="20" height="30" fill="white" stroke="black" />
<text x="696.5" y="-757.1666666666666" font-size="16" fill="black" text-anchor="middle" dy="0em">6</text>
<rect x="709.5" y="-777.5" width="20" height="30" fill="white" stroke="black" />
<text x="719.5" y="-757.1666666666666" font-size="16" fill="black" text-anchor="middle" dy="0em">7</text>
<rect x="447.0" y="-650.0" width="20" height="30" fill="white" stroke="black" />
<text x="457.0" y="-629.6666666666666" font-size="16" fill="black" text-anchor="middle" dy="0em">6</text>
<rect x="470.0" y="-650.0" width="20" height="30" fill="white" stroke="black" />
<text x="480.0" y="-629.6666666666666" font-size="16" fill="black" text-anchor="middle" dy="0em">7</text>
<rect x="424.0" y="-500.0" width="20" height="30" fill="white" stroke="black" />
<text x="434.0" y="-479.6666666666667" font-size="16" fill="black" text-anchor="middle" dy="0em">1</text>
<rect x="447.0" y="-500.0" width="20" height="30" fill="white" stroke="black" />
<text x="457.0" y="-479.6666666666667" font-size="16" fill="black" text-anchor="middle" dy="0em">2</text>
<rect x="470.0" y="-500.0" width="20" height="30" fill="white" stroke="black" />
<text x="480.0" y="-479.6666666666667" font-size="16" fill="black" text-anchor="middle" dy="0em">3</text>
<rect x="493.0" y="-500.0" width="20" height="30" fill="white" stroke="black" />
<text x="503.0" y="-479.6666666666667" font-size="16" fill="black" text-anchor="middle" dy="0em">4</text>
<rect x="528.5" y="-581.5" width="30" height="20" fill="white" stroke="black" />
<text x="543.5" y="-566.1666666666666" font-size="16" fill="black" text-anchor="middle" dy="0em">47</text>
<rect x="528.5" y="-558.5" width="30" height="20" fill="white" stroke="black" />
<text x="543.5" y="-543.1666666666666" font-size="16" fill="black" text-anchor="middle" dy="0em">48</text>
<rect x="687.0" y="-650.0" width="20" height="30" fill="white" stroke="black" />
<text x="697.0" y="-629.6666666666666" font-size="16" fill="black" text-anchor="middle" dy="0em">6</text>
<rect x="710.0" y="-650.0" width="20" height="30" fill="white" stroke="black" />
<text x="720.0" y="-629.6666666666666" font-size="16" fill="black" text-anchor="middle" dy="0em">7</text>
<rect x="664.0" y="-500.0" width="20" height="30" fill="white" stroke="black" />
<text x="674.0" y="-479.6666666666667" font-size="16" fill="black" text-anchor="middle" dy="0em">1</text>
<rect x="687.0" y="-500.0" width="20" height="30" fill="white" stroke="black" />
<text x="697.0" y="-479.6666666666667" font-size="16" fill="black" text-anchor="middle" dy="0em">2</text>
<rect x="710.0" y="-500.0" width="20" height="30" fill="white" stroke="black" />
<text x="720.0" y="-479.6666666666667" font-size="16" fill="black" text-anchor="middle" dy="0em">3</text>
<rect x="733.0" y="-500.0" width="20" height="30" fill="white" stroke="black" />
<text x="743.0" y="-479.6666666666667" font-size="16" fill="black" text-anchor="middle" dy="0em">4</text>
<rect x="618.5" y="-581.5" width="30" height="20" fill="white" stroke="black" />
<text x="633.5" y="-566.1666666666666" font-size="16" fill="black" text-anchor="middle" dy="0em">47</text>
<rect x="618.5" y="-558.5" width="30" height="20" fill="white" stroke="black" />
<text x="633.5" y="-543.1666666666666" font-size="16" fill="black" text-anchor="middle" dy="0em">48</text>
<rect x="195.0" y="-372.5" width="20" height="30" fill="white" stroke="black" />
<text x="205.0" y="-352.1666666666667" font-size="16" fill="black" text-anchor="middle" dy="0em">2</text>
<rect x="218.0" y="-372.5" width="20" height="30" fill="white" stroke="black" />
<text x="228.0" y="-352.1666666666667" font-size="16" fill="black" text-anchor="middle" dy="0em">1</text>
<rect x="276.5" y="-304.0" width="30" height="20" fill="white" stroke="black" />
<text x="291.5" y="-288.6666666666667" font-size="16" fill="black" text-anchor="middle" dy="0em">47</text>
<rect x="276.5" y="-281.0" width="30" height="20" fill="white" stroke="black" />
<text x="291.5" y="-265.6666666666667" font-size="16" fill="black" text-anchor="middle" dy="0em">48</text>
<rect x="435.0" y="-372.5" width="20" height="30" fill="white" stroke="black" />
<text x="445.0" y="-352.1666666666667" font-size="16" fill="black" text-anchor="middle" dy="0em">2</text>
<rect x="458.0" y="-372.5" width="20" height="30" fill="white" stroke="black" />
<text x="468.0" y="-352.1666666666667" font-size="16" fill="black" text-anchor="middle" dy="0em">1</text>
<rect x="516.5" y="-292.5" width="30" height="20" fill="white" stroke="black" />
<text x="531.5" y="-277.1666666666667" font-size="16" fill="black" text-anchor="middle" dy="0em">50</text>
<rect x="366.5" y="-304.0" width="30" height="20" fill="white" stroke="black" />
<text x="381.5" y="-288.6666666666667" font-size="16" fill="black" text-anchor="middle" dy="0em">47</text>
<rect x="366.5" y="-281.0" width="30" height="20" fill="white" stroke="black" />
<text x="381.5" y="-265.6666666666667" font-size="16" fill="black" text-anchor="middle" dy="0em">48</text>
<rect x="700.0" y="-372.5" width="20" height="30" fill="white" stroke="black" />
<text x="710.0" y="-352.1666666666667" font-size="16" fill="black" text-anchor="middle" dy="0em">2</text>
<rect x="723.0" y="-372.5" width="20" height="30" fill="white" stroke="black" />
<text x="733.0" y="-352.1666666666667" font-size="16" fill="black" text-anchor="middle" dy="0em">1</text>
<rect x="781.5" y="-304.0" width="30" height="20" fill="white" stroke="black" />
<text x="796.5" y="-288.6666666666667" font-size="16" fill="black" text-anchor="middle" dy="0em">47</text>
<rect x="781.5" y="-281.0" width="30" height="20" fill="white" stroke="black" />
<text x="796.5" y="-265.6666666666667" font-size="16" fill="black" text-anchor="middle" dy="0em">48</text>
<rect x="631.5" y="-292.5" width="30" height="20" fill="white" stroke="black" />
<text x="646.5" y="-277.1666666666667" font-size="16" fill="black" text-anchor="middle" dy="0em">50</text>
<rect x="940.0" y="-372.5" width="20" height="30" fill="white" stroke="black" />
<text x="950.0" y="-352.1666666666667" font-size="16" fill="black" text-anchor="middle" dy="0em">2</text>
<rect x="963.0" y="-372.5" width="20" height="30" fill="white" stroke="black" />
<text x="973.0" y="-352.1666666666667" font-size="16" fill="black" text-anchor="middle" dy="0em">1</text>
<rect x="871.5" y="-304.0" width="30" height="20" fill="white" stroke="black" />
<text x="886.5" y="-288.6666666666667" font-size="16" fill="black" text-anchor="middle" dy="0em">47</text>
<rect x="871.5" y="-281.0" width="30" height="20" fill="white" stroke="black" />
<text x="886.5" y="-265.6666666666667" font-size="16" fill="black" text-anchor="middle" dy="0em">48</text>
<path d="M456.5,-747.5 L457.0,-650.0" stroke="black" stroke-width="2" />
<path d="M479.5,-747.5 L697.0,-650.0" stroke="black" stroke-width="2" />
<path d="M696.5,-747.5 L480.0,-650.0" stroke="black" stroke-width="2" />
<path d="M719.5,-747.5 L720.0,-650.0" stroke="black" stroke-width="2" />
<path d="M618.5,-571.5 L558.5,-571.5" stroke="black" stroke-width="2" />
<path d="M618.5,-548.5 L558.5,-548.5" stroke="black" stroke-width="2" />
<path d="M674.0,-470.0 L205.0,-372.5" stroke="black" stroke-width="2" />
<path d="M697.0,-470.0 L445.0,-372.5" stroke="black" stroke-width="2" />
<path d="M720.0,-470.0 L710.0,-372.5" stroke="black" stroke-width="2" />
<path d="M743.0,-470.0 L950.0,-372.5" stroke="black" stroke-width="2" />
<path d="M434.0,-470.0 L228.0,-372.5" stroke="black" stroke-width="2" />
<path d="M457.0,-470.0 L468.0,-372.5" stroke="black" stroke-width="2" />
<path d="M480.0,-470.0 L733.0,-372.5" stroke="black" stroke-width="2" />
<path d="M503.0,-470.0 L973.0,-372.5" stroke="black" stroke-width="2" />
<path d="M306.5,-294.0 L366.5,-294.0" stroke="black" stroke-width="2" />
<path d="M306.5,-271.0 L366.5,-271.0" stroke="black" stroke-width="2" />
<path d="M546.5,-282.5 L631.5,-282.5" stroke="black" stroke-width="2" />
<path d="M811.5,-294.0 L871.5,-294.0" stroke="black" stroke-width="2" />
<path d="M811.5,-271.0 L871.5,-271.0" stroke="black" stroke-width="2" />
<rect x="513.1" y="-1016.0" width="148.8" height="23" fill="hsl(0, 0%, 90%)" />
<text x="587.5" y="-996.0" font-size="24" fill="black" text-anchor="middle" dy="0em">DC1_FABRIC</text>
<rect x="513.6" y="-978.5" width="148.8" height="23" fill="hsl(0, 0%, 80%)" />
<text x="588.0" y="-958.5" font-size="24" fill="black" text-anchor="middle" dy="0em">DC1_SPINES</text>
<rect x="506.65999999999997" y="-701.0" width="163.68" height="23" fill="hsl(0, 0%, 70%)" />
<text x="588.5" y="-681.0" font-size="24" fill="black" text-anchor="middle" dy="0em">DC1_SPINES2</text>
<rect x="299.3" y="-423.5" width="74.4" height="23" fill="hsl(0, 0%, 60%)" />
<text x="336.5" y="-403.5" font-size="24" fill="black" text-anchor="middle" dy="0em">RACK1</text>
<rect x="804.3" y="-423.5" width="74.4" height="23" fill="hsl(0, 0%, 60%)" />
<text x="841.5" y="-403.5" font-size="24" fill="black" text-anchor="middle" dy="0em">RACK2</text>
</svg>