<svg xmlns="http://www.w3.org/2000/svg" xmlns:xlink="http://www.w3.org/1999/xlink" xmlns:lucid="lucid" width="1241.65" height="903"><g transform="translate(1421.5 -78.5)" lucid:page-tab-id="O6WQJnHJyIpF"><path d="M-1400 136a36 36 0 0 1 36-36h1126.65a36 36 0 0 1 36 36v788a36 36 0 0 1-36 36H-1364a36 36 0 0 1-36-36z" stroke="#979ea8" stroke-width="3" fill="#979ea8"/><path d="M-1360 198.4a36 36 0 0 1 36-36h1051.2a36 36 0 0 1 36 36v663.2a36 36 0 0 1-36 36H-1324a36 36 0 0 1-36-36z" stroke="#dfe3e8" stroke-width="3" fill="#dfe3e8"/><path d="M-1340 536a36 36 0 0 1 36-36h1011.2a36 36 0 0 1 36 36v311.04a36 36 0 0 1-36 36H-1304a36 36 0 0 1-36-36z" stroke="#dfe3e8" stroke-width="3" fill="#979ea8"/><g filter="url(#a)"><path d="M-742.9 764.44a.5.5 0 0 1 .5-.5h168.63a.5.5 0 0 1 .5.5v93.42a.5.5 0 0 1-.5.5H-742.4a.5.5 0 0 1-.5-.5z" fill="#fff" fill-opacity="0"/><path d="M-742.4 763.94a.5.5 0 0 0-.5.5v93.42a.5.5 0 0 0 .5.5h168.63a.5.5 0 0 0 .5-.5v-93.42a.5.5 0 0 0-.5-.5z" stroke="#315796" stroke-width="3" fill="#315796"/><use xlink:href="#b" transform="matrix(1,0,0,1,-733.0709602144243,774.9895464245739) translate(31.3671875 43.166666666666664)"/></g><g filter="url(#a)"><path d="M-480 765.44a.5.5 0 0 1 .5-.5h168.64a.5.5 0 0 1 .5.5v93.42a.5.5 0 0 1-.5.5H-479.5a.5.5 0 0 1-.5-.5z" fill="#fff" fill-opacity="0"/><path d="M-479.5 764.94a.5.5 0 0 0-.5.5v93.42a.5.5 0 0 0 .5.5h168.64a.5.5 0 0 0 .5-.5v-93.42a.5.5 0 0 0-.5-.5z" stroke="#315796" stroke-width="3" fill="#315796"/><use xlink:href="#c" transform="matrix(1,0,0,1,-470.16096577833224,775.9895464245739) translate(31.3671875 43.166666666666664)"/></g><g filter="url(#a)"><path d="M-1280 764.44a.5.5 0 0 1 .5-.5h168.64a.5.5 0 0 1 .5.5v93.42a.5.5 0 0 1-.5.5h-168.64a.5.5 0 0 1-.5-.5z" fill="#fff" fill-opacity="0"/><path d="M-1279.5 763.94a.5.5 0 0 0-.5.5v93.42a.5.5 0 0 0 .5.5h168.64a.5.5 0 0 0 .5-.5v-93.42a.5.5 0 0 0-.5-.5z" stroke="#315796" stroke-width="3" fill="#315796"/><use xlink:href="#d" transform="matrix(1,0,0,1,-1270.1609657783322,774.9895464245739) translate(31.3671875 43.166666666666664)"/></g><g filter="url(#a)"><path d="M-1022.9 765.44a.5.5 0 0 1 .5-.5h168.63a.5.5 0 0 1 .5.5v93.42a.5.5 0 0 1-.5.5h-168.64a.5.5 0 0 1-.5-.5z" fill="#fff" fill-opacity="0"/><path d="M-1022.4 764.94a.5.5 0 0 0-.5.5v93.42a.5.5 0 0 0 .5.5h168.63a.5.5 0 0 0 .5-.5v-93.42a.5.5 0 0 0-.5-.5z" stroke="#315796" stroke-width="3" fill="#315796"/><use xlink:href="#e" transform="matrix(1,0,0,1,-1013.0709602144243,775.9895464245739) translate(31.3671875 43.166666666666664)"/></g><path d="M-1107.36 798.65l81.45.97" stroke="#5e5e5e" stroke-width="3" fill="none"/><path d="M-1107.3 797.18l-.04 2.95-1.52-.02v-2.94zM-1024.4 798.16v2.95h-1.57l.04-2.96z" stroke="#5e5e5e" stroke-width=".05" fill="#5e5e5e"/><path d="M-1107.36 823.7l81.45.95" stroke="#5e5e5e" stroke-width="3" fill="none"/><path d="M-1107.3 822.2l-.04 2.96h-1.52v-2.97zM-1024.4 823.2v2.94h-1.57l.04-2.97z" stroke="#5e5e5e" stroke-width=".05" fill="#5e5e5e"/><path d="M-570.27 798.65l87.27.97" stroke="#5e5e5e" stroke-width="3" fill="none"/><path d="M-570.22 797.18l-.03 2.95-1.52-.02v-2.94zM-481.5 798.16v2.95h-1.56l.04-2.96z" stroke="#5e5e5e" stroke-width=".05" fill="#5e5e5e"/><path d="M-570.27 823.7l87.27.95" stroke="#5e5e5e" stroke-width="3" fill="none"/><path d="M-570.22 822.2l-.03 2.96h-1.52v-2.97zM-481.5 823.2v2.94h-1.56l.04-2.96z" stroke="#5e5e5e" stroke-width=".05" fill="#5e5e5e"/><g filter="url(#a)"><path d="M-1022.9 549.47a.5.5 0 0 1 .5-.5h168.63a.5.5 0 0 1 .5.5v93.42a.5.5 0 0 1-.5.5h-168.64a.5.5 0 0 1-.5-.5z" fill="#fff" fill-opacity="0"/><path d="M-1022.4 548.97a.5.5 0 0 0-.5.5v93.42a.5.5 0 0 0 .5.5h168.63a.5.5 0 0 0 .5-.5v-93.43a.5.5 0 0 0-.5-.5z" stroke="#315796" stroke-width="3" fill="#315796"/><use xlink:href="#f" transform="matrix(1,0,0,1,-1013.0709602144243,560.0183704850714) translate(22.467447916666664 43.166666666666664)"/></g><g filter="url(#a)"><path d="M-742.9 549.47a.5.5 0 0 1 .5-.5h168.63a.5.5 0 0 1 .5.5v93.42a.5.5 0 0 1-.5.5H-742.4a.5.5 0 0 1-.5-.5z" fill="#fff" fill-opacity="0"/><path d="M-742.4 548.97a.5.5 0 0 0-.5.5v93.42a.5.5 0 0 0 .5.5h168.63a.5.5 0 0 0 .5-.5v-93.43a.5.5 0 0 0-.5-.5z" stroke="#315796" stroke-width="3" fill="#315796"/><use xlink:href="#g" transform="matrix(1,0,0,1,-733.0709602144243,560.0183704850714) translate(22.467447916666664 43.166666666666664)"/></g><path d="M-1135.78 761.48l138.3-115.63" stroke="#5e5e5e" stroke-width="3" fill="none"/><path d="M-1134.92 762.44h-2l-.95-1.13 1.18-.98zM-994.04 644.9l-2.54 2.1-1.77-2.1z" stroke="#5e5e5e" stroke-width=".05" fill="#5e5e5e"/><path d="M-1107.47 776.04L-745.8 631.3" stroke="#5e5e5e" stroke-width="3" fill="none"/><path d="M-1106.88 777.4l-1.98.8V775l.88-.34zM-744.4 632.32l-.9.35-1.1-2.74 2-.8z" stroke="#5e5e5e" stroke-width=".05" fill="#5e5e5e"/><path d="M-938.1 761.94V646.4" stroke="#5e5e5e" stroke-width="3" fill="none"/><path d="M-936.62 763.44H-939.57v-1.54h2.95zM-936.62 644.9v1.53h-2.95v-1.54z" stroke="#5e5e5e" stroke-width=".05" fill="#5e5e5e"/><path d="M-873.75 762.53l151.32-116.73" stroke="#5e5e5e" stroke-width="3" fill="none"/><path d="M-873 763.44h-4.36l2.74-2.1zM-718.83 644.9l-2.73 2.1-1.62-2.1z" stroke="#5e5e5e" stroke-width=".05" fill="#5e5e5e"/><path d="M-722.72 761.53L-873.46 645.8" stroke="#5e5e5e" stroke-width="3" fill="none"/><path d="M-719.1 762.44h-4.37l1.6-2.1zM-872.7 644.9l-1.63 2.1-2.74-2.1z" stroke="#5e5e5e" stroke-width=".05" fill="#5e5e5e"/><path d="M-658.1 760.94V646.4" stroke="#5e5e5e" stroke-width="3" fill="none"/><path d="M-656.62 762.44h-2.95v-1.54h2.95zM-656.62 644.9v1.53h-2.95v-1.54z" stroke="#5e5e5e" stroke-width=".05" fill="#5e5e5e"/><path d="M-482.9 777.26l-367.48-146.2" stroke="#5e5e5e" stroke-width="3" fill="none"/><path d="M-481.5 776.23v3.17l-1.98-.78 1.1-2.75zM-849.8 629.72l-1.1 2.74-.87-.35v-3.17z" stroke="#5e5e5e" stroke-width=".05" fill="#5e5e5e"/><path d="M-455.63 762.5l-142-116.66" stroke="#5e5e5e" stroke-width="3" fill="none"/><path d="M-452.15 763.44h-4.32l1.74-2.1zM-596.8 644.9l-1.74 2.1-2.58-2.1z" stroke="#5e5e5e" stroke-width=".05" fill="#5e5e5e"/><path d="M-1066.64 834.33c-3.8 0-6.9-10.38-6.9-23.18 0-12.8 3.1-23.18 6.9-23.18 3.82 0 6.9 10.38 6.9 23.18 0 12.8-3.08 23.18-6.9 23.18zM-526.64 835.33c-3.8 0-6.9-10.38-6.9-23.18 0-12.8 3.1-23.18 6.9-23.18 3.82 0 6.9 10.38 6.9 23.18 0 12.8-3.08 23.18-6.9 23.18z" stroke="#5e5e5e" stroke-width="2" fill-opacity="0"/><g filter="url(#a)"><path d="M-880 240.5a.5.5 0 0 1 .5-.5h168.64a.5.5 0 0 1 .5.5v93.42a.5.5 0 0 1-.5.5H-879.5a.5.5 0 0 1-.5-.5z" fill="#fff" fill-opacity="0"/><path d="M-879.5 240a.5.5 0 0 0-.5.5v93.42a.5.5 0 0 0 .5.5h168.64a.5.5 0 0 0 .5-.5V240.5a.5.5 0 0 0-.5-.5z" stroke="#315796" stroke-width="3" fill="#315796"/><use xlink:href="#h" transform="matrix(1,0,0,1,-870.1609657783322,251.0468819121681) translate(55.95703125 43.166666666666664)"/></g><g filter="url(#a)"><path d="M-1200 240.5a.5.5 0 0 1 .5-.5h168.64a.5.5 0 0 1 .5.5v93.42a.5.5 0 0 1-.5.5h-168.64a.5.5 0 0 1-.5-.5z" fill="#fff" fill-opacity="0"/><path d="M-1199.5 240a.5.5 0 0 0-.5.5v93.42a.5.5 0 0 0 .5.5h168.64a.5.5 0 0 0 .5-.5V240.5a.5.5 0 0 0-.5-.5z" stroke="#fe7070" stroke-width="3" fill="#fe7070"/><use xlink:href="#i" transform="matrix(1,0,0,1,-1190.1609657783322,251.0468819121681) translate(32.8125 43.166666666666664)"/><use xlink:href="#j" transform="matrix(1,0,0,1,-1190.1609657783322,251.0468819121681) translate(70.67708333333334 43.166666666666664)"/></g><path d="M-1026.36 287.2h10.8m21.58 0h21.58m21.6 0h21.58m21.58 0h10.8" stroke="#fff7a1" stroke-width="5" fill="none"/><path d="M-1026.3 289.68h-2.56v-4.95h2.56z" stroke="#fff7a1" stroke-width=".05" fill="#fff7a1"/><path d="M-886.4 287.2l-12.92 7.65v-15.28z" stroke="#fff7a1" stroke-width="5" fill="#fff7a1"/><path d="M-795.7 351.26l-.08 11m-.17 21.98l-.18 21.98m-.17 21.98l-.18 21.98m-.17 21.98l-.1 11" stroke="#54c45e" stroke-width="5" fill="none"/><path d="M-795.6 340.83l7.52 12.97-15.26-.12zM-796.82 493.6l-7.53-12.98 15.27.12z" stroke="#54c45e" stroke-width="5" fill="#54c45e"/><defs><path fill="#fff" d="M80-702c6-234 206-338 457-298 93 15 166 59 220 115-26 37-46 85-79 115-8 4-17 7-28 7-73 0-113-61-203-61-94 0-160 79-107 152 93 83 270 88 356 179 39 42 70 95 69 176C761-63 553 47 286 6 191-9 109-52 51-106c29-40 47-92 85-123 77-33 115 38 178 55 22 6 48 12 80 12 81 0 133-35 133-110 0-69-60-91-116-111C252-440 75-483 80-702" id="k"/><path fill="#fff" d="M236-180h257c2-279-3-565 3-840L323-871c-27 30-91 18-110-9l-76-104 399-346h198v1150h227V0H236v-180" id="l"/><path fill="#fff" d="M61-690h505v212H61v-212" id="m"/><path fill="#fff" d="M379-1437V0H125v-1437h254" id="n"/><path fill="#fff" d="M960-149C871-45 736 15 551 15 231 15 63-191 63-518c0-229 113-378 277-452 59-26 125-39 199-39 278 0 430 170 430 452 0 55-4 97-59 97H316c14 166 83 276 257 279 98 1 159-38 221-71 33-18 71-20 93 9zM741-612c-4-130-65-216-197-216-140 0-203 89-223 216h420" id="o"/><path fill="#fff" d="M534-1012c240 0 371 147 371 387V0c-80-7-186 24-201-53l-22-66C598-47 516 18 362 15 183 12 73-75 73-255c0-177 142-239 303-283 75-20 169-31 281-34 9-142-26-239-155-239-97 0-149 37-209 70-49 27-108 2-128-33l-46-80c103-96 231-158 415-158zM316-268c-2 80 48 110 125 110 107 0 156-41 216-100v-160c-111 5-199 15-269 48-43 21-70 49-72 102" id="p"/><path fill="#fff" d="M562-1233c-141 0-169 100-160 247h230v180H410V0H156v-806c-55-15-135-9-136-77v-103h136c-14-277 106-437 363-437 48 0 83 7 122 18l-6 127c-1 39-36 45-73 45" id="q"/><path fill="#fff" d="M113-955c38-239 181-388 448-388 186 0 310 81 369 209 18 42 27 87 27 134 1 168-77 256-203 297 151 51 227 154 227 307C981-126 800 8 532 14 260 20 143-131 76-338c63-25 186-102 236-14 46 82 93 164 218 164 130 0 203-76 210-200 9-175-112-206-288-206v-171c158-2 269-37 269-193 0-117-60-182-173-183-99-1-165 67-190 142-19 57-44 79-118 66" id="r"/><g id="b"><use transform="matrix(0.013020833333333334,0,0,0.013020833333333334,0,0)" xlink:href="#k"/><use transform="matrix(0.013020833333333334,0,0,0.013020833333333334,10.638020833333334,0)" xlink:href="#l"/><use transform="matrix(0.013020833333333334,0,0,0.013020833333333334,24.153645833333336,0)" xlink:href="#m"/><use transform="matrix(0.013020833333333334,0,0,0.013020833333333334,32.317708333333336,0)" xlink:href="#n"/><use transform="matrix(0.013020833333333334,0,0,0.013020833333333334,38.8671875,0)" xlink:href="#o"/><use transform="matrix(0.013020833333333334,0,0,0.013020833333333334,52.29166666666667,0)" xlink:href="#p"/><use transform="matrix(0.013020833333333334,0,0,0.013020833333333334,65.3125,0)" xlink:href="#q"/><use transform="matrix(0.013020833333333334,0,0,0.013020833333333334,73.75,0)" xlink:href="#r"/></g><filter id="a" filterUnits="objectBoundingBox" x="-.06" y="-.04" width="1.12" height="1.21"><feOffset result="offOut" in="SourceAlpha" dy="6"/><feGaussianBlur result="blurOut" in="offOut" stdDeviation="5"/><feColorMatrix result="colorOut" in="blurOut" values="0 0 0 0 0 0 0 0 0 0 0 0 0 0 0 0 0 0 0.5019607843137255 0"/><feBlend in="SourceGraphic" in2="colorOut"/></filter><path fill="#fff" d="M1007-505c-9 70 29 185-49 186H854V0H644v-319H105c-83-4-69-108-90-173l609-837h230v824h153zm-363 0c3-182-8-376 8-546L269-505h375" id="s"/><g id="c"><use transform="matrix(0.013020833333333334,0,0,0.013020833333333334,0,0)" xlink:href="#k"/><use transform="matrix(0.013020833333333334,0,0,0.013020833333333334,10.638020833333334,0)" xlink:href="#l"/><use transform="matrix(0.013020833333333334,0,0,0.013020833333333334,24.153645833333336,0)" xlink:href="#m"/><use transform="matrix(0.013020833333333334,0,0,0.013020833333333334,32.317708333333336,0)" xlink:href="#n"/><use transform="matrix(0.013020833333333334,0,0,0.013020833333333334,38.8671875,0)" xlink:href="#o"/><use transform="matrix(0.013020833333333334,0,0,0.013020833333333334,52.29166666666667,0)" xlink:href="#p"/><use transform="matrix(0.013020833333333334,0,0,0.013020833333333334,65.3125,0)" xlink:href="#q"/><use transform="matrix(0.013020833333333334,0,0,0.013020833333333334,73.75,0)" xlink:href="#s"/></g><g id="d"><use transform="matrix(0.013020833333333334,0,0,0.013020833333333334,0,0)" xlink:href="#k"/><use transform="matrix(0.013020833333333334,0,0,0.013020833333333334,10.638020833333334,0)" xlink:href="#l"/><use transform="matrix(0.013020833333333334,0,0,0.013020833333333334,24.153645833333336,0)" xlink:href="#m"/><use transform="matrix(0.013020833333333334,0,0,0.013020833333333334,32.317708333333336,0)" xlink:href="#n"/><use transform="matrix(0.013020833333333334,0,0,0.013020833333333334,38.8671875,0)" xlink:href="#o"/><use transform="matrix(0.013020833333333334,0,0,0.013020833333333334,52.29166666666667,0)" xlink:href="#p"/><use transform="matrix(0.013020833333333334,0,0,0.013020833333333334,65.3125,0)" xlink:href="#q"/><use transform="matrix(0.013020833333333334,0,0,0.013020833333333334,73.75,0)" xlink:href="#l"/></g><path fill="#fff" d="M89-955c40-238 181-388 449-388 250 0 409 134 409 381 0 232-139 347-258 472L407-195c126-46 310-24 475-29 49-1 86 32 85 80V0H69c-2-76 0-138 43-180 161-160 326-321 472-494 63-74 110-153 115-281 6-143-107-217-242-175-61 19-100 69-121 131-19 56-46 79-119 66" id="t"/><g id="e"><use transform="matrix(0.013020833333333334,0,0,0.013020833333333334,0,0)" xlink:href="#k"/><use transform="matrix(0.013020833333333334,0,0,0.013020833333333334,10.638020833333334,0)" xlink:href="#l"/><use transform="matrix(0.013020833333333334,0,0,0.013020833333333334,24.153645833333336,0)" xlink:href="#m"/><use transform="matrix(0.013020833333333334,0,0,0.013020833333333334,32.317708333333336,0)" xlink:href="#n"/><use transform="matrix(0.013020833333333334,0,0,0.013020833333333334,38.8671875,0)" xlink:href="#o"/><use transform="matrix(0.013020833333333334,0,0,0.013020833333333334,52.29166666666667,0)" xlink:href="#p"/><use transform="matrix(0.013020833333333334,0,0,0.013020833333333334,65.3125,0)" xlink:href="#q"/><use transform="matrix(0.013020833333333334,0,0,0.013020833333333334,73.75,0)" xlink:href="#t"/></g><path fill="#fff" d="M615 15c-112 0-178-37-238-91v398H123V-993c65 5 149-11 197 11 31 24 28 81 42 121 74-81 161-151 314-151 265 0 360 229 360 508 0 232-93 399-248 480-52 26-109 39-173 39zm159-519c0-165-29-307-185-307-108 0-158 47-212 111v440c43 53 94 83 178 83 171 0 219-146 219-327" id="u"/><path fill="#fff" d="M379-993V0H125v-993h254zm-132-444c97 0 163 62 163 159 0 96-66 158-163 158-94 0-157-63-157-158s62-159 157-159" id="v"/><path fill="#fff" d="M582-811c-92 1-152 44-204 95V0H124v-993c65 5 150-14 196 11 30 17 27 71 39 107 74-72 158-134 301-134 225 0 332 151 332 377V0H738v-632c0-109-49-180-156-179" id="w"/><g id="f"><use transform="matrix(0.013020833333333334,0,0,0.013020833333333334,0,0)" xlink:href="#k"/><use transform="matrix(0.013020833333333334,0,0,0.013020833333333334,10.638020833333334,0)" xlink:href="#l"/><use transform="matrix(0.013020833333333334,0,0,0.013020833333333334,24.153645833333336,0)" xlink:href="#m"/><use transform="matrix(0.013020833333333334,0,0,0.013020833333333334,32.317708333333336,0)" xlink:href="#k"/><use transform="matrix(0.013020833333333334,0,0,0.013020833333333334,42.95572916666667,0)" xlink:href="#u"/><use transform="matrix(0.013020833333333334,0,0,0.013020833333333334,57.265625,0)" xlink:href="#v"/><use transform="matrix(0.013020833333333334,0,0,0.013020833333333334,63.81510416666667,0)" xlink:href="#w"/><use transform="matrix(0.013020833333333334,0,0,0.013020833333333334,78.125,0)" xlink:href="#o"/><use transform="matrix(0.013020833333333334,0,0,0.013020833333333334,91.54947916666667,0)" xlink:href="#l"/></g><g id="g"><use transform="matrix(0.013020833333333334,0,0,0.013020833333333334,0,0)" xlink:href="#k"/><use transform="matrix(0.013020833333333334,0,0,0.013020833333333334,10.638020833333334,0)" xlink:href="#l"/><use transform="matrix(0.013020833333333334,0,0,0.013020833333333334,24.153645833333336,0)" xlink:href="#m"/><use transform="matrix(0.013020833333333334,0,0,0.013020833333333334,32.317708333333336,0)" xlink:href="#k"/><use transform="matrix(0.013020833333333334,0,0,0.013020833333333334,42.95572916666667,0)" xlink:href="#u"/><use transform="matrix(0.013020833333333334,0,0,0.013020833333333334,57.265625,0)" xlink:href="#v"/><use transform="matrix(0.013020833333333334,0,0,0.013020833333333334,63.81510416666667,0)" xlink:href="#w"/><use transform="matrix(0.013020833333333334,0,0,0.013020833333333334,78.125,0)" xlink:href="#o"/><use transform="matrix(0.013020833333333334,0,0,0.013020833333333334,91.54947916666667,0)" xlink:href="#t"/></g><path fill="#fff" d="M836-149C753-51 641 15 467 15 259 15 147-118 88-282c-42-119-44-295-4-419 59-179 186-308 419-308 153 0 247 58 325 142-30 37-55 81-89 113-66 29-96-36-151-51-19-5-41-11-69-11-164 0-199 147-204 317-6 202 85 372 277 308 37-12 60-40 86-61 24-21 64-16 84 9" id="x"/><path fill="#fff" d="M600 0H369L11-993h210c36-1 65 20 72 46l145 507c21 61 37 123 49 185 14-65 34-123 52-185l150-507c9-25 34-46 68-46h201" id="y"/><g id="h"><use transform="matrix(0.013020833333333334,0,0,0.013020833333333334,0,0)" xlink:href="#x"/><use transform="matrix(0.013020833333333334,0,0,0.013020833333333334,11.158854166666668,0)" xlink:href="#y"/><use transform="matrix(0.013020833333333334,0,0,0.013020833333333334,23.776041666666668,0)" xlink:href="#u"/></g><path fill="#fff" d="M1018-942c0 206-115 318-270 377 36 21 66 45 88 81L1133 0H896c-42 0-76-17-97-53L557-467c-20-31-37-43-86-44h-89V0H118v-1328h400c295 3 500 102 500 386zm-256 18c0-141-92-203-244-202H382v428h134c155-2 246-74 246-226" id="z"/><path fill="#fff" d="M1179 0H915v-575H377V0H113v-1328h264v567h538v-567h264V0" id="A"/><g id="i"><use transform="matrix(0.013020833333333334,0,0,0.013020833333333334,0,0)" xlink:href="#z"/><use transform="matrix(0.013020833333333334,0,0,0.013020833333333334,15.013020833333334,0)" xlink:href="#A"/></g><path fill="#fff" d="M1240 0h-202c-47 1-76-24-87-58l-84-261H378L295-59c-11 29-44 59-86 59H4l484-1328h268zM437-503h370c-61-196-127-384-186-583-56 202-123 386-184 583" id="B"/><path fill="#fff" d="M1037-902c0 300-189 436-495 441H378V0H115v-1328h427c303 4 495 131 495 426zm-263 0c0-143-81-224-232-224H378v461h164c156 2 232-87 232-237" id="C"/><g id="j"><use transform="matrix(0.013020833333333334,0,0,0.013020833333333334,0,0)" xlink:href="#B"/><use transform="matrix(0.013020833333333334,0,0,0.013020833333333334,16.158854166666668,0)" xlink:href="#B"/><use transform="matrix(0.013020833333333334,0,0,0.013020833333333334,32.317708333333336,0)" xlink:href="#C"/></g></defs></g></svg>