<svg xmlns="http://www.w3.org/2000/svg" xmlns:xlink="http://www.w3.org/1999/xlink" xmlns:lucid="lucid" width="1454.09" height="1043"><g transform="translate(1532.5948023688966 -18.5)" lucid:page-tab-id="O6WQJnHJyIpF"><path d="M-1511.1 76a36 36 0 0 1 36-36H-136a36 36 0 0 1 36 36v928a36 36 0 0 1-36 36h-1339.1a36 36 0 0 1-36-36z" stroke="#979ea8" stroke-width="3" fill="#979ea8"/><use xlink:href="#a" transform="matrix(1,0,0,1,-1506.0948023688966,45) translate(667.9746180555555 16.666666666666664)"/><path d="M-1465.42 116a36 36 0 0 1 36-36H-196a36 36 0 0 1 36 36v848a36 36 0 0 1-36 36h-1233.42a36 36 0 0 1-36-36z" stroke="#dfe3e8" stroke-width="3" fill="#dfe3e8"/><path d="M-1422.94 299a19 19 0 0 1 19-19h570.37a19 19 0 0 1 19 19v402a19 19 0 0 1-19 19h-570.37a19 19 0 0 1-19-19z" stroke="#edf5ff" stroke-width="3" fill="#edf5ff"/><use xlink:href="#b" transform="matrix(1,0,0,1,-1417.9371724519783,285) translate(0 16.666666666666664)"/><path d="M-1360 569a19 19 0 0 1 19-19h496.65a19 19 0 0 1 19 19v122a19 19 0 0 1-19 19H-1341a19 19 0 0 1-19-19z" stroke="#cfe4ff" stroke-width="3" fill="#cfe4ff"/><use xlink:href="#c" transform="matrix(1,0,0,1,-1355,555) translate(0 16.666666666666664)"/><path d="M-792.15 299a19 19 0 0 1 19-19h564.78a19 19 0 0 1 19 19v402a19 19 0 0 1-19 19h-564.78a19 19 0 0 1-19-19z" stroke="#edf5ff" stroke-width="3" fill="#edf5ff"/><use xlink:href="#d" transform="matrix(1,0,0,1,-787.1518754242437,285) translate(540.8732638888889 16.666666666666664)"/><path d="M-779.92 319a19 19 0 0 1 19-19h496.65a19 19 0 0 1 19 19v122a19 19 0 0 1-19 19h-496.65a19 19 0 0 1-19-19z" stroke="#cfe4ff" stroke-width="3" fill="#cfe4ff"/><use xlink:href="#e" transform="matrix(1,0,0,1,-774.9207303259648,305) translate(396.78645833333337 16.666666666666664)"/><path d="M-1422.33 762.8a19 19 0 0 1 19-19h569.76a19 19 0 0 1 19 19V941a19 19 0 0 1-19 19h-569.76a19 19 0 0 1-19-19z" stroke="#edf5ff" stroke-width="3" fill="#edf5ff"/><use xlink:href="#f" transform="matrix(1,0,0,1,-1417.3317153604119,748.8062225464116) translate(225.47569444444446 16.666666666666664)"/><path d="M-1360 319a19 19 0 0 1 19-19h496.65a19 19 0 0 1 19 19v122a19 19 0 0 1-19 19H-1341a19 19 0 0 1-19-19z" stroke="#cfe4ff" stroke-width="3" fill="#cfe4ff"/><use xlink:href="#g" transform="matrix(1,0,0,1,-1355,305) translate(0 16.666666666666664)"/><path d="M-1035.55 106.2a19 19 0 0 1 19-19h422a19 19 0 0 1 19 19v122a19 19 0 0 1-19 19h-422a19 19 0 0 1-19-19z" stroke="#cfe4ff" stroke-width="3" fill="#cfe4ff"/><use xlink:href="#h" transform="matrix(1,0,0,1,-1030.5474011844483,92.20889706054743) translate(163.00455729166669 16.666666666666664)"/><g filter="url(#i)"><path d="M-1260 593.1a.5.5 0 0 1 .5-.5h168.64a.5.5 0 0 1 .5.5v93.4a.5.5 0 0 1-.5.5h-168.64a.5.5 0 0 1-.5-.5z" fill="#fff" fill-opacity="0"/><path d="M-1259.5 592.6a.5.5 0 0 0-.5.5v93.4a.5.5 0 0 0 .5.5h168.64a.5.5 0 0 0 .5-.5v-93.4a.5.5 0 0 0-.5-.5z" stroke="#315796" stroke-width="3" fill="#315796"/><use xlink:href="#j" transform="matrix(1,0,0,1,-1250.1609657783322,603.6434068677297) translate(47.526041666666664 43.166666666666664)"/></g><g filter="url(#i)"><path d="M-1020 593.1a.5.5 0 0 1 .5-.5h168.64a.5.5 0 0 1 .5.5v93.4a.5.5 0 0 1-.5.5h-168.64a.5.5 0 0 1-.5-.5z" fill="#fff" fill-opacity="0"/><path d="M-1019.5 592.6a.5.5 0 0 0-.5.5v93.4a.5.5 0 0 0 .5.5h168.64a.5.5 0 0 0 .5-.5v-93.4a.5.5 0 0 0-.5-.5z" stroke="#315796" stroke-width="3" fill="#315796"/><use xlink:href="#k" transform="matrix(1,0,0,1,-1010.1609657783324,603.6434068677297) translate(47.526041666666664 43.166666666666664)"/></g><path d="M-1108 615.8a.5.5 0 0 1 .5-.5h37a.5.5 0 0 1 .5.5v22.97a.5.5 0 0 1-.5.5h-37a.5.5 0 0 1-.5-.5z" fill="#fff" fill-opacity="0"/><path d="M-1107.5 616.27a.5.5 0 0 0-.5.5v21.03a.5.5 0 0 0 .5.5h37a.5.5 0 0 0 .5-.5V616.8a.5.5 0 0 0-.5-.5z" stroke="#5e5e5e" fill="#fff"/><use xlink:href="#l" transform="matrix(1,0,0,1,-1093.598596559418,615.3054220161089) translate(0.49479166666666696 16.444444444444443)"/><path d="M-1108 640.84a.5.5 0 0 1 .5-.5h37a.5.5 0 0 1 .5.5v22.96a.5.5 0 0 1-.5.5h-37a.5.5 0 0 1-.5-.5z" fill="#fff" fill-opacity="0"/><path d="M-1107.5 641.3a.5.5 0 0 0-.5.5v21.04a.5.5 0 0 0 .5.5h37a.5.5 0 0 0 .5-.5V641.8a.5.5 0 0 0-.5-.5z" stroke="#5e5e5e" fill="#fff"/><use xlink:href="#m" transform="matrix(1,0,0,1,-1093.598596559418,640.3366720161091) translate(0.49479166666666696 16.444444444444443)"/><path d="M-1040 615.8a.5.5 0 0 1 .5-.5h37a.5.5 0 0 1 .5.5v22.97a.5.5 0 0 1-.5.5h-37a.5.5 0 0 1-.5-.5z" fill="#fff" fill-opacity="0"/><path d="M-1039.5 616.27a.5.5 0 0 0-.5.5v21.03a.5.5 0 0 0 .5.5h37a.5.5 0 0 0 .5-.5V616.8a.5.5 0 0 0-.5-.5z" stroke="#5e5e5e" fill="#fff"/><use xlink:href="#l" transform="matrix(1,0,0,1,-1025.598596559418,615.3054220161089) translate(0.49479166666666696 16.444444444444443)"/><path d="M-1040 640.84a.5.5 0 0 1 .5-.5h37a.5.5 0 0 1 .5.5v22.96a.5.5 0 0 1-.5.5h-37a.5.5 0 0 1-.5-.5z" fill="#fff" fill-opacity="0"/><path d="M-1039.5 641.3a.5.5 0 0 0-.5.5v21.04a.5.5 0 0 0 .5.5h37a.5.5 0 0 0 .5-.5V641.8a.5.5 0 0 0-.5-.5z" stroke="#5e5e5e" fill="#fff"/><use xlink:href="#m" transform="matrix(1,0,0,1,-1025.598596559418,640.3366720161091) translate(0.49479166666666696 16.444444444444443)"/><path d="M-1068 627.3h26" stroke="#5e5e5e" stroke-width="3" fill="none"/><path d="M-1067.96 628.76h-1.54v-2.94h1.54zM-1040.5 628.76h-1.54v-2.94h1.54z" stroke="#5e5e5e" stroke-width=".05" fill="#5e5e5e"/><path d="M-1068 652.32h26" stroke="#5e5e5e" stroke-width="3" fill="none"/><path d="M-1067.96 653.8h-1.54v-2.95h1.54zM-1040.5 653.8h-1.54v-2.95h1.54z" stroke="#5e5e5e" stroke-width=".05" fill="#5e5e5e"/><g filter="url(#i)"><path d="M-1260 331.05a.5.5 0 0 1 .5-.5h168.64a.5.5 0 0 1 .5.5v93.42a.5.5 0 0 1-.5.5h-168.64a.5.5 0 0 1-.5-.5z" fill="#fff" fill-opacity="0"/><path d="M-1259.5 330.55a.5.5 0 0 0-.5.5v93.42a.5.5 0 0 0 .5.5h168.64a.5.5 0 0 0 .5-.5v-93.42a.5.5 0 0 0-.5-.5z" stroke="#315796" stroke-width="3" fill="#315796"/><use xlink:href="#n" transform="matrix(1,0,0,1,-1250.1609657783322,341.59783779107323) translate(38.62630208333333 43.166666666666664)"/></g><g filter="url(#i)"><path d="M-1020 331.05a.5.5 0 0 1 .5-.5h168.64a.5.5 0 0 1 .5.5v93.42a.5.5 0 0 1-.5.5h-168.64a.5.5 0 0 1-.5-.5z" fill="#fff" fill-opacity="0"/><path d="M-1019.5 330.55a.5.5 0 0 0-.5.5v93.42a.5.5 0 0 0 .5.5h168.64a.5.5 0 0 0 .5-.5v-93.42a.5.5 0 0 0-.5-.5z" stroke="#315796" stroke-width="3" fill="#315796"/><use xlink:href="#o" transform="matrix(1,0,0,1,-1010.1609657783324,341.59783779107323) translate(38.62630208333333 43.166666666666664)"/></g><path d="M-1194.72 578.86V430.4" stroke="#5e5e5e" stroke-width="3" fill="none"/><path d="M-1193.25 580.36h-2.95v-1.54h2.95zM-1193.25 430.44h-2.95v-1.54h2.95z" stroke="#5e5e5e" stroke-width=".05" fill="#5e5e5e"/><path d="M-1139.94 579.4l186.24-153.48" stroke="#5e5e5e" stroke-width="3" fill="none"/><path d="M-1139.1 580.36h-4.32l2.57-2.12z" stroke="#5e5e5e" stroke-width=".05" fill="#5e5e5e"/><path d="M-953.73 425.95l1.2-.98M-969.58 579.37l-171.2-149.48" stroke="#5e5e5e" stroke-width="3" fill="none"/><path d="M-966.2 580.36h-4.3l1.86-2.13zM-1141.72 431.02l-2.44-2.12h4.3z" stroke="#5e5e5e" stroke-width=".05" fill="#5e5e5e"/><path d="M-915.6 578.86l.38-148.46" stroke="#5e5e5e" stroke-width="3" fill="none"/><path d="M-914.13 578.82v1.54h-2.95v-1.55zM-913.74 430.44h-2.95v-1.54h2.96z" stroke="#5e5e5e" stroke-width=".05" fill="#5e5e5e"/><path d="M-1055.35 662.24c-3.82 0-6.9-10.38-6.9-23.18 0-12.8 3.08-23.18 6.9-23.18 3.8 0 6.9 10.37 6.9 23.18 0 12.8-3.1 23.18-6.9 23.18z" stroke="#5e5e5e" stroke-width="2" fill-opacity="0"/><path d="M-1213.72 580.86a.5.5 0 0 1 .5-.5h37a.5.5 0 0 1 .5.5v22.97a.5.5 0 0 1-.5.5h-37a.5.5 0 0 1-.5-.5z" fill="#fff" fill-opacity="0"/><path d="M-1213.22 581.33a.5.5 0 0 0-.5.5v21.03a.5.5 0 0 0 .5.5h37a.5.5 0 0 0 .5-.5v-21.03a.5.5 0 0 0-.5-.5z" stroke="#5e5e5e" fill="#fff"/><use xlink:href="#p" transform="matrix(1,0,0,1,-1199.320319196614,580.3563778950144) translate(0.49479166666666696 16.444444444444443)"/><path d="M-1174.64 580.86a.5.5 0 0 1 .5-.5h37a.5.5 0 0 1 .5.5v22.97a.5.5 0 0 1-.5.5h-37a.5.5 0 0 1-.5-.5z" fill="#fff" fill-opacity="0"/><path d="M-1174.14 581.33a.5.5 0 0 0-.5.5v21.03a.5.5 0 0 0 .5.5h37a.5.5 0 0 0 .5-.5v-21.03a.5.5 0 0 0-.5-.5z" stroke="#5e5e5e" fill="#fff"/><use xlink:href="#q" transform="matrix(1,0,0,1,-1160.236778823581,580.3563778950144) translate(0.49479166666666696 16.444444444444443)"/><path d="M-779.92 569a19 19 0 0 1 19-19h496.65a19 19 0 0 1 19 19v122a19 19 0 0 1-19 19h-496.65a19 19 0 0 1-19-19z" stroke="#cfe4ff" stroke-width="3" fill="#cfe4ff"/><use xlink:href="#r" transform="matrix(1,0,0,1,-774.9207303259648,555) translate(406.96440972222223 16.666666666666664)"/><path d="M-1194.18 673.14a.5.5 0 0 1 .5-.5h37a.5.5 0 0 1 .5.5v22.97a.5.5 0 0 1-.5.5h-37a.5.5 0 0 1-.5-.5z" fill="#fff" fill-opacity="0"/><path d="M-1193.68 673.6a.5.5 0 0 0-.5.5v21.04a.5.5 0 0 0 .5.5h37a.5.5 0 0 0 .5-.5V674.1a.5.5 0 0 0-.5-.5z" stroke="#5e5e5e" fill="#fff"/><use xlink:href="#s" transform="matrix(1,0,0,1,-1179.7785490100975,672.643987270515) translate(0.49479166666666696 16.444444444444443)"/><path d="M-954.18 673.14a.5.5 0 0 1 .5-.5h37a.5.5 0 0 1 .5.5v22.97a.5.5 0 0 1-.5.5h-37a.5.5 0 0 1-.5-.5z" fill="#fff" fill-opacity="0"/><path d="M-953.68 673.6a.5.5 0 0 0-.5.5v21.04a.5.5 0 0 0 .5.5h37a.5.5 0 0 0 .5-.5V674.1a.5.5 0 0 0-.5-.5z" stroke="#5e5e5e" fill="#fff"/><use xlink:href="#s" transform="matrix(1,0,0,1,-939.7785490100974,672.643987270515) translate(0.49479166666666696 16.444444444444443)"/><g filter="url(#i)"><path d="M-751.24 331.05a.5.5 0 0 1 .5-.5h168.64a.5.5 0 0 1 .5.5v93.42a.5.5 0 0 1-.5.5h-168.64a.5.5 0 0 1-.5-.5z" fill="#fff" fill-opacity="0"/><path d="M-750.74 330.55a.5.5 0 0 0-.5.5v93.42a.5.5 0 0 0 .5.5h168.64a.5.5 0 0 0 .5-.5v-93.42a.5.5 0 0 0-.5-.5z" stroke="#315796" stroke-width="3" fill="#315796"/><use xlink:href="#t" transform="matrix(1,0,0,1,-741.397562102162,341.59783779107323) translate(38.62630208333333 43.166666666666664)"/></g><g filter="url(#i)"><path d="M-511.24 331.05a.5.5 0 0 1 .5-.5h168.64a.5.5 0 0 1 .5.5v93.42a.5.5 0 0 1-.5.5h-168.64a.5.5 0 0 1-.5-.5z" fill="#fff" fill-opacity="0"/><path d="M-510.74 330.55a.5.5 0 0 0-.5.5v93.42a.5.5 0 0 0 .5.5h168.64a.5.5 0 0 0 .5-.5v-93.42a.5.5 0 0 0-.5-.5z" stroke="#315796" stroke-width="3" fill="#315796"/><use xlink:href="#u" transform="matrix(1,0,0,1,-501.3975621021621,341.59783779107323) translate(38.62630208333333 43.166666666666664)"/></g><path d="M-686.42 578.86V430.4" stroke="#5e5e5e" stroke-width="3" fill="none"/><path d="M-684.94 580.36h-2.95v-1.54h2.96zM-684.94 430.44h-2.95v-1.54h2.96z" stroke="#5e5e5e" stroke-width=".05" fill="#5e5e5e"/><path d="M-461.27 579.37l-171.2-149.48" stroke="#5e5e5e" stroke-width="3" fill="none"/><path d="M-457.9 580.36h-4.3l1.87-2.13zM-633.42 431.02l-2.43-2.12h4.28z" stroke="#5e5e5e" stroke-width=".05" fill="#5e5e5e"/><path d="M-631.63 579.37L-461.2 429.9" stroke="#5e5e5e" stroke-width="3" fill="none"/><path d="M-630.7 580.36h-4.3l2.43-2.13zM-460.26 431.02l-1.87-2.12h4.3z" stroke="#5e5e5e" stroke-width=".05" fill="#5e5e5e"/><path d="M-406.5 578.86l-.76-148.46" stroke="#5e5e5e" stroke-width="3" fill="none"/><path d="M-405 580.36h-2.96v-1.53l2.95-.02zM-405.8 430.43h-2.94v-1.53h2.94z" stroke="#5e5e5e" stroke-width=".05" fill="#5e5e5e"/><path d="M-1173.9 321.36l193.68-98.75" stroke="#5e5e5e" stroke-width="3" fill="none"/><path d="M-1173.18 322.66l-2.04 1.04v-2.27l-.05-.27-.14-.28-.23-.23-.06-.02 1.18-.6zM-978.88 222.54l.04.27.14.3.22.2.06.04-1.17.6-1.32-2.63 2.04-1.03z" stroke="#5e5e5e" stroke-width=".05" fill="#5e5e5e"/><path d="M-951.34 318.56l27.93-93.15" stroke="#5e5e5e" stroke-width="3" fill="none"/><path d="M-949.92 318.95l-.3 1.05h-3.1l.58-1.9zM-922 225.87l-2.84-.85.32-1.05h3.08z" stroke="#5e5e5e" stroke-width=".05" fill="#5e5e5e"/><path d="M-794.08 218.55l-340.63 106.87" stroke="#5e5e5e" stroke-width="3" fill="none"/><path d="M-792.65 219.65l-1.03.32-.88-2.8 1.9-.6zM-1134.23 326.8l-1.9.6v-3.08l1.02-.32z" stroke="#5e5e5e" stroke-width=".05" fill="#5e5e5e"/><path d="M-896.74 319.18l144.04-94.4" stroke="#5e5e5e" stroke-width="3" fill="none"/><path d="M-895.9 320.4l-1 .64-.07-.16-.22-.23-.08-.04v-.1l-.03-.15-.08-.14-.1-.1-.15-.08-.15-.02h-2.9l3.16-2.08zM-752.47 223.1l.23.2.1.06v.26l.08.14.1.1.15.08.15.03h2.9l-3.17 2.08-1.62-2.47 1-.65z" stroke="#5e5e5e" stroke-width=".05" fill="#5e5e5e"/><path d="M-1213.72 405.43a.5.5 0 0 1 .5-.5h37a.5.5 0 0 1 .5.5v22.97a.5.5 0 0 1-.5.5h-37a.5.5 0 0 1-.5-.5z" fill="#fff" fill-opacity="0"/><path d="M-1213.22 405.9a.5.5 0 0 0-.5.5v21.03a.5.5 0 0 0 .5.5h37a.5.5 0 0 0 .5-.5V406.4a.5.5 0 0 0-.5-.5z" stroke="#5e5e5e" fill="#fff"/><use xlink:href="#p" transform="matrix(1,0,0,1,-1199.320319196614,404.9303527620401) translate(0.49479166666666696 16.444444444444443)"/><path d="M-1174.64 405.43a.5.5 0 0 1 .5-.5h37a.5.5 0 0 1 .5.5v22.97a.5.5 0 0 1-.5.5h-37a.5.5 0 0 1-.5-.5z" fill="#fff" fill-opacity="0"/><path d="M-1174.14 405.9a.5.5 0 0 0-.5.5v21.03a.5.5 0 0 0 .5.5h37a.5.5 0 0 0 .5-.5V406.4a.5.5 0 0 0-.5-.5z" stroke="#5e5e5e" fill="#fff"/><use xlink:href="#q" transform="matrix(1,0,0,1,-1160.2367788235808,404.9303527620401) translate(0.49479166666666696 16.444444444444443)"/><path d="M-973.26 405.43a.5.5 0 0 1 .5-.5h37a.5.5 0 0 1 .5.5v22.97a.5.5 0 0 1-.5.5h-37a.5.5 0 0 1-.5-.5z" fill="#fff" fill-opacity="0"/><path d="M-972.76 405.9a.5.5 0 0 0-.5.5v21.03a.5.5 0 0 0 .5.5h37a.5.5 0 0 0 .5-.5V406.4a.5.5 0 0 0-.5-.5z" stroke="#5e5e5e" fill="#fff"/><use xlink:href="#p" transform="matrix(1,0,0,1,-958.8628764008323,404.9303527620401) translate(0.49479166666666696 16.444444444444443)"/><path d="M-934.18 405.43a.5.5 0 0 1 .5-.5h37a.5.5 0 0 1 .5.5v22.97a.5.5 0 0 1-.5.5h-37a.5.5 0 0 1-.5-.5z" fill="#fff" fill-opacity="0"/><path d="M-933.68 405.9a.5.5 0 0 0-.5.5v21.03a.5.5 0 0 0 .5.5h37a.5.5 0 0 0 .5-.5V406.4a.5.5 0 0 0-.5-.5z" stroke="#5e5e5e" fill="#fff"/><use xlink:href="#q" transform="matrix(1,0,0,1,-919.7793360277993,404.9303527620401) translate(0.49479166666666696 16.444444444444443)"/><path d="M-973.72 580.86a.5.5 0 0 1 .5-.5h37a.5.5 0 0 1 .5.5v22.97a.5.5 0 0 1-.5.5h-37a.5.5 0 0 1-.5-.5z" fill="#fff" fill-opacity="0"/><path d="M-973.22 581.33a.5.5 0 0 0-.5.5v21.03a.5.5 0 0 0 .5.5h37a.5.5 0 0 0 .5-.5v-21.03a.5.5 0 0 0-.5-.5z" stroke="#5e5e5e" fill="#fff"/><use xlink:href="#p" transform="matrix(1,0,0,1,-959.3203191966139,580.3563778950144) translate(0.49479166666666696 16.444444444444443)"/><path d="M-934.64 580.86a.5.5 0 0 1 .5-.5h37a.5.5 0 0 1 .5.5v22.97a.5.5 0 0 1-.5.5h-37a.5.5 0 0 1-.5-.5z" fill="#fff" fill-opacity="0"/><path d="M-934.14 581.33a.5.5 0 0 0-.5.5v21.03a.5.5 0 0 0 .5.5h37a.5.5 0 0 0 .5-.5v-21.03a.5.5 0 0 0-.5-.5z" stroke="#5e5e5e" fill="#fff"/><use xlink:href="#q" transform="matrix(1,0,0,1,-920.2367788235807,580.3563778950144) translate(0.49479166666666696 16.444444444444443)"/><path d="M-705.42 405.43a.5.5 0 0 1 .5-.5h37a.5.5 0 0 1 .5.5v22.97a.5.5 0 0 1-.5.5h-37a.5.5 0 0 1-.5-.5z" fill="#fff" fill-opacity="0"/><path d="M-704.92 405.9a.5.5 0 0 0-.5.5v21.03a.5.5 0 0 0 .5.5h37a.5.5 0 0 0 .5-.5V406.4a.5.5 0 0 0-.5-.5z" stroke="#5e5e5e" fill="#fff"/><use xlink:href="#v" transform="matrix(1,0,0,1,-691.014358316225,404.9303527620401) translate(0.49479166666666696 16.444444444444443)"/><path d="M-666.33 405.43a.5.5 0 0 1 .5-.5h37a.5.5 0 0 1 .5.5v22.97a.5.5 0 0 1-.5.5h-37a.5.5 0 0 1-.5-.5z" fill="#fff" fill-opacity="0"/><path d="M-665.83 405.9a.5.5 0 0 0-.5.5v21.03a.5.5 0 0 0 .5.5h37a.5.5 0 0 0 .5-.5V406.4a.5.5 0 0 0-.5-.5z" stroke="#5e5e5e" fill="#fff"/><use xlink:href="#w" transform="matrix(1,0,0,1,-651.9308179431922,404.9303527620401) translate(0.49479166666666696 16.444444444444443)"/><path d="M-465.42 405.43a.5.5 0 0 1 .5-.5h37a.5.5 0 0 1 .5.5v22.97a.5.5 0 0 1-.5.5h-37a.5.5 0 0 1-.5-.5z" fill="#fff" fill-opacity="0"/><path d="M-464.92 405.9a.5.5 0 0 0-.5.5v21.03a.5.5 0 0 0 .5.5h37a.5.5 0 0 0 .5-.5V406.4a.5.5 0 0 0-.5-.5z" stroke="#5e5e5e" fill="#fff"/><use xlink:href="#v" transform="matrix(1,0,0,1,-451.0143583162253,404.9303527620401) translate(0.49479166666666696 16.444444444444443)"/><path d="M-426.33 405.43a.5.5 0 0 1 .5-.5h37a.5.5 0 0 1 .5.5v22.97a.5.5 0 0 1-.5.5h-37a.5.5 0 0 1-.5-.5z" fill="#fff" fill-opacity="0"/><path d="M-425.83 405.9a.5.5 0 0 0-.5.5v21.03a.5.5 0 0 0 .5.5h37a.5.5 0 0 0 .5-.5V406.4a.5.5 0 0 0-.5-.5z" stroke="#5e5e5e" fill="#fff"/><use xlink:href="#w" transform="matrix(1,0,0,1,-411.9308179431923,404.9303527620401) translate(0.49479166666666696 16.444444444444443)"/><g filter="url(#i)"><path d="M-984.2 120.5a.5.5 0 0 1 .5-.5h168.63a.5.5 0 0 1 .5.5v93.42a.5.5 0 0 1-.5.5H-983.7a.5.5 0 0 1-.5-.5z" fill="#fff" fill-opacity="0"/><path d="M-983.7 120a.5.5 0 0 0-.5.5v93.42a.5.5 0 0 0 .5.5h168.63a.5.5 0 0 0 .5-.5V120.5a.5.5 0 0 0-.5-.5z" stroke="#315796" stroke-width="3" fill="#315796"/><use xlink:href="#x" transform="matrix(1,0,0,1,-974.3656779529365,131.0468819121681) translate(7.708333333333343 43.166666666666664)"/></g><g filter="url(#i)"><path d="M-797.97 120.5a.5.5 0 0 1 .5-.5h168.64a.5.5 0 0 1 .5.5v93.42a.5.5 0 0 1-.5.5h-168.64a.5.5 0 0 1-.5-.5z" fill="#fff" fill-opacity="0"/><path d="M-797.47 120a.5.5 0 0 0-.5.5v93.42a.5.5 0 0 0 .5.5h168.64a.5.5 0 0 0 .5-.5V120.5a.5.5 0 0 0-.5-.5z" stroke="#315796" stroke-width="3" fill="#315796"/><use xlink:href="#y" transform="matrix(1,0,0,1,-788.1332822607474,131.0468819121681) translate(7.708333333333343 43.166666666666664)"/></g><path d="M-792.15 200.5a.5.5 0 0 1 .5-.5h37a.5.5 0 0 1 .5.5v22.97a.5.5 0 0 1-.5.5h-37a.5.5 0 0 1-.5-.5z" fill="#fff" fill-opacity="0"/><path d="M-791.65 200.97a.5.5 0 0 0-.5.5v21.03a.5.5 0 0 0 .5.5h37a.5.5 0 0 0 .5-.5v-21.03a.5.5 0 0 0-.5-.5z" stroke="#5e5e5e" fill="#fff"/><use xlink:href="#p" transform="matrix(1,0,0,1,-777.7504719836617,200) translate(0.49479166666666696 16.444444444444443)"/><path d="M-752.15 200.5a.5.5 0 0 1 .5-.5h37a.5.5 0 0 1 .5.5v22.97a.5.5 0 0 1-.5.5h-37a.5.5 0 0 1-.5-.5z" fill="#fff" fill-opacity="0"/><path d="M-751.65 200.97a.5.5 0 0 0-.5.5v21.03a.5.5 0 0 0 .5.5h37a.5.5 0 0 0 .5-.5v-21.03a.5.5 0 0 0-.5-.5z" stroke="#5e5e5e" fill="#fff"/><use xlink:href="#q" transform="matrix(1,0,0,1,-737.7520460190655,200) translate(0.49479166666666696 16.444444444444443)"/><path d="M-712.15 200.5a.5.5 0 0 1 .5-.5h37a.5.5 0 0 1 .5.5v22.97a.5.5 0 0 1-.5.5h-37a.5.5 0 0 1-.5-.5z" fill="#fff" fill-opacity="0"/><path d="M-711.65 200.97a.5.5 0 0 0-.5.5v21.03a.5.5 0 0 0 .5.5h37a.5.5 0 0 0 .5-.5v-21.03a.5.5 0 0 0-.5-.5z" stroke="#5e5e5e" fill="#fff"/><use xlink:href="#v" transform="matrix(1,0,0,1,-697.7496849659598,200) translate(0.49479166666666696 16.444444444444443)"/><path d="M-672.15 200.5a.5.5 0 0 1 .5-.5h37a.5.5 0 0 1 .5.5v22.97a.5.5 0 0 1-.5.5h-37a.5.5 0 0 1-.5-.5z" fill="#fff" fill-opacity="0"/><path d="M-671.65 200.97a.5.5 0 0 0-.5.5v21.03a.5.5 0 0 0 .5.5h37a.5.5 0 0 0 .5-.5v-21.03a.5.5 0 0 0-.5-.5z" stroke="#5e5e5e" fill="#fff"/><use xlink:href="#w" transform="matrix(1,0,0,1,-657.7512590013636,200) translate(0.49479166666666696 16.444444444444443)"/><path d="M-978.38 200.5a.5.5 0 0 1 .5-.5h37a.5.5 0 0 1 .5.5v22.97a.5.5 0 0 1-.5.5h-37a.5.5 0 0 1-.5-.5z" fill="#fff" fill-opacity="0"/><path d="M-977.88 200.97a.5.5 0 0 0-.5.5v21.03a.5.5 0 0 0 .5.5h37a.5.5 0 0 0 .5-.5v-21.03a.5.5 0 0 0-.5-.5z" stroke="#5e5e5e" fill="#fff"/><use xlink:href="#p" transform="matrix(1,0,0,1,-963.9828676758508,200) translate(0.49479166666666696 16.444444444444443)"/><path d="M-938.4 200.5a.5.5 0 0 1 .5-.5h37a.5.5 0 0 1 .5.5v22.97a.5.5 0 0 1-.5.5h-37a.5.5 0 0 1-.5-.5z" fill="#fff" fill-opacity="0"/><path d="M-937.9 200.97a.5.5 0 0 0-.5.5v21.03a.5.5 0 0 0 .5.5h37a.5.5 0 0 0 .5-.5v-21.03a.5.5 0 0 0-.5-.5z" stroke="#5e5e5e" fill="#fff"/><use xlink:href="#q" transform="matrix(1,0,0,1,-923.9844417112546,200) translate(0.49479166666666696 16.444444444444443)"/><path d="M-898.38 200.5a.5.5 0 0 1 .5-.5h37a.5.5 0 0 1 .5.5v22.97a.5.5 0 0 1-.5.5h-37a.5.5 0 0 1-.5-.5z" fill="#fff" fill-opacity="0"/><path d="M-897.88 200.97a.5.5 0 0 0-.5.5v21.03a.5.5 0 0 0 .5.5h37a.5.5 0 0 0 .5-.5v-21.03a.5.5 0 0 0-.5-.5z" stroke="#5e5e5e" fill="#fff"/><use xlink:href="#v" transform="matrix(1,0,0,1,-883.9820806581489,200) translate(0.49479166666666696 16.444444444444443)"/><path d="M-858.4 200.5a.5.5 0 0 1 .5-.5h37a.5.5 0 0 1 .5.5v22.97a.5.5 0 0 1-.5.5h-37a.5.5 0 0 1-.5-.5z" fill="#fff" fill-opacity="0"/><path d="M-857.9 200.97a.5.5 0 0 0-.5.5v21.03a.5.5 0 0 0 .5.5h37a.5.5 0 0 0 .5-.5v-21.03a.5.5 0 0 0-.5-.5z" stroke="#5e5e5e" fill="#fff"/><use xlink:href="#w" transform="matrix(1,0,0,1,-843.9836546935525,200) translate(0.49479166666666696 16.444444444444443)"/><path d="M-1213.72 320.5a.5.5 0 0 1 .5-.5h37a.5.5 0 0 1 .5.5v22.97a.5.5 0 0 1-.5.5h-37a.5.5 0 0 1-.5-.5z" fill="#fff" fill-opacity="0"/><path d="M-1213.22 320.97a.5.5 0 0 0-.5.5v21.03a.5.5 0 0 0 .5.5h37a.5.5 0 0 0 .5-.5v-21.03a.5.5 0 0 0-.5-.5z" stroke="#5e5e5e" fill="#fff"/><use xlink:href="#s" transform="matrix(1,0,0,1,-1199.320319196614,320) translate(0.49479166666666696 16.444444444444443)"/><path d="M-1174.64 320.5a.5.5 0 0 1 .5-.5h37a.5.5 0 0 1 .5.5v22.97a.5.5 0 0 1-.5.5h-37a.5.5 0 0 1-.5-.5z" fill="#fff" fill-opacity="0"/><path d="M-1174.14 320.97a.5.5 0 0 0-.5.5v21.03a.5.5 0 0 0 .5.5h37a.5.5 0 0 0 .5-.5v-21.03a.5.5 0 0 0-.5-.5z" stroke="#5e5e5e" fill="#fff"/><use xlink:href="#z" transform="matrix(1,0,0,1,-1160.2367788235808,320) translate(0.49479166666666696 16.444444444444443)"/><path d="M-974.37 320.5a.5.5 0 0 1 .5-.5h37a.5.5 0 0 1 .5.5v22.97a.5.5 0 0 1-.5.5h-37a.5.5 0 0 1-.5-.5z" fill="#fff" fill-opacity="0"/><path d="M-973.87 320.97a.5.5 0 0 0-.5.5v21.03a.5.5 0 0 0 .5.5h37a.5.5 0 0 0 .5-.5v-21.03a.5.5 0 0 0-.5-.5z" stroke="#5e5e5e" fill="#fff"/><use xlink:href="#s" transform="matrix(1,0,0,1,-959.9647928631501,320) translate(0.49479166666666696 16.444444444444443)"/><path d="M-935.28 320.5a.5.5 0 0 1 .5-.5h37a.5.5 0 0 1 .5.5v22.97a.5.5 0 0 1-.5.5h-37a.5.5 0 0 1-.5-.5z" fill="#fff" fill-opacity="0"/><path d="M-934.78 320.97a.5.5 0 0 0-.5.5v21.03a.5.5 0 0 0 .5.5h37a.5.5 0 0 0 .5-.5v-21.03a.5.5 0 0 0-.5-.5z" stroke="#5e5e5e" fill="#fff"/><use xlink:href="#z" transform="matrix(1,0,0,1,-920.8812524901174,320) translate(0.49479166666666696 16.444444444444443)"/><path d="M-705.42 320.5a.5.5 0 0 1 .5-.5h37a.5.5 0 0 1 .5.5v22.97a.5.5 0 0 1-.5.5h-37a.5.5 0 0 1-.5-.5z" fill="#fff" fill-opacity="0"/><path d="M-704.92 320.97a.5.5 0 0 0-.5.5v21.03a.5.5 0 0 0 .5.5h37a.5.5 0 0 0 .5-.5v-21.03a.5.5 0 0 0-.5-.5z" stroke="#5e5e5e" fill="#fff"/><use xlink:href="#s" transform="matrix(1,0,0,1,-691.0175063870339,320) translate(0.49479166666666696 16.444444444444443)"/><path d="M-666.34 320.5a.5.5 0 0 1 .5-.5h37a.5.5 0 0 1 .5.5v22.97a.5.5 0 0 1-.5.5h-37a.5.5 0 0 1-.5-.5z" fill="#fff" fill-opacity="0"/><path d="M-665.84 320.97a.5.5 0 0 0-.5.5v21.03a.5.5 0 0 0 .5.5h37a.5.5 0 0 0 .5-.5v-21.03a.5.5 0 0 0-.5-.5z" stroke="#5e5e5e" fill="#fff"/><use xlink:href="#z" transform="matrix(1,0,0,1,-651.9339660140012,320) translate(0.49479166666666696 16.444444444444443)"/><path d="M-465.42 320.5a.5.5 0 0 1 .5-.5h37a.5.5 0 0 1 .5.5v22.97a.5.5 0 0 1-.5.5h-37a.5.5 0 0 1-.5-.5z" fill="#fff" fill-opacity="0"/><path d="M-464.92 320.97a.5.5 0 0 0-.5.5v21.03a.5.5 0 0 0 .5.5h37a.5.5 0 0 0 .5-.5v-21.03a.5.5 0 0 0-.5-.5z" stroke="#5e5e5e" fill="#fff"/><use xlink:href="#s" transform="matrix(1,0,0,1,-451.0143583162253,320) translate(0.49479166666666696 16.444444444444443)"/><path d="M-426.33 320.5a.5.5 0 0 1 .5-.5h37a.5.5 0 0 1 .5.5v22.97a.5.5 0 0 1-.5.5h-37a.5.5 0 0 1-.5-.5z" fill="#fff" fill-opacity="0"/><path d="M-425.83 320.97a.5.5 0 0 0-.5.5v21.03a.5.5 0 0 0 .5.5h37a.5.5 0 0 0 .5-.5v-21.03a.5.5 0 0 0-.5-.5z" stroke="#5e5e5e" fill="#fff"/><use xlink:href="#z" transform="matrix(1,0,0,1,-411.93081794319255,320) translate(0.49479166666666696 16.444444444444443)"/><path d="M-706.6 319.43l-152.6-94.9" stroke="#5e5e5e" stroke-width="3" fill="none"/><path d="M-702.9 320h-2.02l-.15.02-.14.08-.12.1-.07.15-.02.15v.1l-.1.05-.2.23-.16.28-.04.27v.17l-1.5-.94 1.56-2.5zM-858.4 223.3l-1.54 2.5-2.97-1.83h2l.17-.03.14-.07.12-.1.07-.15v-.25l.1-.06.23-.2.14-.3.04-.26v-.17z" stroke="#5e5e5e" stroke-width=".05" fill="#5e5e5e"/><path d="M-652.45 318.6l-35.6-93.23" stroke="#5e5e5e" stroke-width="3" fill="none"/><path d="M-650.33 320h-3.16l-.34-.9 2.76-1.06zM-686.65 224.88l-2.76 1.05-.75-1.96h3.15z" stroke="#5e5e5e" stroke-width=".05" fill="#5e5e5e"/><path d="M-467.35 325.6l-351.1-107.22" stroke="#5e5e5e" stroke-width="3" fill="none"/><path d="M-465.92 324.5v3.07l-1.9-.58.86-2.83zM-818 216.98l-.85 2.82-1.04-.32v-3.08z" stroke="#5e5e5e" stroke-width=".05" fill="#5e5e5e"/><path d="M-428.18 321.8l-204.13-99.64" stroke="#5e5e5e" stroke-width="3" fill="none"/><path d="M-426.66 320.9l-.13.26-.03.27v2.68l-2.03-.98 1.3-2.66zM-631.63 220.85l-1.3 2.65-.9-.44.13-.25.05-.26v-2.68z" stroke="#5e5e5e" stroke-width=".05" fill="#5e5e5e"/><g filter="url(#i)"><path d="M-751.24 593.1a.5.5 0 0 1 .5-.5h168.64a.5.5 0 0 1 .5.5v93.4a.5.5 0 0 1-.5.5h-168.64a.5.5 0 0 1-.5-.5z" fill="#fff" fill-opacity="0"/><path d="M-750.74 592.6a.5.5 0 0 0-.5.5v93.4a.5.5 0 0 0 .5.5h168.64a.5.5 0 0 0 .5-.5v-93.4a.5.5 0 0 0-.5-.5z" stroke="#315796" stroke-width="3" fill="#315796"/><use xlink:href="#A" transform="matrix(1,0,0,1,-741.397562102162,603.6434068677295) translate(47.526041666666664 43.166666666666664)"/></g><g filter="url(#i)"><path d="M-511.24 593.1a.5.5 0 0 1 .5-.5h168.64a.5.5 0 0 1 .5.5v93.4a.5.5 0 0 1-.5.5h-168.64a.5.5 0 0 1-.5-.5z" fill="#fff" fill-opacity="0"/><path d="M-510.74 592.6a.5.5 0 0 0-.5.5v93.4a.5.5 0 0 0 .5.5h168.64a.5.5 0 0 0 .5-.5v-93.4a.5.5 0 0 0-.5-.5z" stroke="#315796" stroke-width="3" fill="#315796"/><use xlink:href="#B" transform="matrix(1,0,0,1,-501.3975621021619,603.6434068677295) translate(47.526041666666664 43.166666666666664)"/></g><path d="M-599.6 615.8a.5.5 0 0 1 .5-.5h37a.5.5 0 0 1 .5.5v22.97a.5.5 0 0 1-.5.5h-37a.5.5 0 0 1-.5-.5z" fill="#fff" fill-opacity="0"/><path d="M-599.1 616.27a.5.5 0 0 0-.5.5v21.03a.5.5 0 0 0 .5.5h37a.5.5 0 0 0 .5-.5V616.8a.5.5 0 0 0-.5-.5z" stroke="#5e5e5e" fill="#fff"/><use xlink:href="#l" transform="matrix(1,0,0,1,-585.1950977846078,615.3054220161089) translate(0.49479166666666696 16.444444444444443)"/><path d="M-599.6 640.84a.5.5 0 0 1 .5-.5h37a.5.5 0 0 1 .5.5v22.96a.5.5 0 0 1-.5.5h-37a.5.5 0 0 1-.5-.5z" fill="#fff" fill-opacity="0"/><path d="M-599.1 641.3a.5.5 0 0 0-.5.5v21.04a.5.5 0 0 0 .5.5h37a.5.5 0 0 0 .5-.5V641.8a.5.5 0 0 0-.5-.5z" stroke="#5e5e5e" fill="#fff"/><use xlink:href="#m" transform="matrix(1,0,0,1,-585.1950977846078,640.3366720161091) translate(0.49479166666666696 16.444444444444443)"/><path d="M-531.6 615.8a.5.5 0 0 1 .5-.5h37a.5.5 0 0 1 .5.5v22.97a.5.5 0 0 1-.5.5h-37a.5.5 0 0 1-.5-.5z" fill="#fff" fill-opacity="0"/><path d="M-531.1 616.27a.5.5 0 0 0-.5.5v21.03a.5.5 0 0 0 .5.5h37a.5.5 0 0 0 .5-.5V616.8a.5.5 0 0 0-.5-.5z" stroke="#5e5e5e" fill="#fff"/><use xlink:href="#l" transform="matrix(1,0,0,1,-517.1950977846079,615.3054220161089) translate(0.49479166666666696 16.444444444444443)"/><path d="M-531.6 640.84a.5.5 0 0 1 .5-.5h37a.5.5 0 0 1 .5.5v22.96a.5.5 0 0 1-.5.5h-37a.5.5 0 0 1-.5-.5z" fill="#fff" fill-opacity="0"/><path d="M-531.1 641.3a.5.5 0 0 0-.5.5v21.04a.5.5 0 0 0 .5.5h37a.5.5 0 0 0 .5-.5V641.8a.5.5 0 0 0-.5-.5z" stroke="#5e5e5e" fill="#fff"/><use xlink:href="#m" transform="matrix(1,0,0,1,-517.1950977846079,640.3366720161091) translate(0.49479166666666696 16.444444444444443)"/><path d="M-559.6 627.3h26" stroke="#5e5e5e" stroke-width="3" fill="none"/><path d="M-559.56 628.76h-1.54v-2.94h1.54zM-532.1 628.76h-1.53v-2.94h1.53z" stroke="#5e5e5e" stroke-width=".05" fill="#5e5e5e"/><path d="M-559.6 652.32h26" stroke="#5e5e5e" stroke-width="3" fill="none"/><path d="M-559.56 653.8h-1.54v-2.95h1.54zM-532.1 653.8h-1.53v-2.95h1.53z" stroke="#5e5e5e" stroke-width=".05" fill="#5e5e5e"/><path d="M-546.85 663.24c-3.82 0-6.9-10.38-6.9-23.18 0-12.8 3.08-23.18 6.9-23.18 3.8 0 6.9 10.37 6.9 23.18 0 12.8-3.1 23.18-6.9 23.18z" stroke="#5e5e5e" stroke-width="2" fill-opacity="0"/><path d="M-705.42 580.86a.5.5 0 0 1 .5-.5h37a.5.5 0 0 1 .5.5v22.97a.5.5 0 0 1-.5.5h-37a.5.5 0 0 1-.5-.5z" fill="#fff" fill-opacity="0"/><path d="M-704.92 581.33a.5.5 0 0 0-.5.5v21.03a.5.5 0 0 0 .5.5h37a.5.5 0 0 0 .5-.5v-21.03a.5.5 0 0 0-.5-.5z" stroke="#5e5e5e" fill="#fff"/><use xlink:href="#v" transform="matrix(1,0,0,1,-691.014358316225,580.3563778950144) translate(0.49479166666666696 16.444444444444443)"/><path d="M-665.42 580.86a.5.5 0 0 1 .5-.5h37a.5.5 0 0 1 .5.5v22.97a.5.5 0 0 1-.5.5h-37a.5.5 0 0 1-.5-.5z" fill="#fff" fill-opacity="0"/><path d="M-664.92 581.33a.5.5 0 0 0-.5.5v21.03a.5.5 0 0 0 .5.5h37a.5.5 0 0 0 .5-.5v-21.03a.5.5 0 0 0-.5-.5z" stroke="#5e5e5e" fill="#fff"/><use xlink:href="#w" transform="matrix(1,0,0,1,-651.015932351629,580.3563778950144) translate(0.49479166666666696 16.444444444444443)"/><path d="M-465.42 580.86a.5.5 0 0 1 .5-.5h37a.5.5 0 0 1 .5.5v22.97a.5.5 0 0 1-.5.5h-37a.5.5 0 0 1-.5-.5z" fill="#fff" fill-opacity="0"/><path d="M-464.92 581.33a.5.5 0 0 0-.5.5v21.03a.5.5 0 0 0 .5.5h37a.5.5 0 0 0 .5-.5v-21.03a.5.5 0 0 0-.5-.5z" stroke="#5e5e5e" fill="#fff"/><use xlink:href="#v" transform="matrix(1,0,0,1,-451.0143583162253,580.3563778950144) translate(0.49479166666666696 16.444444444444443)"/><path d="M-425.42 580.86a.5.5 0 0 1 .5-.5h37a.5.5 0 0 1 .5.5v22.97a.5.5 0 0 1-.5.5h-37a.5.5 0 0 1-.5-.5z" fill="#fff" fill-opacity="0"/><path d="M-424.92 581.33a.5.5 0 0 0-.5.5v21.03a.5.5 0 0 0 .5.5h37a.5.5 0 0 0 .5-.5v-21.03a.5.5 0 0 0-.5-.5z" stroke="#5e5e5e" fill="#fff"/><use xlink:href="#w" transform="matrix(1,0,0,1,-411.0159323516291,580.3563778950144) translate(0.49479166666666696 16.444444444444443)"/><path d="M-694.78 673.14a.5.5 0 0 1 .5-.5h37a.5.5 0 0 1 .5.5v22.97a.5.5 0 0 1-.5.5h-37a.5.5 0 0 1-.5-.5z" fill="#fff" fill-opacity="0"/><path d="M-694.28 673.6a.5.5 0 0 0-.5.5v21.04a.5.5 0 0 0 .5.5h37a.5.5 0 0 0 .5-.5V674.1a.5.5 0 0 0-.5-.5z" stroke="#5e5e5e" fill="#fff"/><use xlink:href="#s" transform="matrix(1,0,0,1,-680.3804701516985,672.643987270515) translate(0.49479166666666696 16.444444444444443)"/><path d="M-465.42 673.14a.5.5 0 0 1 .5-.5h37a.5.5 0 0 1 .5.5v22.97a.5.5 0 0 1-.5.5h-37a.5.5 0 0 1-.5-.5z" fill="#fff" fill-opacity="0"/><path d="M-464.92 673.6a.5.5 0 0 0-.5.5v21.04a.5.5 0 0 0 .5.5h37a.5.5 0 0 0 .5-.5V674.1a.5.5 0 0 0-.5-.5z" stroke="#5e5e5e" fill="#fff"/><use xlink:href="#s" transform="matrix(1,0,0,1,-451.0143583162253,672.643987270515) translate(0.49479166666666696 16.444444444444443)"/><path d="M-425.42 673.14a.5.5 0 0 1 .5-.5h37a.5.5 0 0 1 .5.5v22.97a.5.5 0 0 1-.5.5h-37a.5.5 0 0 1-.5-.5z" fill="#fff" fill-opacity="0"/><path d="M-424.92 673.6a.5.5 0 0 0-.5.5v21.04a.5.5 0 0 0 .5.5h37a.5.5 0 0 0 .5-.5V674.1a.5.5 0 0 0-.5-.5z" stroke="#5e5e5e" fill="#fff"/><use xlink:href="#C" transform="matrix(1,0,0,1,-411.0159323516291,672.643987270515) translate(0.49479166666666696 16.444444444444443)"/><path d="M-1368.56 799a19 19 0 0 1 19-19h461.62a19 19 0 0 1 19 19v22a19 19 0 0 1-19 19h-461.62a19 19 0 0 1-19-19z" stroke="#cfe4ff" stroke-width="3" fill="#cfe4ff"/><use xlink:href="#c" transform="matrix(1,0,0,1,-1363.5591527146055,785) translate(186.48220486111111 29.166666666666664)"/><path d="M-1368.56 879a19 19 0 0 1 19-19h461.62a19 19 0 0 1 19 19v22a19 19 0 0 1-19 19h-461.62a19 19 0 0 1-19-19z" stroke="#cfe4ff" stroke-width="3" fill="#cfe4ff"/><use xlink:href="#r" transform="matrix(1,0,0,1,-1363.5591527146055,865) translate(186.48220486111111 29.166666666666664)"/><path d="M-797.97 762.8a19 19 0 0 1 19-19h569.76a19 19 0 0 1 19 19V941a19 19 0 0 1-19 19h-569.77a19 19 0 0 1-19-19z" stroke="#edf5ff" stroke-width="3" fill="#edf5ff"/><use xlink:href="#D" transform="matrix(1,0,0,1,-792.9723164824151,748.8062225464116) translate(197.35611979166666 16.666666666666664)"/><use xlink:href="#E" transform="matrix(1,0,0,1,-792.9723164824151,748.8062225464116) translate(300.28580729166663 16.666666666666664)"/><path d="M-740 799a19 19 0 0 1 19-19h461.6a19 19 0 0 1 19 19l.02 22a19 19 0 0 1-19 19H-721a19 19 0 0 1-19-19z" stroke="#cfe4ff" stroke-width="3" fill="#cfe4ff"/><use xlink:href="#c" transform="matrix(1,0,0,1,-735,785) translate(186.48220486111111 29.166666666666664)"/><path d="M-740 879a19 19 0 0 1 19-19h461.6a19 19 0 0 1 19 19l.02 22a19 19 0 0 1-19 19H-721a19 19 0 0 1-19-19z" stroke="#cfe4ff" stroke-width="3" fill="#cfe4ff"/><use xlink:href="#r" transform="matrix(1,0,0,1,-735,865) translate(186.48220486111111 29.166666666666664)"/><defs><path fill="#333" d="M890-1328v209H373v376h433v209H373V0H109v-1328h781" id="F"/><path fill="#333" d="M1240 0h-202c-47 1-76-24-87-58l-84-261H378L295-59c-11 29-44 59-86 59H4l484-1328h268zM437-503h370c-61-196-127-384-186-583-56 202-123 386-184 583" id="G"/><path fill="#333" d="M1048-974c0 163-99 241-224 288 171 41 257 139 257 293C1081-125 889 0 612 0H119v-1328h451c279 2 478 84 478 354zM823-399c0-131-83-178-217-178H382v373h225c139 0 216-61 216-195zm-37-542c0-143-71-185-216-185H382v368h173c140-1 231-45 231-183" id="H"/><path fill="#333" d="M1018-942c0 206-115 318-270 377 36 21 66 45 88 81L1133 0H896c-42 0-76-17-97-53L557-467c-20-31-37-43-86-44h-89V0H118v-1328h400c295 3 500 102 500 386zm-256 18c0-141-92-203-244-202H382v428h134c155-2 246-74 246-226" id="I"/><path fill="#333" d="M405 0H141v-1328h264V0" id="J"/><path fill="#333" d="M1063-193C972-66 836 14 625 14 325 14 160-160 82-392c-55-162-54-387 4-546 84-230 253-399 553-405 185-4 321 74 409 173-37 47-65 102-108 143-52 29-90-19-122-42-68-49-222-71-314-21-130 72-193 222-193 425 0 205 69 355 201 427 92 51 249 32 318-20 30-23 81-99 128-48" id="K"/><g id="a"><use transform="matrix(0.010850694444444444,0,0,0.010850694444444444,0,0)" xlink:href="#F"/><use transform="matrix(0.010850694444444444,0,0,0.010850694444444444,8.940972222222221,0)" xlink:href="#G"/><use transform="matrix(0.010850694444444444,0,0,0.010850694444444444,22.40668402777778,0)" xlink:href="#H"/><use transform="matrix(0.010850694444444444,0,0,0.010850694444444444,34.86328125,0)" xlink:href="#I"/><use transform="matrix(0.010850694444444444,0,0,0.010850694444444444,47.37413194444444,0)" xlink:href="#J"/><use transform="matrix(0.010850694444444444,0,0,0.010850694444444444,53.29861111111111,0)" xlink:href="#K"/></g><path fill="#333" d="M1037-902c0 300-189 436-495 441H378V0H115v-1328h427c303 4 495 131 495 426zm-263 0c0-143-81-224-232-224H378v461h164c156 2 232-87 232-237" id="L"/><path fill="#333" d="M1292-934c62 161 62 379 0 540-91 237-280 408-598 408S186-158 94-394c-62-161-63-379 0-540 92-237 282-409 600-409 317 0 507 173 598 409zM694-210c263 0 376-186 376-455 0-268-114-455-376-455-263 0-377 187-377 455 0 269 113 455 377 455" id="M"/><path fill="#333" d="M1198-932c62 158 61 378 0 536C1107-162 916 0 600 0H116v-1328h484c315 6 507 163 598 396zM600-209c264-9 377-187 377-456 0-268-114-446-377-455H380v911h220" id="N"/><path fill="#333" d="M236-180h257c2-279-3-565 3-840L323-871c-27 30-91 18-110-9l-76-104 399-346h198v1150h227V0H236v-180" id="O"/><g id="b"><use transform="matrix(0.010850694444444444,0,0,0.010850694444444444,0,0)" xlink:href="#L"/><use transform="matrix(0.010850694444444444,0,0,0.010850694444444444,11.827256944444445,0)" xlink:href="#M"/><use transform="matrix(0.010850694444444444,0,0,0.010850694444444444,26.85546875,0)" xlink:href="#N"/><use transform="matrix(0.010850694444444444,0,0,0.010850694444444444,40.86371527777778,0)" xlink:href="#O"/></g><path fill="#333" d="M1020 122v164H0V122h1020" id="P"/><path fill="#333" d="M371-216h461V0H108v-1328h263v1112" id="Q"/><path fill="#333" d="M928-1328v209H382v351h425v201H382v358h547L928 0H118v-1328h810" id="R"/><path fill="#333" d="M469-200c119 0 194-62 190-182-5-155-165-165-285-207C212-646 83-736 88-958c4-182 105-295 242-352 113-48 278-41 392 4 65 25 120 59 166 104l-67 124c-13 37-61 47-98 23-55-35-117-75-210-75-111 0-181 57-181 159 0 146 173 155 287 201 153 61 292 138 287 351-7 273-167 433-444 433-190 0-326-77-424-175l78-125c18-34 71-42 108-14 63 47 132 100 245 100" id="S"/><g id="c"><use transform="matrix(0.010850694444444444,0,0,0.010850694444444444,0,0)" xlink:href="#L"/><use transform="matrix(0.010850694444444444,0,0,0.010850694444444444,11.827256944444445,0)" xlink:href="#M"/><use transform="matrix(0.010850694444444444,0,0,0.010850694444444444,26.85546875,0)" xlink:href="#N"/><use transform="matrix(0.010850694444444444,0,0,0.010850694444444444,40.86371527777778,0)" xlink:href="#O"/><use transform="matrix(0.010850694444444444,0,0,0.010850694444444444,52.12673611111112,0)" xlink:href="#P"/><use transform="matrix(0.010850694444444444,0,0,0.010850694444444444,63.19444444444444,0)" xlink:href="#Q"/><use transform="matrix(0.010850694444444444,0,0,0.010850694444444444,72.59114583333333,0)" xlink:href="#R"/><use transform="matrix(0.010850694444444444,0,0,0.010850694444444444,83.15972222222221,0)" xlink:href="#G"/><use transform="matrix(0.010850694444444444,0,0,0.010850694444444444,96.62543402777777,0)" xlink:href="#F"/><use transform="matrix(0.010850694444444444,0,0,0.010850694444444444,106.53211805555556,0)" xlink:href="#S"/></g><path fill="#333" d="M89-955c40-238 181-388 449-388 250 0 409 134 409 381 0 232-139 347-258 472L407-195c126-46 310-24 475-29 49-1 86 32 85 80V0H69c-2-76 0-138 43-180 161-160 326-321 472-494 63-74 110-153 115-281 6-143-107-217-242-175-61 19-100 69-121 131-19 56-46 79-119 66" id="T"/><g id="d"><use transform="matrix(0.010850694444444444,0,0,0.010850694444444444,0,0)" xlink:href="#L"/><use transform="matrix(0.010850694444444444,0,0,0.010850694444444444,11.827256944444445,0)" xlink:href="#M"/><use transform="matrix(0.010850694444444444,0,0,0.010850694444444444,26.85546875,0)" xlink:href="#N"/><use transform="matrix(0.010850694444444444,0,0,0.010850694444444444,40.86371527777778,0)" xlink:href="#T"/></g><path fill="#333" d="M122-1328c70 6 164-16 206 20 6 5 13 12 20 21l654 862c-4-44-6-86-6-125v-778h231V0c-62-4-141 10-187-10-14-6-27-18-40-35L348-902c4 41 6 80 6 115V0H122v-1328" id="U"/><g id="e"><use transform="matrix(0.010850694444444444,0,0,0.010850694444444444,0,0)" xlink:href="#L"/><use transform="matrix(0.010850694444444444,0,0,0.010850694444444444,11.827256944444445,0)" xlink:href="#M"/><use transform="matrix(0.010850694444444444,0,0,0.010850694444444444,26.85546875,0)" xlink:href="#N"/><use transform="matrix(0.010850694444444444,0,0,0.010850694444444444,40.86371527777778,0)" xlink:href="#T"/><use transform="matrix(0.010850694444444444,0,0,0.010850694444444444,52.12673611111112,0)" xlink:href="#P"/><use transform="matrix(0.010850694444444444,0,0,0.010850694444444444,63.19444444444444,0)" xlink:href="#S"/><use transform="matrix(0.010850694444444444,0,0,0.010850694444444444,73.69791666666666,0)" xlink:href="#L"/><use transform="matrix(0.010850694444444444,0,0,0.010850694444444444,85.5251736111111,0)" xlink:href="#J"/><use transform="matrix(0.010850694444444444,0,0,0.010850694444444444,91.44965277777777,0)" xlink:href="#U"/><use transform="matrix(0.010850694444444444,0,0,0.010850694444444444,106.08723958333333,0)" xlink:href="#R"/><use transform="matrix(0.010850694444444444,0,0,0.010850694444444444,116.71006944444444,0)" xlink:href="#S"/></g><path fill="#333" d="M1-1328h211c47 0 77 24 88 58 97 290 184 584 280 873 10 32 19 65 28 100 14-67 35-133 54-191l249-782c10-30 44-58 87-58h212L724 0H487" id="V"/><g id="f"><use transform="matrix(0.010850694444444444,0,0,0.010850694444444444,0,0)" xlink:href="#R"/><use transform="matrix(0.010850694444444444,0,0,0.010850694444444444,10.83984375,0)" xlink:href="#V"/><use transform="matrix(0.010850694444444444,0,0,0.010850694444444444,23.98003472222222,0)" xlink:href="#L"/><use transform="matrix(0.010850694444444444,0,0,0.010850694444444444,35.807291666666664,0)" xlink:href="#U"/><use transform="matrix(0.010850694444444444,0,0,0.010850694444444444,50.44487847222222,0)" xlink:href="#P"/><use transform="matrix(0.010850694444444444,0,0,0.010850694444444444,61.51258680555555,0)" xlink:href="#S"/><use transform="matrix(0.010850694444444444,0,0,0.010850694444444444,72.01605902777777,0)" xlink:href="#R"/><use transform="matrix(0.010850694444444444,0,0,0.010850694444444444,82.85590277777777,0)" xlink:href="#I"/><use transform="matrix(0.010850694444444444,0,0,0.010850694444444444,95.09548611111111,0)" xlink:href="#V"/><use transform="matrix(0.010850694444444444,0,0,0.010850694444444444,108.23567708333331,0)" xlink:href="#J"/><use transform="matrix(0.010850694444444444,0,0,0.010850694444444444,114.16015624999997,0)" xlink:href="#K"/><use transform="matrix(0.010850694444444444,0,0,0.010850694444444444,125.92230902777776,0)" xlink:href="#R"/><use transform="matrix(0.010850694444444444,0,0,0.010850694444444444,136.54513888888886,0)" xlink:href="#S"/></g><g id="g"><use transform="matrix(0.010850694444444444,0,0,0.010850694444444444,0,0)" xlink:href="#L"/><use transform="matrix(0.010850694444444444,0,0,0.010850694444444444,11.827256944444445,0)" xlink:href="#M"/><use transform="matrix(0.010850694444444444,0,0,0.010850694444444444,26.85546875,0)" xlink:href="#N"/><use transform="matrix(0.010850694444444444,0,0,0.010850694444444444,40.86371527777778,0)" xlink:href="#O"/><use transform="matrix(0.010850694444444444,0,0,0.010850694444444444,52.12673611111112,0)" xlink:href="#P"/><use transform="matrix(0.010850694444444444,0,0,0.010850694444444444,63.19444444444444,0)" xlink:href="#S"/><use transform="matrix(0.010850694444444444,0,0,0.010850694444444444,73.69791666666666,0)" xlink:href="#L"/><use transform="matrix(0.010850694444444444,0,0,0.010850694444444444,85.5251736111111,0)" xlink:href="#J"/><use transform="matrix(0.010850694444444444,0,0,0.010850694444444444,91.44965277777777,0)" xlink:href="#U"/><use transform="matrix(0.010850694444444444,0,0,0.010850694444444444,106.08723958333333,0)" xlink:href="#R"/><use transform="matrix(0.010850694444444444,0,0,0.010850694444444444,116.71006944444444,0)" xlink:href="#S"/></g><path fill="#333" d="M375-536c5 198 97 324 294 324s294-126 294-324v-792h262v792c-5 265-130 431-324 510-132 55-333 55-465 0-195-79-324-244-324-510v-792h263v792" id="W"/><g id="h"><use transform="matrix(0.010850694444444444,0,0,0.010850694444444444,0,0)" xlink:href="#S"/><use transform="matrix(0.010850694444444444,0,0,0.010850694444444444,10.503472222222221,0)" xlink:href="#W"/><use transform="matrix(0.010850694444444444,0,0,0.010850694444444444,25.010850694444443,0)" xlink:href="#L"/><use transform="matrix(0.010850694444444444,0,0,0.010850694444444444,36.838107638888886,0)" xlink:href="#R"/><use transform="matrix(0.010850694444444444,0,0,0.010850694444444444,47.677951388888886,0)" xlink:href="#I"/><use transform="matrix(0.010850694444444444,0,0,0.010850694444444444,59.97178819444444,0)" xlink:href="#S"/><use transform="matrix(0.010850694444444444,0,0,0.010850694444444444,70.47526041666666,0)" xlink:href="#L"/><use transform="matrix(0.010850694444444444,0,0,0.010850694444444444,82.3025173611111,0)" xlink:href="#J"/><use transform="matrix(0.010850694444444444,0,0,0.010850694444444444,88.22699652777777,0)" xlink:href="#U"/><use transform="matrix(0.010850694444444444,0,0,0.010850694444444444,102.86458333333333,0)" xlink:href="#R"/><use transform="matrix(0.010850694444444444,0,0,0.010850694444444444,113.48741319444444,0)" xlink:href="#S"/></g><path fill="#fff" d="M379-1437V0H125v-1437h254" id="X"/><path fill="#fff" d="M960-149C871-45 736 15 551 15 231 15 63-191 63-518c0-229 113-378 277-452 59-26 125-39 199-39 278 0 430 170 430 452 0 55-4 97-59 97H316c14 166 83 276 257 279 98 1 159-38 221-71 33-18 71-20 93 9zM741-612c-4-130-65-216-197-216-140 0-203 89-223 216h420" id="Y"/><path fill="#fff" d="M534-1012c240 0 371 147 371 387V0c-80-7-186 24-201-53l-22-66C598-47 516 18 362 15 183 12 73-75 73-255c0-177 142-239 303-283 75-20 169-31 281-34 9-142-26-239-155-239-97 0-149 37-209 70-49 27-108 2-128-33l-46-80c103-96 231-158 415-158zM316-268c-2 80 48 110 125 110 107 0 156-41 216-100v-160c-111 5-199 15-269 48-43 21-70 49-72 102" id="Z"/><path fill="#fff" d="M562-1233c-141 0-169 100-160 247h230v180H410V0H156v-806c-55-15-135-9-136-77v-103h136c-14-277 106-437 363-437 48 0 83 7 122 18l-6 127c-1 39-36 45-73 45" id="aa"/><path fill="#fff" d="M236-180h257c2-279-3-565 3-840L323-871c-27 30-91 18-110-9l-76-104 399-346h198v1150h227V0H236v-180" id="ab"/><g id="j"><use transform="matrix(0.013020833333333334,0,0,0.013020833333333334,0,0)" xlink:href="#X"/><use transform="matrix(0.013020833333333334,0,0,0.013020833333333334,6.549479166666667,0)" xlink:href="#Y"/><use transform="matrix(0.013020833333333334,0,0,0.013020833333333334,19.973958333333336,0)" xlink:href="#Z"/><use transform="matrix(0.013020833333333334,0,0,0.013020833333333334,32.99479166666667,0)" xlink:href="#aa"/><use transform="matrix(0.013020833333333334,0,0,0.013020833333333334,41.43229166666667,0)" xlink:href="#ab"/></g><filter id="i" filterUnits="objectBoundingBox" x="-.06" y="-.04" width="1.12" height="1.21"><feOffset result="offOut" in="SourceAlpha" dy="6"/><feGaussianBlur result="blurOut" in="offOut" stdDeviation="5"/><feColorMatrix result="colorOut" in="blurOut" values="0 0 0 0 0 0 0 0 0 0 0 0 0 0 0 0 0 0 0.5019607843137255 0"/><feBlend in="SourceGraphic" in2="colorOut"/></filter><path fill="#fff" d="M89-955c40-238 181-388 449-388 250 0 409 134 409 381 0 232-139 347-258 472L407-195c126-46 310-24 475-29 49-1 86 32 85 80V0H69c-2-76 0-138 43-180 161-160 326-321 472-494 63-74 110-153 115-281 6-143-107-217-242-175-61 19-100 69-121 131-19 56-46 79-119 66" id="ac"/><g id="k"><use transform="matrix(0.013020833333333334,0,0,0.013020833333333334,0,0)" xlink:href="#X"/><use transform="matrix(0.013020833333333334,0,0,0.013020833333333334,6.549479166666667,0)" xlink:href="#Y"/><use transform="matrix(0.013020833333333334,0,0,0.013020833333333334,19.973958333333336,0)" xlink:href="#Z"/><use transform="matrix(0.013020833333333334,0,0,0.013020833333333334,32.99479166666667,0)" xlink:href="#aa"/><use transform="matrix(0.013020833333333334,0,0,0.013020833333333334,41.43229166666667,0)" xlink:href="#ac"/></g><path d="M236-180h257c2-279-3-565 3-840L323-871c-27 30-91 18-110-9l-76-104 399-346h198v1150h227V0H236v-180" id="ad"/><use transform="matrix(0.008680555555555554,0,0,0.008680555555555554,0,0)" xlink:href="#ad" id="l"/><path d="M89-955c40-238 181-388 449-388 250 0 409 134 409 381 0 232-139 347-258 472L407-195c126-46 310-24 475-29 49-1 86 32 85 80V0H69c-2-76 0-138 43-180 161-160 326-321 472-494 63-74 110-153 115-281 6-143-107-217-242-175-61 19-100 69-121 131-19 56-46 79-119 66" id="ae"/><use transform="matrix(0.008680555555555554,0,0,0.008680555555555554,0,0)" xlink:href="#ae" id="m"/><path fill="#fff" d="M80-702c6-234 206-338 457-298 93 15 166 59 220 115-26 37-46 85-79 115-8 4-17 7-28 7-73 0-113-61-203-61-94 0-160 79-107 152 93 83 270 88 356 179 39 42 70 95 69 176C761-63 553 47 286 6 191-9 109-52 51-106c29-40 47-92 85-123 77-33 115 38 178 55 22 6 48 12 80 12 81 0 133-35 133-110 0-69-60-91-116-111C252-440 75-483 80-702" id="af"/><path fill="#fff" d="M615 15c-112 0-178-37-238-91v398H123V-993c65 5 149-11 197 11 31 24 28 81 42 121 74-81 161-151 314-151 265 0 360 229 360 508 0 232-93 399-248 480-52 26-109 39-173 39zm159-519c0-165-29-307-185-307-108 0-158 47-212 111v440c43 53 94 83 178 83 171 0 219-146 219-327" id="ag"/><path fill="#fff" d="M379-993V0H125v-993h254zm-132-444c97 0 163 62 163 159 0 96-66 158-163 158-94 0-157-63-157-158s62-159 157-159" id="ah"/><path fill="#fff" d="M582-811c-92 1-152 44-204 95V0H124v-993c65 5 150-14 196 11 30 17 27 71 39 107 74-72 158-134 301-134 225 0 332 151 332 377V0H738v-632c0-109-49-180-156-179" id="ai"/><g id="n"><use transform="matrix(0.013020833333333334,0,0,0.013020833333333334,0,0)" xlink:href="#af"/><use transform="matrix(0.013020833333333334,0,0,0.013020833333333334,10.638020833333334,0)" xlink:href="#ag"/><use transform="matrix(0.013020833333333334,0,0,0.013020833333333334,24.947916666666668,0)" xlink:href="#ah"/><use transform="matrix(0.013020833333333334,0,0,0.013020833333333334,31.497395833333336,0)" xlink:href="#ai"/><use transform="matrix(0.013020833333333334,0,0,0.013020833333333334,45.80729166666667,0)" xlink:href="#Y"/><use transform="matrix(0.013020833333333334,0,0,0.013020833333333334,59.23177083333335,0)" xlink:href="#ab"/></g><g id="o"><use transform="matrix(0.013020833333333334,0,0,0.013020833333333334,0,0)" xlink:href="#af"/><use transform="matrix(0.013020833333333334,0,0,0.013020833333333334,10.638020833333334,0)" xlink:href="#ag"/><use transform="matrix(0.013020833333333334,0,0,0.013020833333333334,24.947916666666668,0)" xlink:href="#ah"/><use transform="matrix(0.013020833333333334,0,0,0.013020833333333334,31.497395833333336,0)" xlink:href="#ai"/><use transform="matrix(0.013020833333333334,0,0,0.013020833333333334,45.80729166666667,0)" xlink:href="#Y"/><use transform="matrix(0.013020833333333334,0,0,0.013020833333333334,59.23177083333335,0)" xlink:href="#ac"/></g><path d="M113-955c38-239 181-388 448-388 186 0 310 81 369 209 18 42 27 87 27 134 1 168-77 256-203 297 151 51 227 154 227 307C981-126 800 8 532 14 260 20 143-131 76-338c63-25 186-102 236-14 46 82 93 164 218 164 130 0 203-76 210-200 9-175-112-206-288-206v-171c158-2 269-37 269-193 0-117-60-182-173-183-99-1-165 67-190 142-19 57-44 79-118 66" id="aj"/><use transform="matrix(0.008680555555555554,0,0,0.008680555555555554,0,0)" xlink:href="#aj" id="p"/><path d="M1007-505c-9 70 29 185-49 186H854V0H644v-319H105c-83-4-69-108-90-173l609-837h230v824h153zm-363 0c3-182-8-376 8-546L269-505h375" id="ak"/><use transform="matrix(0.008680555555555554,0,0,0.008680555555555554,0,0)" xlink:href="#ak" id="q"/><g id="r"><use transform="matrix(0.010850694444444444,0,0,0.010850694444444444,0,0)" xlink:href="#L"/><use transform="matrix(0.010850694444444444,0,0,0.010850694444444444,11.827256944444445,0)" xlink:href="#M"/><use transform="matrix(0.010850694444444444,0,0,0.010850694444444444,26.85546875,0)" xlink:href="#N"/><use transform="matrix(0.010850694444444444,0,0,0.010850694444444444,40.86371527777778,0)" xlink:href="#T"/><use transform="matrix(0.010850694444444444,0,0,0.010850694444444444,52.12673611111112,0)" xlink:href="#P"/><use transform="matrix(0.010850694444444444,0,0,0.010850694444444444,63.19444444444444,0)" xlink:href="#Q"/><use transform="matrix(0.010850694444444444,0,0,0.010850694444444444,72.59114583333333,0)" xlink:href="#R"/><use transform="matrix(0.010850694444444444,0,0,0.010850694444444444,83.15972222222221,0)" xlink:href="#G"/><use transform="matrix(0.010850694444444444,0,0,0.010850694444444444,96.62543402777777,0)" xlink:href="#F"/><use transform="matrix(0.010850694444444444,0,0,0.010850694444444444,106.53211805555556,0)" xlink:href="#S"/></g><path d="M137-1111c-27 1-55-27-55-55v-162h902c1 84-3 171-29 226L478-82C454-38 420 0 351 0H175l488-997c23-44 44-80 76-114H137" id="al"/><use transform="matrix(0.008680555555555554,0,0,0.008680555555555554,0,0)" xlink:href="#al" id="s"/><path fill="#fff" d="M113-955c38-239 181-388 448-388 186 0 310 81 369 209 18 42 27 87 27 134 1 168-77 256-203 297 151 51 227 154 227 307C981-126 800 8 532 14 260 20 143-131 76-338c63-25 186-102 236-14 46 82 93 164 218 164 130 0 203-76 210-200 9-175-112-206-288-206v-171c158-2 269-37 269-193 0-117-60-182-173-183-99-1-165 67-190 142-19 57-44 79-118 66" id="am"/><g id="t"><use transform="matrix(0.013020833333333334,0,0,0.013020833333333334,0,0)" xlink:href="#af"/><use transform="matrix(0.013020833333333334,0,0,0.013020833333333334,10.638020833333334,0)" xlink:href="#ag"/><use transform="matrix(0.013020833333333334,0,0,0.013020833333333334,24.947916666666668,0)" xlink:href="#ah"/><use transform="matrix(0.013020833333333334,0,0,0.013020833333333334,31.497395833333336,0)" xlink:href="#ai"/><use transform="matrix(0.013020833333333334,0,0,0.013020833333333334,45.80729166666667,0)" xlink:href="#Y"/><use transform="matrix(0.013020833333333334,0,0,0.013020833333333334,59.23177083333335,0)" xlink:href="#am"/></g><path fill="#fff" d="M1007-505c-9 70 29 185-49 186H854V0H644v-319H105c-83-4-69-108-90-173l609-837h230v824h153zm-363 0c3-182-8-376 8-546L269-505h375" id="an"/><g id="u"><use transform="matrix(0.013020833333333334,0,0,0.013020833333333334,0,0)" xlink:href="#af"/><use transform="matrix(0.013020833333333334,0,0,0.013020833333333334,10.638020833333334,0)" xlink:href="#ag"/><use transform="matrix(0.013020833333333334,0,0,0.013020833333333334,24.947916666666668,0)" xlink:href="#ah"/><use transform="matrix(0.013020833333333334,0,0,0.013020833333333334,31.497395833333336,0)" xlink:href="#ai"/><use transform="matrix(0.013020833333333334,0,0,0.013020833333333334,45.80729166666667,0)" xlink:href="#Y"/><use transform="matrix(0.013020833333333334,0,0,0.013020833333333334,59.23177083333335,0)" xlink:href="#an"/></g><path d="M463-670c-69 0-128 14-183 34l-149-41 108-651h650v101c-3 78-52 116-142 116H407l-44 261c53-11 103-16 152-16 263 0 419 147 419 406 0 232-122 371-292 440-125 51-309 39-418-14-62-30-119-68-165-112l74-102c44-65 117-14 161 14 42 27 94 49 166 47 158-4 231-103 233-261 2-143-84-223-230-222" id="ao"/><use transform="matrix(0.008680555555555554,0,0,0.008680555555555554,0,0)" xlink:href="#ao" id="v"/><path d="M456-845c80-38 203-43 294-6 146 60 243 188 243 393 0 223-117 364-277 436-109 49-273 49-382 1C168-93 67-246 67-479c0-175 67-295 150-418l300-442c25-33 77-59 136-59h226c-141 184-282 368-423 553zm64 158c-139 0-209 104-209 247 0 149 63 249 209 249 141 0 219-103 219-248 0-149-72-248-219-248" id="ap"/><use transform="matrix(0.008680555555555554,0,0,0.008680555555555554,0,0)" xlink:href="#ap" id="w"/><path fill="#fff" d="M439 15c-225-4-332-150-332-377v-631h254v631c0 110 48 181 156 180 91-1 152-46 204-95v-716h254V0c-65-5-152 14-197-12-30-17-26-70-39-106C664-46 580 18 439 15" id="aq"/><path fill="#fff" d="M545-767c-109 4-148 72-181 151V0H110v-993c66 5 161-12 204 14 28 28 23 102 33 150 53-94 116-183 244-183 43 0 79 10 107 31l-19 190c-6 59-87 22-134 24" id="ar"/><g id="x"><use transform="matrix(0.013020833333333334,0,0,0.013020833333333334,0,0)" xlink:href="#af"/><use transform="matrix(0.013020833333333334,0,0,0.013020833333333334,10.638020833333334,0)" xlink:href="#aq"/><use transform="matrix(0.013020833333333334,0,0,0.013020833333333334,24.947916666666668,0)" xlink:href="#ag"/><use transform="matrix(0.013020833333333334,0,0,0.013020833333333334,39.2578125,0)" xlink:href="#Y"/><use transform="matrix(0.013020833333333334,0,0,0.013020833333333334,52.68229166666667,0)" xlink:href="#ar"/><use transform="matrix(0.013020833333333334,0,0,0.013020833333333334,61.8359375,0)" xlink:href="#af"/><use transform="matrix(0.013020833333333334,0,0,0.013020833333333334,72.47395833333333,0)" xlink:href="#ag"/><use transform="matrix(0.013020833333333334,0,0,0.013020833333333334,86.78385416666666,0)" xlink:href="#ah"/><use transform="matrix(0.013020833333333334,0,0,0.013020833333333334,93.33333333333333,0)" xlink:href="#ai"/><use transform="matrix(0.013020833333333334,0,0,0.013020833333333334,107.64322916666664,0)" xlink:href="#Y"/><use transform="matrix(0.013020833333333334,0,0,0.013020833333333334,121.06770833333334,0)" xlink:href="#ab"/></g><g id="y"><use transform="matrix(0.013020833333333334,0,0,0.013020833333333334,0,0)" xlink:href="#af"/><use transform="matrix(0.013020833333333334,0,0,0.013020833333333334,10.638020833333334,0)" xlink:href="#aq"/><use transform="matrix(0.013020833333333334,0,0,0.013020833333333334,24.947916666666668,0)" xlink:href="#ag"/><use transform="matrix(0.013020833333333334,0,0,0.013020833333333334,39.2578125,0)" xlink:href="#Y"/><use transform="matrix(0.013020833333333334,0,0,0.013020833333333334,52.68229166666667,0)" xlink:href="#ar"/><use transform="matrix(0.013020833333333334,0,0,0.013020833333333334,61.8359375,0)" xlink:href="#af"/><use transform="matrix(0.013020833333333334,0,0,0.013020833333333334,72.47395833333333,0)" xlink:href="#ag"/><use transform="matrix(0.013020833333333334,0,0,0.013020833333333334,86.78385416666666,0)" xlink:href="#ah"/><use transform="matrix(0.013020833333333334,0,0,0.013020833333333334,93.33333333333333,0)" xlink:href="#ai"/><use transform="matrix(0.013020833333333334,0,0,0.013020833333333334,107.64322916666664,0)" xlink:href="#Y"/><use transform="matrix(0.013020833333333334,0,0,0.013020833333333334,121.06770833333334,0)" xlink:href="#ac"/></g><path d="M977-395c0 272-183 410-458 410S61-123 61-395c0-179 82-285 228-334-115-51-185-151-185-308 0-185 109-293 248-348 99-39 235-39 334 0 140 55 248 162 248 348 0 158-70 257-186 308 146 49 229 155 229 334zm-654-4c0 133 63 217 196 217s196-84 196-217c0-142-55-224-196-224-140 0-196 84-196 224zm28-633c0 123 44 210 168 210 123 0 168-87 168-210 0-114-53-191-168-191s-168 77-168 191" id="as"/><use transform="matrix(0.008680555555555554,0,0,0.008680555555555554,0,0)" xlink:href="#as" id="z"/><g id="A"><use transform="matrix(0.013020833333333334,0,0,0.013020833333333334,0,0)" xlink:href="#X"/><use transform="matrix(0.013020833333333334,0,0,0.013020833333333334,6.549479166666667,0)" xlink:href="#Y"/><use transform="matrix(0.013020833333333334,0,0,0.013020833333333334,19.973958333333336,0)" xlink:href="#Z"/><use transform="matrix(0.013020833333333334,0,0,0.013020833333333334,32.99479166666667,0)" xlink:href="#aa"/><use transform="matrix(0.013020833333333334,0,0,0.013020833333333334,41.43229166666667,0)" xlink:href="#am"/></g><g id="B"><use transform="matrix(0.013020833333333334,0,0,0.013020833333333334,0,0)" xlink:href="#X"/><use transform="matrix(0.013020833333333334,0,0,0.013020833333333334,6.549479166666667,0)" xlink:href="#Y"/><use transform="matrix(0.013020833333333334,0,0,0.013020833333333334,19.973958333333336,0)" xlink:href="#Z"/><use transform="matrix(0.013020833333333334,0,0,0.013020833333333334,32.99479166666667,0)" xlink:href="#aa"/><use transform="matrix(0.013020833333333334,0,0,0.013020833333333334,41.43229166666667,0)" xlink:href="#an"/></g><path d="M558-1343c315 4 477 226 426 559-19 123-74 216-134 304L560-55C509 26 342-7 215 0c152-194 307-385 457-581-80 52-225 75-333 30-135-54-228-169-228-358 0-206 113-334 264-399 55-23 116-35 183-35zm-4 636c137 0 210-84 210-219 0-137-73-221-209-221-132 0-201 87-204 219-3 139 67 221 203 221" id="at"/><use transform="matrix(0.008680555555555554,0,0,0.008680555555555554,0,0)" xlink:href="#at" id="C"/><path fill="#333" d="M996-1328v214H638V0H376v-1114H18v-214h978" id="au"/><g id="D"><use transform="matrix(0.010850694444444444,0,0,0.010850694444444444,0,0)" xlink:href="#R"/><use transform="matrix(0.010850694444444444,0,0,0.010850694444444444,10.83984375,0)" xlink:href="#U"/><use transform="matrix(0.010850694444444444,0,0,0.010850694444444444,25.47743055555556,0)" xlink:href="#N"/><use transform="matrix(0.010850694444444444,0,0,0.010850694444444444,39.485677083333336,0)" xlink:href="#L"/><use transform="matrix(0.010850694444444444,0,0,0.010850694444444444,51.31293402777778,0)" xlink:href="#M"/><use transform="matrix(0.010850694444444444,0,0,0.010850694444444444,66.34114583333333,0)" xlink:href="#J"/><use transform="matrix(0.010850694444444444,0,0,0.010850694444444444,72.265625,0)" xlink:href="#U"/><use transform="matrix(0.010850694444444444,0,0,0.010850694444444444,86.90321180555556,0)" xlink:href="#au"/></g><g id="E"><use transform="matrix(0.010850694444444444,0,0,0.010850694444444444,0,0)" xlink:href="#P"/><use transform="matrix(0.010850694444444444,0,0,0.010850694444444444,11.067708333333332,0)" xlink:href="#K"/><use transform="matrix(0.010850694444444444,0,0,0.010850694444444444,22.667100694444443,0)" xlink:href="#M"/><use transform="matrix(0.010850694444444444,0,0,0.010850694444444444,37.6953125,0)" xlink:href="#U"/><use transform="matrix(0.010850694444444444,0,0,0.010850694444444444,52.33289930555556,0)" xlink:href="#U"/><use transform="matrix(0.010850694444444444,0,0,0.010850694444444444,66.97048611111111,0)" xlink:href="#R"/><use transform="matrix(0.010850694444444444,0,0,0.010850694444444444,77.48480902777779,0)" xlink:href="#K"/><use transform="matrix(0.010850694444444444,0,0,0.010850694444444444,89.35546875,0)" xlink:href="#au"/></g></defs></g></svg>