<svg xmlns="http://www.w3.org/2000/svg" xmlns:xlink="http://www.w3.org/1999/xlink" xmlns:lucid="lucid" width="811.56" height="883"><g transform="translate(-192.24862386273253 16.166666666666742)" lucid:page-tab-id=".pYb67_TBX4I"><path d="M213.75 11.33a6 6 0 0 1 6-6H976.3a6 6 0 0 1 6 6v828a6 6 0 0 1-6 6H219.76a6 6 0 0 1-6-6z" stroke="#dbdbdb" stroke-width="3" fill="#f2f3f5"/><path d="M337.53 304.33a19 19 0 0 1 19-19h496.4a19 19 0 0 1 19 19v502a19 19 0 0 1-19 19h-496.4a19 19 0 0 1-19-19z" stroke="#fc9432" stroke-width="3" fill="#fc9432"/><use xlink:href="#a" transform="matrix(1,0,0,1,342.5270567261214,290.33333333333326) translate(212.56672839506172 529.9426417777778)"/><path d="M364.73 324.33a19 19 0 0 1 19-19h442a19 19 0 0 1 19 19v443.05a19 19 0 0 1-19 19h-442a19 19 0 0 1-19-19z" stroke="#ced4db" stroke-width="3" fill="#ced4db"/><use xlink:href="#b" transform="matrix(1,0,0,1,369.7252642632243,310.33333333333326) translate(175.22104938271605 469.93051761777775)"/><use xlink:href="#c" transform="matrix(1,0,0,1,369.7252642632243,310.33333333333326) translate(222.0729012345679 469.93051761777775)"/><use xlink:href="#d" transform="matrix(1,0,0,1,369.7252642632243,310.33333333333326) translate(240.59141975308643 469.93051761777775)"/><g filter="url(#e)"><path d="M390.7 339.48a.5.5 0 0 1 .5-.5h168.63a.5.5 0 0 1 .5.5v93.42a.5.5 0 0 1-.5.5H391.2a.5.5 0 0 1-.5-.5z" fill="#fff" fill-opacity="0"/><path d="M391.2 338.98a.5.5 0 0 0-.5.5v93.42a.5.5 0 0 0 .5.5h168.63a.5.5 0 0 0 .5-.5v-93.42a.5.5 0 0 0-.5-.5z" stroke="#315796" stroke-width="3" fill="#315796"/><use xlink:href="#f" transform="matrix(1,0,0,1,400.53218309453763,350.0266818664963) translate(14.108072916666671 43.166666666666664)"/></g><g filter="url(#e)"><path d="M654.5 339.48a.5.5 0 0 1 .5-.5h168.65a.5.5 0 0 1 .5.5v93.42a.5.5 0 0 1-.5.5H655a.5.5 0 0 1-.5-.5z" fill="#fff" fill-opacity="0"/><path d="M655 338.98a.5.5 0 0 0-.5.5v93.42a.5.5 0 0 0 .5.5h168.65a.5.5 0 0 0 .5-.5v-93.42a.5.5 0 0 0-.5-.5z" stroke="#315796" stroke-width="3" fill="#315796"/><use xlink:href="#g" transform="matrix(1,0,0,1,664.3525575926731,350.0266818664963) translate(14.108072916666671 43.166666666666664)"/></g><g filter="url(#e)"><path d="M390.7 626.66a.5.5 0 0 1 .5-.5h168.63a.5.5 0 0 1 .5.5v93.4a.5.5 0 0 1-.5.5H391.2a.5.5 0 0 1-.5-.5z" fill="#fff" fill-opacity="0"/><path d="M391.2 626.16a.5.5 0 0 0-.5.5v93.4a.5.5 0 0 0 .5.5h168.63a.5.5 0 0 0 .5-.5v-93.4a.5.5 0 0 0-.5-.5z" stroke="#008a0e" stroke-width="3" fill="#008a0e"/><use xlink:href="#h" transform="matrix(1,0,0,1,400.53218309453763,637.2035328451157) translate(0.1302083333333286 43.166666666666664)"/></g><g filter="url(#e)"><path d="M658 625.87a.5.5 0 0 1 .5-.5h168.63a.5.5 0 0 1 .5.5v93.42a.5.5 0 0 1-.5.5H658.5a.5.5 0 0 1-.5-.5z" fill="#fff" fill-opacity="0"/><path d="M658.5 625.37a.5.5 0 0 0-.5.5v93.42a.5.5 0 0 0 .5.5h168.63a.5.5 0 0 0 .5-.5v-93.43a.5.5 0 0 0-.5-.5z" stroke="#008a0e" stroke-width="3" fill="#008a0e"/><use xlink:href="#i" transform="matrix(1,0,0,1,667.8289296010278,636.4182665092085) translate(0.1302083333333286 43.166666666666664)"/></g><path d="M461.16 335.98l-.16-177.7" stroke="#5e5e5e" stroke-width="3" fill="none"/><path d="M462.64 337.48h-2.95v-1.54h2.94zM462.48 158.33h-2.96v-.7l.77-.4 2.17-1.35z" stroke="#5e5e5e" stroke-width=".05" fill="#5e5e5e"/><path d="M493.87 336.58l239.15-178.64" stroke="#5e5e5e" stroke-width="3" fill="none"/><path d="M494.6 337.48h-4.4l2.82-2.1zM736.85 156.92l-2.98 2.22-1-1.35 1.04-.57 2.3-1.4z" stroke="#5e5e5e" stroke-width=".05" fill="#5e5e5e"/><path d="M701.25 336.55L487.6 168.3" stroke="#5e5e5e" stroke-width="3" fill="none"/><path d="M704.82 337.48h-4.35l1.66-2.1zM484.65 167.38h3.75l-1.67 2.1-2.76-2.17z" stroke="#5e5e5e" stroke-width=".05" fill="#5e5e5e"/><path d="M463.1 623.16v-4.67m0-6.24v-9.34m0-6.22v-9.34m0-6.22v-9.34m0-6.23v-9.34m0-6.22v-9.33m0-6.22v-9.34m0-6.22v-9.33m0-6.23v-9.34m0-6.22v-9.34m0-6.23v-9.34m0-6.23v-9.34m0-6.23v-4.67" stroke="#ba23f6" stroke-width="3" fill="none"/><path d="M464.58 624.66h-2.95v-1.54h2.95zM464.58 434.9v1.54h-2.95v-1.54z" stroke="#ba23f6" stroke-width=".05" fill="#ba23f6"/><path d="M734.63 335.98v-177.7" stroke="#5e5e5e" stroke-width="3" fill="none"/><path d="M736.1 337.48h-2.94v-1.54h2.95zM736.1 158.32h-2.94v-.7l.75-.4 2.2-1.35z" stroke="#5e5e5e" stroke-width=".05" fill="#5e5e5e"/><path d="M497.8 623.68l3.5-2.96m4.65-3.96l6.97-5.93m4.65-3.95l6.97-5.93m4.65-3.96l6.96-5.94m4.65-3.95l6.98-5.92m4.65-3.95l6.98-5.94m4.65-3.96l6.98-5.93m4.65-3.94l6.97-5.94m4.65-3.95l6.97-5.93m4.65-3.96l6.97-5.93m4.64-3.95l6.97-5.93m4.66-3.96l6.98-5.92m4.64-3.95l6.98-5.93m4.65-3.96l6.98-5.93m4.65-3.94l6.97-5.93m4.65-3.95l6.97-5.94m4.65-3.95l6.97-5.94m4.65-3.95l6.97-5.93m4.64-3.95l7-5.93m4.64-3.97l3.48-2.96" stroke="#ba23f6" stroke-width="3" fill="none"/><path d="M498.7 624.66h-4.3l2.48-2.12zM722.04 434.9l-2.5 2.12-1.8-2.12z" stroke="#ba23f6" stroke-width=".05" fill="#ba23f6"/><path d="M371.8 332.2a19 19 0 0 1 19-19h427.84a19 19 0 0 1 19 19v107.97a19 19 0 0 1-19 19H390.8a19 19 0 0 1-19-19z" stroke="#ba23f6" stroke-width="3" fill-opacity="0"/><use xlink:href="#j" transform="matrix(1,0,0,1,376.8136525886457,318.2101121845981) translate(152.90740740740742 17.77777777777778)"/><use xlink:href="#k" transform="matrix(1,0,0,1,376.8136525886457,318.2101121845981) translate(205.56172839506172 17.77777777777778)"/><use xlink:href="#l" transform="matrix(1,0,0,1,376.8136525886457,318.2101121845981) translate(241.3641975308642 17.77777777777778)"/><path d="M722.08 622.92l-3.43-2.8m-4.58-3.75l-6.87-5.6m-4.58-3.75l-6.87-5.6m-4.57-3.75l-6.87-5.62m-4.57-3.74l-6.87-5.6m-4.58-3.74l-6.86-5.6m-4.58-3.75l-6.87-5.6m-4.58-3.75l-6.88-5.6m-4.57-3.75l-6.87-5.6m-4.58-3.76l-6.87-5.6m-4.58-3.75l-6.86-5.62m-4.6-3.74l-6.86-5.62m-4.58-3.74l-6.86-5.6m-4.58-3.75l-6.87-5.6m-4.58-3.75l-6.87-5.62m-4.57-3.74l-6.87-5.6m-4.58-3.75l-6.87-5.6m-4.57-3.76l-6.86-5.6m-4.58-3.74l-6.88-5.6m-4.58-3.75l-6.87-5.6m-4.57-3.75l-3.44-2.8" stroke="#ba23f6" stroke-width="3" fill="none"/><path d="M725.57 623.87h-4.32l1.73-2.1zM494 434.9l-1.74 2.1-2.6-2.1z" stroke="#ba23f6" stroke-width=".05" fill="#ba23f6"/><path d="M761.78 622.37l-.08-4.65m-.12-6.2l-.17-9.3m-.1-6.2l-.17-9.3m-.12-6.2l-.16-9.3m-.1-6.2l-.2-9.3m-.1-6.2l-.17-9.3m-.1-6.2l-.18-9.28m-.13-6.2l-.17-9.3m-.1-6.2l-.2-9.3m-.1-6.2l-.17-9.3m-.12-6.2l-.16-9.3m-.1-6.2l-.18-9.3m-.1-6.2l-.1-4.64" stroke="#ba23f6" stroke-width="3" fill="none"/><path d="M763.28 623.87h-2.95l-.03-1.5 2.96-.06zM759.8 434.9l.04 1.5-2.95.06-.04-1.56z" stroke="#ba23f6" stroke-width=".05" fill="#ba23f6"/><path d="M414.53 131.73c-13.26 0-24-10.75-24-24 0-10.6 6.5-19.55 16.58-22.83-.57-31.17 39.43-37.17 55.43-25.17 8-18 48-12 48 6 24-6 48 18 32 48 16 24 0 54-32 42-8 15.6-40 15.6-48 0-16 12-48 6-48-24z" stroke="#000" stroke-opacity="0" stroke-width="3" fill="#9391ff"/><use xlink:href="#m" transform="matrix(1,0,0,1,395.52651919204163,52.7266333488717) translate(42.69753086419753 59.02777777777778)"/><path d="M688.15 131.73c-13.25 0-24-10.75-24-24 0-10.6 6.5-19.55 16.6-22.83-.6-31.17 39.4-37.17 55.4-25.17 8-18 48-12 48 6 24-6 48 18 32 48 16 24 0 54-32 42-8 15.6-40 15.6-48 0-16 12-48 6-48-24z" stroke="#000" stroke-opacity="0" stroke-width="3" fill="#9391ff"/><use xlink:href="#n" transform="matrix(1,0,0,1,669.1520444342425,52.7266333488717) translate(18.098765432098766 59.02777777777778)"/><path d="M371.8 629.46a19 19 0 0 1 19-19h427.84a19 19 0 0 1 19 19v109.92a19 19 0 0 1-19 19H390.8a19 19 0 0 1-19-19z" stroke="#ba23f6" stroke-width="3" fill-opacity="0"/><use xlink:href="#j" transform="matrix(1,0,0,1,376.8136525886457,615.4557602944935) translate(152.91240740740741 137.7560817777778)"/><use xlink:href="#k" transform="matrix(1,0,0,1,376.8136525886457,615.4557602944935) translate(205.56672839506174 137.7560817777778)"/><use xlink:href="#o" transform="matrix(1,0,0,1,376.8136525886457,615.4557602944935) translate(241.3691975308642 137.7560817777778)"/><path d="M563.33 677.4h4.58m6.13 0h9.16m6.1 0h9.17m6.1 0h9.17m6.1 0h9.18m6.1 0h9.18m6.1 0h4.6" stroke="#00c2a8" stroke-width="3" fill="none"/><path d="M563.37 678.86h-1.54v-2.95h1.54zM656.5 678.86h-1.55v-2.95h1.54z" stroke="#00c2a8" stroke-width=".05" fill="#00c2a8"/><path d="M213.75 18.7h191.2v26.02h-191.2z" fill="none"/><use xlink:href="#p" transform="matrix(1,0,0,1,213.74862386273256,18.710520688436418) translate(44.80246913580247 23.11111111111111)"/><path d="M268.7 57.88l4.67-.02m6.23-.02l9.34-.03m6.23 0l9.34-.04m6.24-.02l9.34-.03m6.23 0l9.35-.04m6.23-.02l9.35-.03m6.22 0l9.35-.04m6.22-.02l4.68-.02M268.74 57.88h-1.54M377.66 57.52h1.54" stroke="#ba23f6" stroke-width="3" fill="none"/><g><use xlink:href="#q" transform="matrix(1,0,0,1,288.77276188183305,61.72645571766421) translate(0 14.222222222222223)"/><use xlink:href="#r" transform="matrix(1,0,0,1,288.77276188183305,61.72645571766421) translate(4.938271604938272 14.222222222222223)"/></g><path d="M267.44 86.33l4.67-.02m6.24 0l9.34-.04m6.23-.02l9.35-.03m6.23 0l9.34-.04m6.23-.02l9.34-.03m6.22-.02l9.34-.02m6.23-.03l9.34-.03m6.22-.02h4.68M267.48 86.33h-1.54M376.4 85.97h1.54" stroke="#00c2a8" stroke-width="3" fill="none"/><g><use xlink:href="#q" transform="matrix(1,0,0,1,289.9442229000402,90.17259438881153) translate(0 14.222222222222223)"/><use xlink:href="#s" transform="matrix(1,0,0,1,289.9442229000402,90.17259438881153) translate(4.938271604938272 14.222222222222223)"/></g><defs><path fill="#333" d="M240-174c0 40-23 61-54 70L253 0h-59l-57-94H76V0H24v-248c93 4 217-23 216 74zM76-134c48-2 112 12 112-38 0-48-66-32-112-35v73" id="t"/><path fill="#333" d="M24 0v-248h195v40H76v63h132v40H76v65h150V0H24" id="u"/><path fill="#333" d="M67-125c0 54 23 88 75 88 28 0 53-7 68-21v-34h-60v-39h108v91C232-14 192 4 140 4 58 4 20-42 15-125 8-236 126-280 215-234c19 10 29 26 37 47l-47 15c-11-23-29-39-63-39-53 1-75 33-75 86" id="v"/><path fill="#333" d="M24 0v-248h52V0H24" id="w"/><path fill="#333" d="M140-251c80 0 125 45 125 126S219 4 139 4C58 4 15-44 15-125s44-126 125-126zm-1 214c52 0 73-35 73-88 0-50-21-86-72-86-52 0-73 35-73 86s22 88 72 88" id="x"/><path fill="#333" d="M175 0L67-191c6 58 2 128 3 191H24v-248h59L193-55c-6-58-2-129-3-193h46V0h-61" id="y"/><path fill="#333" d="M23 0v-37h61v-169l-59 37v-38l62-41h46v211h57V0H23" id="z"/><g id="a"><use transform="matrix(0.06172839506172839,0,0,0.06172839506172839,0,0)" xlink:href="#t"/><use transform="matrix(0.06172839506172839,0,0,0.06172839506172839,15.987654320987653,0)" xlink:href="#u"/><use transform="matrix(0.06172839506172839,0,0,0.06172839506172839,30.80246913580247,0)" xlink:href="#v"/><use transform="matrix(0.06172839506172839,0,0,0.06172839506172839,48.08641975308642,0)" xlink:href="#w"/><use transform="matrix(0.06172839506172839,0,0,0.06172839506172839,54.25925925925926,0)" xlink:href="#x"/><use transform="matrix(0.06172839506172839,0,0,0.06172839506172839,71.54320987654322,0)" xlink:href="#y"/><use transform="matrix(0.06172839506172839,0,0,0.06172839506172839,87.53086419753087,0)" xlink:href="#z"/></g><path fill="#333" d="M169-182c-1-43-94-46-97-3 18 66 151 10 154 114 3 95-165 93-204 36-6-8-10-19-12-30l50-8c3 46 112 56 116 5-17-69-150-10-154-114-4-87 153-88 188-35 5 8 8 18 10 28" id="A"/><path fill="#333" d="M25-224v-37h50v37H25zM25 0v-190h50V0H25" id="B"/><path fill="#333" d="M115-3C79 11 28 4 28-45v-112H4v-33h27l15-45h31v45h36v33H77v99c-1 23 16 31 38 25v30" id="C"/><path fill="#333" d="M185-48c-13 30-37 53-82 52C43 2 14-33 14-96s30-98 90-98c62 0 83 45 84 108H66c0 31 8 55 39 56 18 0 30-7 34-22zm-45-69c5-46-57-63-70-21-2 6-4 13-4 21h74" id="D"/><g id="b"><use transform="matrix(0.06172839506172839,0,0,0.06172839506172839,0,0)" xlink:href="#A"/><use transform="matrix(0.06172839506172839,0,0,0.06172839506172839,14.814814814814813,0)" xlink:href="#B"/><use transform="matrix(0.06172839506172839,0,0,0.06172839506172839,20.98765432098765,0)" xlink:href="#C"/><use transform="matrix(0.06172839506172839,0,0,0.06172839506172839,28.33333333333333,0)" xlink:href="#D"/></g><use transform="matrix(0.06172839506172839,0,0,0.06172839506172839,0,0)" xlink:href="#z" id="c"/><path fill="#333" d="M24 0v-248h52v208h133V0H24" id="E"/><path fill="#333" d="M128-127c34 4 56 21 59 58 7 91-148 94-172 28-4-9-6-17-7-26l51-5c1 24 16 35 40 36 23 0 39-12 38-36-1-31-31-36-65-34v-40c32 2 59-3 59-33 0-20-13-33-34-33s-33 13-35 32l-50-3c6-44 37-68 86-68 50 0 83 20 83 66 0 35-22 52-53 58" id="F"/><g id="d"><use transform="matrix(0.06172839506172839,0,0,0.06172839506172839,0,0)" xlink:href="#E"/><use transform="matrix(0.06172839506172839,0,0,0.06172839506172839,13.518518518518517,0)" xlink:href="#F"/><use transform="matrix(0.06172839506172839,0,0,0.06172839506172839,25.864197530864196,0)" xlink:href="#E"/><use transform="matrix(0.06172839506172839,0,0,0.06172839506172839,39.382716049382715,0)" xlink:href="#A"/></g><path fill="#fff" d="M80-702c6-234 206-338 457-298 93 15 166 59 220 115-26 37-46 85-79 115-8 4-17 7-28 7-73 0-113-61-203-61-94 0-160 79-107 152 93 83 270 88 356 179 39 42 70 95 69 176C761-63 553 47 286 6 191-9 109-52 51-106c29-40 47-92 85-123 77-33 115 38 178 55 22 6 48 12 80 12 81 0 133-35 133-110 0-69-60-91-116-111C252-440 75-483 80-702" id="G"/><path fill="#fff" d="M379-993V0H125v-993h254zm-132-444c97 0 163 62 163 159 0 96-66 158-163 158-94 0-157-63-157-158s62-159 157-159" id="H"/><path fill="#fff" d="M680-72c-61 52-150 86-256 87-172 2-267-108-267-279v-542c-63-2-138 16-138-53v-101l151-29 53-262c11-66 119-33 188-41v306h245v180H411v525c0 54 23 90 73 93 51 3 85-62 119-7" id="I"/><path fill="#fff" d="M960-149C871-45 736 15 551 15 231 15 63-191 63-518c0-229 113-378 277-452 59-26 125-39 199-39 278 0 430 170 430 452 0 55-4 97-59 97H316c14 166 83 276 257 279 98 1 159-38 221-71 33-18 71-20 93 9zM741-612c-4-130-65-216-197-216-140 0-203 89-223 216h420" id="J"/><path fill="#fff" d="M236-180h257c2-279-3-565 3-840L323-871c-27 30-91 18-110-9l-76-104 399-346h198v1150h227V0H236v-180" id="K"/><path fill="#fff" d="M61-690h505v212H61v-212" id="L"/><path fill="#fff" d="M7-993h202c35-1 65 20 72 47 54 227 117 445 163 680 64-229 138-454 200-682 17-61 107-44 180-46 35-1 63 20 71 46 63 226 132 456 192 683 47-236 115-454 171-682 6-26 34-47 68-46h193L1210 0h-205c-23 0-39-15-48-44L793-596c-13-41-23-80-30-119-57 232-132 447-197 671-9 29-28 44-55 44H316" id="M"/><path fill="#fff" d="M534-1012c240 0 371 147 371 387V0c-80-7-186 24-201-53l-22-66C598-47 516 18 362 15 183 12 73-75 73-255c0-177 142-239 303-283 75-20 169-31 281-34 9-142-26-239-155-239-97 0-149 37-209 70-49 27-108 2-128-33l-46-80c103-96 231-158 415-158zM316-268c-2 80 48 110 125 110 107 0 156-41 216-100v-160c-111 5-199 15-269 48-43 21-70 49-72 102" id="N"/><path fill="#fff" d="M582-811c-92 1-152 44-204 95V0H124v-993c65 5 150-14 196 11 30 17 27 71 39 107 74-72 158-134 301-134 225 0 332 151 332 377V0H738v-632c0-109-49-180-156-179" id="O"/><g id="f"><use transform="matrix(0.013020833333333334,0,0,0.013020833333333334,0,0)" xlink:href="#G"/><use transform="matrix(0.013020833333333334,0,0,0.013020833333333334,10.638020833333334,0)" xlink:href="#H"/><use transform="matrix(0.013020833333333334,0,0,0.013020833333333334,17.1875,0)" xlink:href="#I"/><use transform="matrix(0.013020833333333334,0,0,0.013020833333333334,26.106770833333336,0)" xlink:href="#J"/><use transform="matrix(0.013020833333333334,0,0,0.013020833333333334,39.53125,0)" xlink:href="#K"/><use transform="matrix(0.013020833333333334,0,0,0.013020833333333334,53.046875,0)" xlink:href="#L"/><use transform="matrix(0.013020833333333334,0,0,0.013020833333333334,61.2109375,0)" xlink:href="#M"/><use transform="matrix(0.013020833333333334,0,0,0.013020833333333334,80.79427083333333,0)" xlink:href="#N"/><use transform="matrix(0.013020833333333334,0,0,0.013020833333333334,93.95833333333333,0)" xlink:href="#O"/><use transform="matrix(0.013020833333333334,0,0,0.013020833333333334,108.26822916666664,0)" xlink:href="#K"/></g><filter id="e" filterUnits="objectBoundingBox" x="-.06" y="-.04" width="1.12" height="1.21"><feOffset result="offOut" in="SourceAlpha" dy="6"/><feGaussianBlur result="blurOut" in="offOut" stdDeviation="5"/><feColorMatrix result="colorOut" in="blurOut" values="0 0 0 0 0 0 0 0 0 0 0 0 0 0 0 0 0 0 0.5019607843137255 0"/><feBlend in="SourceGraphic" in2="colorOut"/></filter><path fill="#fff" d="M89-955c40-238 181-388 449-388 250 0 409 134 409 381 0 232-139 347-258 472L407-195c126-46 310-24 475-29 49-1 86 32 85 80V0H69c-2-76 0-138 43-180 161-160 326-321 472-494 63-74 110-153 115-281 6-143-107-217-242-175-61 19-100 69-121 131-19 56-46 79-119 66" id="P"/><g id="g"><use transform="matrix(0.013020833333333334,0,0,0.013020833333333334,0,0)" xlink:href="#G"/><use transform="matrix(0.013020833333333334,0,0,0.013020833333333334,10.638020833333334,0)" xlink:href="#H"/><use transform="matrix(0.013020833333333334,0,0,0.013020833333333334,17.1875,0)" xlink:href="#I"/><use transform="matrix(0.013020833333333334,0,0,0.013020833333333334,26.106770833333336,0)" xlink:href="#J"/><use transform="matrix(0.013020833333333334,0,0,0.013020833333333334,39.53125,0)" xlink:href="#K"/><use transform="matrix(0.013020833333333334,0,0,0.013020833333333334,53.046875,0)" xlink:href="#L"/><use transform="matrix(0.013020833333333334,0,0,0.013020833333333334,61.2109375,0)" xlink:href="#M"/><use transform="matrix(0.013020833333333334,0,0,0.013020833333333334,80.79427083333333,0)" xlink:href="#N"/><use transform="matrix(0.013020833333333334,0,0,0.013020833333333334,93.95833333333333,0)" xlink:href="#O"/><use transform="matrix(0.013020833333333334,0,0,0.013020833333333334,108.26822916666664,0)" xlink:href="#P"/></g><path fill="#fff" d="M619 15c-128 0-198-56-256-127-11 50-5 112-70 112H124v-1437h254v561c71-71 156-133 289-133 266 0 369 213 369 487 0 241-87 415-246 498-51 26-108 39-171 39zm155-527c0-166-35-299-195-299-102 0-149 49-201 111v438c43 54 92 85 176 85 177 0 220-149 220-335" id="Q"/><path fill="#fff" d="M352-974c116-47 283-48 399 0 177 72 288 230 288 475 0 247-110 405-288 478-116 48-283 48-399 0C173-94 62-251 62-499c0-246 112-403 290-475zm-28 477c0 189 54 318 228 318 172 0 225-131 225-318s-53-318-225-318c-174 0-228 130-228 318" id="R"/><path fill="#fff" d="M545-767c-109 4-148 72-181 151V0H110v-993c66 5 161-12 204 14 28 28 23 102 33 150 53-94 116-183 244-183 43 0 79 10 107 31l-19 190c-6 59-87 22-134 24" id="S"/><path fill="#fff" d="M483-1012c112 0 179 37 238 92v-517h254V0H818c-73 2-64-82-83-135C661-54 570 15 422 15 157 15 63-214 63-494c0-232 92-397 247-478 52-26 110-40 173-40zM325-494c0 166 29 308 186 308 106 0 161-51 210-111v-438c-43-55-93-85-178-85-170 0-218 146-218 326" id="T"/><g id="h"><use transform="matrix(0.013020833333333334,0,0,0.013020833333333334,0,0)" xlink:href="#G"/><use transform="matrix(0.013020833333333334,0,0,0.013020833333333334,10.638020833333334,0)" xlink:href="#H"/><use transform="matrix(0.013020833333333334,0,0,0.013020833333333334,17.1875,0)" xlink:href="#I"/><use transform="matrix(0.013020833333333334,0,0,0.013020833333333334,26.106770833333336,0)" xlink:href="#J"/><use transform="matrix(0.013020833333333334,0,0,0.013020833333333334,39.53125,0)" xlink:href="#K"/><use transform="matrix(0.013020833333333334,0,0,0.013020833333333334,53.046875,0)" xlink:href="#L"/><use transform="matrix(0.013020833333333334,0,0,0.013020833333333334,61.2109375,0)" xlink:href="#Q"/><use transform="matrix(0.013020833333333334,0,0,0.013020833333333334,75.52083333333333,0)" xlink:href="#R"/><use transform="matrix(0.013020833333333334,0,0,0.013020833333333334,89.85677083333333,0)" xlink:href="#S"/><use transform="matrix(0.013020833333333334,0,0,0.013020833333333334,99.01041666666667,0)" xlink:href="#T"/><use transform="matrix(0.013020833333333334,0,0,0.013020833333333334,113.3203125,0)" xlink:href="#J"/><use transform="matrix(0.013020833333333334,0,0,0.013020833333333334,126.74479166666667,0)" xlink:href="#S"/><use transform="matrix(0.013020833333333334,0,0,0.013020833333333334,136.22395833333334,0)" xlink:href="#K"/></g><g id="i"><use transform="matrix(0.013020833333333334,0,0,0.013020833333333334,0,0)" xlink:href="#G"/><use transform="matrix(0.013020833333333334,0,0,0.013020833333333334,10.638020833333334,0)" xlink:href="#H"/><use transform="matrix(0.013020833333333334,0,0,0.013020833333333334,17.1875,0)" xlink:href="#I"/><use transform="matrix(0.013020833333333334,0,0,0.013020833333333334,26.106770833333336,0)" xlink:href="#J"/><use transform="matrix(0.013020833333333334,0,0,0.013020833333333334,39.53125,0)" xlink:href="#P"/><use transform="matrix(0.013020833333333334,0,0,0.013020833333333334,53.046875,0)" xlink:href="#L"/><use transform="matrix(0.013020833333333334,0,0,0.013020833333333334,61.2109375,0)" xlink:href="#Q"/><use transform="matrix(0.013020833333333334,0,0,0.013020833333333334,75.52083333333333,0)" xlink:href="#R"/><use transform="matrix(0.013020833333333334,0,0,0.013020833333333334,89.85677083333333,0)" xlink:href="#S"/><use transform="matrix(0.013020833333333334,0,0,0.013020833333333334,99.01041666666667,0)" xlink:href="#T"/><use transform="matrix(0.013020833333333334,0,0,0.013020833333333334,113.3203125,0)" xlink:href="#J"/><use transform="matrix(0.013020833333333334,0,0,0.013020833333333334,126.74479166666667,0)" xlink:href="#S"/><use transform="matrix(0.013020833333333334,0,0,0.013020833333333334,136.22395833333334,0)" xlink:href="#P"/></g><path fill="#ba23f6" d="M160-131c35 5 61 23 61 61C221 17 115-2 30 0v-248c76 3 177-17 177 60 0 33-19 50-47 57zm-97-11c50-1 110 9 110-42 0-47-63-36-110-37v79zm0 115c55-2 124 14 124-45 0-56-70-42-124-44v89" id="U"/><path fill="#ba23f6" d="M143 4C61 4 22-44 18-125c-5-107 100-154 193-111 17 8 29 25 37 43l-32 9c-13-25-37-40-76-40-61 0-88 39-88 99 0 61 29 100 91 101 35 0 62-11 79-27v-45h-74v-28h105v86C228-13 192 4 143 4" id="V"/><path fill="#ba23f6" d="M30-248c87 1 191-15 191 75 0 78-77 80-158 76V0H30v-248zm33 125c57 0 124 11 124-50 0-59-68-47-124-48v98" id="W"/><g id="j"><use transform="matrix(0.06172839506172839,0,0,0.06172839506172839,0,0)" xlink:href="#U"/><use transform="matrix(0.06172839506172839,0,0,0.06172839506172839,14.814814814814813,0)" xlink:href="#V"/><use transform="matrix(0.06172839506172839,0,0,0.06172839506172839,32.09876543209876,0)" xlink:href="#W"/></g><path fill="#ba23f6" d="M205 0l-28-72H64L36 0H1l101-248h38L239 0h-34zm-38-99l-47-123c-12 45-31 82-46 123h93" id="X"/><path fill="#ba23f6" d="M185-189c-5-48-123-54-124 2 14 75 158 14 163 119 3 78-121 87-175 55-17-10-28-26-33-46l33-7c5 56 141 63 141-1 0-78-155-14-162-118-5-82 145-84 179-34 5 7 8 16 11 25" id="Y"/><g id="k"><use transform="matrix(0.06172839506172839,0,0,0.06172839506172839,0,0)" xlink:href="#X"/><use transform="matrix(0.06172839506172839,0,0,0.06172839506172839,14.814814814814813,0)" xlink:href="#Y"/></g><path fill="#ba23f6" d="M110-160c48 1 74 30 74 79 0 53-28 85-80 85-65 0-83-55-86-122-5-90 50-162 133-122 14 7 22 21 27 39l-31 6c-5-40-67-38-82-6-9 19-15 44-15 74 11-20 30-34 60-33zm-7 138c34 0 49-23 49-58s-16-56-50-56c-29 0-50 16-49 49 1 36 15 65 50 65" id="Z"/><path fill="#ba23f6" d="M54-142c48-35 137-8 131 61C196 18 31 33 14-55l32-4c7 23 22 37 52 37 35-1 51-22 54-58 4-55-73-65-99-34H22l8-134h141v27H59" id="aa"/><path fill="#ba23f6" d="M101-251c68 0 85 55 85 127S166 4 100 4C33 4 14-52 14-124c0-73 17-127 87-127zm-1 229c47 0 54-49 54-102s-4-102-53-102c-51 0-55 48-55 102 0 53 5 102 54 102" id="ab"/><g id="l"><use transform="matrix(0.06172839506172839,0,0,0.06172839506172839,0,0)" xlink:href="#Z"/><use transform="matrix(0.06172839506172839,0,0,0.06172839506172839,12.345679012345679,0)" xlink:href="#aa"/><use transform="matrix(0.06172839506172839,0,0,0.06172839506172839,24.691358024691358,0)" xlink:href="#ab"/><use transform="matrix(0.06172839506172839,0,0,0.06172839506172839,37.03703703703704,0)" xlink:href="#ab"/><use transform="matrix(0.06172839506172839,0,0,0.06172839506172839,49.382716049382715,0)" xlink:href="#ab"/></g><path fill="#fff" d="M230 0l2-204L168 0h-37L68-204 70 0H24v-248h70l56 185 57-185h69V0h-46" id="ac"/><path fill="#fff" d="M24-248c93 1 206-16 204 79-1 75-69 88-152 82V0H24v-248zm52 121c47 0 100 7 100-41 0-47-54-39-100-39v80" id="ad"/><path fill="#fff" d="M24 0v-248h52v208h133V0H24" id="ae"/><path fill="#fff" d="M169-182c-1-43-94-46-97-3 18 66 151 10 154 114 3 95-165 93-204 36-6-8-10-19-12-30l50-8c3 46 112 56 116 5-17-69-150-10-154-114-4-87 153-88 188-35 5 8 8 18 10 28" id="af"/><g id="m"><use transform="matrix(0.06172839506172839,0,0,0.06172839506172839,0,0)" xlink:href="#ac"/><use transform="matrix(0.06172839506172839,0,0,0.06172839506172839,18.456790123456788,0)" xlink:href="#ad"/><use transform="matrix(0.06172839506172839,0,0,0.06172839506172839,33.2716049382716,0)" xlink:href="#ae"/><use transform="matrix(0.06172839506172839,0,0,0.06172839506172839,46.79012345679012,0)" xlink:href="#af"/></g><path fill="#fff" d="M24 0v-248h52V0H24" id="ag"/><path fill="#fff" d="M175 0L67-191c6 58 2 128 3 191H24v-248h59L193-55c-6-58-2-129-3-193h46V0h-61" id="ah"/><path fill="#fff" d="M136-208V0H84v-208H4v-40h212v40h-80" id="ai"/><path fill="#fff" d="M24 0v-248h195v40H76v63h132v40H76v65h150V0H24" id="aj"/><path fill="#fff" d="M240-174c0 40-23 61-54 70L253 0h-59l-57-94H76V0H24v-248c93 4 217-23 216 74zM76-134c48-2 112 12 112-38 0-48-66-32-112-35v73" id="ak"/><g id="n"><use transform="matrix(0.06172839506172839,0,0,0.06172839506172839,0,0)" xlink:href="#ag"/><use transform="matrix(0.06172839506172839,0,0,0.06172839506172839,6.172839506172839,0)" xlink:href="#ah"/><use transform="matrix(0.06172839506172839,0,0,0.06172839506172839,22.160493827160494,0)" xlink:href="#ai"/><use transform="matrix(0.06172839506172839,0,0,0.06172839506172839,35.67901234567901,0)" xlink:href="#aj"/><use transform="matrix(0.06172839506172839,0,0,0.06172839506172839,50.49382716049382,0)" xlink:href="#ak"/><use transform="matrix(0.06172839506172839,0,0,0.06172839506172839,66.48148148148148,0)" xlink:href="#ah"/><use transform="matrix(0.06172839506172839,0,0,0.06172839506172839,82.46913580246914,0)" xlink:href="#aj"/><use transform="matrix(0.06172839506172839,0,0,0.06172839506172839,97.28395061728395,0)" xlink:href="#ai"/></g><path fill="#ba23f6" d="M27 0v-27h64v-190l-56 39v-29l58-41h29v221h61V0H27" id="al"/><g id="o"><use transform="matrix(0.06172839506172839,0,0,0.06172839506172839,0,0)" xlink:href="#Z"/><use transform="matrix(0.06172839506172839,0,0,0.06172839506172839,12.345679012345679,0)" xlink:href="#aa"/><use transform="matrix(0.06172839506172839,0,0,0.06172839506172839,24.691358024691358,0)" xlink:href="#al"/><use transform="matrix(0.06172839506172839,0,0,0.06172839506172839,37.03703703703704,0)" xlink:href="#ab"/><use transform="matrix(0.06172839506172839,0,0,0.06172839506172839,49.382716049382715,0)" xlink:href="#al"/></g><path fill="#979ea8" d="M24 0v-248h52v208h133V0H24" id="am"/><path fill="#979ea8" d="M185-48c-13 30-37 53-82 52C43 2 14-33 14-96s30-98 90-98c62 0 83 45 84 108H66c0 31 8 55 39 56 18 0 30-7 34-22zm-45-69c5-46-57-63-70-21-2 6-4 13-4 21h74" id="an"/><path fill="#979ea8" d="M195-6C206 82 75 100 31 46c-4-6-6-13-8-21l49-6c3 16 16 24 34 25 40 0 42-37 40-79-11 22-30 35-61 35-53 0-70-43-70-97 0-56 18-96 73-97 30 0 46 14 59 34l2-30h47zm-90-29c32 0 41-27 41-63 0-35-9-62-40-62-32 0-39 29-40 63 0 36 9 62 39 62" id="ao"/><path fill="#979ea8" d="M135-194c87-1 58 113 63 194h-50c-7-57 23-157-34-157-59 0-34 97-39 157H25l-1-190h47c2 12-1 28 3 38 12-26 28-41 61-42" id="ap"/><path fill="#979ea8" d="M88-194c31-1 46 15 58 34l-1-101h50l1 261h-48c-2-10 0-23-3-31C134-8 116 4 84 4 32 4 16-41 15-95c0-56 19-97 73-99zm17 164c33 0 40-30 41-66 1-37-9-64-41-64s-38 30-39 65c0 43 13 65 39 65" id="aq"/><g id="p"><use transform="matrix(0.08024691358024691,0,0,0.08024691358024691,0,0)" xlink:href="#am"/><use transform="matrix(0.08024691358024691,0,0,0.08024691358024691,17.574074074074073,0)" xlink:href="#an"/><use transform="matrix(0.08024691358024691,0,0,0.08024691358024691,33.623456790123456,0)" xlink:href="#ao"/><use transform="matrix(0.08024691358024691,0,0,0.08024691358024691,51.197530864197525,0)" xlink:href="#an"/><use transform="matrix(0.08024691358024691,0,0,0.08024691358024691,67.24691358024691,0)" xlink:href="#ap"/><use transform="matrix(0.08024691358024691,0,0,0.08024691358024691,84.82098765432099,0)" xlink:href="#aq"/></g><path fill="#979ea8" d="M182-130c37 4 62 22 62 59C244 23 116-4 24 0v-248c84 5 203-23 205 63 0 31-19 50-47 55zM76-148c40-3 101 13 101-30 0-44-60-28-101-31v61zm0 110c48-3 116 14 116-37 0-48-69-32-116-35v72" id="ar"/><path fill="#979ea8" d="M67-125c0 54 23 88 75 88 28 0 53-7 68-21v-34h-60v-39h108v91C232-14 192 4 140 4 58 4 20-42 15-125 8-236 126-280 215-234c19 10 29 26 37 47l-47 15c-11-23-29-39-63-39-53 1-75 33-75 86" id="as"/><path fill="#979ea8" d="M24-248c93 1 206-16 204 79-1 75-69 88-152 82V0H24v-248zm52 121c47 0 100 7 100-41 0-47-54-39-100-39v80" id="at"/><g id="r"><use transform="matrix(0.04938271604938272,0,0,0.04938271604938272,0,0)" xlink:href="#an"/><use transform="matrix(0.04938271604938272,0,0,0.04938271604938272,9.876543209876544,0)" xlink:href="#ar"/><use transform="matrix(0.04938271604938272,0,0,0.04938271604938272,22.66666666666667,0)" xlink:href="#as"/><use transform="matrix(0.04938271604938272,0,0,0.04938271604938272,36.49382716049384,0)" xlink:href="#at"/></g><path fill="#979ea8" d="M25-224v-37h50v37H25zM25 0v-190h50V0H25" id="au"/><g id="s"><use transform="matrix(0.04938271604938272,0,0,0.04938271604938272,0,0)" xlink:href="#au"/><use transform="matrix(0.04938271604938272,0,0,0.04938271604938272,4.938271604938272,0)" xlink:href="#ar"/><use transform="matrix(0.04938271604938272,0,0,0.04938271604938272,17.7283950617284,0)" xlink:href="#as"/><use transform="matrix(0.04938271604938272,0,0,0.04938271604938272,31.555555555555557,0)" xlink:href="#at"/></g></defs></g></svg>