<svg xmlns="http://www.w3.org/2000/svg" xmlns:xlink="http://www.w3.org/1999/xlink" xmlns:lucid="lucid" width="827.78" height="883"><g transform="translate(-60.7770567261216 -22.5)" lucid:page-tab-id=".pYb67_TBX4I"><path d="M82.28 50a6 6 0 0 1 6-6h772.78a6 6 0 0 1 6 6v828a6 6 0 0 1-6 6H88.28a6 6 0 0 1-6-6z" stroke="#dbdbdb" stroke-width="3" fill="#f2f3f5"/><path d="M207.06 343a19 19 0 0 1 19-19h496.4a19 19 0 0 1 19 19v502a19 19 0 0 1-19 19h-496.4a19 19 0 0 1-19-19z" stroke="#fc9432" stroke-width="3" fill="#fc9432"/><use xlink:href="#a" transform="matrix(1,0,0,1,212.05627660721188,329.00000000000006) translate(212.56672839506172 529.9426417777778)"/><path d="M234.67 363a19 19 0 0 1 19-19h442a19 19 0 0 1 19 19v443.04a19 19 0 0 1-19 19h-442a19 19 0 0 1-19-19z" stroke="#ced4db" stroke-width="3" fill="#ced4db"/><use xlink:href="#b" transform="matrix(1,0,0,1,239.66666666666674,349.0000000000003) translate(175.22104938271605 469.93051761777775)"/><use xlink:href="#c" transform="matrix(1,0,0,1,239.66666666666674,349.0000000000003) translate(222.0729012345679 469.93051761777775)"/><use xlink:href="#d" transform="matrix(1,0,0,1,239.66666666666674,349.0000000000003) translate(240.59141975308643 469.93051761777775)"/><g filter="url(#e)"><path d="M255.16 378.15a.5.5 0 0 1 .5-.5H424.3a.5.5 0 0 1 .5.5v93.4a.5.5 0 0 1-.5.5H255.65a.5.5 0 0 1-.5-.5z" fill="#fff" fill-opacity="0"/><path d="M255.66 377.65a.5.5 0 0 0-.5.5v93.4a.5.5 0 0 0 .5.5H424.3a.5.5 0 0 0 .5-.5v-93.4a.5.5 0 0 0-.5-.5z" stroke="#315796" stroke-width="3" fill="#315796"/><use xlink:href="#f" transform="matrix(1,0,0,1,264.9946444444226,388.6933485331629) translate(14.108072916666671 43.166666666666664)"/></g><g filter="url(#e)"><path d="M527.06 378.15a.5.5 0 0 1 .5-.5H696.2a.5.5 0 0 1 .5.5v93.4a.5.5 0 0 1-.5.5H527.56a.5.5 0 0 1-.5-.5z" fill="#fff" fill-opacity="0"/><path d="M527.56 377.65a.5.5 0 0 0-.5.5v93.4a.5.5 0 0 0 .5.5H696.2a.5.5 0 0 0 .5-.5v-93.4a.5.5 0 0 0-.5-.5z" stroke="#315796" stroke-width="3" fill="#315796"/><use xlink:href="#g" transform="matrix(1,0,0,1,536.8953108288797,388.6933485331629) translate(14.108072916666671 43.166666666666664)"/></g><g filter="url(#e)"><path d="M255.16 665.32a.5.5 0 0 1 .5-.5H424.3a.5.5 0 0 1 .5.5v93.42a.5.5 0 0 1-.5.5H255.65a.5.5 0 0 1-.5-.5z" fill="#fff" fill-opacity="0"/><path d="M255.66 664.82a.5.5 0 0 0-.5.5v93.42a.5.5 0 0 0 .5.5H424.3a.5.5 0 0 0 .5-.5v-93.42a.5.5 0 0 0-.5-.5z" stroke="#008a0e" stroke-width="3" fill="#008a0e"/><use xlink:href="#h" transform="matrix(1,0,0,1,264.9946444444226,675.8701995117823) translate(0.1302083333333286 43.166666666666664)"/></g><g filter="url(#e)"><path d="M527.1 664.54a.5.5 0 0 1 .5-.5h168.63a.5.5 0 0 1 .5.5v93.42a.5.5 0 0 1-.5.5H527.6a.5.5 0 0 1-.5-.5z" fill="#fff" fill-opacity="0"/><path d="M527.6 664.04a.5.5 0 0 0-.5.5v93.42a.5.5 0 0 0 .5.5h168.63a.5.5 0 0 0 .5-.5v-93.42a.5.5 0 0 0-.5-.5z" stroke="#008a0e" stroke-width="3" fill="#008a0e"/><use xlink:href="#i" transform="matrix(1,0,0,1,536.9356864315805,675.0849331758752) translate(0.1302083333333286 43.166666666666664)"/></g><path d="M301.98 364.5a.5.5 0 0 1 .5-.5h37a.5.5 0 0 1 .5.5v22.97a.5.5 0 0 1-.5.5h-37a.5.5 0 0 1-.5-.5z" fill="#fff" fill-opacity="0"/><path d="M302.48 364.97a.5.5 0 0 0-.5.5v21.03a.5.5 0 0 0 .5.5h37a.5.5 0 0 0 .5-.5v-21.03a.5.5 0 0 0-.5-.5z" stroke="#5e5e5e" fill="#fff"/><use xlink:href="#j" transform="matrix(1,0,0,1,316.3778482303587,364) translate(0.49479166666666696 16.444444444444443)"/><path d="M339.98 364.5a.5.5 0 0 1 .5-.5h37a.5.5 0 0 1 .5.5v22.97a.5.5 0 0 1-.5.5h-37a.5.5 0 0 1-.5-.5z" fill="#fff" fill-opacity="0"/><path d="M340.48 364.97a.5.5 0 0 0-.5.5v21.03a.5.5 0 0 0 .5.5h37a.5.5 0 0 0 .5-.5v-21.03a.5.5 0 0 0-.5-.5z" stroke="#5e5e5e" fill="#fff"/><use xlink:href="#k" transform="matrix(1,0,0,1,354.3762741949554,364) translate(0.49479166666666696 16.444444444444443)"/><path d="M580.74 364.5a.5.5 0 0 1 .5-.5h37a.5.5 0 0 1 .5.5v22.97a.5.5 0 0 1-.5.5h-37a.5.5 0 0 1-.5-.5z" fill="#fff" fill-opacity="0"/><path d="M581.24 364.97a.5.5 0 0 0-.5.5v21.03a.5.5 0 0 0 .5.5h37a.5.5 0 0 0 .5-.5v-21.03a.5.5 0 0 0-.5-.5z" stroke="#5e5e5e" fill="#fff"/><use xlink:href="#j" transform="matrix(1,0,0,1,595.1397247845387,364) translate(0.49479166666666696 16.444444444444443)"/><path d="M618.74 364.5a.5.5 0 0 1 .5-.5h37a.5.5 0 0 1 .5.5v22.97a.5.5 0 0 1-.5.5h-37a.5.5 0 0 1-.5-.5z" fill="#fff" fill-opacity="0"/><path d="M619.24 364.97a.5.5 0 0 0-.5.5v21.03a.5.5 0 0 0 .5.5h37a.5.5 0 0 0 .5-.5v-21.03a.5.5 0 0 0-.5-.5z" stroke="#5e5e5e" fill="#fff"/><use xlink:href="#k" transform="matrix(1,0,0,1,633.1381507491351,364) translate(0.49479166666666696 16.444444444444443)"/><path d="M301.98 464.35a.5.5 0 0 1 .5-.5h37a.5.5 0 0 1 .5.5v22.97a.5.5 0 0 1-.5.5h-37a.5.5 0 0 1-.5-.5z" fill="#fff" fill-opacity="0"/><path d="M302.48 464.82a.5.5 0 0 0-.5.5v21.03a.5.5 0 0 0 .5.5h37a.5.5 0 0 0 .5-.5v-21.03a.5.5 0 0 0-.5-.5z" stroke="#5e5e5e" fill="#fff"/><use xlink:href="#l" transform="matrix(1,0,0,1,316.3778482303587,463.8531649825017) translate(0.49479166666666696 16.444444444444443)"/><path d="M339.98 464.35a.5.5 0 0 1 .5-.5h37a.5.5 0 0 1 .5.5v22.97a.5.5 0 0 1-.5.5h-37a.5.5 0 0 1-.5-.5z" fill="#fff" fill-opacity="0"/><path d="M340.48 464.82a.5.5 0 0 0-.5.5v21.03a.5.5 0 0 0 .5.5h37a.5.5 0 0 0 .5-.5v-21.03a.5.5 0 0 0-.5-.5z" stroke="#5e5e5e" fill="#fff"/><use xlink:href="#m" transform="matrix(1,0,0,1,354.37627419495493,463.8531649825017) translate(0.49479166666666696 16.444444444444443)"/><path d="M575.68 464.35a.5.5 0 0 1 .5-.5h37a.5.5 0 0 1 .5.5v22.97a.5.5 0 0 1-.5.5h-37a.5.5 0 0 1-.5-.5z" fill="#fff" fill-opacity="0"/><path d="M576.18 464.82a.5.5 0 0 0-.5.5v21.03a.5.5 0 0 0 .5.5h37a.5.5 0 0 0 .5-.5v-21.03a.5.5 0 0 0-.5-.5z" stroke="#5e5e5e" fill="#fff"/><use xlink:href="#l" transform="matrix(1,0,0,1,590.0823408070996,463.85316498250154) translate(0.49479166666666696 16.444444444444443)"/><path d="M613.68 464.35a.5.5 0 0 1 .5-.5h37a.5.5 0 0 1 .5.5v22.97a.5.5 0 0 1-.5.5h-37a.5.5 0 0 1-.5-.5z" fill="#fff" fill-opacity="0"/><path d="M614.18 464.82a.5.5 0 0 0-.5.5v21.03a.5.5 0 0 0 .5.5h37a.5.5 0 0 0 .5-.5v-21.03a.5.5 0 0 0-.5-.5z" stroke="#5e5e5e" fill="#fff"/><use xlink:href="#m" transform="matrix(1,0,0,1,628.0807667716965,463.85316498250154) translate(0.49479166666666696 16.444444444444443)"/><path d="M301.98 649.54a.5.5 0 0 1 .5-.5h37a.5.5 0 0 1 .5.5v22.97a.5.5 0 0 1-.5.5h-37a.5.5 0 0 1-.5-.5z" fill="#fff" fill-opacity="0"/><path d="M302.48 650a.5.5 0 0 0-.5.5v21.04a.5.5 0 0 0 .5.5h37a.5.5 0 0 0 .5-.5V650.5a.5.5 0 0 0-.5-.5z" stroke="#5e5e5e" fill="#fff"/><use xlink:href="#j" transform="matrix(1,0,0,1,316.37784823035827,649.0407464372828) translate(0.49479166666666696 16.444444444444443)"/><path d="M339.98 649.54a.5.5 0 0 1 .5-.5h37a.5.5 0 0 1 .5.5v22.97a.5.5 0 0 1-.5.5h-37a.5.5 0 0 1-.5-.5z" fill="#fff" fill-opacity="0"/><path d="M340.48 650a.5.5 0 0 0-.5.5v21.04a.5.5 0 0 0 .5.5h37a.5.5 0 0 0 .5-.5V650.5a.5.5 0 0 0-.5-.5z" stroke="#5e5e5e" fill="#fff"/><use xlink:href="#k" transform="matrix(1,0,0,1,354.37627419495493,649.0407464372828) translate(0.49479166666666696 16.444444444444443)"/><path d="M575.68 649.54a.5.5 0 0 1 .5-.5h37a.5.5 0 0 1 .5.5v22.97a.5.5 0 0 1-.5.5h-37a.5.5 0 0 1-.5-.5z" fill="#fff" fill-opacity="0"/><path d="M576.18 650a.5.5 0 0 0-.5.5v21.04a.5.5 0 0 0 .5.5h37a.5.5 0 0 0 .5-.5V650.5a.5.5 0 0 0-.5-.5z" stroke="#5e5e5e" fill="#fff"/><use xlink:href="#j" transform="matrix(1,0,0,1,590.0823408070999,649.0407464372828) translate(0.49479166666666696 16.444444444444443)"/><path d="M613.68 649.54a.5.5 0 0 1 .5-.5h37a.5.5 0 0 1 .5.5v22.97a.5.5 0 0 1-.5.5h-37a.5.5 0 0 1-.5-.5z" fill="#fff" fill-opacity="0"/><path d="M614.18 650a.5.5 0 0 0-.5.5v21.04a.5.5 0 0 0 .5.5h37a.5.5 0 0 0 .5-.5V650.5a.5.5 0 0 0-.5-.5z" stroke="#5e5e5e" fill="#fff"/><use xlink:href="#k" transform="matrix(1,0,0,1,628.0807667716965,649.0407464372828) translate(0.49479166666666696 16.444444444444443)"/><path d="M489.1 693.3a.5.5 0 0 1 .5-.5h37a.5.5 0 0 1 .5.5v22.96a.5.5 0 0 1-.5.5h-37a.5.5 0 0 1-.5-.5z" fill="#fff" fill-opacity="0"/><path d="M489.6 693.76a.5.5 0 0 0-.5.5v21.03a.5.5 0 0 0 .5.5h37a.5.5 0 0 0 .5-.5v-21.03a.5.5 0 0 0-.5-.5z" stroke="#5e5e5e" fill="#fff"/><use xlink:href="#n" transform="matrix(1,0,0,1,503.4996296858983,692.7951926366212) translate(0.49479166666666696 16.444444444444443)"/><path d="M489.1 716.34a.5.5 0 0 1 .5-.5h37a.5.5 0 0 1 .5.5v22.97a.5.5 0 0 1-.5.5h-37a.5.5 0 0 1-.5-.5z" fill="#fff" fill-opacity="0"/><path d="M489.6 716.8a.5.5 0 0 0-.5.5v21.04a.5.5 0 0 0 .5.5h37a.5.5 0 0 0 .5-.5V717.3a.5.5 0 0 0-.5-.5z" stroke="#5e5e5e" fill="#fff"/><use xlink:href="#o" transform="matrix(1,0,0,1,503.4996296858983,715.8389134528828) translate(0.49479166666666696 16.444444444444443)"/><path d="M321.4 362.5l-1.44-165.54" stroke="#5e5e5e" stroke-width="3" fill="none"/><path d="M322.9 364h-2.96v-1.52l2.94-.03zM321.44 196.98l-2.95.03-.02-.7.75-.4 2.2-1.35z" stroke="#5e5e5e" stroke-width=".05" fill="#5e5e5e"/><path d="M375.27 363.2l260.6-166.7" stroke="#5e5e5e" stroke-width="3" fill="none"/><path d="M375.84 364h-4.57l3.24-2.07zM639.83 195.72l-3.2 2.06-.86-1.33 1.05-.55 2.28-1.4z" stroke="#5e5e5e" stroke-width=".05" fill="#5e5e5e"/><path d="M584.38 363.18l-237.75-156.3" stroke="#5e5e5e" stroke-width="3" fill="none"/><path d="M588.32 364h-4.53l1.36-2.08zM343.6 206.05h3.63l-1.37 2.07-3.32-2.18z" stroke="#5e5e5e" stroke-width=".05" fill="#5e5e5e"/><path d="M320.98 647.54V489.32" stroke="#5e5e5e" stroke-width="3" fill="none"/><path d="M322.45 649.04h-2.95v-1.54h2.95zM322.45 489.36h-2.95v-1.54h2.95z" stroke="#5e5e5e" stroke-width=".05" fill="#5e5e5e"/><path d="M638.22 362.5l-.68-165.55" stroke="#5e5e5e" stroke-width="3" fill="none"/><path d="M639.7 364h-2.95v-1.53h2.94zM639.02 196.98l-2.95.02v-.7l.75-.4 2.2-1.36z" stroke="#5e5e5e" stroke-width=".05" fill="#5e5e5e"/><path d="M375.4 648.1l202.85-159.35" stroke="#5e5e5e" stroke-width="3" fill="none"/><path d="M376.18 649.04h-4.34l2.7-2.1zM579.13 489.93l-1.66-2.1h4.34z" stroke="#5e5e5e" stroke-width=".05" fill="#5e5e5e"/><path d="M578.25 648.1L375.4 488.76" stroke="#5e5e5e" stroke-width="3" fill="none"/><path d="M581.8 649.04h-4.33l1.66-2.1zM374.53 489.93l-2.7-2.1h4.35z" stroke="#5e5e5e" stroke-width=".05" fill="#5e5e5e"/><path d="M632.68 647.54V489.32" stroke="#5e5e5e" stroke-width="3" fill="none"/><path d="M634.15 649.04h-2.95v-1.54h2.95zM634.15 489.36h-2.95v-1.54h2.95z" stroke="#5e5e5e" stroke-width=".05" fill="#5e5e5e"/><path d="M423.08 693.3a.5.5 0 0 1 .5-.5h37a.5.5 0 0 1 .5.5v22.96a.5.5 0 0 1-.5.5h-37a.5.5 0 0 1-.5-.5z" fill="#fff" fill-opacity="0"/><path d="M423.58 693.76a.5.5 0 0 0-.5.5v21.03a.5.5 0 0 0 .5.5h37a.5.5 0 0 0 .5-.5v-21.03a.5.5 0 0 0-.5-.5z" stroke="#5e5e5e" fill="#fff"/><use xlink:href="#n" transform="matrix(1,0,0,1,437.4811643891128,692.7951926366213) translate(0.49479166666666696 16.444444444444443)"/><path d="M423.08 716.34a.5.5 0 0 1 .5-.5h37a.5.5 0 0 1 .5.5v22.97a.5.5 0 0 1-.5.5h-37a.5.5 0 0 1-.5-.5z" fill="#fff" fill-opacity="0"/><path d="M423.58 716.8a.5.5 0 0 0-.5.5v21.04a.5.5 0 0 0 .5.5h37a.5.5 0 0 0 .5-.5V717.3a.5.5 0 0 0-.5-.5z" stroke="#5e5e5e" fill="#fff"/><use xlink:href="#o" transform="matrix(1,0,0,1,437.4811643891128,715.8389134528829) translate(0.49479166666666696 16.444444444444443)"/><path d="M487.1 704.78h-24.02" stroke="#5e5e5e" stroke-width="3" fill="none"/><path d="M488.6 706.25h-1.54v-2.95h1.54zM463.12 706.25h-1.54v-2.95h1.54z" stroke="#5e5e5e" stroke-width=".05" fill="#5e5e5e"/><path d="M487.1 727.82h-24.02" stroke="#5e5e5e" stroke-width="3" fill="none"/><path d="M488.6 729.3h-1.54v-2.95h1.54zM463.12 729.3h-1.54v-2.95h1.54z" stroke="#5e5e5e" stroke-width=".05" fill="#5e5e5e"/><path d="M273.48 170.4c-13.26 0-24-10.75-24-24 0-10.6 6.5-19.56 16.58-22.83-.58-31.18 39.42-37.18 55.42-25.18 8-18 48-12 48 6 24-6 48 18 32 48 16 24 0 54-32 42-8 15.6-40 15.6-48 0-16 12-48 6-48-24z" stroke="#000" stroke-opacity="0" stroke-width="3" fill="#9391ff"/><use xlink:href="#p" transform="matrix(1,0,0,1,254.47526426322452,91.39330001553844) translate(42.69753086419753 59.02777777777778)"/><path d="M591.06 170.4c-13.26 0-24-10.75-24-24 0-10.6 6.5-19.56 16.58-22.83-.58-31.18 39.42-37.18 55.42-25.18 8-18 48-12 48 6 24-6 48 18 32 48 16 24 0 54-32 42-8 15.6-40 15.6-48 0-16 12-48 6-48-24z" stroke="#000" stroke-opacity="0" stroke-width="3" fill="#9391ff"/><g><use xlink:href="#q" transform="matrix(1,0,0,1,572.0562766072119,91.39330001553844) translate(18.098765432098766 59.02777777777778)"/></g><defs><path fill="#333" d="M240-174c0 40-23 61-54 70L253 0h-59l-57-94H76V0H24v-248c93 4 217-23 216 74zM76-134c48-2 112 12 112-38 0-48-66-32-112-35v73" id="r"/><path fill="#333" d="M24 0v-248h195v40H76v63h132v40H76v65h150V0H24" id="s"/><path fill="#333" d="M67-125c0 54 23 88 75 88 28 0 53-7 68-21v-34h-60v-39h108v91C232-14 192 4 140 4 58 4 20-42 15-125 8-236 126-280 215-234c19 10 29 26 37 47l-47 15c-11-23-29-39-63-39-53 1-75 33-75 86" id="t"/><path fill="#333" d="M24 0v-248h52V0H24" id="u"/><path fill="#333" d="M140-251c80 0 125 45 125 126S219 4 139 4C58 4 15-44 15-125s44-126 125-126zm-1 214c52 0 73-35 73-88 0-50-21-86-72-86-52 0-73 35-73 86s22 88 72 88" id="v"/><path fill="#333" d="M175 0L67-191c6 58 2 128 3 191H24v-248h59L193-55c-6-58-2-129-3-193h46V0h-61" id="w"/><path fill="#333" d="M23 0v-37h61v-169l-59 37v-38l62-41h46v211h57V0H23" id="x"/><g id="a"><use transform="matrix(0.06172839506172839,0,0,0.06172839506172839,0,0)" xlink:href="#r"/><use transform="matrix(0.06172839506172839,0,0,0.06172839506172839,15.987654320987653,0)" xlink:href="#s"/><use transform="matrix(0.06172839506172839,0,0,0.06172839506172839,30.80246913580247,0)" xlink:href="#t"/><use transform="matrix(0.06172839506172839,0,0,0.06172839506172839,48.08641975308642,0)" xlink:href="#u"/><use transform="matrix(0.06172839506172839,0,0,0.06172839506172839,54.25925925925926,0)" xlink:href="#v"/><use transform="matrix(0.06172839506172839,0,0,0.06172839506172839,71.54320987654322,0)" xlink:href="#w"/><use transform="matrix(0.06172839506172839,0,0,0.06172839506172839,87.53086419753087,0)" xlink:href="#x"/></g><path fill="#333" d="M169-182c-1-43-94-46-97-3 18 66 151 10 154 114 3 95-165 93-204 36-6-8-10-19-12-30l50-8c3 46 112 56 116 5-17-69-150-10-154-114-4-87 153-88 188-35 5 8 8 18 10 28" id="y"/><path fill="#333" d="M25-224v-37h50v37H25zM25 0v-190h50V0H25" id="z"/><path fill="#333" d="M115-3C79 11 28 4 28-45v-112H4v-33h27l15-45h31v45h36v33H77v99c-1 23 16 31 38 25v30" id="A"/><path fill="#333" d="M185-48c-13 30-37 53-82 52C43 2 14-33 14-96s30-98 90-98c62 0 83 45 84 108H66c0 31 8 55 39 56 18 0 30-7 34-22zm-45-69c5-46-57-63-70-21-2 6-4 13-4 21h74" id="B"/><g id="b"><use transform="matrix(0.06172839506172839,0,0,0.06172839506172839,0,0)" xlink:href="#y"/><use transform="matrix(0.06172839506172839,0,0,0.06172839506172839,14.814814814814813,0)" xlink:href="#z"/><use transform="matrix(0.06172839506172839,0,0,0.06172839506172839,20.98765432098765,0)" xlink:href="#A"/><use transform="matrix(0.06172839506172839,0,0,0.06172839506172839,28.33333333333333,0)" xlink:href="#B"/></g><use transform="matrix(0.06172839506172839,0,0,0.06172839506172839,0,0)" xlink:href="#x" id="c"/><path fill="#333" d="M24 0v-248h52v208h133V0H24" id="C"/><path fill="#333" d="M128-127c34 4 56 21 59 58 7 91-148 94-172 28-4-9-6-17-7-26l51-5c1 24 16 35 40 36 23 0 39-12 38-36-1-31-31-36-65-34v-40c32 2 59-3 59-33 0-20-13-33-34-33s-33 13-35 32l-50-3c6-44 37-68 86-68 50 0 83 20 83 66 0 35-22 52-53 58" id="D"/><g id="d"><use transform="matrix(0.06172839506172839,0,0,0.06172839506172839,0,0)" xlink:href="#C"/><use transform="matrix(0.06172839506172839,0,0,0.06172839506172839,13.518518518518517,0)" xlink:href="#D"/><use transform="matrix(0.06172839506172839,0,0,0.06172839506172839,25.864197530864196,0)" xlink:href="#C"/><use transform="matrix(0.06172839506172839,0,0,0.06172839506172839,39.382716049382715,0)" xlink:href="#y"/></g><path fill="#fff" d="M80-702c6-234 206-338 457-298 93 15 166 59 220 115-26 37-46 85-79 115-8 4-17 7-28 7-73 0-113-61-203-61-94 0-160 79-107 152 93 83 270 88 356 179 39 42 70 95 69 176C761-63 553 47 286 6 191-9 109-52 51-106c29-40 47-92 85-123 77-33 115 38 178 55 22 6 48 12 80 12 81 0 133-35 133-110 0-69-60-91-116-111C252-440 75-483 80-702" id="E"/><path fill="#fff" d="M379-993V0H125v-993h254zm-132-444c97 0 163 62 163 159 0 96-66 158-163 158-94 0-157-63-157-158s62-159 157-159" id="F"/><path fill="#fff" d="M680-72c-61 52-150 86-256 87-172 2-267-108-267-279v-542c-63-2-138 16-138-53v-101l151-29 53-262c11-66 119-33 188-41v306h245v180H411v525c0 54 23 90 73 93 51 3 85-62 119-7" id="G"/><path fill="#fff" d="M960-149C871-45 736 15 551 15 231 15 63-191 63-518c0-229 113-378 277-452 59-26 125-39 199-39 278 0 430 170 430 452 0 55-4 97-59 97H316c14 166 83 276 257 279 98 1 159-38 221-71 33-18 71-20 93 9zM741-612c-4-130-65-216-197-216-140 0-203 89-223 216h420" id="H"/><path fill="#fff" d="M236-180h257c2-279-3-565 3-840L323-871c-27 30-91 18-110-9l-76-104 399-346h198v1150h227V0H236v-180" id="I"/><path fill="#fff" d="M61-690h505v212H61v-212" id="J"/><path fill="#fff" d="M7-993h202c35-1 65 20 72 47 54 227 117 445 163 680 64-229 138-454 200-682 17-61 107-44 180-46 35-1 63 20 71 46 63 226 132 456 192 683 47-236 115-454 171-682 6-26 34-47 68-46h193L1210 0h-205c-23 0-39-15-48-44L793-596c-13-41-23-80-30-119-57 232-132 447-197 671-9 29-28 44-55 44H316" id="K"/><path fill="#fff" d="M534-1012c240 0 371 147 371 387V0c-80-7-186 24-201-53l-22-66C598-47 516 18 362 15 183 12 73-75 73-255c0-177 142-239 303-283 75-20 169-31 281-34 9-142-26-239-155-239-97 0-149 37-209 70-49 27-108 2-128-33l-46-80c103-96 231-158 415-158zM316-268c-2 80 48 110 125 110 107 0 156-41 216-100v-160c-111 5-199 15-269 48-43 21-70 49-72 102" id="L"/><path fill="#fff" d="M582-811c-92 1-152 44-204 95V0H124v-993c65 5 150-14 196 11 30 17 27 71 39 107 74-72 158-134 301-134 225 0 332 151 332 377V0H738v-632c0-109-49-180-156-179" id="M"/><g id="f"><use transform="matrix(0.013020833333333334,0,0,0.013020833333333334,0,0)" xlink:href="#E"/><use transform="matrix(0.013020833333333334,0,0,0.013020833333333334,10.638020833333334,0)" xlink:href="#F"/><use transform="matrix(0.013020833333333334,0,0,0.013020833333333334,17.1875,0)" xlink:href="#G"/><use transform="matrix(0.013020833333333334,0,0,0.013020833333333334,26.106770833333336,0)" xlink:href="#H"/><use transform="matrix(0.013020833333333334,0,0,0.013020833333333334,39.53125,0)" xlink:href="#I"/><use transform="matrix(0.013020833333333334,0,0,0.013020833333333334,53.046875,0)" xlink:href="#J"/><use transform="matrix(0.013020833333333334,0,0,0.013020833333333334,61.2109375,0)" xlink:href="#K"/><use transform="matrix(0.013020833333333334,0,0,0.013020833333333334,80.79427083333333,0)" xlink:href="#L"/><use transform="matrix(0.013020833333333334,0,0,0.013020833333333334,93.95833333333333,0)" xlink:href="#M"/><use transform="matrix(0.013020833333333334,0,0,0.013020833333333334,108.26822916666664,0)" xlink:href="#I"/></g><filter id="e" filterUnits="objectBoundingBox" x="-.06" y="-.04" width="1.12" height="1.21"><feOffset result="offOut" in="SourceAlpha" dy="6"/><feGaussianBlur result="blurOut" in="offOut" stdDeviation="5"/><feColorMatrix result="colorOut" in="blurOut" values="0 0 0 0 0 0 0 0 0 0 0 0 0 0 0 0 0 0 0.5019607843137255 0"/><feBlend in="SourceGraphic" in2="colorOut"/></filter><path fill="#fff" d="M89-955c40-238 181-388 449-388 250 0 409 134 409 381 0 232-139 347-258 472L407-195c126-46 310-24 475-29 49-1 86 32 85 80V0H69c-2-76 0-138 43-180 161-160 326-321 472-494 63-74 110-153 115-281 6-143-107-217-242-175-61 19-100 69-121 131-19 56-46 79-119 66" id="N"/><g id="g"><use transform="matrix(0.013020833333333334,0,0,0.013020833333333334,0,0)" xlink:href="#E"/><use transform="matrix(0.013020833333333334,0,0,0.013020833333333334,10.638020833333334,0)" xlink:href="#F"/><use transform="matrix(0.013020833333333334,0,0,0.013020833333333334,17.1875,0)" xlink:href="#G"/><use transform="matrix(0.013020833333333334,0,0,0.013020833333333334,26.106770833333336,0)" xlink:href="#H"/><use transform="matrix(0.013020833333333334,0,0,0.013020833333333334,39.53125,0)" xlink:href="#I"/><use transform="matrix(0.013020833333333334,0,0,0.013020833333333334,53.046875,0)" xlink:href="#J"/><use transform="matrix(0.013020833333333334,0,0,0.013020833333333334,61.2109375,0)" xlink:href="#K"/><use transform="matrix(0.013020833333333334,0,0,0.013020833333333334,80.79427083333333,0)" xlink:href="#L"/><use transform="matrix(0.013020833333333334,0,0,0.013020833333333334,93.95833333333333,0)" xlink:href="#M"/><use transform="matrix(0.013020833333333334,0,0,0.013020833333333334,108.26822916666664,0)" xlink:href="#N"/></g><path fill="#fff" d="M619 15c-128 0-198-56-256-127-11 50-5 112-70 112H124v-1437h254v561c71-71 156-133 289-133 266 0 369 213 369 487 0 241-87 415-246 498-51 26-108 39-171 39zm155-527c0-166-35-299-195-299-102 0-149 49-201 111v438c43 54 92 85 176 85 177 0 220-149 220-335" id="O"/><path fill="#fff" d="M352-974c116-47 283-48 399 0 177 72 288 230 288 475 0 247-110 405-288 478-116 48-283 48-399 0C173-94 62-251 62-499c0-246 112-403 290-475zm-28 477c0 189 54 318 228 318 172 0 225-131 225-318s-53-318-225-318c-174 0-228 130-228 318" id="P"/><path fill="#fff" d="M545-767c-109 4-148 72-181 151V0H110v-993c66 5 161-12 204 14 28 28 23 102 33 150 53-94 116-183 244-183 43 0 79 10 107 31l-19 190c-6 59-87 22-134 24" id="Q"/><path fill="#fff" d="M483-1012c112 0 179 37 238 92v-517h254V0H818c-73 2-64-82-83-135C661-54 570 15 422 15 157 15 63-214 63-494c0-232 92-397 247-478 52-26 110-40 173-40zM325-494c0 166 29 308 186 308 106 0 161-51 210-111v-438c-43-55-93-85-178-85-170 0-218 146-218 326" id="R"/><g id="h"><use transform="matrix(0.013020833333333334,0,0,0.013020833333333334,0,0)" xlink:href="#E"/><use transform="matrix(0.013020833333333334,0,0,0.013020833333333334,10.638020833333334,0)" xlink:href="#F"/><use transform="matrix(0.013020833333333334,0,0,0.013020833333333334,17.1875,0)" xlink:href="#G"/><use transform="matrix(0.013020833333333334,0,0,0.013020833333333334,26.106770833333336,0)" xlink:href="#H"/><use transform="matrix(0.013020833333333334,0,0,0.013020833333333334,39.53125,0)" xlink:href="#I"/><use transform="matrix(0.013020833333333334,0,0,0.013020833333333334,53.046875,0)" xlink:href="#J"/><use transform="matrix(0.013020833333333334,0,0,0.013020833333333334,61.2109375,0)" xlink:href="#O"/><use transform="matrix(0.013020833333333334,0,0,0.013020833333333334,75.52083333333333,0)" xlink:href="#P"/><use transform="matrix(0.013020833333333334,0,0,0.013020833333333334,89.85677083333333,0)" xlink:href="#Q"/><use transform="matrix(0.013020833333333334,0,0,0.013020833333333334,99.01041666666667,0)" xlink:href="#R"/><use transform="matrix(0.013020833333333334,0,0,0.013020833333333334,113.3203125,0)" xlink:href="#H"/><use transform="matrix(0.013020833333333334,0,0,0.013020833333333334,126.74479166666667,0)" xlink:href="#Q"/><use transform="matrix(0.013020833333333334,0,0,0.013020833333333334,136.22395833333334,0)" xlink:href="#I"/></g><g id="i"><use transform="matrix(0.013020833333333334,0,0,0.013020833333333334,0,0)" xlink:href="#E"/><use transform="matrix(0.013020833333333334,0,0,0.013020833333333334,10.638020833333334,0)" xlink:href="#F"/><use transform="matrix(0.013020833333333334,0,0,0.013020833333333334,17.1875,0)" xlink:href="#G"/><use transform="matrix(0.013020833333333334,0,0,0.013020833333333334,26.106770833333336,0)" xlink:href="#H"/><use transform="matrix(0.013020833333333334,0,0,0.013020833333333334,39.53125,0)" xlink:href="#I"/><use transform="matrix(0.013020833333333334,0,0,0.013020833333333334,53.046875,0)" xlink:href="#J"/><use transform="matrix(0.013020833333333334,0,0,0.013020833333333334,61.2109375,0)" xlink:href="#O"/><use transform="matrix(0.013020833333333334,0,0,0.013020833333333334,75.52083333333333,0)" xlink:href="#P"/><use transform="matrix(0.013020833333333334,0,0,0.013020833333333334,89.85677083333333,0)" xlink:href="#Q"/><use transform="matrix(0.013020833333333334,0,0,0.013020833333333334,99.01041666666667,0)" xlink:href="#R"/><use transform="matrix(0.013020833333333334,0,0,0.013020833333333334,113.3203125,0)" xlink:href="#H"/><use transform="matrix(0.013020833333333334,0,0,0.013020833333333334,126.74479166666667,0)" xlink:href="#Q"/><use transform="matrix(0.013020833333333334,0,0,0.013020833333333334,136.22395833333334,0)" xlink:href="#N"/></g><path d="M113-955c38-239 181-388 448-388 186 0 310 81 369 209 18 42 27 87 27 134 1 168-77 256-203 297 151 51 227 154 227 307C981-126 800 8 532 14 260 20 143-131 76-338c63-25 186-102 236-14 46 82 93 164 218 164 130 0 203-76 210-200 9-175-112-206-288-206v-171c158-2 269-37 269-193 0-117-60-182-173-183-99-1-165 67-190 142-19 57-44 79-118 66" id="S"/><use transform="matrix(0.008680555555555554,0,0,0.008680555555555554,0,0)" xlink:href="#S" id="j"/><path d="M1007-505c-9 70 29 185-49 186H854V0H644v-319H105c-83-4-69-108-90-173l609-837h230v824h153zm-363 0c3-182-8-376 8-546L269-505h375" id="T"/><use transform="matrix(0.008680555555555554,0,0,0.008680555555555554,0,0)" xlink:href="#T" id="k"/><path d="M236-180h257c2-279-3-565 3-840L323-871c-27 30-91 18-110-9l-76-104 399-346h198v1150h227V0H236v-180" id="U"/><use transform="matrix(0.008680555555555554,0,0,0.008680555555555554,0,0)" xlink:href="#U" id="l"/><path d="M89-955c40-238 181-388 449-388 250 0 409 134 409 381 0 232-139 347-258 472L407-195c126-46 310-24 475-29 49-1 86 32 85 80V0H69c-2-76 0-138 43-180 161-160 326-321 472-494 63-74 110-153 115-281 6-143-107-217-242-175-61 19-100 69-121 131-19 56-46 79-119 66" id="V"/><use transform="matrix(0.008680555555555554,0,0,0.008680555555555554,0,0)" xlink:href="#V" id="m"/><path d="M463-670c-69 0-128 14-183 34l-149-41 108-651h650v101c-3 78-52 116-142 116H407l-44 261c53-11 103-16 152-16 263 0 419 147 419 406 0 232-122 371-292 440-125 51-309 39-418-14-62-30-119-68-165-112l74-102c44-65 117-14 161 14 42 27 94 49 166 47 158-4 231-103 233-261 2-143-84-223-230-222" id="W"/><use transform="matrix(0.008680555555555554,0,0,0.008680555555555554,0,0)" xlink:href="#W" id="n"/><path d="M456-845c80-38 203-43 294-6 146 60 243 188 243 393 0 223-117 364-277 436-109 49-273 49-382 1C168-93 67-246 67-479c0-175 67-295 150-418l300-442c25-33 77-59 136-59h226c-141 184-282 368-423 553zm64 158c-139 0-209 104-209 247 0 149 63 249 209 249 141 0 219-103 219-248 0-149-72-248-219-248" id="X"/><use transform="matrix(0.008680555555555554,0,0,0.008680555555555554,0,0)" xlink:href="#X" id="o"/><path fill="#fff" d="M230 0l2-204L168 0h-37L68-204 70 0H24v-248h70l56 185 57-185h69V0h-46" id="Y"/><path fill="#fff" d="M24-248c93 1 206-16 204 79-1 75-69 88-152 82V0H24v-248zm52 121c47 0 100 7 100-41 0-47-54-39-100-39v80" id="Z"/><path fill="#fff" d="M24 0v-248h52v208h133V0H24" id="aa"/><path fill="#fff" d="M169-182c-1-43-94-46-97-3 18 66 151 10 154 114 3 95-165 93-204 36-6-8-10-19-12-30l50-8c3 46 112 56 116 5-17-69-150-10-154-114-4-87 153-88 188-35 5 8 8 18 10 28" id="ab"/><g id="p"><use transform="matrix(0.06172839506172839,0,0,0.06172839506172839,0,0)" xlink:href="#Y"/><use transform="matrix(0.06172839506172839,0,0,0.06172839506172839,18.456790123456788,0)" xlink:href="#Z"/><use transform="matrix(0.06172839506172839,0,0,0.06172839506172839,33.2716049382716,0)" xlink:href="#aa"/><use transform="matrix(0.06172839506172839,0,0,0.06172839506172839,46.79012345679012,0)" xlink:href="#ab"/></g><path fill="#fff" d="M24 0v-248h52V0H24" id="ac"/><path fill="#fff" d="M175 0L67-191c6 58 2 128 3 191H24v-248h59L193-55c-6-58-2-129-3-193h46V0h-61" id="ad"/><path fill="#fff" d="M136-208V0H84v-208H4v-40h212v40h-80" id="ae"/><path fill="#fff" d="M24 0v-248h195v40H76v63h132v40H76v65h150V0H24" id="af"/><path fill="#fff" d="M240-174c0 40-23 61-54 70L253 0h-59l-57-94H76V0H24v-248c93 4 217-23 216 74zM76-134c48-2 112 12 112-38 0-48-66-32-112-35v73" id="ag"/><g id="q"><use transform="matrix(0.06172839506172839,0,0,0.06172839506172839,0,0)" xlink:href="#ac"/><use transform="matrix(0.06172839506172839,0,0,0.06172839506172839,6.172839506172839,0)" xlink:href="#ad"/><use transform="matrix(0.06172839506172839,0,0,0.06172839506172839,22.160493827160494,0)" xlink:href="#ae"/><use transform="matrix(0.06172839506172839,0,0,0.06172839506172839,35.67901234567901,0)" xlink:href="#af"/><use transform="matrix(0.06172839506172839,0,0,0.06172839506172839,50.49382716049382,0)" xlink:href="#ag"/><use transform="matrix(0.06172839506172839,0,0,0.06172839506172839,66.48148148148148,0)" xlink:href="#ad"/><use transform="matrix(0.06172839506172839,0,0,0.06172839506172839,82.46913580246914,0)" xlink:href="#af"/><use transform="matrix(0.06172839506172839,0,0,0.06172839506172839,97.28395061728395,0)" xlink:href="#ae"/></g></defs></g></svg>