<svg xmlns="http://www.w3.org/2000/svg" xmlns:xlink="http://www.w3.org/1999/xlink" xmlns:lucid="lucid" width="1483" height="1103"><g transform="translate(721.5 361.5)" lucid:page-tab-id="UjE9OcsDEzrM"><path d="M-700-334a6 6 0 0 1 6-6H734a6 6 0 0 1 6 6V714a6 6 0 0 1-6 6H-694a6 6 0 0 1-6-6z" stroke="#dbdbdb" stroke-width="3" fill="#f2f3f5"/><path d="M-108.82 279a19 19 0 0 1 19-19H701a19 19 0 0 1 19 19v402a19 19 0 0 1-19 19H-89.82a19 19 0 0 1-19-19z" stroke="#ced4db" stroke-width="3" fill="#ffe342"/><use xlink:href="#a" transform="matrix(1,0,0,1,-103.81704579116467,265) translate(359.5667283950617 429.6965873777777)"/><path d="M-660 279a19 19 0 0 1 19-19h496.4a19 19 0 0 1 19 19v402a19 19 0 0 1-19 19H-641a19 19 0 0 1-19-19z" stroke="#fc9432" stroke-width="3" fill="#fc9432"/><use xlink:href="#b" transform="matrix(1,0,0,1,-655,265) translate(212.56672839506172 429.6965873777777)"/><path d="M-196.34-244.47a19 19 0 0 1 19-19H279.5a19 19 0 0 1 19 19v122a19 19 0 0 1-19 19h-456.84a19 19 0 0 1-19-19zM-634.3 300.04a19 19 0 0 1 19-19h442a19 19 0 0 1 19 19v342a19 19 0 0 1-19 19h-442a19 19 0 0 1-19-19z" stroke="#ced4db" stroke-width="3" fill="#ced4db"/><use xlink:href="#c" transform="matrix(1,0,0,1,-629.3029729894498,286.0422410207427) translate(175.22104938271605 368.07649137777787)"/><use xlink:href="#d" transform="matrix(1,0,0,1,-629.3029729894498,286.0422410207427) translate(222.0729012345679 368.07649137777787)"/><use xlink:href="#e" transform="matrix(1,0,0,1,-629.3029729894498,286.0422410207427) translate(240.59141975308643 368.07649137777787)"/><g filter="url(#f)"><path d="M-612.42 315.26a.5.5 0 0 1 .5-.5h168.64a.5.5 0 0 1 .5.5v93.42a.5.5 0 0 1-.5.5h-168.64a.5.5 0 0 1-.5-.5z" fill="#fff" fill-opacity="0"/><path d="M-611.92 314.76a.5.5 0 0 0-.5.5v93.42a.5.5 0 0 0 .5.5h168.64a.5.5 0 0 0 .5-.5v-93.42a.5.5 0 0 0-.5-.5z" stroke="#315796" stroke-width="3" fill="#315796"/><use xlink:href="#g" transform="matrix(1,0,0,1,-602.5771326872564,325.81033616777376) translate(14.108072916666671 43.166666666666664)"/></g><g filter="url(#f)"><path d="M-348.36 315.26a.5.5 0 0 1 .5-.5h168.64a.5.5 0 0 1 .5.5v93.42a.5.5 0 0 1-.5.5h-168.64a.5.5 0 0 1-.5-.5z" fill="#fff" fill-opacity="0"/><path d="M-347.86 314.76a.5.5 0 0 0-.5.5v93.42a.5.5 0 0 0 .5.5h168.64a.5.5 0 0 0 .5-.5v-93.42a.5.5 0 0 0-.5-.5z" stroke="#315796" stroke-width="3" fill="#315796"/><use xlink:href="#g" transform="matrix(1,0,0,1,-338.5205357275192,325.81033616777376) translate(14.108072916666671 43.166666666666664)"/></g><g filter="url(#f)"><path d="M-173.42 21.54a.5.5 0 0 1 .5-.5H-4.3a.5.5 0 0 1 .5.5v93.42a.5.5 0 0 1-.5.5H-172.9a.5.5 0 0 1-.5-.5z" fill="#fff" fill-opacity="0"/><path d="M-172.92 21.04a.5.5 0 0 0-.5.5v93.42a.5.5 0 0 0 .5.5H-4.3a.5.5 0 0 0 .5-.5V21.54a.5.5 0 0 0-.5-.5z" stroke="#9391ff" stroke-width="3" fill="#9391ff"/><use xlink:href="#h" transform="matrix(1,0,0,1,-163.5853852711486,32.08912293291082) translate(13.990885416666664 43.166666666666664)"/></g><g filter="url(#f)"><path d="M106.58 21.54a.5.5 0 0 1 .5-.5H275.7a.5.5 0 0 1 .5.5v93.42a.5.5 0 0 1-.5.5H107.1a.5.5 0 0 1-.5-.5z" fill="#fff" fill-opacity="0"/><path d="M107.08 21.04a.5.5 0 0 0-.5.5v93.42a.5.5 0 0 0 .5.5H275.7a.5.5 0 0 0 .5-.5V21.54a.5.5 0 0 0-.5-.5z" stroke="#9391ff" stroke-width="3" fill="#9391ff"/><use xlink:href="#i" transform="matrix(1,0,0,1,116.41461472885142,32.08912293291082) translate(19.23828125 43.166666666666664)"/></g><g filter="url(#f)"><path d="M-173.42-231.18a.5.5 0 0 1 .5-.5H-4.3a.5.5 0 0 1 .5.5v93.42a.5.5 0 0 1-.5.5H-172.9a.5.5 0 0 1-.5-.5z" fill="#fff" fill-opacity="0"/><path d="M-172.92-231.68a.5.5 0 0 0-.5.5v93.42a.5.5 0 0 0 .5.5H-4.3a.5.5 0 0 0 .5-.5v-93.42a.5.5 0 0 0-.5-.5z" stroke="#315796" stroke-width="3" fill="#315796"/><use xlink:href="#j" transform="matrix(1,0,0,1,-163.5853852711486,-220.6281832995324) translate(56.940104166666664 43.166666666666664)"/></g><g filter="url(#f)"><path d="M106.58-231.18a.5.5 0 0 1 .5-.5H275.7a.5.5 0 0 1 .5.5v93.42a.5.5 0 0 1-.5.5H107.1a.5.5 0 0 1-.5-.5z" fill="#fff" fill-opacity="0"/><path d="M107.08-231.68a.5.5 0 0 0-.5.5v93.42a.5.5 0 0 0 .5.5H275.7a.5.5 0 0 0 .5-.5v-93.42a.5.5 0 0 0-.5-.5z" stroke="#315796" stroke-width="3" fill="#315796"/><use xlink:href="#k" transform="matrix(1,0,0,1,116.41461472885142,-220.6281832995324) translate(56.940104166666664 43.166666666666664)"/></g><path d="M-106.7 8.9l-.82-131.44" stroke="#5e5e5e" stroke-width="3" fill="none"/><path d="M-105.2 10.4h-2.95l-.02-1.52 2.95-.02zM-106.05-122.5H-109v-1.54h2.95z" stroke="#5e5e5e" stroke-width=".05" fill="#5e5e5e"/><path d="M-574.77-329.37H655.5v60H-574.78z" fill="none"/><use xlink:href="#l" transform="matrix(1,0,0,1,-574.7750026160795,-329.36932023136785) translate(581.9166666666666 35.77777777777778)"/><g filter="url(#f)"><path d="M-612.42 501.32a.5.5 0 0 1 .5-.5h168.64a.5.5 0 0 1 .5.5v93.42a.5.5 0 0 1-.5.5h-168.64a.5.5 0 0 1-.5-.5z" fill="#fff" fill-opacity="0"/><path d="M-611.92 500.82a.5.5 0 0 0-.5.5v93.42a.5.5 0 0 0 .5.5h168.64a.5.5 0 0 0 .5-.5v-93.42a.5.5 0 0 0-.5-.5z" stroke="#008a0e" stroke-width="3" fill="#008a0e"/><use xlink:href="#m" transform="matrix(1,0,0,1,-602.5771326872564,511.87019951178246) translate(0.1302083333333286 43.166666666666664)"/></g><g filter="url(#f)"><path d="M-348.36 500.54a.5.5 0 0 1 .5-.5h168.64a.5.5 0 0 1 .5.5v93.42a.5.5 0 0 1-.5.5h-168.64a.5.5 0 0 1-.5-.5z" fill="#fff" fill-opacity="0"/><path d="M-347.86 500.04a.5.5 0 0 0-.5.5v93.42a.5.5 0 0 0 .5.5h168.64a.5.5 0 0 0 .5-.5v-93.42a.5.5 0 0 0-.5-.5z" stroke="#008a0e" stroke-width="3" fill="#008a0e"/><use xlink:href="#n" transform="matrix(1,0,0,1,-338.5205357275192,511.0849331758753) translate(0.1302083333333286 43.166666666666664)"/></g><path d="M-49.06 9.6l202.63-132.82" stroke="#5e5e5e" stroke-width="3" fill="none"/><path d="M-48.23 10.8l-.98.65-.1-.16-.22-.24-.1-.04v-.27l-.08-.13-.1-.12-.15-.07-.16-.02H-53l3.16-2.07zM153.8-124.92l.22.23.1.05v.27l.1.14.1.1.14.08.15.02h2.9l-3.16 2.08-1.6-2.47.97-.64z" stroke="#5e5e5e" stroke-width=".05" fill="#5e5e5e"/><path d="M211.37 8.9l-.24-131.44" stroke="#5e5e5e" stroke-width="3" fill="none"/><path d="M212.85 10.4h-2.95V8.88h2.94zM212.6-122.5h-2.94v-1.54h2.94z" stroke="#5e5e5e" stroke-width=".05" fill="#5e5e5e"/><path d="M-84.3 300.04a19 19 0 0 1 19-19h452a19 19 0 0 1 19 19v342a19 19 0 0 1-19 19h-452a19 19 0 0 1-19-19z" stroke="#ced4db" stroke-width="3" fill="#ced4db"/><use xlink:href="#c" transform="matrix(1,0,0,1,-79.30297298944981,286.0422410207427) translate(180.22104938271605 368.07649137777787)"/><use xlink:href="#o" transform="matrix(1,0,0,1,-79.30297298944981,286.0422410207427) translate(227.0729012345679 368.07649137777787)"/><use xlink:href="#e" transform="matrix(1,0,0,1,-79.30297298944981,286.0422410207427) translate(245.59141975308643 368.07649137777787)"/><g filter="url(#f)"><path d="M-58.12 315.26a.5.5 0 0 1 .5-.5h168.64a.5.5 0 0 1 .5.5v93.42a.5.5 0 0 1-.5.5H-57.62a.5.5 0 0 1-.5-.5z" fill="#fff" fill-opacity="0"/><path d="M-57.62 314.76a.5.5 0 0 0-.5.5v93.42a.5.5 0 0 0 .5.5h168.64a.5.5 0 0 0 .5-.5v-93.42a.5.5 0 0 0-.5-.5z" stroke="#315796" stroke-width="3" fill="#315796"/><use xlink:href="#p" transform="matrix(1,0,0,1,-48.28319929940078,325.81033616777376) translate(14.108072916666671 43.166666666666664)"/></g><g filter="url(#f)"><path d="M206.06 315.26a.5.5 0 0 1 .5-.5H375.2a.5.5 0 0 1 .5.5v93.42a.5.5 0 0 1-.5.5H206.56a.5.5 0 0 1-.5-.5z" fill="#fff" fill-opacity="0"/><path d="M206.56 314.76a.5.5 0 0 0-.5.5v93.42a.5.5 0 0 0 .5.5H375.2a.5.5 0 0 0 .5-.5v-93.42a.5.5 0 0 0-.5-.5z" stroke="#315796" stroke-width="3" fill="#315796"/><use xlink:href="#q" transform="matrix(1,0,0,1,215.8975401689807,325.81033616777376) translate(14.108072916666671 43.166666666666664)"/></g><g filter="url(#f)"><path d="M-58.12 506.67a.5.5 0 0 1 .5-.5h168.64a.5.5 0 0 1 .5.5v93.4a.5.5 0 0 1-.5.5H-57.62a.5.5 0 0 1-.5-.5z" fill="#fff" fill-opacity="0"/><path d="M-57.62 506.17a.5.5 0 0 0-.5.5v93.4a.5.5 0 0 0 .5.5h168.64a.5.5 0 0 0 .5-.5v-93.4a.5.5 0 0 0-.5-.5z" stroke="#008a0e" stroke-width="3" fill="#008a0e"/><use xlink:href="#r" transform="matrix(1,0,0,1,-48.28319929940078,517.2115498940714) translate(16.920572916666664 43.166666666666664)"/></g><g filter="url(#f)"><path d="M206.06 505.6a.5.5 0 0 1 .5-.5H375.2a.5.5 0 0 1 .5.5V599a.5.5 0 0 1-.5.5H206.56a.5.5 0 0 1-.5-.5z" fill="#fff" fill-opacity="0"/><path d="M206.56 505.1a.5.5 0 0 0-.5.5V599a.5.5 0 0 0 .5.5H375.2a.5.5 0 0 0 .5-.5v-93.4a.5.5 0 0 0-.5-.5z" stroke="#008a0e" stroke-width="3" fill="#008a0e"/><use xlink:href="#s" transform="matrix(1,0,0,1,215.8975401689807,516.1394128963726) translate(16.920572916666664 43.166666666666664)"/></g><path d="M466.7 300.04a19 19 0 0 1 19-19h182a19 19 0 0 1 19 19v342a19 19 0 0 1-19 19h-182a19 19 0 0 1-19-19z" stroke="#ced4db" stroke-width="3" fill="#ced4db"/><use xlink:href="#c" transform="matrix(1,0,0,1,471.6970270105502,286.0422410207427) translate(45.221049382716046 368.07649137777787)"/><use xlink:href="#t" transform="matrix(1,0,0,1,471.6970270105502,286.0422410207427) translate(92.0729012345679 368.07649137777787)"/><use xlink:href="#u" transform="matrix(1,0,0,1,471.6970270105502,286.0422410207427) translate(110.59141975308643 368.07649137777787)"/><g filter="url(#f)"><path d="M490.88 315.26a.5.5 0 0 1 .5-.5h168.64a.5.5 0 0 1 .5.5v93.42a.5.5 0 0 1-.5.5H491.38a.5.5 0 0 1-.5-.5z" fill="#fff" fill-opacity="0"/><path d="M491.38 314.76a.5.5 0 0 0-.5.5v93.42a.5.5 0 0 0 .5.5h168.64a.5.5 0 0 0 .5-.5v-93.42a.5.5 0 0 0-.5-.5z" stroke="#315796" stroke-width="3" fill="#315796"/><use xlink:href="#v" transform="matrix(1,0,0,1,500.7168007005993,325.81033616777376) translate(14.108072916666671 43.166666666666664)"/></g><g filter="url(#f)"><path d="M491.88 506.67a.5.5 0 0 1 .5-.5h168.64a.5.5 0 0 1 .5.5v93.4a.5.5 0 0 1-.5.5H492.38a.5.5 0 0 1-.5-.5z" fill="#fff" fill-opacity="0"/><path d="M492.38 506.17a.5.5 0 0 0-.5.5v93.4a.5.5 0 0 0 .5.5h168.64a.5.5 0 0 0 .5-.5v-93.4a.5.5 0 0 0-.5-.5z" stroke="#008a0e" stroke-width="3" fill="#008a0e"/><use xlink:href="#w" transform="matrix(1,0,0,1,501.7168007005993,517.2115498940714) translate(16.920572916666664 43.166666666666664)"/></g><path d="M7.7 301.62a.5.5 0 0 1 .5-.5h37a.5.5 0 0 1 .5.5v22.97a.5.5 0 0 1-.5.5h-37a.5.5 0 0 1-.5-.5z" fill="#fff" fill-opacity="0"/><path d="M8.2 302.1a.5.5 0 0 0-.5.5v21.02a.5.5 0 0 0 .5.5h37a.5.5 0 0 0 .5-.5V302.6a.5.5 0 0 0-.5-.5z" stroke="#5e5e5e" fill="#fff"/><use xlink:href="#x" transform="matrix(1,0,0,1,22.0992174688339,301.1169876346107) translate(0.49479166666666696 16.444444444444443)"/><path d="M-145.6 102a.5.5 0 0 1 .5-.5h37a.5.5 0 0 1 .5.5v22.96a.5.5 0 0 1-.5.5h-37a.5.5 0 0 1-.5-.5z" fill="#fff" fill-opacity="0"/><path d="M-145.1 102.47a.5.5 0 0 0-.5.5V124a.5.5 0 0 0 .5.5h37a.5.5 0 0 0 .5-.5v-21.03a.5.5 0 0 0-.5-.5z" stroke="#5e5e5e" fill="#fff"/><use xlink:href="#y" transform="matrix(1,0,0,1,-131.20060744980842,101.49519214425766) translate(0.49479166666666696 16.444444444444443)"/><path d="M-107.6 102a.5.5 0 0 1 .5-.5h37a.5.5 0 0 1 .5.5v22.96a.5.5 0 0 1-.5.5h-37a.5.5 0 0 1-.5-.5z" fill="#fff" fill-opacity="0"/><path d="M-107.1 102.47a.5.5 0 0 0-.5.5V124a.5.5 0 0 0 .5.5h37a.5.5 0 0 0 .5-.5v-21.03a.5.5 0 0 0-.5-.5z" stroke="#5e5e5e" fill="#fff"/><use xlink:href="#z" transform="matrix(1,0,0,1,-93.20375552061576,101.49519214425766) translate(0.49479166666666696 16.444444444444443)"/><path d="M-69.6 102a.5.5 0 0 1 .5-.5h37a.5.5 0 0 1 .5.5v22.96a.5.5 0 0 1-.5.5h-37a.5.5 0 0 1-.5-.5z" fill="#fff" fill-opacity="0"/><path d="M-69.1 102.47a.5.5 0 0 0-.5.5V124a.5.5 0 0 0 .5.5h37a.5.5 0 0 0 .5-.5v-21.03a.5.5 0 0 0-.5-.5z" stroke="#5e5e5e" fill="#fff"/><use xlink:href="#A" transform="matrix(1,0,0,1,-55.205329556019294,101.49519214425766) translate(0.49479166666666696 16.444444444444443)"/><path d="M-125.6 10.9a.5.5 0 0 1 .5-.5h37a.5.5 0 0 1 .5.5V33.9a.5.5 0 0 1-.5.5h-37a.5.5 0 0 1-.5-.5z" fill="#fff" fill-opacity="0"/><path d="M-125.1 11.38a.5.5 0 0 0-.5.5V32.9a.5.5 0 0 0 .5.5h37a.5.5 0 0 0 .5-.5V11.9a.5.5 0 0 0-.5-.5z" stroke="#5e5e5e" fill="#fff"/><use xlink:href="#B" transform="matrix(1,0,0,1,-111.20218148521222,10.408925015538443) translate(0.49479166666666696 16.444444444444443)"/><path d="M-87.6 10.9a.5.5 0 0 1 .5-.5h37a.5.5 0 0 1 .5.5V33.9a.5.5 0 0 1-.5.5h-37a.5.5 0 0 1-.5-.5z" fill="#fff" fill-opacity="0"/><path d="M-87.1 11.38a.5.5 0 0 0-.5.5V32.9a.5.5 0 0 0 .5.5h37a.5.5 0 0 0 .5-.5V11.9a.5.5 0 0 0-.5-.5z" stroke="#5e5e5e" fill="#fff"/><use xlink:href="#C" transform="matrix(1,0,0,1,-73.20375552061576,10.408925015538443) translate(0.49479166666666696 16.444444444444443)"/><path d="M-126.6-147.5a.5.5 0 0 1 .5-.5h37a.5.5 0 0 1 .5.5v22.96a.5.5 0 0 1-.5.5h-37a.5.5 0 0 1-.5-.5z" fill="#fff" fill-opacity="0"/><path d="M-126.1-147.04a.5.5 0 0 0-.5.5v21.03a.5.5 0 0 0 .5.5h37a.5.5 0 0 0 .5-.5v-21.04a.5.5 0 0 0-.5-.5z" stroke="#5e5e5e" fill="#fff"/><use xlink:href="#B" transform="matrix(1,0,0,1,-112.20296850291399,-148.00656772153417) translate(0.49479166666666696 16.444444444444443)"/><path d="M-88.6-147.5a.5.5 0 0 1 .5-.5h37a.5.5 0 0 1 .5.5v22.96a.5.5 0 0 1-.5.5h-37a.5.5 0 0 1-.5-.5z" fill="#fff" fill-opacity="0"/><path d="M-88.1-147.04a.5.5 0 0 0-.5.5v21.03a.5.5 0 0 0 .5.5h37a.5.5 0 0 0 .5-.5v-21.04a.5.5 0 0 0-.5-.5z" stroke="#5e5e5e" fill="#fff"/><use xlink:href="#C" transform="matrix(1,0,0,1,-74.20454253831754,-148.00656772153417) translate(0.49479166666666696 16.444444444444443)"/><path d="M154.1-147.5a.5.5 0 0 1 .5-.5h37a.5.5 0 0 1 .5.5v22.96a.5.5 0 0 1-.5.5h-37a.5.5 0 0 1-.5-.5z" fill="#fff" fill-opacity="0"/><path d="M154.6-147.04a.5.5 0 0 0-.5.5v21.03a.5.5 0 0 0 .5.5h37a.5.5 0 0 0 .5-.5v-21.04a.5.5 0 0 0-.5-.5z" stroke="#5e5e5e" fill="#fff"/><use xlink:href="#B" transform="matrix(1,0,0,1,168.51044629322976,-148.00656772153417) translate(0.49479166666666696 16.444444444444443)"/><path d="M192.1-147.5a.5.5 0 0 1 .5-.5h37a.5.5 0 0 1 .5.5v22.96a.5.5 0 0 1-.5.5h-37a.5.5 0 0 1-.5-.5z" fill="#fff" fill-opacity="0"/><path d="M192.6-147.04a.5.5 0 0 0-.5.5v21.03a.5.5 0 0 0 .5.5h37a.5.5 0 0 0 .5-.5v-21.04a.5.5 0 0 0-.5-.5z" stroke="#5e5e5e" fill="#fff"/><use xlink:href="#C" transform="matrix(1,0,0,1,206.5088722578262,-148.00656772153417) translate(0.49479166666666696 16.444444444444443)"/><path d="M154.1 10.9a.5.5 0 0 1 .5-.5h37a.5.5 0 0 1 .5.5V33.9a.5.5 0 0 1-.5.5h-37a.5.5 0 0 1-.5-.5z" fill="#fff" fill-opacity="0"/><path d="M154.6 11.38a.5.5 0 0 0-.5.5V32.9a.5.5 0 0 0 .5.5h37a.5.5 0 0 0 .5-.5V11.9a.5.5 0 0 0-.5-.5z" stroke="#5e5e5e" fill="#fff"/><use xlink:href="#B" transform="matrix(1,0,0,1,168.51044629322976,10.408925015538443) translate(0.49479166666666696 16.444444444444443)"/><path d="M192.4 10.9a.5.5 0 0 1 .5-.5h37a.5.5 0 0 1 .5.5V33.9a.5.5 0 0 1-.5.5h-37a.5.5 0 0 1-.5-.5z" fill="#fff" fill-opacity="0"/><path d="M192.9 11.38a.5.5 0 0 0-.5.5V32.9a.5.5 0 0 0 .5.5h37a.5.5 0 0 0 .5-.5V11.9a.5.5 0 0 0-.5-.5z" stroke="#5e5e5e" fill="#fff"/><use xlink:href="#C" transform="matrix(1,0,0,1,206.79624447938423,10.408925015538443) translate(0.49479166666666696 16.444444444444443)"/><path d="M115.4 102a.5.5 0 0 1 .5-.5h37a.5.5 0 0 1 .5.5v22.96a.5.5 0 0 1-.5.5h-37a.5.5 0 0 1-.5-.5z" fill="#fff" fill-opacity="0"/><path d="M115.9 102.47a.5.5 0 0 0-.5.5V124a.5.5 0 0 0 .5.5h37a.5.5 0 0 0 .5-.5v-21.03a.5.5 0 0 0-.5-.5z" stroke="#5e5e5e" fill="#fff"/><use xlink:href="#y" transform="matrix(1,0,0,1,129.7997860590424,101.49519214425766) translate(0.49479166666666696 16.444444444444443)"/><path d="M153.4 102a.5.5 0 0 1 .5-.5h37a.5.5 0 0 1 .5.5v22.96a.5.5 0 0 1-.5.5h-37a.5.5 0 0 1-.5-.5z" fill="#fff" fill-opacity="0"/><path d="M153.9 102.47a.5.5 0 0 0-.5.5V124a.5.5 0 0 0 .5.5h37a.5.5 0 0 0 .5-.5v-21.03a.5.5 0 0 0-.5-.5z" stroke="#5e5e5e" fill="#fff"/><use xlink:href="#z" transform="matrix(1,0,0,1,167.79821202363885,101.49519214425766) translate(0.49479166666666696 16.444444444444443)"/><path d="M191.4 102a.5.5 0 0 1 .5-.5h37a.5.5 0 0 1 .5.5v22.96a.5.5 0 0 1-.5.5h-37a.5.5 0 0 1-.5-.5z" fill="#fff" fill-opacity="0"/><path d="M191.9 102.47a.5.5 0 0 0-.5.5V124a.5.5 0 0 0 .5.5h37a.5.5 0 0 0 .5-.5v-21.03a.5.5 0 0 0-.5-.5z" stroke="#5e5e5e" fill="#fff"/><use xlink:href="#A" transform="matrix(1,0,0,1,205.7958509705334,101.49519214425766) translate(0.49479166666666696 16.444444444444443)"/><path d="M229.4 102a.5.5 0 0 1 .5-.5h37a.5.5 0 0 1 .5.5v22.96a.5.5 0 0 1-.5.5h-37a.5.5 0 0 1-.5-.5z" fill="#fff" fill-opacity="0"/><path d="M229.9 102.47a.5.5 0 0 0-.5.5V124a.5.5 0 0 0 .5.5h37a.5.5 0 0 0 .5-.5v-21.03a.5.5 0 0 0-.5-.5z" stroke="#5e5e5e" fill="#fff"/><use xlink:href="#D" transform="matrix(1,0,0,1,243.79427693512983,101.49519214425766) translate(0.49479166666666696 16.444444444444443)"/><path d="M-561.3 301.62a.5.5 0 0 1 .5-.5h37a.5.5 0 0 1 .5.5v22.97a.5.5 0 0 1-.5.5h-37a.5.5 0 0 1-.5-.5z" fill="#fff" fill-opacity="0"/><path d="M-560.8 302.1a.5.5 0 0 0-.5.5v21.02a.5.5 0 0 0 .5.5h37a.5.5 0 0 0 .5-.5V302.6a.5.5 0 0 0-.5-.5z" stroke="#5e5e5e" fill="#fff"/><use xlink:href="#x" transform="matrix(1,0,0,1,-546.8999955134642,301.1169876346107) translate(0.49479166666666696 16.444444444444443)"/><path d="M-523.3 301.62a.5.5 0 0 1 .5-.5h37a.5.5 0 0 1 .5.5v22.97a.5.5 0 0 1-.5.5h-37a.5.5 0 0 1-.5-.5z" fill="#fff" fill-opacity="0"/><path d="M-522.8 302.1a.5.5 0 0 0-.5.5v21.02a.5.5 0 0 0 .5.5h37a.5.5 0 0 0 .5-.5V302.6a.5.5 0 0 0-.5-.5z" stroke="#5e5e5e" fill="#fff"/><use xlink:href="#E" transform="matrix(1,0,0,1,-508.90156954886777,301.1169876346107) translate(0.49479166666666696 16.444444444444443)"/><path d="M-300 301.62a.5.5 0 0 1 .5-.5h37a.5.5 0 0 1 .5.5v22.97a.5.5 0 0 1-.5.5h-37a.5.5 0 0 1-.5-.5z" fill="#fff" fill-opacity="0"/><path d="M-299.5 302.1a.5.5 0 0 0-.5.5v21.02a.5.5 0 0 0 .5.5h37a.5.5 0 0 0 .5-.5V302.6a.5.5 0 0 0-.5-.5z" stroke="#5e5e5e" fill="#fff"/><use xlink:href="#x" transform="matrix(1,0,0,1,-285.59859655941796,301.1169876346107) translate(0.49479166666666696 16.444444444444443)"/><path d="M-262 301.62a.5.5 0 0 1 .5-.5h37a.5.5 0 0 1 .5.5v22.97a.5.5 0 0 1-.5.5h-37a.5.5 0 0 1-.5-.5z" fill="#fff" fill-opacity="0"/><path d="M-261.5 302.1a.5.5 0 0 0-.5.5v21.02a.5.5 0 0 0 .5.5h37a.5.5 0 0 0 .5-.5V302.6a.5.5 0 0 0-.5-.5z" stroke="#5e5e5e" fill="#fff"/><use xlink:href="#E" transform="matrix(1,0,0,1,-247.60017059482138,301.1169876346107) translate(0.49479166666666696 16.444444444444443)"/><path d="M271.88 301.62a.5.5 0 0 1 .5-.5h37a.5.5 0 0 1 .5.5v22.97a.5.5 0 0 1-.5.5h-37a.5.5 0 0 1-.5-.5z" fill="#fff" fill-opacity="0"/><path d="M272.38 302.1a.5.5 0 0 0-.5.5v21.02a.5.5 0 0 0 .5.5h37a.5.5 0 0 0 .5-.5V302.6a.5.5 0 0 0-.5-.5z" stroke="#5e5e5e" fill="#fff"/><use xlink:href="#E" transform="matrix(1,0,0,1,286.2799569372154,301.1169876346107) translate(0.49479166666666696 16.444444444444443)"/><path d="M557.7 301.62a.5.5 0 0 1 .5-.5h37a.5.5 0 0 1 .5.5v22.97a.5.5 0 0 1-.5.5h-37a.5.5 0 0 1-.5-.5z" fill="#fff" fill-opacity="0"/><path d="M558.2 302.1a.5.5 0 0 0-.5.5v21.02a.5.5 0 0 0 .5.5h37a.5.5 0 0 0 .5-.5V302.6a.5.5 0 0 0-.5-.5z" stroke="#5e5e5e" fill="#fff"/><use xlink:href="#E" transform="matrix(1,0,0,1,572.099217468834,301.1169876346107) translate(0.49479166666666696 16.444444444444443)"/><path d="M7.7 495.93a.5.5 0 0 1 .5-.5h37a.5.5 0 0 1 .5.5v22.97a.5.5 0 0 1-.5.5h-37a.5.5 0 0 1-.5-.5z" fill="#fff" fill-opacity="0"/><path d="M8.2 496.4a.5.5 0 0 0-.5.5v21.03a.5.5 0 0 0 .5.5h37a.5.5 0 0 0 .5-.5V496.9a.5.5 0 0 0-.5-.5z" stroke="#5e5e5e" fill="#fff"/><use xlink:href="#x" transform="matrix(1,0,0,1,22.0992174688339,495.43408992271725) translate(0.49479166666666696 16.444444444444443)"/><path d="M7.7 398.78a.5.5 0 0 1 .5-.5h37a.5.5 0 0 1 .5.5v22.96a.5.5 0 0 1-.5.5h-37a.5.5 0 0 1-.5-.5z" fill="#fff" fill-opacity="0"/><path d="M8.2 399.25a.5.5 0 0 0-.5.5v21.02a.5.5 0 0 0 .5.5h37a.5.5 0 0 0 .5-.5v-21.02a.5.5 0 0 0-.5-.5z" stroke="#5e5e5e" fill="#fff"/><use xlink:href="#B" transform="matrix(1,0,0,1,22.0992174688339,398.275538778664) translate(0.49479166666666696 16.444444444444443)"/><path d="M271.88 495.93a.5.5 0 0 1 .5-.5h37a.5.5 0 0 1 .5.5v22.97a.5.5 0 0 1-.5.5h-37a.5.5 0 0 1-.5-.5z" fill="#fff" fill-opacity="0"/><path d="M272.38 496.4a.5.5 0 0 0-.5.5v21.03a.5.5 0 0 0 .5.5h37a.5.5 0 0 0 .5-.5V496.9a.5.5 0 0 0-.5-.5z" stroke="#5e5e5e" fill="#fff"/><use xlink:href="#x" transform="matrix(1,0,0,1,286.2799569372154,495.43408992271725) translate(0.49479166666666696 16.444444444444443)"/><path d="M-561.3 401.47a.5.5 0 0 1 .5-.5h37a.5.5 0 0 1 .5.5v22.97a.5.5 0 0 1-.5.5h-37a.5.5 0 0 1-.5-.5z" fill="#fff" fill-opacity="0"/><path d="M-560.8 401.94a.5.5 0 0 0-.5.5v21.03a.5.5 0 0 0 .5.5h37a.5.5 0 0 0 .5-.5v-21.03a.5.5 0 0 0-.5-.5z" stroke="#5e5e5e" fill="#fff"/><use xlink:href="#B" transform="matrix(1,0,0,1,-546.8999955134641,400.9701526171125) translate(0.49479166666666696 16.444444444444443)"/><path d="M-523.3 401.47a.5.5 0 0 1 .5-.5h37a.5.5 0 0 1 .5.5v22.97a.5.5 0 0 1-.5.5h-37a.5.5 0 0 1-.5-.5z" fill="#fff" fill-opacity="0"/><path d="M-522.8 401.94a.5.5 0 0 0-.5.5v21.03a.5.5 0 0 0 .5.5h37a.5.5 0 0 0 .5-.5v-21.03a.5.5 0 0 0-.5-.5z" stroke="#5e5e5e" fill="#fff"/><use xlink:href="#C" transform="matrix(1,0,0,1,-508.90156954886766,400.9701526171125) translate(0.49479166666666696 16.444444444444443)"/><path d="M-301.54 401.47a.5.5 0 0 1 .5-.5h37a.5.5 0 0 1 .5.5v22.97a.5.5 0 0 1-.5.5h-37a.5.5 0 0 1-.5-.5z" fill="#fff" fill-opacity="0"/><path d="M-301.04 401.94a.5.5 0 0 0-.5.5v21.03a.5.5 0 0 0 .5.5h37a.5.5 0 0 0 .5-.5v-21.03a.5.5 0 0 0-.5-.5z" stroke="#5e5e5e" fill="#fff"/><use xlink:href="#B" transform="matrix(1,0,0,1,-287.1373319415828,400.9701526171125) translate(0.49479166666666696 16.444444444444443)"/><path d="M-263.54 401.47a.5.5 0 0 1 .5-.5h37a.5.5 0 0 1 .5.5v22.97a.5.5 0 0 1-.5.5h-37a.5.5 0 0 1-.5-.5z" fill="#fff" fill-opacity="0"/><path d="M-263.04 401.94a.5.5 0 0 0-.5.5v21.03a.5.5 0 0 0 .5.5h37a.5.5 0 0 0 .5-.5v-21.03a.5.5 0 0 0-.5-.5z" stroke="#5e5e5e" fill="#fff"/><use xlink:href="#C" transform="matrix(1,0,0,1,-249.13890597698625,400.9701526171125) translate(0.49479166666666696 16.444444444444443)"/><path d="M-561.3 485.54a.5.5 0 0 1 .5-.5h37a.5.5 0 0 1 .5.5v22.97a.5.5 0 0 1-.5.5h-37a.5.5 0 0 1-.5-.5z" fill="#fff" fill-opacity="0"/><path d="M-560.8 486a.5.5 0 0 0-.5.5v21.04a.5.5 0 0 0 .5.5h37a.5.5 0 0 0 .5-.5V486.5a.5.5 0 0 0-.5-.5z" stroke="#5e5e5e" fill="#fff"/><use xlink:href="#x" transform="matrix(1,0,0,1,-546.8999955134643,485.0407464372827) translate(0.49479166666666696 16.444444444444443)"/><path d="M-523.3 485.54a.5.5 0 0 1 .5-.5h37a.5.5 0 0 1 .5.5v22.97a.5.5 0 0 1-.5.5h-37a.5.5 0 0 1-.5-.5z" fill="#fff" fill-opacity="0"/><path d="M-522.8 486a.5.5 0 0 0-.5.5v21.04a.5.5 0 0 0 .5.5h37a.5.5 0 0 0 .5-.5V486.5a.5.5 0 0 0-.5-.5z" stroke="#5e5e5e" fill="#fff"/><use xlink:href="#E" transform="matrix(1,0,0,1,-508.9015695488679,485.0407464372827) translate(0.49479166666666696 16.444444444444443)"/><path d="M-301.54 485.54a.5.5 0 0 1 .5-.5h37a.5.5 0 0 1 .5.5v22.97a.5.5 0 0 1-.5.5h-37a.5.5 0 0 1-.5-.5z" fill="#fff" fill-opacity="0"/><path d="M-301.04 486a.5.5 0 0 0-.5.5v21.04a.5.5 0 0 0 .5.5h37a.5.5 0 0 0 .5-.5V486.5a.5.5 0 0 0-.5-.5z" stroke="#5e5e5e" fill="#fff"/><use xlink:href="#x" transform="matrix(1,0,0,1,-287.1373319415828,485.0407464372827) translate(0.49479166666666696 16.444444444444443)"/><path d="M-263.54 485.54a.5.5 0 0 1 .5-.5h37a.5.5 0 0 1 .5.5v22.97a.5.5 0 0 1-.5.5h-37a.5.5 0 0 1-.5-.5z" fill="#fff" fill-opacity="0"/><path d="M-263.04 486a.5.5 0 0 0-.5.5v21.04a.5.5 0 0 0 .5.5h37a.5.5 0 0 0 .5-.5V486.5a.5.5 0 0 0-.5-.5z" stroke="#5e5e5e" fill="#fff"/><use xlink:href="#E" transform="matrix(1,0,0,1,-249.13890597698625,485.0407464372827) translate(0.49479166666666696 16.444444444444443)"/><path d="M-386.36 529.3a.5.5 0 0 1 .5-.5h37a.5.5 0 0 1 .5.5v22.96a.5.5 0 0 1-.5.5h-37a.5.5 0 0 1-.5-.5z" fill="#fff" fill-opacity="0"/><path d="M-385.86 529.76a.5.5 0 0 0-.5.5v21.03a.5.5 0 0 0 .5.5h37a.5.5 0 0 0 .5-.5v-21.03a.5.5 0 0 0-.5-.5z" stroke="#5e5e5e" fill="#fff"/><use xlink:href="#y" transform="matrix(1,0,0,1,-371.95659247320134,528.7951926366212) translate(0.49479166666666696 16.444444444444443)"/><path d="M-386.36 552.34a.5.5 0 0 1 .5-.5h37a.5.5 0 0 1 .5.5v22.97a.5.5 0 0 1-.5.5h-37a.5.5 0 0 1-.5-.5z" fill="#fff" fill-opacity="0"/><path d="M-385.86 552.8a.5.5 0 0 0-.5.5v21.04a.5.5 0 0 0 .5.5h37a.5.5 0 0 0 .5-.5V553.3a.5.5 0 0 0-.5-.5z" stroke="#5e5e5e" fill="#fff"/><use xlink:href="#z" transform="matrix(1,0,0,1,-371.95659247320134,551.8389134528827) translate(0.49479166666666696 16.444444444444443)"/><path d="M106.58 529.3a.5.5 0 0 1 .5-.5h37a.5.5 0 0 1 .5.5v22.96a.5.5 0 0 1-.5.5h-37a.5.5 0 0 1-.5-.5z" fill="#fff" fill-opacity="0"/><path d="M107.08 529.76a.5.5 0 0 0-.5.5v21.03a.5.5 0 0 0 .5.5h37a.5.5 0 0 0 .5-.5v-21.03a.5.5 0 0 0-.5-.5z" stroke="#5e5e5e" fill="#fff"/><use xlink:href="#y" transform="matrix(1,0,0,1,120.97698394776569,528.7951926366211) translate(0.49479166666666696 16.444444444444443)"/><path d="M106.58 552.34a.5.5 0 0 1 .5-.5h37a.5.5 0 0 1 .5.5v22.97a.5.5 0 0 1-.5.5h-37a.5.5 0 0 1-.5-.5z" fill="#fff" fill-opacity="0"/><path d="M107.08 552.8a.5.5 0 0 0-.5.5v21.04a.5.5 0 0 0 .5.5h37a.5.5 0 0 0 .5-.5V553.3a.5.5 0 0 0-.5-.5z" stroke="#5e5e5e" fill="#fff"/><use xlink:href="#z" transform="matrix(1,0,0,1,120.97698394776569,551.8389134528826) translate(0.49479166666666696 16.444444444444443)"/><path d="M-521.45 303.1l374-179.6" stroke="#5e5e5e" stroke-width="3" fill="none"/><path d="M-520.78 304.4l-2.02.97v-2.82l-.05-.28-.06-.12.85-.4zM-146.1 124.03l.04.28.06.13-.85.4-1.28-2.65 2.03-.97z" stroke="#5e5e5e" stroke-width=".05" fill="#5e5e5e"/><path d="M-483.37 306.56l596.84-186.54" stroke="#5e5e5e" stroke-width="3" fill="none"/><path d="M-482.9 307.96l-1.9.6v-3.1l1.02-.32zM114.9 121.12l-1.03.32-.88-2.8 1.9-.6z" stroke="#5e5e5e" stroke-width=".05" fill="#5e5e5e"/><path d="M-268.4 300.04l167.2-173.5" stroke="#5e5e5e" stroke-width="3" fill="none"/><path d="M-267.32 301.03l-.08.1h-4.1l2.06-2.14zM-100.16 127.6l-2.13-2.05.1-.1h4.1z" stroke="#5e5e5e" stroke-width=".05" fill="#5e5e5e"/><path d="M-542.3 483.54v-57.1" stroke="#5e5e5e" stroke-width="3" fill="none"/><path d="M-540.83 485.04h-2.95v-1.54h2.95zM-540.83 426.48h-2.95v-1.54h2.95z" stroke="#5e5e5e" stroke-width=".05" fill="#5e5e5e"/><path d="M575.7 493.93v-67.5" stroke="#5e5e5e" stroke-width="3" fill="none"/><path d="M577.17 495.43h-2.95v-1.53h2.95zM577.17 426.48h-2.95v-1.54h2.95z" stroke="#5e5e5e" stroke-width=".05" fill="#5e5e5e"/><path d="M-222.15 303.08l373.7-179.58" stroke="#5e5e5e" stroke-width="3" fill="none"/><path d="M-221.48 304.4l-2.02.97v-2.82l-.05-.28-.06-.12.84-.4zM152.9 124.03l.04.28.06.13-.85.42-1.28-2.66 2.03-1z" stroke="#5e5e5e" stroke-width=".05" fill="#5e5e5e"/><path d="M21.5 299.72L-45.4 126.86" stroke="#5e5e5e" stroke-width="3" fill="none"/><path d="M23.64 301.12h-3.17l-.34-.9 2.75-1.07zM-44.03 126.37l-2.76 1.06-.75-1.97h3.16z" stroke="#5e5e5e" stroke-width=".05" fill="#5e5e5e"/><path d="M285.5 299.73l-69.7-172.88" stroke="#5e5e5e" stroke-width="3" fill="none"/><path d="M287.64 301.12h-3.18l-.36-.88 2.74-1.1zM217.17 126.34l-2.74 1.1-.8-1.98h3.2z" stroke="#5e5e5e" stroke-width=".05" fill="#5e5e5e"/><path d="M556.43 300.78L268.66 125.8" stroke="#5e5e5e" stroke-width="3" fill="none"/><path d="M559.83 301.12h-1.63l-.16.02-.14.07-.1.12-.08.14-.02.16v.1l-.1.05-.22.23-.14.27-.04.28v.42l-1.57-.95 1.53-2.52zM269.46 124.56l-1.53 2.52-2.67-1.62h1.63l.15-.02.13-.07.12-.1.07-.15.02-.16v-.1l.08-.05.22-.2.15-.3.04-.27v-.42z" stroke="#5e5e5e" stroke-width=".05" fill="#5e5e5e"/><path d="M271.88 401.47a.5.5 0 0 1 .5-.5h37a.5.5 0 0 1 .5.5v22.97a.5.5 0 0 1-.5.5h-37a.5.5 0 0 1-.5-.5z" fill="#fff" fill-opacity="0"/><path d="M272.38 401.94a.5.5 0 0 0-.5.5v21.03a.5.5 0 0 0 .5.5h37a.5.5 0 0 0 .5-.5v-21.03a.5.5 0 0 0-.5-.5z" stroke="#5e5e5e" fill="#fff"/><use xlink:href="#B" transform="matrix(1,0,0,1,286.2799569372154,400.9701526171125) translate(0.49479166666666696 16.444444444444443)"/><path d="M556.7 401.47a.5.5 0 0 1 .5-.5h37a.5.5 0 0 1 .5.5v22.97a.5.5 0 0 1-.5.5h-37a.5.5 0 0 1-.5-.5z" fill="#fff" fill-opacity="0"/><path d="M557.2 401.94a.5.5 0 0 0-.5.5v21.03a.5.5 0 0 0 .5.5h37a.5.5 0 0 0 .5-.5v-21.03a.5.5 0 0 0-.5-.5z" stroke="#5e5e5e" fill="#fff"/><use xlink:href="#B" transform="matrix(1,0,0,1,571.099217468834,400.9701526171125) translate(0.49479166666666696 16.444444444444443)"/><path d="M556.7 495.93a.5.5 0 0 1 .5-.5h37a.5.5 0 0 1 .5.5v22.97a.5.5 0 0 1-.5.5h-37a.5.5 0 0 1-.5-.5z" fill="#fff" fill-opacity="0"/><path d="M557.2 496.4a.5.5 0 0 0-.5.5v21.03a.5.5 0 0 0 .5.5h37a.5.5 0 0 0 .5-.5V496.9a.5.5 0 0 0-.5-.5z" stroke="#5e5e5e" fill="#fff"/><use xlink:href="#B" transform="matrix(1,0,0,1,571.099217468834,495.43408992271725) translate(0.49479166666666696 16.444444444444443)"/><path d="M-483.4 489.1l179.96-68.22" stroke="#5e5e5e" stroke-width="3" fill="none"/><path d="M-482.84 490.47l-1.97.74v-3.14l.9-.35zM-302.04 421.92l-.9.35-1.06-2.76 1.96-.73z" stroke="#5e5e5e" stroke-width=".05" fill="#5e5e5e"/><path d="M-303.44 489.1l-179.96-68.22" stroke="#5e5e5e" stroke-width="3" fill="none"/><path d="M-302.04 488.06v3.15l-1.96-.73 1.05-2.76zM-482.84 419.5l-1.05 2.77-.9-.35v-3.15z" stroke="#5e5e5e" stroke-width=".05" fill="#5e5e5e"/><path d="M-244.54 483.54v-57.1" stroke="#5e5e5e" stroke-width="3" fill="none"/><path d="M-243.07 485.04h-2.95v-1.54h2.95zM-243.07 426.48h-2.95v-1.54h2.95z" stroke="#5e5e5e" stroke-width=".05" fill="#5e5e5e"/><path d="M26.7 493.93v-70.2" stroke="#5e5e5e" stroke-width="3" fill="none"/><path d="M28.17 495.43h-2.95v-1.53h2.95zM28.17 423.78h-2.95v-1.54h2.95z" stroke="#5e5e5e" stroke-width=".05" fill="#5e5e5e"/><path d="M290.88 493.93v-67.5" stroke="#5e5e5e" stroke-width="3" fill="none"/><path d="M292.35 495.43h-2.95v-1.53h2.95zM292.35 426.48h-2.95v-1.54h2.95z" stroke="#5e5e5e" stroke-width=".05" fill="#5e5e5e"/><path d="M105.7 350.5a.5.5 0 0 1 .5-.5h37a.5.5 0 0 1 .5.5v22.96a.5.5 0 0 1-.5.5h-37a.5.5 0 0 1-.5-.5z" fill="#fff" fill-opacity="0"/><path d="M106.2 350.96a.5.5 0 0 0-.5.5v21.03a.5.5 0 0 0 .5.5h37a.5.5 0 0 0 .5-.5v-21.04a.5.5 0 0 0-.5-.5z" stroke="#5e5e5e" fill="#fff"/><use xlink:href="#y" transform="matrix(1,0,0,1,120.09843045113223,349.9879763161531) translate(0.49479166666666696 16.444444444444443)"/><path d="M172.4 350.5a.5.5 0 0 1 .5-.5h37a.5.5 0 0 1 .5.5v22.96a.5.5 0 0 1-.5.5h-37a.5.5 0 0 1-.5-.5z" fill="#fff" fill-opacity="0"/><path d="M172.9 350.96a.5.5 0 0 0-.5.5v21.03a.5.5 0 0 0 .5.5h37a.5.5 0 0 0 .5-.5v-21.04a.5.5 0 0 0-.5-.5z" stroke="#5e5e5e" fill="#fff"/><use xlink:href="#y" transform="matrix(1,0,0,1,186.79703149708612,349.9879763161531) translate(0.49479166666666696 16.444444444444443)"/><path d="M145.7 361.97h24.7" stroke="#5e5e5e" stroke-width="3" fill="none"/><path d="M145.73 363.45h-1.53v-2.95h1.53zM171.9 363.45h-1.54v-2.95h1.54z" stroke="#5e5e5e" stroke-width=".05" fill="#5e5e5e"/><path d="M172.4 530.37a.5.5 0 0 1 .5-.5h37a.5.5 0 0 1 .5.5v22.97a.5.5 0 0 1-.5.5h-37a.5.5 0 0 1-.5-.5z" fill="#fff" fill-opacity="0"/><path d="M172.9 530.84a.5.5 0 0 0-.5.5v21.03a.5.5 0 0 0 .5.5h37a.5.5 0 0 0 .5-.5v-21.03a.5.5 0 0 0-.5-.5z" stroke="#5e5e5e" fill="#fff"/><use xlink:href="#y" transform="matrix(1,0,0,1,186.79703149708612,529.86732963432) translate(0.49479166666666696 16.444444444444443)"/><path d="M172.4 553.4a.5.5 0 0 1 .5-.5h37a.5.5 0 0 1 .5.5v22.98a.5.5 0 0 1-.5.5h-37a.5.5 0 0 1-.5-.5z" fill="#fff" fill-opacity="0"/><path d="M172.9 553.88a.5.5 0 0 0-.5.5v21.03a.5.5 0 0 0 .5.5h37a.5.5 0 0 0 .5-.5V554.4a.5.5 0 0 0-.5-.5z" stroke="#5e5e5e" fill="#fff"/><use xlink:href="#z" transform="matrix(1,0,0,1,186.79703149708612,552.9110504505815) translate(0.49479166666666696 16.444444444444443)"/><path d="M-442.78 529.3a.5.5 0 0 1 .5-.5h37a.5.5 0 0 1 .5.5v22.96a.5.5 0 0 1-.5.5h-37a.5.5 0 0 1-.5-.5z" fill="#fff" fill-opacity="0"/><path d="M-442.28 529.76a.5.5 0 0 0-.5.5v21.03a.5.5 0 0 0 .5.5h37a.5.5 0 0 0 .5-.5v-21.03a.5.5 0 0 0-.5-.5z" stroke="#5e5e5e" fill="#fff"/><use xlink:href="#y" transform="matrix(1,0,0,1,-428.3762424051048,528.7951926366211) translate(0.49479166666666696 16.444444444444443)"/><path d="M-442.78 552.34a.5.5 0 0 1 .5-.5h37a.5.5 0 0 1 .5.5v22.97a.5.5 0 0 1-.5.5h-37a.5.5 0 0 1-.5-.5z" fill="#fff" fill-opacity="0"/><path d="M-442.28 552.8a.5.5 0 0 0-.5.5v21.04a.5.5 0 0 0 .5.5h37a.5.5 0 0 0 .5-.5V553.3a.5.5 0 0 0-.5-.5z" stroke="#5e5e5e" fill="#fff"/><use xlink:href="#z" transform="matrix(1,0,0,1,-428.3762424051048,551.8389134528827) translate(0.49479166666666696 16.444444444444443)"/><path d="M-388.36 540.78h-14.42" stroke="#5e5e5e" stroke-width="3" fill="none"/><path d="M-386.86 542.25h-1.54v-2.95h1.54zM-402.74 542.25h-1.54v-2.95h1.54z" stroke="#5e5e5e" stroke-width=".05" fill="#5e5e5e"/><path d="M-388.36 563.82h-14.42" stroke="#5e5e5e" stroke-width="3" fill="none"/><path d="M-386.86 565.3h-1.54v-2.95h1.54zM-402.74 565.3h-1.54v-2.95h1.54z" stroke="#5e5e5e" stroke-width=".05" fill="#5e5e5e"/><path d="M146.57 541.12l23.83.4" stroke="#5e5e5e" stroke-width="3" fill="none"/><path d="M146.64 539.65l-.05 2.95-1.53-.03v-2.95zM171.9 540.06V543l-1.57-.02.05-2.95z" stroke="#5e5e5e" stroke-width=".05" fill="#5e5e5e"/><path d="M146.57 564.16l23.83.4" stroke="#5e5e5e" stroke-width="3" fill="none"/><path d="M146.64 562.7l-.05 2.94-1.53-.02v-2.95zM171.9 563.1v2.95l-1.57-.02.05-2.95z" stroke="#5e5e5e" stroke-width=".05" fill="#5e5e5e"/><path d="M-50-123.22L153.5 9.58" stroke="#5e5e5e" stroke-width="3" fill="none"/><path d="M-49.15-124.43l-1.6 2.47-3.2-2.08h2.84l.15-.02.14-.07.1-.1.07-.15.02-.16v-.1l.08-.05.23-.22.1-.2zM157.44 10.4h-2.83l-.14.03-.15.07-.1.12-.07.13-.02.16v.12l-.08.04-.23.23-.1.18-1.05-.68 1.6-2.47z" stroke="#5e5e5e" stroke-width=".05" fill="#5e5e5e"/><defs><path fill="#333" d="M240-174c0 40-23 61-54 70L253 0h-59l-57-94H76V0H24v-248c93 4 217-23 216 74zM76-134c48-2 112 12 112-38 0-48-66-32-112-35v73" id="F"/><path fill="#333" d="M24 0v-248h195v40H76v63h132v40H76v65h150V0H24" id="G"/><path fill="#333" d="M67-125c0 54 23 88 75 88 28 0 53-7 68-21v-34h-60v-39h108v91C232-14 192 4 140 4 58 4 20-42 15-125 8-236 126-280 215-234c19 10 29 26 37 47l-47 15c-11-23-29-39-63-39-53 1-75 33-75 86" id="H"/><path fill="#333" d="M24 0v-248h52V0H24" id="I"/><path fill="#333" d="M140-251c80 0 125 45 125 126S219 4 139 4C58 4 15-44 15-125s44-126 125-126zm-1 214c52 0 73-35 73-88 0-50-21-86-72-86-52 0-73 35-73 86s22 88 72 88" id="J"/><path fill="#333" d="M175 0L67-191c6 58 2 128 3 191H24v-248h59L193-55c-6-58-2-129-3-193h46V0h-61" id="K"/><path fill="#333" d="M182-182c0 78-84 86-111 141h115V0H12c-6-101 99-100 120-180 1-22-12-31-33-32-23 0-32 14-35 34l-49-3c5-45 32-70 84-70 51 0 83 22 83 69" id="L"/><g id="a"><use transform="matrix(0.06172839506172839,0,0,0.06172839506172839,0,0)" xlink:href="#F"/><use transform="matrix(0.06172839506172839,0,0,0.06172839506172839,15.987654320987653,0)" xlink:href="#G"/><use transform="matrix(0.06172839506172839,0,0,0.06172839506172839,30.80246913580247,0)" xlink:href="#H"/><use transform="matrix(0.06172839506172839,0,0,0.06172839506172839,48.08641975308642,0)" xlink:href="#I"/><use transform="matrix(0.06172839506172839,0,0,0.06172839506172839,54.25925925925926,0)" xlink:href="#J"/><use transform="matrix(0.06172839506172839,0,0,0.06172839506172839,71.54320987654322,0)" xlink:href="#K"/><use transform="matrix(0.06172839506172839,0,0,0.06172839506172839,87.53086419753087,0)" xlink:href="#L"/></g><path fill="#333" d="M23 0v-37h61v-169l-59 37v-38l62-41h46v211h57V0H23" id="M"/><g id="b"><use transform="matrix(0.06172839506172839,0,0,0.06172839506172839,0,0)" xlink:href="#F"/><use transform="matrix(0.06172839506172839,0,0,0.06172839506172839,15.987654320987653,0)" xlink:href="#G"/><use transform="matrix(0.06172839506172839,0,0,0.06172839506172839,30.80246913580247,0)" xlink:href="#H"/><use transform="matrix(0.06172839506172839,0,0,0.06172839506172839,48.08641975308642,0)" xlink:href="#I"/><use transform="matrix(0.06172839506172839,0,0,0.06172839506172839,54.25925925925926,0)" xlink:href="#J"/><use transform="matrix(0.06172839506172839,0,0,0.06172839506172839,71.54320987654322,0)" xlink:href="#K"/><use transform="matrix(0.06172839506172839,0,0,0.06172839506172839,87.53086419753087,0)" xlink:href="#M"/></g><path fill="#333" d="M169-182c-1-43-94-46-97-3 18 66 151 10 154 114 3 95-165 93-204 36-6-8-10-19-12-30l50-8c3 46 112 56 116 5-17-69-150-10-154-114-4-87 153-88 188-35 5 8 8 18 10 28" id="N"/><path fill="#333" d="M25-224v-37h50v37H25zM25 0v-190h50V0H25" id="O"/><path fill="#333" d="M115-3C79 11 28 4 28-45v-112H4v-33h27l15-45h31v45h36v33H77v99c-1 23 16 31 38 25v30" id="P"/><path fill="#333" d="M185-48c-13 30-37 53-82 52C43 2 14-33 14-96s30-98 90-98c62 0 83 45 84 108H66c0 31 8 55 39 56 18 0 30-7 34-22zm-45-69c5-46-57-63-70-21-2 6-4 13-4 21h74" id="Q"/><g id="c"><use transform="matrix(0.06172839506172839,0,0,0.06172839506172839,0,0)" xlink:href="#N"/><use transform="matrix(0.06172839506172839,0,0,0.06172839506172839,14.814814814814813,0)" xlink:href="#O"/><use transform="matrix(0.06172839506172839,0,0,0.06172839506172839,20.98765432098765,0)" xlink:href="#P"/><use transform="matrix(0.06172839506172839,0,0,0.06172839506172839,28.33333333333333,0)" xlink:href="#Q"/></g><use transform="matrix(0.06172839506172839,0,0,0.06172839506172839,0,0)" xlink:href="#M" id="d"/><path fill="#333" d="M24 0v-248h52v208h133V0H24" id="R"/><path fill="#333" d="M128-127c34 4 56 21 59 58 7 91-148 94-172 28-4-9-6-17-7-26l51-5c1 24 16 35 40 36 23 0 39-12 38-36-1-31-31-36-65-34v-40c32 2 59-3 59-33 0-20-13-33-34-33s-33 13-35 32l-50-3c6-44 37-68 86-68 50 0 83 20 83 66 0 35-22 52-53 58" id="S"/><g id="e"><use transform="matrix(0.06172839506172839,0,0,0.06172839506172839,0,0)" xlink:href="#R"/><use transform="matrix(0.06172839506172839,0,0,0.06172839506172839,13.518518518518517,0)" xlink:href="#S"/><use transform="matrix(0.06172839506172839,0,0,0.06172839506172839,25.864197530864196,0)" xlink:href="#R"/><use transform="matrix(0.06172839506172839,0,0,0.06172839506172839,39.382716049382715,0)" xlink:href="#N"/></g><path fill="#fff" d="M80-702c6-234 206-338 457-298 93 15 166 59 220 115-26 37-46 85-79 115-8 4-17 7-28 7-73 0-113-61-203-61-94 0-160 79-107 152 93 83 270 88 356 179 39 42 70 95 69 176C761-63 553 47 286 6 191-9 109-52 51-106c29-40 47-92 85-123 77-33 115 38 178 55 22 6 48 12 80 12 81 0 133-35 133-110 0-69-60-91-116-111C252-440 75-483 80-702" id="T"/><path fill="#fff" d="M379-993V0H125v-993h254zm-132-444c97 0 163 62 163 159 0 96-66 158-163 158-94 0-157-63-157-158s62-159 157-159" id="U"/><path fill="#fff" d="M680-72c-61 52-150 86-256 87-172 2-267-108-267-279v-542c-63-2-138 16-138-53v-101l151-29 53-262c11-66 119-33 188-41v306h245v180H411v525c0 54 23 90 73 93 51 3 85-62 119-7" id="V"/><path fill="#fff" d="M960-149C871-45 736 15 551 15 231 15 63-191 63-518c0-229 113-378 277-452 59-26 125-39 199-39 278 0 430 170 430 452 0 55-4 97-59 97H316c14 166 83 276 257 279 98 1 159-38 221-71 33-18 71-20 93 9zM741-612c-4-130-65-216-197-216-140 0-203 89-223 216h420" id="W"/><path fill="#fff" d="M236-180h257c2-279-3-565 3-840L323-871c-27 30-91 18-110-9l-76-104 399-346h198v1150h227V0H236v-180" id="X"/><path fill="#fff" d="M61-690h505v212H61v-212" id="Y"/><path fill="#fff" d="M7-993h202c35-1 65 20 72 47 54 227 117 445 163 680 64-229 138-454 200-682 17-61 107-44 180-46 35-1 63 20 71 46 63 226 132 456 192 683 47-236 115-454 171-682 6-26 34-47 68-46h193L1210 0h-205c-23 0-39-15-48-44L793-596c-13-41-23-80-30-119-57 232-132 447-197 671-9 29-28 44-55 44H316" id="Z"/><path fill="#fff" d="M534-1012c240 0 371 147 371 387V0c-80-7-186 24-201-53l-22-66C598-47 516 18 362 15 183 12 73-75 73-255c0-177 142-239 303-283 75-20 169-31 281-34 9-142-26-239-155-239-97 0-149 37-209 70-49 27-108 2-128-33l-46-80c103-96 231-158 415-158zM316-268c-2 80 48 110 125 110 107 0 156-41 216-100v-160c-111 5-199 15-269 48-43 21-70 49-72 102" id="aa"/><path fill="#fff" d="M582-811c-92 1-152 44-204 95V0H124v-993c65 5 150-14 196 11 30 17 27 71 39 107 74-72 158-134 301-134 225 0 332 151 332 377V0H738v-632c0-109-49-180-156-179" id="ab"/><g id="g"><use transform="matrix(0.013020833333333334,0,0,0.013020833333333334,0,0)" xlink:href="#T"/><use transform="matrix(0.013020833333333334,0,0,0.013020833333333334,10.638020833333334,0)" xlink:href="#U"/><use transform="matrix(0.013020833333333334,0,0,0.013020833333333334,17.1875,0)" xlink:href="#V"/><use transform="matrix(0.013020833333333334,0,0,0.013020833333333334,26.106770833333336,0)" xlink:href="#W"/><use transform="matrix(0.013020833333333334,0,0,0.013020833333333334,39.53125,0)" xlink:href="#X"/><use transform="matrix(0.013020833333333334,0,0,0.013020833333333334,53.046875,0)" xlink:href="#Y"/><use transform="matrix(0.013020833333333334,0,0,0.013020833333333334,61.2109375,0)" xlink:href="#Z"/><use transform="matrix(0.013020833333333334,0,0,0.013020833333333334,80.79427083333333,0)" xlink:href="#aa"/><use transform="matrix(0.013020833333333334,0,0,0.013020833333333334,93.95833333333333,0)" xlink:href="#ab"/><use transform="matrix(0.013020833333333334,0,0,0.013020833333333334,108.26822916666664,0)" xlink:href="#X"/></g><filter id="f" filterUnits="objectBoundingBox" x="-.06" y="-.04" width="1.12" height="1.21"><feOffset result="offOut" in="SourceAlpha" dy="6"/><feGaussianBlur result="blurOut" in="offOut" stdDeviation="5"/><feColorMatrix result="colorOut" in="blurOut" values="0 0 0 0 0 0 0 0 0 0 0 0 0 0 0 0 0 0 0.5019607843137255 0"/><feBlend in="SourceGraphic" in2="colorOut"/></filter><path fill="#fff" d="M559-811c-82 0-133 41-177 88V0H128v-993c65 5 150-14 196 11 30 16 27 69 39 104 67-68 139-130 270-131 135-1 210 82 248 184 57-113 162-184 324-184 235 0 350 140 350 377V0h-254v-632c0-119-53-179-160-179-110 0-172 67-172 179V0H715v-632c1-120-46-179-156-179" id="ac"/><path fill="#fff" d="M615 15c-112 0-178-37-238-91v398H123V-993c65 5 149-11 197 11 31 24 28 81 42 121 74-81 161-151 314-151 265 0 360 229 360 508 0 232-93 399-248 480-52 26-109 39-173 39zm159-519c0-165-29-307-185-307-108 0-158 47-212 111v440c43 53 94 83 178 83 171 0 219-146 219-327" id="ad"/><path fill="#fff" d="M379-1437V0H125v-1437h254" id="ae"/><path fill="#fff" d="M836-149C753-51 641 15 467 15 259 15 147-118 88-282c-42-119-44-295-4-419 59-179 186-308 419-308 153 0 247 58 325 142-30 37-55 81-89 113-66 29-96-36-151-51-19-5-41-11-69-11-164 0-199 147-204 317-6 202 85 372 277 308 37-12 60-40 86-61 24-21 64-16 84 9" id="af"/><path fill="#fff" d="M352-974c116-47 283-48 399 0 177 72 288 230 288 475 0 247-110 405-288 478-116 48-283 48-399 0C173-94 62-251 62-499c0-246 112-403 290-475zm-28 477c0 189 54 318 228 318 172 0 225-131 225-318s-53-318-225-318c-174 0-228 130-228 318" id="ag"/><path fill="#fff" d="M439 15c-225-4-332-150-332-377v-631h254v631c0 110 48 181 156 180 91-1 152-46 204-95v-716h254V0c-65-5-152 14-197-12-30-17-26-70-39-106C664-46 580 18 439 15" id="ah"/><path fill="#fff" d="M483-1012c112 0 179 37 238 92v-517h254V0H818c-73 2-64-82-83-135C661-54 570 15 422 15 157 15 63-214 63-494c0-232 92-397 247-478 52-26 110-40 173-40zM325-494c0 166 29 308 186 308 106 0 161-51 210-111v-438c-43-55-93-85-178-85-170 0-218 146-218 326" id="ai"/><g id="h"><use transform="matrix(0.013020833333333334,0,0,0.013020833333333334,0,0)" xlink:href="#ac"/><use transform="matrix(0.013020833333333334,0,0,0.013020833333333334,21.692708333333336,0)" xlink:href="#ad"/><use transform="matrix(0.013020833333333334,0,0,0.013020833333333334,36.00260416666667,0)" xlink:href="#ae"/><use transform="matrix(0.013020833333333334,0,0,0.013020833333333334,42.552083333333336,0)" xlink:href="#T"/><use transform="matrix(0.013020833333333334,0,0,0.013020833333333334,53.19010416666667,0)" xlink:href="#Y"/><use transform="matrix(0.013020833333333334,0,0,0.013020833333333334,61.35416666666667,0)" xlink:href="#af"/><use transform="matrix(0.013020833333333334,0,0,0.013020833333333334,72.51302083333334,0)" xlink:href="#ae"/><use transform="matrix(0.013020833333333334,0,0,0.013020833333333334,79.06250000000001,0)" xlink:href="#ag"/><use transform="matrix(0.013020833333333334,0,0,0.013020833333333334,93.39843750000001,0)" xlink:href="#ah"/><use transform="matrix(0.013020833333333334,0,0,0.013020833333333334,107.70833333333334,0)" xlink:href="#ai"/></g><g id="i"><use transform="matrix(0.013020833333333334,0,0,0.013020833333333334,0,0)" xlink:href="#U"/><use transform="matrix(0.013020833333333334,0,0,0.013020833333333334,6.549479166666667,0)" xlink:href="#ab"/><use transform="matrix(0.013020833333333334,0,0,0.013020833333333334,20.859375,0)" xlink:href="#W"/><use transform="matrix(0.013020833333333334,0,0,0.013020833333333334,34.1015625,0)" xlink:href="#V"/><use transform="matrix(0.013020833333333334,0,0,0.013020833333333334,42.6953125,0)" xlink:href="#Y"/><use transform="matrix(0.013020833333333334,0,0,0.013020833333333334,50.859375,0)" xlink:href="#af"/><use transform="matrix(0.013020833333333334,0,0,0.013020833333333334,62.01822916666667,0)" xlink:href="#ae"/><use transform="matrix(0.013020833333333334,0,0,0.013020833333333334,68.56770833333334,0)" xlink:href="#ag"/><use transform="matrix(0.013020833333333334,0,0,0.013020833333333334,82.90364583333334,0)" xlink:href="#ah"/><use transform="matrix(0.013020833333333334,0,0,0.013020833333333334,97.21354166666667,0)" xlink:href="#ai"/></g><path fill="#fff" d="M562-1233c-141 0-169 100-160 247h230v180H410V0H156v-806c-55-15-135-9-136-77v-103h136c-14-277 106-437 363-437 48 0 83 7 122 18l-6 127c-1 39-36 45-73 45" id="aj"/><g id="j"><use transform="matrix(0.013020833333333334,0,0,0.013020833333333334,0,0)" xlink:href="#ad"/><use transform="matrix(0.013020833333333334,0,0,0.013020833333333334,14.166666666666668,0)" xlink:href="#aj"/><use transform="matrix(0.013020833333333334,0,0,0.013020833333333334,22.604166666666668,0)" xlink:href="#X"/></g><path fill="#fff" d="M89-955c40-238 181-388 449-388 250 0 409 134 409 381 0 232-139 347-258 472L407-195c126-46 310-24 475-29 49-1 86 32 85 80V0H69c-2-76 0-138 43-180 161-160 326-321 472-494 63-74 110-153 115-281 6-143-107-217-242-175-61 19-100 69-121 131-19 56-46 79-119 66" id="ak"/><g id="k"><use transform="matrix(0.013020833333333334,0,0,0.013020833333333334,0,0)" xlink:href="#ad"/><use transform="matrix(0.013020833333333334,0,0,0.013020833333333334,14.166666666666668,0)" xlink:href="#aj"/><use transform="matrix(0.013020833333333334,0,0,0.013020833333333334,22.604166666666668,0)" xlink:href="#ak"/></g><path fill="#979ea8" d="M275 0h-61l-44-196L126 0H64L0-248h53L97-49l45-199h58l43 199 44-199h52" id="al"/><path fill="#979ea8" d="M199 0l-22-63H83L61 0H9l90-248h61L250 0h-51zm-33-102l-36-108c-10 38-24 72-36 108h72" id="am"/><path fill="#979ea8" d="M175 0L67-191c6 58 2 128 3 191H24v-248h59L193-55c-6-58-2-129-3-193h46V0h-61" id="an"/><g id="l"><use transform="matrix(0.08024691358024691,0,0,0.08024691358024691,0,0)" xlink:href="#al"/><use transform="matrix(0.08024691358024691,0,0,0.08024691358024691,25.598765432098762,0)" xlink:href="#am"/><use transform="matrix(0.08024691358024691,0,0,0.08024691358024691,46.382716049382715,0)" xlink:href="#an"/></g><path fill="#fff" d="M619 15c-128 0-198-56-256-127-11 50-5 112-70 112H124v-1437h254v561c71-71 156-133 289-133 266 0 369 213 369 487 0 241-87 415-246 498-51 26-108 39-171 39zm155-527c0-166-35-299-195-299-102 0-149 49-201 111v438c43 54 92 85 176 85 177 0 220-149 220-335" id="ao"/><path fill="#fff" d="M545-767c-109 4-148 72-181 151V0H110v-993c66 5 161-12 204 14 28 28 23 102 33 150 53-94 116-183 244-183 43 0 79 10 107 31l-19 190c-6 59-87 22-134 24" id="ap"/><g id="m"><use transform="matrix(0.013020833333333334,0,0,0.013020833333333334,0,0)" xlink:href="#T"/><use transform="matrix(0.013020833333333334,0,0,0.013020833333333334,10.638020833333334,0)" xlink:href="#U"/><use transform="matrix(0.013020833333333334,0,0,0.013020833333333334,17.1875,0)" xlink:href="#V"/><use transform="matrix(0.013020833333333334,0,0,0.013020833333333334,26.106770833333336,0)" xlink:href="#W"/><use transform="matrix(0.013020833333333334,0,0,0.013020833333333334,39.53125,0)" xlink:href="#X"/><use transform="matrix(0.013020833333333334,0,0,0.013020833333333334,53.046875,0)" xlink:href="#Y"/><use transform="matrix(0.013020833333333334,0,0,0.013020833333333334,61.2109375,0)" xlink:href="#ao"/><use transform="matrix(0.013020833333333334,0,0,0.013020833333333334,75.52083333333333,0)" xlink:href="#ag"/><use transform="matrix(0.013020833333333334,0,0,0.013020833333333334,89.85677083333333,0)" xlink:href="#ap"/><use transform="matrix(0.013020833333333334,0,0,0.013020833333333334,99.01041666666667,0)" xlink:href="#ai"/><use transform="matrix(0.013020833333333334,0,0,0.013020833333333334,113.3203125,0)" xlink:href="#W"/><use transform="matrix(0.013020833333333334,0,0,0.013020833333333334,126.74479166666667,0)" xlink:href="#ap"/><use transform="matrix(0.013020833333333334,0,0,0.013020833333333334,136.22395833333334,0)" xlink:href="#X"/></g><g id="n"><use transform="matrix(0.013020833333333334,0,0,0.013020833333333334,0,0)" xlink:href="#T"/><use transform="matrix(0.013020833333333334,0,0,0.013020833333333334,10.638020833333334,0)" xlink:href="#U"/><use transform="matrix(0.013020833333333334,0,0,0.013020833333333334,17.1875,0)" xlink:href="#V"/><use transform="matrix(0.013020833333333334,0,0,0.013020833333333334,26.106770833333336,0)" xlink:href="#W"/><use transform="matrix(0.013020833333333334,0,0,0.013020833333333334,39.53125,0)" xlink:href="#X"/><use transform="matrix(0.013020833333333334,0,0,0.013020833333333334,53.046875,0)" xlink:href="#Y"/><use transform="matrix(0.013020833333333334,0,0,0.013020833333333334,61.2109375,0)" xlink:href="#ao"/><use transform="matrix(0.013020833333333334,0,0,0.013020833333333334,75.52083333333333,0)" xlink:href="#ag"/><use transform="matrix(0.013020833333333334,0,0,0.013020833333333334,89.85677083333333,0)" xlink:href="#ap"/><use transform="matrix(0.013020833333333334,0,0,0.013020833333333334,99.01041666666667,0)" xlink:href="#ai"/><use transform="matrix(0.013020833333333334,0,0,0.013020833333333334,113.3203125,0)" xlink:href="#W"/><use transform="matrix(0.013020833333333334,0,0,0.013020833333333334,126.74479166666667,0)" xlink:href="#ap"/><use transform="matrix(0.013020833333333334,0,0,0.013020833333333334,136.22395833333334,0)" xlink:href="#ak"/></g><use transform="matrix(0.06172839506172839,0,0,0.06172839506172839,0,0)" xlink:href="#L" id="o"/><g id="p"><use transform="matrix(0.013020833333333334,0,0,0.013020833333333334,0,0)" xlink:href="#T"/><use transform="matrix(0.013020833333333334,0,0,0.013020833333333334,10.638020833333334,0)" xlink:href="#U"/><use transform="matrix(0.013020833333333334,0,0,0.013020833333333334,17.1875,0)" xlink:href="#V"/><use transform="matrix(0.013020833333333334,0,0,0.013020833333333334,26.106770833333336,0)" xlink:href="#W"/><use transform="matrix(0.013020833333333334,0,0,0.013020833333333334,39.53125,0)" xlink:href="#ak"/><use transform="matrix(0.013020833333333334,0,0,0.013020833333333334,53.046875,0)" xlink:href="#Y"/><use transform="matrix(0.013020833333333334,0,0,0.013020833333333334,61.2109375,0)" xlink:href="#Z"/><use transform="matrix(0.013020833333333334,0,0,0.013020833333333334,80.79427083333333,0)" xlink:href="#aa"/><use transform="matrix(0.013020833333333334,0,0,0.013020833333333334,93.95833333333333,0)" xlink:href="#ab"/><use transform="matrix(0.013020833333333334,0,0,0.013020833333333334,108.26822916666664,0)" xlink:href="#X"/></g><g id="q"><use transform="matrix(0.013020833333333334,0,0,0.013020833333333334,0,0)" xlink:href="#T"/><use transform="matrix(0.013020833333333334,0,0,0.013020833333333334,10.638020833333334,0)" xlink:href="#U"/><use transform="matrix(0.013020833333333334,0,0,0.013020833333333334,17.1875,0)" xlink:href="#V"/><use transform="matrix(0.013020833333333334,0,0,0.013020833333333334,26.106770833333336,0)" xlink:href="#W"/><use transform="matrix(0.013020833333333334,0,0,0.013020833333333334,39.53125,0)" xlink:href="#ak"/><use transform="matrix(0.013020833333333334,0,0,0.013020833333333334,53.046875,0)" xlink:href="#Y"/><use transform="matrix(0.013020833333333334,0,0,0.013020833333333334,61.2109375,0)" xlink:href="#Z"/><use transform="matrix(0.013020833333333334,0,0,0.013020833333333334,80.79427083333333,0)" xlink:href="#aa"/><use transform="matrix(0.013020833333333334,0,0,0.013020833333333334,93.95833333333333,0)" xlink:href="#ab"/><use transform="matrix(0.013020833333333334,0,0,0.013020833333333334,108.26822916666664,0)" xlink:href="#ak"/></g><g id="r"><use transform="matrix(0.013020833333333334,0,0,0.013020833333333334,0,0)" xlink:href="#T"/><use transform="matrix(0.013020833333333334,0,0,0.013020833333333334,10.638020833333334,0)" xlink:href="#U"/><use transform="matrix(0.013020833333333334,0,0,0.013020833333333334,17.1875,0)" xlink:href="#V"/><use transform="matrix(0.013020833333333334,0,0,0.013020833333333334,26.106770833333336,0)" xlink:href="#W"/><use transform="matrix(0.013020833333333334,0,0,0.013020833333333334,39.53125,0)" xlink:href="#ak"/><use transform="matrix(0.013020833333333334,0,0,0.013020833333333334,53.046875,0)" xlink:href="#Y"/><use transform="matrix(0.013020833333333334,0,0,0.013020833333333334,61.2109375,0)" xlink:href="#ae"/><use transform="matrix(0.013020833333333334,0,0,0.013020833333333334,67.76041666666667,0)" xlink:href="#W"/><use transform="matrix(0.013020833333333334,0,0,0.013020833333333334,81.18489583333334,0)" xlink:href="#aa"/><use transform="matrix(0.013020833333333334,0,0,0.013020833333333334,94.20572916666667,0)" xlink:href="#aj"/><use transform="matrix(0.013020833333333334,0,0,0.013020833333333334,102.64322916666667,0)" xlink:href="#X"/></g><g id="s"><use transform="matrix(0.013020833333333334,0,0,0.013020833333333334,0,0)" xlink:href="#T"/><use transform="matrix(0.013020833333333334,0,0,0.013020833333333334,10.638020833333334,0)" xlink:href="#U"/><use transform="matrix(0.013020833333333334,0,0,0.013020833333333334,17.1875,0)" xlink:href="#V"/><use transform="matrix(0.013020833333333334,0,0,0.013020833333333334,26.106770833333336,0)" xlink:href="#W"/><use transform="matrix(0.013020833333333334,0,0,0.013020833333333334,39.53125,0)" xlink:href="#ak"/><use transform="matrix(0.013020833333333334,0,0,0.013020833333333334,53.046875,0)" xlink:href="#Y"/><use transform="matrix(0.013020833333333334,0,0,0.013020833333333334,61.2109375,0)" xlink:href="#ae"/><use transform="matrix(0.013020833333333334,0,0,0.013020833333333334,67.76041666666667,0)" xlink:href="#W"/><use transform="matrix(0.013020833333333334,0,0,0.013020833333333334,81.18489583333334,0)" xlink:href="#aa"/><use transform="matrix(0.013020833333333334,0,0,0.013020833333333334,94.20572916666667,0)" xlink:href="#aj"/><use transform="matrix(0.013020833333333334,0,0,0.013020833333333334,102.64322916666667,0)" xlink:href="#ak"/></g><use transform="matrix(0.06172839506172839,0,0,0.06172839506172839,0,0)" xlink:href="#S" id="t"/><g id="u"><use transform="matrix(0.06172839506172839,0,0,0.06172839506172839,0,0)" xlink:href="#R"/><use transform="matrix(0.06172839506172839,0,0,0.06172839506172839,13.518518518518517,0)" xlink:href="#L"/><use transform="matrix(0.06172839506172839,0,0,0.06172839506172839,25.864197530864196,0)" xlink:href="#R"/><use transform="matrix(0.06172839506172839,0,0,0.06172839506172839,39.382716049382715,0)" xlink:href="#N"/></g><path fill="#fff" d="M113-955c38-239 181-388 448-388 186 0 310 81 369 209 18 42 27 87 27 134 1 168-77 256-203 297 151 51 227 154 227 307C981-126 800 8 532 14 260 20 143-131 76-338c63-25 186-102 236-14 46 82 93 164 218 164 130 0 203-76 210-200 9-175-112-206-288-206v-171c158-2 269-37 269-193 0-117-60-182-173-183-99-1-165 67-190 142-19 57-44 79-118 66" id="aq"/><g id="v"><use transform="matrix(0.013020833333333334,0,0,0.013020833333333334,0,0)" xlink:href="#T"/><use transform="matrix(0.013020833333333334,0,0,0.013020833333333334,10.638020833333334,0)" xlink:href="#U"/><use transform="matrix(0.013020833333333334,0,0,0.013020833333333334,17.1875,0)" xlink:href="#V"/><use transform="matrix(0.013020833333333334,0,0,0.013020833333333334,26.106770833333336,0)" xlink:href="#W"/><use transform="matrix(0.013020833333333334,0,0,0.013020833333333334,39.53125,0)" xlink:href="#aq"/><use transform="matrix(0.013020833333333334,0,0,0.013020833333333334,53.046875,0)" xlink:href="#Y"/><use transform="matrix(0.013020833333333334,0,0,0.013020833333333334,61.2109375,0)" xlink:href="#Z"/><use transform="matrix(0.013020833333333334,0,0,0.013020833333333334,80.79427083333333,0)" xlink:href="#aa"/><use transform="matrix(0.013020833333333334,0,0,0.013020833333333334,93.95833333333333,0)" xlink:href="#ab"/><use transform="matrix(0.013020833333333334,0,0,0.013020833333333334,108.26822916666664,0)" xlink:href="#X"/></g><g id="w"><use transform="matrix(0.013020833333333334,0,0,0.013020833333333334,0,0)" xlink:href="#T"/><use transform="matrix(0.013020833333333334,0,0,0.013020833333333334,10.638020833333334,0)" xlink:href="#U"/><use transform="matrix(0.013020833333333334,0,0,0.013020833333333334,17.1875,0)" xlink:href="#V"/><use transform="matrix(0.013020833333333334,0,0,0.013020833333333334,26.106770833333336,0)" xlink:href="#W"/><use transform="matrix(0.013020833333333334,0,0,0.013020833333333334,39.53125,0)" xlink:href="#aq"/><use transform="matrix(0.013020833333333334,0,0,0.013020833333333334,53.046875,0)" xlink:href="#Y"/><use transform="matrix(0.013020833333333334,0,0,0.013020833333333334,61.2109375,0)" xlink:href="#ae"/><use transform="matrix(0.013020833333333334,0,0,0.013020833333333334,67.76041666666667,0)" xlink:href="#W"/><use transform="matrix(0.013020833333333334,0,0,0.013020833333333334,81.18489583333334,0)" xlink:href="#aa"/><use transform="matrix(0.013020833333333334,0,0,0.013020833333333334,94.20572916666667,0)" xlink:href="#aj"/><use transform="matrix(0.013020833333333334,0,0,0.013020833333333334,102.64322916666667,0)" xlink:href="#X"/></g><path d="M113-955c38-239 181-388 448-388 186 0 310 81 369 209 18 42 27 87 27 134 1 168-77 256-203 297 151 51 227 154 227 307C981-126 800 8 532 14 260 20 143-131 76-338c63-25 186-102 236-14 46 82 93 164 218 164 130 0 203-76 210-200 9-175-112-206-288-206v-171c158-2 269-37 269-193 0-117-60-182-173-183-99-1-165 67-190 142-19 57-44 79-118 66" id="ar"/><use transform="matrix(0.008680555555555554,0,0,0.008680555555555554,0,0)" xlink:href="#ar" id="x"/><path d="M463-670c-69 0-128 14-183 34l-149-41 108-651h650v101c-3 78-52 116-142 116H407l-44 261c53-11 103-16 152-16 263 0 419 147 419 406 0 232-122 371-292 440-125 51-309 39-418-14-62-30-119-68-165-112l74-102c44-65 117-14 161 14 42 27 94 49 166 47 158-4 231-103 233-261 2-143-84-223-230-222" id="as"/><use transform="matrix(0.008680555555555554,0,0,0.008680555555555554,0,0)" xlink:href="#as" id="y"/><path d="M456-845c80-38 203-43 294-6 146 60 243 188 243 393 0 223-117 364-277 436-109 49-273 49-382 1C168-93 67-246 67-479c0-175 67-295 150-418l300-442c25-33 77-59 136-59h226c-141 184-282 368-423 553zm64 158c-139 0-209 104-209 247 0 149 63 249 209 249 141 0 219-103 219-248 0-149-72-248-219-248" id="at"/><use transform="matrix(0.008680555555555554,0,0,0.008680555555555554,0,0)" xlink:href="#at" id="z"/><path d="M137-1111c-27 1-55-27-55-55v-162h902c1 84-3 171-29 226L478-82C454-38 420 0 351 0H175l488-997c23-44 44-80 76-114H137" id="au"/><use transform="matrix(0.008680555555555554,0,0,0.008680555555555554,0,0)" xlink:href="#au" id="A"/><path d="M236-180h257c2-279-3-565 3-840L323-871c-27 30-91 18-110-9l-76-104 399-346h198v1150h227V0H236v-180" id="av"/><use transform="matrix(0.008680555555555554,0,0,0.008680555555555554,0,0)" xlink:href="#av" id="B"/><path d="M89-955c40-238 181-388 449-388 250 0 409 134 409 381 0 232-139 347-258 472L407-195c126-46 310-24 475-29 49-1 86 32 85 80V0H69c-2-76 0-138 43-180 161-160 326-321 472-494 63-74 110-153 115-281 6-143-107-217-242-175-61 19-100 69-121 131-19 56-46 79-119 66" id="aw"/><use transform="matrix(0.008680555555555554,0,0,0.008680555555555554,0,0)" xlink:href="#aw" id="C"/><path d="M977-395c0 272-183 410-458 410S61-123 61-395c0-179 82-285 228-334-115-51-185-151-185-308 0-185 109-293 248-348 99-39 235-39 334 0 140 55 248 162 248 348 0 158-70 257-186 308 146 49 229 155 229 334zm-654-4c0 133 63 217 196 217s196-84 196-217c0-142-55-224-196-224-140 0-196 84-196 224zm28-633c0 123 44 210 168 210 123 0 168-87 168-210 0-114-53-191-168-191s-168 77-168 191" id="ax"/><use transform="matrix(0.008680555555555554,0,0,0.008680555555555554,0,0)" xlink:href="#ax" id="D"/><path d="M1007-505c-9 70 29 185-49 186H854V0H644v-319H105c-83-4-69-108-90-173l609-837h230v824h153zm-363 0c3-182-8-376 8-546L269-505h375" id="ay"/><use transform="matrix(0.008680555555555554,0,0,0.008680555555555554,0,0)" xlink:href="#ay" id="E"/></defs></g></svg>