<svg xmlns="http://www.w3.org/2000/svg" xmlns:xlink="http://www.w3.org/1999/xlink" xmlns:lucid="lucid" width="1513" height="545.62"><g transform="translate(-138.5 -1711.8333333333333)" lucid:page-tab-id="O6WQJnHJyIpF"><path d="M160 1739.33a6 6 0 0 1 6-6h1458a6 6 0 0 1 6 6v490.62a6 6 0 0 1-6 6H166a6 6 0 0 1-6-6z" stroke="#979ea8" stroke-width="3" fill="#979ea8"/><use xlink:href="#a" transform="matrix(1,0,0,1,165,1738.3333333333333) translate(690.9635416666666 19.999999999999996)"/><path d="M180 1770.64a6 6 0 0 1 6-6h1418a6 6 0 0 1 6 6v428a6 6 0 0 1-6 6H186a6 6 0 0 1-6-6z" stroke="#ced4db" stroke-width="3" fill="#ced4db"/><use xlink:href="#b" transform="matrix(1,0,0,1,185,1769.643054072373) translate(677.8450520833334 18.33333333333333)"/><path d="M792.6 1806.35a6 6 0 0 1 6-6h192.67a6 6 0 0 1 6 6v372.3a6 6 0 0 1-6 6H798.6a6 6 0 0 1-6-6z" stroke="#f2f3f5" stroke-width="3" fill="#f2f3f5"/><use xlink:href="#c" transform="matrix(1,0,0,1,797.5955966722807,1805.3474582540098) translate(1.4550781250000284 16.66666666666666)"/><path d="M1076.36 1806.35a6 6 0 0 1 6-6h192.67a6 6 0 0 1 6 6v372.3a6 6 0 0 1-6 6h-192.67a6 6 0 0 1-6-6z" stroke="#fff0fb" stroke-width="3" fill="#fff0fb"/><use xlink:href="#d" transform="matrix(1,0,0,1,1081.358330865955,1805.3474582540098) translate(8.052300347222243 16.66666666666666)"/><path d="M508.83 1806.35a6 6 0 0 1 6-6H707.5a6 6 0 0 1 6 6v372.3a6 6 0 0 1-6 6H514.83a6 6 0 0 1-6-6z" stroke="#fff0fb" stroke-width="3" fill="#fff0fb"/><use xlink:href="#d" transform="matrix(1,0,0,1,513.8328624786066,1805.3474582540096) translate(8.052300347222243 16.66666666666666)"/><path d="M1390 1806.35a6 6 0 0 1 6-6h192.67a6 6 0 0 1 6 6v372.3a6 6 0 0 1-6 6H1396a6 6 0 0 1-6-6z" stroke="#e3fae3" stroke-width="3" fill="#e3fae3"/><use xlink:href="#e" transform="matrix(1,0,0,1,1395,1805.3474582540096) translate(-0.23220486111108585 16.66666666666666)"/><use xlink:href="#f" transform="matrix(1,0,0,1,1395,1805.3474582540096) translate(1.178385416666714 38.88888888888887)"/><g filter="url(#g)"><path d="M526.35 1853.55a.5.5 0 0 1 .5-.5H695.5a.5.5 0 0 1 .5.5v93.4a.5.5 0 0 1-.5.5H526.84a.5.5 0 0 1-.5-.5z" fill="#fff" fill-opacity="0"/><path d="M526.85 1853.05a.5.5 0 0 0-.5.5v93.4a.5.5 0 0 0 .5.5H695.5a.5.5 0 0 0 .5-.5v-93.4a.5.5 0 0 0-.5-.5z" stroke="#315796" stroke-width="3" fill="#315796"/><use xlink:href="#h" transform="matrix(1,0,0,1,536.187778668477,1864.0918489659791) translate(61.14583333333333 43.166666666666664)"/></g><g filter="url(#g)"><path d="M526.35 2056.12a.5.5 0 0 1 .5-.5H695.5a.5.5 0 0 1 .5.5v93.42a.5.5 0 0 1-.5.5H526.84a.5.5 0 0 1-.5-.5z" fill="#fff" fill-opacity="0"/><path d="M526.85 2055.62a.5.5 0 0 0-.5.5v93.42a.5.5 0 0 0 .5.5H695.5a.5.5 0 0 0 .5-.5v-93.42a.5.5 0 0 0-.5-.5z" stroke="#315796" stroke-width="3" fill="#315796"/><use xlink:href="#i" transform="matrix(1,0,0,1,536.187778668477,2066.6672524552487) translate(55.1171875 43.166666666666664)"/><use xlink:href="#j" transform="matrix(1,0,0,1,536.187778668477,2066.6672524552487) translate(67.17447916666667 43.166666666666664)"/></g><path d="M193.87 1806.35a6 6 0 0 1 6-6h192.67a6 6 0 0 1 6 6v372.3a6 6 0 0 1-6 6H199.87a6 6 0 0 1-6-6z" stroke="#e3fae3" stroke-width="3" fill="#e3fae3"/><use xlink:href="#e" transform="matrix(1,0,0,1,198.87421283415847,1805.3474582540098) translate(-0.23220486111108585 16.66666666666666)"/><use xlink:href="#f" transform="matrix(1,0,0,1,198.87421283415847,1805.3474582540098) translate(1.178385416666714 38.88888888888887)"/><g filter="url(#g)"><path d="M211.4 2056.12a.5.5 0 0 1 .5-.5h168.63a.5.5 0 0 1 .5.5v93.42a.5.5 0 0 1-.5.5H211.9a.5.5 0 0 1-.5-.5z" fill="#fff" fill-opacity="0"/><path d="M211.9 2055.62a.5.5 0 0 0-.5.5v93.42a.5.5 0 0 0 .5.5h168.63a.5.5 0 0 0 .5-.5v-93.42a.5.5 0 0 0-.5-.5z" stroke="#315796" stroke-width="3" fill="#315796"/><use xlink:href="#k" transform="matrix(1,0,0,1,221.22912902402885,2066.6672524552487) translate(54.64192708333333 43.166666666666664)"/></g><g filter="url(#g)"><path d="M211.4 1853.55a.5.5 0 0 1 .5-.5h168.63a.5.5 0 0 1 .5.5v93.4a.5.5 0 0 1-.5.5H211.9a.5.5 0 0 1-.5-.5z" fill="#fff" fill-opacity="0"/><path d="M211.9 1853.05a.5.5 0 0 0-.5.5v93.4a.5.5 0 0 0 .5.5h168.63a.5.5 0 0 0 .5-.5v-93.4a.5.5 0 0 0-.5-.5z" stroke="#315796" stroke-width="3" fill="#315796"/><use xlink:href="#l" transform="matrix(1,0,0,1,221.22912902402885,1864.0918489659791) translate(54.64192708333333 43.166666666666664)"/></g><g filter="url(#g)"><path d="M810.1 1853.55a.5.5 0 0 1 .5-.5h168.65a.5.5 0 0 1 .5.5v93.4a.5.5 0 0 1-.5.5H810.6a.5.5 0 0 1-.5-.5z" fill="#fff" fill-opacity="0"/><path d="M810.6 1853.05a.5.5 0 0 0-.5.5v93.4a.5.5 0 0 0 .5.5h168.65a.5.5 0 0 0 .5-.5v-93.4a.5.5 0 0 0-.5-.5z" stroke="#315796" stroke-width="3" fill="#315796"/><use xlink:href="#m" transform="matrix(1,0,0,1,819.9505128621511,1864.0918489659791) translate(53.229166666666664 43.166666666666664)"/></g><g filter="url(#g)"><path d="M1093.87 1853.55a.5.5 0 0 1 .5-.5H1263a.5.5 0 0 1 .5.5v93.4a.5.5 0 0 1-.5.5h-168.63a.5.5 0 0 1-.5-.5z" fill="#fff" fill-opacity="0"/><path d="M1094.37 1853.05a.5.5 0 0 0-.5.5v93.4a.5.5 0 0 0 .5.5H1263a.5.5 0 0 0 .5-.5v-93.4a.5.5 0 0 0-.5-.5z" stroke="#315796" stroke-width="3" fill="#315796"/><use xlink:href="#n" transform="matrix(1,0,0,1,1103.7132470558256,1864.0918489659791) translate(61.14583333333333 43.166666666666664)"/></g><g filter="url(#g)"><path d="M1093.87 2048.06a.5.5 0 0 1 .5-.5H1263a.5.5 0 0 1 .5.5v93.4a.5.5 0 0 1-.5.5h-168.63a.5.5 0 0 1-.5-.5z" fill="#fff" fill-opacity="0"/><path d="M1094.37 2047.56a.5.5 0 0 0-.5.5v93.4a.5.5 0 0 0 .5.5H1263a.5.5 0 0 0 .5-.5v-93.4a.5.5 0 0 0-.5-.5z" stroke="#315796" stroke-width="3" fill="#315796"/><use xlink:href="#o" transform="matrix(1,0,0,1,1103.7132470558256,2058.6032372267246) translate(61.14583333333333 43.166666666666664)"/></g><g filter="url(#g)"><path d="M1411.4 1953.64a.5.5 0 0 1 .5-.5h168.63a.5.5 0 0 1 .5.5v93.42a.5.5 0 0 1-.5.5H1411.9a.5.5 0 0 1-.5-.5z" fill="#fff" fill-opacity="0"/><path d="M1411.9 1953.14a.5.5 0 0 0-.5.5v93.42a.5.5 0 0 0 .5.5h168.63a.5.5 0 0 0 .5-.5v-93.42a.5.5 0 0 0-.5-.5z" stroke="#315796" stroke-width="3" fill="#315796"/><use xlink:href="#p" transform="matrix(1,0,0,1,1421.2291290240275,1964.1854431056302) translate(54.64192708333333 43.166666666666664)"/></g><g filter="url(#g)"><path d="M810.1 2055.46a.5.5 0 0 1 .5-.5h168.65a.5.5 0 0 1 .5.5v93.42a.5.5 0 0 1-.5.5H810.6a.5.5 0 0 1-.5-.5z" fill="#fff" fill-opacity="0"/><path d="M810.6 2054.96a.5.5 0 0 0-.5.5v93.42a.5.5 0 0 0 .5.5h168.65a.5.5 0 0 0 .5-.5v-93.42a.5.5 0 0 0-.5-.5z" stroke="#315796" stroke-width="3" fill="#315796"/><use xlink:href="#q" transform="matrix(1,0,0,1,819.9505128621511,2066.0076401847336) translate(53.229166666666664 43.166666666666664)"/></g><path d="M611.17 1965.47v73.03" stroke="#5e5e5e" stroke-width="3" fill="none"/><path d="M612.64 1965.5h-2.95v-1.53h2.94zM612.64 2040h-2.95v-1.54h2.94z" stroke="#5e5e5e" stroke-width=".05" fill="#5e5e5e"/><path d="M592.17 1940.5a.5.5 0 0 1 .5-.5h37a.5.5 0 0 1 .5.5v22.97a.5.5 0 0 1-.5.5h-37a.5.5 0 0 1-.5-.5z" fill="#fff" fill-opacity="0"/><path d="M592.67 1940.97a.5.5 0 0 0-.5.5v21.03a.5.5 0 0 0 .5.5h37a.5.5 0 0 0 .5-.5v-21.03a.5.5 0 0 0-.5-.5z" stroke="#5e5e5e" fill="#fff"/><use xlink:href="#r" transform="matrix(1,0,0,1,606.5701954367116,1940) translate(0.49479166666666696 16.444444444444443)"/><path d="M592.17 2040.5a.5.5 0 0 1 .5-.5h37a.5.5 0 0 1 .5.5v22.97a.5.5 0 0 1-.5.5h-37a.5.5 0 0 1-.5-.5z" fill="#fff" fill-opacity="0"/><path d="M592.67 2040.97a.5.5 0 0 0-.5.5v21.03a.5.5 0 0 0 .5.5h37a.5.5 0 0 0 .5-.5v-21.03a.5.5 0 0 0-.5-.5z" stroke="#5e5e5e" fill="#fff"/><use xlink:href="#r" transform="matrix(1,0,0,1,606.5701954367116,2040) translate(0.49479166666666696 16.444444444444443)"/><path d="M896.2 1965.47v73.03" stroke="#5e5e5e" stroke-width="3" fill="none"/><path d="M897.68 1965.5h-2.95v-1.53h2.95zM897.68 2040h-2.95v-1.54h2.95z" stroke="#5e5e5e" stroke-width=".05" fill="#5e5e5e"/><path d="M715.5 1900.25h75.1" stroke="#5e5e5e" stroke-width="3" fill="none"/><path d="M715.54 1901.73H714v-2.95h1.54zM792.1 1901.73h-1.54v-2.95h1.54z" stroke="#5e5e5e" stroke-width=".05" fill="#5e5e5e"/><path d="M715.5 2102.83h75.1" stroke="#5e5e5e" stroke-width="3" fill="none"/><path d="M715.54 2104.3H714v-2.95h1.54zM792.1 2104.3h-1.54v-2.95h1.54z" stroke="#5e5e5e" stroke-width=".05" fill="#5e5e5e"/><path d="M999.27 1900.25h75.1" stroke="#5e5e5e" stroke-width="3" fill="none"/><path d="M999.3 1901.73h-1.53v-2.95h1.53zM1075.86 1901.73h-1.54v-2.95h1.54z" stroke="#5e5e5e" stroke-width=".05" fill="#5e5e5e"/><path d="M999.27 2102.83h75.1" stroke="#5e5e5e" stroke-width="3" fill="none"/><path d="M999.3 2104.3h-1.53v-2.95h1.53zM1075.86 2104.3h-1.54v-2.95h1.54z" stroke="#5e5e5e" stroke-width=".05" fill="#5e5e5e"/><path d="M675.5 2091.34a.5.5 0 0 1 .5-.5h37a.5.5 0 0 1 .5.5v22.97a.5.5 0 0 1-.5.5h-37a.5.5 0 0 1-.5-.5z" fill="#fff" fill-opacity="0"/><path d="M676 2091.8a.5.5 0 0 0-.5.5v21.04a.5.5 0 0 0 .5.5h37a.5.5 0 0 0 .5-.5v-21.03a.5.5 0 0 0-.5-.5z" stroke="#5e5e5e" fill="#fff"/><use xlink:href="#s" transform="matrix(1,0,0,1,689.9061249542347,2090.844892603628) translate(0.49479166666666696 16.444444444444443)"/><path d="M792.6 2091.34a.5.5 0 0 1 .5-.5h37a.5.5 0 0 1 .5.5v22.97a.5.5 0 0 1-.5.5h-37a.5.5 0 0 1-.5-.5z" fill="#fff" fill-opacity="0"/><path d="M793.1 2091.8a.5.5 0 0 0-.5.5v21.04a.5.5 0 0 0 .5.5h37a.5.5 0 0 0 .5-.5v-21.03a.5.5 0 0 0-.5-.5z" stroke="#5e5e5e" fill="#fff"/><use xlink:href="#s" transform="matrix(1,0,0,1,806.9970001128628,2090.844892603628) translate(0.49479166666666696 16.444444444444443)"/><path d="M675.5 1888.77a.5.5 0 0 1 .5-.5h37a.5.5 0 0 1 .5.5v22.97a.5.5 0 0 1-.5.5h-37a.5.5 0 0 1-.5-.5z" fill="#fff" fill-opacity="0"/><path d="M676 1889.24a.5.5 0 0 0-.5.5v21.03a.5.5 0 0 0 .5.5h37a.5.5 0 0 0 .5-.5v-21.03a.5.5 0 0 0-.5-.5z" stroke="#5e5e5e" fill="#fff"/><use xlink:href="#s" transform="matrix(1,0,0,1,689.9061249542347,1888.2694891143585) translate(0.49479166666666696 16.444444444444443)"/><path d="M792.6 1888.77a.5.5 0 0 1 .5-.5h37a.5.5 0 0 1 .5.5v22.97a.5.5 0 0 1-.5.5h-37a.5.5 0 0 1-.5-.5z" fill="#fff" fill-opacity="0"/><path d="M793.1 1889.24a.5.5 0 0 0-.5.5v21.03a.5.5 0 0 0 .5.5h37a.5.5 0 0 0 .5-.5v-21.03a.5.5 0 0 0-.5-.5z" stroke="#5e5e5e" fill="#fff"/><use xlink:href="#s" transform="matrix(1,0,0,1,806.9970001128628,1888.2694891143583) translate(0.49479166666666696 16.444444444444443)"/><path d="M959.27 1888.77a.5.5 0 0 1 .5-.5h37a.5.5 0 0 1 .5.5v22.97a.5.5 0 0 1-.5.5h-37a.5.5 0 0 1-.5-.5z" fill="#fff" fill-opacity="0"/><path d="M959.77 1889.24a.5.5 0 0 0-.5.5v21.03a.5.5 0 0 0 .5.5h37a.5.5 0 0 0 .5-.5v-21.03a.5.5 0 0 0-.5-.5z" stroke="#5e5e5e" fill="#fff"/><use xlink:href="#t" transform="matrix(1,0,0,1,973.6688591479088,1888.2694891143585) translate(0.49479166666666696 16.444444444444443)"/><path d="M1076.36 1888.77a.5.5 0 0 1 .5-.5h37a.5.5 0 0 1 .5.5v22.97a.5.5 0 0 1-.5.5h-37a.5.5 0 0 1-.5-.5z" fill="#fff" fill-opacity="0"/><path d="M1076.86 1889.24a.5.5 0 0 0-.5.5v21.03a.5.5 0 0 0 .5.5h37a.5.5 0 0 0 .5-.5v-21.03a.5.5 0 0 0-.5-.5z" stroke="#5e5e5e" fill="#fff"/><use xlink:href="#t" transform="matrix(1,0,0,1,1090.759734306537,1888.2694891143585) translate(0.49479166666666696 16.444444444444443)"/><path d="M959.27 2091.34a.5.5 0 0 1 .5-.5h37a.5.5 0 0 1 .5.5v22.97a.5.5 0 0 1-.5.5h-37a.5.5 0 0 1-.5-.5z" fill="#fff" fill-opacity="0"/><path d="M959.77 2091.8a.5.5 0 0 0-.5.5v21.04a.5.5 0 0 0 .5.5h37a.5.5 0 0 0 .5-.5v-21.03a.5.5 0 0 0-.5-.5z" stroke="#5e5e5e" fill="#fff"/><use xlink:href="#t" transform="matrix(1,0,0,1,973.6688591479088,2090.844892603628) translate(0.49479166666666696 16.444444444444443)"/><path d="M1076.36 2091.34a.5.5 0 0 1 .5-.5h37a.5.5 0 0 1 .5.5v22.97a.5.5 0 0 1-.5.5h-37a.5.5 0 0 1-.5-.5z" fill="#fff" fill-opacity="0"/><path d="M1076.86 2091.8a.5.5 0 0 0-.5.5v21.04a.5.5 0 0 0 .5.5h37a.5.5 0 0 0 .5-.5v-21.03a.5.5 0 0 0-.5-.5z" stroke="#5e5e5e" fill="#fff"/><use xlink:href="#t" transform="matrix(1,0,0,1,1090.759734306537,2090.844892603628) translate(0.49479166666666696 16.444444444444443)"/><path d="M1179 1965.47v80.6" stroke="#5e5e5e" stroke-width="3" fill="none"/><path d="M1180.47 1965.5h-2.95v-1.53h2.95zM1180.47 2047.56h-2.95v-1.54h2.95z" stroke="#5e5e5e" stroke-width=".05" fill="#5e5e5e"/><path d="M1160 1940.5a.5.5 0 0 1 .5-.5h37a.5.5 0 0 1 .5.5v22.97a.5.5 0 0 1-.5.5h-37a.5.5 0 0 1-.5-.5z" fill="#fff" fill-opacity="0"/><path d="M1160.5 1940.97a.5.5 0 0 0-.5.5v21.03a.5.5 0 0 0 .5.5h37a.5.5 0 0 0 .5-.5v-21.03a.5.5 0 0 0-.5-.5z" stroke="#5e5e5e" fill="#fff"/><use xlink:href="#r" transform="matrix(1,0,0,1,1174.401403440582,1940) translate(0.49479166666666696 16.444444444444443)"/><path d="M1160 2048.06a.5.5 0 0 1 .5-.5h37a.5.5 0 0 1 .5.5v22.97a.5.5 0 0 1-.5.5h-37a.5.5 0 0 1-.5-.5z" fill="#fff" fill-opacity="0"/><path d="M1160.5 2048.53a.5.5 0 0 0-.5.5v21.03a.5.5 0 0 0 .5.5h37a.5.5 0 0 0 .5-.5v-21.03a.5.5 0 0 0-.5-.5z" stroke="#5e5e5e" fill="#fff"/><use xlink:href="#r" transform="matrix(1,0,0,1,1174.401403440582,2047.5563553145566) translate(0.49479166666666696 16.444444444444443)"/><path d="M1243.03 1888.77a.5.5 0 0 1 .5-.5h37a.5.5 0 0 1 .5.5v22.97a.5.5 0 0 1-.5.5h-37a.5.5 0 0 1-.5-.5z" fill="#fff" fill-opacity="0"/><path d="M1243.53 1889.24a.5.5 0 0 0-.5.5v21.03a.5.5 0 0 0 .5.5h37a.5.5 0 0 0 .5-.5v-21.03a.5.5 0 0 0-.5-.5z" stroke="#5e5e5e" fill="#fff"/><use xlink:href="#u" transform="matrix(1,0,0,1,1257.4315933415833,1888.2694891143585) translate(0.49479166666666696 16.444444444444443)"/><path d="M1243.03 2083.28a.5.5 0 0 1 .5-.5h37a.5.5 0 0 1 .5.5v22.97a.5.5 0 0 1-.5.5h-37a.5.5 0 0 1-.5-.5z" fill="#fff" fill-opacity="0"/><path d="M1243.53 2083.75a.5.5 0 0 0-.5.5v21.03a.5.5 0 0 0 .5.5h37a.5.5 0 0 0 .5-.5v-21.03a.5.5 0 0 0-.5-.5z" stroke="#5e5e5e" fill="#fff"/><use xlink:href="#s" transform="matrix(1,0,0,1,1257.4315933415835,2082.780877375104) translate(0.49479166666666696 16.444444444444443)"/><path d="M877.2 2040.5a.5.5 0 0 1 .5-.5h37a.5.5 0 0 1 .5.5v22.97a.5.5 0 0 1-.5.5h-37a.5.5 0 0 1-.5-.5z" fill="#fff" fill-opacity="0"/><path d="M877.7 2040.97a.5.5 0 0 0-.5.5v21.03a.5.5 0 0 0 .5.5h37a.5.5 0 0 0 .5-.5v-21.03a.5.5 0 0 0-.5-.5z" stroke="#5e5e5e" fill="#fff"/><use xlink:href="#r" transform="matrix(1,0,0,1,891.6115457922637,2040) translate(0.49479166666666696 16.444444444444443)"/><path d="M877.2 1940.5a.5.5 0 0 1 .5-.5h37a.5.5 0 0 1 .5.5v22.97a.5.5 0 0 1-.5.5h-37a.5.5 0 0 1-.5-.5z" fill="#fff" fill-opacity="0"/><path d="M877.7 1940.97a.5.5 0 0 0-.5.5v21.03a.5.5 0 0 0 .5.5h37a.5.5 0 0 0 .5-.5v-21.03a.5.5 0 0 0-.5-.5z" stroke="#5e5e5e" fill="#fff"/><use xlink:href="#r" transform="matrix(1,0,0,1,891.6115457922637,1940) translate(0.49479166666666696 16.444444444444443)"/><path d="M390.3 1925.36l130.07 151.05" stroke="#5e5e5e" stroke-width="3" fill="none"/><path d="M391.44 1924.43l-2.23 1.92-1.83-2.13h3.9zM523.3 2077.54h-3.9l-.17-.2 2.23-1.93z" stroke="#5e5e5e" stroke-width=".05" fill="#5e5e5e"/><path d="M390.17 2077.06l129.05-151.7" stroke="#5e5e5e" stroke-width="3" fill="none"/><path d="M391.3 2078l-.17.2h-3.87l1.8-2.13zM520.32 1926.35l-2.25-1.9.2-.23h3.86z" stroke="#5e5e5e" stroke-width=".05" fill="#5e5e5e"/><path d="M400 2114.15h110.67" stroke="#5e5e5e" stroke-width="3" fill="none"/><path d="M400.04 2115.63h-1.54v-2.95h1.54zM512.17 2115.63h-1.54v-2.95h1.54z" stroke="#5e5e5e" stroke-width=".05" fill="#5e5e5e"/><path d="M400 1888.27h109.4" stroke="#5e5e5e" stroke-width="3" fill="none"/><path d="M400.04 1889.74h-1.54v-2.95h1.54zM510.9 1889.74h-1.55v-2.95h1.54z" stroke="#5e5e5e" stroke-width=".05" fill="#5e5e5e"/><path d="M1282.32 1912.4l106.4 63.8" stroke="#5e5e5e" stroke-width="3" fill="none"/><path d="M1283.1 1911.17l-1.5 2.53-2.45-1.46h1.38l.15-.03.14-.06.1-.1.08-.15.03-.16v-.1l.1-.06.2-.22.16-.28.03-.27v-.58zM1391.88 1976.38h-1.38l-.15.02-.14.07-.1.12-.08.12-.02.16v.1l-.1.05-.2.23-.16.28-.04.27v.6l-1.58-.95 1.52-2.53z" stroke="#5e5e5e" stroke-width=".05" fill="#5e5e5e"/><path d="M1282.76 2083.14l105.5-59.18" stroke="#5e5e5e" stroke-width="3" fill="none"/><path d="M1283.52 2084.4l-1.35.76-.72-1.3-.1-.2-.03-.03-.6-1.05 1.35-.75zM1389.5 2022.9l.04.26.15.28.2.22.1.05v.12l.03.15.07.14.1.12.15.07.15.02h.15l-1.7.94-1.44-2.57 2-1.12z" stroke="#5e5e5e" stroke-width=".05" fill="#5e5e5e"/><path d="M360 1876.8a.5.5 0 0 1 .5-.5h37a.5.5 0 0 1 .5.5v22.95a.5.5 0 0 1-.5.5h-37a.5.5 0 0 1-.5-.5z" fill="#fff" fill-opacity="0"/><path d="M360.5 1877.25a.5.5 0 0 0-.5.5v21.04a.5.5 0 0 0 .5.5h37a.5.5 0 0 0 .5-.5v-21.05a.5.5 0 0 0-.5-.5z" stroke="#5e5e5e" fill="#fff"/><use xlink:href="#u" transform="matrix(1,0,0,1,374.40140344058204,1876.2851141143583) translate(0.49479166666666696 16.444444444444443)"/><path d="M360 1900.75a.5.5 0 0 1 .5-.5h37a.5.5 0 0 1 .5.5v22.97a.5.5 0 0 1-.5.5h-37a.5.5 0 0 1-.5-.5z" fill="#fff" fill-opacity="0"/><path d="M360.5 1901.22a.5.5 0 0 0-.5.5v21.03a.5.5 0 0 0 .5.5h37a.5.5 0 0 0 .5-.5v-21.03a.5.5 0 0 0-.5-.5z" stroke="#5e5e5e" fill="#fff"/><use xlink:href="#t" transform="matrix(1,0,0,1,374.40140344058204,1900.2538641143583) translate(0.49479166666666696 16.444444444444443)"/><path d="M511.4 1876.8a.5.5 0 0 1 .5-.5h37a.5.5 0 0 1 .5.5v22.95a.5.5 0 0 1-.5.5h-37a.5.5 0 0 1-.5-.5z" fill="#fff" fill-opacity="0"/><path d="M511.9 1877.25a.5.5 0 0 0-.5.5v21.04a.5.5 0 0 0 .5.5h37a.5.5 0 0 0 .5-.5v-21.05a.5.5 0 0 0-.5-.5z" stroke="#5e5e5e" fill="#fff"/><use xlink:href="#u" transform="matrix(1,0,0,1,525.791498242943,1876.2851141143585) translate(0.49479166666666696 16.444444444444443)"/><path d="M511.4 1900.75a.5.5 0 0 1 .5-.5h37a.5.5 0 0 1 .5.5v22.97a.5.5 0 0 1-.5.5h-37a.5.5 0 0 1-.5-.5z" fill="#fff" fill-opacity="0"/><path d="M511.9 1901.22a.5.5 0 0 0-.5.5v21.03a.5.5 0 0 0 .5.5h37a.5.5 0 0 0 .5-.5v-21.03a.5.5 0 0 0-.5-.5z" stroke="#5e5e5e" fill="#fff"/><use xlink:href="#t" transform="matrix(1,0,0,1,525.791498242943,1900.2538641143585) translate(0.49479166666666696 16.444444444444443)"/><path d="M360 2078.7a.5.5 0 0 1 .5-.5h37a.5.5 0 0 1 .5.5v22.97a.5.5 0 0 1-.5.5h-37a.5.5 0 0 1-.5-.5z" fill="#fff" fill-opacity="0"/><path d="M360.5 2079.17a.5.5 0 0 0-.5.5v21.03a.5.5 0 0 0 .5.5h37a.5.5 0 0 0 .5-.5v-21.03a.5.5 0 0 0-.5-.5z" stroke="#5e5e5e" fill="#fff"/><use xlink:href="#t" transform="matrix(1,0,0,1,374.40140344058204,2078.200905333113) translate(0.49479166666666696 16.444444444444443)"/><path d="M360 2102.67a.5.5 0 0 1 .5-.5h37a.5.5 0 0 1 .5.5v22.97a.5.5 0 0 1-.5.5h-37a.5.5 0 0 1-.5-.5z" fill="#fff" fill-opacity="0"/><path d="M360.5 2103.14a.5.5 0 0 0-.5.5v21.03a.5.5 0 0 0 .5.5h37a.5.5 0 0 0 .5-.5v-21.03a.5.5 0 0 0-.5-.5z" stroke="#5e5e5e" fill="#fff"/><use xlink:href="#u" transform="matrix(1,0,0,1,374.40140344058204,2102.169655333113) translate(0.49479166666666696 16.444444444444443)"/><path d="M512.67 2078.04a.5.5 0 0 1 .5-.5h37a.5.5 0 0 1 .5.5V2101a.5.5 0 0 1-.5.5h-37a.5.5 0 0 1-.5-.5z" fill="#fff" fill-opacity="0"/><path d="M513.17 2078.5a.5.5 0 0 0-.5.5v21.04a.5.5 0 0 0 .5.5h37a.5.5 0 0 0 .5-.5V2079a.5.5 0 0 0-.5-.5z" stroke="#5e5e5e" fill="#fff"/><use xlink:href="#t" transform="matrix(1,0,0,1,527.0701144048227,2077.541293062598) translate(0.49479166666666696 16.444444444444443)"/><path d="M512.67 2102.67a.5.5 0 0 1 .5-.5h37a.5.5 0 0 1 .5.5v22.97a.5.5 0 0 1-.5.5h-37a.5.5 0 0 1-.5-.5z" fill="#fff" fill-opacity="0"/><path d="M513.17 2103.14a.5.5 0 0 0-.5.5v21.03a.5.5 0 0 0 .5.5h37a.5.5 0 0 0 .5-.5v-21.03a.5.5 0 0 0-.5-.5z" stroke="#5e5e5e" fill="#fff"/><use xlink:href="#u" transform="matrix(1,0,0,1,527.0701144048227,2102.169655333113) translate(0.49479166666666696 16.444444444444443)"/><path d="M1390 1976.88a.5.5 0 0 1 .5-.5h37a.5.5 0 0 1 .5.5v22.97a.5.5 0 0 1-.5.5h-37a.5.5 0 0 1-.5-.5z" fill="#fff" fill-opacity="0"/><path d="M1390.5 1977.35a.5.5 0 0 0-.5.5v21.03a.5.5 0 0 0 .5.5h37a.5.5 0 0 0 .5-.5v-21.03a.5.5 0 0 0-.5-.5z" stroke="#5e5e5e" fill="#fff"/><use xlink:href="#u" transform="matrix(1,0,0,1,1404.401403440582,1976.3787082540093) translate(0.49479166666666696 16.444444444444443)"/><path d="M1390 2000.85a.5.5 0 0 1 .5-.5h37a.5.5 0 0 1 .5.5v22.97a.5.5 0 0 1-.5.5h-37a.5.5 0 0 1-.5-.5z" fill="#fff" fill-opacity="0"/><path d="M1390.5 2001.32a.5.5 0 0 0-.5.5v21.03a.5.5 0 0 0 .5.5h37a.5.5 0 0 0 .5-.5v-21.03a.5.5 0 0 0-.5-.5z" stroke="#5e5e5e" fill="#fff"/><g><use xlink:href="#s" transform="matrix(1,0,0,1,1404.4014034405832,2000.3474582540093) translate(0.49479166666666696 16.444444444444443)"/></g><defs><path fill="#333" d="M890-1328v209H373v376h433v209H373V0H109v-1328h781" id="v"/><path fill="#333" d="M1240 0h-202c-47 1-76-24-87-58l-84-261H378L295-59c-11 29-44 59-86 59H4l484-1328h268zM437-503h370c-61-196-127-384-186-583-56 202-123 386-184 583" id="w"/><path fill="#333" d="M1048-974c0 163-99 241-224 288 171 41 257 139 257 293C1081-125 889 0 612 0H119v-1328h451c279 2 478 84 478 354zM823-399c0-131-83-178-217-178H382v373h225c139 0 216-61 216-195zm-37-542c0-143-71-185-216-185H382v368h173c140-1 231-45 231-183" id="x"/><path fill="#333" d="M1018-942c0 206-115 318-270 377 36 21 66 45 88 81L1133 0H896c-42 0-76-17-97-53L557-467c-20-31-37-43-86-44h-89V0H118v-1328h400c295 3 500 102 500 386zm-256 18c0-141-92-203-244-202H382v428h134c155-2 246-74 246-226" id="y"/><path fill="#333" d="M405 0H141v-1328h264V0" id="z"/><path fill="#333" d="M1063-193C972-66 836 14 625 14 325 14 160-160 82-392c-55-162-54-387 4-546 84-230 253-399 553-405 185-4 321 74 409 173-37 47-65 102-108 143-52 29-90-19-122-42-68-49-222-71-314-21-130 72-193 222-193 425 0 205 69 355 201 427 92 51 249 32 318-20 30-23 81-99 128-48" id="A"/><g id="a"><use transform="matrix(0.01302083333333333,0,0,0.01302083333333333,0,0)" xlink:href="#v"/><use transform="matrix(0.01302083333333333,0,0,0.01302083333333333,10.729166666666664,0)" xlink:href="#w"/><use transform="matrix(0.01302083333333333,0,0,0.01302083333333333,26.88802083333333,0)" xlink:href="#x"/><use transform="matrix(0.01302083333333333,0,0,0.01302083333333333,41.83593749999999,0)" xlink:href="#y"/><use transform="matrix(0.01302083333333333,0,0,0.01302083333333333,56.84895833333332,0)" xlink:href="#z"/><use transform="matrix(0.01302083333333333,0,0,0.01302083333333333,63.95833333333332,0)" xlink:href="#A"/></g><path fill="#333" d="M9-1328h220c46-1 79 23 88 58 77 303 157 598 228 906 11-49 22-97 35-140l232-766c10-30 44-58 86-58 75 0 146-5 164 58 80 278 169 552 250 830 7 23 12 48 17 73 69-308 150-601 226-903 8-30 45-58 86-58h206L1453 0h-238c-94-322-194-640-285-965C838-639 736-322 640 0H403" id="B"/><path fill="#333" d="M122-1328c70 6 164-16 206 20 6 5 13 12 20 21l654 862c-4-44-6-86-6-125v-778h231V0c-62-4-141 10-187-10-14-6-27-18-40-35L348-902c4 41 6 80 6 115V0H122v-1328" id="C"/><path fill="#333" d="M236-180h257c2-279-3-565 3-840L323-871c-27 30-91 18-110-9l-76-104 399-346h198v1150h227V0H236v-180" id="D"/><g id="b"><use transform="matrix(0.011935763888888886,0,0,0.011935763888888886,0,0)" xlink:href="#B"/><use transform="matrix(0.011935763888888886,0,0,0.011935763888888886,21.00694444444444,0)" xlink:href="#w"/><use transform="matrix(0.011935763888888886,0,0,0.011935763888888886,35.81922743055554,0)" xlink:href="#C"/><use transform="matrix(0.011935763888888886,0,0,0.011935763888888886,51.92057291666664,0)" xlink:href="#D"/></g><path fill="#333" d="M1020 122v164H0V122h1020" id="E"/><path fill="#333" d="M1292-934c62 161 62 379 0 540-91 237-280 408-598 408S186-158 94-394c-62-161-63-379 0-540 92-237 282-409 600-409 317 0 507 173 598 409zM694-210c263 0 376-186 376-455 0-268-114-455-376-455-263 0-377 187-377 455 0 269 113 455 377 455" id="F"/><path fill="#333" d="M375-536c5 198 97 324 294 324s294-126 294-324v-792h262v792c-5 265-130 431-324 510-132 55-333 55-465 0-195-79-324-244-324-510v-792h263v792" id="G"/><path fill="#333" d="M996-1328v214H638V0H376v-1114H18v-214h978" id="H"/><path fill="#333" d="M928-1328v209H382v351h425v201H382v358h547L928 0H118v-1328h810" id="I"/><path fill="#333" d="M469-200c119 0 194-62 190-182-5-155-165-165-285-207C212-646 83-736 88-958c4-182 105-295 242-352 113-48 278-41 392 4 65 25 120 59 166 104l-67 124c-13 37-61 47-98 23-55-35-117-75-210-75-111 0-181 57-181 159 0 146 173 155 287 201 153 61 292 138 287 351-7 273-167 433-444 433-190 0-326-77-424-175l78-125c18-34 71-42 108-14 63 47 132 100 245 100" id="J"/><g id="c"><use transform="matrix(0.01085069444444444,0,0,0.01085069444444444,0,0)" xlink:href="#B"/><use transform="matrix(0.01085069444444444,0,0,0.01085069444444444,19.097222222222214,0)" xlink:href="#w"/><use transform="matrix(0.01085069444444444,0,0,0.01085069444444444,32.562934027777764,0)" xlink:href="#C"/><use transform="matrix(0.01085069444444444,0,0,0.01085069444444444,47.200520833333314,0)" xlink:href="#D"/><use transform="matrix(0.01085069444444444,0,0,0.01085069444444444,58.46354166666664,0)" xlink:href="#E"/><use transform="matrix(0.01085069444444444,0,0,0.01085069444444444,69.53124999999997,0)" xlink:href="#y"/><use transform="matrix(0.01085069444444444,0,0,0.01085069444444444,82.04210069444441,0)" xlink:href="#y"/><use transform="matrix(0.01085069444444444,0,0,0.01085069444444444,94.55295138888886,0)" xlink:href="#E"/><use transform="matrix(0.01085069444444444,0,0,0.01085069444444444,105.62065972222219,0)" xlink:href="#y"/><use transform="matrix(0.01085069444444444,0,0,0.01085069444444444,117.91449652777773,0)" xlink:href="#F"/><use transform="matrix(0.01085069444444444,0,0,0.01085069444444444,132.9427083333333,0)" xlink:href="#G"/><use transform="matrix(0.01085069444444444,0,0,0.01085069444444444,147.45008680555551,0)" xlink:href="#H"/><use transform="matrix(0.01085069444444444,0,0,0.01085069444444444,158.45269097222217,0)" xlink:href="#I"/><use transform="matrix(0.01085069444444444,0,0,0.01085069444444444,169.29253472222217,0)" xlink:href="#y"/><use transform="matrix(0.01085069444444444,0,0,0.01085069444444444,181.58637152777771,0)" xlink:href="#J"/></g><path fill="#333" d="M1037-902c0 300-189 436-495 441H378V0H115v-1328h427c303 4 495 131 495 426zm-263 0c0-143-81-224-232-224H378v461h164c156 2 232-87 232-237" id="K"/><g id="d"><use transform="matrix(0.01085069444444444,0,0,0.01085069444444444,0,0)" xlink:href="#B"/><use transform="matrix(0.01085069444444444,0,0,0.01085069444444444,19.097222222222214,0)" xlink:href="#w"/><use transform="matrix(0.01085069444444444,0,0,0.01085069444444444,32.562934027777764,0)" xlink:href="#C"/><use transform="matrix(0.01085069444444444,0,0,0.01085069444444444,47.200520833333314,0)" xlink:href="#D"/><use transform="matrix(0.01085069444444444,0,0,0.01085069444444444,58.46354166666664,0)" xlink:href="#E"/><use transform="matrix(0.01085069444444444,0,0,0.01085069444444444,69.53124999999997,0)" xlink:href="#K"/><use transform="matrix(0.01085069444444444,0,0,0.01085069444444444,81.35850694444441,0)" xlink:href="#E"/><use transform="matrix(0.01085069444444444,0,0,0.01085069444444444,92.42621527777774,0)" xlink:href="#y"/><use transform="matrix(0.01085069444444444,0,0,0.01085069444444444,104.7200520833333,0)" xlink:href="#F"/><use transform="matrix(0.01085069444444444,0,0,0.01085069444444444,119.74826388888887,0)" xlink:href="#G"/><use transform="matrix(0.01085069444444444,0,0,0.01085069444444444,134.2556423611111,0)" xlink:href="#H"/><use transform="matrix(0.01085069444444444,0,0,0.01085069444444444,145.25824652777774,0)" xlink:href="#I"/><use transform="matrix(0.01085069444444444,0,0,0.01085069444444444,156.09809027777774,0)" xlink:href="#y"/><use transform="matrix(0.01085069444444444,0,0,0.01085069444444444,168.3919270833333,0)" xlink:href="#J"/></g><path fill="#333" d="M258-4c-87-7-140-59-140-149 0-86 59-133 146-135 138-4 176 139 138 268-37 125-112 225-207 297-30-25-91-66-43-114 44-43 89-96 106-167" id="L"/><g id="e"><use transform="matrix(0.01085069444444444,0,0,0.01085069444444444,0,0)" xlink:href="#B"/><use transform="matrix(0.01085069444444444,0,0,0.01085069444444444,19.097222222222214,0)" xlink:href="#w"/><use transform="matrix(0.01085069444444444,0,0,0.01085069444444444,32.562934027777764,0)" xlink:href="#C"/><use transform="matrix(0.01085069444444444,0,0,0.01085069444444444,47.200520833333314,0)" xlink:href="#D"/><use transform="matrix(0.01085069444444444,0,0,0.01085069444444444,58.46354166666664,0)" xlink:href="#E"/><use transform="matrix(0.01085069444444444,0,0,0.01085069444444444,69.53124999999997,0)" xlink:href="#K"/><use transform="matrix(0.01085069444444444,0,0,0.01085069444444444,81.35850694444441,0)" xlink:href="#I"/><use transform="matrix(0.01085069444444444,0,0,0.01085069444444444,92.19835069444441,0)" xlink:href="#E"/><use transform="matrix(0.01085069444444444,0,0,0.01085069444444444,103.26605902777774,0)" xlink:href="#y"/><use transform="matrix(0.01085069444444444,0,0,0.01085069444444444,115.55989583333329,0)" xlink:href="#F"/><use transform="matrix(0.01085069444444444,0,0,0.01085069444444444,130.58810763888886,0)" xlink:href="#G"/><use transform="matrix(0.01085069444444444,0,0,0.01085069444444444,145.0954861111111,0)" xlink:href="#H"/><use transform="matrix(0.01085069444444444,0,0,0.01085069444444444,156.09809027777774,0)" xlink:href="#I"/><use transform="matrix(0.01085069444444444,0,0,0.01085069444444444,166.93793402777774,0)" xlink:href="#y"/><use transform="matrix(0.01085069444444444,0,0,0.01085069444444444,179.23177083333326,0)" xlink:href="#J"/><use transform="matrix(0.01085069444444444,0,0,0.01085069444444444,189.73524305555551,0)" xlink:href="#L"/></g><path fill="#333" d="M359-777c59 3 106-2 127-40l261-457c48-87 219-43 342-54L747-781c-25 35-51 60-79 75 45 17 77 44 100 85L1116 0H883c-57 1-83-15-102-49L516-533c-21-31-41-46-92-46h-65V0H96v-1328h263v551" id="M"/><path fill="#333" d="M1-1328h211c47 0 77 24 88 58 97 290 184 584 280 873 10 32 19 65 28 100 14-67 35-133 54-191l249-782c10-30 44-58 87-58h212L724 0H487" id="N"/><g id="f"><use transform="matrix(0.01085069444444444,0,0,0.01085069444444444,0,0)" xlink:href="#C"/><use transform="matrix(0.01085069444444444,0,0,0.01085069444444444,14.63758680555555,0)" xlink:href="#I"/><use transform="matrix(0.01085069444444444,0,0,0.01085069444444444,25.477430555555546,0)" xlink:href="#H"/><use transform="matrix(0.01085069444444444,0,0,0.01085069444444444,36.48003472222221,0)" xlink:href="#B"/><use transform="matrix(0.01085069444444444,0,0,0.01085069444444444,56.34765624999997,0)" xlink:href="#F"/><use transform="matrix(0.01085069444444444,0,0,0.01085069444444444,71.37586805555551,0)" xlink:href="#y"/><use transform="matrix(0.01085069444444444,0,0,0.01085069444444444,83.88671874999996,0)" xlink:href="#M"/><use transform="matrix(0.01085069444444444,0,0,0.01085069444444444,96.03949652777773,0)" xlink:href="#E"/><use transform="matrix(0.01085069444444444,0,0,0.01085069444444444,107.10720486111106,0)" xlink:href="#J"/><use transform="matrix(0.01085069444444444,0,0,0.01085069444444444,117.61067708333327,0)" xlink:href="#I"/><use transform="matrix(0.01085069444444444,0,0,0.01085069444444444,128.45052083333326,0)" xlink:href="#y"/><use transform="matrix(0.01085069444444444,0,0,0.01085069444444444,140.69010416666657,0)" xlink:href="#N"/><use transform="matrix(0.01085069444444444,0,0,0.01085069444444444,153.8302951388888,0)" xlink:href="#z"/><use transform="matrix(0.01085069444444444,0,0,0.01085069444444444,159.75477430555546,0)" xlink:href="#A"/><use transform="matrix(0.01085069444444444,0,0,0.01085069444444444,171.51692708333323,0)" xlink:href="#I"/><use transform="matrix(0.01085069444444444,0,0,0.01085069444444444,182.13975694444434,0)" xlink:href="#J"/></g><path fill="#fff" d="M1037-902c0 300-189 436-495 441H378V0H115v-1328h427c303 4 495 131 495 426zm-263 0c0-143-81-224-232-224H378v461h164c156 2 232-87 232-237" id="O"/><path fill="#fff" d="M236-180h257c2-279-3-565 3-840L323-871c-27 30-91 18-110-9l-76-104 399-346h198v1150h227V0H236v-180" id="P"/><g id="h"><use transform="matrix(0.013020833333333334,0,0,0.013020833333333334,0,0)" xlink:href="#O"/><use transform="matrix(0.013020833333333334,0,0,0.013020833333333334,14.192708333333334,0)" xlink:href="#P"/></g><filter id="g" filterUnits="objectBoundingBox" x="-.06" y="-.04" width="1.12" height="1.21"><feOffset result="offOut" in="SourceAlpha" dy="6"/><feGaussianBlur result="blurOut" in="offOut" stdDeviation="5"/><feColorMatrix result="colorOut" in="blurOut" values="0 0 0 0 0 0 0 0 0 0 0 0 0 0 0 0 0 0 0.5019607843137255 0"/><feBlend in="SourceGraphic" in2="colorOut"/></filter><path fill="#fff" d="M89-955c40-238 181-388 449-388 250 0 409 134 409 381 0 232-139 347-258 472L407-195c126-46 310-24 475-29 49-1 86 32 85 80V0H69c-2-76 0-138 43-180 161-160 326-321 472-494 63-74 110-153 115-281 6-143-107-217-242-175-61 19-100 69-121 131-19 56-46 79-119 66" id="Q"/><g id="j"><use transform="matrix(0.013020833333333334,0,0,0.013020833333333334,0,0)" xlink:href="#O"/><use transform="matrix(0.013020833333333334,0,0,0.013020833333333334,14.192708333333334,0)" xlink:href="#Q"/></g><path fill="#fff" d="M928-1328v209H382v351h425v201H382v358h547L928 0H118v-1328h810" id="R"/><g id="k"><use transform="matrix(0.013020833333333334,0,0,0.013020833333333334,0,0)" xlink:href="#O"/><use transform="matrix(0.013020833333333334,0,0,0.013020833333333334,14.192708333333334,0)" xlink:href="#R"/><use transform="matrix(0.013020833333333334,0,0,0.013020833333333334,27.200520833333336,0)" xlink:href="#Q"/></g><g id="l"><use transform="matrix(0.013020833333333334,0,0,0.013020833333333334,0,0)" xlink:href="#O"/><use transform="matrix(0.013020833333333334,0,0,0.013020833333333334,14.192708333333334,0)" xlink:href="#R"/><use transform="matrix(0.013020833333333334,0,0,0.013020833333333334,27.200520833333336,0)" xlink:href="#P"/></g><path fill="#fff" d="M1018-942c0 206-115 318-270 377 36 21 66 45 88 81L1133 0H896c-42 0-76-17-97-53L557-467c-20-31-37-43-86-44h-89V0H118v-1328h400c295 3 500 102 500 386zm-256 18c0-141-92-203-244-202H382v428h134c155-2 246-74 246-226" id="S"/><g id="m"><use transform="matrix(0.013020833333333334,0,0,0.013020833333333334,0,0)" xlink:href="#S"/><use transform="matrix(0.013020833333333334,0,0,0.013020833333333334,15.013020833333334,0)" xlink:href="#S"/><use transform="matrix(0.013020833333333334,0,0,0.013020833333333334,30.026041666666668,0)" xlink:href="#P"/></g><path fill="#fff" d="M113-955c38-239 181-388 448-388 186 0 310 81 369 209 18 42 27 87 27 134 1 168-77 256-203 297 151 51 227 154 227 307C981-126 800 8 532 14 260 20 143-131 76-338c63-25 186-102 236-14 46 82 93 164 218 164 130 0 203-76 210-200 9-175-112-206-288-206v-171c158-2 269-37 269-193 0-117-60-182-173-183-99-1-165 67-190 142-19 57-44 79-118 66" id="T"/><g id="n"><use transform="matrix(0.013020833333333334,0,0,0.013020833333333334,0,0)" xlink:href="#O"/><use transform="matrix(0.013020833333333334,0,0,0.013020833333333334,14.192708333333334,0)" xlink:href="#T"/></g><path fill="#fff" d="M1007-505c-9 70 29 185-49 186H854V0H644v-319H105c-83-4-69-108-90-173l609-837h230v824h153zm-363 0c3-182-8-376 8-546L269-505h375" id="U"/><g id="o"><use transform="matrix(0.013020833333333334,0,0,0.013020833333333334,0,0)" xlink:href="#O"/><use transform="matrix(0.013020833333333334,0,0,0.013020833333333334,14.192708333333334,0)" xlink:href="#U"/></g><g id="p"><use transform="matrix(0.013020833333333334,0,0,0.013020833333333334,0,0)" xlink:href="#O"/><use transform="matrix(0.013020833333333334,0,0,0.013020833333333334,14.192708333333334,0)" xlink:href="#R"/><use transform="matrix(0.013020833333333334,0,0,0.013020833333333334,27.200520833333336,0)" xlink:href="#T"/></g><g id="q"><use transform="matrix(0.013020833333333334,0,0,0.013020833333333334,0,0)" xlink:href="#S"/><use transform="matrix(0.013020833333333334,0,0,0.013020833333333334,15.013020833333334,0)" xlink:href="#S"/><use transform="matrix(0.013020833333333334,0,0,0.013020833333333334,30.026041666666668,0)" xlink:href="#Q"/></g><path d="M1007-505c-9 70 29 185-49 186H854V0H644v-319H105c-83-4-69-108-90-173l609-837h230v824h153zm-363 0c3-182-8-376 8-546L269-505h375" id="V"/><use transform="matrix(0.008680555555555554,0,0,0.008680555555555554,0,0)" xlink:href="#V" id="r"/><path d="M113-955c38-239 181-388 448-388 186 0 310 81 369 209 18 42 27 87 27 134 1 168-77 256-203 297 151 51 227 154 227 307C981-126 800 8 532 14 260 20 143-131 76-338c63-25 186-102 236-14 46 82 93 164 218 164 130 0 203-76 210-200 9-175-112-206-288-206v-171c158-2 269-37 269-193 0-117-60-182-173-183-99-1-165 67-190 142-19 57-44 79-118 66" id="W"/><use transform="matrix(0.008680555555555554,0,0,0.008680555555555554,0,0)" xlink:href="#W" id="s"/><path d="M89-955c40-238 181-388 449-388 250 0 409 134 409 381 0 232-139 347-258 472L407-195c126-46 310-24 475-29 49-1 86 32 85 80V0H69c-2-76 0-138 43-180 161-160 326-321 472-494 63-74 110-153 115-281 6-143-107-217-242-175-61 19-100 69-121 131-19 56-46 79-119 66" id="X"/><use transform="matrix(0.008680555555555554,0,0,0.008680555555555554,0,0)" xlink:href="#X" id="t"/><path d="M236-180h257c2-279-3-565 3-840L323-871c-27 30-91 18-110-9l-76-104 399-346h198v1150h227V0H236v-180" id="Y"/><use transform="matrix(0.008680555555555554,0,0,0.008680555555555554,0,0)" xlink:href="#Y" id="u"/></defs></g></svg>