<svg xmlns="http://www.w3.org/2000/svg" xmlns:xlink="http://www.w3.org/1999/xlink" xmlns:lucid="lucid" width="2003" height="683"><g transform="translate(121.5 -338.5)" lucid:page-tab-id="XMrMEFgROiey"><path d="M-100 366a6 6 0 0 1 6-6h1948a6 6 0 0 1 6 6v628a6 6 0 0 1-6 6H-94a6 6 0 0 1-6-6z" stroke="#dfe3e8" stroke-width="3" fill="#dfe3e8"/><g filter="url(#a)"><path d="M640 533.2a.5.5 0 0 1 .5-.5h168.64a.5.5 0 0 1 .5.5v93.4a.5.5 0 0 1-.5.5H640.5a.5.5 0 0 1-.5-.5z" fill="#fff" fill-opacity="0"/><path d="M640.5 532.7a.5.5 0 0 0-.5.5v93.4a.5.5 0 0 0 .5.5h168.64a.5.5 0 0 0 .5-.5v-93.4a.5.5 0 0 0-.5-.5z" stroke="#315796" stroke-width="3" fill="#315796"/><use xlink:href="#b" transform="matrix(1,0,0,1,649.8390342216674,543.7443907119699) translate(61.14583333333333 43.166666666666664)"/></g><g filter="url(#a)"><path d="M640 735.77a.5.5 0 0 1 .5-.5h168.64a.5.5 0 0 1 .5.5v93.42a.5.5 0 0 1-.5.5H640.5a.5.5 0 0 1-.5-.5z" fill="#fff" fill-opacity="0"/><path d="M640.5 735.27a.5.5 0 0 0-.5.5v93.42a.5.5 0 0 0 .5.5h168.64a.5.5 0 0 0 .5-.5v-93.43a.5.5 0 0 0-.5-.5z" stroke="#315796" stroke-width="3" fill="#315796"/><use xlink:href="#c" transform="matrix(1,0,0,1,649.8390342216674,746.3197942012392) translate(55.1171875 43.166666666666664)"/><use xlink:href="#d" transform="matrix(1,0,0,1,649.8390342216674,746.3197942012392) translate(67.17447916666667 43.166666666666664)"/></g><g filter="url(#a)"><path d="M40 633.3a.5.5 0 0 1 .5-.5h168.64a.5.5 0 0 1 .5.5v93.4a.5.5 0 0 1-.5.5H40.5a.5.5 0 0 1-.5-.5z" fill="#fff" fill-opacity="0"/><path d="M40.5 632.8a.5.5 0 0 0-.5.5v93.4a.5.5 0 0 0 .5.5h168.64a.5.5 0 0 0 .5-.5v-93.4a.5.5 0 0 0-.5-.5z" stroke="#6f7681" stroke-width="3" fill="#6f7681"/><use xlink:href="#e" transform="matrix(1,0,0,1,49.839034221667774,643.8379848516207) translate(27.06380208333333 29.833333333333332)"/><use xlink:href="#f" transform="matrix(1,0,0,1,49.839034221667774,643.8379848516207) translate(8.092447916666657 56.5)"/></g><g filter="url(#a)"><path d="M340 735.77a.5.5 0 0 1 .5-.5h168.64a.5.5 0 0 1 .5.5v93.42a.5.5 0 0 1-.5.5H340.5a.5.5 0 0 1-.5-.5z" fill="#fff" fill-opacity="0"/><path d="M340.5 735.27a.5.5 0 0 0-.5.5v93.42a.5.5 0 0 0 .5.5h168.64a.5.5 0 0 0 .5-.5v-93.43a.5.5 0 0 0-.5-.5z" stroke="#315796" stroke-width="3" fill="#315796"/><use xlink:href="#g" transform="matrix(1,0,0,1,349.83903422166776,746.3197942012392) translate(54.64192708333333 43.166666666666664)"/></g><g filter="url(#a)"><path d="M40 428.23a.5.5 0 0 1 .5-.5h168.64a.5.5 0 0 1 .5.5v93.42a.5.5 0 0 1-.5.5H40.5a.5.5 0 0 1-.5-.5z" fill="#fff" fill-opacity="0"/><path d="M40.5 427.73a.5.5 0 0 0-.5.5v93.42a.5.5 0 0 0 .5.5h168.64a.5.5 0 0 0 .5-.5v-93.42a.5.5 0 0 0-.5-.5z" stroke="#6f7681" stroke-width="3" fill="#6f7681"/><use xlink:href="#h" transform="matrix(1,0,0,1,49.839034221667774,438.7756407119698) translate(14.902343749999986 29.833333333333332)"/><use xlink:href="#i" transform="matrix(1,0,0,1,49.839034221667774,438.7756407119698) translate(47.584635416666664 56.5)"/></g><g filter="url(#a)"><path d="M340 533.2a.5.5 0 0 1 .5-.5h168.64a.5.5 0 0 1 .5.5v93.4a.5.5 0 0 1-.5.5H340.5a.5.5 0 0 1-.5-.5z" fill="#fff" fill-opacity="0"/><path d="M340.5 532.7a.5.5 0 0 0-.5.5v93.4a.5.5 0 0 0 .5.5h168.64a.5.5 0 0 0 .5-.5v-93.4a.5.5 0 0 0-.5-.5z" stroke="#315796" stroke-width="3" fill="#315796"/><use xlink:href="#j" transform="matrix(1,0,0,1,349.83903422166776,543.7443907119699) translate(54.64192708333333 43.166666666666664)"/></g><path d="M125.95 629.8H123v-41.66h2.95zm0-63H123v-41.65h2.95z" stroke="#5e5e5e" stroke-width=".05" fill="#5e5e5e"/><path d="M125.95 631.3H123v-1.55h2.95z" fill="#5e5e5e"/><path stroke="#5e5e5e" stroke-width=".05" fill="#5e5e5e"/><path d="M125.95 523.65v1.53H123v-1.53z" fill="#5e5e5e"/><path stroke="#5e5e5e" stroke-width=".05" fill="#5e5e5e"/><use xlink:href="#k" transform="matrix(1,0,0,1,88.00780990152104,566.8021609999731) translate(0 14.222222222222223)"/><use xlink:href="#l" transform="matrix(1,0,0,1,88.00780990152104,566.8021609999731) translate(53.18518518518519 14.222222222222223)"/><g filter="url(#a)"><path d="M44.26 838.35a.5.5 0 0 1 .5-.5H213.4a.5.5 0 0 1 .5.5v93.42a.5.5 0 0 1-.5.5H44.76a.5.5 0 0 1-.5-.5z" fill="#fff" fill-opacity="0"/><path d="M44.76 837.85a.5.5 0 0 0-.5.5v93.42a.5.5 0 0 0 .5.5H213.4a.5.5 0 0 0 .5-.5v-93.42a.5.5 0 0 0-.5-.5z" stroke="#6f7681" stroke-width="3" fill="#6f7681"/><use xlink:href="#m" transform="matrix(1,0,0,1,54.09814847748483,848.9003289912715) translate(14.902343749999986 29.833333333333332)"/><use xlink:href="#i" transform="matrix(1,0,0,1,54.09814847748483,848.9003289912715) translate(47.584635416666664 56.5)"/></g><g filter="url(#a)"><path d="M940 533.2a.5.5 0 0 1 .5-.5h168.64a.5.5 0 0 1 .5.5v93.4a.5.5 0 0 1-.5.5H940.5a.5.5 0 0 1-.5-.5z" fill="#fff" fill-opacity="0"/><path d="M940.5 532.7a.5.5 0 0 0-.5.5v93.4a.5.5 0 0 0 .5.5h168.64a.5.5 0 0 0 .5-.5v-93.4a.5.5 0 0 0-.5-.5z" stroke="#315796" stroke-width="3" fill="#315796"/><use xlink:href="#n" transform="matrix(1,0,0,1,949.8390342216671,543.7443907119699) translate(53.229166666666664 43.166666666666664)"/></g><path d="M320 568.42a.5.5 0 0 1 .5-.5h37a.5.5 0 0 1 .5.5v22.97a.5.5 0 0 1-.5.5h-37a.5.5 0 0 1-.5-.5z" fill="#fff" fill-opacity="0"/><path d="M320.5 568.9a.5.5 0 0 0-.5.5v21.02a.5.5 0 0 0 .5.5h37a.5.5 0 0 0 .5-.5V569.4a.5.5 0 0 0-.5-.5z" stroke="#5e5e5e" fill="#fff"/><use xlink:href="#o" transform="matrix(1,0,0,1,334.40140344058204,567.9220308603492) translate(0.49479166666666696 16.444444444444443)"/><g filter="url(#a)"><path d="M1240 533.2a.5.5 0 0 1 .5-.5h168.64a.5.5 0 0 1 .5.5v93.4a.5.5 0 0 1-.5.5H1240.5a.5.5 0 0 1-.5-.5z" fill="#fff" fill-opacity="0"/><path d="M1240.5 532.7a.5.5 0 0 0-.5.5v93.4a.5.5 0 0 0 .5.5h168.64a.5.5 0 0 0 .5-.5v-93.4a.5.5 0 0 0-.5-.5z" stroke="#315796" stroke-width="3" fill="#315796"/><use xlink:href="#p" transform="matrix(1,0,0,1,1249.8390342216671,543.7443907119699) translate(61.14583333333333 43.166666666666664)"/></g><g filter="url(#a)"><path d="M1240 727.7a.5.5 0 0 1 .5-.5h168.64a.5.5 0 0 1 .5.5v93.43a.5.5 0 0 1-.5.5H1240.5a.5.5 0 0 1-.5-.5z" fill="#fff" fill-opacity="0"/><path d="M1240.5 727.2a.5.5 0 0 0-.5.5v93.43a.5.5 0 0 0 .5.5h168.64a.5.5 0 0 0 .5-.5V727.7a.5.5 0 0 0-.5-.5z" stroke="#315796" stroke-width="3" fill="#315796"/><use xlink:href="#q" transform="matrix(1,0,0,1,1249.8390342216671,738.2557789727156) translate(61.14583333333333 43.166666666666664)"/></g><g filter="url(#a)"><path d="M1540 633.3a.5.5 0 0 1 .5-.5h168.64a.5.5 0 0 1 .5.5v93.4a.5.5 0 0 1-.5.5H1540.5a.5.5 0 0 1-.5-.5z" fill="#fff" fill-opacity="0"/><path d="M1540.5 632.8a.5.5 0 0 0-.5.5v93.4a.5.5 0 0 0 .5.5h168.64a.5.5 0 0 0 .5-.5v-93.4a.5.5 0 0 0-.5-.5z" stroke="#315796" stroke-width="3" fill="#315796"/><use xlink:href="#r" transform="matrix(1,0,0,1,1549.8390342216665,643.8379848516207) translate(54.64192708333333 43.166666666666664)"/></g><g filter="url(#a)"><path d="M1542 428.23a.5.5 0 0 1 .5-.5h168.64a.5.5 0 0 1 .5.5v93.42a.5.5 0 0 1-.5.5H1542.5a.5.5 0 0 1-.5-.5z" fill="#fff" fill-opacity="0"/><path d="M1542.5 427.73a.5.5 0 0 0-.5.5v93.42a.5.5 0 0 0 .5.5h168.64a.5.5 0 0 0 .5-.5v-93.42a.5.5 0 0 0-.5-.5z" stroke="#6f7681" stroke-width="3" fill="#6f7681"/><use xlink:href="#s" transform="matrix(1,0,0,1,1551.8406082570716,438.7756407119698) translate(20.07161458333333 29.833333333333332)"/><use xlink:href="#t" transform="matrix(1,0,0,1,1551.8406082570716,438.7756407119698) translate(47.584635416666664 56.5)"/></g><g filter="url(#a)"><path d="M940 735.77a.5.5 0 0 1 .5-.5h168.64a.5.5 0 0 1 .5.5v93.42a.5.5 0 0 1-.5.5H940.5a.5.5 0 0 1-.5-.5z" fill="#fff" fill-opacity="0"/><path d="M940.5 735.27a.5.5 0 0 0-.5.5v93.42a.5.5 0 0 0 .5.5h168.64a.5.5 0 0 0 .5-.5v-93.43a.5.5 0 0 0-.5-.5z" stroke="#315796" stroke-width="3" fill="#315796"/><use xlink:href="#u" transform="matrix(1,0,0,1,949.8390342216676,746.3197942012392) translate(53.229166666666664 43.166666666666664)"/></g><g filter="url(#a)"><path d="M1540 838.35a.5.5 0 0 1 .5-.5h168.64a.5.5 0 0 1 .5.5v93.42a.5.5 0 0 1-.5.5H1540.5a.5.5 0 0 1-.5-.5z" fill="#fff" fill-opacity="0"/><path d="M1540.5 837.85a.5.5 0 0 0-.5.5v93.42a.5.5 0 0 0 .5.5h168.64a.5.5 0 0 0 .5-.5v-93.42a.5.5 0 0 0-.5-.5z" stroke="#6f7681" stroke-width="3" fill="#6f7681"/><use xlink:href="#m" transform="matrix(1,0,0,1,1549.8390342216665,848.9003289912715) translate(14.902343749999986 29.833333333333332)"/><use xlink:href="#t" transform="matrix(1,0,0,1,1549.8390342216665,848.9003289912715) translate(47.584635416666664 56.5)"/></g><path d="M126.3 834.85h-2.96v-47.82h2.95zm0-69.15h-2.96v-35.5h2.95z" stroke="#5e5e5e" stroke-width=".05" fill="#5e5e5e"/><path d="M126.3 728.7v1.55h-2.96v-1.54z" fill="#5e5e5e"/><path stroke="#5e5e5e" stroke-width=".05" fill="#5e5e5e"/><path d="M126.3 836.35h-2.96v-1.53h2.95z" fill="#5e5e5e"/><path stroke="#5e5e5e" stroke-width=".05" fill="#5e5e5e"/><use xlink:href="#k" transform="matrix(1,0,0,1,88.3501247101331,765.6989879715047) translate(0 14.222222222222223)"/><use xlink:href="#v" transform="matrix(1,0,0,1,88.3501247101331,765.6989879715047) translate(53.18518518518519 14.222222222222223)"/><path d="M338.5 588.4" stroke="#5e5e5e" stroke-width="3" fill="none"/><path stroke="#5e5e5e" stroke-width=".05" fill="#5e5e5e"/><path stroke="#5e5e5e" stroke-width=".05" fill="#5e5e5e"/><path d="M320 771a.5.5 0 0 1 .5-.5h37a.5.5 0 0 1 .5.5v22.97a.5.5 0 0 1-.5.5h-37a.5.5 0 0 1-.5-.5z" fill="#fff" fill-opacity="0"/><path d="M320.5 771.47a.5.5 0 0 0-.5.5V793a.5.5 0 0 0 .5.5h37a.5.5 0 0 0 .5-.5v-21.03a.5.5 0 0 0-.5-.5z" stroke="#5e5e5e" fill="#fff"/><use xlink:href="#w" transform="matrix(1,0,0,1,334.40140344058204,770.4974343496185) translate(0.49479166666666696 16.444444444444443)"/><path d="M724.82 639.35v81.7" stroke="#5e5e5e" stroke-width="3" fill="none"/><path d="M726.3 639.4h-2.96v-1.55h2.95zM726.3 722.56h-2.96v-1.54h2.95z" stroke="#5e5e5e" stroke-width=".05" fill="#5e5e5e"/><path d="M705.82 614.4a.5.5 0 0 1 .5-.5h37a.5.5 0 0 1 .5.5v22.95a.5.5 0 0 1-.5.5h-37a.5.5 0 0 1-.5-.5z" fill="#fff" fill-opacity="0"/><path d="M706.32 614.85a.5.5 0 0 0-.5.5v21.03a.5.5 0 0 0 .5.5h37a.5.5 0 0 0 .5-.5v-21.03a.5.5 0 0 0-.5-.5z" stroke="#5e5e5e" fill="#fff"/><use xlink:href="#w" transform="matrix(1,0,0,1,720.2214509899023,613.8846970791035) translate(0.49479166666666696 16.444444444444443)"/><path d="M705.82 723.06a.5.5 0 0 1 .5-.5h37a.5.5 0 0 1 .5.5v22.97a.5.5 0 0 1-.5.5h-37a.5.5 0 0 1-.5-.5z" fill="#fff" fill-opacity="0"/><path d="M706.32 723.53a.5.5 0 0 0-.5.5v21.03a.5.5 0 0 0 .5.5h37a.5.5 0 0 0 .5-.5v-21.03a.5.5 0 0 0-.5-.5z" stroke="#5e5e5e" fill="#fff"/><use xlink:href="#w" transform="matrix(1,0,0,1,720.2214509899023,722.5599343496185) translate(0.49479166666666696 16.444444444444443)"/><path d="M1024.82 639.35v80.97" stroke="#5e5e5e" stroke-width="3" fill="none"/><path d="M1026.3 639.4h-2.96v-1.55h2.95zM1026.3 721.82h-2.96v-1.54h2.95z" stroke="#5e5e5e" stroke-width=".05" fill="#5e5e5e"/><path d="M840 579.9h78" stroke="#5e5e5e" stroke-width="3" fill="none"/><path d="M840.04 581.38h-1.54v-2.95h1.54zM919.5 581.38h-1.54v-2.95h1.54z" stroke="#5e5e5e" stroke-width=".05" fill="#5e5e5e"/><path d="M840 782.48h78" stroke="#5e5e5e" stroke-width="3" fill="none"/><path d="M840.04 783.96h-1.54V781h1.54zM919.5 783.96h-1.54V781h1.54z" stroke="#5e5e5e" stroke-width=".05" fill="#5e5e5e"/><path d="M1140 579.9h78" stroke="#5e5e5e" stroke-width="3" fill="none"/><path d="M1140.04 581.38h-1.54v-2.95h1.54zM1219.5 581.38h-1.54v-2.95h1.54z" stroke="#5e5e5e" stroke-width=".05" fill="#5e5e5e"/><path d="M1140 781.82h78" stroke="#5e5e5e" stroke-width="3" fill="none"/><path d="M1140.04 783.3h-1.54v-2.95h1.54zM1219.5 783.3h-1.54v-2.95h1.54z" stroke="#5e5e5e" stroke-width=".05" fill="#5e5e5e"/><path d="M1626.82 612.4v-87.25" stroke="#5e5e5e" stroke-width="3" fill="none"/><path d="M1628.3 613.9h-2.95v-1.55h2.95zM1628.3 523.65v1.53h-2.95v-1.53z" stroke="#5e5e5e" stroke-width=".05" fill="#5e5e5e"/><path d="M1624.82 747.3v87.55" stroke="#5e5e5e" stroke-width="3" fill="none"/><path d="M1626.3 747.33h-2.96v-1.54h2.95zM1626.3 836.35h-2.96v-1.53h2.95z" stroke="#5e5e5e" stroke-width=".05" fill="#5e5e5e"/><path d="M800 771a.5.5 0 0 1 .5-.5h37a.5.5 0 0 1 .5.5v22.97a.5.5 0 0 1-.5.5h-37a.5.5 0 0 1-.5-.5z" fill="#fff" fill-opacity="0"/><path d="M800.5 771.47a.5.5 0 0 0-.5.5V793a.5.5 0 0 0 .5.5h37a.5.5 0 0 0 .5-.5v-21.03a.5.5 0 0 0-.5-.5z" stroke="#5e5e5e" fill="#fff"/><use xlink:href="#o" transform="matrix(1,0,0,1,814.401403440582,770.4974343496185) translate(0.49479166666666696 16.444444444444443)"/><path d="M920 771a.5.5 0 0 1 .5-.5h37a.5.5 0 0 1 .5.5v22.97a.5.5 0 0 1-.5.5h-37a.5.5 0 0 1-.5-.5z" fill="#fff" fill-opacity="0"/><path d="M920.5 771.47a.5.5 0 0 0-.5.5V793a.5.5 0 0 0 .5.5h37a.5.5 0 0 0 .5-.5v-21.03a.5.5 0 0 0-.5-.5z" stroke="#5e5e5e" fill="#fff"/><use xlink:href="#o" transform="matrix(1,0,0,1,934.401403440582,770.4974343496185) translate(0.49479166666666696 16.444444444444443)"/><path d="M800 568.42a.5.5 0 0 1 .5-.5h37a.5.5 0 0 1 .5.5v22.97a.5.5 0 0 1-.5.5h-37a.5.5 0 0 1-.5-.5z" fill="#fff" fill-opacity="0"/><path d="M800.5 568.9a.5.5 0 0 0-.5.5v21.02a.5.5 0 0 0 .5.5h37a.5.5 0 0 0 .5-.5V569.4a.5.5 0 0 0-.5-.5z" stroke="#5e5e5e" fill="#fff"/><use xlink:href="#o" transform="matrix(1,0,0,1,814.401403440582,567.9220308603492) translate(0.49479166666666696 16.444444444444443)"/><path d="M920 568.42a.5.5 0 0 1 .5-.5h37a.5.5 0 0 1 .5.5v22.97a.5.5 0 0 1-.5.5h-37a.5.5 0 0 1-.5-.5z" fill="#fff" fill-opacity="0"/><path d="M920.5 568.9a.5.5 0 0 0-.5.5v21.02a.5.5 0 0 0 .5.5h37a.5.5 0 0 0 .5-.5V569.4a.5.5 0 0 0-.5-.5z" stroke="#5e5e5e" fill="#fff"/><use xlink:href="#o" transform="matrix(1,0,0,1,934.401403440582,567.9220308603492) translate(0.49479166666666696 16.444444444444443)"/><path d="M1100 568.42a.5.5 0 0 1 .5-.5h37a.5.5 0 0 1 .5.5v22.97a.5.5 0 0 1-.5.5h-37a.5.5 0 0 1-.5-.5z" fill="#fff" fill-opacity="0"/><path d="M1100.5 568.9a.5.5 0 0 0-.5.5v21.02a.5.5 0 0 0 .5.5h37a.5.5 0 0 0 .5-.5V569.4a.5.5 0 0 0-.5-.5z" stroke="#5e5e5e" fill="#fff"/><use xlink:href="#x" transform="matrix(1,0,0,1,1114.401403440582,567.9220308603492) translate(0.49479166666666696 16.444444444444443)"/><path d="M1220 568.42a.5.5 0 0 1 .5-.5h37a.5.5 0 0 1 .5.5v22.97a.5.5 0 0 1-.5.5h-37a.5.5 0 0 1-.5-.5z" fill="#fff" fill-opacity="0"/><path d="M1220.5 568.9a.5.5 0 0 0-.5.5v21.02a.5.5 0 0 0 .5.5h37a.5.5 0 0 0 .5-.5V569.4a.5.5 0 0 0-.5-.5z" stroke="#5e5e5e" fill="#fff"/><use xlink:href="#x" transform="matrix(1,0,0,1,1234.401403440582,567.9220308603492) translate(0.49479166666666696 16.444444444444443)"/><path d="M1100 770.34a.5.5 0 0 1 .5-.5h37a.5.5 0 0 1 .5.5v22.97a.5.5 0 0 1-.5.5h-37a.5.5 0 0 1-.5-.5z" fill="#fff" fill-opacity="0"/><path d="M1100.5 770.8a.5.5 0 0 0-.5.5v21.04a.5.5 0 0 0 .5.5h37a.5.5 0 0 0 .5-.5V771.3a.5.5 0 0 0-.5-.5z" stroke="#5e5e5e" fill="#fff"/><use xlink:href="#x" transform="matrix(1,0,0,1,1114.401403440582,769.8378220791035) translate(0.49479166666666696 16.444444444444443)"/><path d="M1220 770.34a.5.5 0 0 1 .5-.5h37a.5.5 0 0 1 .5.5v22.97a.5.5 0 0 1-.5.5h-37a.5.5 0 0 1-.5-.5z" fill="#fff" fill-opacity="0"/><path d="M1220.5 770.8a.5.5 0 0 0-.5.5v21.04a.5.5 0 0 0 .5.5h37a.5.5 0 0 0 .5-.5V771.3a.5.5 0 0 0-.5-.5z" stroke="#5e5e5e" fill="#fff"/><use xlink:href="#x" transform="matrix(1,0,0,1,1234.401403440582,769.8378220791035) translate(0.49479166666666696 16.444444444444443)"/><path d="M1324.82 639.35v70.45" stroke="#5e5e5e" stroke-width="3" fill="none"/><path d="M1326.3 639.4h-2.96v-1.55h2.95zM1326.3 711.3h-2.96v-1.53h2.95z" stroke="#5e5e5e" stroke-width=".05" fill="#5e5e5e"/><path d="M1305.82 614.4a.5.5 0 0 1 .5-.5h37a.5.5 0 0 1 .5.5v22.95a.5.5 0 0 1-.5.5h-37a.5.5 0 0 1-.5-.5z" fill="#fff" fill-opacity="0"/><path d="M1306.32 614.85a.5.5 0 0 0-.5.5v21.03a.5.5 0 0 0 .5.5h37a.5.5 0 0 0 .5-.5v-21.03a.5.5 0 0 0-.5-.5z" stroke="#5e5e5e" fill="#fff"/><use xlink:href="#w" transform="matrix(1,0,0,1,1320.2214509899015,613.8846970791035) translate(0.49479166666666696 16.444444444444443)"/><path d="M1305.82 711.8a.5.5 0 0 1 .5-.5h37a.5.5 0 0 1 .5.5v22.97a.5.5 0 0 1-.5.5h-37a.5.5 0 0 1-.5-.5z" fill="#fff" fill-opacity="0"/><path d="M1306.32 712.27a.5.5 0 0 0-.5.5v21.03a.5.5 0 0 0 .5.5h37a.5.5 0 0 0 .5-.5v-21.03a.5.5 0 0 0-.5-.5z" stroke="#5e5e5e" fill="#fff"/><use xlink:href="#w" transform="matrix(1,0,0,1,1320.2214509899015,711.3041622890711) translate(0.49479166666666696 16.444444444444443)"/><path d="M1400 568.42a.5.5 0 0 1 .5-.5h37a.5.5 0 0 1 .5.5v22.97a.5.5 0 0 1-.5.5h-37a.5.5 0 0 1-.5-.5z" fill="#fff" fill-opacity="0"/><path d="M1400.5 568.9a.5.5 0 0 0-.5.5v21.02a.5.5 0 0 0 .5.5h37a.5.5 0 0 0 .5-.5V569.4a.5.5 0 0 0-.5-.5z" stroke="#5e5e5e" fill="#fff"/><use xlink:href="#y" transform="matrix(1,0,0,1,1414.401403440582,567.9220308603492) translate(0.49479166666666696 16.444444444444443)"/><path d="M1400 762.93a.5.5 0 0 1 .5-.5h37a.5.5 0 0 1 .5.5v22.97a.5.5 0 0 1-.5.5h-37a.5.5 0 0 1-.5-.5z" fill="#fff" fill-opacity="0"/><path d="M1400.5 763.4a.5.5 0 0 0-.5.5v21.03a.5.5 0 0 0 .5.5h37a.5.5 0 0 0 .5-.5V763.9a.5.5 0 0 0-.5-.5z" stroke="#5e5e5e" fill="#fff"/><use xlink:href="#o" transform="matrix(1,0,0,1,1414.401403440582,762.4334191210949) translate(0.49479166666666696 16.444444444444443)"/><path d="M1605.82 722.32a.5.5 0 0 1 .5-.5h37a.5.5 0 0 1 .5.5v22.97a.5.5 0 0 1-.5.5h-37a.5.5 0 0 1-.5-.5z" fill="#fff" fill-opacity="0"/><path d="M1606.32 722.8a.5.5 0 0 0-.5.5v21.02a.5.5 0 0 0 .5.5h37a.5.5 0 0 0 .5-.5V723.3a.5.5 0 0 0-.5-.5z" stroke="#5e5e5e" fill="#fff"/><use xlink:href="#w" transform="matrix(1,0,0,1,1620.2214509899025,721.8221970791035) translate(0.49479166666666696 16.444444444444443)"/><path d="M1607.82 614.4a.5.5 0 0 1 .5-.5h37a.5.5 0 0 1 .5.5v22.95a.5.5 0 0 1-.5.5h-37a.5.5 0 0 1-.5-.5z" fill="#fff" fill-opacity="0"/><path d="M1608.32 614.85a.5.5 0 0 0-.5.5v21.03a.5.5 0 0 0 .5.5h37a.5.5 0 0 0 .5-.5v-21.03a.5.5 0 0 0-.5-.5z" stroke="#5e5e5e" fill="#fff"/><use xlink:href="#x" transform="matrix(1,0,0,1,1622.223025025306,613.8846970791035) translate(0.49479166666666696 16.444444444444443)"/><path d="M1005.82 722.32a.5.5 0 0 1 .5-.5h37a.5.5 0 0 1 .5.5v22.97a.5.5 0 0 1-.5.5h-37a.5.5 0 0 1-.5-.5z" fill="#fff" fill-opacity="0"/><path d="M1006.32 722.8a.5.5 0 0 0-.5.5v21.02a.5.5 0 0 0 .5.5h37a.5.5 0 0 0 .5-.5V723.3a.5.5 0 0 0-.5-.5z" stroke="#5e5e5e" fill="#fff"/><use xlink:href="#w" transform="matrix(1,0,0,1,1020.2214509899019,721.8221970791035) translate(0.49479166666666696 16.444444444444443)"/><path d="M1005.82 614.4a.5.5 0 0 1 .5-.5h37a.5.5 0 0 1 .5.5v22.95a.5.5 0 0 1-.5.5h-37a.5.5 0 0 1-.5-.5z" fill="#fff" fill-opacity="0"/><path d="M1006.32 614.85a.5.5 0 0 0-.5.5v21.03a.5.5 0 0 0 .5.5h37a.5.5 0 0 0 .5-.5v-21.03a.5.5 0 0 0-.5-.5z" stroke="#5e5e5e" fill="#fff"/><use xlink:href="#w" transform="matrix(1,0,0,1,1020.2214509899022,613.8846970791035) translate(0.49479166666666696 16.444444444444443)"/><path d="M527.9 605.12l102.2 151.82" stroke="#5e5e5e" stroke-width="3" fill="none"/><path d="M529.15 604.33l-2.45 1.64-1.4-2.1h3.54zM632.7 758.18h-3.55l-.3-.45 2.45-1.65z" stroke="#5e5e5e" stroke-width=".05" fill="#5e5e5e"/><path d="M527.9 756.94l102.2-151.82" stroke="#5e5e5e" stroke-width="3" fill="none"/><path d="M529.15 757.73l-.3.45h-3.56l1.4-2.1zM631.3 605.98l-2.45-1.65.3-.46h3.56zM213.23 678.44l-1.87-2.27 42.1-34.68h4.65zm106.05-87.33l-21.9 18.05h-4.65l24.67-20.32z" stroke="#5e5e5e" stroke-width=".05" fill="#5e5e5e"/><path d="M319.5 590.46l.04.27.06.12-.35.3-1.88-2.3 2.13-1.74z" fill="#5e5e5e"/><path stroke="#5e5e5e" stroke-width=".05" fill="#5e5e5e"/><path d="M213.26 678.42l-2.12 1.75v-3.82l.25-.2z" fill="#5e5e5e"/><path stroke="#5e5e5e" stroke-width=".05" fill="#5e5e5e"/><path d="M226.38 625.32a14.67 14.67 0 0 1 14.67-14.67h68.74a14.67 14.67 0 0 1 14.66 14.67A14.67 14.67 0 0 1 309.8 640h-68.75a14.67 14.67 0 0 1-14.67-14.68z" stroke="#5e5e5e" stroke-width="3" fill-opacity="0"/><use xlink:href="#z" transform="matrix(1,0,0,1,238.38413809014068,614.6528495902035) translate(0 14.222222222222223)"/><path d="M319.34 771.05l-1.94 2.22-35.86-31.4h4.48zm-70.24-61.5h-4.48l-33.33-29.2 1.94-2.2z" stroke="#5e5e5e" stroke-width=".05" fill="#5e5e5e"/><path d="M213.27 678.16l-1.95 2.22-.18-.16v-3.92z" fill="#5e5e5e"/><path stroke="#5e5e5e" stroke-width=".05" fill="#5e5e5e"/><path d="M319.7 771.36l-.16.3-.04.27v3.18l-2.13-1.85 1.94-2.22z" fill="#5e5e5e"/><path stroke="#5e5e5e" stroke-width=".05" fill="#5e5e5e"/><path d="M216.28 725.7a14.67 14.67 0 0 1 14.67-14.66h68.74a14.67 14.67 0 0 1 14.66 14.67 14.67 14.67 0 0 1-14.67 14.67h-68.75a14.67 14.67 0 0 1-14.67-14.66z" stroke="#5e5e5e" stroke-width="3" fill-opacity="0"/><use xlink:href="#A" transform="matrix(1,0,0,1,228.28224657757588,715.0385140529118) translate(0 14.222222222222223)"/><path d="M540 793.48h78" stroke="#5e5e5e" stroke-width="3" fill="none"/><path d="M540.04 794.95h-1.54V792h1.54zM619.5 794.95h-1.54V792h1.54z" stroke="#5e5e5e" stroke-width=".05" fill="#5e5e5e"/><path d="M540 567.92h78" stroke="#5e5e5e" stroke-width="3" fill="none"/><path d="M540.04 569.4h-1.54v-2.95h1.54zM619.5 569.4h-1.54v-2.95h1.54z" stroke="#5e5e5e" stroke-width=".05" fill="#5e5e5e"/><path d="M1436.4 592.78l85.2 63.1" stroke="#5e5e5e" stroke-width="3" fill="none"/><path d="M1435.55 594l-2.84-2.1h4.4zM1525.3 656.76h-4.4l1.55-2.1z" stroke="#5e5e5e" stroke-width=".05" fill="#5e5e5e"/><path d="M1437.84 761.6l82.32-56.06" stroke="#5e5e5e" stroke-width="3" fill="none"/><path d="M1438.7 762.8l-.54.36-.07-.07-.1-.06v-.1l-.03-.16-.07-.14-.1-.1-.15-.08-.15-.03h-3.52l3.06-2.08zM1519.9 704.04l.1.05v.1l.03.15.07.14.1.1.15.07.15.03h3.52l-3.06 2.08-1.66-2.44.54-.37z" stroke="#5e5e5e" stroke-width=".05" fill="#5e5e5e"/><path d="M500 758.68a.5.5 0 0 1 .5-.5h37a.5.5 0 0 1 .5.5v22.97a.5.5 0 0 1-.5.5h-37a.5.5 0 0 1-.5-.5z" fill="#fff" fill-opacity="0"/><path d="M500.5 759.15a.5.5 0 0 0-.5.5v21.03a.5.5 0 0 0 .5.5h37a.5.5 0 0 0 .5-.5v-21.03a.5.5 0 0 0-.5-.5z" stroke="#5e5e5e" fill="#fff"/><use xlink:href="#x" transform="matrix(1,0,0,1,514.401403440582,758.183253214361) translate(0.49479166666666696 16.444444444444443)"/><path d="M500 782a.5.5 0 0 1 .5-.5h37a.5.5 0 0 1 .5.5v22.96a.5.5 0 0 1-.5.5h-37a.5.5 0 0 1-.5-.5z" fill="#fff" fill-opacity="0"/><path d="M500.5 782.46a.5.5 0 0 0-.5.5V804a.5.5 0 0 0 .5.5h37a.5.5 0 0 0 .5-.5v-21.04a.5.5 0 0 0-.5-.5z" stroke="#5e5e5e" fill="#fff"/><use xlink:href="#y" transform="matrix(1,0,0,1,514.401403440582,781.492390943846) translate(0.49479166666666696 16.444444444444443)"/><path d="M620 758.68a.5.5 0 0 1 .5-.5h37a.5.5 0 0 1 .5.5v22.97a.5.5 0 0 1-.5.5h-37a.5.5 0 0 1-.5-.5z" fill="#fff" fill-opacity="0"/><path d="M620.5 759.15a.5.5 0 0 0-.5.5v21.03a.5.5 0 0 0 .5.5h37a.5.5 0 0 0 .5-.5v-21.03a.5.5 0 0 0-.5-.5z" stroke="#5e5e5e" fill="#fff"/><use xlink:href="#x" transform="matrix(1,0,0,1,634.401403440582,758.183253214361) translate(0.49479166666666696 16.444444444444443)"/><path d="M620 782a.5.5 0 0 1 .5-.5h37a.5.5 0 0 1 .5.5v22.96a.5.5 0 0 1-.5.5h-37a.5.5 0 0 1-.5-.5z" fill="#fff" fill-opacity="0"/><path d="M620.5 782.46a.5.5 0 0 0-.5.5V804a.5.5 0 0 0 .5.5h37a.5.5 0 0 0 .5-.5v-21.04a.5.5 0 0 0-.5-.5z" stroke="#5e5e5e" fill="#fff"/><use xlink:href="#y" transform="matrix(1,0,0,1,634.401403440582,781.492390943846) translate(0.49479166666666696 16.444444444444443)"/><path d="M500 556.44a.5.5 0 0 1 .5-.5h37a.5.5 0 0 1 .5.5v22.97a.5.5 0 0 1-.5.5h-37a.5.5 0 0 1-.5-.5z" fill="#fff" fill-opacity="0"/><path d="M500.5 556.9a.5.5 0 0 0-.5.5v21.04a.5.5 0 0 0 .5.5h37a.5.5 0 0 0 .5-.5V557.4a.5.5 0 0 0-.5-.5z" stroke="#5e5e5e" fill="#fff"/><use xlink:href="#y" transform="matrix(1,0,0,1,514.401403440582,555.9376558603492) translate(0.49479166666666696 16.444444444444443)"/><path d="M500 580.4a.5.5 0 0 1 .5-.5h37a.5.5 0 0 1 .5.5v22.98a.5.5 0 0 1-.5.5h-37a.5.5 0 0 1-.5-.5z" fill="#fff" fill-opacity="0"/><path d="M500.5 580.88a.5.5 0 0 0-.5.5v21.03a.5.5 0 0 0 .5.5h37a.5.5 0 0 0 .5-.5V581.4a.5.5 0 0 0-.5-.5z" stroke="#5e5e5e" fill="#fff"/><use xlink:href="#x" transform="matrix(1,0,0,1,514.401403440582,579.9064058603492) translate(0.49479166666666696 16.444444444444443)"/><path d="M620 556.44a.5.5 0 0 1 .5-.5h37a.5.5 0 0 1 .5.5v22.97a.5.5 0 0 1-.5.5h-37a.5.5 0 0 1-.5-.5z" fill="#fff" fill-opacity="0"/><path d="M620.5 556.9a.5.5 0 0 0-.5.5v21.04a.5.5 0 0 0 .5.5h37a.5.5 0 0 0 .5-.5V557.4a.5.5 0 0 0-.5-.5z" stroke="#5e5e5e" fill="#fff"/><use xlink:href="#y" transform="matrix(1,0,0,1,634.401403440582,555.9376558603492) translate(0.49479166666666696 16.444444444444443)"/><path d="M620 580.4a.5.5 0 0 1 .5-.5h37a.5.5 0 0 1 .5.5v22.98a.5.5 0 0 1-.5.5h-37a.5.5 0 0 1-.5-.5z" fill="#fff" fill-opacity="0"/><path d="M620.5 580.88a.5.5 0 0 0-.5.5v21.03a.5.5 0 0 0 .5.5h37a.5.5 0 0 0 .5-.5V581.4a.5.5 0 0 0-.5-.5z" stroke="#5e5e5e" fill="#fff"/><use xlink:href="#x" transform="matrix(1,0,0,1,634.401403440582,579.9064058603492) translate(0.49479166666666696 16.444444444444443)"/><path d="M1520 657.26a.5.5 0 0 1 .5-.5h37a.5.5 0 0 1 .5.5v22.97a.5.5 0 0 1-.5.5h-37a.5.5 0 0 1-.5-.5z" fill="#fff" fill-opacity="0"/><path d="M1520.5 657.73a.5.5 0 0 0-.5.5v21.03a.5.5 0 0 0 .5.5h37a.5.5 0 0 0 .5-.5v-21.03a.5.5 0 0 0-.5-.5z" stroke="#5e5e5e" fill="#fff"/><use xlink:href="#y" transform="matrix(1,0,0,1,1534.401403440582,656.7598529394527) translate(0.49479166666666696 16.444444444444443)"/><path d="M1520 681.23a.5.5 0 0 1 .5-.5h37a.5.5 0 0 1 .5.5v22.97a.5.5 0 0 1-.5.5h-37a.5.5 0 0 1-.5-.5z" fill="#fff" fill-opacity="0"/><path d="M1520.5 681.7a.5.5 0 0 0-.5.5v21.03a.5.5 0 0 0 .5.5h37a.5.5 0 0 0 .5-.5V682.2a.5.5 0 0 0-.5-.5z" stroke="#5e5e5e" fill="#fff"/><g><use xlink:href="#o" transform="matrix(1,0,0,1,1534.401403440582,680.7286029394527) translate(0.49479166666666696 16.444444444444443)"/></g><defs><path fill="#fff" d="M1037-902c0 300-189 436-495 441H378V0H115v-1328h427c303 4 495 131 495 426zm-263 0c0-143-81-224-232-224H378v461h164c156 2 232-87 232-237" id="B"/><path fill="#fff" d="M236-180h257c2-279-3-565 3-840L323-871c-27 30-91 18-110-9l-76-104 399-346h198v1150h227V0H236v-180" id="C"/><g id="b"><use transform="matrix(0.013020833333333334,0,0,0.013020833333333334,0,0)" xlink:href="#B"/><use transform="matrix(0.013020833333333334,0,0,0.013020833333333334,14.192708333333334,0)" xlink:href="#C"/></g><filter id="a" filterUnits="objectBoundingBox" x="-.06" y="-.04" width="1.12" height="1.21"><feOffset result="offOut" in="SourceAlpha" dy="6"/><feGaussianBlur result="blurOut" in="offOut" stdDeviation="5"/><feColorMatrix result="colorOut" in="blurOut" values="0 0 0 0 0 0 0 0 0 0 0 0 0 0 0 0 0 0 0.5019607843137255 0"/><feBlend in="SourceGraphic" in2="colorOut"/></filter><path fill="#fff" d="M89-955c40-238 181-388 449-388 250 0 409 134 409 381 0 232-139 347-258 472L407-195c126-46 310-24 475-29 49-1 86 32 85 80V0H69c-2-76 0-138 43-180 161-160 326-321 472-494 63-74 110-153 115-281 6-143-107-217-242-175-61 19-100 69-121 131-19 56-46 79-119 66" id="D"/><g id="d"><use transform="matrix(0.013020833333333334,0,0,0.013020833333333334,0,0)" xlink:href="#B"/><use transform="matrix(0.013020833333333334,0,0,0.013020833333333334,14.192708333333334,0)" xlink:href="#D"/></g><path fill="#fff" d="M928-1328v209H382v351h425v201H382v358h547L928 0H118v-1328h810" id="E"/><path fill="#fff" d="M680-72c-61 52-150 86-256 87-172 2-267-108-267-279v-542c-63-2-138 16-138-53v-101l151-29 53-262c11-66 119-33 188-41v306h245v180H411v525c0 54 23 90 73 93 51 3 85-62 119-7" id="F"/><path fill="#fff" d="M583-811c-92 1-152 44-204 95V0H125v-1437h254v544c73-64 150-119 282-116 225 4 332 151 332 377V0H739v-632c0-109-49-180-156-179" id="G"/><path fill="#fff" d="M960-149C871-45 736 15 551 15 231 15 63-191 63-518c0-229 113-378 277-452 59-26 125-39 199-39 278 0 430 170 430 452 0 55-4 97-59 97H316c14 166 83 276 257 279 98 1 159-38 221-71 33-18 71-20 93 9zM741-612c-4-130-65-216-197-216-140 0-203 89-223 216h420" id="H"/><path fill="#fff" d="M545-767c-109 4-148 72-181 151V0H110v-993c66 5 161-12 204 14 28 28 23 102 33 150 53-94 116-183 244-183 43 0 79 10 107 31l-19 190c-6 59-87 22-134 24" id="I"/><path fill="#fff" d="M582-811c-92 1-152 44-204 95V0H124v-993c65 5 150-14 196 11 30 17 27 71 39 107 74-72 158-134 301-134 225 0 332 151 332 377V0H738v-632c0-109-49-180-156-179" id="J"/><g id="e"><use transform="matrix(0.013020833333333334,0,0,0.013020833333333334,0,0)" xlink:href="#E"/><use transform="matrix(0.013020833333333334,0,0,0.013020833333333334,12.6171875,0)" xlink:href="#F"/><use transform="matrix(0.013020833333333334,0,0,0.013020833333333334,21.861979166666668,0)" xlink:href="#G"/><use transform="matrix(0.013020833333333334,0,0,0.013020833333333334,36.171875,0)" xlink:href="#H"/><use transform="matrix(0.013020833333333334,0,0,0.013020833333333334,49.59635416666667,0)" xlink:href="#I"/><use transform="matrix(0.013020833333333334,0,0,0.013020833333333334,59.07552083333335,0)" xlink:href="#J"/><use transform="matrix(0.013020833333333334,0,0,0.013020833333333334,73.38541666666667,0)" xlink:href="#H"/><use transform="matrix(0.013020833333333334,0,0,0.013020833333333334,86.62760416666667,0)" xlink:href="#F"/></g><path fill="#fff" d="M1240 0h-202c-47 1-76-24-87-58l-84-261H378L295-59c-11 29-44 59-86 59H4l484-1328h268zM437-503h370c-61-196-127-384-186-583-56 202-123 386-184 583" id="K"/><path fill="#fff" d="M237-422C149-472 82-557 82-689c0-216 159-321 379-321 84 0 155 20 212 50h276c-4 65 18 134-54 149l-78 16c77 287-142 467-449 420-41 23-55 80-11 98 131 54 363 5 481 88 55 38 98 94 94 188-7 175-124 268-266 319-160 56-414 25-516-51C94 225 47 170 47 85c0-102 65-154 143-188-45-27-81-71-78-144 4-90 61-138 125-175zm238 589c116 0 216-18 223-125-14-108-163-84-274-96-28-3-56-4-83-7-38 25-74 57-74 114 0 100 100 114 208 114zM312-683c0 93 51 153 149 153 99 0 150-59 150-153 0-96-50-151-150-151-99 0-149 56-149 151" id="L"/><path fill="#fff" d="M534-1012c240 0 371 147 371 387V0c-80-7-186 24-201-53l-22-66C598-47 516 18 362 15 183 12 73-75 73-255c0-177 142-239 303-283 75-20 169-31 281-34 9-142-26-239-155-239-97 0-149 37-209 70-49 27-108 2-128-33l-46-80c103-96 231-158 415-158zM316-268c-2 80 48 110 125 110 107 0 156-41 216-100v-160c-111 5-199 15-269 48-43 21-70 49-72 102" id="M"/><path fill="#fff" d="M379-993V0H125v-993h254zm-132-444c97 0 163 62 163 159 0 96-66 158-163 158-94 0-157-63-157-158s62-159 157-159" id="N"/><path fill="#fff" d="M352-974c116-47 283-48 399 0 177 72 288 230 288 475 0 247-110 405-288 478-116 48-283 48-399 0C173-94 62-251 62-499c0-246 112-403 290-475zm-28 477c0 189 54 318 228 318 172 0 225-131 225-318s-53-318-225-318c-174 0-228 130-228 318" id="O"/><g id="f"><use transform="matrix(0.013020833333333334,0,0,0.013020833333333334,0,0)" xlink:href="#K"/><use transform="matrix(0.013020833333333334,0,0,0.013020833333333334,16.158854166666668,0)" xlink:href="#L"/><use transform="matrix(0.013020833333333334,0,0,0.013020833333333334,29.0234375,0)" xlink:href="#L"/><use transform="matrix(0.013020833333333334,0,0,0.013020833333333334,41.66666666666667,0)" xlink:href="#I"/><use transform="matrix(0.013020833333333334,0,0,0.013020833333333334,50.84635416666667,0)" xlink:href="#H"/><use transform="matrix(0.013020833333333334,0,0,0.013020833333333334,64.27083333333334,0)" xlink:href="#L"/><use transform="matrix(0.013020833333333334,0,0,0.013020833333333334,76.45833333333334,0)" xlink:href="#M"/><use transform="matrix(0.013020833333333334,0,0,0.013020833333333334,89.37500000000001,0)" xlink:href="#F"/><use transform="matrix(0.013020833333333334,0,0,0.013020833333333334,98.61979166666669,0)" xlink:href="#N"/><use transform="matrix(0.013020833333333334,0,0,0.013020833333333334,105.16927083333336,0)" xlink:href="#O"/><use transform="matrix(0.013020833333333334,0,0,0.013020833333333334,119.50520833333336,0)" xlink:href="#J"/></g><g id="g"><use transform="matrix(0.013020833333333334,0,0,0.013020833333333334,0,0)" xlink:href="#B"/><use transform="matrix(0.013020833333333334,0,0,0.013020833333333334,14.192708333333334,0)" xlink:href="#E"/><use transform="matrix(0.013020833333333334,0,0,0.013020833333333334,27.200520833333336,0)" xlink:href="#D"/></g><path fill="#fff" d="M1063-193C972-66 836 14 625 14 325 14 160-160 82-392c-55-162-54-387 4-546 84-230 253-399 553-405 185-4 321 74 409 173-37 47-65 102-108 143-52 29-90-19-122-42-68-49-222-71-314-21-130 72-193 222-193 425 0 205 69 355 201 427 92 51 249 32 318-20 30-23 81-99 128-48" id="P"/><path fill="#fff" d="M439 15c-225-4-332-150-332-377v-631h254v631c0 110 48 181 156 180 91-1 152-46 204-95v-716h254V0c-65-5-152 14-197-12-30-17-26-70-39-106C664-46 580 18 439 15" id="Q"/><path fill="#fff" d="M80-702c6-234 206-338 457-298 93 15 166 59 220 115-26 37-46 85-79 115-8 4-17 7-28 7-73 0-113-61-203-61-94 0-160 79-107 152 93 83 270 88 356 179 39 42 70 95 69 176C761-63 553 47 286 6 191-9 109-52 51-106c29-40 47-92 85-123 77-33 115 38 178 55 22 6 48 12 80 12 81 0 133-35 133-110 0-69-60-91-116-111C252-440 75-483 80-702" id="R"/><path fill="#fff" d="M559-811c-82 0-133 41-177 88V0H128v-993c65 5 150-14 196 11 30 16 27 69 39 104 67-68 139-130 270-131 135-1 210 82 248 184 57-113 162-184 324-184 235 0 350 140 350 377V0h-254v-632c0-119-53-179-160-179-110 0-172 67-172 179V0H715v-632c1-120-46-179-156-179" id="S"/><g id="h"><use transform="matrix(0.013020833333333334,0,0,0.013020833333333334,0,0)" xlink:href="#P"/><use transform="matrix(0.013020833333333334,0,0,0.013020833333333334,14.114583333333334,0)" xlink:href="#Q"/><use transform="matrix(0.013020833333333334,0,0,0.013020833333333334,28.424479166666668,0)" xlink:href="#R"/><use transform="matrix(0.013020833333333334,0,0,0.013020833333333334,38.763020833333336,0)" xlink:href="#F"/><use transform="matrix(0.013020833333333334,0,0,0.013020833333333334,47.74739583333334,0)" xlink:href="#O"/><use transform="matrix(0.013020833333333334,0,0,0.013020833333333334,62.08333333333335,0)" xlink:href="#S"/><use transform="matrix(0.013020833333333334,0,0,0.013020833333333334,83.77604166666669,0)" xlink:href="#H"/><use transform="matrix(0.013020833333333334,0,0,0.013020833333333334,97.20052083333336,0)" xlink:href="#I"/><use transform="matrix(0.013020833333333334,0,0,0.013020833333333334,106.67968750000003,0)" xlink:href="#C"/></g><g id="i"><use transform="matrix(0.013020833333333334,0,0,0.013020833333333334,0,0)" xlink:href="#P"/><use transform="matrix(0.013020833333333334,0,0,0.013020833333333334,14.114583333333334,0)" xlink:href="#B"/><use transform="matrix(0.013020833333333334,0,0,0.013020833333333334,28.307291666666668,0)" xlink:href="#E"/><use transform="matrix(0.013020833333333334,0,0,0.013020833333333334,41.31510416666667,0)" xlink:href="#C"/></g><g id="j"><use transform="matrix(0.013020833333333334,0,0,0.013020833333333334,0,0)" xlink:href="#B"/><use transform="matrix(0.013020833333333334,0,0,0.013020833333333334,14.192708333333334,0)" xlink:href="#E"/><use transform="matrix(0.013020833333333334,0,0,0.013020833333333334,27.200520833333336,0)" xlink:href="#C"/></g><path fill="#333" d="M147 0H94L2-248h55l64 206c17-72 42-137 63-206h54" id="T"/><path fill="#333" d="M24 0v-248h52v208h133V0H24" id="U"/><path fill="#333" d="M199 0l-22-63H83L61 0H9l90-248h61L250 0h-51zm-33-102l-36-108c-10 38-24 72-36 108h72" id="V"/><path fill="#333" d="M175 0L67-191c6 58 2 128 3 191H24v-248h59L193-55c-6-58-2-129-3-193h46V0h-61" id="W"/><g id="k"><use transform="matrix(0.04938271604938272,0,0,0.04938271604938272,0,0)" xlink:href="#T"/><use transform="matrix(0.04938271604938272,0,0,0.04938271604938272,11.851851851851853,0)" xlink:href="#U"/><use transform="matrix(0.04938271604938272,0,0,0.04938271604938272,22.666666666666668,0)" xlink:href="#V"/><use transform="matrix(0.04938271604938272,0,0,0.04938271604938272,35.45679012345679,0)" xlink:href="#W"/></g><path fill="#333" d="M23 0v-37h61v-169l-59 37v-38l62-41h46v211h57V0H23" id="X"/><path fill="#333" d="M101-251c68 0 84 54 84 127C185-50 166 4 99 4S15-52 14-124c-1-75 17-127 87-127zm-1 216c37-5 36-46 36-89s4-89-36-89c-39 0-36 45-36 89 0 43-3 85 36 89" id="Y"/><g id="l"><use transform="matrix(0.04938271604938272,0,0,0.04938271604938272,0,0)" xlink:href="#X"/><use transform="matrix(0.04938271604938272,0,0,0.04938271604938272,9.876543209876544,0)" xlink:href="#Y"/></g><g id="m"><use transform="matrix(0.013020833333333334,0,0,0.013020833333333334,0,0)" xlink:href="#P"/><use transform="matrix(0.013020833333333334,0,0,0.013020833333333334,14.114583333333334,0)" xlink:href="#Q"/><use transform="matrix(0.013020833333333334,0,0,0.013020833333333334,28.424479166666668,0)" xlink:href="#R"/><use transform="matrix(0.013020833333333334,0,0,0.013020833333333334,38.763020833333336,0)" xlink:href="#F"/><use transform="matrix(0.013020833333333334,0,0,0.013020833333333334,47.74739583333334,0)" xlink:href="#O"/><use transform="matrix(0.013020833333333334,0,0,0.013020833333333334,62.08333333333335,0)" xlink:href="#S"/><use transform="matrix(0.013020833333333334,0,0,0.013020833333333334,83.77604166666669,0)" xlink:href="#H"/><use transform="matrix(0.013020833333333334,0,0,0.013020833333333334,97.20052083333336,0)" xlink:href="#I"/><use transform="matrix(0.013020833333333334,0,0,0.013020833333333334,106.67968750000003,0)" xlink:href="#D"/></g><path fill="#fff" d="M1018-942c0 206-115 318-270 377 36 21 66 45 88 81L1133 0H896c-42 0-76-17-97-53L557-467c-20-31-37-43-86-44h-89V0H118v-1328h400c295 3 500 102 500 386zm-256 18c0-141-92-203-244-202H382v428h134c155-2 246-74 246-226" id="Z"/><g id="n"><use transform="matrix(0.013020833333333334,0,0,0.013020833333333334,0,0)" xlink:href="#Z"/><use transform="matrix(0.013020833333333334,0,0,0.013020833333333334,15.013020833333334,0)" xlink:href="#Z"/><use transform="matrix(0.013020833333333334,0,0,0.013020833333333334,30.026041666666668,0)" xlink:href="#C"/></g><path d="M113-955c38-239 181-388 448-388 186 0 310 81 369 209 18 42 27 87 27 134 1 168-77 256-203 297 151 51 227 154 227 307C981-126 800 8 532 14 260 20 143-131 76-338c63-25 186-102 236-14 46 82 93 164 218 164 130 0 203-76 210-200 9-175-112-206-288-206v-171c158-2 269-37 269-193 0-117-60-182-173-183-99-1-165 67-190 142-19 57-44 79-118 66" id="aa"/><use transform="matrix(0.008680555555555554,0,0,0.008680555555555554,0,0)" xlink:href="#aa" id="o"/><path fill="#fff" d="M113-955c38-239 181-388 448-388 186 0 310 81 369 209 18 42 27 87 27 134 1 168-77 256-203 297 151 51 227 154 227 307C981-126 800 8 532 14 260 20 143-131 76-338c63-25 186-102 236-14 46 82 93 164 218 164 130 0 203-76 210-200 9-175-112-206-288-206v-171c158-2 269-37 269-193 0-117-60-182-173-183-99-1-165 67-190 142-19 57-44 79-118 66" id="ab"/><g id="p"><use transform="matrix(0.013020833333333334,0,0,0.013020833333333334,0,0)" xlink:href="#B"/><use transform="matrix(0.013020833333333334,0,0,0.013020833333333334,14.192708333333334,0)" xlink:href="#ab"/></g><path fill="#fff" d="M1007-505c-9 70 29 185-49 186H854V0H644v-319H105c-83-4-69-108-90-173l609-837h230v824h153zm-363 0c3-182-8-376 8-546L269-505h375" id="ac"/><g id="q"><use transform="matrix(0.013020833333333334,0,0,0.013020833333333334,0,0)" xlink:href="#B"/><use transform="matrix(0.013020833333333334,0,0,0.013020833333333334,14.192708333333334,0)" xlink:href="#ac"/></g><g id="r"><use transform="matrix(0.013020833333333334,0,0,0.013020833333333334,0,0)" xlink:href="#B"/><use transform="matrix(0.013020833333333334,0,0,0.013020833333333334,14.192708333333334,0)" xlink:href="#E"/><use transform="matrix(0.013020833333333334,0,0,0.013020833333333334,27.200520833333336,0)" xlink:href="#ab"/></g><g id="s"><use transform="matrix(0.013020833333333334,0,0,0.013020833333333334,0,0)" xlink:href="#P"/><use transform="matrix(0.013020833333333334,0,0,0.013020833333333334,14.114583333333334,0)" xlink:href="#Q"/><use transform="matrix(0.013020833333333334,0,0,0.013020833333333334,28.424479166666668,0)" xlink:href="#F"/><use transform="matrix(0.013020833333333334,0,0,0.013020833333333334,37.40885416666667,0)" xlink:href="#O"/><use transform="matrix(0.013020833333333334,0,0,0.013020833333333334,51.74479166666667,0)" xlink:href="#S"/><use transform="matrix(0.013020833333333334,0,0,0.013020833333333334,73.4375,0)" xlink:href="#H"/><use transform="matrix(0.013020833333333334,0,0,0.013020833333333334,86.86197916666667,0)" xlink:href="#I"/><use transform="matrix(0.013020833333333334,0,0,0.013020833333333334,96.34114583333334,0)" xlink:href="#C"/></g><g id="t"><use transform="matrix(0.013020833333333334,0,0,0.013020833333333334,0,0)" xlink:href="#P"/><use transform="matrix(0.013020833333333334,0,0,0.013020833333333334,14.114583333333334,0)" xlink:href="#B"/><use transform="matrix(0.013020833333333334,0,0,0.013020833333333334,28.307291666666668,0)" xlink:href="#E"/><use transform="matrix(0.013020833333333334,0,0,0.013020833333333334,41.31510416666667,0)" xlink:href="#D"/></g><g id="u"><use transform="matrix(0.013020833333333334,0,0,0.013020833333333334,0,0)" xlink:href="#Z"/><use transform="matrix(0.013020833333333334,0,0,0.013020833333333334,15.013020833333334,0)" xlink:href="#Z"/><use transform="matrix(0.013020833333333334,0,0,0.013020833333333334,30.026041666666668,0)" xlink:href="#D"/></g><path fill="#333" d="M182-182c0 78-84 86-111 141h115V0H12c-6-101 99-100 120-180 1-22-12-31-33-32-23 0-32 14-35 34l-49-3c5-45 32-70 84-70 51 0 83 22 83 69" id="ad"/><g id="v"><use transform="matrix(0.04938271604938272,0,0,0.04938271604938272,0,0)" xlink:href="#ad"/><use transform="matrix(0.04938271604938272,0,0,0.04938271604938272,9.876543209876544,0)" xlink:href="#Y"/></g><path d="M1007-505c-9 70 29 185-49 186H854V0H644v-319H105c-83-4-69-108-90-173l609-837h230v824h153zm-363 0c3-182-8-376 8-546L269-505h375" id="ae"/><use transform="matrix(0.008680555555555554,0,0,0.008680555555555554,0,0)" xlink:href="#ae" id="w"/><path d="M89-955c40-238 181-388 449-388 250 0 409 134 409 381 0 232-139 347-258 472L407-195c126-46 310-24 475-29 49-1 86 32 85 80V0H69c-2-76 0-138 43-180 161-160 326-321 472-494 63-74 110-153 115-281 6-143-107-217-242-175-61 19-100 69-121 131-19 56-46 79-119 66" id="af"/><use transform="matrix(0.008680555555555554,0,0,0.008680555555555554,0,0)" xlink:href="#af" id="x"/><path d="M236-180h257c2-279-3-565 3-840L323-871c-27 30-91 18-110-9l-76-104 399-346h198v1150h227V0H236v-180" id="ag"/><use transform="matrix(0.008680555555555554,0,0,0.008680555555555554,0,0)" xlink:href="#ag" id="y"/><path fill="#333" d="M128-127c34 4 56 21 59 58 7 91-148 94-172 28-4-9-6-17-7-26l51-5c1 24 16 35 40 36 23 0 39-12 38-36-1-31-31-36-65-34v-40c32 2 59-3 59-33 0-20-13-33-34-33s-33 13-35 32l-50-3c6-44 37-68 86-68 50 0 83 20 83 66 0 35-22 52-53 58" id="ah"/><path fill="#333" d="M24 0v-54h51V0H24" id="ai"/><path fill="#333" d="M4 7l51-268h42L46 7H4" id="aj"/><g id="z"><use transform="matrix(0.04938271604938272,0,0,0.04938271604938272,0,0)" xlink:href="#ah"/><use transform="matrix(0.04938271604938272,0,0,0.04938271604938272,9.876543209876544,0)" xlink:href="#ai"/><use transform="matrix(0.04938271604938272,0,0,0.04938271604938272,14.814814814814817,0)" xlink:href="#X"/><use transform="matrix(0.04938271604938272,0,0,0.04938271604938272,24.69135802469136,0)" xlink:href="#Y"/><use transform="matrix(0.04938271604938272,0,0,0.04938271604938272,34.567901234567906,0)" xlink:href="#aj"/><use transform="matrix(0.04938271604938272,0,0,0.04938271604938272,39.50617283950618,0)" xlink:href="#ah"/><use transform="matrix(0.04938271604938272,0,0,0.04938271604938272,49.38271604938272,0)" xlink:href="#ai"/><use transform="matrix(0.04938271604938272,0,0,0.04938271604938272,54.320987654320994,0)" xlink:href="#ad"/><use transform="matrix(0.04938271604938272,0,0,0.04938271604938272,64.19753086419755,0)" xlink:href="#Y"/></g><path fill="#333" d="M165-50V0h-47v-50H5v-38l105-160h55v161h33v37h-33zm-47-37l2-116L46-87h72" id="ak"/><g id="A"><use transform="matrix(0.04938271604938272,0,0,0.04938271604938272,0,0)" xlink:href="#ak"/><use transform="matrix(0.04938271604938272,0,0,0.04938271604938272,9.876543209876544,0)" xlink:href="#ai"/><use transform="matrix(0.04938271604938272,0,0,0.04938271604938272,14.814814814814817,0)" xlink:href="#X"/><use transform="matrix(0.04938271604938272,0,0,0.04938271604938272,24.69135802469136,0)" xlink:href="#Y"/><use transform="matrix(0.04938271604938272,0,0,0.04938271604938272,34.567901234567906,0)" xlink:href="#aj"/><use transform="matrix(0.04938271604938272,0,0,0.04938271604938272,39.50617283950618,0)" xlink:href="#ak"/><use transform="matrix(0.04938271604938272,0,0,0.04938271604938272,49.38271604938272,0)" xlink:href="#ai"/><use transform="matrix(0.04938271604938272,0,0,0.04938271604938272,54.320987654320994,0)" xlink:href="#ad"/><use transform="matrix(0.04938271604938272,0,0,0.04938271604938272,64.19753086419755,0)" xlink:href="#Y"/></g></defs></g></svg>