<svg xmlns="http://www.w3.org/2000/svg" xmlns:xlink="http://www.w3.org/1999/xlink" xmlns:lucid="lucid" width="1523" height="456.83"><g transform="translate(-1758.5 -598.5)" lucid:page-tab-id="nR6nZng5vfvq"><path d="M1780 626a6 6 0 0 1 6-6h1468a6 6 0 0 1 6 6v401.83a6 6 0 0 1-6 6H1786a6 6 0 0 1-6-6z" stroke="#dfe3e8" stroke-width="3" fill="#dfe3e8"/><use xlink:href="#a" transform="matrix(1,0,0,1,1785,625) translate(666.3346354166667 19.999999999999996)"/><use xlink:href="#b" transform="matrix(1,0,0,1,1785,625) translate(718.49609375 19.999999999999996)"/><g filter="url(#c)"><path d="M2121.3 699.86a.5.5 0 0 1 .5-.5h168.65a.5.5 0 0 1 .5.5v93.42a.5.5 0 0 1-.5.5H2121.8a.5.5 0 0 1-.5-.5z" fill="#fff" fill-opacity="0"/><path d="M2121.8 699.36a.5.5 0 0 0-.5.5v93.42a.5.5 0 0 0 .5.5h168.65a.5.5 0 0 0 .5-.5v-93.42a.5.5 0 0 0-.5-.5z" stroke="#ced4db" stroke-width="3" fill="#ced4db"/><use xlink:href="#d" transform="matrix(1,0,0,1,2131.1493308179574,710.4110573786364) translate(61.14583333333333 43.166666666666664)"/></g><g filter="url(#c)"><path d="M2121.3 902.44a.5.5 0 0 1 .5-.5h168.65a.5.5 0 0 1 .5.5v93.42a.5.5 0 0 1-.5.5H2121.8a.5.5 0 0 1-.5-.5z" fill="#fff" fill-opacity="0"/><path d="M2121.8 901.94a.5.5 0 0 0-.5.5v93.42a.5.5 0 0 0 .5.5h168.65a.5.5 0 0 0 .5-.5v-93.42a.5.5 0 0 0-.5-.5z" stroke="#ced4db" stroke-width="3" fill="#ced4db"/><use xlink:href="#e" transform="matrix(1,0,0,1,2131.1493308179574,912.9864608679057) translate(55.1171875 43.166666666666664)"/><use xlink:href="#f" transform="matrix(1,0,0,1,2131.1493308179574,912.9864608679057) translate(67.17447916666667 43.166666666666664)"/></g><g filter="url(#c)"><path d="M1821.3 902.44a.5.5 0 0 1 .5-.5h168.65a.5.5 0 0 1 .5.5v93.42a.5.5 0 0 1-.5.5H1821.8a.5.5 0 0 1-.5-.5z" fill="#fff" fill-opacity="0"/><path d="M1821.8 901.94a.5.5 0 0 0-.5.5v93.42a.5.5 0 0 0 .5.5h168.65a.5.5 0 0 0 .5-.5v-93.42a.5.5 0 0 0-.5-.5z" stroke="#315796" stroke-width="3" fill="#315796"/><use xlink:href="#g" transform="matrix(1,0,0,1,1831.149330817958,912.9864608679057) translate(54.64192708333333 43.166666666666664)"/></g><g filter="url(#c)"><path d="M1821.3 699.86a.5.5 0 0 1 .5-.5h168.65a.5.5 0 0 1 .5.5v93.42a.5.5 0 0 1-.5.5H1821.8a.5.5 0 0 1-.5-.5z" fill="#fff" fill-opacity="0"/><path d="M1821.8 699.36a.5.5 0 0 0-.5.5v93.42a.5.5 0 0 0 .5.5h168.65a.5.5 0 0 0 .5-.5v-93.42a.5.5 0 0 0-.5-.5z" stroke="#315796" stroke-width="3" fill="#315796"/><use xlink:href="#h" transform="matrix(1,0,0,1,1831.149330817958,710.4110573786364) translate(54.64192708333333 43.166666666666664)"/></g><g filter="url(#c)"><path d="M2421.3 699.86a.5.5 0 0 1 .5-.5h168.65a.5.5 0 0 1 .5.5v93.42a.5.5 0 0 1-.5.5H2421.8a.5.5 0 0 1-.5-.5z" fill="#fff" fill-opacity="0"/><path d="M2421.8 699.36a.5.5 0 0 0-.5.5v93.42a.5.5 0 0 0 .5.5h168.65a.5.5 0 0 0 .5-.5v-93.42a.5.5 0 0 0-.5-.5z" stroke="#315796" stroke-width="3" fill="#315796"/><use xlink:href="#i" transform="matrix(1,0,0,1,2431.1493308179574,710.4110573786364) translate(53.229166666666664 43.166666666666664)"/></g><g filter="url(#c)"><path d="M2721.3 699.86a.5.5 0 0 1 .5-.5h168.65a.5.5 0 0 1 .5.5v93.42a.5.5 0 0 1-.5.5H2721.8a.5.5 0 0 1-.5-.5z" fill="#fff" fill-opacity="0"/><path d="M2721.8 699.36a.5.5 0 0 0-.5.5v93.42a.5.5 0 0 0 .5.5h168.65a.5.5 0 0 0 .5-.5v-93.42a.5.5 0 0 0-.5-.5z" stroke="#ced4db" stroke-width="3" fill="#ced4db"/><use xlink:href="#j" transform="matrix(1,0,0,1,2731.149330817957,710.4110573786364) translate(61.14583333333333 43.166666666666664)"/></g><g filter="url(#c)"><path d="M2721.3 894.38a.5.5 0 0 1 .5-.5h168.65a.5.5 0 0 1 .5.5v93.4a.5.5 0 0 1-.5.5H2721.8a.5.5 0 0 1-.5-.5z" fill="#fff" fill-opacity="0"/><path d="M2721.8 893.88a.5.5 0 0 0-.5.5v93.4a.5.5 0 0 0 .5.5h168.65a.5.5 0 0 0 .5-.5v-93.4a.5.5 0 0 0-.5-.5z" stroke="#ced4db" stroke-width="3" fill="#ced4db"/><use xlink:href="#k" transform="matrix(1,0,0,1,2731.149330817957,904.9224456393822) translate(61.14583333333333 43.166666666666664)"/></g><g filter="url(#c)"><path d="M3061.3 799.96a.5.5 0 0 1 .5-.5h168.65a.5.5 0 0 1 .5.5v93.42a.5.5 0 0 1-.5.5H3061.8a.5.5 0 0 1-.5-.5z" fill="#fff" fill-opacity="0"/><path d="M3061.8 799.46a.5.5 0 0 0-.5.5v93.42a.5.5 0 0 0 .5.5h168.65a.5.5 0 0 0 .5-.5v-93.42a.5.5 0 0 0-.5-.5z" stroke="#315796" stroke-width="3" fill="#315796"/><use xlink:href="#l" transform="matrix(1,0,0,1,3071.1493308179574,810.5046515182873) translate(54.64192708333333 43.166666666666664)"/></g><g filter="url(#c)"><path d="M2421.3 902.44a.5.5 0 0 1 .5-.5h168.65a.5.5 0 0 1 .5.5v93.42a.5.5 0 0 1-.5.5H2421.8a.5.5 0 0 1-.5-.5z" fill="#fff" fill-opacity="0"/><path d="M2421.8 901.94a.5.5 0 0 0-.5.5v93.42a.5.5 0 0 0 .5.5h168.65a.5.5 0 0 0 .5-.5v-93.42a.5.5 0 0 0-.5-.5z" stroke="#315796" stroke-width="3" fill="#315796"/><use xlink:href="#m" transform="matrix(1,0,0,1,2431.1493308179574,912.9864608679057) translate(53.229166666666664 43.166666666666664)"/></g><path d="M1980 937.66a.5.5 0 0 1 .5-.5h37a.5.5 0 0 1 .5.5v22.97a.5.5 0 0 1-.5.5h-37a.5.5 0 0 1-.5-.5z" fill="#fff" fill-opacity="0"/><path d="M1980.5 938.13a.5.5 0 0 0-.5.5v21.03a.5.5 0 0 0 .5.5h37a.5.5 0 0 0 .5-.5v-21.03a.5.5 0 0 0-.5-.5z" stroke="#5e5e5e" fill="#fff"/><use xlink:href="#n" transform="matrix(1,0,0,1,1994.401403440582,937.164101016285) translate(-7.903645833333332 16.444444444444443)"/><path d="M2506.13 824.6v4.86m0 6.48v9.74m0 6.5v9.72m0 6.5v4.86" stroke="#e08fff" stroke-width="3" fill="none"/><path d="M2506.13 808.82l4.63 14.27h-9.27zM2506.13 889.02l-4.64-14.26h9.26z" stroke="#e08fff" stroke-width="3" fill="#e08fff"/><path d="M2394.26 937.66a.5.5 0 0 1 .5-.5h37a.5.5 0 0 1 .5.5v22.97a.5.5 0 0 1-.5.5h-37a.5.5 0 0 1-.5-.5z" fill="#fff" fill-opacity="0"/><path d="M2394.76 938.13a.5.5 0 0 0-.5.5v21.03a.5.5 0 0 0 .5.5h37a.5.5 0 0 0 .5-.5v-21.03a.5.5 0 0 0-.5-.5z" stroke="#5e5e5e" fill="#fff"/><use xlink:href="#n" transform="matrix(1,0,0,1,2408.662091731803,937.164101016285) translate(-7.903645833333332 16.444444444444443)"/><path d="M2394.26 735.1a.5.5 0 0 1 .5-.5h37a.5.5 0 0 1 .5.5v22.96a.5.5 0 0 1-.5.5h-37a.5.5 0 0 1-.5-.5z" fill="#fff" fill-opacity="0"/><path d="M2394.76 735.56a.5.5 0 0 0-.5.5v21.03a.5.5 0 0 0 .5.5h37a.5.5 0 0 0 .5-.5v-21.04a.5.5 0 0 0-.5-.5z" stroke="#5e5e5e" fill="#fff"/><use xlink:href="#n" transform="matrix(1,0,0,1,2408.662091731803,734.5886975270157) translate(-7.903645833333332 16.444444444444443)"/><path d="M2580 937.66a.5.5 0 0 1 .5-.5h37a.5.5 0 0 1 .5.5v22.97a.5.5 0 0 1-.5.5h-37a.5.5 0 0 1-.5-.5z" fill="#fff" fill-opacity="0"/><path d="M2580.5 938.13a.5.5 0 0 0-.5.5v21.03a.5.5 0 0 0 .5.5h37a.5.5 0 0 0 .5-.5v-21.03a.5.5 0 0 0-.5-.5z" stroke="#5e5e5e" fill="#fff"/><use xlink:href="#n" transform="matrix(1,0,0,1,2594.4014034405823,937.164101016285) translate(-7.903645833333332 16.444444444444443)"/><path d="M2487.13 780.5a.5.5 0 0 1 .5-.5h37a.5.5 0 0 1 .5.5v22.97a.5.5 0 0 1-.5.5h-37a.5.5 0 0 1-.5-.5z" fill="#fff" fill-opacity="0"/><path d="M2487.63 780.97a.5.5 0 0 0-.5.5v21.03a.5.5 0 0 0 .5.5h37a.5.5 0 0 0 .5-.5v-21.03a.5.5 0 0 0-.5-.5z" stroke="#5e5e5e" fill="#fff"/><use xlink:href="#n" transform="matrix(1,0,0,1,2501.5317475861925,780) translate(-7.903645833333332 16.444444444444443)"/><path d="M2487.13 894.38a.5.5 0 0 1 .5-.5h37a.5.5 0 0 1 .5.5v22.96a.5.5 0 0 1-.5.5h-37a.5.5 0 0 1-.5-.5z" fill="#fff" fill-opacity="0"/><path d="M2487.63 894.85a.5.5 0 0 0-.5.5v21.02a.5.5 0 0 0 .5.5h37a.5.5 0 0 0 .5-.5v-21.02a.5.5 0 0 0-.5-.5z" stroke="#5e5e5e" fill="#fff"/><use xlink:href="#n" transform="matrix(1,0,0,1,2501.5317475861925,893.8755637272141) translate(-7.903645833333332 16.444444444444443)"/><path d="M1821.3 627.96h207.45v38.3H1821.3z" fill="none"/><use xlink:href="#o" transform="matrix(1,0,0,1,1821.31029659629,627.9567372252336) translate(52.80246913580247 25.27777777777778)"/><path d="M1828.93 675.68h-4.38v-2.95h4.38zm14.6 0h-8.76v-2.95h8.76zm14.6 0h-8.76v-2.95h8.76zm14.6 0h-8.76v-2.95h8.76zm11.75 0h-5.9v-2.95h5.9zm105.05 0h-8.76v-2.95h8.76zm14.6 0h-8.76v-2.95h8.76zm14.6 0h-8.76v-2.95h8.76zm10.22 0h-4.38v-2.95h4.38zm-54.02 0h-5.9v-2.95h5.9z" stroke="#e08fff" stroke-width=".05" fill="#e08fff"/><path d="M1824.6 675.68h-1.55v-2.95h1.54zM2030.45 675.68h-1.54v-2.95h1.55z" stroke="#e08fff" stroke-width=".05" fill="#e08fff"/><use xlink:href="#p" transform="matrix(1,0,0,1,1884.479213025696,663.5415705204999) translate(0 14.222222222222223)"/><use xlink:href="#q" transform="matrix(1,0,0,1,1884.479213025696,663.5415705204999) translate(48.00000000000001 14.222222222222223)"/><path d="M2039.12 746.57h4.55m6.08 0h9.1m6.08 0h9.1m6.08 0h9.12m6.08 0h9.1m6.08 0h9.1m6.08 0h9.1m6.08 0h9.1m6.1 0h9.1m6.07 0h9.12m6.07 0h9.1m6.07 0h9.1m6.1 0h9.1m6.07 0h9.1m6.08 0h9.1m6.1 0h9.1m6.07 0h9.1m6.07 0h9.1m6.1 0h9.1m6.07 0h9.1m6.08 0h9.1m6.08 0h9.1m6.1 0h4.54" stroke="#e08fff" stroke-width="3" fill="none"/><path d="M2023.35 746.57l14.27-4.63v9.27zM2388.9 746.57l-14.26 4.64v-9.26z" stroke="#e08fff" stroke-width="3" fill="#e08fff"/><path d="M2037.02 765.17l4.06 1.98m5.4 2.65l8.13 3.97m5.42 2.64l8.12 3.98m5.4 2.65l8.13 3.97m5.4 2.64l8.13 3.97m5.4 2.66l8.12 3.97m5.42 2.64l8.1 3.97m5.42 2.65l8.12 3.96m5.4 2.65l8.13 3.98m5.42 2.64l8.12 3.97m5.4 2.64l8.13 3.97m5.4 2.65l8.13 3.97m5.4 2.65l8.12 3.97m5.4 2.64l8.13 3.97m5.4 2.65l8.13 3.97m5.4 2.64l8.13 3.98m5.42 2.65l8.12 3.97m5.4 2.65l8.13 3.97m5.4 2.64l8.13 3.97m5.4 2.65l8.12 3.97m5.4 2.64l8.13 3.96m5.4 2.65l8.13 3.98m5.4 2.64l8.13 3.97m5.42 2.64l8.12 3.97m5.4 2.66l8.13 3.96m5.4 2.65l4.07 1.98" stroke="#e08fff" stroke-width="3" fill="none"/><path d="M2022.86 758.24l14.85 2.1-4.06 8.33zM2389.4 937.48l-14.85-2.1 4.07-8.33z" stroke="#e08fff" stroke-width="3" fill="#e08fff"/><path d="M2037.02 930.55l4.06-1.98m5.4-2.65l8.13-3.96m5.42-2.65l8.12-3.96m5.4-2.65l8.13-3.98m5.4-2.64l8.13-3.97m5.4-2.64l8.12-3.97m5.42-2.65l8.1-3.97m5.42-2.65l8.12-3.97m5.4-2.64l8.13-3.97m5.42-2.65l8.12-3.97m5.4-2.65l8.13-3.97m5.4-2.63l8.13-3.97m5.4-2.65l8.12-3.97m5.4-2.64l8.13-3.97m5.4-2.65l8.13-3.97m5.4-2.64l8.13-3.96m5.42-2.65l8.12-3.98m5.4-2.64l8.13-3.97m5.4-2.64l8.13-3.97m5.4-2.66l8.12-3.97m5.4-2.64l8.13-3.97m5.4-2.65l8.13-3.96m5.4-2.64l8.13-3.97m5.42-2.65l8.12-3.97m5.4-2.63l8.13-3.97m5.4-2.65l4.07-1.98" stroke="#e08fff" stroke-width="3" fill="none"/><path d="M2022.86 937.48l10.78-10.43 4.07 8.33zM2389.4 758.24l-10.78 10.43-4.07-8.33z" stroke="#e08fff" stroke-width="3" fill="#e08fff"/><path d="M2039.12 949.15h4.55m6.08 0h9.1m6.08 0h9.1m6.08 0h9.12m6.08 0h9.1m6.08 0h9.1m6.08 0h9.1m6.08 0h9.1m6.1 0h9.1m6.07 0h9.12m6.07 0h9.1m6.07 0h9.1m6.1 0h9.1m6.07 0h9.1m6.08 0h9.1m6.1 0h9.1m6.07 0h9.1m6.07 0h9.1m6.1 0h9.1m6.07 0h9.1m6.08 0h9.1m6.08 0h9.1m6.1 0h4.54" stroke="#e08fff" stroke-width="3" fill="none"/><path d="M2023.35 949.15l14.27-4.64v9.28zM2388.9 949.15l-14.26 4.63v-9.27z" stroke="#e08fff" stroke-width="3" fill="#e08fff"/><path d="M1980 735.1a.5.5 0 0 1 .5-.5h37a.5.5 0 0 1 .5.5v22.96a.5.5 0 0 1-.5.5h-37a.5.5 0 0 1-.5-.5z" fill="#fff" fill-opacity="0"/><path d="M1980.5 735.56a.5.5 0 0 0-.5.5v21.03a.5.5 0 0 0 .5.5h37a.5.5 0 0 0 .5-.5v-21.04a.5.5 0 0 0-.5-.5z" stroke="#5e5e5e" fill="#fff"/><use xlink:href="#n" transform="matrix(1,0,0,1,1994.401403440582,734.5886975270157) translate(-7.903645833333332 16.444444444444443)"/><path d="M2638.65 755.2l4.4.96m5.85 1.27l8.78 1.9m5.86 1.3l8.78 1.9m5.86 1.27l8.8 1.9m5.84 1.3l8.8 1.9m5.85 1.27l8.78 1.92m5.86 1.26l8.8 1.9m5.85 1.3l8.8 1.9m5.84 1.27l8.78 1.9m5.86 1.3l8.78 1.9m5.86 1.28l8.78 1.92m5.86 1.27l8.8 1.9m5.84 1.28l8.8 1.9m5.85 1.28l8.8 1.92m5.85 1.27l8.78 1.9m5.86 1.3l8.78 1.9m5.85 1.27l8.8 1.9m5.85 1.3l8.78 1.9m5.86 1.27l8.78 1.9m5.86 1.28l8.8 1.9m5.84 1.3l8.8 1.9m5.85 1.27l8.78 1.92m5.86 1.27l8.77 1.9m5.86 1.28l8.8 1.92m5.84 1.27l8.8 1.92m5.85 1.28l8.78 1.9m5.86 1.28l4.4.96" stroke="#e08fff" stroke-width="3" fill="none"/><path d="M2623.24 751.85l14.93-1.5-1.97 9.06zM3034.76 841.4l-14.93 1.5 1.97-9.07z" stroke="#e08fff" stroke-width="3" fill="#e08fff"/><path d="M2638.63 940.32l4.4-.98m5.85-1.3l8.78-1.96m5.86-1.3l8.8-1.96m5.84-1.3l8.8-1.97m5.85-1.3l8.8-1.96m5.85-1.3l8.8-1.97m5.85-1.3l8.78-1.96m5.86-1.3l8.8-1.97m5.85-1.3l8.77-1.96m5.86-1.3l8.8-1.96m5.84-1.3l8.8-1.96m5.85-1.3l8.78-1.97m5.86-1.3l8.8-1.96m5.85-1.3l8.8-1.97m5.85-1.3l8.8-1.96m5.84-1.3l8.78-1.97m5.86-1.3l8.78-1.96m5.86-1.3l8.8-1.96m5.85-1.3l8.78-1.96m5.87-1.3l8.8-1.97m5.84-1.3l8.8-1.96m5.86-1.3l8.8-1.97m5.84-1.3l8.8-1.96m5.85-1.3l8.78-1.97m5.86-1.3l8.78-1.96m5.86-1.3l8.78-1.96m5.86-1.3l4.4-1" stroke="#e08fff" stroke-width="3" fill="none"/><path d="M2623.24 943.75l12.9-7.63 2.03 9.05zM3034.76 852.07l-12.9 7.62-2.03-9.06z" stroke="#e08fff" stroke-width="3" fill="#e08fff"/><path d="M2580 735.1a.5.5 0 0 1 .5-.5h37a.5.5 0 0 1 .5.5v22.96a.5.5 0 0 1-.5.5h-37a.5.5 0 0 1-.5-.5z" fill="#fff" fill-opacity="0"/><path d="M2580.5 735.56a.5.5 0 0 0-.5.5v21.03a.5.5 0 0 0 .5.5h37a.5.5 0 0 0 .5-.5v-21.04a.5.5 0 0 0-.5-.5z" stroke="#5e5e5e" fill="#fff"/><use xlink:href="#n" transform="matrix(1,0,0,1,2594.4014034405823,734.5886975270157) translate(-7.903645833333332 16.444444444444443)"/><path d="M3040 835.18a.5.5 0 0 1 .5-.5h37a.5.5 0 0 1 .5.5v22.97a.5.5 0 0 1-.5.5h-37a.5.5 0 0 1-.5-.5z" fill="#fff" fill-opacity="0"/><path d="M3040.5 835.65a.5.5 0 0 0-.5.5v21.03a.5.5 0 0 0 .5.5h37a.5.5 0 0 0 .5-.5v-21.03a.5.5 0 0 0-.5-.5z" stroke="#5e5e5e" fill="#fff"/><g><use xlink:href="#n" transform="matrix(1,0,0,1,3054.4014034405823,834.6822916666666) translate(-7.903645833333332 16.444444444444443)"/></g><defs><path fill="#333" d="M1048-974c0 163-99 241-224 288 171 41 257 139 257 293C1081-125 889 0 612 0H119v-1328h451c279 2 478 84 478 354zM823-399c0-131-83-178-217-178H382v373h225c139 0 216-61 216-195zm-37-542c0-143-71-185-216-185H382v368h173c140-1 231-45 231-183" id="r"/><path fill="#333" d="M1216-128C1096-37 957 14 763 14c-340 0-556-162-659-406-67-160-64-383-2-546 106-278 391-455 787-392 139 22 247 82 329 162l-75 118c-22 37-63 48-107 21-82-52-169-95-306-91-271 8-407 180-407 455 0 291 145 466 433 472 94 2 156-21 222-51v-232c-75-10-206 31-206-48v-148h444v544" id="s"/><path fill="#333" d="M1037-902c0 300-189 436-495 441H378V0H115v-1328h427c303 4 495 131 495 426zm-263 0c0-143-81-224-232-224H378v461h164c156 2 232-87 232-237" id="t"/><g id="a"><use transform="matrix(0.01302083333333333,0,0,0.01302083333333333,0,0)" xlink:href="#r"/><use transform="matrix(0.01302083333333333,0,0,0.01302083333333333,14.947916666666663,0)" xlink:href="#s"/><use transform="matrix(0.01302083333333333,0,0,0.01302083333333333,31.94010416666666,0)" xlink:href="#t"/></g><path fill="#333" d="M1292-934c62 161 62 379 0 540-91 237-280 408-598 408S186-158 94-394c-62-161-63-379 0-540 92-237 282-409 600-409 317 0 507 173 598 409zM694-210c263 0 376-186 376-455 0-268-114-455-376-455-263 0-377 187-377 455 0 269 113 455 377 455" id="u"/><path fill="#333" d="M600 0H369L11-993h210c36-1 65 20 72 46l145 507c21 61 37 123 49 185 14-65 34-123 52-185l150-507c9-25 34-46 68-46h201" id="v"/><path fill="#333" d="M960-149C871-45 736 15 551 15 231 15 63-191 63-518c0-229 113-378 277-452 59-26 125-39 199-39 278 0 430 170 430 452 0 55-4 97-59 97H316c14 166 83 276 257 279 98 1 159-38 221-71 33-18 71-20 93 9zM741-612c-4-130-65-216-197-216-140 0-203 89-223 216h420" id="w"/><path fill="#333" d="M545-767c-109 4-148 72-181 151V0H110v-993c66 5 161-12 204 14 28 28 23 102 33 150 53-94 116-183 244-183 43 0 79 10 107 31l-19 190c-6 59-87 22-134 24" id="x"/><path fill="#333" d="M379-1437V0H125v-1437h254" id="y"/><path fill="#333" d="M534-1012c240 0 371 147 371 387V0c-80-7-186 24-201-53l-22-66C598-47 516 18 362 15 183 12 73-75 73-255c0-177 142-239 303-283 75-20 169-31 281-34 9-142-26-239-155-239-97 0-149 37-209 70-49 27-108 2-128-33l-46-80c103-96 231-158 415-158zM316-268c-2 80 48 110 125 110 107 0 156-41 216-100v-160c-111 5-199 15-269 48-43 21-70 49-72 102" id="z"/><path fill="#333" d="M467 269c-16 34-32 53-81 53H195L372-78 3-993h223c40-1 61 20 70 46 70 199 136 397 201 599 66-198 128-399 192-599 8-25 36-46 68-46h203" id="A"/><g id="b"><use transform="matrix(0.01302083333333333,0,0,0.01302083333333333,0,0)" xlink:href="#u"/><use transform="matrix(0.01302083333333333,0,0,0.01302083333333333,18.033854166666664,0)" xlink:href="#v"/><use transform="matrix(0.01302083333333333,0,0,0.01302083333333333,30.403645833333325,0)" xlink:href="#w"/><use transform="matrix(0.01302083333333333,0,0,0.01302083333333333,43.82812499999999,0)" xlink:href="#x"/><use transform="matrix(0.01302083333333333,0,0,0.01302083333333333,53.30729166666666,0)" xlink:href="#y"/><use transform="matrix(0.01302083333333333,0,0,0.01302083333333333,59.85677083333332,0)" xlink:href="#z"/><use transform="matrix(0.01302083333333333,0,0,0.01302083333333333,72.53906249999999,0)" xlink:href="#A"/></g><path fill="#fff" d="M1037-902c0 300-189 436-495 441H378V0H115v-1328h427c303 4 495 131 495 426zm-263 0c0-143-81-224-232-224H378v461h164c156 2 232-87 232-237" id="B"/><path fill="#fff" d="M236-180h257c2-279-3-565 3-840L323-871c-27 30-91 18-110-9l-76-104 399-346h198v1150h227V0H236v-180" id="C"/><g id="d"><use transform="matrix(0.013020833333333334,0,0,0.013020833333333334,0,0)" xlink:href="#B"/><use transform="matrix(0.013020833333333334,0,0,0.013020833333333334,14.192708333333334,0)" xlink:href="#C"/></g><filter id="c" filterUnits="objectBoundingBox" x="-.06" y="-.04" width="1.12" height="1.21"><feOffset result="offOut" in="SourceAlpha" dy="6"/><feGaussianBlur result="blurOut" in="offOut" stdDeviation="5"/><feColorMatrix result="colorOut" in="blurOut" values="0 0 0 0 0 0 0 0 0 0 0 0 0 0 0 0 0 0 0.5019607843137255 0"/><feBlend in="SourceGraphic" in2="colorOut"/></filter><path fill="#fff" d="M89-955c40-238 181-388 449-388 250 0 409 134 409 381 0 232-139 347-258 472L407-195c126-46 310-24 475-29 49-1 86 32 85 80V0H69c-2-76 0-138 43-180 161-160 326-321 472-494 63-74 110-153 115-281 6-143-107-217-242-175-61 19-100 69-121 131-19 56-46 79-119 66" id="D"/><g id="f"><use transform="matrix(0.013020833333333334,0,0,0.013020833333333334,0,0)" xlink:href="#B"/><use transform="matrix(0.013020833333333334,0,0,0.013020833333333334,14.192708333333334,0)" xlink:href="#D"/></g><path fill="#fff" d="M928-1328v209H382v351h425v201H382v358h547L928 0H118v-1328h810" id="E"/><g id="g"><use transform="matrix(0.013020833333333334,0,0,0.013020833333333334,0,0)" xlink:href="#B"/><use transform="matrix(0.013020833333333334,0,0,0.013020833333333334,14.192708333333334,0)" xlink:href="#E"/><use transform="matrix(0.013020833333333334,0,0,0.013020833333333334,27.200520833333336,0)" xlink:href="#D"/></g><g id="h"><use transform="matrix(0.013020833333333334,0,0,0.013020833333333334,0,0)" xlink:href="#B"/><use transform="matrix(0.013020833333333334,0,0,0.013020833333333334,14.192708333333334,0)" xlink:href="#E"/><use transform="matrix(0.013020833333333334,0,0,0.013020833333333334,27.200520833333336,0)" xlink:href="#C"/></g><path fill="#fff" d="M1018-942c0 206-115 318-270 377 36 21 66 45 88 81L1133 0H896c-42 0-76-17-97-53L557-467c-20-31-37-43-86-44h-89V0H118v-1328h400c295 3 500 102 500 386zm-256 18c0-141-92-203-244-202H382v428h134c155-2 246-74 246-226" id="F"/><g id="i"><use transform="matrix(0.013020833333333334,0,0,0.013020833333333334,0,0)" xlink:href="#F"/><use transform="matrix(0.013020833333333334,0,0,0.013020833333333334,15.013020833333334,0)" xlink:href="#F"/><use transform="matrix(0.013020833333333334,0,0,0.013020833333333334,30.026041666666668,0)" xlink:href="#C"/></g><path fill="#fff" d="M113-955c38-239 181-388 448-388 186 0 310 81 369 209 18 42 27 87 27 134 1 168-77 256-203 297 151 51 227 154 227 307C981-126 800 8 532 14 260 20 143-131 76-338c63-25 186-102 236-14 46 82 93 164 218 164 130 0 203-76 210-200 9-175-112-206-288-206v-171c158-2 269-37 269-193 0-117-60-182-173-183-99-1-165 67-190 142-19 57-44 79-118 66" id="G"/><g id="j"><use transform="matrix(0.013020833333333334,0,0,0.013020833333333334,0,0)" xlink:href="#B"/><use transform="matrix(0.013020833333333334,0,0,0.013020833333333334,14.192708333333334,0)" xlink:href="#G"/></g><path fill="#fff" d="M1007-505c-9 70 29 185-49 186H854V0H644v-319H105c-83-4-69-108-90-173l609-837h230v824h153zm-363 0c3-182-8-376 8-546L269-505h375" id="H"/><g id="k"><use transform="matrix(0.013020833333333334,0,0,0.013020833333333334,0,0)" xlink:href="#B"/><use transform="matrix(0.013020833333333334,0,0,0.013020833333333334,14.192708333333334,0)" xlink:href="#H"/></g><g id="l"><use transform="matrix(0.013020833333333334,0,0,0.013020833333333334,0,0)" xlink:href="#B"/><use transform="matrix(0.013020833333333334,0,0,0.013020833333333334,14.192708333333334,0)" xlink:href="#E"/><use transform="matrix(0.013020833333333334,0,0,0.013020833333333334,27.200520833333336,0)" xlink:href="#G"/></g><g id="m"><use transform="matrix(0.013020833333333334,0,0,0.013020833333333334,0,0)" xlink:href="#F"/><use transform="matrix(0.013020833333333334,0,0,0.013020833333333334,15.013020833333334,0)" xlink:href="#F"/><use transform="matrix(0.013020833333333334,0,0,0.013020833333333334,30.026041666666668,0)" xlink:href="#D"/></g><path d="M371-216h461V0H108v-1328h263v1112" id="I"/><path d="M352-974c116-47 283-48 399 0 177 72 288 230 288 475 0 247-110 405-288 478-116 48-283 48-399 0C173-94 62-251 62-499c0-246 112-403 290-475zm-28 477c0 189 54 318 228 318 172 0 225-131 225-318s-53-318-225-318c-174 0-228 130-228 318" id="J"/><path d="M960-966c48 161 48 442 0 603C896-149 775 14 517 14 261 14 140-150 78-363c-47-161-48-443 0-603 63-213 183-377 439-377s380 165 443 377zM602-206c161-87 169-454 126-694-24-133-71-244-211-244-138 0-184 113-207 244-41 238-36 607 122 694 54 29 116 28 170 0" id="K"/><g id="n"><use transform="matrix(0.008680555555555554,0,0,0.008680555555555554,0,0)" xlink:href="#I"/><use transform="matrix(0.008680555555555554,0,0,0.008680555555555554,7.239583333333332,0)" xlink:href="#J"/><use transform="matrix(0.008680555555555554,0,0,0.008680555555555554,16.796874999999996,0)" xlink:href="#K"/></g><path fill="#979ea8" d="M24 0v-248h52v208h133V0H24" id="L"/><path fill="#979ea8" d="M185-48c-13 30-37 53-82 52C43 2 14-33 14-96s30-98 90-98c62 0 83 45 84 108H66c0 31 8 55 39 56 18 0 30-7 34-22zm-45-69c5-46-57-63-70-21-2 6-4 13-4 21h74" id="M"/><path fill="#979ea8" d="M195-6C206 82 75 100 31 46c-4-6-6-13-8-21l49-6c3 16 16 24 34 25 40 0 42-37 40-79-11 22-30 35-61 35-53 0-70-43-70-97 0-56 18-96 73-97 30 0 46 14 59 34l2-30h47zm-90-29c32 0 41-27 41-63 0-35-9-62-40-62-32 0-39 29-40 63 0 36 9 62 39 62" id="N"/><path fill="#979ea8" d="M135-194c87-1 58 113 63 194h-50c-7-57 23-157-34-157-59 0-34 97-39 157H25l-1-190h47c2 12-1 28 3 38 12-26 28-41 61-42" id="O"/><path fill="#979ea8" d="M88-194c31-1 46 15 58 34l-1-101h50l1 261h-48c-2-10 0-23-3-31C134-8 116 4 84 4 32 4 16-41 15-95c0-56 19-97 73-99zm17 164c33 0 40-30 41-66 1-37-9-64-41-64s-38 30-39 65c0 43 13 65 39 65" id="P"/><g id="o"><use transform="matrix(0.08024691358024691,0,0,0.08024691358024691,0,0)" xlink:href="#L"/><use transform="matrix(0.08024691358024691,0,0,0.08024691358024691,17.574074074074073,0)" xlink:href="#M"/><use transform="matrix(0.08024691358024691,0,0,0.08024691358024691,33.623456790123456,0)" xlink:href="#N"/><use transform="matrix(0.08024691358024691,0,0,0.08024691358024691,51.197530864197525,0)" xlink:href="#M"/><use transform="matrix(0.08024691358024691,0,0,0.08024691358024691,67.24691358024691,0)" xlink:href="#O"/><use transform="matrix(0.08024691358024691,0,0,0.08024691358024691,84.82098765432099,0)" xlink:href="#P"/></g><path fill="#979ea8" d="M25-224v-37h50v37H25zM25 0v-190h50V0H25" id="Q"/><path fill="#979ea8" d="M182-130c37 4 62 22 62 59C244 23 116-4 24 0v-248c84 5 203-23 205 63 0 31-19 50-47 55zM76-148c40-3 101 13 101-30 0-44-60-28-101-31v61zm0 110c48-3 116 14 116-37 0-48-69-32-116-35v72" id="R"/><path fill="#979ea8" d="M67-125c0 54 23 88 75 88 28 0 53-7 68-21v-34h-60v-39h108v91C232-14 192 4 140 4 58 4 20-42 15-125 8-236 126-280 215-234c19 10 29 26 37 47l-47 15c-11-23-29-39-63-39-53 1-75 33-75 86" id="S"/><path fill="#979ea8" d="M24-248c93 1 206-16 204 79-1 75-69 88-152 82V0H24v-248zm52 121c47 0 100 7 100-41 0-47-54-39-100-39v80" id="T"/><g id="p"><use transform="matrix(0.04938271604938272,0,0,0.04938271604938272,0,0)" xlink:href="#Q"/><use transform="matrix(0.04938271604938272,0,0,0.04938271604938272,4.938271604938272,0)" xlink:href="#R"/><use transform="matrix(0.04938271604938272,0,0,0.04938271604938272,17.7283950617284,0)" xlink:href="#S"/><use transform="matrix(0.04938271604938272,0,0,0.04938271604938272,31.555555555555557,0)" xlink:href="#T"/></g><path fill="#979ea8" d="M24 0v-248h52V0H24" id="U"/><path fill="#979ea8" d="M128 0H69L1-190h53L99-40l48-150h52" id="V"/><path fill="#979ea8" d="M165-50V0h-47v-50H5v-38l105-160h55v161h33v37h-33zm-47-37l2-116L46-87h72" id="W"/><g id="q"><use transform="matrix(0.04938271604938272,0,0,0.04938271604938272,0,0)" xlink:href="#U"/><use transform="matrix(0.04938271604938272,0,0,0.04938271604938272,4.938271604938272,0)" xlink:href="#T"/><use transform="matrix(0.04938271604938272,0,0,0.04938271604938272,16.790123456790127,0)" xlink:href="#V"/><use transform="matrix(0.04938271604938272,0,0,0.04938271604938272,26.666666666666668,0)" xlink:href="#W"/></g></defs></g></svg>