<svg xmlns="http://www.w3.org/2000/svg" xmlns:xlink="http://www.w3.org/1999/xlink" xmlns:lucid="lucid" width="1369" height="695"><g transform="translate(-207 -367)" lucid:page-tab-id="SUWQ.NX55tFj"><path d="M0 0h3456v1360H0z" fill="#fff"/><path d="M272.77 392.24h1230.28v60H272.77z" fill="none"/><use xlink:href="#a" transform="matrix(1,0,0,1,272.7686880858787,392.23999617851194) translate(534.3148148148148 35.33333333333333)"/><use xlink:href="#b" transform="matrix(1,0,0,1,272.7686880858787,392.23999617851194) translate(598.9074074074074 35.33333333333333)"/><path d="M272.77 458.24a6 6 0 0 1 6-6h1218.28a6 6 0 0 1 6 6v535.24a6 6 0 0 1-6 6H278.77a6 6 0 0 1-6-6z" stroke="#dbdbdb" stroke-width="3" fill="#f2f3f5"/><path d="M651.2 522.18a19 19 0 0 1 19-19h456.83a19 19 0 0 1 19 19v147.6a19 19 0 0 1-19 19H670.2a19 19 0 0 1-19-19zM1013.76 808.56a19 19 0 0 1 19-19h422a19 19 0 0 1 19 19V957.1a19 19 0 0 1-19 19h-422a19 19 0 0 1-19-19zM306.02 808.56a19 19 0 0 1 19-19h422a19 19 0 0 1 19 19V957.1a19 19 0 0 1-19 19h-422a19 19 0 0 1-19-19z" stroke="#ced4db" stroke-width="3" fill="#ced4db"/><g filter="url(#c)"><path d="M1036.14 823.3a.5.5 0 0 0-.5.5v93.4a.5.5 0 0 0 .5.5h168.64a.5.5 0 0 0 .5-.5v-93.4a.5.5 0 0 0-.5-.5z" stroke="#315796" stroke-width="3" fill="#315796"/><use xlink:href="#d" transform="matrix(1,0,0,1,1045.4836325745723,834.3330261138427) translate(17.36979166666667 43.166666666666664)"/></g><g filter="url(#c)"><path d="M1276.14 823.3a.5.5 0 0 0-.5.5v93.4a.5.5 0 0 0 .5.5h168.64a.5.5 0 0 0 .5-.5v-93.4a.5.5 0 0 0-.5-.5z" stroke="#315796" stroke-width="3" fill="#315796"/><use xlink:href="#e" transform="matrix(1,0,0,1,1285.4836325745725,834.3330261138427) translate(16.796875000000007 43.166666666666664)"/></g><g filter="url(#c)"><path d="M327.88 823.3a.5.5 0 0 0-.5.5v93.4a.5.5 0 0 0 .5.5h168.64a.5.5 0 0 0 .5-.5v-93.4a.5.5 0 0 0-.5-.5z" stroke="#315796" stroke-width="3" fill="#315796"/><use xlink:href="#f" transform="matrix(1,0,0,1,337.22101123682074,834.333026113843) translate(17.36979166666667 43.166666666666664)"/></g><g filter="url(#c)"><path d="M567.88 823.3a.5.5 0 0 0-.5.5v93.4a.5.5 0 0 0 .5.5h168.64a.5.5 0 0 0 .5-.5v-93.4a.5.5 0 0 0-.5-.5z" stroke="#315796" stroke-width="3" fill="#315796"/><use xlink:href="#g" transform="matrix(1,0,0,1,577.2210112368207,834.333026113843) translate(16.796875000000007 43.166666666666664)"/></g><g filter="url(#c)"><path d="M674.62 560.56a.5.5 0 0 0-.5.5v93.42a.5.5 0 0 0 .5.5h168.64a.5.5 0 0 0 .5-.5v-93.42a.5.5 0 0 0-.5-.5z" stroke="#315796" stroke-width="3" fill="#315796"/><use xlink:href="#h" transform="matrix(1,0,0,1,683.9583054308096,571.6118128789797) translate(15.052083333333329 43.166666666666664)"/></g><g filter="url(#c)"><path d="M954.62 560.56a.5.5 0 0 0-.5.5v93.42a.5.5 0 0 0 .5.5h168.64a.5.5 0 0 0 .5-.5v-93.42a.5.5 0 0 0-.5-.5z" stroke="#315796" stroke-width="3" fill="#315796"/><use xlink:href="#i" transform="matrix(1,0,0,1,963.9583054308096,571.6118128789797) translate(15.052083333333329 43.166666666666664)"/></g><path d="M436.8 812.56l4.04-2m5.4-2.67l8.1-4.02m5.38-2.67l8.1-4m5.4-2.66l8.1-4m5.4-2.68l8.08-4m5.4-2.67l8.1-4.02m5.4-2.67l8.1-4m5.38-2.66l8.1-4m5.4-2.68l8.1-4m5.4-2.67l8.08-4.02m5.4-2.67l8.1-4m5.4-2.66l8.1-4m5.38-2.68l8.1-4m5.4-2.67l8.1-4.02m5.4-2.67l8.08-4m5.4-2.66l8.1-4m5.4-2.68l8.1-4m5.38-2.67l8.1-4.02m5.4-2.67l8.1-4m5.4-2.66l8.08-4m5.4-2.68l8.1-4m5.4-2.67l8.1-4m5.38-2.68l4.05-2" stroke="#e08fff" stroke-width="3" fill="none"/><path d="M437.16 813.22h-5.06l4.06-2.02zM738.3 665.05l-4.06 2.02-1-2.02z" stroke="#e08fff" stroke-width=".05" fill="#e08fff"/><path d="M455.74 812.83l4.37-1.2m5.85-1.6l8.75-2.38m5.83-1.6l8.75-2.38m5.84-1.6l8.75-2.38m5.83-1.6l8.75-2.4m5.84-1.6l8.74-2.38m5.83-1.6l8.76-2.4m5.83-1.58l8.75-2.4m5.85-1.58l8.75-2.4m5.83-1.6l8.75-2.38m5.84-1.6l8.75-2.38m5.83-1.6l8.75-2.38m5.84-1.6l8.74-2.4m5.83-1.58l8.75-2.4m5.84-1.58l8.75-2.4m5.84-1.6l8.76-2.38m5.83-1.6l8.75-2.38m5.84-1.6l8.75-2.38m5.83-1.6l8.75-2.4m5.84-1.58l8.74-2.4m5.83-1.58l8.75-2.4m5.84-1.6l8.75-2.38m5.84-1.6L781 724m5.83-1.6l8.75-2.4m5.83-1.58l8.77-2.4m5.83-1.58l8.75-2.4m5.84-1.6l8.74-2.38m5.83-1.6l8.75-2.38m5.84-1.6l8.75-2.38m5.84-1.6l8.75-2.4m5.83-1.58l8.75-2.4m5.83-1.58l8.77-2.4m5.83-1.6l8.75-2.38m5.84-1.6l8.74-2.38m5.83-1.6l8.75-2.38m5.84-1.6l8.75-2.4m5.84-1.58l8.75-2.4m5.83-1.6l4.37-1.18" stroke="#e08fff" stroke-width="3" fill="none"/><path d="M455.88 813.23h-4.7l-.18-.66 4.38-1.2zM999.96 665.04l.18.66-4.38 1.2-.5-1.86z" stroke="#e08fff" stroke-width=".05" fill="#e08fff"/><path d="M660.1 811.94l2.47-3.97m3.28-5.3l4.92-7.93m3.28-5.3l4.92-7.94m3.28-5.3l4.92-7.94m3.27-5.3l4.92-7.94m3.28-5.3l4.92-7.94m3.28-5.3l4.92-7.94m3.28-5.3l4.92-7.93m3.27-5.3l4.92-7.93m3.28-5.3l4.92-7.94m3.28-5.3l4.92-7.94m3.28-5.3l2.46-3.97" stroke="#e08fff" stroke-width="3" fill="none"/><path d="M661.4 812.7l-.3.52h-3.54l1.3-2.1zM752.84 665.05l-1.3 2.1-2.55-1.58.3-.52z" stroke="#e08fff" stroke-width=".05" fill="#e08fff"/><path d="M679.55 812.62l4.15-1.84m5.54-2.45l8.3-3.67m5.53-2.45l8.3-3.67m5.54-2.45l8.3-3.67m5.54-2.44l8.3-3.67m5.53-2.46l8.3-3.68m5.54-2.45l8.3-3.66m5.54-2.45l8.3-3.68m5.54-2.45l8.3-3.68m5.53-2.46l8.32-3.67m5.53-2.45l8.3-3.67m5.53-2.45l8.3-3.68m5.54-2.45l8.3-3.67m5.53-2.45l8.3-3.68m5.54-2.44l8.3-3.68m5.52-2.45l8.3-3.67m5.54-2.45l8.3-3.68m5.53-2.44l8.3-3.68m5.53-2.45l8.3-3.67m5.53-2.45l8.3-3.67m5.54-2.44l8.3-3.7m5.53-2.44l8.3-3.67m5.54-2.46l8.3-3.68m5.53-2.45l8.3-3.66m5.54-2.45l4.15-1.85" stroke="#e08fff" stroke-width="3" fill="none"/><path d="M679.86 813.22h-4.96l-.07-.15 4.15-1.84zM1016.24 665.05l.07.15-4.14 1.84-.88-2z" stroke="#e08fff" stroke-width=".05" fill="#e08fff"/><path d="M1094.75 812.57l-4.05-1.9m-5.4-2.57l-8.12-3.83m-5.4-2.55l-8.1-3.83m-5.42-2.57l-8.1-3.83m-5.4-2.55l-8.12-3.84m-5.4-2.54l-8.12-3.83m-5.4-2.56l-8.1-3.83m-5.42-2.55l-8.1-3.84m-5.4-2.56l-8.12-3.83m-5.4-2.55l-8.12-3.84m-5.4-2.55l-8.1-3.83m-5.42-2.56l-8.1-3.83m-5.4-2.54l-8.12-3.83m-5.4-2.56l-8.12-3.83m-5.4-2.55l-8.1-3.85m-5.42-2.55l-8.1-3.83m-5.4-2.56l-8.12-3.82m-5.4-2.55l-8.12-3.83m-5.4-2.56l-8.1-3.83m-5.42-2.54l-8.1-3.83m-5.4-2.56l-8.12-3.83m-5.4-2.55l-8.12-3.85m-5.4-2.55l-8.1-3.83m-5.42-2.56l-4.05-1.9" stroke="#e08fff" stroke-width="3" fill="none"/><path d="M1099.46 813.14l-.03.07h-5.02l.96-2zM784.25 665.06l-.95 2-4.1-1.93.03-.07z" stroke="#e08fff" stroke-width=".05" fill="#e08fff"/><path d="M1114.34 811.86l-1.9-3.96m-2.5-5.3l-3.8-7.93m-2.5-5.3l-3.8-7.92m-2.5-5.3l-3.78-7.92m-2.52-5.3l-3.78-7.93m-2.52-5.3l-3.78-7.92m-2.52-5.3l-3.78-7.92m-2.52-5.3l-3.78-7.93m-2.5-5.3l-3.8-7.92m-2.5-5.28l-3.8-7.93m-2.5-5.3l-3.8-7.94m-2.5-5.3l-1.9-3.95" stroke="#e08fff" stroke-width="3" fill="none"/><path d="M1116.65 813.22h-3.33l-.35-.75 2.7-1.3zM1046.08 665.05l.35.75-2.7 1.3-.97-2.05z" stroke="#e08fff" stroke-width=".05" fill="#e08fff"/><path d="M1318.52 812.8l-4.32-1.23m-5.76-1.63l-8.64-2.46m-5.76-1.64l-8.64-2.45m-5.76-1.65l-8.64-2.45m-5.76-1.64l-8.64-2.46m-5.76-1.63l-8.63-2.46m-5.75-1.63l-8.64-2.45m-5.75-1.64l-8.64-2.45m-5.75-1.64l-8.64-2.47m-5.75-1.63l-8.64-2.46m-5.75-1.64l-8.64-2.45m-5.75-1.64l-8.64-2.44m-5.75-1.64l-8.64-2.46m-5.75-1.63l-8.64-2.46m-5.75-1.64l-8.64-2.45m-5.75-1.64l-8.64-2.45m-5.75-1.65l-8.64-2.46m-5.75-1.64l-8.64-2.46m-5.75-1.64l-8.64-2.45m-5.75-1.63l-8.64-2.45m-5.75-1.64l-8.64-2.46m-5.75-1.63l-8.64-2.47m-5.75-1.64l-8.64-2.46m-5.75-1.64l-8.64-2.46m-5.75-1.63l-8.64-2.45m-5.75-1.63l-8.64-2.46m-5.74-1.64l-8.64-2.45m-5.76-1.64l-8.64-2.46m-5.76-1.63l-8.64-2.46m-5.76-1.63l-8.64-2.46m-5.76-1.65l-8.64-2.45m-5.76-1.64l-8.64-2.46m-5.76-1.63l-8.64-2.46m-5.76-1.62l-8.64-2.46m-5.76-1.64l-8.64-2.45m-5.76-1.64l-8.64-2.47m-5.76-1.63l-4.32-1.23" stroke="#e08fff" stroke-width="3" fill="none"/><path d="M1323.26 812.6l-.18.6h-4.7l.52-1.85zM800.3 665.06l-.53 1.86-4.37-1.24.18-.62z" stroke="#e08fff" stroke-width=".05" fill="#e08fff"/><path d="M1337.53 812.5l-3.94-2.1m-5.26-2.78l-7.88-4.2m-5.25-2.8l-7.86-4.18m-5.25-2.8l-7.9-4.2m-5.24-2.8l-7.88-4.18m-5.25-2.8l-7.87-4.2m-5.25-2.78l-7.87-4.2m-5.25-2.8l-7.88-4.18m-5.25-2.8l-7.87-4.2m-5.25-2.8l-7.88-4.18m-5.25-2.8l-7.87-4.2m-5.25-2.78l-7.88-4.2m-5.25-2.8l-7.88-4.18m-5.25-2.8l-7.87-4.2m-5.25-2.8l-7.88-4.18m-5.25-2.8l-7.87-4.2m-5.25-2.78l-7.88-4.2m-5.25-2.8l-7.88-4.18m-5.25-2.8l-7.88-4.2m-5.25-2.8l-7.88-4.18m-5.26-2.8l-7.88-4.2m-5.25-2.78l-3.92-2.1" stroke="#e08fff" stroke-width="3" fill="none"/><path d="M1342.04 813.22h-4.93l1.1-2.05zM1062.3 665.06l-1.1 2.04-3.84-2.04z" stroke="#e08fff" stroke-width=".05" fill="#e08fff"/><path d="M691.7 642.53a.5.5 0 0 0-.5.5v21.03a.5.5 0 0 0 .5.5h133a.5.5 0 0 0 .5-.5v-21.03a.5.5 0 0 0-.5-.5z" stroke="#5e5e5e" fill="#fff"/><use xlink:href="#j" transform="matrix(1,0,0,1,741.9850669519502,641.5649309668115) translate(3.596354166666668 16.444444444444443)"/><path d="M272.77 452.24h1230.28v60H272.77z" fill="none"/><use xlink:href="#k" transform="matrix(1,0,0,1,272.7686880858787,452.23999617851194) translate(586.6913580246913 35.77777777777778)"/><path d="M808.1 517.4h161.6v36H808.1z" fill="none"/><use xlink:href="#l" transform="matrix(1,0,0,1,808.1008124530115,517.40045175853) translate(34.73456790123456 22.944444444444443)"/><path d="M455.2 940.1h161.63v36H455.2z" fill="none"/><use xlink:href="#m" transform="matrix(1,0,0,1,455.2131391345251,940.0974341564607) translate(34.73456790123456 22.944444444444443)"/><path d="M1162.95 940.1h161.6v36h-161.6z" fill="none"/><use xlink:href="#n" transform="matrix(1,0,0,1,1162.9512203462155,940.0974341564607) translate(34.73456790123456 22.944444444444443)"/><path d="M287.86 473.75H495.3v38.3H287.85z" fill="none"/><use xlink:href="#o" transform="matrix(1,0,0,1,287.8561749154388,473.748500038067) translate(52.80246913580247 25.27777777777778)"/><path d="M295.95 526.4h-4.38v-3h4.38zm14.6 0h-8.76v-3h8.75zm14.6 0h-8.76v-3h8.75zm14.6 0H331v-3h8.75zm9.28 0h-3.44v-3h3.43zm107.5 0h-8.75v-3h8.76zm14.6 0h-8.75v-3h8.76zm14.6 0H477v-3h8.76zm10.23 0h-4.38v-3h4.38zm-54.02 0h-3.43v-3h3.44z" stroke="#e08fff" stroke-width=".05" fill="#e08fff"/><path d="M291.6 526.4h-1.53v-3h1.54zM497.46 526.4h-1.54v-3h1.54z" stroke="#e08fff" stroke-width=".05" fill="#e08fff"/><use xlink:href="#p" transform="matrix(1,0,0,1,349.02507231387614,514.2422889514186) translate(0 14.222222222222223)"/><use xlink:href="#q" transform="matrix(1,0,0,1,349.02507231387614,514.2422889514186) translate(52.938271604938286 14.222222222222223)"/><path d="M295.48 549.2h-4.38v-3h4.38zm14.6 0h-8.76v-3h8.76zm14.6 0h-8.76v-3h8.76zm14.6 0h-8.76v-3h8.76zm11.75 0h-5.9v-3h5.9zm105.04 0h-8.75v-3h8.75zm14.6 0h-8.76v-3h8.77zm14.6 0h-8.76v-3h8.77zm10.22 0h-4.4v-3h4.4zm-54.02 0h-5.9v-3h5.9z" stroke="#00c2a8" stroke-width=".05" fill="#00c2a8"/><path d="M291.14 549.2h-1.54v-3h1.54zM497 549.2h-1.54v-3H497z" stroke="#00c2a8" stroke-width=".05" fill="#00c2a8"/><use xlink:href="#r" transform="matrix(1,0,0,1,351.0250913448448,537.0283061682771) translate(0 14.222222222222223)"/><use xlink:href="#q" transform="matrix(1,0,0,1,351.0250913448448,537.0283061682771) translate(48.00000000000001 14.222222222222223)"/><path d="M972.44 642.53a.5.5 0 0 0-.5.5v21.03a.5.5 0 0 0 .5.5h133a.5.5 0 0 0 .5-.5v-21.03a.5.5 0 0 0-.5-.5z" stroke="#5e5e5e" fill="#fff"/><use xlink:href="#j" transform="matrix(1,0,0,1,1022.7247221990443,641.5649309668115) translate(3.596354166666668 16.444444444444443)"/><path d="M345.7 813.7a.5.5 0 0 0-.5.5v21.04a.5.5 0 0 0 .5.5h133a.5.5 0 0 0 .5-.5V814.2a.5.5 0 0 0-.5-.5z" stroke="#5e5e5e" fill="#fff"/><use xlink:href="#j" transform="matrix(1,0,0,1,395.98742800505545,812.7371134638308) translate(3.596354166666668 16.444444444444443)"/><path d="M585.7 813.7a.5.5 0 0 0-.5.5v21.04a.5.5 0 0 0 .5.5h133a.5.5 0 0 0 .5-.5V814.2a.5.5 0 0 0-.5-.5z" stroke="#5e5e5e" fill="#fff"/><use xlink:href="#j" transform="matrix(1,0,0,1,635.9874280050554,812.7371134638308) translate(3.596354166666668 16.444444444444443)"/><path d="M1053.96 813.7a.5.5 0 0 0-.5.5v21.04a.5.5 0 0 0 .5.5h133a.5.5 0 0 0 .5-.5V814.2a.5.5 0 0 0-.5-.5z" stroke="#5e5e5e" fill="#fff"/><use xlink:href="#j" transform="matrix(1,0,0,1,1104.2500493428067,812.7371134638308) translate(3.596354166666668 16.444444444444443)"/><path d="M1293.96 813.7a.5.5 0 0 0-.5.5v21.04a.5.5 0 0 0 .5.5h133a.5.5 0 0 0 .5-.5V814.2a.5.5 0 0 0-.5-.5z" stroke="#5e5e5e" fill="#fff"/><g><use xlink:href="#j" transform="matrix(1,0,0,1,1344.2500493428072,812.7371134638308) translate(3.596354166666668 16.444444444444443)"/></g><defs><path fill="#333" d="M182-130c37 4 62 22 62 59C244 23 116-4 24 0v-248c84 5 203-23 205 63 0 31-19 50-47 55zM76-148c40-3 101 13 101-30 0-44-60-28-101-31v61zm0 110c48-3 116 14 116-37 0-48-69-32-116-35v72" id="s"/><path fill="#333" d="M67-125c0 54 23 88 75 88 28 0 53-7 68-21v-34h-60v-39h108v91C232-14 192 4 140 4 58 4 20-42 15-125 8-236 126-280 215-234c19 10 29 26 37 47l-47 15c-11-23-29-39-63-39-53 1-75 33-75 86" id="t"/><path fill="#333" d="M24-248c93 1 206-16 204 79-1 75-69 88-152 82V0H24v-248zm52 121c47 0 100 7 100-41 0-47-54-39-100-39v80" id="u"/><g id="a"><use transform="matrix(0.07407407407407407,0,0,0.07407407407407407,0,0)" xlink:href="#s"/><use transform="matrix(0.07407407407407407,0,0,0.07407407407407407,19.185185185185183,0)" xlink:href="#t"/><use transform="matrix(0.07407407407407407,0,0,0.07407407407407407,39.925925925925924,0)" xlink:href="#u"/></g><path fill="#333" d="M140-251c80 0 125 45 125 126S219 4 139 4C58 4 15-44 15-125s44-126 125-126zm-1 214c52 0 73-35 73-88 0-50-21-86-72-86-52 0-73 35-73 86s22 88 72 88" id="v"/><path fill="#333" d="M128 0H69L1-190h53L99-40l48-150h52" id="w"/><path fill="#333" d="M185-48c-13 30-37 53-82 52C43 2 14-33 14-96s30-98 90-98c62 0 83 45 84 108H66c0 31 8 55 39 56 18 0 30-7 34-22zm-45-69c5-46-57-63-70-21-2 6-4 13-4 21h74" id="x"/><path fill="#333" d="M135-150c-39-12-60 13-60 57V0H25l-1-190h47c2 13-1 29 3 40 6-28 27-53 61-41v41" id="y"/><path fill="#333" d="M25 0v-261h50V0H25" id="z"/><path fill="#333" d="M133-34C117-15 103 5 69 4 32 3 11-16 11-54c-1-60 55-63 116-61 1-26-3-47-28-47-18 1-26 9-28 27l-52-2c7-38 36-58 82-57s74 22 75 68l1 82c-1 14 12 18 25 15v27c-30 8-71 5-69-32zm-48 3c29 0 43-24 42-57-32 0-66-3-65 30 0 17 8 27 23 27" id="A"/><path fill="#333" d="M123 10C108 53 80 86 19 72V37c35 8 53-11 59-39L3-190h52l48 148c12-52 28-100 44-148h51" id="B"/><g id="b"><use transform="matrix(0.07407407407407407,0,0,0.07407407407407407,0,0)" xlink:href="#v"/><use transform="matrix(0.07407407407407407,0,0,0.07407407407407407,20.74074074074074,0)" xlink:href="#w"/><use transform="matrix(0.07407407407407407,0,0,0.07407407407407407,35.55555555555556,0)" xlink:href="#x"/><use transform="matrix(0.07407407407407407,0,0,0.07407407407407407,50.37037037037037,0)" xlink:href="#y"/><use transform="matrix(0.07407407407407407,0,0,0.07407407407407407,60.74074074074074,0)" xlink:href="#z"/><use transform="matrix(0.07407407407407407,0,0,0.07407407407407407,68.14814814814814,0)" xlink:href="#A"/><use transform="matrix(0.07407407407407407,0,0,0.07407407407407407,82.96296296296295,0)" xlink:href="#B"/></g><path fill="#fff" d="M483-1012c112 0 179 37 238 92v-517h254V0H818c-73 2-64-82-83-135C661-54 570 15 422 15 157 15 63-214 63-494c0-232 92-397 247-478 52-26 110-40 173-40zM325-494c0 166 29 308 186 308 106 0 161-51 210-111v-438c-43-55-93-85-178-85-170 0-218 146-218 326" id="C"/><path fill="#fff" d="M836-149C753-51 641 15 467 15 259 15 147-118 88-282c-42-119-44-295-4-419 59-179 186-308 419-308 153 0 247 58 325 142-30 37-55 81-89 113-66 29-96-36-151-51-19-5-41-11-69-11-164 0-199 147-204 317-6 202 85 372 277 308 37-12 60-40 86-61 24-21 64-16 84 9" id="D"/><path fill="#fff" d="M236-180h257c2-279-3-565 3-840L323-871c-27 30-91 18-110-9l-76-104 399-346h198v1150h227V0H236v-180" id="E"/><path fill="#fff" d="M61-690h505v212H61v-212" id="F"/><path fill="#fff" d="M379-1437V0H125v-1437h254" id="G"/><path fill="#fff" d="M960-149C871-45 736 15 551 15 231 15 63-191 63-518c0-229 113-378 277-452 59-26 125-39 199-39 278 0 430 170 430 452 0 55-4 97-59 97H316c14 166 83 276 257 279 98 1 159-38 221-71 33-18 71-20 93 9zM741-612c-4-130-65-216-197-216-140 0-203 89-223 216h420" id="H"/><path fill="#fff" d="M534-1012c240 0 371 147 371 387V0c-80-7-186 24-201-53l-22-66C598-47 516 18 362 15 183 12 73-75 73-255c0-177 142-239 303-283 75-20 169-31 281-34 9-142-26-239-155-239-97 0-149 37-209 70-49 27-108 2-128-33l-46-80c103-96 231-158 415-158zM316-268c-2 80 48 110 125 110 107 0 156-41 216-100v-160c-111 5-199 15-269 48-43 21-70 49-72 102" id="I"/><path fill="#fff" d="M562-1233c-141 0-169 100-160 247h230v180H410V0H156v-806c-55-15-135-9-136-77v-103h136c-14-277 106-437 363-437 48 0 83 7 122 18l-6 127c-1 39-36 45-73 45" id="J"/><path fill="#fff" d="M89-955c40-238 181-388 449-388 250 0 409 134 409 381 0 232-139 347-258 472L407-195c126-46 310-24 475-29 49-1 86 32 85 80V0H69c-2-76 0-138 43-180 161-160 326-321 472-494 63-74 110-153 115-281 6-143-107-217-242-175-61 19-100 69-121 131-19 56-46 79-119 66" id="K"/><g id="d"><use transform="matrix(0.013020833333333334,0,0,0.013020833333333334,0,0)" xlink:href="#C"/><use transform="matrix(0.013020833333333334,0,0,0.013020833333333334,14.309895833333334,0)" xlink:href="#D"/><use transform="matrix(0.013020833333333334,0,0,0.013020833333333334,25.46875,0)" xlink:href="#E"/><use transform="matrix(0.013020833333333334,0,0,0.013020833333333334,38.984375,0)" xlink:href="#F"/><use transform="matrix(0.013020833333333334,0,0,0.013020833333333334,47.1484375,0)" xlink:href="#G"/><use transform="matrix(0.013020833333333334,0,0,0.013020833333333334,53.69791666666667,0)" xlink:href="#H"/><use transform="matrix(0.013020833333333334,0,0,0.013020833333333334,67.12239583333333,0)" xlink:href="#I"/><use transform="matrix(0.013020833333333334,0,0,0.013020833333333334,80.14322916666666,0)" xlink:href="#J"/><use transform="matrix(0.013020833333333334,0,0,0.013020833333333334,88.58072916666666,0)" xlink:href="#K"/><use transform="matrix(0.013020833333333334,0,0,0.013020833333333334,102.09635416666666,0)" xlink:href="#I"/></g><filter id="c" filterUnits="objectBoundingBox" x="-.06" y="-.04" width="1.12" height="1.21"><feOffset result="offOut" in="SourceAlpha" dy="6"/><feGaussianBlur result="blurOut" in="offOut" stdDeviation="5"/><feColorMatrix result="colorOut" in="blurOut" values="0 0 0 0 0 0 0 0 0 0 0 0 0 0 0 0 0 0 0.5019607843137255 0"/><feBlend in="SourceGraphic" in2="colorOut"/></filter><path fill="#fff" d="M619 15c-128 0-198-56-256-127-11 50-5 112-70 112H124v-1437h254v561c71-71 156-133 289-133 266 0 369 213 369 487 0 241-87 415-246 498-51 26-108 39-171 39zm155-527c0-166-35-299-195-299-102 0-149 49-201 111v438c43 54 92 85 176 85 177 0 220-149 220-335" id="L"/><g id="e"><use transform="matrix(0.013020833333333334,0,0,0.013020833333333334,0,0)" xlink:href="#C"/><use transform="matrix(0.013020833333333334,0,0,0.013020833333333334,14.309895833333334,0)" xlink:href="#D"/><use transform="matrix(0.013020833333333334,0,0,0.013020833333333334,25.46875,0)" xlink:href="#E"/><use transform="matrix(0.013020833333333334,0,0,0.013020833333333334,38.984375,0)" xlink:href="#F"/><use transform="matrix(0.013020833333333334,0,0,0.013020833333333334,47.1484375,0)" xlink:href="#G"/><use transform="matrix(0.013020833333333334,0,0,0.013020833333333334,53.69791666666667,0)" xlink:href="#H"/><use transform="matrix(0.013020833333333334,0,0,0.013020833333333334,67.12239583333333,0)" xlink:href="#I"/><use transform="matrix(0.013020833333333334,0,0,0.013020833333333334,80.14322916666666,0)" xlink:href="#J"/><use transform="matrix(0.013020833333333334,0,0,0.013020833333333334,88.58072916666666,0)" xlink:href="#K"/><use transform="matrix(0.013020833333333334,0,0,0.013020833333333334,102.09635416666666,0)" xlink:href="#L"/></g><g id="f"><use transform="matrix(0.013020833333333334,0,0,0.013020833333333334,0,0)" xlink:href="#C"/><use transform="matrix(0.013020833333333334,0,0,0.013020833333333334,14.309895833333334,0)" xlink:href="#D"/><use transform="matrix(0.013020833333333334,0,0,0.013020833333333334,25.46875,0)" xlink:href="#E"/><use transform="matrix(0.013020833333333334,0,0,0.013020833333333334,38.984375,0)" xlink:href="#F"/><use transform="matrix(0.013020833333333334,0,0,0.013020833333333334,47.1484375,0)" xlink:href="#G"/><use transform="matrix(0.013020833333333334,0,0,0.013020833333333334,53.69791666666667,0)" xlink:href="#H"/><use transform="matrix(0.013020833333333334,0,0,0.013020833333333334,67.12239583333333,0)" xlink:href="#I"/><use transform="matrix(0.013020833333333334,0,0,0.013020833333333334,80.14322916666666,0)" xlink:href="#J"/><use transform="matrix(0.013020833333333334,0,0,0.013020833333333334,88.58072916666666,0)" xlink:href="#E"/><use transform="matrix(0.013020833333333334,0,0,0.013020833333333334,102.09635416666666,0)" xlink:href="#I"/></g><g id="g"><use transform="matrix(0.013020833333333334,0,0,0.013020833333333334,0,0)" xlink:href="#C"/><use transform="matrix(0.013020833333333334,0,0,0.013020833333333334,14.309895833333334,0)" xlink:href="#D"/><use transform="matrix(0.013020833333333334,0,0,0.013020833333333334,25.46875,0)" xlink:href="#E"/><use transform="matrix(0.013020833333333334,0,0,0.013020833333333334,38.984375,0)" xlink:href="#F"/><use transform="matrix(0.013020833333333334,0,0,0.013020833333333334,47.1484375,0)" xlink:href="#G"/><use transform="matrix(0.013020833333333334,0,0,0.013020833333333334,53.69791666666667,0)" xlink:href="#H"/><use transform="matrix(0.013020833333333334,0,0,0.013020833333333334,67.12239583333333,0)" xlink:href="#I"/><use transform="matrix(0.013020833333333334,0,0,0.013020833333333334,80.14322916666666,0)" xlink:href="#J"/><use transform="matrix(0.013020833333333334,0,0,0.013020833333333334,88.58072916666666,0)" xlink:href="#E"/><use transform="matrix(0.013020833333333334,0,0,0.013020833333333334,102.09635416666666,0)" xlink:href="#L"/></g><path fill="#fff" d="M80-702c6-234 206-338 457-298 93 15 166 59 220 115-26 37-46 85-79 115-8 4-17 7-28 7-73 0-113-61-203-61-94 0-160 79-107 152 93 83 270 88 356 179 39 42 70 95 69 176C761-63 553 47 286 6 191-9 109-52 51-106c29-40 47-92 85-123 77-33 115 38 178 55 22 6 48 12 80 12 81 0 133-35 133-110 0-69-60-91-116-111C252-440 75-483 80-702" id="M"/><path fill="#fff" d="M615 15c-112 0-178-37-238-91v398H123V-993c65 5 149-11 197 11 31 24 28 81 42 121 74-81 161-151 314-151 265 0 360 229 360 508 0 232-93 399-248 480-52 26-109 39-173 39zm159-519c0-165-29-307-185-307-108 0-158 47-212 111v440c43 53 94 83 178 83 171 0 219-146 219-327" id="N"/><path fill="#fff" d="M379-993V0H125v-993h254zm-132-444c97 0 163 62 163 159 0 96-66 158-163 158-94 0-157-63-157-158s62-159 157-159" id="O"/><path fill="#fff" d="M582-811c-92 1-152 44-204 95V0H124v-993c65 5 150-14 196 11 30 17 27 71 39 107 74-72 158-134 301-134 225 0 332 151 332 377V0H738v-632c0-109-49-180-156-179" id="P"/><g id="h"><use transform="matrix(0.013020833333333334,0,0,0.013020833333333334,0,0)" xlink:href="#C"/><use transform="matrix(0.013020833333333334,0,0,0.013020833333333334,14.309895833333334,0)" xlink:href="#D"/><use transform="matrix(0.013020833333333334,0,0,0.013020833333333334,25.46875,0)" xlink:href="#E"/><use transform="matrix(0.013020833333333334,0,0,0.013020833333333334,38.984375,0)" xlink:href="#F"/><use transform="matrix(0.013020833333333334,0,0,0.013020833333333334,47.1484375,0)" xlink:href="#M"/><use transform="matrix(0.013020833333333334,0,0,0.013020833333333334,57.786458333333336,0)" xlink:href="#N"/><use transform="matrix(0.013020833333333334,0,0,0.013020833333333334,72.09635416666667,0)" xlink:href="#O"/><use transform="matrix(0.013020833333333334,0,0,0.013020833333333334,78.64583333333334,0)" xlink:href="#P"/><use transform="matrix(0.013020833333333334,0,0,0.013020833333333334,92.95572916666667,0)" xlink:href="#H"/><use transform="matrix(0.013020833333333334,0,0,0.013020833333333334,106.38020833333334,0)" xlink:href="#E"/></g><g id="i"><use transform="matrix(0.013020833333333334,0,0,0.013020833333333334,0,0)" xlink:href="#C"/><use transform="matrix(0.013020833333333334,0,0,0.013020833333333334,14.309895833333334,0)" xlink:href="#D"/><use transform="matrix(0.013020833333333334,0,0,0.013020833333333334,25.46875,0)" xlink:href="#E"/><use transform="matrix(0.013020833333333334,0,0,0.013020833333333334,38.984375,0)" xlink:href="#F"/><use transform="matrix(0.013020833333333334,0,0,0.013020833333333334,47.1484375,0)" xlink:href="#M"/><use transform="matrix(0.013020833333333334,0,0,0.013020833333333334,57.786458333333336,0)" xlink:href="#N"/><use transform="matrix(0.013020833333333334,0,0,0.013020833333333334,72.09635416666667,0)" xlink:href="#O"/><use transform="matrix(0.013020833333333334,0,0,0.013020833333333334,78.64583333333334,0)" xlink:href="#P"/><use transform="matrix(0.013020833333333334,0,0,0.013020833333333334,92.95572916666667,0)" xlink:href="#H"/><use transform="matrix(0.013020833333333334,0,0,0.013020833333333334,106.38020833333334,0)" xlink:href="#K"/></g><path d="M371-216h461V0H108v-1328h263v1112" id="Q"/><path d="M352-974c116-47 283-48 399 0 177 72 288 230 288 475 0 247-110 405-288 478-116 48-283 48-399 0C173-94 62-251 62-499c0-246 112-403 290-475zm-28 477c0 189 54 318 228 318 172 0 225-131 225-318s-53-318-225-318c-174 0-228 130-228 318" id="R"/><path d="M960-966c48 161 48 442 0 603C896-149 775 14 517 14 261 14 140-150 78-363c-47-161-48-443 0-603 63-213 183-377 439-377s380 165 443 377zM602-206c161-87 169-454 126-694-24-133-71-244-211-244-138 0-184 113-207 244-41 238-36 607 122 694 54 29 116 28 170 0" id="S"/><g id="j"><use transform="matrix(0.008680555555555554,0,0,0.008680555555555554,0,0)" xlink:href="#Q"/><use transform="matrix(0.008680555555555554,0,0,0.008680555555555554,7.239583333333332,0)" xlink:href="#R"/><use transform="matrix(0.008680555555555554,0,0,0.008680555555555554,16.796874999999996,0)" xlink:href="#S"/></g><path fill="#979ea8" d="M24-248c120-7 223 5 221 122C244-46 201 0 124 0H24v-248zM76-40c74 7 117-18 117-86 0-67-45-88-117-82v168" id="T"/><path fill="#979ea8" d="M67-125c0 53 21 87 73 88 37 1 54-22 65-47l45 17C233-25 199 4 140 4 58 4 20-42 15-125 8-235 124-281 211-232c18 10 29 29 36 50l-46 12c-8-25-30-41-62-41-52 0-71 34-72 86" id="U"/><path fill="#979ea8" d="M23 0v-37h61v-169l-59 37v-38l62-41h46v211h57V0H23" id="V"/><g id="k"><use transform="matrix(0.08024691358024691,0,0,0.08024691358024691,0,0)" xlink:href="#T"/><use transform="matrix(0.08024691358024691,0,0,0.08024691358024691,20.78395061728395,0)" xlink:href="#U"/><use transform="matrix(0.08024691358024691,0,0,0.08024691358024691,41.5679012345679,0)" xlink:href="#V"/></g><path fill="#333" d="M199 0l-22-63H83L61 0H9l90-248h61L250 0h-51zm-33-102l-36-108c-10 38-24 72-36 108h72" id="W"/><path fill="#333" d="M169-182c-1-43-94-46-97-3 18 66 151 10 154 114 3 95-165 93-204 36-6-8-10-19-12-30l50-8c3 46 112 56 116 5-17-69-150-10-154-114-4-87 153-88 188-35 5 8 8 18 10 28" id="X"/><path fill="#333" d="M115-159c48 0 72 30 72 78 0 54-30 85-83 85-64 0-91-50-91-122 0-98 58-163 141-120 15 8 21 24 27 44l-47 6c-5-31-48-31-61-4-7 14-11 33-11 60 9-17 28-27 53-27zM102-35c24 0 36-20 36-45s-11-43-37-43c-23 0-36 14-36 38 0 27 11 50 37 50" id="Y"/><path fill="#333" d="M139-81c0-46-55-55-73-27H18l9-140h149v37H72l-4 63c44-38 133-4 122 66C201 21 21 35 11-62l49-4c5 18 15 30 39 30 26 0 40-18 40-45" id="Z"/><path fill="#333" d="M23 0v-37h61v-169l-59 37v-38l62-41h46v211h57V0H23" id="aa"/><path fill="#333" d="M101-251c68 0 84 54 84 127C185-50 166 4 99 4S15-52 14-124c-1-75 17-127 87-127zm-1 216c37-5 36-46 36-89s4-89-36-89c-39 0-36 45-36 89 0 43-3 85 36 89" id="ab"/><g id="l"><use transform="matrix(0.06172839506172839,0,0,0.06172839506172839,0,0)" xlink:href="#W"/><use transform="matrix(0.06172839506172839,0,0,0.06172839506172839,15.987654320987653,0)" xlink:href="#X"/><use transform="matrix(0.06172839506172839,0,0,0.06172839506172839,30.80246913580247,0)" xlink:href="#Y"/><use transform="matrix(0.06172839506172839,0,0,0.06172839506172839,43.148148148148145,0)" xlink:href="#Z"/><use transform="matrix(0.06172839506172839,0,0,0.06172839506172839,55.49382716049382,0)" xlink:href="#aa"/><use transform="matrix(0.06172839506172839,0,0,0.06172839506172839,67.8395061728395,0)" xlink:href="#ab"/><use transform="matrix(0.06172839506172839,0,0,0.06172839506172839,80.18518518518519,0)" xlink:href="#ab"/></g><g id="m"><use transform="matrix(0.06172839506172839,0,0,0.06172839506172839,0,0)" xlink:href="#W"/><use transform="matrix(0.06172839506172839,0,0,0.06172839506172839,15.987654320987653,0)" xlink:href="#X"/><use transform="matrix(0.06172839506172839,0,0,0.06172839506172839,30.80246913580247,0)" xlink:href="#Y"/><use transform="matrix(0.06172839506172839,0,0,0.06172839506172839,43.148148148148145,0)" xlink:href="#Z"/><use transform="matrix(0.06172839506172839,0,0,0.06172839506172839,55.49382716049382,0)" xlink:href="#aa"/><use transform="matrix(0.06172839506172839,0,0,0.06172839506172839,67.8395061728395,0)" xlink:href="#ab"/><use transform="matrix(0.06172839506172839,0,0,0.06172839506172839,80.18518518518519,0)" xlink:href="#aa"/></g><path fill="#333" d="M182-182c0 78-84 86-111 141h115V0H12c-6-101 99-100 120-180 1-22-12-31-33-32-23 0-32 14-35 34l-49-3c5-45 32-70 84-70 51 0 83 22 83 69" id="ac"/><g id="n"><use transform="matrix(0.06172839506172839,0,0,0.06172839506172839,0,0)" xlink:href="#W"/><use transform="matrix(0.06172839506172839,0,0,0.06172839506172839,15.987654320987653,0)" xlink:href="#X"/><use transform="matrix(0.06172839506172839,0,0,0.06172839506172839,30.80246913580247,0)" xlink:href="#Y"/><use transform="matrix(0.06172839506172839,0,0,0.06172839506172839,43.148148148148145,0)" xlink:href="#Z"/><use transform="matrix(0.06172839506172839,0,0,0.06172839506172839,55.49382716049382,0)" xlink:href="#aa"/><use transform="matrix(0.06172839506172839,0,0,0.06172839506172839,67.8395061728395,0)" xlink:href="#ab"/><use transform="matrix(0.06172839506172839,0,0,0.06172839506172839,80.18518518518519,0)" xlink:href="#ac"/></g><path fill="#979ea8" d="M24 0v-248h52v208h133V0H24" id="ad"/><path fill="#979ea8" d="M185-48c-13 30-37 53-82 52C43 2 14-33 14-96s30-98 90-98c62 0 83 45 84 108H66c0 31 8 55 39 56 18 0 30-7 34-22zm-45-69c5-46-57-63-70-21-2 6-4 13-4 21h74" id="ae"/><path fill="#979ea8" d="M195-6C206 82 75 100 31 46c-4-6-6-13-8-21l49-6c3 16 16 24 34 25 40 0 42-37 40-79-11 22-30 35-61 35-53 0-70-43-70-97 0-56 18-96 73-97 30 0 46 14 59 34l2-30h47zm-90-29c32 0 41-27 41-63 0-35-9-62-40-62-32 0-39 29-40 63 0 36 9 62 39 62" id="af"/><path fill="#979ea8" d="M135-194c87-1 58 113 63 194h-50c-7-57 23-157-34-157-59 0-34 97-39 157H25l-1-190h47c2 12-1 28 3 38 12-26 28-41 61-42" id="ag"/><path fill="#979ea8" d="M88-194c31-1 46 15 58 34l-1-101h50l1 261h-48c-2-10 0-23-3-31C134-8 116 4 84 4 32 4 16-41 15-95c0-56 19-97 73-99zm17 164c33 0 40-30 41-66 1-37-9-64-41-64s-38 30-39 65c0 43 13 65 39 65" id="ah"/><g id="o"><use transform="matrix(0.08024691358024691,0,0,0.08024691358024691,0,0)" xlink:href="#ad"/><use transform="matrix(0.08024691358024691,0,0,0.08024691358024691,17.574074074074073,0)" xlink:href="#ae"/><use transform="matrix(0.08024691358024691,0,0,0.08024691358024691,33.623456790123456,0)" xlink:href="#af"/><use transform="matrix(0.08024691358024691,0,0,0.08024691358024691,51.197530864197525,0)" xlink:href="#ae"/><use transform="matrix(0.08024691358024691,0,0,0.08024691358024691,67.24691358024691,0)" xlink:href="#ag"/><use transform="matrix(0.08024691358024691,0,0,0.08024691358024691,84.82098765432099,0)" xlink:href="#ah"/></g><path fill="#979ea8" d="M182-130c37 4 62 22 62 59C244 23 116-4 24 0v-248c84 5 203-23 205 63 0 31-19 50-47 55zM76-148c40-3 101 13 101-30 0-44-60-28-101-31v61zm0 110c48-3 116 14 116-37 0-48-69-32-116-35v72" id="ai"/><path fill="#979ea8" d="M67-125c0 54 23 88 75 88 28 0 53-7 68-21v-34h-60v-39h108v91C232-14 192 4 140 4 58 4 20-42 15-125 8-236 126-280 215-234c19 10 29 26 37 47l-47 15c-11-23-29-39-63-39-53 1-75 33-75 86" id="aj"/><path fill="#979ea8" d="M24-248c93 1 206-16 204 79-1 75-69 88-152 82V0H24v-248zm52 121c47 0 100 7 100-41 0-47-54-39-100-39v80" id="ak"/><g id="p"><use transform="matrix(0.04938271604938272,0,0,0.04938271604938272,0,0)" xlink:href="#ae"/><use transform="matrix(0.04938271604938272,0,0,0.04938271604938272,9.876543209876544,0)" xlink:href="#ai"/><use transform="matrix(0.04938271604938272,0,0,0.04938271604938272,22.66666666666667,0)" xlink:href="#aj"/><use transform="matrix(0.04938271604938272,0,0,0.04938271604938272,36.49382716049384,0)" xlink:href="#ak"/></g><path fill="#979ea8" d="M24 0v-248h52V0H24" id="al"/><path fill="#979ea8" d="M128 0H69L1-190h53L99-40l48-150h52" id="am"/><path fill="#979ea8" d="M165-50V0h-47v-50H5v-38l105-160h55v161h33v37h-33zm-47-37l2-116L46-87h72" id="an"/><g id="q"><use transform="matrix(0.04938271604938272,0,0,0.04938271604938272,0,0)" xlink:href="#al"/><use transform="matrix(0.04938271604938272,0,0,0.04938271604938272,4.938271604938272,0)" xlink:href="#ak"/><use transform="matrix(0.04938271604938272,0,0,0.04938271604938272,16.790123456790127,0)" xlink:href="#am"/><use transform="matrix(0.04938271604938272,0,0,0.04938271604938272,26.666666666666668,0)" xlink:href="#an"/></g><path fill="#979ea8" d="M25-224v-37h50v37H25zM25 0v-190h50V0H25" id="ao"/><g id="r"><use transform="matrix(0.04938271604938272,0,0,0.04938271604938272,0,0)" xlink:href="#ao"/><use transform="matrix(0.04938271604938272,0,0,0.04938271604938272,4.938271604938272,0)" xlink:href="#ai"/><use transform="matrix(0.04938271604938272,0,0,0.04938271604938272,17.7283950617284,0)" xlink:href="#aj"/><use transform="matrix(0.04938271604938272,0,0,0.04938271604938272,31.555555555555557,0)" xlink:href="#ak"/></g></defs></g></svg>