<svg xmlns="http://www.w3.org/2000/svg" xmlns:xlink="http://www.w3.org/1999/xlink" xmlns:lucid="lucid" width="1523" height="477.93"><g transform="translate(-1738.5 -583.569337703557)" lucid:page-tab-id="EkWQ2hv4MrNf"><path d="M1760 611.07a6 6 0 0 1 6-6h1468a6 6 0 0 1 6 6V1034a6 6 0 0 1-6 6H1766a6 6 0 0 1-6-6z" stroke="#dfe3e8" stroke-width="3" fill="#dfe3e8"/><use xlink:href="#a" transform="matrix(1,0,0,1,1765,610.069337703557) translate(636.7057291666667 19.999999999999996)"/><use xlink:href="#b" transform="matrix(1,0,0,1,1765,610.069337703557) translate(732.5 19.999999999999996)"/><path d="M1819.15 636.02h207.43v38.3h-207.43z" fill="none"/><use xlink:href="#c" transform="matrix(1,0,0,1,1819.1491390270467,636.0194987431087) translate(52.80246913580247 25.27777777777778)"/><path d="M1826.77 683.75h-4.38v-2.95h4.37zm14.6 0h-8.76v-2.95h8.77zm14.6 0h-8.76v-2.95h8.77zm14.6 0h-8.76v-2.95h8.77zm9.38 0h-3.54v-2.95h3.55zm107.42 0h-8.76v-2.95h8.77zm14.6 0h-8.76v-2.95h8.77zm14.6 0h-8.76v-2.95h8.77zm10.22 0h-4.4v-2.95h4.4zm-54.03 0h-3.54v-2.95h3.54z" stroke="#54c45e" stroke-width=".05" fill="#54c45e"/><path d="M1822.43 683.75h-1.54v-2.95h1.53zM2028.3 683.75h-1.55v-2.95h1.54z" stroke="#54c45e" stroke-width=".05" fill="#54c45e"/><use xlink:href="#d" transform="matrix(1,0,0,1,1879.947685086082,671.604332038375) translate(0 14.222222222222223)"/><use xlink:href="#e" transform="matrix(1,0,0,1,1879.947685086082,671.604332038375) translate(38.518518518518526 14.222222222222223)"/><use xlink:href="#f" transform="matrix(1,0,0,1,1879.947685086082,671.604332038375) translate(53.82716049382717 14.222222222222223)"/><g filter="url(#g)"><path d="M2121.3 699.86a.5.5 0 0 1 .5-.5h168.65a.5.5 0 0 1 .5.5v93.42a.5.5 0 0 1-.5.5H2121.8a.5.5 0 0 1-.5-.5z" fill="#fff" fill-opacity="0"/><path d="M2121.8 699.36a.5.5 0 0 0-.5.5v93.42a.5.5 0 0 0 .5.5h168.65a.5.5 0 0 0 .5-.5v-93.42a.5.5 0 0 0-.5-.5z" stroke="#315796" stroke-width="3" fill="#315796"/><use xlink:href="#h" transform="matrix(1,0,0,1,2131.1493308179574,710.4110573786364) translate(61.14583333333333 43.166666666666664)"/></g><g filter="url(#g)"><path d="M2121.3 902.44a.5.5 0 0 1 .5-.5h168.65a.5.5 0 0 1 .5.5v93.42a.5.5 0 0 1-.5.5H2121.8a.5.5 0 0 1-.5-.5z" fill="#fff" fill-opacity="0"/><path d="M2121.8 901.94a.5.5 0 0 0-.5.5v93.42a.5.5 0 0 0 .5.5h168.65a.5.5 0 0 0 .5-.5v-93.42a.5.5 0 0 0-.5-.5z" stroke="#315796" stroke-width="3" fill="#315796"/><use xlink:href="#i" transform="matrix(1,0,0,1,2131.1493308179574,912.9864608679057) translate(55.1171875 43.166666666666664)"/><use xlink:href="#j" transform="matrix(1,0,0,1,2131.1493308179574,912.9864608679057) translate(67.17447916666667 43.166666666666664)"/></g><g filter="url(#g)"><path d="M1821.3 902.44a.5.5 0 0 1 .5-.5h168.65a.5.5 0 0 1 .5.5v93.42a.5.5 0 0 1-.5.5H1821.8a.5.5 0 0 1-.5-.5z" fill="#fff" fill-opacity="0"/><path d="M1821.8 901.94a.5.5 0 0 0-.5.5v93.42a.5.5 0 0 0 .5.5h168.65a.5.5 0 0 0 .5-.5v-93.42a.5.5 0 0 0-.5-.5z" stroke="#315796" stroke-width="3" fill="#315796"/><use xlink:href="#k" transform="matrix(1,0,0,1,1831.149330817958,912.9864608679057) translate(54.64192708333333 43.166666666666664)"/></g><g filter="url(#g)"><path d="M1821.3 699.86a.5.5 0 0 1 .5-.5h168.65a.5.5 0 0 1 .5.5v93.42a.5.5 0 0 1-.5.5H1821.8a.5.5 0 0 1-.5-.5z" fill="#fff" fill-opacity="0"/><path d="M1821.8 699.36a.5.5 0 0 0-.5.5v93.42a.5.5 0 0 0 .5.5h168.65a.5.5 0 0 0 .5-.5v-93.42a.5.5 0 0 0-.5-.5z" stroke="#315796" stroke-width="3" fill="#315796"/><use xlink:href="#l" transform="matrix(1,0,0,1,1831.149330817958,710.4110573786364) translate(54.64192708333333 43.166666666666664)"/></g><g filter="url(#g)"><path d="M2421.3 699.86a.5.5 0 0 1 .5-.5h168.65a.5.5 0 0 1 .5.5v93.42a.5.5 0 0 1-.5.5H2421.8a.5.5 0 0 1-.5-.5z" fill="#fff" fill-opacity="0"/><path d="M2421.8 699.36a.5.5 0 0 0-.5.5v93.42a.5.5 0 0 0 .5.5h168.65a.5.5 0 0 0 .5-.5v-93.42a.5.5 0 0 0-.5-.5z" stroke="#315796" stroke-width="3" fill="#315796"/><use xlink:href="#m" transform="matrix(1,0,0,1,2431.1493308179574,710.4110573786364) translate(53.229166666666664 43.166666666666664)"/></g><g filter="url(#g)"><path d="M2721.3 699.86a.5.5 0 0 1 .5-.5h168.65a.5.5 0 0 1 .5.5v93.42a.5.5 0 0 1-.5.5H2721.8a.5.5 0 0 1-.5-.5z" fill="#fff" fill-opacity="0"/><path d="M2721.8 699.36a.5.5 0 0 0-.5.5v93.42a.5.5 0 0 0 .5.5h168.65a.5.5 0 0 0 .5-.5v-93.42a.5.5 0 0 0-.5-.5z" stroke="#315796" stroke-width="3" fill="#315796"/><use xlink:href="#n" transform="matrix(1,0,0,1,2731.149330817957,710.4110573786364) translate(61.14583333333333 43.166666666666664)"/></g><g filter="url(#g)"><path d="M2721.3 894.38a.5.5 0 0 1 .5-.5h168.65a.5.5 0 0 1 .5.5v93.4a.5.5 0 0 1-.5.5H2721.8a.5.5 0 0 1-.5-.5z" fill="#fff" fill-opacity="0"/><path d="M2721.8 893.88a.5.5 0 0 0-.5.5v93.4a.5.5 0 0 0 .5.5h168.65a.5.5 0 0 0 .5-.5v-93.4a.5.5 0 0 0-.5-.5z" stroke="#315796" stroke-width="3" fill="#315796"/><use xlink:href="#o" transform="matrix(1,0,0,1,2731.149330817957,904.9224456393822) translate(61.14583333333333 43.166666666666664)"/></g><g filter="url(#g)"><path d="M3020 799.96a.5.5 0 0 1 .5-.5h168.64a.5.5 0 0 1 .5.5v93.42a.5.5 0 0 1-.5.5H3020.5a.5.5 0 0 1-.5-.5z" fill="#fff" fill-opacity="0"/><path d="M3020.5 799.46a.5.5 0 0 0-.5.5v93.42a.5.5 0 0 0 .5.5h168.64a.5.5 0 0 0 .5-.5v-93.42a.5.5 0 0 0-.5-.5z" stroke="#315796" stroke-width="3" fill="#315796"/><use xlink:href="#p" transform="matrix(1,0,0,1,3029.8390342216676,810.5046515182873) translate(54.64192708333333 43.166666666666664)"/></g><g filter="url(#g)"><path d="M2421.3 902.44a.5.5 0 0 1 .5-.5h168.65a.5.5 0 0 1 .5.5v93.42a.5.5 0 0 1-.5.5H2421.8a.5.5 0 0 1-.5-.5z" fill="#fff" fill-opacity="0"/><path d="M2421.8 901.94a.5.5 0 0 0-.5.5v93.42a.5.5 0 0 0 .5.5h168.65a.5.5 0 0 0 .5-.5v-93.42a.5.5 0 0 0-.5-.5z" stroke="#315796" stroke-width="3" fill="#315796"/><use xlink:href="#q" transform="matrix(1,0,0,1,2431.1493308179574,912.9864608679057) translate(53.229166666666664 43.166666666666664)"/></g><path d="M2206.13 827.1v4.16m0 5.54v8.3m0 5.53v8.3m0 5.53v4.15" stroke="#54c45e" stroke-width="3" fill="none"/><path d="M2206.13 811.35l4.63 14.26h-9.27zM2206.13 884.37l-4.64-14.26h9.26z" stroke="#54c45e" stroke-width="3" fill="#54c45e"/><path d="M2187.13 783.03a.5.5 0 0 1 .5-.5h37a.5.5 0 0 1 .5.5V806a.5.5 0 0 1-.5.5h-37a.5.5 0 0 1-.5-.5z" fill="#fff" fill-opacity="0"/><path d="M2187.63 783.5a.5.5 0 0 0-.5.5v21.03a.5.5 0 0 0 .5.5h37a.5.5 0 0 0 .5-.5V784a.5.5 0 0 0-.5-.5z" stroke="#5e5e5e" fill="#fff"/><use xlink:href="#r" transform="matrix(1,0,0,1,2201.5317475861925,782.5261975270157) translate(0.49479166666666696 16.444444444444443)"/><path d="M2187.13 889.73a.5.5 0 0 1 .5-.5h37a.5.5 0 0 1 .5.5v22.97a.5.5 0 0 1-.5.5h-37a.5.5 0 0 1-.5-.5z" fill="#fff" fill-opacity="0"/><path d="M2187.63 890.2a.5.5 0 0 0-.5.5v21.03a.5.5 0 0 0 .5.5h37a.5.5 0 0 0 .5-.5V890.7a.5.5 0 0 0-.5-.5z" stroke="#5e5e5e" fill="#fff"/><use xlink:href="#r" transform="matrix(1,0,0,1,2201.5317475861925,889.226601016285) translate(0.49479166666666696 16.444444444444443)"/><path d="M2506.13 827.1v4.16m0 5.54v8.3m0 5.53v8.3m0 5.53v4.15" stroke="#54c45e" stroke-width="3" fill="none"/><path d="M2506.13 811.35l4.63 14.26h-9.27zM2506.13 884.37l-4.64-14.26h9.26z" stroke="#54c45e" stroke-width="3" fill="#54c45e"/><path d="M2339.12 746.57h3.97m5.3 0h7.95m5.3 0h7.95m5.3 0h3.98" stroke="#54c45e" stroke-width="3" fill="none"/><path d="M2323.35 746.57l14.27-4.63v9.27zM2394.65 746.57l-14.27 4.64v-9.26z" stroke="#54c45e" stroke-width="3" fill="#54c45e"/><path d="M2313.07 949.15h4.93m6.6 0h9.86m6.58 0h9.87m6.6 0h9.86m6.58 0h4.94" stroke="#54c45e" stroke-width="3" fill="none"/><path d="M2297.3 949.15l14.27-4.64v9.28zM2394.65 949.15l-14.27 4.63v-9.27z" stroke="#54c45e" stroke-width="3" fill="#54c45e"/><path d="M2639.12 746.57h3.97m5.3 0h7.95m5.3 0h7.95m5.3 0h3.98" stroke="#54c45e" stroke-width="3" fill="none"/><path d="M2623.35 746.57l14.27-4.63v9.27zM2694.65 746.57l-14.27 4.64v-9.26z" stroke="#54c45e" stroke-width="3" fill="#54c45e"/><path d="M2639.12 948.93l3.97-.02m5.3-.02l7.95-.05m5.3-.03l7.95-.04m5.3-.03l3.98-.02" stroke="#54c45e" stroke-width="3" fill="none"/><path d="M2623.35 949l14.24-4.7.04 9.27zM2694.65 948.62l-14.24 4.72-.05-9.27z" stroke="#54c45e" stroke-width="3" fill="#54c45e"/><path d="M2280 937.66a.5.5 0 0 1 .5-.5h37a.5.5 0 0 1 .5.5v22.97a.5.5 0 0 1-.5.5h-37a.5.5 0 0 1-.5-.5z" fill="#fff" fill-opacity="0"/><path d="M2280.5 938.13a.5.5 0 0 0-.5.5v21.03a.5.5 0 0 0 .5.5h37a.5.5 0 0 0 .5-.5v-21.03a.5.5 0 0 0-.5-.5z" stroke="#5e5e5e" fill="#fff"/><use xlink:href="#s" transform="matrix(1,0,0,1,2294.4014034405823,937.164101016285) translate(0.49479166666666696 16.444444444444443)"/><path d="M2400 937.66a.5.5 0 0 1 .5-.5h37a.5.5 0 0 1 .5.5v22.97a.5.5 0 0 1-.5.5h-37a.5.5 0 0 1-.5-.5z" fill="#fff" fill-opacity="0"/><path d="M2400.5 938.13a.5.5 0 0 0-.5.5v21.03a.5.5 0 0 0 .5.5h37a.5.5 0 0 0 .5-.5v-21.03a.5.5 0 0 0-.5-.5z" stroke="#5e5e5e" fill="#fff"/><use xlink:href="#s" transform="matrix(1,0,0,1,2414.4014034405823,937.164101016285) translate(0.49479166666666696 16.444444444444443)"/><path d="M2280 735.1a.5.5 0 0 1 .5-.5h37a.5.5 0 0 1 .5.5v22.96a.5.5 0 0 1-.5.5h-37a.5.5 0 0 1-.5-.5z" fill="#fff" fill-opacity="0"/><path d="M2280.5 735.56a.5.5 0 0 0-.5.5v21.03a.5.5 0 0 0 .5.5h37a.5.5 0 0 0 .5-.5v-21.04a.5.5 0 0 0-.5-.5z" stroke="#5e5e5e" fill="#fff"/><use xlink:href="#s" transform="matrix(1,0,0,1,2294.4014034405823,734.5886975270157) translate(0.49479166666666696 16.444444444444443)"/><path d="M2400 735.1a.5.5 0 0 1 .5-.5h37a.5.5 0 0 1 .5.5v22.96a.5.5 0 0 1-.5.5h-37a.5.5 0 0 1-.5-.5z" fill="#fff" fill-opacity="0"/><path d="M2400.5 735.56a.5.5 0 0 0-.5.5v21.03a.5.5 0 0 0 .5.5h37a.5.5 0 0 0 .5-.5v-21.04a.5.5 0 0 0-.5-.5z" stroke="#5e5e5e" fill="#fff"/><use xlink:href="#s" transform="matrix(1,0,0,1,2414.4014034405823,734.5886975270157) translate(0.49479166666666696 16.444444444444443)"/><path d="M2580 735.1a.5.5 0 0 1 .5-.5h37a.5.5 0 0 1 .5.5v22.96a.5.5 0 0 1-.5.5h-37a.5.5 0 0 1-.5-.5z" fill="#fff" fill-opacity="0"/><path d="M2580.5 735.56a.5.5 0 0 0-.5.5v21.03a.5.5 0 0 0 .5.5h37a.5.5 0 0 0 .5-.5v-21.04a.5.5 0 0 0-.5-.5z" stroke="#5e5e5e" fill="#fff"/><use xlink:href="#t" transform="matrix(1,0,0,1,2594.4014034405823,734.5886975270157) translate(0.49479166666666696 16.444444444444443)"/><path d="M2700 735.1a.5.5 0 0 1 .5-.5h37a.5.5 0 0 1 .5.5v22.96a.5.5 0 0 1-.5.5h-37a.5.5 0 0 1-.5-.5z" fill="#fff" fill-opacity="0"/><path d="M2700.5 735.56a.5.5 0 0 0-.5.5v21.03a.5.5 0 0 0 .5.5h37a.5.5 0 0 0 .5-.5v-21.04a.5.5 0 0 0-.5-.5z" stroke="#5e5e5e" fill="#fff"/><use xlink:href="#t" transform="matrix(1,0,0,1,2714.4014034405823,734.5886975270157) translate(0.49479166666666696 16.444444444444443)"/><path d="M2580 937.66a.5.5 0 0 1 .5-.5h37a.5.5 0 0 1 .5.5v22.97a.5.5 0 0 1-.5.5h-37a.5.5 0 0 1-.5-.5z" fill="#fff" fill-opacity="0"/><path d="M2580.5 938.13a.5.5 0 0 0-.5.5v21.03a.5.5 0 0 0 .5.5h37a.5.5 0 0 0 .5-.5v-21.03a.5.5 0 0 0-.5-.5z" stroke="#5e5e5e" fill="#fff"/><use xlink:href="#t" transform="matrix(1,0,0,1,2594.4014034405823,937.164101016285) translate(0.49479166666666696 16.444444444444443)"/><path d="M2700 937a.5.5 0 0 1 .5-.5h37a.5.5 0 0 1 .5.5v22.97a.5.5 0 0 1-.5.5h-37a.5.5 0 0 1-.5-.5z" fill="#fff" fill-opacity="0"/><path d="M2700.5 937.47a.5.5 0 0 0-.5.5V959a.5.5 0 0 0 .5.5h37a.5.5 0 0 0 .5-.5v-21.03a.5.5 0 0 0-.5-.5z" stroke="#5e5e5e" fill="#fff"/><use xlink:href="#t" transform="matrix(1,0,0,1,2714.4014034405823,936.50448874577) translate(0.49479166666666696 16.444444444444443)"/><path d="M2805.7 827.1l.03 4.55m.04 6.05l.06 9.07m.05 6.05l.03 4.53" stroke="#54c45e" stroke-width="3" fill="none"/><path d="M2805.6 811.35l4.72 14.23-9.27.07zM2806 873.12l-4.72-14.24 9.27-.06z" stroke="#54c45e" stroke-width="3" fill="#54c45e"/><path d="M2786.47 783.03a.5.5 0 0 1 .5-.5h37a.5.5 0 0 1 .5.5V806a.5.5 0 0 1-.5.5h-37a.5.5 0 0 1-.5-.5z" fill="#fff" fill-opacity="0"/><path d="M2786.97 783.5a.5.5 0 0 0-.5.5v21.03a.5.5 0 0 0 .5.5h37a.5.5 0 0 0 .5-.5V784a.5.5 0 0 0-.5-.5z" stroke="#5e5e5e" fill="#fff"/><use xlink:href="#r" transform="matrix(1,0,0,1,2800.8765992880476,782.5261975270157) translate(0.49479166666666696 16.444444444444443)"/><path d="M2787.13 878.47a.5.5 0 0 1 .5-.5h37a.5.5 0 0 1 .5.5v22.97a.5.5 0 0 1-.5.5h-37a.5.5 0 0 1-.5-.5z" fill="#fff" fill-opacity="0"/><path d="M2787.63 878.94a.5.5 0 0 0-.5.5v21.03a.5.5 0 0 0 .5.5h37a.5.5 0 0 0 .5-.5v-21.03a.5.5 0 0 0-.5-.5z" stroke="#5e5e5e" fill="#fff"/><use xlink:href="#r" transform="matrix(1,0,0,1,2801.5317475861916,877.9708289557376) translate(0.49479166666666696 16.444444444444443)"/><path d="M2880 735.1a.5.5 0 0 1 .5-.5h37a.5.5 0 0 1 .5.5v22.96a.5.5 0 0 1-.5.5h-37a.5.5 0 0 1-.5-.5z" fill="#fff" fill-opacity="0"/><path d="M2880.5 735.56a.5.5 0 0 0-.5.5v21.03a.5.5 0 0 0 .5.5h37a.5.5 0 0 0 .5-.5v-21.04a.5.5 0 0 0-.5-.5z" stroke="#5e5e5e" fill="#fff"/><use xlink:href="#u" transform="matrix(1,0,0,1,2894.4014034405823,734.5886975270157) translate(0.49479166666666696 16.444444444444443)"/><path d="M2880 937.66a.5.5 0 0 1 .5-.5h37a.5.5 0 0 1 .5.5v22.97a.5.5 0 0 1-.5.5h-37a.5.5 0 0 1-.5-.5z" fill="#fff" fill-opacity="0"/><path d="M2880.5 938.13a.5.5 0 0 0-.5.5v21.03a.5.5 0 0 0 .5.5h37a.5.5 0 0 0 .5-.5v-21.03a.5.5 0 0 0-.5-.5z" stroke="#5e5e5e" fill="#fff"/><use xlink:href="#s" transform="matrix(1,0,0,1,2894.4014034405823,937.164101016285) translate(0.49479166666666696 16.444444444444443)"/><path d="M2487.13 783.03a.5.5 0 0 1 .5-.5h37a.5.5 0 0 1 .5.5V806a.5.5 0 0 1-.5.5h-37a.5.5 0 0 1-.5-.5z" fill="#fff" fill-opacity="0"/><path d="M2487.63 783.5a.5.5 0 0 0-.5.5v21.03a.5.5 0 0 0 .5.5h37a.5.5 0 0 0 .5-.5V784a.5.5 0 0 0-.5-.5z" stroke="#5e5e5e" fill="#fff"/><use xlink:href="#r" transform="matrix(1,0,0,1,2501.5317475861916,782.5261975270157) translate(0.49479166666666696 16.444444444444443)"/><path d="M2487.13 889.73a.5.5 0 0 1 .5-.5h37a.5.5 0 0 1 .5.5v22.97a.5.5 0 0 1-.5.5h-37a.5.5 0 0 1-.5-.5z" fill="#fff" fill-opacity="0"/><path d="M2487.63 890.2a.5.5 0 0 0-.5.5v21.03a.5.5 0 0 0 .5.5h37a.5.5 0 0 0 .5-.5V890.7a.5.5 0 0 0-.5-.5z" stroke="#5e5e5e" fill="#fff"/><use xlink:href="#r" transform="matrix(1,0,0,1,2501.531747586192,889.226601016285) translate(0.49479166666666696 16.444444444444443)"/><path d="M2018.6 787.64l2.43 3.6m3.23 4.78l4.85 7.2m3.24 4.78l4.85 7.2m3.22 4.78l4.85 7.2m3.23 4.78l4.84 7.2m3.24 4.78l4.84 7.18m3.23 4.8l4.85 7.18m3.23 4.8l4.85 7.18m3.23 4.8l4.86 7.18m3.23 4.8l4.83 7.18m3.24 4.8l2.42 3.58" stroke="#54c45e" stroke-width="3" fill="none"/><path d="M2009.8 774.57l11.8 9.23-7.67 5.2zM2108.2 920.5l-11.82-9.24 7.7-5.18z" stroke="#54c45e" stroke-width="3" fill="#54c45e"/><path d="M2018.6 907.42l2.43-3.6m3.23-4.78l4.85-7.2m3.24-4.78l4.85-7.2m3.22-4.78l4.85-7.2m3.23-4.78l4.84-7.18m3.24-4.8l4.84-7.18m3.23-4.8l4.85-7.18m3.23-4.8l4.85-7.18m3.23-4.8l4.86-7.18m3.23-4.8l4.83-7.18m3.24-4.8l2.42-3.58" stroke="#54c45e" stroke-width="3" fill="none"/><path d="M2009.8 920.5l4.13-14.42 7.68 5.18zM2108.2 774.57l-4.13 14.42-7.7-5.2z" stroke="#54c45e" stroke-width="3" fill="#54c45e"/><path d="M2039.12 960.47h3.98m5.3 0h7.95m5.3 0h7.95m5.3 0h3.98" stroke="#54c45e" stroke-width="3" fill="none"/><path d="M2023.35 960.47l14.27-4.63v9.27zM2094.65 960.47l-14.27 4.64v-9.26z" stroke="#54c45e" stroke-width="3" fill="#54c45e"/><path d="M2039.12 734.6h3.98m5.3 0h7.95m5.3 0h7.95m5.3 0h3.98" stroke="#54c45e" stroke-width="3" fill="none"/><path d="M2023.35 734.6l14.27-4.65v9.27zM2094.65 734.6l-14.27 4.62v-9.27z" stroke="#54c45e" stroke-width="3" fill="#54c45e"/><path d="M2931.35 924.75l3.32-2.5m4.42-3.34l6.63-5m4.42-3.33l6.64-5m4.4-3.34l6.65-5m4.42-3.34l6.63-5m4.43-3.35l3.32-2.5" stroke="#54c45e" stroke-width="3" fill="none"/><path d="M2918.77 934.24l8.6-12.3 5.58 7.4zM2999.23 873.56l-8.6 12.3-5.58-7.4z" stroke="#54c45e" stroke-width="3" fill="#54c45e"/><path d="M2931.94 770.76l4.06 2.98m5.4 3.97l8.13 5.97m5.4 3.98l8.13 5.96m5.4 3.98l8.13 5.96m5.4 3.97l4.06 3" stroke="#54c45e" stroke-width="3" fill="none"/><path d="M2919.23 761.43l14.25 4.7-5.5 7.48zM2998.76 819.83l-14.24-4.7 5.5-7.48z" stroke="#54c45e" stroke-width="3" fill="#54c45e"/><path d="M1980 723.1a.5.5 0 0 1 .5-.5h37a.5.5 0 0 1 .5.5v22.97a.5.5 0 0 1-.5.5h-37a.5.5 0 0 1-.5-.5z" fill="#fff" fill-opacity="0"/><path d="M1980.5 723.57a.5.5 0 0 0-.5.5v21.03a.5.5 0 0 0 .5.5h37a.5.5 0 0 0 .5-.5v-21.03a.5.5 0 0 0-.5-.5z" stroke="#5e5e5e" fill="#fff"/><use xlink:href="#u" transform="matrix(1,0,0,1,1994.401403440582,722.6043225270157) translate(0.49479166666666696 16.444444444444443)"/><path d="M1980 747.07a.5.5 0 0 1 .5-.5h37a.5.5 0 0 1 .5.5v22.97a.5.5 0 0 1-.5.5h-37a.5.5 0 0 1-.5-.5z" fill="#fff" fill-opacity="0"/><path d="M1980.5 747.54a.5.5 0 0 0-.5.5v21.03a.5.5 0 0 0 .5.5h37a.5.5 0 0 0 .5-.5v-21.03a.5.5 0 0 0-.5-.5z" stroke="#5e5e5e" fill="#fff"/><use xlink:href="#t" transform="matrix(1,0,0,1,1994.401403440582,746.5730725270157) translate(0.49479166666666696 16.444444444444443)"/><path d="M2100 723.1a.5.5 0 0 1 .5-.5h37a.5.5 0 0 1 .5.5v22.97a.5.5 0 0 1-.5.5h-37a.5.5 0 0 1-.5-.5z" fill="#fff" fill-opacity="0"/><path d="M2100.5 723.57a.5.5 0 0 0-.5.5v21.03a.5.5 0 0 0 .5.5h37a.5.5 0 0 0 .5-.5v-21.03a.5.5 0 0 0-.5-.5z" stroke="#5e5e5e" fill="#fff"/><use xlink:href="#u" transform="matrix(1,0,0,1,2114.4014034405823,722.6043225270157) translate(0.49479166666666696 16.444444444444443)"/><path d="M2100 747.07a.5.5 0 0 1 .5-.5h37a.5.5 0 0 1 .5.5v22.97a.5.5 0 0 1-.5.5h-37a.5.5 0 0 1-.5-.5z" fill="#fff" fill-opacity="0"/><path d="M2100.5 747.54a.5.5 0 0 0-.5.5v21.03a.5.5 0 0 0 .5.5h37a.5.5 0 0 0 .5-.5v-21.03a.5.5 0 0 0-.5-.5z" stroke="#5e5e5e" fill="#fff"/><use xlink:href="#t" transform="matrix(1,0,0,1,2114.4014034405823,746.5730725270157) translate(0.49479166666666696 16.444444444444443)"/><path d="M1980 925.02a.5.5 0 0 1 .5-.5h37a.5.5 0 0 1 .5.5V948a.5.5 0 0 1-.5.5h-37a.5.5 0 0 1-.5-.5z" fill="#fff" fill-opacity="0"/><path d="M1980.5 925.5a.5.5 0 0 0-.5.5V947a.5.5 0 0 0 .5.5h37a.5.5 0 0 0 .5-.5V926a.5.5 0 0 0-.5-.5z" stroke="#5e5e5e" fill="#fff"/><use xlink:href="#t" transform="matrix(1,0,0,1,1994.401403440582,924.52011374577) translate(0.49479166666666696 16.444444444444443)"/><path d="M1980 949a.5.5 0 0 1 .5-.5h37a.5.5 0 0 1 .5.5v22.96a.5.5 0 0 1-.5.5h-37a.5.5 0 0 1-.5-.5z" fill="#fff" fill-opacity="0"/><path d="M1980.5 949.46a.5.5 0 0 0-.5.5V971a.5.5 0 0 0 .5.5h37a.5.5 0 0 0 .5-.5v-21.04a.5.5 0 0 0-.5-.5z" stroke="#5e5e5e" fill="#fff"/><use xlink:href="#u" transform="matrix(1,0,0,1,1994.401403440582,948.48886374577) translate(0.49479166666666696 16.444444444444443)"/><path d="M2100 925.02a.5.5 0 0 1 .5-.5h37a.5.5 0 0 1 .5.5V948a.5.5 0 0 1-.5.5h-37a.5.5 0 0 1-.5-.5z" fill="#fff" fill-opacity="0"/><path d="M2100.5 925.5a.5.5 0 0 0-.5.5V947a.5.5 0 0 0 .5.5h37a.5.5 0 0 0 .5-.5V926a.5.5 0 0 0-.5-.5z" stroke="#5e5e5e" fill="#fff"/><use xlink:href="#t" transform="matrix(1,0,0,1,2114.4014034405823,924.52011374577) translate(0.49479166666666696 16.444444444444443)"/><path d="M2100 949a.5.5 0 0 1 .5-.5h37a.5.5 0 0 1 .5.5v22.96a.5.5 0 0 1-.5.5h-37a.5.5 0 0 1-.5-.5z" fill="#fff" fill-opacity="0"/><path d="M2100.5 949.46a.5.5 0 0 0-.5.5V971a.5.5 0 0 0 .5.5h37a.5.5 0 0 0 .5-.5v-21.04a.5.5 0 0 0-.5-.5z" stroke="#5e5e5e" fill="#fff"/><use xlink:href="#u" transform="matrix(1,0,0,1,2114.4014034405823,948.48886374577) translate(0.49479166666666696 16.444444444444443)"/><path d="M3000 823.2a.5.5 0 0 1 .5-.5h37a.5.5 0 0 1 .5.5v22.97a.5.5 0 0 1-.5.5h-37a.5.5 0 0 1-.5-.5z" fill="#fff" fill-opacity="0"/><path d="M3000.5 823.67a.5.5 0 0 0-.5.5v21.03a.5.5 0 0 0 .5.5h37a.5.5 0 0 0 .5-.5v-21.03a.5.5 0 0 0-.5-.5z" stroke="#5e5e5e" fill="#fff"/><use xlink:href="#u" transform="matrix(1,0,0,1,3014.4014034405823,822.6979166666666) translate(0.49479166666666696 16.444444444444443)"/><path d="M3000 847.17a.5.5 0 0 1 .5-.5h37a.5.5 0 0 1 .5.5v22.97a.5.5 0 0 1-.5.5h-37a.5.5 0 0 1-.5-.5z" fill="#fff" fill-opacity="0"/><path d="M3000.5 847.64a.5.5 0 0 0-.5.5v21.03a.5.5 0 0 0 .5.5h37a.5.5 0 0 0 .5-.5v-21.03a.5.5 0 0 0-.5-.5z" stroke="#5e5e5e" fill="#fff"/><g><use xlink:href="#s" transform="matrix(1,0,0,1,3014.4014034405823,846.6666666666666) translate(0.49479166666666696 16.444444444444443)"/></g><defs><path fill="#333" d="M405 0H141v-1328h264V0" id="v"/><path fill="#333" d="M469-200c119 0 194-62 190-182-5-155-165-165-285-207C212-646 83-736 88-958c4-182 105-295 242-352 113-48 278-41 392 4 65 25 120 59 166 104l-67 124c-13 37-61 47-98 23-55-35-117-75-210-75-111 0-181 57-181 159 0 146 173 155 287 201 153 61 292 138 287 351-7 273-167 433-444 433-190 0-326-77-424-175l78-125c18-34 71-42 108-14 63 47 132 100 245 100" id="w"/><path fill="#333" d="M61-690h505v212H61v-212" id="x"/><path fill="#333" d="M371-216h461V0H108v-1328h263v1112" id="y"/><path fill="#333" d="M1198-932c62 158 61 378 0 536C1107-162 916 0 600 0H116v-1328h484c315 6 507 163 598 396zM600-209c264-9 377-187 377-456 0-268-114-446-377-455H380v911h220" id="z"/><path fill="#333" d="M1037-902c0 300-189 436-495 441H378V0H115v-1328h427c303 4 495 131 495 426zm-263 0c0-143-81-224-232-224H378v461h164c156 2 232-87 232-237" id="A"/><g id="a"><use transform="matrix(0.01302083333333333,0,0,0.01302083333333333,0,0)" xlink:href="#v"/><use transform="matrix(0.01302083333333333,0,0,0.01302083333333333,7.109374999999998,0)" xlink:href="#w"/><use transform="matrix(0.01302083333333333,0,0,0.01302083333333333,19.713541666666664,0)" xlink:href="#v"/><use transform="matrix(0.01302083333333333,0,0,0.01302083333333333,26.822916666666668,0)" xlink:href="#w"/><use transform="matrix(0.01302083333333333,0,0,0.01302083333333333,39.32291666666666,0)" xlink:href="#x"/><use transform="matrix(0.01302083333333333,0,0,0.01302083333333333,47.48697916666666,0)" xlink:href="#y"/><use transform="matrix(0.01302083333333333,0,0,0.01302083333333333,58.76302083333332,0)" xlink:href="#z"/><use transform="matrix(0.01302083333333333,0,0,0.01302083333333333,75.57291666666666,0)" xlink:href="#A"/></g><path fill="#333" d="M375-536c5 198 97 324 294 324s294-126 294-324v-792h262v792c-5 265-130 431-324 510-132 55-333 55-465 0-195-79-324-244-324-510v-792h263v792" id="B"/><path fill="#333" d="M582-811c-92 1-152 44-204 95V0H124v-993c65 5 150-14 196 11 30 17 27 71 39 107 74-72 158-134 301-134 225 0 332 151 332 377V0H738v-632c0-109-49-180-156-179" id="C"/><path fill="#333" d="M483-1012c112 0 179 37 238 92v-517h254V0H818c-73 2-64-82-83-135C661-54 570 15 422 15 157 15 63-214 63-494c0-232 92-397 247-478 52-26 110-40 173-40zM325-494c0 166 29 308 186 308 106 0 161-51 210-111v-438c-43-55-93-85-178-85-170 0-218 146-218 326" id="D"/><path fill="#333" d="M960-149C871-45 736 15 551 15 231 15 63-191 63-518c0-229 113-378 277-452 59-26 125-39 199-39 278 0 430 170 430 452 0 55-4 97-59 97H316c14 166 83 276 257 279 98 1 159-38 221-71 33-18 71-20 93 9zM741-612c-4-130-65-216-197-216-140 0-203 89-223 216h420" id="E"/><path fill="#333" d="M545-767c-109 4-148 72-181 151V0H110v-993c66 5 161-12 204 14 28 28 23 102 33 150 53-94 116-183 244-183 43 0 79 10 107 31l-19 190c-6 59-87 22-134 24" id="F"/><path fill="#333" d="M379-1437V0H125v-1437h254" id="G"/><path fill="#333" d="M534-1012c240 0 371 147 371 387V0c-80-7-186 24-201-53l-22-66C598-47 516 18 362 15 183 12 73-75 73-255c0-177 142-239 303-283 75-20 169-31 281-34 9-142-26-239-155-239-97 0-149 37-209 70-49 27-108 2-128-33l-46-80c103-96 231-158 415-158zM316-268c-2 80 48 110 125 110 107 0 156-41 216-100v-160c-111 5-199 15-269 48-43 21-70 49-72 102" id="H"/><path fill="#333" d="M467 269c-16 34-32 53-81 53H195L372-78 3-993h223c40-1 61 20 70 46 70 199 136 397 201 599 66-198 128-399 192-599 8-25 36-46 68-46h203" id="I"/><g id="b"><use transform="matrix(0.01302083333333333,0,0,0.01302083333333333,0,0)" xlink:href="#B"/><use transform="matrix(0.01302083333333333,0,0,0.01302083333333333,17.408854166666664,0)" xlink:href="#C"/><use transform="matrix(0.01302083333333333,0,0,0.01302083333333333,31.718749999999993,0)" xlink:href="#D"/><use transform="matrix(0.01302083333333333,0,0,0.01302083333333333,46.02864583333332,0)" xlink:href="#E"/><use transform="matrix(0.01302083333333333,0,0,0.01302083333333333,59.453124999999986,0)" xlink:href="#F"/><use transform="matrix(0.01302083333333333,0,0,0.01302083333333333,68.93229166666666,0)" xlink:href="#G"/><use transform="matrix(0.01302083333333333,0,0,0.01302083333333333,75.48177083333333,0)" xlink:href="#H"/><use transform="matrix(0.01302083333333333,0,0,0.01302083333333333,88.1640625,0)" xlink:href="#I"/></g><path fill="#979ea8" d="M24 0v-248h52v208h133V0H24" id="J"/><path fill="#979ea8" d="M185-48c-13 30-37 53-82 52C43 2 14-33 14-96s30-98 90-98c62 0 83 45 84 108H66c0 31 8 55 39 56 18 0 30-7 34-22zm-45-69c5-46-57-63-70-21-2 6-4 13-4 21h74" id="K"/><path fill="#979ea8" d="M195-6C206 82 75 100 31 46c-4-6-6-13-8-21l49-6c3 16 16 24 34 25 40 0 42-37 40-79-11 22-30 35-61 35-53 0-70-43-70-97 0-56 18-96 73-97 30 0 46 14 59 34l2-30h47zm-90-29c32 0 41-27 41-63 0-35-9-62-40-62-32 0-39 29-40 63 0 36 9 62 39 62" id="L"/><path fill="#979ea8" d="M135-194c87-1 58 113 63 194h-50c-7-57 23-157-34-157-59 0-34 97-39 157H25l-1-190h47c2 12-1 28 3 38 12-26 28-41 61-42" id="M"/><path fill="#979ea8" d="M88-194c31-1 46 15 58 34l-1-101h50l1 261h-48c-2-10 0-23-3-31C134-8 116 4 84 4 32 4 16-41 15-95c0-56 19-97 73-99zm17 164c33 0 40-30 41-66 1-37-9-64-41-64s-38 30-39 65c0 43 13 65 39 65" id="N"/><g id="c"><use transform="matrix(0.08024691358024691,0,0,0.08024691358024691,0,0)" xlink:href="#J"/><use transform="matrix(0.08024691358024691,0,0,0.08024691358024691,17.574074074074073,0)" xlink:href="#K"/><use transform="matrix(0.08024691358024691,0,0,0.08024691358024691,33.623456790123456,0)" xlink:href="#L"/><use transform="matrix(0.08024691358024691,0,0,0.08024691358024691,51.197530864197525,0)" xlink:href="#K"/><use transform="matrix(0.08024691358024691,0,0,0.08024691358024691,67.24691358024691,0)" xlink:href="#M"/><use transform="matrix(0.08024691358024691,0,0,0.08024691358024691,84.82098765432099,0)" xlink:href="#N"/></g><path fill="#979ea8" d="M24 0v-248h52V0H24" id="O"/><path fill="#979ea8" d="M169-182c-1-43-94-46-97-3 18 66 151 10 154 114 3 95-165 93-204 36-6-8-10-19-12-30l50-8c3 46 112 56 116 5-17-69-150-10-154-114-4-87 153-88 188-35 5 8 8 18 10 28" id="P"/><g id="d"><use transform="matrix(0.04938271604938272,0,0,0.04938271604938272,0,0)" xlink:href="#O"/><use transform="matrix(0.04938271604938272,0,0,0.04938271604938272,4.938271604938272,0)" xlink:href="#P"/><use transform="matrix(0.04938271604938272,0,0,0.04938271604938272,16.790123456790127,0)" xlink:href="#O"/><use transform="matrix(0.04938271604938272,0,0,0.04938271604938272,21.7283950617284,0)" xlink:href="#P"/></g><path fill="#979ea8" d="M125-100v72H85v-72H15v-39h70v-72h40v72h71v39h-71" id="Q"/><use transform="matrix(0.04938271604938272,0,0,0.04938271604938272,0,0)" xlink:href="#Q" id="e"/><path fill="#979ea8" d="M24-248c120-7 223 5 221 122C244-46 201 0 124 0H24v-248zM76-40c74 7 117-18 117-86 0-67-45-88-117-82v168" id="R"/><path fill="#979ea8" d="M24-248c93 1 206-16 204 79-1 75-69 88-152 82V0H24v-248zm52 121c47 0 100 7 100-41 0-47-54-39-100-39v80" id="S"/><g id="f"><use transform="matrix(0.04938271604938272,0,0,0.04938271604938272,0,0)" xlink:href="#J"/><use transform="matrix(0.04938271604938272,0,0,0.04938271604938272,10.814814814814815,0)" xlink:href="#R"/><use transform="matrix(0.04938271604938272,0,0,0.04938271604938272,23.60493827160494,0)" xlink:href="#S"/></g><path fill="#fff" d="M1037-902c0 300-189 436-495 441H378V0H115v-1328h427c303 4 495 131 495 426zm-263 0c0-143-81-224-232-224H378v461h164c156 2 232-87 232-237" id="T"/><path fill="#fff" d="M236-180h257c2-279-3-565 3-840L323-871c-27 30-91 18-110-9l-76-104 399-346h198v1150h227V0H236v-180" id="U"/><g id="h"><use transform="matrix(0.013020833333333334,0,0,0.013020833333333334,0,0)" xlink:href="#T"/><use transform="matrix(0.013020833333333334,0,0,0.013020833333333334,14.192708333333334,0)" xlink:href="#U"/></g><filter id="g" filterUnits="objectBoundingBox" x="-.06" y="-.04" width="1.12" height="1.21"><feOffset result="offOut" in="SourceAlpha" dy="6"/><feGaussianBlur result="blurOut" in="offOut" stdDeviation="5"/><feColorMatrix result="colorOut" in="blurOut" values="0 0 0 0 0 0 0 0 0 0 0 0 0 0 0 0 0 0 0.5019607843137255 0"/><feBlend in="SourceGraphic" in2="colorOut"/></filter><path fill="#fff" d="M89-955c40-238 181-388 449-388 250 0 409 134 409 381 0 232-139 347-258 472L407-195c126-46 310-24 475-29 49-1 86 32 85 80V0H69c-2-76 0-138 43-180 161-160 326-321 472-494 63-74 110-153 115-281 6-143-107-217-242-175-61 19-100 69-121 131-19 56-46 79-119 66" id="V"/><g id="j"><use transform="matrix(0.013020833333333334,0,0,0.013020833333333334,0,0)" xlink:href="#T"/><use transform="matrix(0.013020833333333334,0,0,0.013020833333333334,14.192708333333334,0)" xlink:href="#V"/></g><path fill="#fff" d="M928-1328v209H382v351h425v201H382v358h547L928 0H118v-1328h810" id="W"/><g id="k"><use transform="matrix(0.013020833333333334,0,0,0.013020833333333334,0,0)" xlink:href="#T"/><use transform="matrix(0.013020833333333334,0,0,0.013020833333333334,14.192708333333334,0)" xlink:href="#W"/><use transform="matrix(0.013020833333333334,0,0,0.013020833333333334,27.200520833333336,0)" xlink:href="#V"/></g><g id="l"><use transform="matrix(0.013020833333333334,0,0,0.013020833333333334,0,0)" xlink:href="#T"/><use transform="matrix(0.013020833333333334,0,0,0.013020833333333334,14.192708333333334,0)" xlink:href="#W"/><use transform="matrix(0.013020833333333334,0,0,0.013020833333333334,27.200520833333336,0)" xlink:href="#U"/></g><path fill="#fff" d="M1018-942c0 206-115 318-270 377 36 21 66 45 88 81L1133 0H896c-42 0-76-17-97-53L557-467c-20-31-37-43-86-44h-89V0H118v-1328h400c295 3 500 102 500 386zm-256 18c0-141-92-203-244-202H382v428h134c155-2 246-74 246-226" id="X"/><g id="m"><use transform="matrix(0.013020833333333334,0,0,0.013020833333333334,0,0)" xlink:href="#X"/><use transform="matrix(0.013020833333333334,0,0,0.013020833333333334,15.013020833333334,0)" xlink:href="#X"/><use transform="matrix(0.013020833333333334,0,0,0.013020833333333334,30.026041666666668,0)" xlink:href="#U"/></g><path fill="#fff" d="M113-955c38-239 181-388 448-388 186 0 310 81 369 209 18 42 27 87 27 134 1 168-77 256-203 297 151 51 227 154 227 307C981-126 800 8 532 14 260 20 143-131 76-338c63-25 186-102 236-14 46 82 93 164 218 164 130 0 203-76 210-200 9-175-112-206-288-206v-171c158-2 269-37 269-193 0-117-60-182-173-183-99-1-165 67-190 142-19 57-44 79-118 66" id="Y"/><g id="n"><use transform="matrix(0.013020833333333334,0,0,0.013020833333333334,0,0)" xlink:href="#T"/><use transform="matrix(0.013020833333333334,0,0,0.013020833333333334,14.192708333333334,0)" xlink:href="#Y"/></g><path fill="#fff" d="M1007-505c-9 70 29 185-49 186H854V0H644v-319H105c-83-4-69-108-90-173l609-837h230v824h153zm-363 0c3-182-8-376 8-546L269-505h375" id="Z"/><g id="o"><use transform="matrix(0.013020833333333334,0,0,0.013020833333333334,0,0)" xlink:href="#T"/><use transform="matrix(0.013020833333333334,0,0,0.013020833333333334,14.192708333333334,0)" xlink:href="#Z"/></g><g id="p"><use transform="matrix(0.013020833333333334,0,0,0.013020833333333334,0,0)" xlink:href="#T"/><use transform="matrix(0.013020833333333334,0,0,0.013020833333333334,14.192708333333334,0)" xlink:href="#W"/><use transform="matrix(0.013020833333333334,0,0,0.013020833333333334,27.200520833333336,0)" xlink:href="#Y"/></g><g id="q"><use transform="matrix(0.013020833333333334,0,0,0.013020833333333334,0,0)" xlink:href="#X"/><use transform="matrix(0.013020833333333334,0,0,0.013020833333333334,15.013020833333334,0)" xlink:href="#X"/><use transform="matrix(0.013020833333333334,0,0,0.013020833333333334,30.026041666666668,0)" xlink:href="#V"/></g><path d="M1007-505c-9 70 29 185-49 186H854V0H644v-319H105c-83-4-69-108-90-173l609-837h230v824h153zm-363 0c3-182-8-376 8-546L269-505h375" id="aa"/><use transform="matrix(0.008680555555555554,0,0,0.008680555555555554,0,0)" xlink:href="#aa" id="r"/><path d="M113-955c38-239 181-388 448-388 186 0 310 81 369 209 18 42 27 87 27 134 1 168-77 256-203 297 151 51 227 154 227 307C981-126 800 8 532 14 260 20 143-131 76-338c63-25 186-102 236-14 46 82 93 164 218 164 130 0 203-76 210-200 9-175-112-206-288-206v-171c158-2 269-37 269-193 0-117-60-182-173-183-99-1-165 67-190 142-19 57-44 79-118 66" id="ab"/><use transform="matrix(0.008680555555555554,0,0,0.008680555555555554,0,0)" xlink:href="#ab" id="s"/><path d="M89-955c40-238 181-388 449-388 250 0 409 134 409 381 0 232-139 347-258 472L407-195c126-46 310-24 475-29 49-1 86 32 85 80V0H69c-2-76 0-138 43-180 161-160 326-321 472-494 63-74 110-153 115-281 6-143-107-217-242-175-61 19-100 69-121 131-19 56-46 79-119 66" id="ac"/><use transform="matrix(0.008680555555555554,0,0,0.008680555555555554,0,0)" xlink:href="#ac" id="t"/><path d="M236-180h257c2-279-3-565 3-840L323-871c-27 30-91 18-110-9l-76-104 399-346h198v1150h227V0H236v-180" id="ad"/><use transform="matrix(0.008680555555555554,0,0,0.008680555555555554,0,0)" xlink:href="#ad" id="u"/></defs></g></svg>