<svg xmlns="http://www.w3.org/2000/svg" xmlns:xlink="http://www.w3.org/1999/xlink" xmlns:lucid="lucid" width="1974" height="1284"><g transform="translate(4228 -42)" lucid:page-tab-id="-2yXCcs~9_sC"><path d="M-4480 0h6720v1360h-6720z" fill="#fff"/><path d="M-4164.9 108.25a6 6 0 0 1 6-6h1807.18a6 6 0 0 1 6 6v1112.9a6 6 0 0 1-6 6h-1807.2a6 6 0 0 1-6-6z" stroke="#dbdbdb" stroke-width="3" fill="#f2f3f5"/><path d="M-3677.86 165a20 20 0 0 1 20-20h857.04a20 20 0 0 1 20 20v124.76a20 20 0 0 1-20 20h-857.04a20 20 0 0 1-20-20zM-4110.84 750.14a20 20 0 0 1 20-20h432.6a20 20 0 0 1 20 20v358.45a20 20 0 0 1-20 20h-432.6a20 20 0 0 1-20-20zM-3604.53 750.14a20 20 0 0 1 20-20h432.6a20 20 0 0 1 20 20v358.45a20 20 0 0 1-20 20h-432.6a20 20 0 0 1-20-20zM-3096.2 751.62a20 20 0 0 1 20-20h670.76a20 20 0 0 1 20 20v358.45a20 20 0 0 1-20 20h-670.77a20 20 0 0 1-20-20z" stroke="#ced4db" stroke-width="3" fill="#ced4db"/><path d="M-4124.12 143.65h362.8v113.03h-362.8z" fill="none"/><use xlink:href="#a" transform="matrix(1,0,0,1,-4124.117635628081,143.64916748813215) translate(0 38.33333333333334)"/><use xlink:href="#b" transform="matrix(1,0,0,1,-4124.117635628081,143.64916748813215) translate(0 94.33333333333331)"/><use xlink:href="#c" transform="matrix(1,0,0,1,-4124.117635628081,143.64916748813215) translate(196.6481481481481 94.33333333333331)"/><g filter="url(#d)"><path d="M-4081.84 872.08a.5.5 0 0 0-.5.5v93.4a.5.5 0 0 0 .5.5h168.64a.5.5 0 0 0 .5-.5v-93.4a.5.5 0 0 0-.5-.5z" stroke="#315796" stroke-width="3" fill="#315796"/><use xlink:href="#e" transform="matrix(1,0,0,1,-4072.5031505281745,883.1230907261795) translate(33.98437499999999 43.166666666666664)"/></g><g filter="url(#d)"><path d="M-3837.6 872.08a.5.5 0 0 0-.5.5v93.4a.5.5 0 0 0 .5.5h168.63a.5.5 0 0 0 .5-.5v-93.4a.5.5 0 0 0-.5-.5z" stroke="#315796" stroke-width="3" fill="#315796"/><use xlink:href="#f" transform="matrix(1,0,0,1,-3828.265818743844,883.1230907261795) translate(34.58984374999999 43.166666666666664)"/></g><path d="M-3925.96 895.75a.5.5 0 0 0-.5.5v21.03a.5.5 0 0 0 .5.5h37a.5.5 0 0 0 .5-.5v-21.03a.5.5 0 0 0-.5-.5z" stroke="#5e5e5e" fill="#fff"/><use xlink:href="#g" transform="matrix(1,0,0,1,-3912.063354426289,894.7851058745595) translate(-4.010416666666666 16.444444444444443)"/><path d="M-3925.96 920.8a.5.5 0 0 0-.5.5v21.02a.5.5 0 0 0 .5.5h37a.5.5 0 0 0 .5-.5V921.3a.5.5 0 0 0-.5-.5z" stroke="#5e5e5e" fill="#fff"/><use xlink:href="#h" transform="matrix(1,0,0,1,-3912.063354426289,919.8163558745592) translate(-4.010416666666666 16.444444444444443)"/><path d="M-3857.96 895.75a.5.5 0 0 0-.5.5v21.03a.5.5 0 0 0 .5.5h37a.5.5 0 0 0 .5-.5v-21.03a.5.5 0 0 0-.5-.5z" stroke="#5e5e5e" fill="#fff"/><use xlink:href="#g" transform="matrix(1,0,0,1,-3844.063354426289,894.7851058745595) translate(-4.010416666666666 16.444444444444443)"/><path d="M-3857.96 920.8a.5.5 0 0 0-.5.5v21.02a.5.5 0 0 0 .5.5h37a.5.5 0 0 0 .5-.5V921.3a.5.5 0 0 0-.5-.5z" stroke="#5e5e5e" fill="#fff"/><use xlink:href="#h" transform="matrix(1,0,0,1,-3844.063354426289,919.8163558745592) translate(-4.010416666666666 16.444444444444443)"/><path d="M-3886.48 906.77h26.03" stroke="#979ea8" stroke-width="3" fill="none"/><path d="M-3886.44 908.27h-1.54v-3h1.54zM-3858.95 908.27h-1.54v-3h1.55z" stroke="#979ea8" stroke-width=".05" fill="#979ea8"/><path d="M-3886.48 931.8h26.03" stroke="#979ea8" stroke-width="3" fill="none"/><path d="M-3886.44 933.3h-1.54v-3h1.54zM-3858.95 933.3h-1.54v-3h1.55z" stroke="#979ea8" stroke-width=".05" fill="#979ea8"/><g filter="url(#i)"><path d="M-3642.9 173.34a.5.5 0 0 0-.5.5v93.42a.5.5 0 0 0 .5.5h359a.5.5 0 0 0 .5-.5v-93.42a.5.5 0 0 0-.5-.5z" stroke="#315796" stroke-width="3" fill="#315796"/><use xlink:href="#j" transform="matrix(1,0,0,1,-3622.5226227024223,184.3849001347363) translate(120.00260416666666 43.166666666666664)"/></g><g filter="url(#i)"><path d="M-3172.24 173.34a.5.5 0 0 0-.5.5v93.42a.5.5 0 0 0 .5.5h359a.5.5 0 0 0 .5-.5v-93.42a.5.5 0 0 0-.5-.5z" stroke="#315796" stroke-width="3" fill="#315796"/><use xlink:href="#k" transform="matrix(1,0,0,1,-3151.8559560357553,184.3849001347363) translate(120.00260416666666 43.166666666666664)"/></g><path d="M-3993.25 859.15l461.95-577.8" stroke="#979ea8" stroke-width="3" fill="none"/><path d="M-3992.06 860.05l-.2.27h-3.85l1.7-2.14zM-3528.44 280.17l-1.7 2.14-2.35-1.87.22-.26z" stroke="#979ea8" stroke-width=".05" fill="#979ea8"/><path d="M-3753.95 859.36l695.8-578.23" stroke="#979ea8" stroke-width="3" fill="none"/><path d="M-3753.1 860.32h-4.34l2.56-2.14zM-3054.66 280.17l-2.57 2.14-1.77-2.13z" stroke="#979ea8" stroke-width=".05" fill="#979ea8"/><path d="M-3304.6 192.3a.5.5 0 0 0-.5.5v21.04a.5.5 0 0 0 .5.5h37a.5.5 0 0 0 .5-.5V192.8a.5.5 0 0 0-.5-.5z" stroke="#5e5e5e" fill="#fff"/><use xlink:href="#l" transform="matrix(1,0,0,1,-3290.6894562868247,191.33801822256822) translate(-12.335069444444443 16.444444444444443)"/><path d="M-3304.6 217.34a.5.5 0 0 0-.5.5v21.03a.5.5 0 0 0 .5.5h37a.5.5 0 0 0 .5-.5v-21.03a.5.5 0 0 0-.5-.5z" stroke="#5e5e5e" fill="#fff"/><use xlink:href="#m" transform="matrix(1,0,0,1,-3290.6894562868247,216.36926822256822) translate(-12.335069444444443 16.444444444444443)"/><path d="M-3197.1 192.3a.5.5 0 0 0-.5.5v21.04a.5.5 0 0 0 .5.5h37a.5.5 0 0 0 .5-.5V192.8a.5.5 0 0 0-.5-.5z" stroke="#5e5e5e" fill="#fff"/><use xlink:href="#l" transform="matrix(1,0,0,1,-3183.201445599722,191.33801822256822) translate(-12.335069444444443 16.444444444444443)"/><path d="M-3197.1 217.34a.5.5 0 0 0-.5.5v21.03a.5.5 0 0 0 .5.5h37a.5.5 0 0 0 .5-.5v-21.03a.5.5 0 0 0-.5-.5z" stroke="#5e5e5e" fill="#fff"/><use xlink:href="#m" transform="matrix(1,0,0,1,-3183.201445599722,216.36926822256822) translate(-12.335069444444443 16.444444444444443)"/><path d="M-3265.1 203.32h65.5" stroke="#979ea8" stroke-width="3" fill="none"/><path d="M-3265.07 204.82h-1.54v-3h1.53zM-3198.1 204.82h-1.53v-3h1.54z" stroke="#979ea8" stroke-width=".05" fill="#979ea8"/><path d="M-3265.1 228.35h65.5" stroke="#979ea8" stroke-width="3" fill="none"/><path d="M-3265.07 229.85h-1.54v-3h1.53zM-3198.1 229.85h-1.53v-3h1.54z" stroke="#979ea8" stroke-width=".05" fill="#979ea8"/><path d="M-3229.83 239.7c-3.8 0-6.9-10.38-6.9-23.18 0-12.8 3.1-23.18 6.9-23.18 3.82 0 6.9 10.38 6.9 23.18 0 12.8-3.08 23.18-6.9 23.18zM-3874.72 942.72c-3.82 0-6.9-10.38-6.9-23.18 0-12.8 3.08-23.2 6.9-23.2 3.82 0 6.9 10.4 6.9 23.2 0 12.8-3.08 23.18-6.9 23.18z" stroke="#979ea8" stroke-width="2" fill-opacity="0"/><path d="M-4062.78 953.1a.5.5 0 0 0-.5.5v21.02a.5.5 0 0 0 .5.5h130.5a.5.5 0 0 0 .5-.5V953.6a.5.5 0 0 0-.5-.5z" stroke="#5e5e5e" fill="#fff"/><use xlink:href="#n" transform="matrix(1,0,0,1,-4013.436031798089,952.1236711289654) translate(-0.2369791666666643 16.444444444444443)"/><path d="M-3818.54 953.1a.5.5 0 0 0-.5.5v21.02a.5.5 0 0 0 .5.5h130.5a.5.5 0 0 0 .5-.5V953.6a.5.5 0 0 0-.5-.5z" stroke="#5e5e5e" fill="#fff"/><use xlink:href="#n" transform="matrix(1,0,0,1,-3769.1987000137588,952.1236711289654) translate(-0.2369791666666643 16.444444444444443)"/><g filter="url(#o)"><path d="M-3456.68 831.5a.5.5 0 0 0-.5.5v195.7a.5.5 0 0 0 .5.5h168.64a.5.5 0 0 0 .5-.5V832a.5.5 0 0 0-.5-.5z" stroke="#315796" stroke-width="3" fill="#315796"/><use xlink:href="#p" transform="matrix(1,0,0,1,-3447.341650926941,854.5136938078869) translate(33.98437499999999 73.27777777777777)"/><use xlink:href="#q" transform="matrix(1,0,0,1,-3447.341650926941,854.5136938078869) translate(43.181423611111114 93.27777777777777)"/></g><path d="M-3390.38 818.26l-95.34-536.6" stroke="#979ea8" stroke-width="3" fill="none"/><path d="M-3388.6 819.74h-3.04l-.22-1.25 2.95-.54zM-3484.45 280.17l.22 1.25-2.96.53-.3-1.78z" stroke="#979ea8" stroke-width=".05" fill="#979ea8"/><path d="M-3340.54 818.46l325.53-537" stroke="#979ea8" stroke-width="3" fill="none"/><path d="M-3339.24 819.2l-.32.55h-3.5l1.26-2.1zM-3012.48 280.17l-1.26 2.1-2.57-1.56.32-.53z" stroke="#979ea8" stroke-width=".05" fill="#979ea8"/><path d="M-3437.62 1019.18a.5.5 0 0 0-.5.5v21.03a.5.5 0 0 0 .5.5h130.52a.5.5 0 0 0 .5-.5v-21.02a.5.5 0 0 0-.5-.5z" stroke="#5e5e5e" fill="#fff"/><use xlink:href="#r" transform="matrix(1,0,0,1,-3388.2745321968555,1018.2121686271505) translate(-15.788194444444436 16.444444444444443)"/><path d="M-3406.62 820.23a.5.5 0 0 0-.5.5v21.03a.5.5 0 0 0 .5.5h37a.5.5 0 0 0 .5-.5v-21.03a.5.5 0 0 0-.5-.5z" stroke="#5e5e5e" fill="#fff"/><use xlink:href="#s" transform="matrix(1,0,0,1,-3392.721115356673,819.2578925849831) translate(-7.829861111111111 16.444444444444443)"/><path d="M-3366.62 820.23a.5.5 0 0 0-.5.5v21.03a.5.5 0 0 0 .5.5h37a.5.5 0 0 0 .5-.5v-21.03a.5.5 0 0 0-.5-.5z" stroke="#5e5e5e" fill="#fff"/><use xlink:href="#t" transform="matrix(1,0,0,1,-3352.722689392077,819.2578925849831) translate(-7.829861111111111 16.444444444444443)"/><g filter="url(#d)"><path d="M-2953.25 751.9a.5.5 0 0 0-.5.5v93.4a.5.5 0 0 0 .5.5h168.64a.5.5 0 0 0 .5-.5v-93.4a.5.5 0 0 0-.5-.5z" stroke="#315796" stroke-width="3" fill="#315796"/><use xlink:href="#u" transform="matrix(1,0,0,1,-2943.9064018203044,762.9420423198583) translate(33.98437499999999 43.166666666666664)"/></g><g filter="url(#d)"><path d="M-2713.25 751.9a.5.5 0 0 0-.5.5v93.4a.5.5 0 0 0 .5.5h168.64a.5.5 0 0 0 .5-.5v-93.4a.5.5 0 0 0-.5-.5z" stroke="#315796" stroke-width="3" fill="#315796"/><use xlink:href="#v" transform="matrix(1,0,0,1,-2703.9064018203044,762.9420423198583) translate(34.58984374999999 43.166666666666664)"/></g><path d="M-2801.25 775.57a.5.5 0 0 0-.5.5v21.03a.5.5 0 0 0 .5.5h37a.5.5 0 0 0 .5-.5v-21.03a.5.5 0 0 0-.5-.5z" stroke="#5e5e5e" fill="#fff"/><use xlink:href="#w" transform="matrix(1,0,0,1,-2787.3440326013897,774.6040574682377) translate(-12.335069444444443 16.444444444444443)"/><path d="M-2801.25 800.6a.5.5 0 0 0-.5.5v21.03a.5.5 0 0 0 .5.5h37a.5.5 0 0 0 .5-.5V801.1a.5.5 0 0 0-.5-.5z" stroke="#5e5e5e" fill="#fff"/><use xlink:href="#x" transform="matrix(1,0,0,1,-2787.3440326013897,799.6353074682376) translate(-12.335069444444443 16.444444444444443)"/><path d="M-2733.25 775.57a.5.5 0 0 0-.5.5v21.03a.5.5 0 0 0 .5.5h37a.5.5 0 0 0 .5-.5v-21.03a.5.5 0 0 0-.5-.5z" stroke="#5e5e5e" fill="#fff"/><use xlink:href="#w" transform="matrix(1,0,0,1,-2719.3440326013897,774.6040574682377) translate(-12.335069444444443 16.444444444444443)"/><path d="M-2733.25 800.6a.5.5 0 0 0-.5.5v21.03a.5.5 0 0 0 .5.5h37a.5.5 0 0 0 .5-.5V801.1a.5.5 0 0 0-.5-.5z" stroke="#5e5e5e" fill="#fff"/><use xlink:href="#x" transform="matrix(1,0,0,1,-2719.3440326013897,799.6353074682376) translate(-12.335069444444443 16.444444444444443)"/><path d="M-2761.76 786.6h26.03" stroke="#979ea8" stroke-width="3" fill="none"/><path d="M-2761.72 788.1h-1.54v-3h1.54zM-2734.23 788.1h-1.54v-3h1.54z" stroke="#979ea8" stroke-width=".05" fill="#979ea8"/><path d="M-2761.76 811.62h26.03" stroke="#979ea8" stroke-width="3" fill="none"/><path d="M-2761.72 813.12h-1.54v-3h1.54zM-2734.23 813.12h-1.54v-3h1.54z" stroke="#979ea8" stroke-width=".05" fill="#979ea8"/><path d="M-2902.83 739.15l-537.5-458" stroke="#979ea8" stroke-width="3" fill="none"/><path d="M-2899.38 740.13h-4.33l1.8-2.14zM-3439.46 280.17l-1.82 2.14-2.5-2.13z" stroke="#979ea8" stroke-width=".05" fill="#979ea8"/><path d="M-2617.4 738.9l-309.44-457.5" stroke="#979ea8" stroke-width="3" fill="none"/><path d="M-2614.75 740.13h-3.63l-.3-.43 2.5-1.68zM-2925.87 280.17l.3.44-2.5 1.7-1.42-2.13z" stroke="#979ea8" stroke-width=".05" fill="#979ea8"/><path d="M-2749.1 821.53c-3.8 0-6.9-10.37-6.9-23.18 0-12.8 3.1-23.18 6.9-23.18 3.82 0 6.9 10.38 6.9 23.18 0 12.8-3.08 23.18-6.9 23.18z" stroke="#979ea8" stroke-width="2" fill-opacity="0"/><g filter="url(#d)"><path d="M-3073.25 1006.2a.5.5 0 0 0-.5.5v93.4a.5.5 0 0 0 .5.5h168.64a.5.5 0 0 0 .5-.5v-93.4a.5.5 0 0 0-.5-.5z" stroke="#315796" stroke-width="3" fill="#315796"/><use xlink:href="#y" transform="matrix(1,0,0,1,-3063.9064018203044,1017.2390511634368) translate(35.006510416666664 43.166666666666664)"/></g><g filter="url(#d)"><path d="M-2833.25 1006.2a.5.5 0 0 0-.5.5v93.4a.5.5 0 0 0 .5.5h168.64a.5.5 0 0 0 .5-.5v-93.4a.5.5 0 0 0-.5-.5z" stroke="#315796" stroke-width="3" fill="#315796"/><use xlink:href="#z" transform="matrix(1,0,0,1,-2823.9064018203044,1017.2390511634368) translate(33.65885416666666 43.166666666666664)"/></g><path d="M-2998.67 993.25l101.75-131.64" stroke="#979ea8" stroke-width="3" fill="none"/><path d="M-2997.45 994.14l-.24.3h-3.78l1.65-2.14zM-2894.1 860.43l-1.66 2.13-2.37-1.84.23-.3z" stroke="#979ea8" stroke-width=".05" fill="#979ea8"/><path d="M-2948.52 995.82l298.87-134.77" stroke="#979ea8" stroke-width="3" fill="none"/><path d="M-2947.87 997.17l-2.02.9v-2.7l-.03-.26-.12-.23.95-.43zM-2645 860.43l.07.13-4.14 1.87-.9-2z" stroke="#979ea8" stroke-width=".05" fill="#979ea8"/><path d="M-2775.33 993.1l-65.42-131.32" stroke="#979ea8" stroke-width="3" fill="none"/><path d="M-2772.98 994.43h-3.35l-.36-.7 2.7-1.35zM-2839.74 860.43l.35.7-2.67 1.35-1.02-2.05z" stroke="#979ea8" stroke-width=".05" fill="#979ea8"/><path d="M-2719.06 993.28l108.17-131.7" stroke="#979ea8" stroke-width="3" fill="none"/><path d="M-2717.87 994.2l-.2.24h-3.88l1.76-2.14zM-2608 860.43l-1.75 2.14-2.32-1.9.2-.24z" stroke="#979ea8" stroke-width=".05" fill="#979ea8"/><path d="M-3026.97 994.92a.5.5 0 0 0-.5.5v21.03a.5.5 0 0 0 .5.5h37a.5.5 0 0 0 .5-.5v-21.03a.5.5 0 0 0-.5-.5z" stroke="#5e5e5e" fill="#fff"/><use xlink:href="#A" transform="matrix(1,0,0,1,-3013.065755238586,993.952022190722) translate(-12.335069444444443 16.444444444444443)"/><path d="M-2987.88 994.92a.5.5 0 0 0-.5.5v21.03a.5.5 0 0 0 .5.5h37a.5.5 0 0 0 .5-.5v-21.03a.5.5 0 0 0-.5-.5z" stroke="#5e5e5e" fill="#fff"/><use xlink:href="#B" transform="matrix(1,0,0,1,-2973.9822148655526,993.952022190722) translate(-12.335069444444443 16.444444444444443)"/><path d="M-2906.97 740.62a.5.5 0 0 0-.5.5v21.03a.5.5 0 0 0 .5.5h37a.5.5 0 0 0 .5-.5v-21.03a.5.5 0 0 0-.5-.5z" stroke="#5e5e5e" fill="#fff"/><use xlink:href="#A" transform="matrix(1,0,0,1,-2893.065755238586,739.6550133471427) translate(-12.335069444444443 16.444444444444443)"/><path d="M-2867.88 740.62a.5.5 0 0 0-.5.5v21.03a.5.5 0 0 0 .5.5h37a.5.5 0 0 0 .5-.5v-21.03a.5.5 0 0 0-.5-.5z" stroke="#5e5e5e" fill="#fff"/><use xlink:href="#B" transform="matrix(1,0,0,1,-2853.9822148655526,739.6550133471427) translate(-12.335069444444443 16.444444444444443)"/><path d="M-2667.42 740.62a.5.5 0 0 0-.5.5v21.03a.5.5 0 0 0 .5.5h37a.5.5 0 0 0 .5-.5v-21.03a.5.5 0 0 0-.5-.5z" stroke="#5e5e5e" fill="#fff"/><use xlink:href="#A" transform="matrix(1,0,0,1,-2653.523198034368,739.6550133471427) translate(-12.335069444444443 16.444444444444443)"/><path d="M-2627.43 740.62a.5.5 0 0 0-.5.5v21.03a.5.5 0 0 0 .5.5h37a.5.5 0 0 0 .5-.5v-21.03a.5.5 0 0 0-.5-.5z" stroke="#5e5e5e" fill="#fff"/><use xlink:href="#B" transform="matrix(1,0,0,1,-2613.5247720697716,739.6550133471427) translate(-12.335069444444443 16.444444444444443)"/><path d="M-3054.18 1087.2a.5.5 0 0 0-.5.5v21.04a.5.5 0 0 0 .5.5h131.93a.5.5 0 0 0 .5-.5v-21.03a.5.5 0 0 0-.5-.5z" stroke="#5e5e5e" fill="#fff"/><use xlink:href="#C" transform="matrix(1,0,0,1,-3004.299550487772,1086.2396315662227) translate(0.2630208333333357 16.444444444444443)"/><path d="M-2815.25 1087.2a.5.5 0 0 0-.5.5v21.04a.5.5 0 0 0 .5.5h131.58a.5.5 0 0 0 .5-.5v-21.03a.5.5 0 0 0-.5-.5z" stroke="#5e5e5e" fill="#fff"/><use xlink:href="#C" transform="matrix(1,0,0,1,-2765.5001461204038,1086.2396315662227) translate(0.2630208333333357 16.444444444444443)"/><path d="M-2860.82 1142.97h240v60h-240z" fill="none"/><use xlink:href="#D" transform="matrix(1,0,0,1,-2860.8233832817605,1142.9727536812857) translate(91.18518518518519 21.999999999999996)"/><use xlink:href="#E" transform="matrix(1,0,0,1,-2860.8233832817605,1142.9727536812857) translate(69.44444444444444 50.44444444444444)"/><use xlink:href="#F" transform="matrix(1,0,0,1,-2860.8233832817605,1142.9727536812857) translate(112.65432098765433 50.44444444444444)"/><path d="M-3994.53 1142.97h240v60h-240z" fill="none"/><use xlink:href="#G" transform="matrix(1,0,0,1,-3994.534286672652,1142.9727536812857) translate(91.18518518518519 21.999999999999996)"/><use xlink:href="#H" transform="matrix(1,0,0,1,-3994.534286672652,1142.9727536812857) translate(69.44444444444444 50.44444444444444)"/><use xlink:href="#F" transform="matrix(1,0,0,1,-3994.534286672652,1142.9727536812857) translate(112.65432098765433 50.44444444444444)"/><path d="M-3488.23 1142.97h240v60h-240z" fill="none"/><use xlink:href="#I" transform="matrix(1,0,0,1,-3488.225511340416,1142.9727536812857) translate(91.18518518518519 21.999999999999996)"/><use xlink:href="#J" transform="matrix(1,0,0,1,-3488.225511340416,1142.9727536812857) translate(69.44444444444444 50.44444444444444)"/><use xlink:href="#F" transform="matrix(1,0,0,1,-3488.225511340416,1142.9727536812857) translate(112.65432098765433 50.44444444444444)"/><path d="M-4016.02 860.8a.5.5 0 0 0-.5.5v21.04a.5.5 0 0 0 .5.5h37a.5.5 0 0 0 .5-.5V861.3a.5.5 0 0 0-.5-.5z" stroke="#5e5e5e" fill="#fff"/><use xlink:href="#K" transform="matrix(1,0,0,1,-4002.1207337599394,859.8360617534647) translate(-4.010416666666666 16.444444444444443)"/><path d="M-3771.78 860.8a.5.5 0 0 0-.5.5v21.04a.5.5 0 0 0 .5.5h37a.5.5 0 0 0 .5-.5V861.3a.5.5 0 0 0-.5-.5z" stroke="#5e5e5e" fill="#fff"/><use xlink:href="#K" transform="matrix(1,0,0,1,-3757.883401975609,859.8360617534647) translate(-4.010416666666666 16.444444444444443)"/><path d="M-2860.08 960.2c0 6.62-28.27 11.98-63.13 11.98-34.87 0-63.14-5.36-63.14-11.98s28.27-12 63.13-12c34.85 0 63.12 5.38 63.12 12zM-3495.24 655.95c0 6.68-78.1 12.1-174.43 12.1-96.34 0-174.43-5.42-174.43-12.1 0-6.67 78.1-12.08 174.43-12.08 96.33 0 174.43 5.4 174.43 12.08zM-2658.1 655.95c0 6.68-81.23 12.1-181.42 12.1-100.2 0-181.42-5.42-181.42-12.1 0-6.67 81.22-12.08 181.42-12.08 100.2 0 181.4 5.4 181.4 12.08zM-3228.93 655.95c0 6.68-45.44 12.1-101.5 12.1-56.04 0-101.48-5.42-101.48-12.1 0-6.67 45.43-12.08 101.48-12.08 56.05 0 101.5 5.4 101.5 12.08z" stroke="#979ea8" stroke-width="2" fill-opacity="0"/><g filter="url(#d)"><path d="M-2593.25 1006.2a.5.5 0 0 0-.5.5v93.4a.5.5 0 0 0 .5.5h168.64a.5.5 0 0 0 .5-.5v-93.4a.5.5 0 0 0-.5-.5z" stroke="#315796" stroke-width="3" fill="#315796"/><use xlink:href="#L" transform="matrix(1,0,0,1,-2583.9064018203044,1017.2390511634368) translate(35.55989583333333 43.166666666666664)"/></g><path d="M-2549.65 994.3l-257.84-133.18" stroke="#979ea8" stroke-width="3" fill="none"/><path d="M-2546.15 994.42h-1.3l-.3.04-.27.15-.22.23-.16.32v1.5l-1.98-1.03 1.38-2.67zM-2807.1 860.43l-1.05 2.04-3.95-2.04z" stroke="#979ea8" stroke-width=".05" fill="#979ea8"/><path d="M-2495.38 993.1l-71.7-131.35" stroke="#979ea8" stroke-width="3" fill="none"/><path d="M-2492.95 994.43h-3.42l-.34-.63 2.62-1.44zM-2566.1 860.43l.36.63-2.64 1.44-1.13-2.07z" stroke="#979ea8" stroke-width=".05" fill="#979ea8"/><path d="M-2547.42 994.92a.5.5 0 0 0-.5.5v21.03a.5.5 0 0 0 .5.5h37a.5.5 0 0 0 .5-.5v-21.03a.5.5 0 0 0-.5-.5z" stroke="#5e5e5e" fill="#fff"/><use xlink:href="#A" transform="matrix(1,0,0,1,-2533.5231980343688,993.952022190722) translate(-12.335069444444443 16.444444444444443)"/><path d="M-2507.43 994.92a.5.5 0 0 0-.5.5v21.03a.5.5 0 0 0 .5.5h37a.5.5 0 0 0 .5-.5v-21.03a.5.5 0 0 0-.5-.5z" stroke="#5e5e5e" fill="#fff"/><use xlink:href="#B" transform="matrix(1,0,0,1,-2493.5247720697726,993.952022190722) translate(-12.335069444444443 16.444444444444443)"/><path d="M-2787.42 994.92a.5.5 0 0 0-.5.5v21.03a.5.5 0 0 0 .5.5h37a.5.5 0 0 0 .5-.5v-21.03a.5.5 0 0 0-.5-.5z" stroke="#5e5e5e" fill="#fff"/><use xlink:href="#A" transform="matrix(1,0,0,1,-2773.5231980343683,993.952022190722) translate(-12.335069444444443 16.444444444444443)"/><path d="M-2747.43 994.92a.5.5 0 0 0-.5.5v21.03a.5.5 0 0 0 .5.5h37a.5.5 0 0 0 .5-.5v-21.03a.5.5 0 0 0-.5-.5z" stroke="#5e5e5e" fill="#fff"/><use xlink:href="#B" transform="matrix(1,0,0,1,-2733.524772069772,993.952022190722) translate(-12.335069444444443 16.444444444444443)"/><path d="M-2575.25 1087.2a.5.5 0 0 0-.5.5v21.04a.5.5 0 0 0 .5.5h131.58a.5.5 0 0 0 .5-.5v-21.03a.5.5 0 0 0-.5-.5z" stroke="#5e5e5e" fill="#fff"/><use xlink:href="#C" transform="matrix(1,0,0,1,-2525.5001461204038,1086.2396315662227) translate(0.2630208333333357 16.444444444444443)"/><path d="M-2949.23 837.9a.5.5 0 0 0-.5.5v21.04a.5.5 0 0 0 .5.5h40.25a.5.5 0 0 0 .5-.5V838.4a.5.5 0 0 0-.5-.5z" stroke="#5e5e5e" fill="#fff"/><use xlink:href="#C" transform="matrix(1,0,0,1,-2934.097638907427,836.9426227226437) translate(-11.236979166666664 16.444444444444443)"/><path d="M-2905.62 837.9a.5.5 0 0 0-.5.5v21.04a.5.5 0 0 0 .5.5h37a.5.5 0 0 0 .5-.5V838.4a.5.5 0 0 0-.5-.5z" stroke="#5e5e5e" fill="#fff"/><use xlink:href="#M" transform="matrix(1,0,0,1,-2891.719271926753,836.9426227226437) translate(-12.335069444444443 16.444444444444443)"/><path d="M-2865.65 837.9a.5.5 0 0 0-.5.5v21.04a.5.5 0 0 0 .5.5h37a.5.5 0 0 0 .5-.5V838.4a.5.5 0 0 0-.5-.5z" stroke="#5e5e5e" fill="#fff"/><use xlink:href="#N" transform="matrix(1,0,0,1,-2851.745218668553,836.9426227226437) translate(-12.335069444444443 16.444444444444443)"/><path d="M-2825.62 837.9a.5.5 0 0 0-.5.5v21.04a.5.5 0 0 0 .5.5h37a.5.5 0 0 0 .5-.5V838.4a.5.5 0 0 0-.5-.5z" stroke="#5e5e5e" fill="#fff"/><use xlink:href="#O" transform="matrix(1,0,0,1,-2811.7176978913494,836.9426227226437) translate(-12.335069444444443 16.444444444444443)"/><path d="M-2709.23 837.9a.5.5 0 0 0-.5.5v21.04a.5.5 0 0 0 .5.5h40.25a.5.5 0 0 0 .5-.5V838.4a.5.5 0 0 0-.5-.5z" stroke="#5e5e5e" fill="#fff"/><use xlink:href="#C" transform="matrix(1,0,0,1,-2694.097638907428,836.9426227226437) translate(-11.236979166666664 16.444444444444443)"/><path d="M-2665.62 837.9a.5.5 0 0 0-.5.5v21.04a.5.5 0 0 0 .5.5h37a.5.5 0 0 0 .5-.5V838.4a.5.5 0 0 0-.5-.5z" stroke="#5e5e5e" fill="#fff"/><use xlink:href="#M" transform="matrix(1,0,0,1,-2651.719271926754,836.9426227226437) translate(-12.335069444444443 16.444444444444443)"/><path d="M-2625.65 837.9a.5.5 0 0 0-.5.5v21.04a.5.5 0 0 0 .5.5h37a.5.5 0 0 0 .5-.5V838.4a.5.5 0 0 0-.5-.5z" stroke="#5e5e5e" fill="#fff"/><use xlink:href="#N" transform="matrix(1,0,0,1,-2611.7452186685537,836.9426227226437) translate(-12.335069444444443 16.444444444444443)"/><path d="M-2585.62 837.9a.5.5 0 0 0-.5.5v21.04a.5.5 0 0 0 .5.5h37a.5.5 0 0 0 .5-.5V838.4a.5.5 0 0 0-.5-.5z" stroke="#5e5e5e" fill="#fff"/><use xlink:href="#O" transform="matrix(1,0,0,1,-2571.7176978913503,836.9426227226437) translate(-12.335069444444443 16.444444444444443)"/><path d="M-2680.08 960.2c0 6.62-28.27 11.98-63.13 11.98-34.87 0-63.14-5.36-63.14-11.98s28.27-12 63.13-12c34.85 0 63.12 5.38 63.12 12zM-2500.08 960.2c0 6.62-28.27 11.98-63.13 11.98-34.87 0-63.14-5.36-63.14-11.98s28.27-12 63.13-12c34.85 0 63.12 5.38 63.12 12z" stroke="#979ea8" stroke-width="2" fill-opacity="0"/><path d="M-2852.7 738.68l-116.6-457.05" stroke="#979ea8" stroke-width="3" fill="none"/><path d="M-2850.77 740.14h-3.1l-.28-1.13 2.9-.73zM-2968.13 280.17l.3 1.12-2.92.73-.47-1.86z" stroke="#979ea8" stroke-width=".05" fill="#979ea8"/><path d="M-2654.04 739.35l-744-458.4" stroke="#979ea8" stroke-width="3" fill="none"/><path d="M-2649.9 740.14h-4.67l1.3-2.1zM-3397.5 280.17l-1.3 2.1-3.38-2.1z" stroke="#979ea8" stroke-width=".05" fill="#979ea8"/><path d="M-3545.17 257.65a.5.5 0 0 0-.5.5v21.03a.5.5 0 0 0 .5.5h37a.5.5 0 0 0 .5-.5v-21.03a.5.5 0 0 0-.5-.5z" stroke="#5e5e5e" fill="#fff"/><use xlink:href="#P" transform="matrix(1,0,0,1,-3531.2651434846302,256.68345596866294) translate(0.49479166666666696 16.444444444444443)"/><path d="M-3504.17 257.65a.5.5 0 0 0-.5.5v21.03a.5.5 0 0 0 .5.5h37a.5.5 0 0 0 .5-.5v-21.03a.5.5 0 0 0-.5-.5z" stroke="#5e5e5e" fill="#fff"/><use xlink:href="#Q" transform="matrix(1,0,0,1,-3490.2651434846302,256.68345596866294) translate(-12.335069444444443 16.444444444444443)"/><path d="M-3461.78 257.65a.5.5 0 0 0-.5.5v21.03a.5.5 0 0 0 .5.5h37a.5.5 0 0 0 .5-.5v-21.03a.5.5 0 0 0-.5-.5z" stroke="#5e5e5e" fill="#fff"/><use xlink:href="#R" transform="matrix(1,0,0,1,-3447.8745767248893,256.68345596866294) translate(-12.335069444444443 16.444444444444443)"/><path d="M-3418.64 257.65a.5.5 0 0 0-.5.5v21.03a.5.5 0 0 0 .5.5h37a.5.5 0 0 0 .5-.5v-21.03a.5.5 0 0 0-.5-.5z" stroke="#5e5e5e" fill="#fff"/><use xlink:href="#S" transform="matrix(1,0,0,1,-3404.735721003646,256.68345596866294) translate(-12.335069444444443 16.444444444444443)"/><path d="M-3074.5 257.65a.5.5 0 0 0-.5.5v21.03a.5.5 0 0 0 .5.5h37a.5.5 0 0 0 .5-.5v-21.03a.5.5 0 0 0-.5-.5z" stroke="#5e5e5e" fill="#fff"/><use xlink:href="#P" transform="matrix(1,0,0,1,-3060.5984768179633,256.68345596866294) translate(0.49479166666666696 16.444444444444443)"/><path d="M-3033.5 257.65a.5.5 0 0 0-.5.5v21.03a.5.5 0 0 0 .5.5h37a.5.5 0 0 0 .5-.5v-21.03a.5.5 0 0 0-.5-.5z" stroke="#5e5e5e" fill="#fff"/><g><use xlink:href="#Q" transform="matrix(1,0,0,1,-3019.5984768179633,256.68345596866294) translate(-12.335069444444443 16.444444444444443)"/></g><path d="M-2991.1 257.65a.5.5 0 0 0-.5.5v21.03a.5.5 0 0 0 .5.5h37a.5.5 0 0 0 .5-.5v-21.03a.5.5 0 0 0-.5-.5z" stroke="#5e5e5e" fill="#fff"/><g><use xlink:href="#R" transform="matrix(1,0,0,1,-2977.207910058222,256.68345596866294) translate(-12.335069444444443 16.444444444444443)"/></g><path d="M-2947.97 257.65a.5.5 0 0 0-.5.5v21.03a.5.5 0 0 0 .5.5h37a.5.5 0 0 0 .5-.5v-21.03a.5.5 0 0 0-.5-.5z" stroke="#5e5e5e" fill="#fff"/><g><use xlink:href="#S" transform="matrix(1,0,0,1,-2934.0690543369788,256.68345596866294) translate(-12.335069444444443 16.444444444444443)"/></g><path d="M-2747.93 200.42h104.82v60h-104.83z" fill="none"/><g><use xlink:href="#T" transform="matrix(1,0,0,1,-2747.9261755103544,200.4223382748114) translate(0 35.33333333333333)"/></g><defs><path fill="#979ea8" d="M24 0v-248h195v40H76v63h132v40H76v65h150V0H24" id="U"/><path fill="#979ea8" d="M144 0l-44-69L55 0H2l70-98-66-92h53l41 62 40-62h54l-67 91 71 99h-54" id="V"/><path fill="#979ea8" d="M133-34C117-15 103 5 69 4 32 3 11-16 11-54c-1-60 55-63 116-61 1-26-3-47-28-47-18 1-26 9-28 27l-52-2c7-38 36-58 82-57s74 22 75 68l1 82c-1 14 12 18 25 15v27c-30 8-71 5-69-32zm-48 3c29 0 43-24 42-57-32 0-66-3-65 30 0 17 8 27 23 27" id="W"/><path fill="#979ea8" d="M220-157c-53 9-28 100-34 157h-49v-107c1-27-5-49-29-50C55-147 81-57 75 0H25l-1-190h47c2 12-1 28 3 38 10-53 101-56 108 0 13-22 24-43 59-42 82 1 51 116 57 194h-49v-107c-1-25-5-48-29-50" id="X"/><path fill="#979ea8" d="M135-194c53 0 70 44 70 98 0 56-19 98-73 100-31 1-45-17-59-34 3 33 2 69 2 105H25l-1-265h48c2 10 0 23 3 31 11-24 29-35 60-35zM114-30c33 0 39-31 40-66 0-38-9-64-40-64-56 0-55 130 0 130" id="Y"/><path fill="#979ea8" d="M25 0v-261h50V0H25" id="Z"/><path fill="#979ea8" d="M185-48c-13 30-37 53-82 52C43 2 14-33 14-96s30-98 90-98c62 0 83 45 84 108H66c0 31 8 55 39 56 18 0 30-7 34-22zm-45-69c5-46-57-63-70-21-2 6-4 13-4 21h74" id="aa"/><g id="a"><use transform="matrix(0.12962962962962957,0,0,0.12962962962962957,0,0)" xlink:href="#U"/><use transform="matrix(0.12962962962962957,0,0,0.12962962962962957,31.111111111111097,0)" xlink:href="#V"/><use transform="matrix(0.12962962962962957,0,0,0.12962962962962957,57.03703703703701,0)" xlink:href="#W"/><use transform="matrix(0.12962962962962957,0,0,0.12962962962962957,82.96296296296292,0)" xlink:href="#X"/><use transform="matrix(0.12962962962962957,0,0,0.12962962962962957,124.44444444444437,0)" xlink:href="#Y"/><use transform="matrix(0.12962962962962957,0,0,0.12962962962962957,152.83333333333326,0)" xlink:href="#Z"/><use transform="matrix(0.12962962962962957,0,0,0.12962962962962957,165.79629629629622,0)" xlink:href="#aa"/></g><path fill="#979ea8" d="M67-125c0 53 21 87 73 88 37 1 54-22 65-47l45 17C233-25 199 4 140 4 58 4 20-42 15-125 8-235 124-281 211-232c18 10 29 29 36 50l-46 12c-8-25-30-41-62-41-52 0-71 34-72 86" id="ab"/><path fill="#979ea8" d="M85 4C-2 5 27-109 22-190h50c7 57-23 150 33 157 60-5 35-97 40-157h50l1 190h-47c-2-12 1-28-3-38-12 25-28 42-61 42" id="ac"/><path fill="#979ea8" d="M137-138c1-29-70-34-71-4 15 46 118 7 119 86 1 83-164 76-172 9l43-7c4 19 20 25 44 25 33 8 57-30 24-41C81-84 22-81 20-136c-2-80 154-74 161-7" id="ad"/><g id="b"><use transform="matrix(0.12962962962962957,0,0,0.12962962962962957,0,0)" xlink:href="#ab"/><use transform="matrix(0.12962962962962957,0,0,0.12962962962962957,33.574074074074055,0)" xlink:href="#W"/><use transform="matrix(0.12962962962962957,0,0,0.12962962962962957,59.49999999999997,0)" xlink:href="#X"/><use transform="matrix(0.12962962962962957,0,0,0.12962962962962957,100.98148148148144,0)" xlink:href="#Y"/><use transform="matrix(0.12962962962962957,0,0,0.12962962962962957,129.37037037037032,0)" xlink:href="#ac"/><use transform="matrix(0.12962962962962957,0,0,0.12962962962962957,157.7592592592592,0)" xlink:href="#ad"/></g><path fill="#979ea8" d="M76-208v77h127v40H76V0H24v-248h183v40H76" id="ae"/><path fill="#979ea8" d="M135-194c52 0 70 43 70 98 0 56-19 99-73 100-30 1-46-15-58-35L72 0H24l1-261h50v104c11-23 29-37 60-37zM114-30c31 0 40-27 40-66 0-37-7-63-39-63s-41 28-41 65c0 36 8 64 40 64" id="af"/><path fill="#979ea8" d="M135-150c-39-12-60 13-60 57V0H25l-1-190h47c2 13-1 29 3 40 6-28 27-53 61-41v41" id="ag"/><path fill="#979ea8" d="M25-224v-37h50v37H25zM25 0v-190h50V0H25" id="ah"/><path fill="#979ea8" d="M190-63c-7 42-38 67-86 67-59 0-84-38-90-98-12-110 154-137 174-36l-49 2c-2-19-15-32-35-32-30 0-35 28-38 64-6 74 65 87 74 30" id="ai"/><g id="c"><use transform="matrix(0.12962962962962957,0,0,0.12962962962962957,0,0)" xlink:href="#ae"/><use transform="matrix(0.12962962962962957,0,0,0.12962962962962957,28.388888888888875,0)" xlink:href="#W"/><use transform="matrix(0.12962962962962957,0,0,0.12962962962962957,54.31481481481479,0)" xlink:href="#af"/><use transform="matrix(0.12962962962962957,0,0,0.12962962962962957,82.70370370370367,0)" xlink:href="#ag"/><use transform="matrix(0.12962962962962957,0,0,0.12962962962962957,100.8518518518518,0)" xlink:href="#ah"/><use transform="matrix(0.12962962962962957,0,0,0.12962962962962957,113.81481481481475,0)" xlink:href="#ai"/></g><path fill="#fff" d="M371-216h461V0H108v-1328h263v1112" id="aj"/><path fill="#fff" d="M928-1328v209H382v351h425v201H382v358h547L928 0H118v-1328h810" id="ak"/><path fill="#fff" d="M1240 0h-202c-47 1-76-24-87-58l-84-261H378L295-59c-11 29-44 59-86 59H4l484-1328h268zM437-503h370c-61-196-127-384-186-583-56 202-123 386-184 583" id="al"/><path fill="#fff" d="M890-1328v209H373v376h433v209H373V0H109v-1328h781" id="am"/><path fill="#fff" d="M236-180h257c2-279-3-565 3-840L323-871c-27 30-91 18-110-9l-76-104 399-346h198v1150h227V0H236v-180" id="an"/><g id="e"><use transform="matrix(0.013020833333333334,0,0,0.013020833333333334,0,0)" xlink:href="#aj"/><use transform="matrix(0.013020833333333334,0,0,0.013020833333333334,11.276041666666668,0)" xlink:href="#ak"/><use transform="matrix(0.013020833333333334,0,0,0.013020833333333334,23.958333333333336,0)" xlink:href="#al"/><use transform="matrix(0.013020833333333334,0,0,0.013020833333333334,40.1171875,0)" xlink:href="#am"/><use transform="matrix(0.013020833333333334,0,0,0.013020833333333334,52.356770833333336,0)" xlink:href="#an"/><use transform="matrix(0.013020833333333334,0,0,0.013020833333333334,65.87239583333334,0)" xlink:href="#al"/></g><filter id="d" filterUnits="objectBoundingBox" x="-.06" y="-.04" width="1.12" height="1.21"><feOffset result="offOut" in="SourceAlpha" dy="6"/><feGaussianBlur result="blurOut" in="offOut" stdDeviation="5"/><feColorMatrix result="colorOut" in="blurOut" values="0 0 0 0 0 0 0 0 0 0 0 0 0 0 0 0 0 0 0.5019607843137255 0"/><feBlend in="SourceGraphic" in2="colorOut"/></filter><path fill="#fff" d="M1048-974c0 163-99 241-224 288 171 41 257 139 257 293C1081-125 889 0 612 0H119v-1328h451c279 2 478 84 478 354zM823-399c0-131-83-178-217-178H382v373h225c139 0 216-61 216-195zm-37-542c0-143-71-185-216-185H382v368h173c140-1 231-45 231-183" id="ao"/><g id="f"><use transform="matrix(0.013020833333333334,0,0,0.013020833333333334,0,0)" xlink:href="#aj"/><use transform="matrix(0.013020833333333334,0,0,0.013020833333333334,11.276041666666668,0)" xlink:href="#ak"/><use transform="matrix(0.013020833333333334,0,0,0.013020833333333334,23.958333333333336,0)" xlink:href="#al"/><use transform="matrix(0.013020833333333334,0,0,0.013020833333333334,40.1171875,0)" xlink:href="#am"/><use transform="matrix(0.013020833333333334,0,0,0.013020833333333334,52.356770833333336,0)" xlink:href="#an"/><use transform="matrix(0.013020833333333334,0,0,0.013020833333333334,65.87239583333334,0)" xlink:href="#ao"/></g><path fill="#4c535d" d="M463-670c-69 0-128 14-183 34l-149-41 108-651h650v101c-3 78-52 116-142 116H407l-44 261c53-11 103-16 152-16 263 0 419 147 419 406 0 232-122 371-292 440-125 51-309 39-418-14-62-30-119-68-165-112l74-102c44-65 117-14 161 14 42 27 94 49 166 47 158-4 231-103 233-261 2-143-84-223-230-222" id="ap"/><path fill="#4c535d" d="M113-955c38-239 181-388 448-388 186 0 310 81 369 209 18 42 27 87 27 134 1 168-77 256-203 297 151 51 227 154 227 307C981-126 800 8 532 14 260 20 143-131 76-338c63-25 186-102 236-14 46 82 93 164 218 164 130 0 203-76 210-200 9-175-112-206-288-206v-171c158-2 269-37 269-193 0-117-60-182-173-183-99-1-165 67-190 142-19 57-44 79-118 66" id="aq"/><g id="g"><use transform="matrix(0.008680555555555554,0,0,0.008680555555555554,0,0)" xlink:href="#ap"/><use transform="matrix(0.008680555555555554,0,0,0.008680555555555554,9.010416666666666,0)" xlink:href="#aq"/></g><path fill="#4c535d" d="M1007-505c-9 70 29 185-49 186H854V0H644v-319H105c-83-4-69-108-90-173l609-837h230v824h153zm-363 0c3-182-8-376 8-546L269-505h375" id="ar"/><g id="h"><use transform="matrix(0.008680555555555554,0,0,0.008680555555555554,0,0)" xlink:href="#ap"/><use transform="matrix(0.008680555555555554,0,0,0.008680555555555554,9.010416666666666,0)" xlink:href="#ar"/></g><path fill="#fff" d="M469-200c119 0 194-62 190-182-5-155-165-165-285-207C212-646 83-736 88-958c4-182 105-295 242-352 113-48 278-41 392 4 65 25 120 59 166 104l-67 124c-13 37-61 47-98 23-55-35-117-75-210-75-111 0-181 57-181 159 0 146 173 155 287 201 153 61 292 138 287 351-7 273-167 433-444 433-190 0-326-77-424-175l78-125c18-34 71-42 108-14 63 47 132 100 245 100" id="as"/><path fill="#fff" d="M1037-902c0 300-189 436-495 441H378V0H115v-1328h427c303 4 495 131 495 426zm-263 0c0-143-81-224-232-224H378v461h164c156 2 232-87 232-237" id="at"/><path fill="#fff" d="M405 0H141v-1328h264V0" id="au"/><path fill="#fff" d="M122-1328c70 6 164-16 206 20 6 5 13 12 20 21l654 862c-4-44-6-86-6-125v-778h231V0c-62-4-141 10-187-10-14-6-27-18-40-35L348-902c4 41 6 80 6 115V0H122v-1328" id="av"/><g id="j"><use transform="matrix(0.013020833333333334,0,0,0.013020833333333334,0,0)" xlink:href="#as"/><use transform="matrix(0.013020833333333334,0,0,0.013020833333333334,12.604166666666668,0)" xlink:href="#at"/><use transform="matrix(0.013020833333333334,0,0,0.013020833333333334,26.796875,0)" xlink:href="#au"/><use transform="matrix(0.013020833333333334,0,0,0.013020833333333334,33.90625,0)" xlink:href="#av"/><use transform="matrix(0.013020833333333334,0,0,0.013020833333333334,51.47135416666667,0)" xlink:href="#ak"/><use transform="matrix(0.013020833333333334,0,0,0.013020833333333334,64.47916666666667,0)" xlink:href="#an"/></g><filter id="i" filterUnits="objectBoundingBox" x="-.03" y="-.04" width="1.06" height="1.21"><feOffset result="offOut" in="SourceAlpha" dy="6"/><feGaussianBlur result="blurOut" in="offOut" stdDeviation="5"/><feColorMatrix result="colorOut" in="blurOut" values="0 0 0 0 0 0 0 0 0 0 0 0 0 0 0 0 0 0 0.5019607843137255 0"/><feBlend in="SourceGraphic" in2="colorOut"/></filter><path fill="#fff" d="M89-955c40-238 181-388 449-388 250 0 409 134 409 381 0 232-139 347-258 472L407-195c126-46 310-24 475-29 49-1 86 32 85 80V0H69c-2-76 0-138 43-180 161-160 326-321 472-494 63-74 110-153 115-281 6-143-107-217-242-175-61 19-100 69-121 131-19 56-46 79-119 66" id="aw"/><g id="k"><use transform="matrix(0.013020833333333334,0,0,0.013020833333333334,0,0)" xlink:href="#as"/><use transform="matrix(0.013020833333333334,0,0,0.013020833333333334,12.604166666666668,0)" xlink:href="#at"/><use transform="matrix(0.013020833333333334,0,0,0.013020833333333334,26.796875,0)" xlink:href="#au"/><use transform="matrix(0.013020833333333334,0,0,0.013020833333333334,33.90625,0)" xlink:href="#av"/><use transform="matrix(0.013020833333333334,0,0,0.013020833333333334,51.47135416666667,0)" xlink:href="#ak"/><use transform="matrix(0.013020833333333334,0,0,0.013020833333333334,64.47916666666667,0)" xlink:href="#aw"/></g><path fill="#4c535d" d="M225-1c-20 54-71 94-136 94H-18l680-1441c20-52 64-88 131-89h107" id="ax"/><path fill="#4c535d" d="M236-180h257c2-279-3-565 3-840L323-871c-27 30-91 18-110-9l-76-104 399-346h198v1150h227V0H236v-180" id="ay"/><g id="l"><use transform="matrix(0.008680555555555554,0,0,0.008680555555555554,0,0)" xlink:href="#ap"/><use transform="matrix(0.008680555555555554,0,0,0.008680555555555554,9.010416666666666,0)" xlink:href="#ap"/><use transform="matrix(0.008680555555555554,0,0,0.008680555555555554,18.020833333333332,0)" xlink:href="#ax"/><use transform="matrix(0.008680555555555554,0,0,0.008680555555555554,25.65972222222222,0)" xlink:href="#ay"/></g><path fill="#4c535d" d="M456-845c80-38 203-43 294-6 146 60 243 188 243 393 0 223-117 364-277 436-109 49-273 49-382 1C168-93 67-246 67-479c0-175 67-295 150-418l300-442c25-33 77-59 136-59h226c-141 184-282 368-423 553zm64 158c-139 0-209 104-209 247 0 149 63 249 209 249 141 0 219-103 219-248 0-149-72-248-219-248" id="az"/><g id="m"><use transform="matrix(0.008680555555555554,0,0,0.008680555555555554,0,0)" xlink:href="#ap"/><use transform="matrix(0.008680555555555554,0,0,0.008680555555555554,9.010416666666666,0)" xlink:href="#az"/><use transform="matrix(0.008680555555555554,0,0,0.008680555555555554,18.020833333333332,0)" xlink:href="#ax"/><use transform="matrix(0.008680555555555554,0,0,0.008680555555555554,25.65972222222222,0)" xlink:href="#ay"/></g><path fill="#4c535d" d="M61-690h505v212H61v-212" id="aA"/><path fill="#4c535d" d="M977-395c0 272-183 410-458 410S61-123 61-395c0-179 82-285 228-334-115-51-185-151-185-308 0-185 109-293 248-348 99-39 235-39 334 0 140 55 248 162 248 348 0 158-70 257-186 308 146 49 229 155 229 334zm-654-4c0 133 63 217 196 217s196-84 196-217c0-142-55-224-196-224-140 0-196 84-196 224zm28-633c0 123 44 210 168 210 123 0 168-87 168-210 0-114-53-191-168-191s-168 77-168 191" id="aB"/><g id="n"><use transform="matrix(0.008680555555555554,0,0,0.008680555555555554,0,0)" xlink:href="#ay"/><use transform="matrix(0.008680555555555554,0,0,0.008680555555555554,9.010416666666666,0)" xlink:href="#aA"/><use transform="matrix(0.008680555555555554,0,0,0.008680555555555554,14.453124999999998,0)" xlink:href="#ar"/><use transform="matrix(0.008680555555555554,0,0,0.008680555555555554,23.463541666666664,0)" xlink:href="#aB"/></g><g id="p"><use transform="matrix(0.013020833333333334,0,0,0.013020833333333334,0,0)" xlink:href="#aj"/><use transform="matrix(0.013020833333333334,0,0,0.013020833333333334,11.276041666666668,0)" xlink:href="#ak"/><use transform="matrix(0.013020833333333334,0,0,0.013020833333333334,23.958333333333336,0)" xlink:href="#al"/><use transform="matrix(0.013020833333333334,0,0,0.013020833333333334,40.1171875,0)" xlink:href="#am"/><use transform="matrix(0.013020833333333334,0,0,0.013020833333333334,52.356770833333336,0)" xlink:href="#aw"/><use transform="matrix(0.013020833333333334,0,0,0.013020833333333334,65.87239583333334,0)" xlink:href="#al"/></g><path fill="#fff" d="M363-958c5 40 8 85 8 127V0H139v-1328c83 3 177-6 251 6 17 7 27 17 36 35l412 720c23 42 42 86 59 131 19-46 36-91 59-133l409-718c14-32 40-41 88-41h198V0h-231c1-296-1-596 2-890 1-21 2-42 4-64l-419 742c-28 50-62 58-128 58-41 0-70-20-92-58" id="aC"/><path fill="#fff" d="M352-974c116-47 283-48 399 0 177 72 288 230 288 475 0 247-110 405-288 478-116 48-283 48-399 0C173-94 62-251 62-499c0-246 112-403 290-475zm-28 477c0 189 54 318 228 318 172 0 225-131 225-318s-53-318-225-318c-174 0-228 130-228 318" id="aD"/><path fill="#fff" d="M483-1012c112 0 179 37 238 92v-517h254V0H818c-73 2-64-82-83-135C661-54 570 15 422 15 157 15 63-214 63-494c0-232 92-397 247-478 52-26 110-40 173-40zM325-494c0 166 29 308 186 308 106 0 161-51 210-111v-438c-43-55-93-85-178-85-170 0-218 146-218 326" id="aE"/><path fill="#fff" d="M439 15c-225-4-332-150-332-377v-631h254v631c0 110 48 181 156 180 91-1 152-46 204-95v-716h254V0c-65-5-152 14-197-12-30-17-26-70-39-106C664-46 580 18 439 15" id="aF"/><path fill="#fff" d="M379-1437V0H125v-1437h254" id="aG"/><path fill="#fff" d="M534-1012c240 0 371 147 371 387V0c-80-7-186 24-201-53l-22-66C598-47 516 18 362 15 183 12 73-75 73-255c0-177 142-239 303-283 75-20 169-31 281-34 9-142-26-239-155-239-97 0-149 37-209 70-49 27-108 2-128-33l-46-80c103-96 231-158 415-158zM316-268c-2 80 48 110 125 110 107 0 156-41 216-100v-160c-111 5-199 15-269 48-43 21-70 49-72 102" id="aH"/><path fill="#fff" d="M545-767c-109 4-148 72-181 151V0H110v-993c66 5 161-12 204 14 28 28 23 102 33 150 53-94 116-183 244-183 43 0 79 10 107 31l-19 190c-6 59-87 22-134 24" id="aI"/><g id="q"><use transform="matrix(0.008680555555555554,0,0,0.008680555555555554,0,0)" xlink:href="#aC"/><use transform="matrix(0.008680555555555554,0,0,0.008680555555555554,15.538194444444443,0)" xlink:href="#aD"/><use transform="matrix(0.008680555555555554,0,0,0.008680555555555554,25.095486111111107,0)" xlink:href="#aE"/><use transform="matrix(0.008680555555555554,0,0,0.008680555555555554,34.63541666666666,0)" xlink:href="#aF"/><use transform="matrix(0.008680555555555554,0,0,0.008680555555555554,44.175347222222214,0)" xlink:href="#aG"/><use transform="matrix(0.008680555555555554,0,0,0.008680555555555554,48.54166666666666,0)" xlink:href="#aH"/><use transform="matrix(0.008680555555555554,0,0,0.008680555555555554,57.31770833333332,0)" xlink:href="#aI"/></g><filter id="o" filterUnits="objectBoundingBox" x="-.06" y="-.02" width="1.12" height="1.1"><feOffset result="offOut" in="SourceAlpha" dy="6"/><feGaussianBlur result="blurOut" in="offOut" stdDeviation="5"/><feColorMatrix result="colorOut" in="blurOut" values="0 0 0 0 0 0 0 0 0 0 0 0 0 0 0 0 0 0 0.5019607843137255 0"/><feBlend in="SourceGraphic" in2="colorOut"/></filter><path fill="#4c535d" d="M137-1111c-27 1-55-27-55-55v-162h902c1 84-3 171-29 226L478-82C454-38 420 0 351 0H175l488-997c23-44 44-80 76-114H137" id="aJ"/><g id="r"><use transform="matrix(0.008680555555555554,0,0,0.008680555555555554,0,0)" xlink:href="#aq"/><use transform="matrix(0.008680555555555554,0,0,0.008680555555555554,9.010416666666666,0)" xlink:href="#aA"/><use transform="matrix(0.008680555555555554,0,0,0.008680555555555554,14.453124999999998,0)" xlink:href="#aJ"/><use transform="matrix(0.008680555555555554,0,0,0.008680555555555554,23.463541666666664,0)" xlink:href="#ax"/><use transform="matrix(0.008680555555555554,0,0,0.008680555555555554,31.10243055555555,0)" xlink:href="#ay"/><use transform="matrix(0.008680555555555554,0,0,0.008680555555555554,40.112847222222214,0)" xlink:href="#aA"/><use transform="matrix(0.008680555555555554,0,0,0.008680555555555554,45.55555555555554,0)" xlink:href="#ar"/><use transform="matrix(0.008680555555555554,0,0,0.008680555555555554,54.56597222222221,0)" xlink:href="#aB"/></g><g id="s"><use transform="matrix(0.008680555555555554,0,0,0.008680555555555554,0,0)" xlink:href="#ay"/><use transform="matrix(0.008680555555555554,0,0,0.008680555555555554,9.010416666666666,0)" xlink:href="#ax"/><use transform="matrix(0.008680555555555554,0,0,0.008680555555555554,16.649305555555554,0)" xlink:href="#ay"/></g><g id="t"><use transform="matrix(0.008680555555555554,0,0,0.008680555555555554,0,0)" xlink:href="#ay"/><use transform="matrix(0.008680555555555554,0,0,0.008680555555555554,9.010416666666666,0)" xlink:href="#ax"/><use transform="matrix(0.008680555555555554,0,0,0.008680555555555554,16.649305555555554,0)" xlink:href="#aq"/></g><path fill="#fff" d="M113-955c38-239 181-388 448-388 186 0 310 81 369 209 18 42 27 87 27 134 1 168-77 256-203 297 151 51 227 154 227 307C981-126 800 8 532 14 260 20 143-131 76-338c63-25 186-102 236-14 46 82 93 164 218 164 130 0 203-76 210-200 9-175-112-206-288-206v-171c158-2 269-37 269-193 0-117-60-182-173-183-99-1-165 67-190 142-19 57-44 79-118 66" id="aK"/><g id="u"><use transform="matrix(0.013020833333333334,0,0,0.013020833333333334,0,0)" xlink:href="#aj"/><use transform="matrix(0.013020833333333334,0,0,0.013020833333333334,11.276041666666668,0)" xlink:href="#ak"/><use transform="matrix(0.013020833333333334,0,0,0.013020833333333334,23.958333333333336,0)" xlink:href="#al"/><use transform="matrix(0.013020833333333334,0,0,0.013020833333333334,40.1171875,0)" xlink:href="#am"/><use transform="matrix(0.013020833333333334,0,0,0.013020833333333334,52.356770833333336,0)" xlink:href="#aK"/><use transform="matrix(0.013020833333333334,0,0,0.013020833333333334,65.87239583333334,0)" xlink:href="#al"/></g><g id="v"><use transform="matrix(0.013020833333333334,0,0,0.013020833333333334,0,0)" xlink:href="#aj"/><use transform="matrix(0.013020833333333334,0,0,0.013020833333333334,11.276041666666668,0)" xlink:href="#ak"/><use transform="matrix(0.013020833333333334,0,0,0.013020833333333334,23.958333333333336,0)" xlink:href="#al"/><use transform="matrix(0.013020833333333334,0,0,0.013020833333333334,40.1171875,0)" xlink:href="#am"/><use transform="matrix(0.013020833333333334,0,0,0.013020833333333334,52.356770833333336,0)" xlink:href="#aK"/><use transform="matrix(0.013020833333333334,0,0,0.013020833333333334,65.87239583333334,0)" xlink:href="#ao"/></g><path fill="#4c535d" d="M558-1343c315 4 477 226 426 559-19 123-74 216-134 304L560-55C509 26 342-7 215 0c152-194 307-385 457-581-80 52-225 75-333 30-135-54-228-169-228-358 0-206 113-334 264-399 55-23 116-35 183-35zm-4 636c137 0 210-84 210-219 0-137-73-221-209-221-132 0-201 87-204 219-3 139 67 221 203 221" id="aL"/><g id="w"><use transform="matrix(0.008680555555555554,0,0,0.008680555555555554,0,0)" xlink:href="#aL"/><use transform="matrix(0.008680555555555554,0,0,0.008680555555555554,9.010416666666666,0)" xlink:href="#aB"/><use transform="matrix(0.008680555555555554,0,0,0.008680555555555554,18.020833333333332,0)" xlink:href="#ax"/><use transform="matrix(0.008680555555555554,0,0,0.008680555555555554,25.65972222222222,0)" xlink:href="#aq"/></g><g id="x"><use transform="matrix(0.008680555555555554,0,0,0.008680555555555554,0,0)" xlink:href="#aL"/><use transform="matrix(0.008680555555555554,0,0,0.008680555555555554,9.010416666666666,0)" xlink:href="#aB"/><use transform="matrix(0.008680555555555554,0,0,0.008680555555555554,18.020833333333332,0)" xlink:href="#ax"/><use transform="matrix(0.008680555555555554,0,0,0.008680555555555554,25.65972222222222,0)" xlink:href="#ar"/></g><path fill="#fff" d="M1063-193C972-66 836 14 625 14 325 14 160-160 82-392c-55-162-54-387 4-546 84-230 253-399 553-405 185-4 321 74 409 173-37 47-65 102-108 143-52 29-90-19-122-42-68-49-222-71-314-21-130 72-193 222-193 425 0 205 69 355 201 427 92 51 249 32 318-20 30-23 81-99 128-48" id="aM"/><g id="y"><use transform="matrix(0.013020833333333334,0,0,0.013020833333333334,0,0)" xlink:href="#aj"/><use transform="matrix(0.013020833333333334,0,0,0.013020833333333334,11.276041666666668,0)" xlink:href="#ak"/><use transform="matrix(0.013020833333333334,0,0,0.013020833333333334,23.958333333333336,0)" xlink:href="#al"/><use transform="matrix(0.013020833333333334,0,0,0.013020833333333334,40.1171875,0)" xlink:href="#am"/><use transform="matrix(0.013020833333333334,0,0,0.013020833333333334,52.356770833333336,0)" xlink:href="#aK"/><use transform="matrix(0.013020833333333334,0,0,0.013020833333333334,65.87239583333334,0)" xlink:href="#aM"/></g><path fill="#fff" d="M1198-932c62 158 61 378 0 536C1107-162 916 0 600 0H116v-1328h484c315 6 507 163 598 396zM600-209c264-9 377-187 377-456 0-268-114-446-377-455H380v911h220" id="aN"/><g id="z"><use transform="matrix(0.013020833333333334,0,0,0.013020833333333334,0,0)" xlink:href="#aj"/><use transform="matrix(0.013020833333333334,0,0,0.013020833333333334,11.276041666666668,0)" xlink:href="#ak"/><use transform="matrix(0.013020833333333334,0,0,0.013020833333333334,23.958333333333336,0)" xlink:href="#al"/><use transform="matrix(0.013020833333333334,0,0,0.013020833333333334,40.1171875,0)" xlink:href="#am"/><use transform="matrix(0.013020833333333334,0,0,0.013020833333333334,52.356770833333336,0)" xlink:href="#aK"/><use transform="matrix(0.013020833333333334,0,0,0.013020833333333334,65.87239583333334,0)" xlink:href="#aN"/></g><g id="A"><use transform="matrix(0.008680555555555554,0,0,0.008680555555555554,0,0)" xlink:href="#aL"/><use transform="matrix(0.008680555555555554,0,0,0.008680555555555554,9.010416666666666,0)" xlink:href="#aJ"/><use transform="matrix(0.008680555555555554,0,0,0.008680555555555554,18.020833333333332,0)" xlink:href="#ax"/><use transform="matrix(0.008680555555555554,0,0,0.008680555555555554,25.65972222222222,0)" xlink:href="#ay"/></g><path fill="#4c535d" d="M89-955c40-238 181-388 449-388 250 0 409 134 409 381 0 232-139 347-258 472L407-195c126-46 310-24 475-29 49-1 86 32 85 80V0H69c-2-76 0-138 43-180 161-160 326-321 472-494 63-74 110-153 115-281 6-143-107-217-242-175-61 19-100 69-121 131-19 56-46 79-119 66" id="aO"/><g id="B"><use transform="matrix(0.008680555555555554,0,0,0.008680555555555554,0,0)" xlink:href="#aL"/><use transform="matrix(0.008680555555555554,0,0,0.008680555555555554,9.010416666666666,0)" xlink:href="#aJ"/><use transform="matrix(0.008680555555555554,0,0,0.008680555555555554,18.020833333333332,0)" xlink:href="#ax"/><use transform="matrix(0.008680555555555554,0,0,0.008680555555555554,25.65972222222222,0)" xlink:href="#aO"/></g><g id="C"><use transform="matrix(0.008680555555555554,0,0,0.008680555555555554,0,0)" xlink:href="#ay"/><use transform="matrix(0.008680555555555554,0,0,0.008680555555555554,9.010416666666666,0)" xlink:href="#aA"/><use transform="matrix(0.008680555555555554,0,0,0.008680555555555554,14.453124999999998,0)" xlink:href="#aL"/><use transform="matrix(0.008680555555555554,0,0,0.008680555555555554,23.463541666666664,0)" xlink:href="#az"/></g><path fill="#979ea8" d="M24 0v-248h52V0H24" id="aP"/><path fill="#979ea8" d="M24-248c120-7 223 5 221 122C244-46 201 0 124 0H24v-248zM76-40c74 7 117-18 117-86 0-67-45-88-117-82v168" id="aQ"/><path fill="#979ea8" d="M128-127c34 4 56 21 59 58 7 91-148 94-172 28-4-9-6-17-7-26l51-5c1 24 16 35 40 36 23 0 39-12 38-36-1-31-31-36-65-34v-40c32 2 59-3 59-33 0-20-13-33-34-33s-33 13-35 32l-50-3c6-44 37-68 86-68 50 0 83 20 83 66 0 35-22 52-53 58" id="aR"/><g id="D"><use transform="matrix(0.07407407407407407,0,0,0.07407407407407407,0,0)" xlink:href="#aP"/><use transform="matrix(0.07407407407407407,0,0,0.07407407407407407,7.4074074074074066,0)" xlink:href="#aQ"/><use transform="matrix(0.07407407407407407,0,0,0.07407407407407407,26.592592592592588,0)" xlink:href="#ae"/><use transform="matrix(0.07407407407407407,0,0,0.07407407407407407,42.81481481481481,0)" xlink:href="#aR"/></g><path fill="#333" d="M155-56V0h-30v-56H8v-25l114-167h33v167h35v25h-35zm-30-156c-27 46-58 90-88 131h88v-131" id="aS"/><path fill="#333" d="M134-131c28 9 52 24 51 62-1 50-34 73-85 73S17-19 16-69c0-36 21-54 49-61-75-25-45-126 34-121 46 3 78 18 79 63 0 33-17 51-44 57zm-34-11c31 1 46-15 46-44 0-28-17-43-47-42-29 0-46 13-45 42 1 28 16 44 46 44zm1 122c35 0 51-18 51-52 0-30-18-46-53-46-33 0-51 17-51 47 0 34 19 51 53 51" id="aT"/><path fill="#333" d="M101-251c68 0 85 55 85 127S166 4 100 4C33 4 14-52 14-124c0-73 17-127 87-127zm-1 229c47 0 54-49 54-102s-4-102-53-102c-51 0-55 48-55 102 0 53 5 102 54 102" id="aU"/><g id="E"><use transform="matrix(0.06172839506172839,0,0,0.06172839506172839,0,0)" xlink:href="#aS"/><use transform="matrix(0.06172839506172839,0,0,0.06172839506172839,12.345679012345679,0)" xlink:href="#aT"/><use transform="matrix(0.06172839506172839,0,0,0.06172839506172839,24.691358024691358,0)" xlink:href="#aU"/></g><path fill="#333" d="M232-93c-1 65-40 97-104 97C67 4 28-28 28-90v-158h33c8 89-33 224 67 224 102 0 64-133 71-224h33v155" id="aV"/><path fill="#333" d="M135-143c-3-34-86-38-87 0 15 53 115 12 119 90S17 21 10-45l28-5c4 36 97 45 98 0-10-56-113-15-118-90-4-57 82-63 122-42 12 7 21 19 24 35" id="aW"/><path fill="#333" d="M100-194c63 0 86 42 84 106H49c0 40 14 67 53 68 26 1 43-12 49-29l28 8c-11 28-37 45-77 45C44 4 14-33 15-96c1-61 26-98 85-98zm52 81c6-60-76-77-97-28-3 7-6 17-6 28h103" id="aX"/><path fill="#333" d="M114-163C36-179 61-72 57 0H25l-1-190h30c1 12-1 29 2 39 6-27 23-49 58-41v29" id="aY"/><g id="F"><use transform="matrix(0.06172839506172839,0,0,0.06172839506172839,0,0)" xlink:href="#aV"/><use transform="matrix(0.06172839506172839,0,0,0.06172839506172839,15.987654320987653,0)" xlink:href="#aW"/><use transform="matrix(0.06172839506172839,0,0,0.06172839506172839,27.098765432098766,0)" xlink:href="#aX"/><use transform="matrix(0.06172839506172839,0,0,0.06172839506172839,39.44444444444444,0)" xlink:href="#aY"/><use transform="matrix(0.06172839506172839,0,0,0.06172839506172839,46.79012345679012,0)" xlink:href="#aW"/></g><path fill="#979ea8" d="M23 0v-37h61v-169l-59 37v-38l62-41h46v211h57V0H23" id="aZ"/><g id="G"><use transform="matrix(0.07407407407407407,0,0,0.07407407407407407,0,0)" xlink:href="#aP"/><use transform="matrix(0.07407407407407407,0,0,0.07407407407407407,7.4074074074074066,0)" xlink:href="#aQ"/><use transform="matrix(0.07407407407407407,0,0,0.07407407407407407,26.592592592592588,0)" xlink:href="#ae"/><use transform="matrix(0.07407407407407407,0,0,0.07407407407407407,42.81481481481481,0)" xlink:href="#aZ"/></g><path fill="#333" d="M27 0v-27h64v-190l-56 39v-29l58-41h29v221h61V0H27" id="ba"/><path fill="#333" d="M99-251c64 0 84 50 84 122C183-37 130 33 47-8c-14-7-20-23-25-40l30-5c6 39 69 39 84 7 9-19 16-44 16-74-10 22-31 35-62 35-49 0-73-33-73-83 0-54 28-83 82-83zm-1 141c31-1 51-18 51-49 0-36-14-67-51-67-34 0-49 23-49 58 0 34 15 58 49 58" id="bb"/><path fill="#333" d="M101-251c82-7 93 87 43 132L82-64C71-53 59-42 53-27h129V0H18c2-99 128-94 128-182 0-28-16-43-45-43s-46 15-49 41l-32-3c6-41 34-60 81-64" id="bc"/><g id="H"><use transform="matrix(0.06172839506172839,0,0,0.06172839506172839,0,0)" xlink:href="#ba"/><use transform="matrix(0.06172839506172839,0,0,0.06172839506172839,12.345679012345679,0)" xlink:href="#bb"/><use transform="matrix(0.06172839506172839,0,0,0.06172839506172839,24.691358024691358,0)" xlink:href="#bc"/></g><path fill="#979ea8" d="M182-182c0 78-84 86-111 141h115V0H12c-6-101 99-100 120-180 1-22-12-31-33-32-23 0-32 14-35 34l-49-3c5-45 32-70 84-70 51 0 83 22 83 69" id="bd"/><g id="I"><use transform="matrix(0.07407407407407407,0,0,0.07407407407407407,0,0)" xlink:href="#aP"/><use transform="matrix(0.07407407407407407,0,0,0.07407407407407407,7.4074074074074066,0)" xlink:href="#aQ"/><use transform="matrix(0.07407407407407407,0,0,0.07407407407407407,26.592592592592588,0)" xlink:href="#ae"/><use transform="matrix(0.07407407407407407,0,0,0.07407407407407407,42.81481481481481,0)" xlink:href="#bd"/></g><g id="J"><use transform="matrix(0.06172839506172839,0,0,0.06172839506172839,0,0)" xlink:href="#bc"/><use transform="matrix(0.06172839506172839,0,0,0.06172839506172839,12.345679012345679,0)" xlink:href="#aS"/><use transform="matrix(0.06172839506172839,0,0,0.06172839506172839,24.691358024691358,0)" xlink:href="#aU"/></g><g id="K"><use transform="matrix(0.008680555555555554,0,0,0.008680555555555554,0,0)" xlink:href="#ap"/><use transform="matrix(0.008680555555555554,0,0,0.008680555555555554,9.010416666666666,0)" xlink:href="#ay"/></g><g id="L"><use transform="matrix(0.013020833333333334,0,0,0.013020833333333334,0,0)" xlink:href="#aj"/><use transform="matrix(0.013020833333333334,0,0,0.013020833333333334,11.276041666666668,0)" xlink:href="#ak"/><use transform="matrix(0.013020833333333334,0,0,0.013020833333333334,23.958333333333336,0)" xlink:href="#al"/><use transform="matrix(0.013020833333333334,0,0,0.013020833333333334,40.1171875,0)" xlink:href="#am"/><use transform="matrix(0.013020833333333334,0,0,0.013020833333333334,52.356770833333336,0)" xlink:href="#aK"/><use transform="matrix(0.013020833333333334,0,0,0.013020833333333334,65.87239583333334,0)" xlink:href="#ak"/></g><g id="M"><use transform="matrix(0.008680555555555554,0,0,0.008680555555555554,0,0)" xlink:href="#aL"/><use transform="matrix(0.008680555555555554,0,0,0.008680555555555554,9.010416666666666,0)" xlink:href="#aJ"/><use transform="matrix(0.008680555555555554,0,0,0.008680555555555554,18.020833333333332,0)" xlink:href="#ax"/><use transform="matrix(0.008680555555555554,0,0,0.008680555555555554,25.65972222222222,0)" xlink:href="#aq"/></g><g id="N"><use transform="matrix(0.008680555555555554,0,0,0.008680555555555554,0,0)" xlink:href="#aL"/><use transform="matrix(0.008680555555555554,0,0,0.008680555555555554,9.010416666666666,0)" xlink:href="#aJ"/><use transform="matrix(0.008680555555555554,0,0,0.008680555555555554,18.020833333333332,0)" xlink:href="#ax"/><use transform="matrix(0.008680555555555554,0,0,0.008680555555555554,25.65972222222222,0)" xlink:href="#ar"/></g><g id="O"><use transform="matrix(0.008680555555555554,0,0,0.008680555555555554,0,0)" xlink:href="#aL"/><use transform="matrix(0.008680555555555554,0,0,0.008680555555555554,9.010416666666666,0)" xlink:href="#aB"/><use transform="matrix(0.008680555555555554,0,0,0.008680555555555554,18.020833333333332,0)" xlink:href="#ax"/><use transform="matrix(0.008680555555555554,0,0,0.008680555555555554,25.65972222222222,0)" xlink:href="#ay"/></g><use transform="matrix(0.008680555555555554,0,0,0.008680555555555554,0,0)" xlink:href="#ay" id="P"/><g id="Q"><use transform="matrix(0.008680555555555554,0,0,0.008680555555555554,0,0)" xlink:href="#ar"/><use transform="matrix(0.008680555555555554,0,0,0.008680555555555554,9.010416666666666,0)" xlink:href="#aL"/><use transform="matrix(0.008680555555555554,0,0,0.008680555555555554,18.020833333333332,0)" xlink:href="#ax"/><use transform="matrix(0.008680555555555554,0,0,0.008680555555555554,25.65972222222222,0)" xlink:href="#ay"/></g><path fill="#4c535d" d="M960-966c48 161 48 442 0 603C896-149 775 14 517 14 261 14 140-150 78-363c-47-161-48-443 0-603 63-213 183-377 439-377s380 165 443 377zM602-206c161-87 169-454 126-694-24-133-71-244-211-244-138 0-184 113-207 244-41 238-36 607 122 694 54 29 116 28 170 0" id="be"/><g id="R"><use transform="matrix(0.008680555555555554,0,0,0.008680555555555554,0,0)" xlink:href="#ap"/><use transform="matrix(0.008680555555555554,0,0,0.008680555555555554,9.010416666666666,0)" xlink:href="#be"/><use transform="matrix(0.008680555555555554,0,0,0.008680555555555554,18.020833333333332,0)" xlink:href="#ax"/><use transform="matrix(0.008680555555555554,0,0,0.008680555555555554,25.65972222222222,0)" xlink:href="#ay"/></g><g id="S"><use transform="matrix(0.008680555555555554,0,0,0.008680555555555554,0,0)" xlink:href="#ap"/><use transform="matrix(0.008680555555555554,0,0,0.008680555555555554,9.010416666666666,0)" xlink:href="#ay"/><use transform="matrix(0.008680555555555554,0,0,0.008680555555555554,18.020833333333332,0)" xlink:href="#ax"/><use transform="matrix(0.008680555555555554,0,0,0.008680555555555554,25.65972222222222,0)" xlink:href="#ay"/></g><path fill="#979ea8" d="M230 0l2-204L168 0h-37L68-204 70 0H24v-248h70l56 185 57-185h69V0h-46" id="bf"/><g id="T"><use transform="matrix(0.07407407407407407,0,0,0.07407407407407407,0,0)" xlink:href="#bf"/><use transform="matrix(0.07407407407407407,0,0,0.07407407407407407,22.148148148148145,0)" xlink:href="#aQ"/><use transform="matrix(0.07407407407407407,0,0,0.07407407407407407,41.33333333333333,0)" xlink:href="#ae"/></g></defs></g></svg>