<svg xmlns="http://www.w3.org/2000/svg" xmlns:xlink="http://www.w3.org/1999/xlink" xmlns:lucid="lucid" width="1898" height="1205"><g transform="translate(70 -239)" lucid:page-tab-id="-2yXCcs~9_sC"><path d="M-500 0h3000v1500H-500z" fill="#fff"/><path d="M-30.15 284.8a6 6 0 0 1 6-6h1807.18a6 6 0 0 1 6 6v1112.9a6 6 0 0 1-6 6H-24.15a6 6 0 0 1-6-6z" stroke="#dbdbdb" stroke-width="3" fill="#f2f3f5"/><path d="M456.9 341.53a20 20 0 0 1 20-20h857.04a20 20 0 0 1 20 20V466.3a20 20 0 0 1-20 20H476.9a20 20 0 0 1-20-20zM23.92 926.68a20 20 0 0 1 20-20h432.6a20 20 0 0 1 20 20v358.45a20 20 0 0 1-20 20H43.92a20 20 0 0 1-20-20zM530.23 926.68a20 20 0 0 1 20-20h432.6a20 20 0 0 1 20 20v358.45a20 20 0 0 1-20 20h-432.6a20 20 0 0 1-20-20zM1038.55 928.16a20 20 0 0 1 20-20h670.77a20 20 0 0 1 20 20v358.45a20 20 0 0 1-20 20h-670.77a20 20 0 0 1-20-20z" stroke="#ced4db" stroke-width="3" fill="#ced4db"/><path d="M10.64 320.2h362.8V433.2H10.64z" fill="none"/><use xlink:href="#a" transform="matrix(1,0,0,1,10.638270532362412,320.1864609862622) translate(0 38.33333333333334)"/><use xlink:href="#b" transform="matrix(1,0,0,1,10.638270532362412,320.1864609862622) translate(0 94.33333333333331)"/><use xlink:href="#c" transform="matrix(1,0,0,1,10.638270532362412,320.1864609862622) translate(196.6481481481481 94.33333333333331)"/><g filter="url(#d)"><path d="M52.9 1048.6a.5.5 0 0 0-.5.5v93.43a.5.5 0 0 0 .5.5h168.65a.5.5 0 0 0 .5-.5v-93.42a.5.5 0 0 0-.5-.5z" stroke="#315796" stroke-width="3" fill="#315796"/><use xlink:href="#e" transform="matrix(1,0,0,1,62.2527556322694,1059.6603842243096) translate(33.98437499999999 43.166666666666664)"/></g><g filter="url(#d)"><path d="M297.15 1048.6a.5.5 0 0 0-.5.5v93.43a.5.5 0 0 0 .5.5H465.8a.5.5 0 0 0 .5-.5v-93.42a.5.5 0 0 0-.5-.5z" stroke="#315796" stroke-width="3" fill="#315796"/><use xlink:href="#f" transform="matrix(1,0,0,1,306.4900874165997,1059.6603842243096) translate(34.58984374999999 43.166666666666664)"/></g><path d="M208.8 1072.3a.5.5 0 0 0-.5.5v21.02a.5.5 0 0 0 .5.5h37a.5.5 0 0 0 .5-.5v-21.03a.5.5 0 0 0-.5-.5z" stroke="#5e5e5e" fill="#fff"/><use xlink:href="#g" transform="matrix(1,0,0,1,222.69255173415436,1071.3223993726895) translate(-4.010416666666666 16.444444444444443)"/><path d="M208.8 1097.32a.5.5 0 0 0-.5.5v21.03a.5.5 0 0 0 .5.5h37a.5.5 0 0 0 .5-.5v-21.03a.5.5 0 0 0-.5-.5z" stroke="#5e5e5e" fill="#fff"/><use xlink:href="#h" transform="matrix(1,0,0,1,222.69255173415436,1096.3536493726892) translate(-4.010416666666666 16.444444444444443)"/><path d="M276.8 1072.3a.5.5 0 0 0-.5.5v21.02a.5.5 0 0 0 .5.5h37a.5.5 0 0 0 .5-.5v-21.03a.5.5 0 0 0-.5-.5z" stroke="#5e5e5e" fill="#fff"/><use xlink:href="#g" transform="matrix(1,0,0,1,290.69255173415434,1071.3223993726895) translate(-4.010416666666666 16.444444444444443)"/><path d="M276.8 1097.32a.5.5 0 0 0-.5.5v21.03a.5.5 0 0 0 .5.5h37a.5.5 0 0 0 .5-.5v-21.03a.5.5 0 0 0-.5-.5z" stroke="#5e5e5e" fill="#fff"/><use xlink:href="#h" transform="matrix(1,0,0,1,290.69255173415434,1096.3536493726892) translate(-4.010416666666666 16.444444444444443)"/><path d="M248.28 1083.3h26.02" stroke="#979ea8" stroke-width="3" fill="none"/><path d="M248.32 1084.8h-1.54v-3h1.54zM275.8 1084.8h-1.54v-3h1.55z" stroke="#979ea8" stroke-width=".05" fill="#979ea8"/><path d="M248.28 1108.34h26.02" stroke="#979ea8" stroke-width="3" fill="none"/><path d="M248.32 1109.84h-1.54v-3h1.54zM275.8 1109.84h-1.54v-3h1.55z" stroke="#979ea8" stroke-width=".05" fill="#979ea8"/><g filter="url(#i)"><path d="M491.85 349.88a.5.5 0 0 0-.5.5v93.4a.5.5 0 0 0 .5.5h359a.5.5 0 0 0 .5-.5v-93.4a.5.5 0 0 0-.5-.5z" stroke="#315796" stroke-width="3" fill="#315796"/><use xlink:href="#j" transform="matrix(1,0,0,1,512.2332834580217,360.92219363286637) translate(120.00260416666666 43.166666666666664)"/></g><g filter="url(#i)"><path d="M962.52 349.88a.5.5 0 0 0-.5.5v93.4a.5.5 0 0 0 .5.5h359a.5.5 0 0 0 .5-.5v-93.4a.5.5 0 0 0-.5-.5z" stroke="#315796" stroke-width="3" fill="#315796"/><use xlink:href="#k" transform="matrix(1,0,0,1,982.8999501246883,360.92219363286637) translate(120.00260416666666 43.166666666666664)"/></g><path d="M141.5 1035.7l461.96-577.82" stroke="#979ea8" stroke-width="3" fill="none"/><path d="M142.7 1036.6l-.2.26h-3.85l1.7-2.14zM606.3 456.7l-1.7 2.14-2.34-1.87.2-.27z" stroke="#979ea8" stroke-width=".05" fill="#979ea8"/><path d="M380.8 1035.9l695.8-578.23" stroke="#979ea8" stroke-width="3" fill="none"/><path d="M381.66 1036.86h-4.35l2.58-2.14zM1080.1 456.7l-2.57 2.14-1.78-2.13z" stroke="#979ea8" stroke-width=".05" fill="#979ea8"/><path d="M830.17 368.84a.5.5 0 0 0-.5.5v21.03a.5.5 0 0 0 .5.5h37a.5.5 0 0 0 .5-.5v-21.03a.5.5 0 0 0-.5-.5z" stroke="#5e5e5e" fill="#fff"/><use xlink:href="#l" transform="matrix(1,0,0,1,844.066449873619,367.8753117206983) translate(-12.335069444444443 16.444444444444443)"/><path d="M830.17 393.88a.5.5 0 0 0-.5.5v21.03a.5.5 0 0 0 .5.5h37a.5.5 0 0 0 .5-.5V394.4a.5.5 0 0 0-.5-.5z" stroke="#5e5e5e" fill="#fff"/><use xlink:href="#m" transform="matrix(1,0,0,1,844.066449873619,392.9065617206983) translate(-12.335069444444443 16.444444444444443)"/><path d="M937.65 368.84a.5.5 0 0 0-.5.5v21.03a.5.5 0 0 0 .5.5h37a.5.5 0 0 0 .5-.5v-21.03a.5.5 0 0 0-.5-.5z" stroke="#5e5e5e" fill="#fff"/><use xlink:href="#l" transform="matrix(1,0,0,1,951.5544605607217,367.8753117206983) translate(-12.335069444444443 16.444444444444443)"/><path d="M937.65 393.88a.5.5 0 0 0-.5.5v21.03a.5.5 0 0 0 .5.5h37a.5.5 0 0 0 .5-.5V394.4a.5.5 0 0 0-.5-.5z" stroke="#5e5e5e" fill="#fff"/><use xlink:href="#m" transform="matrix(1,0,0,1,951.5544605607217,392.9065617206983) translate(-12.335069444444443 16.444444444444443)"/><path d="M869.65 379.86h65.52" stroke="#979ea8" stroke-width="3" fill="none"/><path d="M869.7 381.36h-1.55v-3h1.54zM936.66 381.36h-1.53v-3h1.54z" stroke="#979ea8" stroke-width=".05" fill="#979ea8"/><path d="M869.65 404.9h65.52" stroke="#979ea8" stroke-width="3" fill="none"/><path d="M869.7 406.4h-1.55v-3h1.54zM936.66 406.4h-1.53v-3h1.54z" stroke="#979ea8" stroke-width=".05" fill="#979ea8"/><path d="M904.93 416.24c-3.82 0-6.9-10.38-6.9-23.18 0-12.8 3.08-23.18 6.9-23.18 3.82 0 6.9 10.37 6.9 23.18 0 12.8-3.08 23.18-6.9 23.18zM260.04 1119.25c-3.82 0-6.9-10.38-6.9-23.18 0-12.8 3.08-23.18 6.9-23.18 3.8 0 6.9 10.37 6.9 23.17 0 12.8-3.1 23.18-6.9 23.18z" stroke="#979ea8" stroke-width="2" fill-opacity="0"/><path d="M71.98 1129.63a.5.5 0 0 0-.5.5v21.03a.5.5 0 0 0 .5.5h130.5a.5.5 0 0 0 .5-.5v-21.03a.5.5 0 0 0-.5-.5z" stroke="#5e5e5e" fill="#fff"/><use xlink:href="#n" transform="matrix(1,0,0,1,121.31987436235468,1128.6609646270954) translate(-0.2369791666666643 16.444444444444443)"/><path d="M316.2 1129.63a.5.5 0 0 0-.5.5v21.03a.5.5 0 0 0 .5.5h130.53a.5.5 0 0 0 .5-.5v-21.03a.5.5 0 0 0-.5-.5z" stroke="#5e5e5e" fill="#fff"/><use xlink:href="#n" transform="matrix(1,0,0,1,365.55720614668496,1128.6609646270954) translate(-0.2369791666666643 16.444444444444443)"/><g filter="url(#o)"><path d="M678.08 1008.04a.5.5 0 0 0-.5.5v195.7a.5.5 0 0 0 .5.5H846.7a.5.5 0 0 0 .5-.5v-195.7a.5.5 0 0 0-.5-.5z" stroke="#315796" stroke-width="3" fill="#315796"/><use xlink:href="#p" transform="matrix(1,0,0,1,687.4142552335027,1031.0509873060169) translate(33.98437499999999 73.27777777777777)"/><use xlink:href="#q" transform="matrix(1,0,0,1,687.4142552335027,1031.0509873060169) translate(43.181423611111114 93.27777777777777)"/></g><path d="M744.38 994.8l-95.34-536.62" stroke="#979ea8" stroke-width="3" fill="none"/><path d="M746.16 996.28h-3.05l-.2-1.26 2.95-.52zM650.3 456.7l.22 1.26-2.95.52-.32-1.77z" stroke="#979ea8" stroke-width=".05" fill="#979ea8"/><path d="M794.22 995l325.53-537" stroke="#979ea8" stroke-width="3" fill="none"/><path d="M795.52 995.74l-.33.54h-3.5l1.25-2.1zM1122.28 456.7l-1.27 2.1-2.55-1.55.32-.54z" stroke="#979ea8" stroke-width=".05" fill="#979ea8"/><path d="M697.14 1195.72a.5.5 0 0 0-.5.5v21.03a.5.5 0 0 0 .5.5h130.5a.5.5 0 0 0 .5-.5v-21.03a.5.5 0 0 0-.5-.5z" stroke="#5e5e5e" fill="#fff"/><use xlink:href="#r" transform="matrix(1,0,0,1,746.4813739635881,1194.7494621252804) translate(-15.788194444444436 16.444444444444443)"/><path d="M728.13 996.76a.5.5 0 0 0-.5.5v21.03a.5.5 0 0 0 .5.5h37a.5.5 0 0 0 .5-.5v-21.04a.5.5 0 0 0-.5-.5z" stroke="#5e5e5e" fill="#fff"/><use xlink:href="#s" transform="matrix(1,0,0,1,742.0347908037699,995.7951860831131) translate(-7.829861111111111 16.444444444444443)"/><path d="M768.13 996.76a.5.5 0 0 0-.5.5v21.03a.5.5 0 0 0 .5.5h37a.5.5 0 0 0 .5-.5v-21.04a.5.5 0 0 0-.5-.5z" stroke="#5e5e5e" fill="#fff"/><use xlink:href="#t" transform="matrix(1,0,0,1,782.0332167683661,995.7951860831131) translate(-7.829861111111111 16.444444444444443)"/><g filter="url(#d)"><path d="M1181.5 928.43a.5.5 0 0 0-.5.5v93.42a.5.5 0 0 0 .5.5h168.65a.5.5 0 0 0 .5-.5v-93.42a.5.5 0 0 0-.5-.5z" stroke="#315796" stroke-width="3" fill="#315796"/><use xlink:href="#u" transform="matrix(1,0,0,1,1190.8495043401397,939.4793358179883) translate(33.98437499999999 43.166666666666664)"/></g><g filter="url(#d)"><path d="M1421.5 928.43a.5.5 0 0 0-.5.5v93.42a.5.5 0 0 0 .5.5h168.65a.5.5 0 0 0 .5-.5v-93.42a.5.5 0 0 0-.5-.5z" stroke="#315796" stroke-width="3" fill="#315796"/><use xlink:href="#v" transform="matrix(1,0,0,1,1430.8495043401397,939.4793358179883) translate(34.58984374999999 43.166666666666664)"/></g><path d="M1333.5 952.1a.5.5 0 0 0-.5.5v21.04a.5.5 0 0 0 .5.5h37a.5.5 0 0 0 .5-.5V952.6a.5.5 0 0 0-.5-.5z" stroke="#5e5e5e" fill="#fff"/><use xlink:href="#w" transform="matrix(1,0,0,1,1347.4118735590537,951.1413509663676) translate(-12.335069444444443 16.444444444444443)"/><path d="M1333.5 977.14a.5.5 0 0 0-.5.5v21.03a.5.5 0 0 0 .5.5h37a.5.5 0 0 0 .5-.5v-21.03a.5.5 0 0 0-.5-.5z" stroke="#5e5e5e" fill="#fff"/><use xlink:href="#x" transform="matrix(1,0,0,1,1347.4118735590537,976.1726009663676) translate(-12.335069444444443 16.444444444444443)"/><path d="M1401.5 952.1a.5.5 0 0 0-.5.5v21.04a.5.5 0 0 0 .5.5h37a.5.5 0 0 0 .5-.5V952.6a.5.5 0 0 0-.5-.5z" stroke="#5e5e5e" fill="#fff"/><use xlink:href="#w" transform="matrix(1,0,0,1,1415.4118735590537,951.1413509663676) translate(-12.335069444444443 16.444444444444443)"/><path d="M1401.5 977.14a.5.5 0 0 0-.5.5v21.03a.5.5 0 0 0 .5.5h37a.5.5 0 0 0 .5-.5v-21.03a.5.5 0 0 0-.5-.5z" stroke="#5e5e5e" fill="#fff"/><use xlink:href="#x" transform="matrix(1,0,0,1,1415.4118735590537,976.1726009663676) translate(-12.335069444444443 16.444444444444443)"/><path d="M1373 963.13h26.02" stroke="#979ea8" stroke-width="3" fill="none"/><path d="M1373.04 964.63h-1.55v-3h1.54zM1400.52 964.63h-1.54v-3h1.54z" stroke="#979ea8" stroke-width=".05" fill="#979ea8"/><path d="M1373 988.16h26.02" stroke="#979ea8" stroke-width="3" fill="none"/><path d="M1373.04 989.66h-1.55v-3h1.54zM1400.52 989.66h-1.54v-3h1.54z" stroke="#979ea8" stroke-width=".05" fill="#979ea8"/><path d="M1231.92 915.7l-537.5-458.02" stroke="#979ea8" stroke-width="3" fill="none"/><path d="M1235.38 916.67h-4.34l1.83-2.14zM695.3 456.7l-1.82 2.15-2.5-2.14z" stroke="#979ea8" stroke-width=".05" fill="#979ea8"/><path d="M1517.35 915.43l-309.43-457.48" stroke="#979ea8" stroke-width="3" fill="none"/><path d="M1520 916.67h-3.62l-.3-.44 2.5-1.68zM1208.9 456.7l.28.44-2.5 1.68-1.42-2.1z" stroke="#979ea8" stroke-width=".05" fill="#979ea8"/><path d="M1385.66 998.07c-3.82 0-6.9-10.38-6.9-23.18 0-12.8 3.08-23.2 6.9-23.2 3.8 0 6.9 10.4 6.9 23.2 0 12.8-3.1 23.17-6.9 23.17z" stroke="#979ea8" stroke-width="2" fill-opacity="0"/><g filter="url(#d)"><path d="M1061.5 1182.73a.5.5 0 0 0-.5.5v93.42a.5.5 0 0 0 .5.5h168.65a.5.5 0 0 0 .5-.5v-93.42a.5.5 0 0 0-.5-.5z" stroke="#315796" stroke-width="3" fill="#315796"/><use xlink:href="#y" transform="matrix(1,0,0,1,1070.8495043401397,1193.776344661567) translate(35.006510416666664 43.166666666666664)"/></g><g filter="url(#d)"><path d="M1301.5 1182.73a.5.5 0 0 0-.5.5v93.42a.5.5 0 0 0 .5.5h168.65a.5.5 0 0 0 .5-.5v-93.42a.5.5 0 0 0-.5-.5z" stroke="#315796" stroke-width="3" fill="#315796"/><use xlink:href="#z" transform="matrix(1,0,0,1,1310.8495043401397,1193.776344661567) translate(33.65885416666666 43.166666666666664)"/></g><path d="M1136.1 1169.8l101.73-131.65" stroke="#979ea8" stroke-width="3" fill="none"/><path d="M1137.3 1170.68l-.23.3h-3.8l1.66-2.14zM1240.64 1036.96l-1.65 2.14-2.38-1.84.23-.3z" stroke="#979ea8" stroke-width=".05" fill="#979ea8"/><path d="M1186.24 1172.36l298.87-134.78" stroke="#979ea8" stroke-width="3" fill="none"/><path d="M1186.9 1173.7l-2.03.92v-2.7l-.04-.27-.13-.25.96-.43zM1489.77 1036.97l.06.13-4.14 1.87-.9-2z" stroke="#979ea8" stroke-width=".05" fill="#979ea8"/><path d="M1359.43 1169.62l-65.42-131.3" stroke="#979ea8" stroke-width="3" fill="none"/><path d="M1361.77 1170.97h-3.35l-.35-.7 2.68-1.35zM1295.02 1036.97l.35.7-2.7 1.35-1-2.05z" stroke="#979ea8" stroke-width=".05" fill="#979ea8"/><path d="M1415.7 1169.82l108.17-131.7" stroke="#979ea8" stroke-width="3" fill="none"/><path d="M1416.88 1170.74l-.2.24h-3.87l1.76-2.14zM1526.76 1036.97l-1.76 2.14-2.3-1.9.18-.24z" stroke="#979ea8" stroke-width=".05" fill="#979ea8"/><path d="M1107.8 1171.46a.5.5 0 0 0-.5.5V1193a.5.5 0 0 0 .5.5h37a.5.5 0 0 0 .5-.5v-21.04a.5.5 0 0 0-.5-.5z" stroke="#5e5e5e" fill="#fff"/><use xlink:href="#A" transform="matrix(1,0,0,1,1121.6901509218576,1170.489315688852) translate(-12.335069444444443 16.444444444444443)"/><path d="M1146.87 1171.46a.5.5 0 0 0-.5.5V1193a.5.5 0 0 0 .5.5h37a.5.5 0 0 0 .5-.5v-21.04a.5.5 0 0 0-.5-.5z" stroke="#5e5e5e" fill="#fff"/><use xlink:href="#B" transform="matrix(1,0,0,1,1160.773691294891,1170.489315688852) translate(-12.335069444444443 16.444444444444443)"/><path d="M1227.8 917.16a.5.5 0 0 0-.5.5v21.03a.5.5 0 0 0 .5.5h37a.5.5 0 0 0 .5-.5v-21.04a.5.5 0 0 0-.5-.5z" stroke="#5e5e5e" fill="#fff"/><use xlink:href="#A" transform="matrix(1,0,0,1,1241.6901509218576,916.1923068452727) translate(-12.335069444444443 16.444444444444443)"/><path d="M1266.87 917.16a.5.5 0 0 0-.5.5v21.03a.5.5 0 0 0 .5.5h37a.5.5 0 0 0 .5-.5v-21.04a.5.5 0 0 0-.5-.5z" stroke="#5e5e5e" fill="#fff"/><use xlink:href="#B" transform="matrix(1,0,0,1,1280.773691294891,916.1923068452727) translate(-12.335069444444443 16.444444444444443)"/><path d="M1467.33 917.16a.5.5 0 0 0-.5.5v21.03a.5.5 0 0 0 .5.5h37a.5.5 0 0 0 .5-.5v-21.04a.5.5 0 0 0-.5-.5z" stroke="#5e5e5e" fill="#fff"/><use xlink:href="#A" transform="matrix(1,0,0,1,1481.2327081260753,916.1923068452727) translate(-12.335069444444443 16.444444444444443)"/><path d="M1507.33 917.16a.5.5 0 0 0-.5.5v21.03a.5.5 0 0 0 .5.5h37a.5.5 0 0 0 .5-.5v-21.04a.5.5 0 0 0-.5-.5z" stroke="#5e5e5e" fill="#fff"/><use xlink:href="#B" transform="matrix(1,0,0,1,1521.2311340906717,916.1923068452727) translate(-12.335069444444443 16.444444444444443)"/><path d="M1080.57 1263.75a.5.5 0 0 0-.5.5v21.03a.5.5 0 0 0 .5.5h131.94a.5.5 0 0 0 .5-.5v-21.03a.5.5 0 0 0-.5-.5z" stroke="#5e5e5e" fill="#fff"/><use xlink:href="#C" transform="matrix(1,0,0,1,1130.4563556726719,1262.7769250643523) translate(0.2630208333333357 16.444444444444443)"/><path d="M1319.5 1263.75a.5.5 0 0 0-.5.5v21.03a.5.5 0 0 0 .5.5h131.6a.5.5 0 0 0 .5-.5v-21.03a.5.5 0 0 0-.5-.5z" stroke="#5e5e5e" fill="#fff"/><use xlink:href="#C" transform="matrix(1,0,0,1,1369.2557600400403,1262.7769250643523) translate(0.2630208333333357 16.444444444444443)"/><path d="M1273.93 1319.5h240v60h-240z" fill="none"/><use xlink:href="#D" transform="matrix(1,0,0,1,1273.9325228786834,1319.5100471794158) translate(91.18518518518519 21.999999999999996)"/><use xlink:href="#E" transform="matrix(1,0,0,1,1273.9325228786834,1319.5100471794158) translate(69.44444444444444 50.44444444444444)"/><use xlink:href="#F" transform="matrix(1,0,0,1,1273.9325228786834,1319.5100471794158) translate(112.65432098765433 50.44444444444444)"/><path d="M140.22 1319.5h240v60h-240z" fill="none"/><use xlink:href="#G" transform="matrix(1,0,0,1,140.22161948779194,1319.5100471794158) translate(91.18518518518519 21.999999999999996)"/><use xlink:href="#H" transform="matrix(1,0,0,1,140.22161948779194,1319.5100471794158) translate(69.44444444444444 50.44444444444444)"/><use xlink:href="#F" transform="matrix(1,0,0,1,140.22161948779194,1319.5100471794158) translate(112.65432098765433 50.44444444444444)"/><path d="M646.53 1319.5h240v60h-240z" fill="none"/><use xlink:href="#I" transform="matrix(1,0,0,1,646.530394820028,1319.5100471794158) translate(91.18518518518519 21.999999999999996)"/><use xlink:href="#J" transform="matrix(1,0,0,1,646.530394820028,1319.5100471794158) translate(69.44444444444444 50.44444444444444)"/><use xlink:href="#F" transform="matrix(1,0,0,1,646.530394820028,1319.5100471794158) translate(112.65432098765433 50.44444444444444)"/><path d="M118.73 1037.34a.5.5 0 0 0-.5.5v21.03a.5.5 0 0 0 .5.5h37a.5.5 0 0 0 .5-.5v-21.03a.5.5 0 0 0-.5-.5z" stroke="#5e5e5e" fill="#fff"/><use xlink:href="#K" transform="matrix(1,0,0,1,132.63517240050408,1036.3733552515946) translate(-4.010416666666666 16.444444444444443)"/><path d="M362.97 1037.34a.5.5 0 0 0-.5.5v21.03a.5.5 0 0 0 .5.5h37a.5.5 0 0 0 .5-.5v-21.03a.5.5 0 0 0-.5-.5z" stroke="#5e5e5e" fill="#fff"/><use xlink:href="#K" transform="matrix(1,0,0,1,376.8725041848344,1036.3733552515946) translate(-4.010416666666666 16.444444444444443)"/><path d="M1274.67 1136.73c0 6.62-28.26 12-63.12 12-34.87 0-63.13-5.38-63.13-12 0-6.6 28.26-11.98 63.13-11.98 34.86 0 63.12 5.37 63.12 11.98zM639.5 832.5c0 6.66-78.08 12.07-174.42 12.07-96.33 0-174.43-5.4-174.43-12.08 0-6.7 78.1-12.1 174.43-12.1 96.34 0 174.43 5.4 174.43 12.1zM1476.65 832.5c0 6.66-81.22 12.07-181.42 12.07-100.2 0-181.4-5.4-181.4-12.08 0-6.7 81.2-12.1 181.4-12.1s181.42 5.4 181.42 12.1zM905.82 832.5c0 6.66-45.43 12.07-101.48 12.07-56.05 0-101.5-5.4-101.5-12.08 0-6.7 45.45-12.1 101.5-12.1s101.48 5.4 101.48 12.1z" stroke="#979ea8" stroke-width="2" fill-opacity="0"/><g filter="url(#d)"><path d="M1541.5 1182.73a.5.5 0 0 0-.5.5v93.42a.5.5 0 0 0 .5.5h168.65a.5.5 0 0 0 .5-.5v-93.42a.5.5 0 0 0-.5-.5z" stroke="#315796" stroke-width="3" fill="#315796"/><use xlink:href="#L" transform="matrix(1,0,0,1,1550.8495043401394,1193.776344661567) translate(35.55989583333333 43.166666666666664)"/></g><path d="M1585.1 1170.84l-257.84-133.2" stroke="#979ea8" stroke-width="3" fill="none"/><path d="M1588.6 1170.96h-1.3l-.28.04-.28.14-.22.23-.16.3v1.5l-1.98-1.02 1.38-2.66zM1327.66 1036.97l-1.05 2.03-3.94-2.04z" stroke="#979ea8" stroke-width=".05" fill="#979ea8"/><path d="M1639.38 1169.65l-71.7-131.37" stroke="#979ea8" stroke-width="3" fill="none"/><path d="M1641.8 1170.97h-3.4l-.36-.63 2.64-1.44zM1568.67 1036.97l.34.63-2.62 1.44-1.13-2.07z" stroke="#979ea8" stroke-width=".05" fill="#979ea8"/><path d="M1587.33 1171.46a.5.5 0 0 0-.5.5V1193a.5.5 0 0 0 .5.5h37a.5.5 0 0 0 .5-.5v-21.04a.5.5 0 0 0-.5-.5z" stroke="#5e5e5e" fill="#fff"/><use xlink:href="#A" transform="matrix(1,0,0,1,1601.2327081260748,1170.489315688852) translate(-12.335069444444443 16.444444444444443)"/><path d="M1627.33 1171.46a.5.5 0 0 0-.5.5V1193a.5.5 0 0 0 .5.5h37a.5.5 0 0 0 .5-.5v-21.04a.5.5 0 0 0-.5-.5z" stroke="#5e5e5e" fill="#fff"/><use xlink:href="#B" transform="matrix(1,0,0,1,1641.231134090671,1170.489315688852) translate(-12.335069444444443 16.444444444444443)"/><path d="M1347.33 1171.46a.5.5 0 0 0-.5.5V1193a.5.5 0 0 0 .5.5h37a.5.5 0 0 0 .5-.5v-21.04a.5.5 0 0 0-.5-.5z" stroke="#5e5e5e" fill="#fff"/><use xlink:href="#A" transform="matrix(1,0,0,1,1361.2327081260753,1170.489315688852) translate(-12.335069444444443 16.444444444444443)"/><path d="M1387.33 1171.46a.5.5 0 0 0-.5.5V1193a.5.5 0 0 0 .5.5h37a.5.5 0 0 0 .5-.5v-21.04a.5.5 0 0 0-.5-.5z" stroke="#5e5e5e" fill="#fff"/><use xlink:href="#B" transform="matrix(1,0,0,1,1401.2311340906715,1170.489315688852) translate(-12.335069444444443 16.444444444444443)"/><path d="M1559.5 1263.75a.5.5 0 0 0-.5.5v21.03a.5.5 0 0 0 .5.5h131.6a.5.5 0 0 0 .5-.5v-21.03a.5.5 0 0 0-.5-.5z" stroke="#5e5e5e" fill="#fff"/><use xlink:href="#C" transform="matrix(1,0,0,1,1609.25576004004,1262.7769250643523) translate(0.2630208333333357 16.444444444444443)"/><path d="M1185.52 1014.45a.5.5 0 0 0-.5.5v21.03a.5.5 0 0 0 .5.5h40.25a.5.5 0 0 0 .5-.5v-21.03a.5.5 0 0 0-.5-.5z" stroke="#5e5e5e" fill="#fff"/><use xlink:href="#C" transform="matrix(1,0,0,1,1200.6582672530164,1013.4799162207737) translate(-11.236979166666664 16.444444444444443)"/><path d="M1229.14 1014.45a.5.5 0 0 0-.5.5v21.03a.5.5 0 0 0 .5.5h37a.5.5 0 0 0 .5-.5v-21.03a.5.5 0 0 0-.5-.5z" stroke="#5e5e5e" fill="#fff"/><use xlink:href="#M" transform="matrix(1,0,0,1,1243.0366342336902,1013.4799162207737) translate(-12.335069444444443 16.444444444444443)"/><path d="M1269.1 1014.45a.5.5 0 0 0-.5.5v21.03a.5.5 0 0 0 .5.5h37a.5.5 0 0 0 .5-.5v-21.03a.5.5 0 0 0-.5-.5z" stroke="#5e5e5e" fill="#fff"/><use xlink:href="#N" transform="matrix(1,0,0,1,1283.0106874918902,1013.4799162207737) translate(-12.335069444444443 16.444444444444443)"/><path d="M1309.14 1014.45a.5.5 0 0 0-.5.5v21.03a.5.5 0 0 0 .5.5h37a.5.5 0 0 0 .5-.5v-21.03a.5.5 0 0 0-.5-.5z" stroke="#5e5e5e" fill="#fff"/><use xlink:href="#O" transform="matrix(1,0,0,1,1323.0382082690937,1013.4799162207737) translate(-12.335069444444443 16.444444444444443)"/><path d="M1425.52 1014.45a.5.5 0 0 0-.5.5v21.03a.5.5 0 0 0 .5.5h40.25a.5.5 0 0 0 .5-.5v-21.03a.5.5 0 0 0-.5-.5z" stroke="#5e5e5e" fill="#fff"/><use xlink:href="#C" transform="matrix(1,0,0,1,1440.6582672530155,1013.4799162207737) translate(-11.236979166666664 16.444444444444443)"/><path d="M1469.14 1014.45a.5.5 0 0 0-.5.5v21.03a.5.5 0 0 0 .5.5h37a.5.5 0 0 0 .5-.5v-21.03a.5.5 0 0 0-.5-.5z" stroke="#5e5e5e" fill="#fff"/><use xlink:href="#M" transform="matrix(1,0,0,1,1483.0366342336895,1013.4799162207737) translate(-12.335069444444443 16.444444444444443)"/><path d="M1509.1 1014.45a.5.5 0 0 0-.5.5v21.03a.5.5 0 0 0 .5.5h37a.5.5 0 0 0 .5-.5v-21.03a.5.5 0 0 0-.5-.5z" stroke="#5e5e5e" fill="#fff"/><use xlink:href="#N" transform="matrix(1,0,0,1,1523.0106874918897,1013.4799162207737) translate(-12.335069444444443 16.444444444444443)"/><path d="M1549.14 1014.45a.5.5 0 0 0-.5.5v21.03a.5.5 0 0 0 .5.5h37a.5.5 0 0 0 .5-.5v-21.03a.5.5 0 0 0-.5-.5z" stroke="#5e5e5e" fill="#fff"/><use xlink:href="#O" transform="matrix(1,0,0,1,1563.0382082690928,1013.4799162207737) translate(-12.335069444444443 16.444444444444443)"/><path d="M1454.67 1136.73c0 6.62-28.26 12-63.12 12-34.87 0-63.13-5.38-63.13-12 0-6.6 28.26-11.98 63.13-11.98 34.86 0 63.12 5.37 63.12 11.98zM1634.67 1136.73c0 6.62-28.26 12-63.12 12-34.87 0-63.13-5.38-63.13-12 0-6.6 28.26-11.98 63.13-11.98 34.86 0 63.12 5.37 63.12 11.98z" stroke="#979ea8" stroke-width="2" fill-opacity="0"/><path d="M1282.07 915.22l-116.62-457.06" stroke="#979ea8" stroke-width="3" fill="none"/><path d="M1283.98 916.67h-3.1l-.28-1.12 2.9-.74zM1166.63 456.7l.28 1.13-2.9.74-.47-1.86z" stroke="#979ea8" stroke-width=".05" fill="#979ea8"/><path d="M1480.72 915.88l-744-458.38" stroke="#979ea8" stroke-width="3" fill="none"/><path d="M1484.86 916.67h-4.67l1.27-2.08zM737.25 456.7l-1.3 2.1-3.37-2.1z" stroke="#979ea8" stroke-width=".05" fill="#979ea8"/><path d="M589.6 434.2a.5.5 0 0 0-.5.5v21.02a.5.5 0 0 0 .5.5h37a.5.5 0 0 0 .5-.5V434.7a.5.5 0 0 0-.5-.5z" stroke="#5e5e5e" fill="#fff"/><use xlink:href="#P" transform="matrix(1,0,0,1,603.4907626758134,433.220749466793) translate(0.49479166666666696 16.444444444444443)"/><path d="M630.6 434.2a.5.5 0 0 0-.5.5v21.02a.5.5 0 0 0 .5.5h37a.5.5 0 0 0 .5-.5V434.7a.5.5 0 0 0-.5-.5z" stroke="#5e5e5e" fill="#fff"/><use xlink:href="#Q" transform="matrix(1,0,0,1,644.4907626758134,433.220749466793) translate(-12.335069444444443 16.444444444444443)"/><path d="M672.98 434.2a.5.5 0 0 0-.5.5v21.02a.5.5 0 0 0 .5.5h37a.5.5 0 0 0 .5-.5V434.7a.5.5 0 0 0-.5-.5z" stroke="#5e5e5e" fill="#fff"/><use xlink:href="#R" transform="matrix(1,0,0,1,686.8813294355544,433.220749466793) translate(-12.335069444444443 16.444444444444443)"/><path d="M716.12 434.2a.5.5 0 0 0-.5.5v21.02a.5.5 0 0 0 .5.5h37a.5.5 0 0 0 .5-.5V434.7a.5.5 0 0 0-.5-.5z" stroke="#5e5e5e" fill="#fff"/><use xlink:href="#S" transform="matrix(1,0,0,1,730.0201851567975,433.220749466793) translate(-12.335069444444443 16.444444444444443)"/><path d="M1060.26 434.2a.5.5 0 0 0-.5.5v21.02a.5.5 0 0 0 .5.5h37a.5.5 0 0 0 .5-.5V434.7a.5.5 0 0 0-.5-.5z" stroke="#5e5e5e" fill="#fff"/><g><use xlink:href="#P" transform="matrix(1,0,0,1,1074.15742934248,433.220749466793) translate(0.49479166666666696 16.444444444444443)"/></g><path d="M1101.26 434.2a.5.5 0 0 0-.5.5v21.02a.5.5 0 0 0 .5.5h37a.5.5 0 0 0 .5-.5V434.7a.5.5 0 0 0-.5-.5z" stroke="#5e5e5e" fill="#fff"/><g><use xlink:href="#Q" transform="matrix(1,0,0,1,1115.15742934248,433.220749466793) translate(-12.335069444444443 16.444444444444443)"/></g><path d="M1143.65 434.2a.5.5 0 0 0-.5.5v21.02a.5.5 0 0 0 .5.5h37a.5.5 0 0 0 .5-.5V434.7a.5.5 0 0 0-.5-.5z" stroke="#5e5e5e" fill="#fff"/><g><use xlink:href="#R" transform="matrix(1,0,0,1,1157.5479961022213,433.220749466793) translate(-12.335069444444443 16.444444444444443)"/></g><path d="M1186.8 434.2a.5.5 0 0 0-.5.5v21.02a.5.5 0 0 0 .5.5h36.98a.5.5 0 0 0 .5-.5V434.7a.5.5 0 0 0-.5-.5z" stroke="#5e5e5e" fill="#fff"/><g><use xlink:href="#S" transform="matrix(1,0,0,1,1200.6868518234644,433.220749466793) translate(-12.335069444444443 16.444444444444443)"/></g><defs><path fill="#979ea8" d="M24 0v-248h195v40H76v63h132v40H76v65h150V0H24" id="T"/><path fill="#979ea8" d="M144 0l-44-69L55 0H2l70-98-66-92h53l41 62 40-62h54l-67 91 71 99h-54" id="U"/><path fill="#979ea8" d="M133-34C117-15 103 5 69 4 32 3 11-16 11-54c-1-60 55-63 116-61 1-26-3-47-28-47-18 1-26 9-28 27l-52-2c7-38 36-58 82-57s74 22 75 68l1 82c-1 14 12 18 25 15v27c-30 8-71 5-69-32zm-48 3c29 0 43-24 42-57-32 0-66-3-65 30 0 17 8 27 23 27" id="V"/><path fill="#979ea8" d="M220-157c-53 9-28 100-34 157h-49v-107c1-27-5-49-29-50C55-147 81-57 75 0H25l-1-190h47c2 12-1 28 3 38 10-53 101-56 108 0 13-22 24-43 59-42 82 1 51 116 57 194h-49v-107c-1-25-5-48-29-50" id="W"/><path fill="#979ea8" d="M135-194c53 0 70 44 70 98 0 56-19 98-73 100-31 1-45-17-59-34 3 33 2 69 2 105H25l-1-265h48c2 10 0 23 3 31 11-24 29-35 60-35zM114-30c33 0 39-31 40-66 0-38-9-64-40-64-56 0-55 130 0 130" id="X"/><path fill="#979ea8" d="M25 0v-261h50V0H25" id="Y"/><path fill="#979ea8" d="M185-48c-13 30-37 53-82 52C43 2 14-33 14-96s30-98 90-98c62 0 83 45 84 108H66c0 31 8 55 39 56 18 0 30-7 34-22zm-45-69c5-46-57-63-70-21-2 6-4 13-4 21h74" id="Z"/><g id="a"><use transform="matrix(0.12962962962962957,0,0,0.12962962962962957,0,0)" xlink:href="#T"/><use transform="matrix(0.12962962962962957,0,0,0.12962962962962957,31.111111111111097,0)" xlink:href="#U"/><use transform="matrix(0.12962962962962957,0,0,0.12962962962962957,57.03703703703701,0)" xlink:href="#V"/><use transform="matrix(0.12962962962962957,0,0,0.12962962962962957,82.96296296296292,0)" xlink:href="#W"/><use transform="matrix(0.12962962962962957,0,0,0.12962962962962957,124.44444444444437,0)" xlink:href="#X"/><use transform="matrix(0.12962962962962957,0,0,0.12962962962962957,152.83333333333326,0)" xlink:href="#Y"/><use transform="matrix(0.12962962962962957,0,0,0.12962962962962957,165.79629629629622,0)" xlink:href="#Z"/></g><path fill="#979ea8" d="M67-125c0 53 21 87 73 88 37 1 54-22 65-47l45 17C233-25 199 4 140 4 58 4 20-42 15-125 8-235 124-281 211-232c18 10 29 29 36 50l-46 12c-8-25-30-41-62-41-52 0-71 34-72 86" id="aa"/><path fill="#979ea8" d="M85 4C-2 5 27-109 22-190h50c7 57-23 150 33 157 60-5 35-97 40-157h50l1 190h-47c-2-12 1-28-3-38-12 25-28 42-61 42" id="ab"/><path fill="#979ea8" d="M137-138c1-29-70-34-71-4 15 46 118 7 119 86 1 83-164 76-172 9l43-7c4 19 20 25 44 25 33 8 57-30 24-41C81-84 22-81 20-136c-2-80 154-74 161-7" id="ac"/><g id="b"><use transform="matrix(0.12962962962962957,0,0,0.12962962962962957,0,0)" xlink:href="#aa"/><use transform="matrix(0.12962962962962957,0,0,0.12962962962962957,33.574074074074055,0)" xlink:href="#V"/><use transform="matrix(0.12962962962962957,0,0,0.12962962962962957,59.49999999999997,0)" xlink:href="#W"/><use transform="matrix(0.12962962962962957,0,0,0.12962962962962957,100.98148148148144,0)" xlink:href="#X"/><use transform="matrix(0.12962962962962957,0,0,0.12962962962962957,129.37037037037032,0)" xlink:href="#ab"/><use transform="matrix(0.12962962962962957,0,0,0.12962962962962957,157.7592592592592,0)" xlink:href="#ac"/></g><path fill="#979ea8" d="M76-208v77h127v40H76V0H24v-248h183v40H76" id="ad"/><path fill="#979ea8" d="M135-194c52 0 70 43 70 98 0 56-19 99-73 100-30 1-46-15-58-35L72 0H24l1-261h50v104c11-23 29-37 60-37zM114-30c31 0 40-27 40-66 0-37-7-63-39-63s-41 28-41 65c0 36 8 64 40 64" id="ae"/><path fill="#979ea8" d="M135-150c-39-12-60 13-60 57V0H25l-1-190h47c2 13-1 29 3 40 6-28 27-53 61-41v41" id="af"/><path fill="#979ea8" d="M25-224v-37h50v37H25zM25 0v-190h50V0H25" id="ag"/><path fill="#979ea8" d="M190-63c-7 42-38 67-86 67-59 0-84-38-90-98-12-110 154-137 174-36l-49 2c-2-19-15-32-35-32-30 0-35 28-38 64-6 74 65 87 74 30" id="ah"/><g id="c"><use transform="matrix(0.12962962962962957,0,0,0.12962962962962957,0,0)" xlink:href="#ad"/><use transform="matrix(0.12962962962962957,0,0,0.12962962962962957,28.388888888888875,0)" xlink:href="#V"/><use transform="matrix(0.12962962962962957,0,0,0.12962962962962957,54.31481481481479,0)" xlink:href="#ae"/><use transform="matrix(0.12962962962962957,0,0,0.12962962962962957,82.70370370370367,0)" xlink:href="#af"/><use transform="matrix(0.12962962962962957,0,0,0.12962962962962957,100.8518518518518,0)" xlink:href="#ag"/><use transform="matrix(0.12962962962962957,0,0,0.12962962962962957,113.81481481481475,0)" xlink:href="#ah"/></g><path fill="#fff" d="M371-216h461V0H108v-1328h263v1112" id="ai"/><path fill="#fff" d="M928-1328v209H382v351h425v201H382v358h547L928 0H118v-1328h810" id="aj"/><path fill="#fff" d="M1240 0h-202c-47 1-76-24-87-58l-84-261H378L295-59c-11 29-44 59-86 59H4l484-1328h268zM437-503h370c-61-196-127-384-186-583-56 202-123 386-184 583" id="ak"/><path fill="#fff" d="M890-1328v209H373v376h433v209H373V0H109v-1328h781" id="al"/><path fill="#fff" d="M236-180h257c2-279-3-565 3-840L323-871c-27 30-91 18-110-9l-76-104 399-346h198v1150h227V0H236v-180" id="am"/><g id="e"><use transform="matrix(0.013020833333333334,0,0,0.013020833333333334,0,0)" xlink:href="#ai"/><use transform="matrix(0.013020833333333334,0,0,0.013020833333333334,11.276041666666668,0)" xlink:href="#aj"/><use transform="matrix(0.013020833333333334,0,0,0.013020833333333334,23.958333333333336,0)" xlink:href="#ak"/><use transform="matrix(0.013020833333333334,0,0,0.013020833333333334,40.1171875,0)" xlink:href="#al"/><use transform="matrix(0.013020833333333334,0,0,0.013020833333333334,52.356770833333336,0)" xlink:href="#am"/><use transform="matrix(0.013020833333333334,0,0,0.013020833333333334,65.87239583333334,0)" xlink:href="#ak"/></g><filter id="d" filterUnits="objectBoundingBox" x="-.06" y="-.04" width="1.12" height="1.21"><feOffset result="offOut" in="SourceAlpha" dy="6"/><feGaussianBlur result="blurOut" in="offOut" stdDeviation="5"/><feColorMatrix result="colorOut" in="blurOut" values="0 0 0 0 0 0 0 0 0 0 0 0 0 0 0 0 0 0 0.5019607843137255 0"/><feBlend in="SourceGraphic" in2="colorOut"/></filter><path fill="#fff" d="M1048-974c0 163-99 241-224 288 171 41 257 139 257 293C1081-125 889 0 612 0H119v-1328h451c279 2 478 84 478 354zM823-399c0-131-83-178-217-178H382v373h225c139 0 216-61 216-195zm-37-542c0-143-71-185-216-185H382v368h173c140-1 231-45 231-183" id="an"/><g id="f"><use transform="matrix(0.013020833333333334,0,0,0.013020833333333334,0,0)" xlink:href="#ai"/><use transform="matrix(0.013020833333333334,0,0,0.013020833333333334,11.276041666666668,0)" xlink:href="#aj"/><use transform="matrix(0.013020833333333334,0,0,0.013020833333333334,23.958333333333336,0)" xlink:href="#ak"/><use transform="matrix(0.013020833333333334,0,0,0.013020833333333334,40.1171875,0)" xlink:href="#al"/><use transform="matrix(0.013020833333333334,0,0,0.013020833333333334,52.356770833333336,0)" xlink:href="#am"/><use transform="matrix(0.013020833333333334,0,0,0.013020833333333334,65.87239583333334,0)" xlink:href="#an"/></g><path fill="#4c535d" d="M463-670c-69 0-128 14-183 34l-149-41 108-651h650v101c-3 78-52 116-142 116H407l-44 261c53-11 103-16 152-16 263 0 419 147 419 406 0 232-122 371-292 440-125 51-309 39-418-14-62-30-119-68-165-112l74-102c44-65 117-14 161 14 42 27 94 49 166 47 158-4 231-103 233-261 2-143-84-223-230-222" id="ao"/><path fill="#4c535d" d="M113-955c38-239 181-388 448-388 186 0 310 81 369 209 18 42 27 87 27 134 1 168-77 256-203 297 151 51 227 154 227 307C981-126 800 8 532 14 260 20 143-131 76-338c63-25 186-102 236-14 46 82 93 164 218 164 130 0 203-76 210-200 9-175-112-206-288-206v-171c158-2 269-37 269-193 0-117-60-182-173-183-99-1-165 67-190 142-19 57-44 79-118 66" id="ap"/><g id="g"><use transform="matrix(0.008680555555555554,0,0,0.008680555555555554,0,0)" xlink:href="#ao"/><use transform="matrix(0.008680555555555554,0,0,0.008680555555555554,9.010416666666666,0)" xlink:href="#ap"/></g><path fill="#4c535d" d="M1007-505c-9 70 29 185-49 186H854V0H644v-319H105c-83-4-69-108-90-173l609-837h230v824h153zm-363 0c3-182-8-376 8-546L269-505h375" id="aq"/><g id="h"><use transform="matrix(0.008680555555555554,0,0,0.008680555555555554,0,0)" xlink:href="#ao"/><use transform="matrix(0.008680555555555554,0,0,0.008680555555555554,9.010416666666666,0)" xlink:href="#aq"/></g><path fill="#fff" d="M469-200c119 0 194-62 190-182-5-155-165-165-285-207C212-646 83-736 88-958c4-182 105-295 242-352 113-48 278-41 392 4 65 25 120 59 166 104l-67 124c-13 37-61 47-98 23-55-35-117-75-210-75-111 0-181 57-181 159 0 146 173 155 287 201 153 61 292 138 287 351-7 273-167 433-444 433-190 0-326-77-424-175l78-125c18-34 71-42 108-14 63 47 132 100 245 100" id="ar"/><path fill="#fff" d="M1037-902c0 300-189 436-495 441H378V0H115v-1328h427c303 4 495 131 495 426zm-263 0c0-143-81-224-232-224H378v461h164c156 2 232-87 232-237" id="as"/><path fill="#fff" d="M405 0H141v-1328h264V0" id="at"/><path fill="#fff" d="M122-1328c70 6 164-16 206 20 6 5 13 12 20 21l654 862c-4-44-6-86-6-125v-778h231V0c-62-4-141 10-187-10-14-6-27-18-40-35L348-902c4 41 6 80 6 115V0H122v-1328" id="au"/><g id="j"><use transform="matrix(0.013020833333333334,0,0,0.013020833333333334,0,0)" xlink:href="#ar"/><use transform="matrix(0.013020833333333334,0,0,0.013020833333333334,12.604166666666668,0)" xlink:href="#as"/><use transform="matrix(0.013020833333333334,0,0,0.013020833333333334,26.796875,0)" xlink:href="#at"/><use transform="matrix(0.013020833333333334,0,0,0.013020833333333334,33.90625,0)" xlink:href="#au"/><use transform="matrix(0.013020833333333334,0,0,0.013020833333333334,51.47135416666667,0)" xlink:href="#aj"/><use transform="matrix(0.013020833333333334,0,0,0.013020833333333334,64.47916666666667,0)" xlink:href="#am"/></g><filter id="i" filterUnits="objectBoundingBox" x="-.03" y="-.04" width="1.06" height="1.21"><feOffset result="offOut" in="SourceAlpha" dy="6"/><feGaussianBlur result="blurOut" in="offOut" stdDeviation="5"/><feColorMatrix result="colorOut" in="blurOut" values="0 0 0 0 0 0 0 0 0 0 0 0 0 0 0 0 0 0 0.5019607843137255 0"/><feBlend in="SourceGraphic" in2="colorOut"/></filter><path fill="#fff" d="M89-955c40-238 181-388 449-388 250 0 409 134 409 381 0 232-139 347-258 472L407-195c126-46 310-24 475-29 49-1 86 32 85 80V0H69c-2-76 0-138 43-180 161-160 326-321 472-494 63-74 110-153 115-281 6-143-107-217-242-175-61 19-100 69-121 131-19 56-46 79-119 66" id="av"/><g id="k"><use transform="matrix(0.013020833333333334,0,0,0.013020833333333334,0,0)" xlink:href="#ar"/><use transform="matrix(0.013020833333333334,0,0,0.013020833333333334,12.604166666666668,0)" xlink:href="#as"/><use transform="matrix(0.013020833333333334,0,0,0.013020833333333334,26.796875,0)" xlink:href="#at"/><use transform="matrix(0.013020833333333334,0,0,0.013020833333333334,33.90625,0)" xlink:href="#au"/><use transform="matrix(0.013020833333333334,0,0,0.013020833333333334,51.47135416666667,0)" xlink:href="#aj"/><use transform="matrix(0.013020833333333334,0,0,0.013020833333333334,64.47916666666667,0)" xlink:href="#av"/></g><path fill="#4c535d" d="M225-1c-20 54-71 94-136 94H-18l680-1441c20-52 64-88 131-89h107" id="aw"/><path fill="#4c535d" d="M236-180h257c2-279-3-565 3-840L323-871c-27 30-91 18-110-9l-76-104 399-346h198v1150h227V0H236v-180" id="ax"/><g id="l"><use transform="matrix(0.008680555555555554,0,0,0.008680555555555554,0,0)" xlink:href="#ao"/><use transform="matrix(0.008680555555555554,0,0,0.008680555555555554,9.010416666666666,0)" xlink:href="#ao"/><use transform="matrix(0.008680555555555554,0,0,0.008680555555555554,18.020833333333332,0)" xlink:href="#aw"/><use transform="matrix(0.008680555555555554,0,0,0.008680555555555554,25.65972222222222,0)" xlink:href="#ax"/></g><path fill="#4c535d" d="M456-845c80-38 203-43 294-6 146 60 243 188 243 393 0 223-117 364-277 436-109 49-273 49-382 1C168-93 67-246 67-479c0-175 67-295 150-418l300-442c25-33 77-59 136-59h226c-141 184-282 368-423 553zm64 158c-139 0-209 104-209 247 0 149 63 249 209 249 141 0 219-103 219-248 0-149-72-248-219-248" id="ay"/><g id="m"><use transform="matrix(0.008680555555555554,0,0,0.008680555555555554,0,0)" xlink:href="#ao"/><use transform="matrix(0.008680555555555554,0,0,0.008680555555555554,9.010416666666666,0)" xlink:href="#ay"/><use transform="matrix(0.008680555555555554,0,0,0.008680555555555554,18.020833333333332,0)" xlink:href="#aw"/><use transform="matrix(0.008680555555555554,0,0,0.008680555555555554,25.65972222222222,0)" xlink:href="#ax"/></g><path fill="#4c535d" d="M61-690h505v212H61v-212" id="az"/><path fill="#4c535d" d="M977-395c0 272-183 410-458 410S61-123 61-395c0-179 82-285 228-334-115-51-185-151-185-308 0-185 109-293 248-348 99-39 235-39 334 0 140 55 248 162 248 348 0 158-70 257-186 308 146 49 229 155 229 334zm-654-4c0 133 63 217 196 217s196-84 196-217c0-142-55-224-196-224-140 0-196 84-196 224zm28-633c0 123 44 210 168 210 123 0 168-87 168-210 0-114-53-191-168-191s-168 77-168 191" id="aA"/><g id="n"><use transform="matrix(0.008680555555555554,0,0,0.008680555555555554,0,0)" xlink:href="#ax"/><use transform="matrix(0.008680555555555554,0,0,0.008680555555555554,9.010416666666666,0)" xlink:href="#az"/><use transform="matrix(0.008680555555555554,0,0,0.008680555555555554,14.453124999999998,0)" xlink:href="#aq"/><use transform="matrix(0.008680555555555554,0,0,0.008680555555555554,23.463541666666664,0)" xlink:href="#aA"/></g><g id="p"><use transform="matrix(0.013020833333333334,0,0,0.013020833333333334,0,0)" xlink:href="#ai"/><use transform="matrix(0.013020833333333334,0,0,0.013020833333333334,11.276041666666668,0)" xlink:href="#aj"/><use transform="matrix(0.013020833333333334,0,0,0.013020833333333334,23.958333333333336,0)" xlink:href="#ak"/><use transform="matrix(0.013020833333333334,0,0,0.013020833333333334,40.1171875,0)" xlink:href="#al"/><use transform="matrix(0.013020833333333334,0,0,0.013020833333333334,52.356770833333336,0)" xlink:href="#av"/><use transform="matrix(0.013020833333333334,0,0,0.013020833333333334,65.87239583333334,0)" xlink:href="#ak"/></g><path fill="#fff" d="M363-958c5 40 8 85 8 127V0H139v-1328c83 3 177-6 251 6 17 7 27 17 36 35l412 720c23 42 42 86 59 131 19-46 36-91 59-133l409-718c14-32 40-41 88-41h198V0h-231c1-296-1-596 2-890 1-21 2-42 4-64l-419 742c-28 50-62 58-128 58-41 0-70-20-92-58" id="aB"/><path fill="#fff" d="M352-974c116-47 283-48 399 0 177 72 288 230 288 475 0 247-110 405-288 478-116 48-283 48-399 0C173-94 62-251 62-499c0-246 112-403 290-475zm-28 477c0 189 54 318 228 318 172 0 225-131 225-318s-53-318-225-318c-174 0-228 130-228 318" id="aC"/><path fill="#fff" d="M483-1012c112 0 179 37 238 92v-517h254V0H818c-73 2-64-82-83-135C661-54 570 15 422 15 157 15 63-214 63-494c0-232 92-397 247-478 52-26 110-40 173-40zM325-494c0 166 29 308 186 308 106 0 161-51 210-111v-438c-43-55-93-85-178-85-170 0-218 146-218 326" id="aD"/><path fill="#fff" d="M439 15c-225-4-332-150-332-377v-631h254v631c0 110 48 181 156 180 91-1 152-46 204-95v-716h254V0c-65-5-152 14-197-12-30-17-26-70-39-106C664-46 580 18 439 15" id="aE"/><path fill="#fff" d="M379-1437V0H125v-1437h254" id="aF"/><path fill="#fff" d="M534-1012c240 0 371 147 371 387V0c-80-7-186 24-201-53l-22-66C598-47 516 18 362 15 183 12 73-75 73-255c0-177 142-239 303-283 75-20 169-31 281-34 9-142-26-239-155-239-97 0-149 37-209 70-49 27-108 2-128-33l-46-80c103-96 231-158 415-158zM316-268c-2 80 48 110 125 110 107 0 156-41 216-100v-160c-111 5-199 15-269 48-43 21-70 49-72 102" id="aG"/><path fill="#fff" d="M545-767c-109 4-148 72-181 151V0H110v-993c66 5 161-12 204 14 28 28 23 102 33 150 53-94 116-183 244-183 43 0 79 10 107 31l-19 190c-6 59-87 22-134 24" id="aH"/><g id="q"><use transform="matrix(0.008680555555555554,0,0,0.008680555555555554,0,0)" xlink:href="#aB"/><use transform="matrix(0.008680555555555554,0,0,0.008680555555555554,15.538194444444443,0)" xlink:href="#aC"/><use transform="matrix(0.008680555555555554,0,0,0.008680555555555554,25.095486111111107,0)" xlink:href="#aD"/><use transform="matrix(0.008680555555555554,0,0,0.008680555555555554,34.63541666666666,0)" xlink:href="#aE"/><use transform="matrix(0.008680555555555554,0,0,0.008680555555555554,44.175347222222214,0)" xlink:href="#aF"/><use transform="matrix(0.008680555555555554,0,0,0.008680555555555554,48.54166666666666,0)" xlink:href="#aG"/><use transform="matrix(0.008680555555555554,0,0,0.008680555555555554,57.31770833333332,0)" xlink:href="#aH"/></g><filter id="o" filterUnits="objectBoundingBox" x="-.06" y="-.02" width="1.12" height="1.1"><feOffset result="offOut" in="SourceAlpha" dy="6"/><feGaussianBlur result="blurOut" in="offOut" stdDeviation="5"/><feColorMatrix result="colorOut" in="blurOut" values="0 0 0 0 0 0 0 0 0 0 0 0 0 0 0 0 0 0 0.5019607843137255 0"/><feBlend in="SourceGraphic" in2="colorOut"/></filter><path fill="#4c535d" d="M137-1111c-27 1-55-27-55-55v-162h902c1 84-3 171-29 226L478-82C454-38 420 0 351 0H175l488-997c23-44 44-80 76-114H137" id="aI"/><g id="r"><use transform="matrix(0.008680555555555554,0,0,0.008680555555555554,0,0)" xlink:href="#ap"/><use transform="matrix(0.008680555555555554,0,0,0.008680555555555554,9.010416666666666,0)" xlink:href="#az"/><use transform="matrix(0.008680555555555554,0,0,0.008680555555555554,14.453124999999998,0)" xlink:href="#aI"/><use transform="matrix(0.008680555555555554,0,0,0.008680555555555554,23.463541666666664,0)" xlink:href="#aw"/><use transform="matrix(0.008680555555555554,0,0,0.008680555555555554,31.10243055555555,0)" xlink:href="#ax"/><use transform="matrix(0.008680555555555554,0,0,0.008680555555555554,40.112847222222214,0)" xlink:href="#az"/><use transform="matrix(0.008680555555555554,0,0,0.008680555555555554,45.55555555555554,0)" xlink:href="#aq"/><use transform="matrix(0.008680555555555554,0,0,0.008680555555555554,54.56597222222221,0)" xlink:href="#aA"/></g><g id="s"><use transform="matrix(0.008680555555555554,0,0,0.008680555555555554,0,0)" xlink:href="#ax"/><use transform="matrix(0.008680555555555554,0,0,0.008680555555555554,9.010416666666666,0)" xlink:href="#aw"/><use transform="matrix(0.008680555555555554,0,0,0.008680555555555554,16.649305555555554,0)" xlink:href="#ax"/></g><g id="t"><use transform="matrix(0.008680555555555554,0,0,0.008680555555555554,0,0)" xlink:href="#ax"/><use transform="matrix(0.008680555555555554,0,0,0.008680555555555554,9.010416666666666,0)" xlink:href="#aw"/><use transform="matrix(0.008680555555555554,0,0,0.008680555555555554,16.649305555555554,0)" xlink:href="#ap"/></g><path fill="#fff" d="M113-955c38-239 181-388 448-388 186 0 310 81 369 209 18 42 27 87 27 134 1 168-77 256-203 297 151 51 227 154 227 307C981-126 800 8 532 14 260 20 143-131 76-338c63-25 186-102 236-14 46 82 93 164 218 164 130 0 203-76 210-200 9-175-112-206-288-206v-171c158-2 269-37 269-193 0-117-60-182-173-183-99-1-165 67-190 142-19 57-44 79-118 66" id="aJ"/><g id="u"><use transform="matrix(0.013020833333333334,0,0,0.013020833333333334,0,0)" xlink:href="#ai"/><use transform="matrix(0.013020833333333334,0,0,0.013020833333333334,11.276041666666668,0)" xlink:href="#aj"/><use transform="matrix(0.013020833333333334,0,0,0.013020833333333334,23.958333333333336,0)" xlink:href="#ak"/><use transform="matrix(0.013020833333333334,0,0,0.013020833333333334,40.1171875,0)" xlink:href="#al"/><use transform="matrix(0.013020833333333334,0,0,0.013020833333333334,52.356770833333336,0)" xlink:href="#aJ"/><use transform="matrix(0.013020833333333334,0,0,0.013020833333333334,65.87239583333334,0)" xlink:href="#ak"/></g><g id="v"><use transform="matrix(0.013020833333333334,0,0,0.013020833333333334,0,0)" xlink:href="#ai"/><use transform="matrix(0.013020833333333334,0,0,0.013020833333333334,11.276041666666668,0)" xlink:href="#aj"/><use transform="matrix(0.013020833333333334,0,0,0.013020833333333334,23.958333333333336,0)" xlink:href="#ak"/><use transform="matrix(0.013020833333333334,0,0,0.013020833333333334,40.1171875,0)" xlink:href="#al"/><use transform="matrix(0.013020833333333334,0,0,0.013020833333333334,52.356770833333336,0)" xlink:href="#aJ"/><use transform="matrix(0.013020833333333334,0,0,0.013020833333333334,65.87239583333334,0)" xlink:href="#an"/></g><path fill="#4c535d" d="M558-1343c315 4 477 226 426 559-19 123-74 216-134 304L560-55C509 26 342-7 215 0c152-194 307-385 457-581-80 52-225 75-333 30-135-54-228-169-228-358 0-206 113-334 264-399 55-23 116-35 183-35zm-4 636c137 0 210-84 210-219 0-137-73-221-209-221-132 0-201 87-204 219-3 139 67 221 203 221" id="aK"/><g id="w"><use transform="matrix(0.008680555555555554,0,0,0.008680555555555554,0,0)" xlink:href="#aK"/><use transform="matrix(0.008680555555555554,0,0,0.008680555555555554,9.010416666666666,0)" xlink:href="#aA"/><use transform="matrix(0.008680555555555554,0,0,0.008680555555555554,18.020833333333332,0)" xlink:href="#aw"/><use transform="matrix(0.008680555555555554,0,0,0.008680555555555554,25.65972222222222,0)" xlink:href="#ap"/></g><g id="x"><use transform="matrix(0.008680555555555554,0,0,0.008680555555555554,0,0)" xlink:href="#aK"/><use transform="matrix(0.008680555555555554,0,0,0.008680555555555554,9.010416666666666,0)" xlink:href="#aA"/><use transform="matrix(0.008680555555555554,0,0,0.008680555555555554,18.020833333333332,0)" xlink:href="#aw"/><use transform="matrix(0.008680555555555554,0,0,0.008680555555555554,25.65972222222222,0)" xlink:href="#aq"/></g><path fill="#fff" d="M1063-193C972-66 836 14 625 14 325 14 160-160 82-392c-55-162-54-387 4-546 84-230 253-399 553-405 185-4 321 74 409 173-37 47-65 102-108 143-52 29-90-19-122-42-68-49-222-71-314-21-130 72-193 222-193 425 0 205 69 355 201 427 92 51 249 32 318-20 30-23 81-99 128-48" id="aL"/><g id="y"><use transform="matrix(0.013020833333333334,0,0,0.013020833333333334,0,0)" xlink:href="#ai"/><use transform="matrix(0.013020833333333334,0,0,0.013020833333333334,11.276041666666668,0)" xlink:href="#aj"/><use transform="matrix(0.013020833333333334,0,0,0.013020833333333334,23.958333333333336,0)" xlink:href="#ak"/><use transform="matrix(0.013020833333333334,0,0,0.013020833333333334,40.1171875,0)" xlink:href="#al"/><use transform="matrix(0.013020833333333334,0,0,0.013020833333333334,52.356770833333336,0)" xlink:href="#aJ"/><use transform="matrix(0.013020833333333334,0,0,0.013020833333333334,65.87239583333334,0)" xlink:href="#aL"/></g><path fill="#fff" d="M1198-932c62 158 61 378 0 536C1107-162 916 0 600 0H116v-1328h484c315 6 507 163 598 396zM600-209c264-9 377-187 377-456 0-268-114-446-377-455H380v911h220" id="aM"/><g id="z"><use transform="matrix(0.013020833333333334,0,0,0.013020833333333334,0,0)" xlink:href="#ai"/><use transform="matrix(0.013020833333333334,0,0,0.013020833333333334,11.276041666666668,0)" xlink:href="#aj"/><use transform="matrix(0.013020833333333334,0,0,0.013020833333333334,23.958333333333336,0)" xlink:href="#ak"/><use transform="matrix(0.013020833333333334,0,0,0.013020833333333334,40.1171875,0)" xlink:href="#al"/><use transform="matrix(0.013020833333333334,0,0,0.013020833333333334,52.356770833333336,0)" xlink:href="#aJ"/><use transform="matrix(0.013020833333333334,0,0,0.013020833333333334,65.87239583333334,0)" xlink:href="#aM"/></g><g id="A"><use transform="matrix(0.008680555555555554,0,0,0.008680555555555554,0,0)" xlink:href="#aK"/><use transform="matrix(0.008680555555555554,0,0,0.008680555555555554,9.010416666666666,0)" xlink:href="#aI"/><use transform="matrix(0.008680555555555554,0,0,0.008680555555555554,18.020833333333332,0)" xlink:href="#aw"/><use transform="matrix(0.008680555555555554,0,0,0.008680555555555554,25.65972222222222,0)" xlink:href="#ax"/></g><path fill="#4c535d" d="M89-955c40-238 181-388 449-388 250 0 409 134 409 381 0 232-139 347-258 472L407-195c126-46 310-24 475-29 49-1 86 32 85 80V0H69c-2-76 0-138 43-180 161-160 326-321 472-494 63-74 110-153 115-281 6-143-107-217-242-175-61 19-100 69-121 131-19 56-46 79-119 66" id="aN"/><g id="B"><use transform="matrix(0.008680555555555554,0,0,0.008680555555555554,0,0)" xlink:href="#aK"/><use transform="matrix(0.008680555555555554,0,0,0.008680555555555554,9.010416666666666,0)" xlink:href="#aI"/><use transform="matrix(0.008680555555555554,0,0,0.008680555555555554,18.020833333333332,0)" xlink:href="#aw"/><use transform="matrix(0.008680555555555554,0,0,0.008680555555555554,25.65972222222222,0)" xlink:href="#aN"/></g><g id="C"><use transform="matrix(0.008680555555555554,0,0,0.008680555555555554,0,0)" xlink:href="#ax"/><use transform="matrix(0.008680555555555554,0,0,0.008680555555555554,9.010416666666666,0)" xlink:href="#az"/><use transform="matrix(0.008680555555555554,0,0,0.008680555555555554,14.453124999999998,0)" xlink:href="#aK"/><use transform="matrix(0.008680555555555554,0,0,0.008680555555555554,23.463541666666664,0)" xlink:href="#ay"/></g><path fill="#979ea8" d="M24 0v-248h52V0H24" id="aO"/><path fill="#979ea8" d="M24-248c120-7 223 5 221 122C244-46 201 0 124 0H24v-248zM76-40c74 7 117-18 117-86 0-67-45-88-117-82v168" id="aP"/><path fill="#979ea8" d="M128-127c34 4 56 21 59 58 7 91-148 94-172 28-4-9-6-17-7-26l51-5c1 24 16 35 40 36 23 0 39-12 38-36-1-31-31-36-65-34v-40c32 2 59-3 59-33 0-20-13-33-34-33s-33 13-35 32l-50-3c6-44 37-68 86-68 50 0 83 20 83 66 0 35-22 52-53 58" id="aQ"/><g id="D"><use transform="matrix(0.07407407407407407,0,0,0.07407407407407407,0,0)" xlink:href="#aO"/><use transform="matrix(0.07407407407407407,0,0,0.07407407407407407,7.4074074074074066,0)" xlink:href="#aP"/><use transform="matrix(0.07407407407407407,0,0,0.07407407407407407,26.592592592592588,0)" xlink:href="#ad"/><use transform="matrix(0.07407407407407407,0,0,0.07407407407407407,42.81481481481481,0)" xlink:href="#aQ"/></g><path fill="#333" d="M155-56V0h-30v-56H8v-25l114-167h33v167h35v25h-35zm-30-156c-27 46-58 90-88 131h88v-131" id="aR"/><path fill="#333" d="M134-131c28 9 52 24 51 62-1 50-34 73-85 73S17-19 16-69c0-36 21-54 49-61-75-25-45-126 34-121 46 3 78 18 79 63 0 33-17 51-44 57zm-34-11c31 1 46-15 46-44 0-28-17-43-47-42-29 0-46 13-45 42 1 28 16 44 46 44zm1 122c35 0 51-18 51-52 0-30-18-46-53-46-33 0-51 17-51 47 0 34 19 51 53 51" id="aS"/><path fill="#333" d="M101-251c68 0 85 55 85 127S166 4 100 4C33 4 14-52 14-124c0-73 17-127 87-127zm-1 229c47 0 54-49 54-102s-4-102-53-102c-51 0-55 48-55 102 0 53 5 102 54 102" id="aT"/><g id="E"><use transform="matrix(0.06172839506172839,0,0,0.06172839506172839,0,0)" xlink:href="#aR"/><use transform="matrix(0.06172839506172839,0,0,0.06172839506172839,12.345679012345679,0)" xlink:href="#aS"/><use transform="matrix(0.06172839506172839,0,0,0.06172839506172839,24.691358024691358,0)" xlink:href="#aT"/></g><path fill="#333" d="M232-93c-1 65-40 97-104 97C67 4 28-28 28-90v-158h33c8 89-33 224 67 224 102 0 64-133 71-224h33v155" id="aU"/><path fill="#333" d="M135-143c-3-34-86-38-87 0 15 53 115 12 119 90S17 21 10-45l28-5c4 36 97 45 98 0-10-56-113-15-118-90-4-57 82-63 122-42 12 7 21 19 24 35" id="aV"/><path fill="#333" d="M100-194c63 0 86 42 84 106H49c0 40 14 67 53 68 26 1 43-12 49-29l28 8c-11 28-37 45-77 45C44 4 14-33 15-96c1-61 26-98 85-98zm52 81c6-60-76-77-97-28-3 7-6 17-6 28h103" id="aW"/><path fill="#333" d="M114-163C36-179 61-72 57 0H25l-1-190h30c1 12-1 29 2 39 6-27 23-49 58-41v29" id="aX"/><g id="F"><use transform="matrix(0.06172839506172839,0,0,0.06172839506172839,0,0)" xlink:href="#aU"/><use transform="matrix(0.06172839506172839,0,0,0.06172839506172839,15.987654320987653,0)" xlink:href="#aV"/><use transform="matrix(0.06172839506172839,0,0,0.06172839506172839,27.098765432098766,0)" xlink:href="#aW"/><use transform="matrix(0.06172839506172839,0,0,0.06172839506172839,39.44444444444444,0)" xlink:href="#aX"/><use transform="matrix(0.06172839506172839,0,0,0.06172839506172839,46.79012345679012,0)" xlink:href="#aV"/></g><path fill="#979ea8" d="M23 0v-37h61v-169l-59 37v-38l62-41h46v211h57V0H23" id="aY"/><g id="G"><use transform="matrix(0.07407407407407407,0,0,0.07407407407407407,0,0)" xlink:href="#aO"/><use transform="matrix(0.07407407407407407,0,0,0.07407407407407407,7.4074074074074066,0)" xlink:href="#aP"/><use transform="matrix(0.07407407407407407,0,0,0.07407407407407407,26.592592592592588,0)" xlink:href="#ad"/><use transform="matrix(0.07407407407407407,0,0,0.07407407407407407,42.81481481481481,0)" xlink:href="#aY"/></g><path fill="#333" d="M27 0v-27h64v-190l-56 39v-29l58-41h29v221h61V0H27" id="aZ"/><path fill="#333" d="M99-251c64 0 84 50 84 122C183-37 130 33 47-8c-14-7-20-23-25-40l30-5c6 39 69 39 84 7 9-19 16-44 16-74-10 22-31 35-62 35-49 0-73-33-73-83 0-54 28-83 82-83zm-1 141c31-1 51-18 51-49 0-36-14-67-51-67-34 0-49 23-49 58 0 34 15 58 49 58" id="ba"/><path fill="#333" d="M101-251c82-7 93 87 43 132L82-64C71-53 59-42 53-27h129V0H18c2-99 128-94 128-182 0-28-16-43-45-43s-46 15-49 41l-32-3c6-41 34-60 81-64" id="bb"/><g id="H"><use transform="matrix(0.06172839506172839,0,0,0.06172839506172839,0,0)" xlink:href="#aZ"/><use transform="matrix(0.06172839506172839,0,0,0.06172839506172839,12.345679012345679,0)" xlink:href="#ba"/><use transform="matrix(0.06172839506172839,0,0,0.06172839506172839,24.691358024691358,0)" xlink:href="#bb"/></g><path fill="#979ea8" d="M182-182c0 78-84 86-111 141h115V0H12c-6-101 99-100 120-180 1-22-12-31-33-32-23 0-32 14-35 34l-49-3c5-45 32-70 84-70 51 0 83 22 83 69" id="bc"/><g id="I"><use transform="matrix(0.07407407407407407,0,0,0.07407407407407407,0,0)" xlink:href="#aO"/><use transform="matrix(0.07407407407407407,0,0,0.07407407407407407,7.4074074074074066,0)" xlink:href="#aP"/><use transform="matrix(0.07407407407407407,0,0,0.07407407407407407,26.592592592592588,0)" xlink:href="#ad"/><use transform="matrix(0.07407407407407407,0,0,0.07407407407407407,42.81481481481481,0)" xlink:href="#bc"/></g><g id="J"><use transform="matrix(0.06172839506172839,0,0,0.06172839506172839,0,0)" xlink:href="#bb"/><use transform="matrix(0.06172839506172839,0,0,0.06172839506172839,12.345679012345679,0)" xlink:href="#aR"/><use transform="matrix(0.06172839506172839,0,0,0.06172839506172839,24.691358024691358,0)" xlink:href="#aT"/></g><g id="K"><use transform="matrix(0.008680555555555554,0,0,0.008680555555555554,0,0)" xlink:href="#ao"/><use transform="matrix(0.008680555555555554,0,0,0.008680555555555554,9.010416666666666,0)" xlink:href="#ax"/></g><g id="L"><use transform="matrix(0.013020833333333334,0,0,0.013020833333333334,0,0)" xlink:href="#ai"/><use transform="matrix(0.013020833333333334,0,0,0.013020833333333334,11.276041666666668,0)" xlink:href="#aj"/><use transform="matrix(0.013020833333333334,0,0,0.013020833333333334,23.958333333333336,0)" xlink:href="#ak"/><use transform="matrix(0.013020833333333334,0,0,0.013020833333333334,40.1171875,0)" xlink:href="#al"/><use transform="matrix(0.013020833333333334,0,0,0.013020833333333334,52.356770833333336,0)" xlink:href="#aJ"/><use transform="matrix(0.013020833333333334,0,0,0.013020833333333334,65.87239583333334,0)" xlink:href="#aj"/></g><g id="M"><use transform="matrix(0.008680555555555554,0,0,0.008680555555555554,0,0)" xlink:href="#aK"/><use transform="matrix(0.008680555555555554,0,0,0.008680555555555554,9.010416666666666,0)" xlink:href="#aI"/><use transform="matrix(0.008680555555555554,0,0,0.008680555555555554,18.020833333333332,0)" xlink:href="#aw"/><use transform="matrix(0.008680555555555554,0,0,0.008680555555555554,25.65972222222222,0)" xlink:href="#ap"/></g><g id="N"><use transform="matrix(0.008680555555555554,0,0,0.008680555555555554,0,0)" xlink:href="#aK"/><use transform="matrix(0.008680555555555554,0,0,0.008680555555555554,9.010416666666666,0)" xlink:href="#aI"/><use transform="matrix(0.008680555555555554,0,0,0.008680555555555554,18.020833333333332,0)" xlink:href="#aw"/><use transform="matrix(0.008680555555555554,0,0,0.008680555555555554,25.65972222222222,0)" xlink:href="#aq"/></g><g id="O"><use transform="matrix(0.008680555555555554,0,0,0.008680555555555554,0,0)" xlink:href="#aK"/><use transform="matrix(0.008680555555555554,0,0,0.008680555555555554,9.010416666666666,0)" xlink:href="#aA"/><use transform="matrix(0.008680555555555554,0,0,0.008680555555555554,18.020833333333332,0)" xlink:href="#aw"/><use transform="matrix(0.008680555555555554,0,0,0.008680555555555554,25.65972222222222,0)" xlink:href="#ax"/></g><use transform="matrix(0.008680555555555554,0,0,0.008680555555555554,0,0)" xlink:href="#ax" id="P"/><g id="Q"><use transform="matrix(0.008680555555555554,0,0,0.008680555555555554,0,0)" xlink:href="#aq"/><use transform="matrix(0.008680555555555554,0,0,0.008680555555555554,9.010416666666666,0)" xlink:href="#aK"/><use transform="matrix(0.008680555555555554,0,0,0.008680555555555554,18.020833333333332,0)" xlink:href="#aw"/><use transform="matrix(0.008680555555555554,0,0,0.008680555555555554,25.65972222222222,0)" xlink:href="#ax"/></g><path fill="#4c535d" d="M960-966c48 161 48 442 0 603C896-149 775 14 517 14 261 14 140-150 78-363c-47-161-48-443 0-603 63-213 183-377 439-377s380 165 443 377zM602-206c161-87 169-454 126-694-24-133-71-244-211-244-138 0-184 113-207 244-41 238-36 607 122 694 54 29 116 28 170 0" id="bd"/><g id="R"><use transform="matrix(0.008680555555555554,0,0,0.008680555555555554,0,0)" xlink:href="#ao"/><use transform="matrix(0.008680555555555554,0,0,0.008680555555555554,9.010416666666666,0)" xlink:href="#bd"/><use transform="matrix(0.008680555555555554,0,0,0.008680555555555554,18.020833333333332,0)" xlink:href="#aw"/><use transform="matrix(0.008680555555555554,0,0,0.008680555555555554,25.65972222222222,0)" xlink:href="#ax"/></g><g id="S"><use transform="matrix(0.008680555555555554,0,0,0.008680555555555554,0,0)" xlink:href="#ao"/><use transform="matrix(0.008680555555555554,0,0,0.008680555555555554,9.010416666666666,0)" xlink:href="#ax"/><use transform="matrix(0.008680555555555554,0,0,0.008680555555555554,18.020833333333332,0)" xlink:href="#aw"/><use transform="matrix(0.008680555555555554,0,0,0.008680555555555554,25.65972222222222,0)" xlink:href="#ax"/></g></defs></g></svg>