<svg xmlns="http://www.w3.org/2000/svg" xmlns:xlink="http://www.w3.org/1999/xlink" xmlns:lucid="lucid" width="1932" height="1360"><g transform="translate(4245 0)" lucid:page-tab-id="SLz3V0xONzHH"><path d="M-4480 0h6720v1360h-6720z" fill="#fff"/><path d="M-4210.65 228.85a6 6 0 0 1 6-6h1807.18a6 6 0 0 1 6 6v1112.9a6 6 0 0 1-6 6h-1807.18a6 6 0 0 1-6-6z" stroke="#dbdbdb" stroke-width="3" fill="#f2f3f5"/><path d="M-3723.6 285.6a20 20 0 0 1 20-20h857.04a20 20 0 0 1 20 20v124.76a20 20 0 0 1-20 20h-857.05a20 20 0 0 1-20-20zM-4156.58 870.74a20 20 0 0 1 20-20h432.6a20 20 0 0 1 20 20v358.45a20 20 0 0 1-20 20h-432.6a20 20 0 0 1-20-20zM-3650.27 870.74a20 20 0 0 1 20-20h432.6a20 20 0 0 1 20 20v358.45a20 20 0 0 1-20 20h-432.6a20 20 0 0 1-20-20zM-3141.95 872.22a20 20 0 0 1 20-20h670.77a20 20 0 0 1 20 20v358.44a20 20 0 0 1-20 20h-670.77a20 20 0 0 1-20-20z" stroke="#ced4db" stroke-width="3" fill="#ced4db"/><path d="M-4169.86 264.25h362.8v113.03h-362.8z" fill="none"/><use xlink:href="#a" transform="matrix(1,0,0,1,-4169.861476062463,264.24656499695874) translate(0 38.33333333333334)"/><use xlink:href="#b" transform="matrix(1,0,0,1,-4169.861476062463,264.24656499695874) translate(0 94.33333333333331)"/><use xlink:href="#c" transform="matrix(1,0,0,1,-4169.861476062463,264.24656499695874) translate(196.6481481481481 94.33333333333331)"/><g filter="url(#d)"><path d="M-4128.1 993.17a.5.5 0 0 1 .5-.5h168.65a.5.5 0 0 1 .5.5v93.42a.5.5 0 0 1-.5.5h-168.64a.5.5 0 0 1-.5-.5z" fill="#fff" fill-opacity="0"/><path d="M-4127.6 992.67a.5.5 0 0 0-.5.5v93.42a.5.5 0 0 0 .5.5h168.65a.5.5 0 0 0 .5-.5v-93.43a.5.5 0 0 0-.5-.5z" stroke="#315796" stroke-width="3" fill="#315796"/><use xlink:href="#e" transform="matrix(1,0,0,1,-4118.246990962556,1003.7204882350062) translate(33.98437499999999 43.166666666666664)"/></g><g filter="url(#d)"><path d="M-3883.85 993.17a.5.5 0 0 1 .5-.5h168.64a.5.5 0 0 1 .5.5v93.42a.5.5 0 0 1-.5.5h-168.65a.5.5 0 0 1-.5-.5z" fill="#fff" fill-opacity="0"/><path d="M-3883.35 992.67a.5.5 0 0 0-.5.5v93.42a.5.5 0 0 0 .5.5h168.64a.5.5 0 0 0 .5-.5v-93.43a.5.5 0 0 0-.5-.5z" stroke="#315796" stroke-width="3" fill="#315796"/><use xlink:href="#f" transform="matrix(1,0,0,1,-3874.0096591782262,1003.7204882350062) translate(34.58984374999999 43.166666666666664)"/></g><path d="M-3972.2 1015.88a.5.5 0 0 1 .5-.5h37a.5.5 0 0 1 .5.5v22.97a.5.5 0 0 1-.5.5h-37a.5.5 0 0 1-.5-.5z" fill="#fff" fill-opacity="0"/><path d="M-3971.7 1016.35a.5.5 0 0 0-.5.5v21.03a.5.5 0 0 0 .5.5h37a.5.5 0 0 0 .5-.5v-21.03a.5.5 0 0 0-.5-.5z" stroke="#5e5e5e" fill="#fff"/><use xlink:href="#g" transform="matrix(1,0,0,1,-3957.807194860671,1015.3825033833859) translate(-4.010416666666666 16.444444444444443)"/><path d="M-3972.2 1040.9a.5.5 0 0 1 .5-.5h37a.5.5 0 0 1 .5.5v22.98a.5.5 0 0 1-.5.5h-37a.5.5 0 0 1-.5-.5z" fill="#fff" fill-opacity="0"/><path d="M-3971.7 1041.38a.5.5 0 0 0-.5.5v21.03a.5.5 0 0 0 .5.5h37a.5.5 0 0 0 .5-.5v-21.02a.5.5 0 0 0-.5-.5z" stroke="#5e5e5e" fill="#fff"/><use xlink:href="#h" transform="matrix(1,0,0,1,-3957.807194860671,1040.413753383386) translate(-4.010416666666666 16.444444444444443)"/><path d="M-3904.2 1015.88a.5.5 0 0 1 .5-.5h37a.5.5 0 0 1 .5.5v22.97a.5.5 0 0 1-.5.5h-37a.5.5 0 0 1-.5-.5z" fill="#fff" fill-opacity="0"/><path d="M-3903.7 1016.35a.5.5 0 0 0-.5.5v21.03a.5.5 0 0 0 .5.5h37a.5.5 0 0 0 .5-.5v-21.03a.5.5 0 0 0-.5-.5z" stroke="#5e5e5e" fill="#fff"/><use xlink:href="#g" transform="matrix(1,0,0,1,-3889.807194860671,1015.3825033833859) translate(-4.010416666666666 16.444444444444443)"/><path d="M-3904.2 1040.9a.5.5 0 0 1 .5-.5h37a.5.5 0 0 1 .5.5v22.98a.5.5 0 0 1-.5.5h-37a.5.5 0 0 1-.5-.5z" fill="#fff" fill-opacity="0"/><path d="M-3903.7 1041.38a.5.5 0 0 0-.5.5v21.03a.5.5 0 0 0 .5.5h37a.5.5 0 0 0 .5-.5v-21.02a.5.5 0 0 0-.5-.5z" stroke="#5e5e5e" fill="#fff"/><use xlink:href="#h" transform="matrix(1,0,0,1,-3889.807194860671,1040.413753383386) translate(-4.010416666666666 16.444444444444443)"/><path d="M-3932.22 1027.37h26.02" stroke="#979ea8" stroke-width="3" fill="none"/><path d="M-3932.18 1028.87h-1.54v-3h1.54zM-3904.7 1028.87h-1.54v-3h1.54z" stroke="#979ea8" stroke-width=".05" fill="#979ea8"/><path d="M-3932.22 1052.4h26.02" stroke="#979ea8" stroke-width="3" fill="none"/><path d="M-3932.18 1053.9h-1.54v-3h1.54zM-3904.7 1053.9h-1.54v-3h1.54z" stroke="#979ea8" stroke-width=".05" fill="#979ea8"/><g filter="url(#i)"><path d="M-3689.15 294.44a.5.5 0 0 1 .5-.5h359a.5.5 0 0 1 .5.5v93.4a.5.5 0 0 1-.5.5h-359a.5.5 0 0 1-.5-.5z" fill="#fff" fill-opacity="0"/><path d="M-3688.65 293.94a.5.5 0 0 0-.5.5v93.4a.5.5 0 0 0 .5.5h359a.5.5 0 0 0 .5-.5v-93.4a.5.5 0 0 0-.5-.5z" stroke="#315796" stroke-width="3" fill="#315796"/><use xlink:href="#j" transform="matrix(1,0,0,1,-3668.2664631368043,304.9822976435629) translate(120.00260416666666 43.166666666666664)"/></g><g filter="url(#i)"><path d="M-3218.48 294.44a.5.5 0 0 1 .5-.5h359a.5.5 0 0 1 .5.5v93.4a.5.5 0 0 1-.5.5h-359a.5.5 0 0 1-.5-.5z" fill="#fff" fill-opacity="0"/><path d="M-3217.98 293.94a.5.5 0 0 0-.5.5v93.4a.5.5 0 0 0 .5.5h359a.5.5 0 0 0 .5-.5v-93.4a.5.5 0 0 0-.5-.5z" stroke="#315796" stroke-width="3" fill="#315796"/><use xlink:href="#k" transform="matrix(1,0,0,1,-3197.5997964701373,304.9822976435629) translate(120.00260416666666 43.166666666666664)"/></g><path d="M-4038.86 979.27l461.66-576.86" stroke="#979ea8" stroke-width="3" fill="none"/><path d="M-4037.66 980.18l-.2.26h-3.86l1.7-2.14zM-3576.05 403.38l-2.34-1.88.22-.26h3.84z" stroke="#979ea8" stroke-width=".05" fill="#979ea8"/><path d="M-3799.76 979.5l695.82-577.3" stroke="#979ea8" stroke-width="3" fill="none"/><path d="M-3798.92 980.45h-4.35l2.58-2.14zM-3103 403.38l-1.78-2.14h4.35z" stroke="#979ea8" stroke-width=".05" fill="#979ea8"/><path d="M-3350.84 312.44a.5.5 0 0 1 .5-.5h37a.5.5 0 0 1 .5.5v22.96a.5.5 0 0 1-.5.5h-37a.5.5 0 0 1-.5-.5z" fill="#fff" fill-opacity="0"/><path d="M-3350.34 312.9a.5.5 0 0 0-.5.5v21.04a.5.5 0 0 0 .5.5h37a.5.5 0 0 0 .5-.5V313.4a.5.5 0 0 0-.5-.5z" stroke="#5e5e5e" fill="#fff"/><use xlink:href="#l" transform="matrix(1,0,0,1,-3336.4332967212067,311.9354157313948) translate(-12.335069444444443 16.444444444444443)"/><path d="M-3350.84 337.47a.5.5 0 0 1 .5-.5h37a.5.5 0 0 1 .5.5v22.96a.5.5 0 0 1-.5.5h-37a.5.5 0 0 1-.5-.5z" fill="#fff" fill-opacity="0"/><path d="M-3350.34 337.94a.5.5 0 0 0-.5.5v21.03a.5.5 0 0 0 .5.5h37a.5.5 0 0 0 .5-.5v-21.03a.5.5 0 0 0-.5-.5z" stroke="#5e5e5e" fill="#fff"/><use xlink:href="#m" transform="matrix(1,0,0,1,-3336.4332967212067,336.9666657313948) translate(-12.335069444444443 16.444444444444443)"/><path d="M-3243.35 312.44a.5.5 0 0 1 .5-.5h37a.5.5 0 0 1 .5.5v22.96a.5.5 0 0 1-.5.5h-37a.5.5 0 0 1-.5-.5z" fill="#fff" fill-opacity="0"/><path d="M-3242.85 312.9a.5.5 0 0 0-.5.5v21.04a.5.5 0 0 0 .5.5h37a.5.5 0 0 0 .5-.5V313.4a.5.5 0 0 0-.5-.5z" stroke="#5e5e5e" fill="#fff"/><use xlink:href="#l" transform="matrix(1,0,0,1,-3228.945286034104,311.9354157313948) translate(-12.335069444444443 16.444444444444443)"/><path d="M-3243.35 337.47a.5.5 0 0 1 .5-.5h37a.5.5 0 0 1 .5.5v22.96a.5.5 0 0 1-.5.5h-37a.5.5 0 0 1-.5-.5z" fill="#fff" fill-opacity="0"/><path d="M-3242.85 337.94a.5.5 0 0 0-.5.5v21.03a.5.5 0 0 0 .5.5h37a.5.5 0 0 0 .5-.5v-21.03a.5.5 0 0 0-.5-.5z" stroke="#5e5e5e" fill="#fff"/><use xlink:href="#m" transform="matrix(1,0,0,1,-3228.945286034104,336.9666657313948) translate(-12.335069444444443 16.444444444444443)"/><path d="M-3310.85 323.92h65.5" stroke="#979ea8" stroke-width="3" fill="none"/><path d="M-3310.8 325.42h-1.55v-3h1.54zM-3243.84 325.42h-1.53v-3h1.54z" stroke="#979ea8" stroke-width=".05" fill="#979ea8"/><path d="M-3310.85 348.95h65.5" stroke="#979ea8" stroke-width="3" fill="none"/><path d="M-3310.8 350.45h-1.55v-3h1.54zM-3243.84 350.45h-1.53v-3h1.54z" stroke="#979ea8" stroke-width=".05" fill="#979ea8"/><path d="M-3275.57 360.3c-3.82 0-6.9-10.38-6.9-23.18 0-12.8 3.08-23.18 6.9-23.18 3.82 0 6.9 10.37 6.9 23.18 0 12.8-3.08 23.18-6.9 23.18zM-3920.46 1063.3c-3.82 0-6.9-10.37-6.9-23.17 0-12.8 3.08-23.18 6.9-23.18 3.8 0 6.9 10.38 6.9 23.18 0 12.8-3.1 23.18-6.9 23.18z" stroke="#979ea8" stroke-width="2" fill-opacity="0"/><path d="M-4109.02 1073.22a.5.5 0 0 1 .5-.5h130.5a.5.5 0 0 1 .5.5v22.97a.5.5 0 0 1-.5.5h-130.5a.5.5 0 0 1-.5-.5z" fill="#fff" fill-opacity="0"/><path d="M-4108.52 1073.7a.5.5 0 0 0-.5.5v21.02a.5.5 0 0 0 .5.5h130.5a.5.5 0 0 0 .5-.5v-21.03a.5.5 0 0 0-.5-.5z" stroke="#5e5e5e" fill="#fff"/><use xlink:href="#n" transform="matrix(1,0,0,1,-4059.1798722324716,1072.721068637792) translate(-0.2369791666666643 16.444444444444443)"/><path d="M-3864.8 1073.22a.5.5 0 0 1 .5-.5h130.53a.5.5 0 0 1 .5.5v22.97a.5.5 0 0 1-.5.5h-130.52a.5.5 0 0 1-.5-.5z" fill="#fff" fill-opacity="0"/><path d="M-3864.3 1073.7a.5.5 0 0 0-.5.5v21.02a.5.5 0 0 0 .5.5h130.53a.5.5 0 0 0 .5-.5v-21.03a.5.5 0 0 0-.5-.5z" stroke="#5e5e5e" fill="#fff"/><use xlink:href="#n" transform="matrix(1,0,0,1,-3814.942540448141,1072.721068637792) translate(-0.2369791666666643 16.444444444444443)"/><g filter="url(#o)"><path d="M-3502.93 952.6a.5.5 0 0 1 .5-.5h168.64a.5.5 0 0 1 .5.5v195.7a.5.5 0 0 1-.5.5h-168.63a.5.5 0 0 1-.5-.5z" fill="#fff" fill-opacity="0"/><path d="M-3502.43 952.1a.5.5 0 0 0-.5.5v195.7a.5.5 0 0 0 .5.5h168.64a.5.5 0 0 0 .5-.5V952.6a.5.5 0 0 0-.5-.5z" stroke="#315796" stroke-width="3" fill="#315796"/><use xlink:href="#p" transform="matrix(1,0,0,1,-3493.085491361323,975.1110913167134) translate(33.98437499999999 73.27777777777777)"/><use xlink:href="#q" transform="matrix(1,0,0,1,-3493.085491361323,975.1110913167134) translate(43.181423611111114 93.27777777777777)"/></g><path d="M-3436.2 938.4l-95.27-535.7" stroke="#979ea8" stroke-width="3" fill="none"/><path d="M-3434.42 939.87h-3.05l-.22-1.25 2.96-.53zM-3530 402.5l-2.94.5-.32-1.76h3.05z" stroke="#979ea8" stroke-width=".05" fill="#979ea8"/><path d="M-3386 938.58l325.28-536.06" stroke="#979ea8" stroke-width="3" fill="none"/><path d="M-3384.7 939.33l-.32.53h-3.5l1.26-2.1zM-3059.46 403.33l-2.56-1.56.32-.53h3.5z" stroke="#979ea8" stroke-width=".05" fill="#979ea8"/><path d="M-3483.86 1139.3a.5.5 0 0 1 .5-.5h130.5a.5.5 0 0 1 .5.5v22.98a.5.5 0 0 1-.5.5h-130.5a.5.5 0 0 1-.5-.5z" fill="#fff" fill-opacity="0"/><path d="M-3483.36 1139.78a.5.5 0 0 0-.5.5v21.03a.5.5 0 0 0 .5.5h130.5a.5.5 0 0 0 .5-.5v-21.02a.5.5 0 0 0-.5-.5z" stroke="#5e5e5e" fill="#fff"/><use xlink:href="#r" transform="matrix(1,0,0,1,-3434.0183726312375,1138.809566135977) translate(-15.788194444444436 16.444444444444443)"/><path d="M-3452.87 940.36a.5.5 0 0 1 .5-.5h37a.5.5 0 0 1 .5.5v22.96a.5.5 0 0 1-.5.5h-37a.5.5 0 0 1-.5-.5z" fill="#fff" fill-opacity="0"/><path d="M-3452.37 940.83a.5.5 0 0 0-.5.5v21.02a.5.5 0 0 0 .5.5h37a.5.5 0 0 0 .5-.5v-21.02a.5.5 0 0 0-.5-.5z" stroke="#5e5e5e" fill="#fff"/><use xlink:href="#s" transform="matrix(1,0,0,1,-3438.464955791055,939.8552900938097) translate(-7.829861111111111 16.444444444444443)"/><path d="M-3412.87 940.36a.5.5 0 0 1 .5-.5h37a.5.5 0 0 1 .5.5v22.96a.5.5 0 0 1-.5.5h-37a.5.5 0 0 1-.5-.5z" fill="#fff" fill-opacity="0"/><path d="M-3412.37 940.83a.5.5 0 0 0-.5.5v21.02a.5.5 0 0 0 .5.5h37a.5.5 0 0 0 .5-.5v-21.02a.5.5 0 0 0-.5-.5z" stroke="#5e5e5e" fill="#fff"/><use xlink:href="#t" transform="matrix(1,0,0,1,-3398.466529826459,939.8552900938097) translate(-7.829861111111111 16.444444444444443)"/><g filter="url(#d)"><path d="M-2999.5 873a.5.5 0 0 1 .5-.5h168.65a.5.5 0 0 1 .5.5v93.4a.5.5 0 0 1-.5.5H-2999a.5.5 0 0 1-.5-.5z" fill="#fff" fill-opacity="0"/><path d="M-2999 872.5a.5.5 0 0 0-.5.5v93.4a.5.5 0 0 0 .5.5h168.65a.5.5 0 0 0 .5-.5V873a.5.5 0 0 0-.5-.5z" stroke="#315796" stroke-width="3" fill="#315796"/><use xlink:href="#u" transform="matrix(1,0,0,1,-2989.6502422546864,883.5394398286849) translate(33.98437499999999 43.166666666666664)"/></g><g filter="url(#d)"><path d="M-2759.5 873a.5.5 0 0 1 .5-.5h168.65a.5.5 0 0 1 .5.5v93.4a.5.5 0 0 1-.5.5H-2759a.5.5 0 0 1-.5-.5z" fill="#fff" fill-opacity="0"/><path d="M-2759 872.5a.5.5 0 0 0-.5.5v93.4a.5.5 0 0 0 .5.5h168.65a.5.5 0 0 0 .5-.5V873a.5.5 0 0 0-.5-.5z" stroke="#315796" stroke-width="3" fill="#315796"/><use xlink:href="#v" transform="matrix(1,0,0,1,-2749.6502422546864,883.5394398286849) translate(34.58984374999999 43.166666666666664)"/></g><path d="M-2847.5 895.7a.5.5 0 0 1 .5-.5h37a.5.5 0 0 1 .5.5v22.97a.5.5 0 0 1-.5.5h-37a.5.5 0 0 1-.5-.5z" fill="#fff" fill-opacity="0"/><path d="M-2847 896.17a.5.5 0 0 0-.5.5v21.03a.5.5 0 0 0 .5.5h37a.5.5 0 0 0 .5-.5v-21.03a.5.5 0 0 0-.5-.5z" stroke="#5e5e5e" fill="#fff"/><use xlink:href="#w" transform="matrix(1,0,0,1,-2833.0878730357717,895.2014549770643) translate(-12.335069444444443 16.444444444444443)"/><path d="M-2847.5 920.73a.5.5 0 0 1 .5-.5h37a.5.5 0 0 1 .5.5v22.97a.5.5 0 0 1-.5.5h-37a.5.5 0 0 1-.5-.5z" fill="#fff" fill-opacity="0"/><path d="M-2847 921.2a.5.5 0 0 0-.5.5v21.03a.5.5 0 0 0 .5.5h37a.5.5 0 0 0 .5-.5V921.7a.5.5 0 0 0-.5-.5z" stroke="#5e5e5e" fill="#fff"/><use xlink:href="#x" transform="matrix(1,0,0,1,-2833.0878730357717,920.2327049770641) translate(-12.335069444444443 16.444444444444443)"/><path d="M-2779.5 895.7a.5.5 0 0 1 .5-.5h37a.5.5 0 0 1 .5.5v22.97a.5.5 0 0 1-.5.5h-37a.5.5 0 0 1-.5-.5z" fill="#fff" fill-opacity="0"/><path d="M-2779 896.17a.5.5 0 0 0-.5.5v21.03a.5.5 0 0 0 .5.5h37a.5.5 0 0 0 .5-.5v-21.03a.5.5 0 0 0-.5-.5z" stroke="#5e5e5e" fill="#fff"/><use xlink:href="#w" transform="matrix(1,0,0,1,-2765.0878730357717,895.2014549770643) translate(-12.335069444444443 16.444444444444443)"/><path d="M-2779.5 920.73a.5.5 0 0 1 .5-.5h37a.5.5 0 0 1 .5.5v22.97a.5.5 0 0 1-.5.5h-37a.5.5 0 0 1-.5-.5z" fill="#fff" fill-opacity="0"/><path d="M-2779 921.2a.5.5 0 0 0-.5.5v21.03a.5.5 0 0 0 .5.5h37a.5.5 0 0 0 .5-.5V921.7a.5.5 0 0 0-.5-.5z" stroke="#5e5e5e" fill="#fff"/><use xlink:href="#x" transform="matrix(1,0,0,1,-2765.0878730357717,920.2327049770641) translate(-12.335069444444443 16.444444444444443)"/><path d="M-2807.5 907.2h26.02" stroke="#979ea8" stroke-width="3" fill="none"/><path d="M-2807.47 908.7h-1.54v-3h1.53zM-2779.98 908.7h-1.54v-3h1.55z" stroke="#979ea8" stroke-width=".05" fill="#979ea8"/><path d="M-2807.5 932.22h26.02" stroke="#979ea8" stroke-width="3" fill="none"/><path d="M-2807.47 933.72h-1.54v-3h1.53zM-2779.98 933.72h-1.54v-3h1.55z" stroke="#979ea8" stroke-width=".05" fill="#979ea8"/><path d="M-2949.1 859.3L-3486 402.2" stroke="#979ea8" stroke-width="3" fill="none"/><path d="M-2945.64 860.27h-4.34l1.83-2.14zM-3486.95 403.38l-2.5-2.14h4.32z" stroke="#979ea8" stroke-width=".05" fill="#979ea8"/><path d="M-2663.45 859.03l-309.06-456.55" stroke="#979ea8" stroke-width="3" fill="none"/><path d="M-2660.8 860.27h-3.62l-.3-.43 2.5-1.7zM-2971.25 401.67l-2.48 1.68-1.43-2.1h3.62z" stroke="#979ea8" stroke-width=".05" fill="#979ea8"/><path d="M-2794.84 942.13c-3.82 0-6.9-10.38-6.9-23.18 0-12.8 3.08-23.18 6.9-23.18 3.8 0 6.9 10.38 6.9 23.18 0 12.8-3.1 23.18-6.9 23.18z" stroke="#979ea8" stroke-width="2" fill-opacity="0"/><g filter="url(#d)"><path d="M-3119.5 1127.3a.5.5 0 0 1 .5-.5h168.65a.5.5 0 0 1 .5.5v93.4a.5.5 0 0 1-.5.5H-3119a.5.5 0 0 1-.5-.5z" fill="#fff" fill-opacity="0"/><path d="M-3119 1126.8a.5.5 0 0 0-.5.5v93.4a.5.5 0 0 0 .5.5h168.65a.5.5 0 0 0 .5-.5v-93.4a.5.5 0 0 0-.5-.5z" stroke="#315796" stroke-width="3" fill="#315796"/><use xlink:href="#y" transform="matrix(1,0,0,1,-3109.6502422546864,1137.8364486722633) translate(35.006510416666664 43.166666666666664)"/></g><g filter="url(#d)"><path d="M-2879.5 1127.3a.5.5 0 0 1 .5-.5h168.65a.5.5 0 0 1 .5.5v93.4a.5.5 0 0 1-.5.5H-2879a.5.5 0 0 1-.5-.5z" fill="#fff" fill-opacity="0"/><path d="M-2879 1126.8a.5.5 0 0 0-.5.5v93.4a.5.5 0 0 0 .5.5h168.65a.5.5 0 0 0 .5-.5v-93.4a.5.5 0 0 0-.5-.5z" stroke="#315796" stroke-width="3" fill="#315796"/><use xlink:href="#z" transform="matrix(1,0,0,1,-2869.6502422546864,1137.8364486722633) translate(33.65885416666666 43.166666666666664)"/></g><path d="M-3044.04 1113.37l101-130.68" stroke="#979ea8" stroke-width="3" fill="none"/><path d="M-3042.83 1114.26l-.23.3h-3.8l1.66-2.14zM-2941.88 983.64l-2.37-1.84.23-.3h3.8z" stroke="#979ea8" stroke-width=".05" fill="#979ea8"/><path d="M-2994.26 1116.42l298.82-134.3" stroke="#979ea8" stroke-width="3" fill="none"/><path d="M-2993.6 1117.77l-2.03.9v-2.7l-.04-.26-.13-.24.96-.42zM-2690.72 981.64l-4.14 1.86-.9-2h4.98z" stroke="#979ea8" stroke-width=".05" fill="#979ea8"/><path d="M-2821.3 1113.22l-64.96-130.38" stroke="#979ea8" stroke-width="3" fill="none"/><path d="M-2818.96 1114.56h-3.35l-.36-.7 2.68-1.34zM-2884.9 982.2l-2.68 1.34-1.02-2.05h3.35z" stroke="#979ea8" stroke-width=".05" fill="#979ea8"/><path d="M-2764.43 1113.4l107.68-130.74" stroke="#979ea8" stroke-width="3" fill="none"/><path d="M-2763.24 1114.32l-.2.23h-3.88l1.76-2.14zM-2655.6 983.64l-2.33-1.9.2-.24h3.88z" stroke="#979ea8" stroke-width=".05" fill="#979ea8"/><path d="M-2953.2 860.75a.5.5 0 0 1 .5-.5h37a.5.5 0 0 1 .5.5v22.97a.5.5 0 0 1-.5.5h-37a.5.5 0 0 1-.5-.5z" fill="#fff" fill-opacity="0"/><path d="M-2952.7 861.22a.5.5 0 0 0-.5.5v21.03a.5.5 0 0 0 .5.5h37a.5.5 0 0 0 .5-.5v-21.03a.5.5 0 0 0-.5-.5z" stroke="#5e5e5e" fill="#fff"/><use xlink:href="#A" transform="matrix(1,0,0,1,-2938.809595672968,860.2524108559693) translate(-12.335069444444443 16.444444444444443)"/><path d="M-2914.13 860.75a.5.5 0 0 1 .5-.5h37a.5.5 0 0 1 .5.5v22.97a.5.5 0 0 1-.5.5h-37a.5.5 0 0 1-.5-.5z" fill="#fff" fill-opacity="0"/><path d="M-2913.63 861.22a.5.5 0 0 0-.5.5v21.03a.5.5 0 0 0 .5.5h37a.5.5 0 0 0 .5-.5v-21.03a.5.5 0 0 0-.5-.5z" stroke="#5e5e5e" fill="#fff"/><use xlink:href="#B" transform="matrix(1,0,0,1,-2899.7260552999346,860.2524108559693) translate(-12.335069444444443 16.444444444444443)"/><path d="M-3073.2 1115.05a.5.5 0 0 1 .5-.5h37a.5.5 0 0 1 .5.5v22.97a.5.5 0 0 1-.5.5h-37a.5.5 0 0 1-.5-.5z" fill="#fff" fill-opacity="0"/><path d="M-3072.7 1115.52a.5.5 0 0 0-.5.5v21.03a.5.5 0 0 0 .5.5h37a.5.5 0 0 0 .5-.5v-21.03a.5.5 0 0 0-.5-.5z" stroke="#5e5e5e" fill="#fff"/><use xlink:href="#A" transform="matrix(1,0,0,1,-3058.809595672968,1114.5494196995487) translate(-12.335069444444443 16.444444444444443)"/><path d="M-3034.13 1115.05a.5.5 0 0 1 .5-.5h37a.5.5 0 0 1 .5.5v22.97a.5.5 0 0 1-.5.5h-37a.5.5 0 0 1-.5-.5z" fill="#fff" fill-opacity="0"/><path d="M-3033.63 1115.52a.5.5 0 0 0-.5.5v21.03a.5.5 0 0 0 .5.5h37a.5.5 0 0 0 .5-.5v-21.03a.5.5 0 0 0-.5-.5z" stroke="#5e5e5e" fill="#fff"/><use xlink:href="#B" transform="matrix(1,0,0,1,-3019.7260552999346,1114.5494196995487) translate(-12.335069444444443 16.444444444444443)"/><path d="M-2713.67 860.75a.5.5 0 0 1 .5-.5h37a.5.5 0 0 1 .5.5v22.97a.5.5 0 0 1-.5.5h-37a.5.5 0 0 1-.5-.5z" fill="#fff" fill-opacity="0"/><path d="M-2713.17 861.22a.5.5 0 0 0-.5.5v21.03a.5.5 0 0 0 .5.5h37a.5.5 0 0 0 .5-.5v-21.03a.5.5 0 0 0-.5-.5z" stroke="#5e5e5e" fill="#fff"/><use xlink:href="#A" transform="matrix(1,0,0,1,-2699.26703846875,860.2524108559693) translate(-12.335069444444443 16.444444444444443)"/><path d="M-2673.67 860.75a.5.5 0 0 1 .5-.5h37a.5.5 0 0 1 .5.5v22.97a.5.5 0 0 1-.5.5h-37a.5.5 0 0 1-.5-.5z" fill="#fff" fill-opacity="0"/><path d="M-2673.17 861.22a.5.5 0 0 0-.5.5v21.03a.5.5 0 0 0 .5.5h37a.5.5 0 0 0 .5-.5v-21.03a.5.5 0 0 0-.5-.5z" stroke="#5e5e5e" fill="#fff"/><use xlink:href="#B" transform="matrix(1,0,0,1,-2659.2686125041537,860.2524108559693) translate(-12.335069444444443 16.444444444444443)"/><path d="M-3100.43 1207.34a.5.5 0 0 1 .5-.5H-2968a.5.5 0 0 1 .5.5v22.97a.5.5 0 0 1-.5.5h-131.93a.5.5 0 0 1-.5-.5z" fill="#fff" fill-opacity="0"/><path d="M-3099.93 1207.8a.5.5 0 0 0-.5.5v21.04a.5.5 0 0 0 .5.5H-2968a.5.5 0 0 0 .5-.5v-21.03a.5.5 0 0 0-.5-.5z" stroke="#5e5e5e" fill="#fff"/><use xlink:href="#C" transform="matrix(1,0,0,1,-3050.0433909221542,1206.8370290750493) translate(0.2630208333333357 16.444444444444443)"/><path d="M-2861.5 1207.34a.5.5 0 0 1 .5-.5h131.6a.5.5 0 0 1 .5.5v22.97a.5.5 0 0 1-.5.5H-2861a.5.5 0 0 1-.5-.5z" fill="#fff" fill-opacity="0"/><path d="M-2861 1207.8a.5.5 0 0 0-.5.5v21.04a.5.5 0 0 0 .5.5h131.6a.5.5 0 0 0 .5-.5v-21.03a.5.5 0 0 0-.5-.5z" stroke="#5e5e5e" fill="#fff"/><use xlink:href="#C" transform="matrix(1,0,0,1,-2811.243986554786,1206.8370290750493) translate(0.2630208333333357 16.444444444444443)"/><path d="M-2906.57 1263.57h240v60h-240z" fill="none"/><use xlink:href="#D" transform="matrix(1,0,0,1,-2906.5672237161425,1263.5701511901123) translate(91.18518518518519 21.999999999999996)"/><use xlink:href="#E" transform="matrix(1,0,0,1,-2906.5672237161425,1263.5701511901123) translate(69.44444444444444 50.44444444444444)"/><use xlink:href="#F" transform="matrix(1,0,0,1,-2906.5672237161425,1263.5701511901123) translate(112.65432098765433 50.44444444444444)"/><path d="M-4040.28 1263.57h240v60h-240z" fill="none"/><use xlink:href="#G" transform="matrix(1,0,0,1,-4040.278127107034,1263.5701511901123) translate(91.18518518518519 21.999999999999996)"/><use xlink:href="#H" transform="matrix(1,0,0,1,-4040.278127107034,1263.5701511901123) translate(75.61728395061729 50.44444444444444)"/><use xlink:href="#I" transform="matrix(1,0,0,1,-4040.278127107034,1263.5701511901123) translate(106.4814814814815 50.44444444444444)"/><path d="M-3533.97 1263.57h240v60h-240z" fill="none"/><use xlink:href="#J" transform="matrix(1,0,0,1,-3533.969351774798,1263.5701511901123) translate(91.18518518518519 21.999999999999996)"/><use xlink:href="#K" transform="matrix(1,0,0,1,-3533.969351774798,1263.5701511901123) translate(69.44444444444444 50.44444444444444)"/><use xlink:href="#F" transform="matrix(1,0,0,1,-3533.969351774798,1263.5701511901123) translate(112.65432098765433 50.44444444444444)"/><path d="M-4062.27 980.93a.5.5 0 0 1 .5-.5h37a.5.5 0 0 1 .5.5v22.97a.5.5 0 0 1-.5.5h-37a.5.5 0 0 1-.5-.5z" fill="#fff" fill-opacity="0"/><path d="M-4061.77 981.4a.5.5 0 0 0-.5.5v21.03a.5.5 0 0 0 .5.5h37a.5.5 0 0 0 .5-.5V981.9a.5.5 0 0 0-.5-.5z" stroke="#5e5e5e" fill="#fff"/><use xlink:href="#L" transform="matrix(1,0,0,1,-4047.8645741943214,980.4334592622913) translate(-4.010416666666666 16.444444444444443)"/><path d="M-3818.03 980.93a.5.5 0 0 1 .5-.5h37a.5.5 0 0 1 .5.5v22.97a.5.5 0 0 1-.5.5h-37a.5.5 0 0 1-.5-.5z" fill="#fff" fill-opacity="0"/><path d="M-3817.53 981.4a.5.5 0 0 0-.5.5v21.03a.5.5 0 0 0 .5.5h37a.5.5 0 0 0 .5-.5V981.9a.5.5 0 0 0-.5-.5z" stroke="#5e5e5e" fill="#fff"/><use xlink:href="#L" transform="matrix(1,0,0,1,-3803.627242409991,980.4334592622913) translate(-4.010416666666666 16.444444444444443)"/><path d="M-2905.83 1080.8c0 6.6-28.26 11.98-63.12 11.98-34.87 0-63.13-5.37-63.13-11.98 0-6.62 28.26-12 63.13-12 34.86 0 63.12 5.38 63.12 12zM-3541 776.55c0 6.67-78.08 12.1-174.42 12.1-96.33 0-174.43-5.43-174.43-12.1 0-6.68 78.1-12.1 174.43-12.1 96.34 0 174.43 5.42 174.43 12.1zM-2703.85 776.55c0 6.67-81.22 12.1-181.42 12.1-100.2 0-181.4-5.43-181.4-12.1 0-6.68 81.2-12.1 181.4-12.1s181.42 5.42 181.42 12.1zM-3274.68 776.55c0 6.67-45.43 12.1-101.48 12.1-56.05 0-101.5-5.43-101.5-12.1 0-6.68 45.45-12.1 101.5-12.1s101.48 5.42 101.48 12.1z" stroke="#979ea8" stroke-width="2" fill-opacity="0"/><g filter="url(#d)"><path d="M-2639.5 1127.3a.5.5 0 0 1 .5-.5h168.65a.5.5 0 0 1 .5.5v93.4a.5.5 0 0 1-.5.5H-2639a.5.5 0 0 1-.5-.5z" fill="#fff" fill-opacity="0"/><path d="M-2639 1126.8a.5.5 0 0 0-.5.5v93.4a.5.5 0 0 0 .5.5h168.65a.5.5 0 0 0 .5-.5v-93.4a.5.5 0 0 0-.5-.5z" stroke="#315796" stroke-width="3" fill="#315796"/><use xlink:href="#M" transform="matrix(1,0,0,1,-2629.6502422546864,1137.8364486722633) translate(35.55989583333333 43.166666666666664)"/></g><path d="M-2595.4 1114.9l-257.9-132.72" stroke="#979ea8" stroke-width="3" fill="none"/><path d="M-2592.76 1114.57h-.56l-.14.08-.1.1-.08.14-.03.15v.1l-.1.05-.2.23-.17.3v1.5l-1.98-1 1.37-2.68zM-2853.96 983.53l-3.95-2.03h5z" stroke="#979ea8" stroke-width=".05" fill="#979ea8"/><path d="M-2541.35 1113.25l-71.5-130.44" stroke="#979ea8" stroke-width="3" fill="none"/><path d="M-2538.92 1114.56h-3.42l-.35-.62 2.64-1.44zM-2611.5 982.13l-2.64 1.44-1.14-2.07h3.42z" stroke="#979ea8" stroke-width=".05" fill="#979ea8"/><path d="M-2593.67 1115.05a.5.5 0 0 1 .5-.5h37a.5.5 0 0 1 .5.5v22.97a.5.5 0 0 1-.5.5h-37a.5.5 0 0 1-.5-.5z" fill="#fff" fill-opacity="0"/><path d="M-2593.17 1115.52a.5.5 0 0 0-.5.5v21.03a.5.5 0 0 0 .5.5h37a.5.5 0 0 0 .5-.5v-21.03a.5.5 0 0 0-.5-.5z" stroke="#5e5e5e" fill="#fff"/><use xlink:href="#A" transform="matrix(1,0,0,1,-2579.267038468751,1114.5494196995487) translate(-12.335069444444443 16.444444444444443)"/><path d="M-2553.67 1115.05a.5.5 0 0 1 .5-.5h37a.5.5 0 0 1 .5.5v22.97a.5.5 0 0 1-.5.5h-37a.5.5 0 0 1-.5-.5z" fill="#fff" fill-opacity="0"/><path d="M-2553.17 1115.52a.5.5 0 0 0-.5.5v21.03a.5.5 0 0 0 .5.5h37a.5.5 0 0 0 .5-.5v-21.03a.5.5 0 0 0-.5-.5z" stroke="#5e5e5e" fill="#fff"/><use xlink:href="#B" transform="matrix(1,0,0,1,-2539.2686125041546,1114.5494196995487) translate(-12.335069444444443 16.444444444444443)"/><path d="M-2833.67 1115.05a.5.5 0 0 1 .5-.5h37a.5.5 0 0 1 .5.5v22.97a.5.5 0 0 1-.5.5h-37a.5.5 0 0 1-.5-.5z" fill="#fff" fill-opacity="0"/><path d="M-2833.17 1115.52a.5.5 0 0 0-.5.5v21.03a.5.5 0 0 0 .5.5h37a.5.5 0 0 0 .5-.5v-21.03a.5.5 0 0 0-.5-.5z" stroke="#5e5e5e" fill="#fff"/><use xlink:href="#A" transform="matrix(1,0,0,1,-2819.2670384687503,1114.5494196995487) translate(-12.335069444444443 16.444444444444443)"/><path d="M-2793.67 1115.05a.5.5 0 0 1 .5-.5h37a.5.5 0 0 1 .5.5v22.97a.5.5 0 0 1-.5.5h-37a.5.5 0 0 1-.5-.5z" fill="#fff" fill-opacity="0"/><path d="M-2793.17 1115.52a.5.5 0 0 0-.5.5v21.03a.5.5 0 0 0 .5.5h37a.5.5 0 0 0 .5-.5v-21.03a.5.5 0 0 0-.5-.5z" stroke="#5e5e5e" fill="#fff"/><use xlink:href="#B" transform="matrix(1,0,0,1,-2779.268612504154,1114.5494196995487) translate(-12.335069444444443 16.444444444444443)"/><path d="M-2621.5 1207.34a.5.5 0 0 1 .5-.5h131.6a.5.5 0 0 1 .5.5v22.97a.5.5 0 0 1-.5.5H-2621a.5.5 0 0 1-.5-.5z" fill="#fff" fill-opacity="0"/><path d="M-2621 1207.8a.5.5 0 0 0-.5.5v21.04a.5.5 0 0 0 .5.5h131.6a.5.5 0 0 0 .5-.5v-21.03a.5.5 0 0 0-.5-.5z" stroke="#5e5e5e" fill="#fff"/><use xlink:href="#C" transform="matrix(1,0,0,1,-2571.243986554786,1206.8370290750493) translate(0.2630208333333357 16.444444444444443)"/><path d="M-2995.48 958.04a.5.5 0 0 1 .5-.5h40.26a.5.5 0 0 1 .5.5V981a.5.5 0 0 1-.5.5H-2995a.5.5 0 0 1-.5-.5z" fill="#fff" fill-opacity="0"/><path d="M-2994.98 958.5a.5.5 0 0 0-.5.5v21.04a.5.5 0 0 0 .5.5h40.26a.5.5 0 0 0 .5-.5V959a.5.5 0 0 0-.5-.5z" stroke="#5e5e5e" fill="#fff"/><use xlink:href="#C" transform="matrix(1,0,0,1,-2979.841479341809,957.5400202314703) translate(-11.236979166666664 16.444444444444443)"/><path d="M-2951.86 958.04a.5.5 0 0 1 .5-.5h37a.5.5 0 0 1 .5.5V981a.5.5 0 0 1-.5.5h-37a.5.5 0 0 1-.5-.5z" fill="#fff" fill-opacity="0"/><path d="M-2951.36 958.5a.5.5 0 0 0-.5.5v21.04a.5.5 0 0 0 .5.5h37a.5.5 0 0 0 .5-.5V959a.5.5 0 0 0-.5-.5z" stroke="#5e5e5e" fill="#fff"/><use xlink:href="#N" transform="matrix(1,0,0,1,-2937.4631123611352,957.5400202314703) translate(-12.335069444444443 16.444444444444443)"/><path d="M-2911.9 958.04a.5.5 0 0 1 .5-.5h37a.5.5 0 0 1 .5.5V981a.5.5 0 0 1-.5.5h-37a.5.5 0 0 1-.5-.5z" fill="#fff" fill-opacity="0"/><path d="M-2911.4 958.5a.5.5 0 0 0-.5.5v21.04a.5.5 0 0 0 .5.5h37a.5.5 0 0 0 .5-.5V959a.5.5 0 0 0-.5-.5z" stroke="#5e5e5e" fill="#fff"/><use xlink:href="#O" transform="matrix(1,0,0,1,-2897.4890591029352,957.5400202314703) translate(-12.335069444444443 16.444444444444443)"/><path d="M-2871.86 958.04a.5.5 0 0 1 .5-.5h37a.5.5 0 0 1 .5.5V981a.5.5 0 0 1-.5.5h-37a.5.5 0 0 1-.5-.5z" fill="#fff" fill-opacity="0"/><path d="M-2871.36 958.5a.5.5 0 0 0-.5.5v21.04a.5.5 0 0 0 .5.5h37a.5.5 0 0 0 .5-.5V959a.5.5 0 0 0-.5-.5z" stroke="#5e5e5e" fill="#fff"/><use xlink:href="#P" transform="matrix(1,0,0,1,-2857.4615383257315,957.5400202314703) translate(-12.335069444444443 16.444444444444443)"/><path d="M-2755.48 958.04a.5.5 0 0 1 .5-.5h40.26a.5.5 0 0 1 .5.5V981a.5.5 0 0 1-.5.5H-2755a.5.5 0 0 1-.5-.5z" fill="#fff" fill-opacity="0"/><path d="M-2754.98 958.5a.5.5 0 0 0-.5.5v21.04a.5.5 0 0 0 .5.5h40.26a.5.5 0 0 0 .5-.5V959a.5.5 0 0 0-.5-.5z" stroke="#5e5e5e" fill="#fff"/><use xlink:href="#C" transform="matrix(1,0,0,1,-2739.84147934181,957.5400202314703) translate(-11.236979166666664 16.444444444444443)"/><path d="M-2711.86 958.04a.5.5 0 0 1 .5-.5h37a.5.5 0 0 1 .5.5V981a.5.5 0 0 1-.5.5h-37a.5.5 0 0 1-.5-.5z" fill="#fff" fill-opacity="0"/><path d="M-2711.36 958.5a.5.5 0 0 0-.5.5v21.04a.5.5 0 0 0 .5.5h37a.5.5 0 0 0 .5-.5V959a.5.5 0 0 0-.5-.5z" stroke="#5e5e5e" fill="#fff"/><use xlink:href="#N" transform="matrix(1,0,0,1,-2697.463112361136,957.5400202314703) translate(-12.335069444444443 16.444444444444443)"/><path d="M-2671.9 958.04a.5.5 0 0 1 .5-.5h37a.5.5 0 0 1 .5.5V981a.5.5 0 0 1-.5.5h-37a.5.5 0 0 1-.5-.5z" fill="#fff" fill-opacity="0"/><path d="M-2671.4 958.5a.5.5 0 0 0-.5.5v21.04a.5.5 0 0 0 .5.5h37a.5.5 0 0 0 .5-.5V959a.5.5 0 0 0-.5-.5z" stroke="#5e5e5e" fill="#fff"/><use xlink:href="#O" transform="matrix(1,0,0,1,-2657.4890591029357,957.5400202314703) translate(-12.335069444444443 16.444444444444443)"/><path d="M-2631.86 958.04a.5.5 0 0 1 .5-.5h37a.5.5 0 0 1 .5.5V981a.5.5 0 0 1-.5.5h-37a.5.5 0 0 1-.5-.5z" fill="#fff" fill-opacity="0"/><path d="M-2631.36 958.5a.5.5 0 0 0-.5.5v21.04a.5.5 0 0 0 .5.5h37a.5.5 0 0 0 .5-.5V959a.5.5 0 0 0-.5-.5z" stroke="#5e5e5e" fill="#fff"/><use xlink:href="#P" transform="matrix(1,0,0,1,-2617.4615383257324,957.5400202314703) translate(-12.335069444444443 16.444444444444443)"/><path d="M-2725.83 1080.8c0 6.6-28.26 11.98-63.12 11.98-34.87 0-63.13-5.37-63.13-11.98 0-6.62 28.26-12 63.13-12 34.86 0 63.12 5.38 63.12 12zM-2545.83 1080.8c0 6.6-28.26 11.98-63.12 11.98-34.87 0-63.13-5.37-63.13-11.98 0-6.62 28.26-12 63.13-12 34.86 0 63.12 5.38 63.12 12z" stroke="#979ea8" stroke-width="2" fill-opacity="0"/><path d="M-2898.55 858.8l-116.38-456.1" stroke="#979ea8" stroke-width="3" fill="none"/><path d="M-2896.64 860.27h-3.1l-.28-1.12 2.9-.75zM-3013.47 402.36l-2.9.74-.48-1.86h3.1z" stroke="#979ea8" stroke-width=".05" fill="#979ea8"/><path d="M-2699.93 859.48l-743.82-457.46" stroke="#979ea8" stroke-width="3" fill="none"/><path d="M-2695.8 860.26h-4.66l1.28-2.08zM-3444.5 403.32l-3.4-2.08h4.68z" stroke="#979ea8" stroke-width=".05" fill="#979ea8"/><path d="M-3591.4 377.78a.5.5 0 0 1 .5-.5h37a.5.5 0 0 1 .5.5v22.97a.5.5 0 0 1-.5.5h-37a.5.5 0 0 1-.5-.5z" fill="#fff" fill-opacity="0"/><path d="M-3590.9 378.25a.5.5 0 0 0-.5.5v21.03a.5.5 0 0 0 .5.5h37a.5.5 0 0 0 .5-.5v-21.03a.5.5 0 0 0-.5-.5z" stroke="#5e5e5e" fill="#fff"/><use xlink:href="#Q" transform="matrix(1,0,0,1,-3577.0089839190123,377.28085347748953) translate(0.49479166666666696 16.444444444444443)"/><path d="M-3550.4 377.78a.5.5 0 0 1 .5-.5h37a.5.5 0 0 1 .5.5v22.97a.5.5 0 0 1-.5.5h-37a.5.5 0 0 1-.5-.5z" fill="#fff" fill-opacity="0"/><path d="M-3549.9 378.25a.5.5 0 0 0-.5.5v21.03a.5.5 0 0 0 .5.5h37a.5.5 0 0 0 .5-.5v-21.03a.5.5 0 0 0-.5-.5z" stroke="#5e5e5e" fill="#fff"/><use xlink:href="#R" transform="matrix(1,0,0,1,-3536.0089839190123,377.28085347748953) translate(-12.335069444444443 16.444444444444443)"/><path d="M-3508.02 377.78a.5.5 0 0 1 .5-.5h37a.5.5 0 0 1 .5.5v22.97a.5.5 0 0 1-.5.5h-37a.5.5 0 0 1-.5-.5z" fill="#fff" fill-opacity="0"/><path d="M-3507.52 378.25a.5.5 0 0 0-.5.5v21.03a.5.5 0 0 0 .5.5h37a.5.5 0 0 0 .5-.5v-21.03a.5.5 0 0 0-.5-.5z" stroke="#5e5e5e" fill="#fff"/><use xlink:href="#S" transform="matrix(1,0,0,1,-3493.6184171592713,377.28085347748953) translate(-12.335069444444443 16.444444444444443)"/><path d="M-3464.88 377.78a.5.5 0 0 1 .5-.5h37a.5.5 0 0 1 .5.5v22.97a.5.5 0 0 1-.5.5h-37a.5.5 0 0 1-.5-.5z" fill="#fff" fill-opacity="0"/><path d="M-3464.38 378.25a.5.5 0 0 0-.5.5v21.03a.5.5 0 0 0 .5.5h37a.5.5 0 0 0 .5-.5v-21.03a.5.5 0 0 0-.5-.5z" stroke="#5e5e5e" fill="#fff"/><use xlink:href="#T" transform="matrix(1,0,0,1,-3450.479561438028,377.28085347748953) translate(-12.335069444444443 16.444444444444443)"/><path d="M-3120.74 377.78a.5.5 0 0 1 .5-.5h37a.5.5 0 0 1 .5.5v22.97a.5.5 0 0 1-.5.5h-37a.5.5 0 0 1-.5-.5z" fill="#fff" fill-opacity="0"/><path d="M-3120.24 378.25a.5.5 0 0 0-.5.5v21.03a.5.5 0 0 0 .5.5h37a.5.5 0 0 0 .5-.5v-21.03a.5.5 0 0 0-.5-.5z" stroke="#5e5e5e" fill="#fff"/><use xlink:href="#Q" transform="matrix(1,0,0,1,-3106.3423172523453,377.28085347748953) translate(0.49479166666666696 16.444444444444443)"/><path d="M-3079.74 377.78a.5.5 0 0 1 .5-.5h37a.5.5 0 0 1 .5.5v22.97a.5.5 0 0 1-.5.5h-37a.5.5 0 0 1-.5-.5z" fill="#fff" fill-opacity="0"/><path d="M-3079.24 378.25a.5.5 0 0 0-.5.5v21.03a.5.5 0 0 0 .5.5h37a.5.5 0 0 0 .5-.5v-21.03a.5.5 0 0 0-.5-.5z" stroke="#5e5e5e" fill="#fff"/><use xlink:href="#R" transform="matrix(1,0,0,1,-3065.3423172523453,377.28085347748953) translate(-12.335069444444443 16.444444444444443)"/><path d="M-3037.35 377.78a.5.5 0 0 1 .5-.5h37a.5.5 0 0 1 .5.5v22.97a.5.5 0 0 1-.5.5h-37a.5.5 0 0 1-.5-.5z" fill="#fff" fill-opacity="0"/><path d="M-3036.85 378.25a.5.5 0 0 0-.5.5v21.03a.5.5 0 0 0 .5.5h37a.5.5 0 0 0 .5-.5v-21.03a.5.5 0 0 0-.5-.5z" stroke="#5e5e5e" fill="#fff"/><use xlink:href="#S" transform="matrix(1,0,0,1,-3022.951750492604,377.28085347748953) translate(-12.335069444444443 16.444444444444443)"/><path d="M-2994.2 377.78a.5.5 0 0 1 .5-.5h36.98a.5.5 0 0 1 .5.5v22.97a.5.5 0 0 1-.5.5h-37a.5.5 0 0 1-.5-.5z" fill="#fff" fill-opacity="0"/><path d="M-2993.7 378.25a.5.5 0 0 0-.5.5v21.03a.5.5 0 0 0 .5.5h36.98a.5.5 0 0 0 .5-.5v-21.03a.5.5 0 0 0-.5-.5z" stroke="#5e5e5e" fill="#fff"/><use xlink:href="#T" transform="matrix(1,0,0,1,-2979.812894771361,377.28085347748953) translate(-12.335069444444443 16.444444444444443)"/><path d="M-2793.67 321.02h104.82v60h-104.82z" fill="none"/><use xlink:href="#U" transform="matrix(1,0,0,1,-2793.6700159447364,321.01973578363794) translate(0 35.33333333333333)"/><path d="M-3528.15 281.03a.5.5 0 0 1 .5-.5h37a.5.5 0 0 1 .5.5V304a.5.5 0 0 1-.5.5h-37a.5.5 0 0 1-.5-.5z" fill="#fff" fill-opacity="0"/><path d="M-3527.65 281.5a.5.5 0 0 0-.5.5v21.03a.5.5 0 0 0 .5.5h37a.5.5 0 0 0 .5-.5V282a.5.5 0 0 0-.5-.5z" stroke="#5e5e5e" fill="#fff"/><use xlink:href="#V" transform="matrix(1,0,0,1,-3513.7442726785202,280.526502971674) translate(-12.335069444444443 16.444444444444443)"/><path d="M-3057.48 281.03a.5.5 0 0 1 .5-.5h37a.5.5 0 0 1 .5.5V304a.5.5 0 0 1-.5.5h-37a.5.5 0 0 1-.5-.5z" fill="#fff" fill-opacity="0"/><path d="M-3056.98 281.5a.5.5 0 0 0-.5.5v21.03a.5.5 0 0 0 .5.5h37a.5.5 0 0 0 .5-.5V282a.5.5 0 0 0-.5-.5z" stroke="#5e5e5e" fill="#fff"/><use xlink:href="#V" transform="matrix(1,0,0,1,-3043.0776060118533,280.526502971674) translate(-12.335069444444443 16.444444444444443)"/><path d="M-3351.9 167.9l-140.92 111.7" stroke="#5e5e5e" stroke-width="3" fill="none"/><path d="M-3350.73 166.97l.13.23.7 1.02-1.1.88-1.87-2.35 1.2-.95zM-3492.03 280.53h-4.38l2.68-2.13z" stroke="#5e5e5e" stroke-width=".05" fill="#5e5e5e"/><path d="M-3199.1 177.2l142.86 102.48" stroke="#5e5e5e" stroke-width="3" fill="none"/><path d="M-3198.2 176l-1.74 2.44-1.88-1.34.56-.25 2.4-1.33zM-3052.45 280.55h-4.46l1.5-2.12z" stroke="#5e5e5e" stroke-width=".05" fill="#5e5e5e"/><path d="M-3355 145c-16.73 0-30.3-13.57-30.3-30.3 0-13.38 8.2-24.66 20.94-28.8-.74-39.34 49.74-46.9 69.93-31.77 10.1-22.7 60.57-15.14 60.57 7.57 30.3-7.57 60.58 22.72 40.4 60.58 20.18 30.28 0 68.14-40.4 53-10.1 19.7-50.47 19.7-60.57 0-20.2 15.14-60.57 7.57-60.57-30.3z" stroke="#5e5e5e" stroke-width="3" fill="#fff"/><g><use xlink:href="#W" transform="matrix(1,0,0,1,-3380.287016484752,43.99058146878782) translate(40.938271604938265 75.46527777777777)"/></g><defs><path fill="#979ea8" d="M24 0v-248h195v40H76v63h132v40H76v65h150V0H24" id="X"/><path fill="#979ea8" d="M144 0l-44-69L55 0H2l70-98-66-92h53l41 62 40-62h54l-67 91 71 99h-54" id="Y"/><path fill="#979ea8" d="M133-34C117-15 103 5 69 4 32 3 11-16 11-54c-1-60 55-63 116-61 1-26-3-47-28-47-18 1-26 9-28 27l-52-2c7-38 36-58 82-57s74 22 75 68l1 82c-1 14 12 18 25 15v27c-30 8-71 5-69-32zm-48 3c29 0 43-24 42-57-32 0-66-3-65 30 0 17 8 27 23 27" id="Z"/><path fill="#979ea8" d="M220-157c-53 9-28 100-34 157h-49v-107c1-27-5-49-29-50C55-147 81-57 75 0H25l-1-190h47c2 12-1 28 3 38 10-53 101-56 108 0 13-22 24-43 59-42 82 1 51 116 57 194h-49v-107c-1-25-5-48-29-50" id="aa"/><path fill="#979ea8" d="M135-194c53 0 70 44 70 98 0 56-19 98-73 100-31 1-45-17-59-34 3 33 2 69 2 105H25l-1-265h48c2 10 0 23 3 31 11-24 29-35 60-35zM114-30c33 0 39-31 40-66 0-38-9-64-40-64-56 0-55 130 0 130" id="ab"/><path fill="#979ea8" d="M25 0v-261h50V0H25" id="ac"/><path fill="#979ea8" d="M185-48c-13 30-37 53-82 52C43 2 14-33 14-96s30-98 90-98c62 0 83 45 84 108H66c0 31 8 55 39 56 18 0 30-7 34-22zm-45-69c5-46-57-63-70-21-2 6-4 13-4 21h74" id="ad"/><g id="a"><use transform="matrix(0.12962962962962957,0,0,0.12962962962962957,0,0)" xlink:href="#X"/><use transform="matrix(0.12962962962962957,0,0,0.12962962962962957,31.111111111111097,0)" xlink:href="#Y"/><use transform="matrix(0.12962962962962957,0,0,0.12962962962962957,57.03703703703701,0)" xlink:href="#Z"/><use transform="matrix(0.12962962962962957,0,0,0.12962962962962957,82.96296296296292,0)" xlink:href="#aa"/><use transform="matrix(0.12962962962962957,0,0,0.12962962962962957,124.44444444444437,0)" xlink:href="#ab"/><use transform="matrix(0.12962962962962957,0,0,0.12962962962962957,152.83333333333326,0)" xlink:href="#ac"/><use transform="matrix(0.12962962962962957,0,0,0.12962962962962957,165.79629629629622,0)" xlink:href="#ad"/></g><path fill="#979ea8" d="M67-125c0 53 21 87 73 88 37 1 54-22 65-47l45 17C233-25 199 4 140 4 58 4 20-42 15-125 8-235 124-281 211-232c18 10 29 29 36 50l-46 12c-8-25-30-41-62-41-52 0-71 34-72 86" id="ae"/><path fill="#979ea8" d="M85 4C-2 5 27-109 22-190h50c7 57-23 150 33 157 60-5 35-97 40-157h50l1 190h-47c-2-12 1-28-3-38-12 25-28 42-61 42" id="af"/><path fill="#979ea8" d="M137-138c1-29-70-34-71-4 15 46 118 7 119 86 1 83-164 76-172 9l43-7c4 19 20 25 44 25 33 8 57-30 24-41C81-84 22-81 20-136c-2-80 154-74 161-7" id="ag"/><g id="b"><use transform="matrix(0.12962962962962957,0,0,0.12962962962962957,0,0)" xlink:href="#ae"/><use transform="matrix(0.12962962962962957,0,0,0.12962962962962957,33.574074074074055,0)" xlink:href="#Z"/><use transform="matrix(0.12962962962962957,0,0,0.12962962962962957,59.49999999999997,0)" xlink:href="#aa"/><use transform="matrix(0.12962962962962957,0,0,0.12962962962962957,100.98148148148144,0)" xlink:href="#ab"/><use transform="matrix(0.12962962962962957,0,0,0.12962962962962957,129.37037037037032,0)" xlink:href="#af"/><use transform="matrix(0.12962962962962957,0,0,0.12962962962962957,157.7592592592592,0)" xlink:href="#ag"/></g><path fill="#979ea8" d="M76-208v77h127v40H76V0H24v-248h183v40H76" id="ah"/><path fill="#979ea8" d="M135-194c52 0 70 43 70 98 0 56-19 99-73 100-30 1-46-15-58-35L72 0H24l1-261h50v104c11-23 29-37 60-37zM114-30c31 0 40-27 40-66 0-37-7-63-39-63s-41 28-41 65c0 36 8 64 40 64" id="ai"/><path fill="#979ea8" d="M135-150c-39-12-60 13-60 57V0H25l-1-190h47c2 13-1 29 3 40 6-28 27-53 61-41v41" id="aj"/><path fill="#979ea8" d="M25-224v-37h50v37H25zM25 0v-190h50V0H25" id="ak"/><path fill="#979ea8" d="M190-63c-7 42-38 67-86 67-59 0-84-38-90-98-12-110 154-137 174-36l-49 2c-2-19-15-32-35-32-30 0-35 28-38 64-6 74 65 87 74 30" id="al"/><g id="c"><use transform="matrix(0.12962962962962957,0,0,0.12962962962962957,0,0)" xlink:href="#ah"/><use transform="matrix(0.12962962962962957,0,0,0.12962962962962957,28.388888888888875,0)" xlink:href="#Z"/><use transform="matrix(0.12962962962962957,0,0,0.12962962962962957,54.31481481481479,0)" xlink:href="#ai"/><use transform="matrix(0.12962962962962957,0,0,0.12962962962962957,82.70370370370367,0)" xlink:href="#aj"/><use transform="matrix(0.12962962962962957,0,0,0.12962962962962957,100.8518518518518,0)" xlink:href="#ak"/><use transform="matrix(0.12962962962962957,0,0,0.12962962962962957,113.81481481481475,0)" xlink:href="#al"/></g><path fill="#fff" d="M371-216h461V0H108v-1328h263v1112" id="am"/><path fill="#fff" d="M928-1328v209H382v351h425v201H382v358h547L928 0H118v-1328h810" id="an"/><path fill="#fff" d="M1240 0h-202c-47 1-76-24-87-58l-84-261H378L295-59c-11 29-44 59-86 59H4l484-1328h268zM437-503h370c-61-196-127-384-186-583-56 202-123 386-184 583" id="ao"/><path fill="#fff" d="M890-1328v209H373v376h433v209H373V0H109v-1328h781" id="ap"/><path fill="#fff" d="M236-180h257c2-279-3-565 3-840L323-871c-27 30-91 18-110-9l-76-104 399-346h198v1150h227V0H236v-180" id="aq"/><g id="e"><use transform="matrix(0.013020833333333334,0,0,0.013020833333333334,0,0)" xlink:href="#am"/><use transform="matrix(0.013020833333333334,0,0,0.013020833333333334,11.276041666666668,0)" xlink:href="#an"/><use transform="matrix(0.013020833333333334,0,0,0.013020833333333334,23.958333333333336,0)" xlink:href="#ao"/><use transform="matrix(0.013020833333333334,0,0,0.013020833333333334,40.1171875,0)" xlink:href="#ap"/><use transform="matrix(0.013020833333333334,0,0,0.013020833333333334,52.356770833333336,0)" xlink:href="#aq"/><use transform="matrix(0.013020833333333334,0,0,0.013020833333333334,65.87239583333334,0)" xlink:href="#ao"/></g><filter id="d" filterUnits="objectBoundingBox" x="-.06" y="-.04" width="1.12" height="1.21"><feOffset result="offOut" in="SourceAlpha" dy="6"/><feGaussianBlur result="blurOut" in="offOut" stdDeviation="5"/><feColorMatrix result="colorOut" in="blurOut" values="0 0 0 0 0 0 0 0 0 0 0 0 0 0 0 0 0 0 0.5019607843137255 0"/><feBlend in="SourceGraphic" in2="colorOut"/></filter><path fill="#fff" d="M1048-974c0 163-99 241-224 288 171 41 257 139 257 293C1081-125 889 0 612 0H119v-1328h451c279 2 478 84 478 354zM823-399c0-131-83-178-217-178H382v373h225c139 0 216-61 216-195zm-37-542c0-143-71-185-216-185H382v368h173c140-1 231-45 231-183" id="ar"/><g id="f"><use transform="matrix(0.013020833333333334,0,0,0.013020833333333334,0,0)" xlink:href="#am"/><use transform="matrix(0.013020833333333334,0,0,0.013020833333333334,11.276041666666668,0)" xlink:href="#an"/><use transform="matrix(0.013020833333333334,0,0,0.013020833333333334,23.958333333333336,0)" xlink:href="#ao"/><use transform="matrix(0.013020833333333334,0,0,0.013020833333333334,40.1171875,0)" xlink:href="#ap"/><use transform="matrix(0.013020833333333334,0,0,0.013020833333333334,52.356770833333336,0)" xlink:href="#aq"/><use transform="matrix(0.013020833333333334,0,0,0.013020833333333334,65.87239583333334,0)" xlink:href="#ar"/></g><path fill="#4c535d" d="M463-670c-69 0-128 14-183 34l-149-41 108-651h650v101c-3 78-52 116-142 116H407l-44 261c53-11 103-16 152-16 263 0 419 147 419 406 0 232-122 371-292 440-125 51-309 39-418-14-62-30-119-68-165-112l74-102c44-65 117-14 161 14 42 27 94 49 166 47 158-4 231-103 233-261 2-143-84-223-230-222" id="as"/><path fill="#4c535d" d="M113-955c38-239 181-388 448-388 186 0 310 81 369 209 18 42 27 87 27 134 1 168-77 256-203 297 151 51 227 154 227 307C981-126 800 8 532 14 260 20 143-131 76-338c63-25 186-102 236-14 46 82 93 164 218 164 130 0 203-76 210-200 9-175-112-206-288-206v-171c158-2 269-37 269-193 0-117-60-182-173-183-99-1-165 67-190 142-19 57-44 79-118 66" id="at"/><g id="g"><use transform="matrix(0.008680555555555554,0,0,0.008680555555555554,0,0)" xlink:href="#as"/><use transform="matrix(0.008680555555555554,0,0,0.008680555555555554,9.010416666666666,0)" xlink:href="#at"/></g><path fill="#4c535d" d="M1007-505c-9 70 29 185-49 186H854V0H644v-319H105c-83-4-69-108-90-173l609-837h230v824h153zm-363 0c3-182-8-376 8-546L269-505h375" id="au"/><g id="h"><use transform="matrix(0.008680555555555554,0,0,0.008680555555555554,0,0)" xlink:href="#as"/><use transform="matrix(0.008680555555555554,0,0,0.008680555555555554,9.010416666666666,0)" xlink:href="#au"/></g><path fill="#fff" d="M469-200c119 0 194-62 190-182-5-155-165-165-285-207C212-646 83-736 88-958c4-182 105-295 242-352 113-48 278-41 392 4 65 25 120 59 166 104l-67 124c-13 37-61 47-98 23-55-35-117-75-210-75-111 0-181 57-181 159 0 146 173 155 287 201 153 61 292 138 287 351-7 273-167 433-444 433-190 0-326-77-424-175l78-125c18-34 71-42 108-14 63 47 132 100 245 100" id="av"/><path fill="#fff" d="M1037-902c0 300-189 436-495 441H378V0H115v-1328h427c303 4 495 131 495 426zm-263 0c0-143-81-224-232-224H378v461h164c156 2 232-87 232-237" id="aw"/><path fill="#fff" d="M405 0H141v-1328h264V0" id="ax"/><path fill="#fff" d="M122-1328c70 6 164-16 206 20 6 5 13 12 20 21l654 862c-4-44-6-86-6-125v-778h231V0c-62-4-141 10-187-10-14-6-27-18-40-35L348-902c4 41 6 80 6 115V0H122v-1328" id="ay"/><g id="j"><use transform="matrix(0.013020833333333334,0,0,0.013020833333333334,0,0)" xlink:href="#av"/><use transform="matrix(0.013020833333333334,0,0,0.013020833333333334,12.604166666666668,0)" xlink:href="#aw"/><use transform="matrix(0.013020833333333334,0,0,0.013020833333333334,26.796875,0)" xlink:href="#ax"/><use transform="matrix(0.013020833333333334,0,0,0.013020833333333334,33.90625,0)" xlink:href="#ay"/><use transform="matrix(0.013020833333333334,0,0,0.013020833333333334,51.47135416666667,0)" xlink:href="#an"/><use transform="matrix(0.013020833333333334,0,0,0.013020833333333334,64.47916666666667,0)" xlink:href="#aq"/></g><filter id="i" filterUnits="objectBoundingBox" x="-.03" y="-.04" width="1.06" height="1.21"><feOffset result="offOut" in="SourceAlpha" dy="6"/><feGaussianBlur result="blurOut" in="offOut" stdDeviation="5"/><feColorMatrix result="colorOut" in="blurOut" values="0 0 0 0 0 0 0 0 0 0 0 0 0 0 0 0 0 0 0.5019607843137255 0"/><feBlend in="SourceGraphic" in2="colorOut"/></filter><path fill="#fff" d="M89-955c40-238 181-388 449-388 250 0 409 134 409 381 0 232-139 347-258 472L407-195c126-46 310-24 475-29 49-1 86 32 85 80V0H69c-2-76 0-138 43-180 161-160 326-321 472-494 63-74 110-153 115-281 6-143-107-217-242-175-61 19-100 69-121 131-19 56-46 79-119 66" id="az"/><g id="k"><use transform="matrix(0.013020833333333334,0,0,0.013020833333333334,0,0)" xlink:href="#av"/><use transform="matrix(0.013020833333333334,0,0,0.013020833333333334,12.604166666666668,0)" xlink:href="#aw"/><use transform="matrix(0.013020833333333334,0,0,0.013020833333333334,26.796875,0)" xlink:href="#ax"/><use transform="matrix(0.013020833333333334,0,0,0.013020833333333334,33.90625,0)" xlink:href="#ay"/><use transform="matrix(0.013020833333333334,0,0,0.013020833333333334,51.47135416666667,0)" xlink:href="#an"/><use transform="matrix(0.013020833333333334,0,0,0.013020833333333334,64.47916666666667,0)" xlink:href="#az"/></g><path fill="#4c535d" d="M225-1c-20 54-71 94-136 94H-18l680-1441c20-52 64-88 131-89h107" id="aA"/><path fill="#4c535d" d="M236-180h257c2-279-3-565 3-840L323-871c-27 30-91 18-110-9l-76-104 399-346h198v1150h227V0H236v-180" id="aB"/><g id="l"><use transform="matrix(0.008680555555555554,0,0,0.008680555555555554,0,0)" xlink:href="#as"/><use transform="matrix(0.008680555555555554,0,0,0.008680555555555554,9.010416666666666,0)" xlink:href="#as"/><use transform="matrix(0.008680555555555554,0,0,0.008680555555555554,18.020833333333332,0)" xlink:href="#aA"/><use transform="matrix(0.008680555555555554,0,0,0.008680555555555554,25.65972222222222,0)" xlink:href="#aB"/></g><path fill="#4c535d" d="M456-845c80-38 203-43 294-6 146 60 243 188 243 393 0 223-117 364-277 436-109 49-273 49-382 1C168-93 67-246 67-479c0-175 67-295 150-418l300-442c25-33 77-59 136-59h226c-141 184-282 368-423 553zm64 158c-139 0-209 104-209 247 0 149 63 249 209 249 141 0 219-103 219-248 0-149-72-248-219-248" id="aC"/><g id="m"><use transform="matrix(0.008680555555555554,0,0,0.008680555555555554,0,0)" xlink:href="#as"/><use transform="matrix(0.008680555555555554,0,0,0.008680555555555554,9.010416666666666,0)" xlink:href="#aC"/><use transform="matrix(0.008680555555555554,0,0,0.008680555555555554,18.020833333333332,0)" xlink:href="#aA"/><use transform="matrix(0.008680555555555554,0,0,0.008680555555555554,25.65972222222222,0)" xlink:href="#aB"/></g><path fill="#4c535d" d="M61-690h505v212H61v-212" id="aD"/><path fill="#4c535d" d="M977-395c0 272-183 410-458 410S61-123 61-395c0-179 82-285 228-334-115-51-185-151-185-308 0-185 109-293 248-348 99-39 235-39 334 0 140 55 248 162 248 348 0 158-70 257-186 308 146 49 229 155 229 334zm-654-4c0 133 63 217 196 217s196-84 196-217c0-142-55-224-196-224-140 0-196 84-196 224zm28-633c0 123 44 210 168 210 123 0 168-87 168-210 0-114-53-191-168-191s-168 77-168 191" id="aE"/><g id="n"><use transform="matrix(0.008680555555555554,0,0,0.008680555555555554,0,0)" xlink:href="#aB"/><use transform="matrix(0.008680555555555554,0,0,0.008680555555555554,9.010416666666666,0)" xlink:href="#aD"/><use transform="matrix(0.008680555555555554,0,0,0.008680555555555554,14.453124999999998,0)" xlink:href="#au"/><use transform="matrix(0.008680555555555554,0,0,0.008680555555555554,23.463541666666664,0)" xlink:href="#aE"/></g><g id="p"><use transform="matrix(0.013020833333333334,0,0,0.013020833333333334,0,0)" xlink:href="#am"/><use transform="matrix(0.013020833333333334,0,0,0.013020833333333334,11.276041666666668,0)" xlink:href="#an"/><use transform="matrix(0.013020833333333334,0,0,0.013020833333333334,23.958333333333336,0)" xlink:href="#ao"/><use transform="matrix(0.013020833333333334,0,0,0.013020833333333334,40.1171875,0)" xlink:href="#ap"/><use transform="matrix(0.013020833333333334,0,0,0.013020833333333334,52.356770833333336,0)" xlink:href="#az"/><use transform="matrix(0.013020833333333334,0,0,0.013020833333333334,65.87239583333334,0)" xlink:href="#ao"/></g><path fill="#fff" d="M363-958c5 40 8 85 8 127V0H139v-1328c83 3 177-6 251 6 17 7 27 17 36 35l412 720c23 42 42 86 59 131 19-46 36-91 59-133l409-718c14-32 40-41 88-41h198V0h-231c1-296-1-596 2-890 1-21 2-42 4-64l-419 742c-28 50-62 58-128 58-41 0-70-20-92-58" id="aF"/><path fill="#fff" d="M352-974c116-47 283-48 399 0 177 72 288 230 288 475 0 247-110 405-288 478-116 48-283 48-399 0C173-94 62-251 62-499c0-246 112-403 290-475zm-28 477c0 189 54 318 228 318 172 0 225-131 225-318s-53-318-225-318c-174 0-228 130-228 318" id="aG"/><path fill="#fff" d="M483-1012c112 0 179 37 238 92v-517h254V0H818c-73 2-64-82-83-135C661-54 570 15 422 15 157 15 63-214 63-494c0-232 92-397 247-478 52-26 110-40 173-40zM325-494c0 166 29 308 186 308 106 0 161-51 210-111v-438c-43-55-93-85-178-85-170 0-218 146-218 326" id="aH"/><path fill="#fff" d="M439 15c-225-4-332-150-332-377v-631h254v631c0 110 48 181 156 180 91-1 152-46 204-95v-716h254V0c-65-5-152 14-197-12-30-17-26-70-39-106C664-46 580 18 439 15" id="aI"/><path fill="#fff" d="M379-1437V0H125v-1437h254" id="aJ"/><path fill="#fff" d="M534-1012c240 0 371 147 371 387V0c-80-7-186 24-201-53l-22-66C598-47 516 18 362 15 183 12 73-75 73-255c0-177 142-239 303-283 75-20 169-31 281-34 9-142-26-239-155-239-97 0-149 37-209 70-49 27-108 2-128-33l-46-80c103-96 231-158 415-158zM316-268c-2 80 48 110 125 110 107 0 156-41 216-100v-160c-111 5-199 15-269 48-43 21-70 49-72 102" id="aK"/><path fill="#fff" d="M545-767c-109 4-148 72-181 151V0H110v-993c66 5 161-12 204 14 28 28 23 102 33 150 53-94 116-183 244-183 43 0 79 10 107 31l-19 190c-6 59-87 22-134 24" id="aL"/><g id="q"><use transform="matrix(0.008680555555555554,0,0,0.008680555555555554,0,0)" xlink:href="#aF"/><use transform="matrix(0.008680555555555554,0,0,0.008680555555555554,15.538194444444443,0)" xlink:href="#aG"/><use transform="matrix(0.008680555555555554,0,0,0.008680555555555554,25.095486111111107,0)" xlink:href="#aH"/><use transform="matrix(0.008680555555555554,0,0,0.008680555555555554,34.63541666666666,0)" xlink:href="#aI"/><use transform="matrix(0.008680555555555554,0,0,0.008680555555555554,44.175347222222214,0)" xlink:href="#aJ"/><use transform="matrix(0.008680555555555554,0,0,0.008680555555555554,48.54166666666666,0)" xlink:href="#aK"/><use transform="matrix(0.008680555555555554,0,0,0.008680555555555554,57.31770833333332,0)" xlink:href="#aL"/></g><filter id="o" filterUnits="objectBoundingBox" x="-.06" y="-.02" width="1.12" height="1.1"><feOffset result="offOut" in="SourceAlpha" dy="6"/><feGaussianBlur result="blurOut" in="offOut" stdDeviation="5"/><feColorMatrix result="colorOut" in="blurOut" values="0 0 0 0 0 0 0 0 0 0 0 0 0 0 0 0 0 0 0.5019607843137255 0"/><feBlend in="SourceGraphic" in2="colorOut"/></filter><path fill="#4c535d" d="M137-1111c-27 1-55-27-55-55v-162h902c1 84-3 171-29 226L478-82C454-38 420 0 351 0H175l488-997c23-44 44-80 76-114H137" id="aM"/><g id="r"><use transform="matrix(0.008680555555555554,0,0,0.008680555555555554,0,0)" xlink:href="#at"/><use transform="matrix(0.008680555555555554,0,0,0.008680555555555554,9.010416666666666,0)" xlink:href="#aD"/><use transform="matrix(0.008680555555555554,0,0,0.008680555555555554,14.453124999999998,0)" xlink:href="#aM"/><use transform="matrix(0.008680555555555554,0,0,0.008680555555555554,23.463541666666664,0)" xlink:href="#aA"/><use transform="matrix(0.008680555555555554,0,0,0.008680555555555554,31.10243055555555,0)" xlink:href="#aB"/><use transform="matrix(0.008680555555555554,0,0,0.008680555555555554,40.112847222222214,0)" xlink:href="#aD"/><use transform="matrix(0.008680555555555554,0,0,0.008680555555555554,45.55555555555554,0)" xlink:href="#au"/><use transform="matrix(0.008680555555555554,0,0,0.008680555555555554,54.56597222222221,0)" xlink:href="#aE"/></g><g id="s"><use transform="matrix(0.008680555555555554,0,0,0.008680555555555554,0,0)" xlink:href="#aB"/><use transform="matrix(0.008680555555555554,0,0,0.008680555555555554,9.010416666666666,0)" xlink:href="#aA"/><use transform="matrix(0.008680555555555554,0,0,0.008680555555555554,16.649305555555554,0)" xlink:href="#aB"/></g><g id="t"><use transform="matrix(0.008680555555555554,0,0,0.008680555555555554,0,0)" xlink:href="#aB"/><use transform="matrix(0.008680555555555554,0,0,0.008680555555555554,9.010416666666666,0)" xlink:href="#aA"/><use transform="matrix(0.008680555555555554,0,0,0.008680555555555554,16.649305555555554,0)" xlink:href="#at"/></g><path fill="#fff" d="M113-955c38-239 181-388 448-388 186 0 310 81 369 209 18 42 27 87 27 134 1 168-77 256-203 297 151 51 227 154 227 307C981-126 800 8 532 14 260 20 143-131 76-338c63-25 186-102 236-14 46 82 93 164 218 164 130 0 203-76 210-200 9-175-112-206-288-206v-171c158-2 269-37 269-193 0-117-60-182-173-183-99-1-165 67-190 142-19 57-44 79-118 66" id="aN"/><g id="u"><use transform="matrix(0.013020833333333334,0,0,0.013020833333333334,0,0)" xlink:href="#am"/><use transform="matrix(0.013020833333333334,0,0,0.013020833333333334,11.276041666666668,0)" xlink:href="#an"/><use transform="matrix(0.013020833333333334,0,0,0.013020833333333334,23.958333333333336,0)" xlink:href="#ao"/><use transform="matrix(0.013020833333333334,0,0,0.013020833333333334,40.1171875,0)" xlink:href="#ap"/><use transform="matrix(0.013020833333333334,0,0,0.013020833333333334,52.356770833333336,0)" xlink:href="#aN"/><use transform="matrix(0.013020833333333334,0,0,0.013020833333333334,65.87239583333334,0)" xlink:href="#ao"/></g><g id="v"><use transform="matrix(0.013020833333333334,0,0,0.013020833333333334,0,0)" xlink:href="#am"/><use transform="matrix(0.013020833333333334,0,0,0.013020833333333334,11.276041666666668,0)" xlink:href="#an"/><use transform="matrix(0.013020833333333334,0,0,0.013020833333333334,23.958333333333336,0)" xlink:href="#ao"/><use transform="matrix(0.013020833333333334,0,0,0.013020833333333334,40.1171875,0)" xlink:href="#ap"/><use transform="matrix(0.013020833333333334,0,0,0.013020833333333334,52.356770833333336,0)" xlink:href="#aN"/><use transform="matrix(0.013020833333333334,0,0,0.013020833333333334,65.87239583333334,0)" xlink:href="#ar"/></g><path fill="#4c535d" d="M558-1343c315 4 477 226 426 559-19 123-74 216-134 304L560-55C509 26 342-7 215 0c152-194 307-385 457-581-80 52-225 75-333 30-135-54-228-169-228-358 0-206 113-334 264-399 55-23 116-35 183-35zm-4 636c137 0 210-84 210-219 0-137-73-221-209-221-132 0-201 87-204 219-3 139 67 221 203 221" id="aO"/><g id="w"><use transform="matrix(0.008680555555555554,0,0,0.008680555555555554,0,0)" xlink:href="#aO"/><use transform="matrix(0.008680555555555554,0,0,0.008680555555555554,9.010416666666666,0)" xlink:href="#aE"/><use transform="matrix(0.008680555555555554,0,0,0.008680555555555554,18.020833333333332,0)" xlink:href="#aA"/><use transform="matrix(0.008680555555555554,0,0,0.008680555555555554,25.65972222222222,0)" xlink:href="#at"/></g><g id="x"><use transform="matrix(0.008680555555555554,0,0,0.008680555555555554,0,0)" xlink:href="#aO"/><use transform="matrix(0.008680555555555554,0,0,0.008680555555555554,9.010416666666666,0)" xlink:href="#aE"/><use transform="matrix(0.008680555555555554,0,0,0.008680555555555554,18.020833333333332,0)" xlink:href="#aA"/><use transform="matrix(0.008680555555555554,0,0,0.008680555555555554,25.65972222222222,0)" xlink:href="#au"/></g><path fill="#fff" d="M1063-193C972-66 836 14 625 14 325 14 160-160 82-392c-55-162-54-387 4-546 84-230 253-399 553-405 185-4 321 74 409 173-37 47-65 102-108 143-52 29-90-19-122-42-68-49-222-71-314-21-130 72-193 222-193 425 0 205 69 355 201 427 92 51 249 32 318-20 30-23 81-99 128-48" id="aP"/><g id="y"><use transform="matrix(0.013020833333333334,0,0,0.013020833333333334,0,0)" xlink:href="#am"/><use transform="matrix(0.013020833333333334,0,0,0.013020833333333334,11.276041666666668,0)" xlink:href="#an"/><use transform="matrix(0.013020833333333334,0,0,0.013020833333333334,23.958333333333336,0)" xlink:href="#ao"/><use transform="matrix(0.013020833333333334,0,0,0.013020833333333334,40.1171875,0)" xlink:href="#ap"/><use transform="matrix(0.013020833333333334,0,0,0.013020833333333334,52.356770833333336,0)" xlink:href="#aN"/><use transform="matrix(0.013020833333333334,0,0,0.013020833333333334,65.87239583333334,0)" xlink:href="#aP"/></g><path fill="#fff" d="M1198-932c62 158 61 378 0 536C1107-162 916 0 600 0H116v-1328h484c315 6 507 163 598 396zM600-209c264-9 377-187 377-456 0-268-114-446-377-455H380v911h220" id="aQ"/><g id="z"><use transform="matrix(0.013020833333333334,0,0,0.013020833333333334,0,0)" xlink:href="#am"/><use transform="matrix(0.013020833333333334,0,0,0.013020833333333334,11.276041666666668,0)" xlink:href="#an"/><use transform="matrix(0.013020833333333334,0,0,0.013020833333333334,23.958333333333336,0)" xlink:href="#ao"/><use transform="matrix(0.013020833333333334,0,0,0.013020833333333334,40.1171875,0)" xlink:href="#ap"/><use transform="matrix(0.013020833333333334,0,0,0.013020833333333334,52.356770833333336,0)" xlink:href="#aN"/><use transform="matrix(0.013020833333333334,0,0,0.013020833333333334,65.87239583333334,0)" xlink:href="#aQ"/></g><g id="A"><use transform="matrix(0.008680555555555554,0,0,0.008680555555555554,0,0)" xlink:href="#aO"/><use transform="matrix(0.008680555555555554,0,0,0.008680555555555554,9.010416666666666,0)" xlink:href="#aM"/><use transform="matrix(0.008680555555555554,0,0,0.008680555555555554,18.020833333333332,0)" xlink:href="#aA"/><use transform="matrix(0.008680555555555554,0,0,0.008680555555555554,25.65972222222222,0)" xlink:href="#aB"/></g><path fill="#4c535d" d="M89-955c40-238 181-388 449-388 250 0 409 134 409 381 0 232-139 347-258 472L407-195c126-46 310-24 475-29 49-1 86 32 85 80V0H69c-2-76 0-138 43-180 161-160 326-321 472-494 63-74 110-153 115-281 6-143-107-217-242-175-61 19-100 69-121 131-19 56-46 79-119 66" id="aR"/><g id="B"><use transform="matrix(0.008680555555555554,0,0,0.008680555555555554,0,0)" xlink:href="#aO"/><use transform="matrix(0.008680555555555554,0,0,0.008680555555555554,9.010416666666666,0)" xlink:href="#aM"/><use transform="matrix(0.008680555555555554,0,0,0.008680555555555554,18.020833333333332,0)" xlink:href="#aA"/><use transform="matrix(0.008680555555555554,0,0,0.008680555555555554,25.65972222222222,0)" xlink:href="#aR"/></g><g id="C"><use transform="matrix(0.008680555555555554,0,0,0.008680555555555554,0,0)" xlink:href="#aB"/><use transform="matrix(0.008680555555555554,0,0,0.008680555555555554,9.010416666666666,0)" xlink:href="#aD"/><use transform="matrix(0.008680555555555554,0,0,0.008680555555555554,14.453124999999998,0)" xlink:href="#aO"/><use transform="matrix(0.008680555555555554,0,0,0.008680555555555554,23.463541666666664,0)" xlink:href="#aC"/></g><path fill="#979ea8" d="M24 0v-248h52V0H24" id="aS"/><path fill="#979ea8" d="M24-248c120-7 223 5 221 122C244-46 201 0 124 0H24v-248zM76-40c74 7 117-18 117-86 0-67-45-88-117-82v168" id="aT"/><path fill="#979ea8" d="M128-127c34 4 56 21 59 58 7 91-148 94-172 28-4-9-6-17-7-26l51-5c1 24 16 35 40 36 23 0 39-12 38-36-1-31-31-36-65-34v-40c32 2 59-3 59-33 0-20-13-33-34-33s-33 13-35 32l-50-3c6-44 37-68 86-68 50 0 83 20 83 66 0 35-22 52-53 58" id="aU"/><g id="D"><use transform="matrix(0.07407407407407407,0,0,0.07407407407407407,0,0)" xlink:href="#aS"/><use transform="matrix(0.07407407407407407,0,0,0.07407407407407407,7.4074074074074066,0)" xlink:href="#aT"/><use transform="matrix(0.07407407407407407,0,0,0.07407407407407407,26.592592592592588,0)" xlink:href="#ah"/><use transform="matrix(0.07407407407407407,0,0,0.07407407407407407,42.81481481481481,0)" xlink:href="#aU"/></g><path fill="#333" d="M155-56V0h-30v-56H8v-25l114-167h33v167h35v25h-35zm-30-156c-27 46-58 90-88 131h88v-131" id="aV"/><path fill="#333" d="M134-131c28 9 52 24 51 62-1 50-34 73-85 73S17-19 16-69c0-36 21-54 49-61-75-25-45-126 34-121 46 3 78 18 79 63 0 33-17 51-44 57zm-34-11c31 1 46-15 46-44 0-28-17-43-47-42-29 0-46 13-45 42 1 28 16 44 46 44zm1 122c35 0 51-18 51-52 0-30-18-46-53-46-33 0-51 17-51 47 0 34 19 51 53 51" id="aW"/><path fill="#333" d="M101-251c68 0 85 55 85 127S166 4 100 4C33 4 14-52 14-124c0-73 17-127 87-127zm-1 229c47 0 54-49 54-102s-4-102-53-102c-51 0-55 48-55 102 0 53 5 102 54 102" id="aX"/><g id="E"><use transform="matrix(0.06172839506172839,0,0,0.06172839506172839,0,0)" xlink:href="#aV"/><use transform="matrix(0.06172839506172839,0,0,0.06172839506172839,12.345679012345679,0)" xlink:href="#aW"/><use transform="matrix(0.06172839506172839,0,0,0.06172839506172839,24.691358024691358,0)" xlink:href="#aX"/></g><path fill="#333" d="M232-93c-1 65-40 97-104 97C67 4 28-28 28-90v-158h33c8 89-33 224 67 224 102 0 64-133 71-224h33v155" id="aY"/><path fill="#333" d="M135-143c-3-34-86-38-87 0 15 53 115 12 119 90S17 21 10-45l28-5c4 36 97 45 98 0-10-56-113-15-118-90-4-57 82-63 122-42 12 7 21 19 24 35" id="aZ"/><path fill="#333" d="M100-194c63 0 86 42 84 106H49c0 40 14 67 53 68 26 1 43-12 49-29l28 8c-11 28-37 45-77 45C44 4 14-33 15-96c1-61 26-98 85-98zm52 81c6-60-76-77-97-28-3 7-6 17-6 28h103" id="ba"/><path fill="#333" d="M114-163C36-179 61-72 57 0H25l-1-190h30c1 12-1 29 2 39 6-27 23-49 58-41v29" id="bb"/><g id="F"><use transform="matrix(0.06172839506172839,0,0,0.06172839506172839,0,0)" xlink:href="#aY"/><use transform="matrix(0.06172839506172839,0,0,0.06172839506172839,15.987654320987653,0)" xlink:href="#aZ"/><use transform="matrix(0.06172839506172839,0,0,0.06172839506172839,27.098765432098766,0)" xlink:href="#ba"/><use transform="matrix(0.06172839506172839,0,0,0.06172839506172839,39.44444444444444,0)" xlink:href="#bb"/><use transform="matrix(0.06172839506172839,0,0,0.06172839506172839,46.79012345679012,0)" xlink:href="#aZ"/></g><path fill="#979ea8" d="M23 0v-37h61v-169l-59 37v-38l62-41h46v211h57V0H23" id="bc"/><g id="G"><use transform="matrix(0.07407407407407407,0,0,0.07407407407407407,0,0)" xlink:href="#aS"/><use transform="matrix(0.07407407407407407,0,0,0.07407407407407407,7.4074074074074066,0)" xlink:href="#aT"/><use transform="matrix(0.07407407407407407,0,0,0.07407407407407407,26.592592592592588,0)" xlink:href="#ah"/><use transform="matrix(0.07407407407407407,0,0,0.07407407407407407,42.81481481481481,0)" xlink:href="#bc"/></g><path fill="#333" d="M99-251c64 0 84 50 84 122C183-37 130 33 47-8c-14-7-20-23-25-40l30-5c6 39 69 39 84 7 9-19 16-44 16-74-10 22-31 35-62 35-49 0-73-33-73-83 0-54 28-83 82-83zm-1 141c31-1 51-18 51-49 0-36-14-67-51-67-34 0-49 23-49 58 0 34 15 58 49 58" id="bd"/><path fill="#333" d="M110-160c48 1 74 30 74 79 0 53-28 85-80 85-65 0-83-55-86-122-5-90 50-162 133-122 14 7 22 21 27 39l-31 6c-5-40-67-38-82-6-9 19-15 44-15 74 11-20 30-34 60-33zm-7 138c34 0 49-23 49-58s-16-56-50-56c-29 0-50 16-49 49 1 36 15 65 50 65" id="be"/><g id="H"><use transform="matrix(0.06172839506172839,0,0,0.06172839506172839,0,0)" xlink:href="#bd"/><use transform="matrix(0.06172839506172839,0,0,0.06172839506172839,12.345679012345679,0)" xlink:href="#be"/></g><g id="I"><use transform="matrix(0.06172839506172839,0,0,0.06172839506172839,0,0)" xlink:href="#aY"/><use transform="matrix(0.06172839506172839,0,0,0.06172839506172839,15.987654320987653,0)" xlink:href="#aZ"/><use transform="matrix(0.06172839506172839,0,0,0.06172839506172839,27.098765432098766,0)" xlink:href="#ba"/><use transform="matrix(0.06172839506172839,0,0,0.06172839506172839,39.44444444444444,0)" xlink:href="#bb"/><use transform="matrix(0.06172839506172839,0,0,0.06172839506172839,46.79012345679012,0)" xlink:href="#aZ"/></g><path fill="#979ea8" d="M182-182c0 78-84 86-111 141h115V0H12c-6-101 99-100 120-180 1-22-12-31-33-32-23 0-32 14-35 34l-49-3c5-45 32-70 84-70 51 0 83 22 83 69" id="bf"/><g id="J"><use transform="matrix(0.07407407407407407,0,0,0.07407407407407407,0,0)" xlink:href="#aS"/><use transform="matrix(0.07407407407407407,0,0,0.07407407407407407,7.4074074074074066,0)" xlink:href="#aT"/><use transform="matrix(0.07407407407407407,0,0,0.07407407407407407,26.592592592592588,0)" xlink:href="#ah"/><use transform="matrix(0.07407407407407407,0,0,0.07407407407407407,42.81481481481481,0)" xlink:href="#bf"/></g><path fill="#333" d="M101-251c82-7 93 87 43 132L82-64C71-53 59-42 53-27h129V0H18c2-99 128-94 128-182 0-28-16-43-45-43s-46 15-49 41l-32-3c6-41 34-60 81-64" id="bg"/><g id="K"><use transform="matrix(0.06172839506172839,0,0,0.06172839506172839,0,0)" xlink:href="#bg"/><use transform="matrix(0.06172839506172839,0,0,0.06172839506172839,12.345679012345679,0)" xlink:href="#aV"/><use transform="matrix(0.06172839506172839,0,0,0.06172839506172839,24.691358024691358,0)" xlink:href="#aX"/></g><g id="L"><use transform="matrix(0.008680555555555554,0,0,0.008680555555555554,0,0)" xlink:href="#as"/><use transform="matrix(0.008680555555555554,0,0,0.008680555555555554,9.010416666666666,0)" xlink:href="#aB"/></g><g id="M"><use transform="matrix(0.013020833333333334,0,0,0.013020833333333334,0,0)" xlink:href="#am"/><use transform="matrix(0.013020833333333334,0,0,0.013020833333333334,11.276041666666668,0)" xlink:href="#an"/><use transform="matrix(0.013020833333333334,0,0,0.013020833333333334,23.958333333333336,0)" xlink:href="#ao"/><use transform="matrix(0.013020833333333334,0,0,0.013020833333333334,40.1171875,0)" xlink:href="#ap"/><use transform="matrix(0.013020833333333334,0,0,0.013020833333333334,52.356770833333336,0)" xlink:href="#aN"/><use transform="matrix(0.013020833333333334,0,0,0.013020833333333334,65.87239583333334,0)" xlink:href="#an"/></g><g id="N"><use transform="matrix(0.008680555555555554,0,0,0.008680555555555554,0,0)" xlink:href="#aO"/><use transform="matrix(0.008680555555555554,0,0,0.008680555555555554,9.010416666666666,0)" xlink:href="#aM"/><use transform="matrix(0.008680555555555554,0,0,0.008680555555555554,18.020833333333332,0)" xlink:href="#aA"/><use transform="matrix(0.008680555555555554,0,0,0.008680555555555554,25.65972222222222,0)" xlink:href="#at"/></g><g id="O"><use transform="matrix(0.008680555555555554,0,0,0.008680555555555554,0,0)" xlink:href="#aO"/><use transform="matrix(0.008680555555555554,0,0,0.008680555555555554,9.010416666666666,0)" xlink:href="#aM"/><use transform="matrix(0.008680555555555554,0,0,0.008680555555555554,18.020833333333332,0)" xlink:href="#aA"/><use transform="matrix(0.008680555555555554,0,0,0.008680555555555554,25.65972222222222,0)" xlink:href="#au"/></g><g id="P"><use transform="matrix(0.008680555555555554,0,0,0.008680555555555554,0,0)" xlink:href="#aO"/><use transform="matrix(0.008680555555555554,0,0,0.008680555555555554,9.010416666666666,0)" xlink:href="#aE"/><use transform="matrix(0.008680555555555554,0,0,0.008680555555555554,18.020833333333332,0)" xlink:href="#aA"/><use transform="matrix(0.008680555555555554,0,0,0.008680555555555554,25.65972222222222,0)" xlink:href="#aB"/></g><use transform="matrix(0.008680555555555554,0,0,0.008680555555555554,0,0)" xlink:href="#aB" id="Q"/><g id="R"><use transform="matrix(0.008680555555555554,0,0,0.008680555555555554,0,0)" xlink:href="#au"/><use transform="matrix(0.008680555555555554,0,0,0.008680555555555554,9.010416666666666,0)" xlink:href="#aO"/><use transform="matrix(0.008680555555555554,0,0,0.008680555555555554,18.020833333333332,0)" xlink:href="#aA"/><use transform="matrix(0.008680555555555554,0,0,0.008680555555555554,25.65972222222222,0)" xlink:href="#aB"/></g><path fill="#4c535d" d="M960-966c48 161 48 442 0 603C896-149 775 14 517 14 261 14 140-150 78-363c-47-161-48-443 0-603 63-213 183-377 439-377s380 165 443 377zM602-206c161-87 169-454 126-694-24-133-71-244-211-244-138 0-184 113-207 244-41 238-36 607 122 694 54 29 116 28 170 0" id="bh"/><g id="S"><use transform="matrix(0.008680555555555554,0,0,0.008680555555555554,0,0)" xlink:href="#as"/><use transform="matrix(0.008680555555555554,0,0,0.008680555555555554,9.010416666666666,0)" xlink:href="#bh"/><use transform="matrix(0.008680555555555554,0,0,0.008680555555555554,18.020833333333332,0)" xlink:href="#aA"/><use transform="matrix(0.008680555555555554,0,0,0.008680555555555554,25.65972222222222,0)" xlink:href="#aB"/></g><g id="T"><use transform="matrix(0.008680555555555554,0,0,0.008680555555555554,0,0)" xlink:href="#as"/><use transform="matrix(0.008680555555555554,0,0,0.008680555555555554,9.010416666666666,0)" xlink:href="#aB"/><use transform="matrix(0.008680555555555554,0,0,0.008680555555555554,18.020833333333332,0)" xlink:href="#aA"/><use transform="matrix(0.008680555555555554,0,0,0.008680555555555554,25.65972222222222,0)" xlink:href="#aB"/></g><path fill="#979ea8" d="M230 0l2-204L168 0h-37L68-204 70 0H24v-248h70l56 185 57-185h69V0h-46" id="bi"/><g id="U"><use transform="matrix(0.07407407407407407,0,0,0.07407407407407407,0,0)" xlink:href="#bi"/><use transform="matrix(0.07407407407407407,0,0,0.07407407407407407,22.148148148148145,0)" xlink:href="#aT"/><use transform="matrix(0.07407407407407407,0,0,0.07407407407407407,41.33333333333333,0)" xlink:href="#ah"/></g><g id="V"><use transform="matrix(0.008680555555555554,0,0,0.008680555555555554,0,0)" xlink:href="#as"/><use transform="matrix(0.008680555555555554,0,0,0.008680555555555554,9.010416666666666,0)" xlink:href="#aR"/><use transform="matrix(0.008680555555555554,0,0,0.008680555555555554,18.020833333333332,0)" xlink:href="#aA"/><use transform="matrix(0.008680555555555554,0,0,0.008680555555555554,25.65972222222222,0)" xlink:href="#aB"/></g><path fill="#333" d="M266 0h-40l-56-210L115 0H75L2-248h35L96-30l15-64 43-154h32l59 218 59-218h35" id="bj"/><path fill="#333" d="M205 0l-28-72H64L36 0H1l101-248h38L239 0h-34zm-38-99l-47-123c-12 45-31 82-46 123h93" id="bk"/><path fill="#333" d="M190 0L58-211 59 0H30v-248h39L202-35l-2-213h31V0h-41" id="bl"/><path fill="#333" d="M0 4l72-265h28L28 4H0" id="bm"/><path fill="#333" d="M212-179c-10-28-35-45-73-45-59 0-87 40-87 99 0 60 29 101 89 101 43 0 62-24 78-52l27 14C228-24 195 4 139 4 59 4 22-46 18-125c-6-104 99-153 187-111 19 9 31 26 39 46" id="bn"/><path fill="#333" d="M100-194c62-1 85 37 85 99 1 63-27 99-86 99S16-35 15-95c0-66 28-99 85-99zM99-20c44 1 53-31 53-75 0-43-8-75-51-75s-53 32-53 75 10 74 51 75" id="bo"/><g id="W"><use transform="matrix(0.06172839506172839,0,0,0.06172839506172839,0,0)" xlink:href="#bj"/><use transform="matrix(0.06172839506172839,0,0,0.06172839506172839,20.123456790123456,0)" xlink:href="#bk"/><use transform="matrix(0.06172839506172839,0,0,0.06172839506172839,34.938271604938265,0)" xlink:href="#bl"/><use transform="matrix(0.06172839506172839,0,0,0.06172839506172839,50.92592592592592,0)" xlink:href="#bm"/><use transform="matrix(0.06172839506172839,0,0,0.06172839506172839,57.09876543209876,0)" xlink:href="#bn"/><use transform="matrix(0.06172839506172839,0,0,0.06172839506172839,73.08641975308642,0)" xlink:href="#bo"/><use transform="matrix(0.06172839506172839,0,0,0.06172839506172839,85.4320987654321,0)" xlink:href="#bb"/><use transform="matrix(0.06172839506172839,0,0,0.06172839506172839,92.77777777777779,0)" xlink:href="#ba"/></g></defs></g></svg>