<svg xmlns="http://www.w3.org/2000/svg" xmlns:xlink="http://www.w3.org/1999/xlink" xmlns:lucid="lucid" width="1458.65" height="893.29"><g transform="translate(-123.74415244464046 -214.8596965000172)" lucid:page-tab-id="EEzK2ZJf.YBn"><path d="M0 0h1760v1360H0z" fill="#fff"/><path d="M143.74 330.86a36 36 0 0 1 36-36H1526.4a36 36 0 0 1 36 36v721.3a36 36 0 0 1-36 36H179.73a36 36 0 0 1-36-36z" stroke="#979ea8" stroke-width="3" fill="#979ea8"/><use xlink:href="#a" transform="matrix(1,0,0,1,148.74415244464052,299.8596965000172) translate(681.8445061728395 17.77777777777778)"/><path d="M189.42 387.1a36 36 0 0 1 36-36h1251.2a36 36 0 0 1 36 36v613.28a36 36 0 0 1-36 36H225.42a36 36 0 0 1-36-36z" stroke="#dfe3e8" stroke-width="3" fill="#dfe3e8"/><use xlink:href="#b" transform="matrix(1,0,0,1,194.41616687454882,356.09272095726953) translate(586.9679629629629 17.77777777777778)"/><path d="M231.9 788.92a19 19 0 0 1 19-19h1195.57a19 19 0 0 1 19 19v183.53a19 19 0 0 1-19 19H250.9a19 19 0 0 1-19-19z" stroke="#edf5ff" stroke-width="3" fill="#edf5ff"/><use xlink:href="#c" transform="matrix(1,0,0,1,236.90178236155873,774.918239509077) translate(547.3445061728395 210.11503217777775)"/><path d="M609 427.43a19 19 0 0 1 19-19h456.84a19 19 0 0 1 19 19v133.3a19 19 0 0 1-19 19H628a19 19 0 0 1-19-19z" stroke="#edf5ff" stroke-width="3" fill="#edf5ff"/><use xlink:href="#d" transform="matrix(1,0,0,1,614.0109267150748,413.427493214808) translate(173.4567901234568 17.77777777777778)"/><path d="M143.74 234.86H1562.4v60H143.73z" fill="none"/><use xlink:href="#e" transform="matrix(1,0,0,1,143.74415244464046,234.8596965000172) translate(533.358024691358 35.77777777777778)"/><use xlink:href="#f" transform="matrix(1,0,0,1,143.74415244464046,234.8596965000172) translate(645.4629629629629 35.77777777777778)"/><use xlink:href="#g" transform="matrix(1,0,0,1,143.74415244464046,234.8596965000172) translate(783.1666666666666 35.77777777777778)"/><path d="M971.57 819.52a19 19 0 0 1 19-19h422a19 19 0 0 1 19 19v122a19 19 0 0 1-19 19h-422a19 19 0 0 1-19-19z" stroke="#cfe4ff" stroke-width="3" fill="#cfe4ff"/><use xlink:href="#h" transform="matrix(1,0,0,1,976.5674814406821,805.5207352048569) translate(186.85685185185184 148.9665777777778)"/><path d="M257.93 819.52a19 19 0 0 1 19-19h422a19 19 0 0 1 19 19v122a19 19 0 0 1-19 19h-422a19 19 0 0 1-19-19z" stroke="#cfe4ff" stroke-width="3" fill="#cfe4ff"/><use xlink:href="#i" transform="matrix(1,0,0,1,262.928960377445,805.5207352048569) translate(186.85685185185184 148.9665777777778)"/><g filter="url(#j)"><path d="M993.95 834.24a.5.5 0 0 0-.5.5v93.42a.5.5 0 0 0 .5.5h168.64a.5.5 0 0 0 .5-.5v-93.42a.5.5 0 0 0-.5-.5z" stroke="#315796" stroke-width="3" fill="#315796"/><use xlink:href="#k" transform="matrix(1,0,0,1,1003.2933217428754,845.2888303518881) translate(42.06380208333333 43.166666666666664)"/></g><g filter="url(#j)"><path d="M1233.95 834.24a.5.5 0 0 0-.5.5v93.42a.5.5 0 0 0 .5.5h168.64a.5.5 0 0 0 .5-.5v-93.42a.5.5 0 0 0-.5-.5z" stroke="#315796" stroke-width="3" fill="#315796"/><use xlink:href="#l" transform="matrix(1,0,0,1,1243.2933217428756,845.2888303518881) translate(42.06380208333333 43.166666666666664)"/></g><g filter="url(#j)"><path d="M285.7 834.24a.5.5 0 0 0-.5.5v93.42a.5.5 0 0 0 .5.5h168.63a.5.5 0 0 0 .5-.5v-93.42a.5.5 0 0 0-.5-.5z" stroke="#315796" stroke-width="3" fill="#315796"/><use xlink:href="#m" transform="matrix(1,0,0,1,295.030700405124,845.2888303518884) translate(42.06380208333333 43.166666666666664)"/></g><g filter="url(#j)"><path d="M525.7 834.24a.5.5 0 0 0-.5.5v93.42a.5.5 0 0 0 .5.5h168.63a.5.5 0 0 0 .5-.5v-93.42a.5.5 0 0 0-.5-.5z" stroke="#315796" stroke-width="3" fill="#315796"/><use xlink:href="#n" transform="matrix(1,0,0,1,535.030700405124,845.2888303518884) translate(42.06380208333333 43.166666666666664)"/></g><path d="M457.82 868.94h64.4" stroke="#5e5e5e" stroke-width="3" fill="none"/><path d="M457.86 870.44h-1.54v-3h1.54zM523.7 870.44h-1.53v-3h1.54z" stroke="#5e5e5e" stroke-width=".05" fill="#5e5e5e"/><path d="M457.8 893.97h64.4" stroke="#5e5e5e" stroke-width="3" fill="none"/><path d="M457.85 895.47h-1.54l.02-3h1.53zM523.7 895.47h-1.54v-3h1.54z" stroke="#5e5e5e" stroke-width=".05" fill="#5e5e5e"/><path d="M1166.08 868.94h64.4" stroke="#5e5e5e" stroke-width="3" fill="none"/><path d="M1166.12 870.44h-1.54v-3h1.54zM1231.97 870.44h-1.54v-3h1.54z" stroke="#5e5e5e" stroke-width=".05" fill="#5e5e5e"/><path d="M1166.08 893.97h64.38" stroke="#5e5e5e" stroke-width="3" fill="none"/><path d="M1166.12 895.47h-1.54v-3h1.54zM1231.96 895.47h-1.54v-3h1.54z" stroke="#5e5e5e" stroke-width=".05" fill="#5e5e5e"/><g filter="url(#j)"><path d="M632.43 451.52a.5.5 0 0 0-.5.5v93.42a.5.5 0 0 0 .5.5h168.64a.5.5 0 0 0 .5-.5v-93.42a.5.5 0 0 0-.5-.5z" stroke="#315796" stroke-width="3" fill="#315796"/><use xlink:href="#o" transform="matrix(1,0,0,1,641.7679945991126,462.567617117025) translate(36.002604166666664 43.166666666666664)"/></g><g filter="url(#j)"><path d="M912.43 451.52a.5.5 0 0 0-.5.5v93.42a.5.5 0 0 0 .5.5h168.64a.5.5 0 0 0 .5-.5v-93.42a.5.5 0 0 0-.5-.5z" stroke="#315796" stroke-width="3" fill="#315796"/><use xlink:href="#p" transform="matrix(1,0,0,1,921.7679945991126,462.567617117025) translate(36.002604166666664 43.166666666666664)"/></g><path d="M415.13 831.65l256.5-283.12" stroke="#5e5e5e" stroke-width="3" fill="none"/><path d="M416.27 832.63l-.12.13h-2.03l-1.1-1 1.02-1.15zM674.66 547.42l-1.95 2.15-2.2-2.02.1-.13z" stroke="#5e5e5e" stroke-width=".05" fill="#5e5e5e"/><path d="M451.02 831.98L915.74 548.2" stroke="#5e5e5e" stroke-width="3" fill="none"/><path d="M451.54 832.77h-4.68l3.4-2.1zM919.9 547.42l-3.4 2.08-1.28-2.1z" stroke="#5e5e5e" stroke-width=".05" fill="#5e5e5e"/><path d="M624 831.3l78.76-282.43" stroke="#5e5e5e" stroke-width="3" fill="none"/><path d="M625.45 831.68l-.3 1.08h-1.56l-1.45-.4.4-1.5zM704.72 547.42l-.52 1.9-2.9-.82.3-1.08z" stroke="#5e5e5e" stroke-width=".05" fill="#5e5e5e"/><path d="M660.28 831.7l286.2-283.23" stroke="#5e5e5e" stroke-width="3" fill="none"/><path d="M661.36 832.75H657.08l2.17-2.14zM949.68 547.42l-2.17 2.15-2.1-2.13.02-.02z" stroke="#5e5e5e" stroke-width=".05" fill="#5e5e5e"/><path d="M1031.24 831.66L763.78 548.52" stroke="#5e5e5e" stroke-width="3" fill="none"/><path d="M1034.33 832.75h-4.13l-.08-.1 2.18-2.05zM764.82 547.43l.08.1-2.18 2.05-2.03-2.15z" stroke="#5e5e5e" stroke-width=".05" fill="#5e5e5e"/><path d="M1067.6 831.3l-60.17-282.4" stroke="#5e5e5e" stroke-width="3" fill="none"/><path d="M1069.43 832.75h-3.06l-.26-1.2 2.95-.6zM1008.66 547.43l.25 1.2-2.92.6-.4-1.8z" stroke="#5e5e5e" stroke-width=".05" fill="#5e5e5e"/><path d="M1240.45 831.94l-445.88-283.7" stroke="#5e5e5e" stroke-width="3" fill="none"/><path d="M1244.5 832.74h-4.6l1.33-2.1zM795.13 547.44l-1.33 2.1-3.3-2.1z" stroke="#5e5e5e" stroke-width=".05" fill="#5e5e5e"/><path d="M1276.4 831.6l-237.77-283.02" stroke="#5e5e5e" stroke-width="3" fill="none"/><path d="M1279.32 832.75h-3.92l-.18-.2 2.3-1.94zM1039.62 547.43l.18.22-2.3 1.93-1.8-2.15z" stroke="#5e5e5e" stroke-width=".05" fill="#5e5e5e"/><path d="M804.56 481.5h104.4" stroke="#5e5e5e" stroke-width="3" fill="none"/><path d="M804.6 483h-1.54v-3h1.54zM910.45 483h-1.54v-3h1.55z" stroke="#5e5e5e" stroke-width=".05" fill="#5e5e5e"/><path d="M804.55 506.54h104.4" stroke="#5e5e5e" stroke-width="3" fill="none"/><path d="M804.6 508.04h-1.55v-3h1.54zM910.44 508.04h-1.54v-3h1.54z" stroke="#5e5e5e" stroke-width=".05" fill="#5e5e5e"/><path d="M854.84 517.88c-3.82 0-6.9-10.38-6.9-23.18 0-12.8 3.08-23.18 6.9-23.18 3.8 0 6.9 10.38 6.9 23.18 0 12.8-3.1 23.18-6.9 23.18zM489.84 903.88c-3.82 0-6.9-10.38-6.9-23.18 0-12.8 3.08-23.18 6.9-23.18 3.8 0 6.9 10.38 6.9 23.18 0 12.8-3.1 23.18-6.9 23.18z" stroke="#5e5e5e" stroke-width="2" fill-opacity="0"/><g><path d="M1196.84 904.88c-3.82 0-6.9-10.38-6.9-23.18 0-12.8 3.08-23.18 6.9-23.18 3.8 0 6.9 10.38 6.9 23.18 0 12.8-3.1 23.18-6.9 23.18z" stroke="#5e5e5e" stroke-width="2" fill-opacity="0"/></g><defs><path fill="#333" d="M24-248c120-7 223 5 221 122C244-46 201 0 124 0H24v-248zM76-40c74 7 117-18 117-86 0-67-45-88-117-82v168" id="q"/><path fill="#333" d="M67-125c0 53 21 87 73 88 37 1 54-22 65-47l45 17C233-25 199 4 140 4 58 4 20-42 15-125 8-235 124-281 211-232c18 10 29 29 36 50l-46 12c-8-25-30-41-62-41-52 0-71 34-72 86" id="r"/><path fill="#333" d="M23 0v-37h61v-169l-59 37v-38l62-41h46v211h57V0H23" id="s"/><g id="a"><use transform="matrix(0.06172839506172839,0,0,0.06172839506172839,0,0)" xlink:href="#q"/><use transform="matrix(0.06172839506172839,0,0,0.06172839506172839,15.987654320987653,0)" xlink:href="#r"/><use transform="matrix(0.06172839506172839,0,0,0.06172839506172839,31.975308641975307,0)" xlink:href="#s"/></g><path fill="#333" d="M-4 44V30h207v14H-4" id="t"/><path fill="#333" d="M76-208v77h127v40H76V0H24v-248h183v40H76" id="u"/><path fill="#333" d="M199 0l-22-63H83L61 0H9l90-248h61L250 0h-51zm-33-102l-36-108c-10 38-24 72-36 108h72" id="v"/><path fill="#333" d="M182-130c37 4 62 22 62 59C244 23 116-4 24 0v-248c84 5 203-23 205 63 0 31-19 50-47 55zM76-148c40-3 101 13 101-30 0-44-60-28-101-31v61zm0 110c48-3 116 14 116-37 0-48-69-32-116-35v72" id="w"/><path fill="#333" d="M240-174c0 40-23 61-54 70L253 0h-59l-57-94H76V0H24v-248c93 4 217-23 216 74zM76-134c48-2 112 12 112-38 0-48-66-32-112-35v73" id="x"/><path fill="#333" d="M24 0v-248h52V0H24" id="y"/><g id="b"><use transform="matrix(0.06172839506172839,0,0,0.06172839506172839,0,0)" xlink:href="#q"/><use transform="matrix(0.06172839506172839,0,0,0.06172839506172839,15.987654320987653,0)" xlink:href="#r"/><use transform="matrix(0.06172839506172839,0,0,0.06172839506172839,31.975308641975307,0)" xlink:href="#s"/><use transform="matrix(0.06172839506172839,0,0,0.06172839506172839,44.32098765432099,0)" xlink:href="#t"/><use transform="matrix(0.06172839506172839,0,0,0.06172839506172839,56.666666666666664,0)" xlink:href="#u"/><use transform="matrix(0.06172839506172839,0,0,0.06172839506172839,68.9506172839506,0)" xlink:href="#v"/><use transform="matrix(0.06172839506172839,0,0,0.06172839506172839,84.93827160493827,0)" xlink:href="#w"/><use transform="matrix(0.06172839506172839,0,0,0.06172839506172839,100.92592592592592,0)" xlink:href="#x"/><use transform="matrix(0.06172839506172839,0,0,0.06172839506172839,116.91358024691358,0)" xlink:href="#y"/><use transform="matrix(0.06172839506172839,0,0,0.06172839506172839,123.08641975308642,0)" xlink:href="#r"/></g><path fill="#333" d="M24 0v-248h52v208h133V0H24" id="z"/><path fill="#333" d="M24 0v-248h195v40H76v63h132v40H76v65h150V0H24" id="A"/><path fill="#333" d="M169-182c-1-43-94-46-97-3 18 66 151 10 154 114 3 95-165 93-204 36-6-8-10-19-12-30l50-8c3 46 112 56 116 5-17-69-150-10-154-114-4-87 153-88 188-35 5 8 8 18 10 28" id="B"/><g id="c"><use transform="matrix(0.06172839506172839,0,0,0.06172839506172839,0,0)" xlink:href="#q"/><use transform="matrix(0.06172839506172839,0,0,0.06172839506172839,15.987654320987653,0)" xlink:href="#r"/><use transform="matrix(0.06172839506172839,0,0,0.06172839506172839,31.975308641975307,0)" xlink:href="#s"/><use transform="matrix(0.06172839506172839,0,0,0.06172839506172839,44.32098765432099,0)" xlink:href="#t"/><use transform="matrix(0.06172839506172839,0,0,0.06172839506172839,56.666666666666664,0)" xlink:href="#z"/><use transform="matrix(0.06172839506172839,0,0,0.06172839506172839,70.18518518518518,0)" xlink:href="#A"/><use transform="matrix(0.06172839506172839,0,0,0.06172839506172839,84.99999999999999,0)" xlink:href="#v"/><use transform="matrix(0.06172839506172839,0,0,0.06172839506172839,100.98765432098764,0)" xlink:href="#u"/><use transform="matrix(0.06172839506172839,0,0,0.06172839506172839,114.50617283950616,0)" xlink:href="#B"/></g><path fill="#333" d="M24-248c93 1 206-16 204 79-1 75-69 88-152 82V0H24v-248zm52 121c47 0 100 7 100-41 0-47-54-39-100-39v80" id="C"/><path fill="#333" d="M175 0L67-191c6 58 2 128 3 191H24v-248h59L193-55c-6-58-2-129-3-193h46V0h-61" id="D"/><g id="d"><use transform="matrix(0.06172839506172839,0,0,0.06172839506172839,0,0)" xlink:href="#q"/><use transform="matrix(0.06172839506172839,0,0,0.06172839506172839,15.987654320987653,0)" xlink:href="#r"/><use transform="matrix(0.06172839506172839,0,0,0.06172839506172839,31.975308641975307,0)" xlink:href="#s"/><use transform="matrix(0.06172839506172839,0,0,0.06172839506172839,44.32098765432099,0)" xlink:href="#t"/><use transform="matrix(0.06172839506172839,0,0,0.06172839506172839,56.666666666666664,0)" xlink:href="#B"/><use transform="matrix(0.06172839506172839,0,0,0.06172839506172839,71.48148148148148,0)" xlink:href="#C"/><use transform="matrix(0.06172839506172839,0,0,0.06172839506172839,86.29629629629629,0)" xlink:href="#y"/><use transform="matrix(0.06172839506172839,0,0,0.06172839506172839,92.46913580246913,0)" xlink:href="#D"/><use transform="matrix(0.06172839506172839,0,0,0.06172839506172839,108.45679012345678,0)" xlink:href="#A"/><use transform="matrix(0.06172839506172839,0,0,0.06172839506172839,123.2716049382716,0)" xlink:href="#B"/></g><path fill="#333" d="M135-194c87-1 58 113 63 194h-50c-7-57 23-157-34-157-59 0-34 97-39 157H25l-1-190h47c2 12-1 28 3 38 12-26 28-41 61-42" id="E"/><path fill="#333" d="M137-138c1-29-70-34-71-4 15 46 118 7 119 86 1 83-164 76-172 9l43-7c4 19 20 25 44 25 33 8 57-30 24-41C81-84 22-81 20-136c-2-80 154-74 161-7" id="F"/><path fill="#333" d="M25-224v-37h50v37H25zM25 0v-190h50V0H25" id="G"/><path fill="#333" d="M135-194c52 0 70 43 70 98 0 56-19 99-73 100-30 1-46-15-58-35L72 0H24l1-261h50v104c11-23 29-37 60-37zM114-30c31 0 40-27 40-66 0-37-7-63-39-63s-41 28-41 65c0 36 8 64 40 64" id="H"/><path fill="#333" d="M25 0v-261h50V0H25" id="I"/><path fill="#333" d="M185-48c-13 30-37 53-82 52C43 2 14-33 14-96s30-98 90-98c62 0 83 45 84 108H66c0 31 8 55 39 56 18 0 30-7 34-22zm-45-69c5-46-57-63-70-21-2 6-4 13-4 21h74" id="J"/><g id="e"><use transform="matrix(0.08024691358024691,0,0,0.08024691358024691,0,0)" xlink:href="#v"/><use transform="matrix(0.08024691358024691,0,0,0.08024691358024691,20.78395061728395,0)" xlink:href="#E"/><use transform="matrix(0.08024691358024691,0,0,0.08024691358024691,38.358024691358025,0)" xlink:href="#F"/><use transform="matrix(0.08024691358024691,0,0,0.08024691358024691,54.407407407407405,0)" xlink:href="#G"/><use transform="matrix(0.08024691358024691,0,0,0.08024691358024691,62.432098765432094,0)" xlink:href="#H"/><use transform="matrix(0.08024691358024691,0,0,0.08024691358024691,80.00617283950616,0)" xlink:href="#I"/><use transform="matrix(0.08024691358024691,0,0,0.08024691358024691,88.03086419753086,0)" xlink:href="#J"/></g><path fill="#333" d="M128 0H69L1-190h53L99-40l48-150h52" id="K"/><path fill="#333" d="M115-3C79 11 28 4 28-45v-112H4v-33h27l15-45h31v45h36v33H77v99c-1 23 16 31 38 25v30" id="L"/><path fill="#333" d="M110-194c64 0 96 36 96 99 0 64-35 99-97 99-61 0-95-36-95-99 0-62 34-99 96-99zm-1 164c35 0 45-28 45-65 0-40-10-65-43-65-34 0-45 26-45 65 0 36 10 65 43 65" id="M"/><path fill="#333" d="M135-150c-39-12-60 13-60 57V0H25l-1-190h47c2 13-1 29 3 40 6-28 27-53 61-41v41" id="N"/><path fill="#333" d="M123 10C108 53 80 86 19 72V37c35 8 53-11 59-39L3-190h52l48 148c12-52 28-100 44-148h51" id="O"/><g id="f"><use transform="matrix(0.08024691358024691,0,0,0.08024691358024691,0,0)" xlink:href="#y"/><use transform="matrix(0.08024691358024691,0,0,0.08024691358024691,8.024691358024691,0)" xlink:href="#E"/><use transform="matrix(0.08024691358024691,0,0,0.08024691358024691,25.598765432098762,0)" xlink:href="#K"/><use transform="matrix(0.08024691358024691,0,0,0.08024691358024691,41.64814814814815,0)" xlink:href="#J"/><use transform="matrix(0.08024691358024691,0,0,0.08024691358024691,57.697530864197525,0)" xlink:href="#E"/><use transform="matrix(0.08024691358024691,0,0,0.08024691358024691,75.27160493827161,0)" xlink:href="#L"/><use transform="matrix(0.08024691358024691,0,0,0.08024691358024691,84.82098765432099,0)" xlink:href="#M"/><use transform="matrix(0.08024691358024691,0,0,0.08024691358024691,102.39506172839505,0)" xlink:href="#N"/><use transform="matrix(0.08024691358024691,0,0,0.08024691358024691,113.62962962962965,0)" xlink:href="#O"/></g><path fill="#333" d="M67-125c0 54 23 88 75 88 28 0 53-7 68-21v-34h-60v-39h108v91C232-14 192 4 140 4 58 4 20-42 15-125 8-236 126-280 215-234c19 10 29 26 37 47l-47 15c-11-23-29-39-63-39-53 1-75 33-75 86" id="P"/><path fill="#333" d="M85 4C-2 5 27-109 22-190h50c7 57-23 150 33 157 60-5 35-97 40-157h50l1 190h-47c-2-12 1-28-3-38-12 25-28 42-61 42" id="Q"/><path fill="#333" d="M135-194c53 0 70 44 70 98 0 56-19 98-73 100-31 1-45-17-59-34 3 33 2 69 2 105H25l-1-265h48c2 10 0 23 3 31 11-24 29-35 60-35zM114-30c33 0 39-31 40-66 0-38-9-64-40-64-56 0-55 130 0 130" id="R"/><g id="g"><use transform="matrix(0.08024691358024691,0,0,0.08024691358024691,0,0)" xlink:href="#P"/><use transform="matrix(0.08024691358024691,0,0,0.08024691358024691,22.469135802469136,0)" xlink:href="#N"/><use transform="matrix(0.08024691358024691,0,0,0.08024691358024691,33.7037037037037,0)" xlink:href="#M"/><use transform="matrix(0.08024691358024691,0,0,0.08024691358024691,51.27777777777777,0)" xlink:href="#Q"/><use transform="matrix(0.08024691358024691,0,0,0.08024691358024691,68.85185185185185,0)" xlink:href="#R"/><use transform="matrix(0.08024691358024691,0,0,0.08024691358024691,86.42592592592592,0)" xlink:href="#F"/></g><path fill="#333" d="M195 0l-88-114-31 24V0H24v-248h52v113l112-113h60L142-143 257 0h-62" id="S"/><path fill="#333" d="M182-182c0 78-84 86-111 141h115V0H12c-6-101 99-100 120-180 1-22-12-31-33-32-23 0-32 14-35 34l-49-3c5-45 32-70 84-70 51 0 83 22 83 69" id="T"/><g id="h"><use transform="matrix(0.06172839506172839,0,0,0.06172839506172839,0,0)" xlink:href="#x"/><use transform="matrix(0.06172839506172839,0,0,0.06172839506172839,15.987654320987653,0)" xlink:href="#v"/><use transform="matrix(0.06172839506172839,0,0,0.06172839506172839,31.975308641975307,0)" xlink:href="#r"/><use transform="matrix(0.06172839506172839,0,0,0.06172839506172839,47.96296296296296,0)" xlink:href="#S"/><use transform="matrix(0.06172839506172839,0,0,0.06172839506172839,63.95061728395061,0)" xlink:href="#T"/></g><g id="i"><use transform="matrix(0.06172839506172839,0,0,0.06172839506172839,0,0)" xlink:href="#x"/><use transform="matrix(0.06172839506172839,0,0,0.06172839506172839,15.987654320987653,0)" xlink:href="#v"/><use transform="matrix(0.06172839506172839,0,0,0.06172839506172839,31.975308641975307,0)" xlink:href="#r"/><use transform="matrix(0.06172839506172839,0,0,0.06172839506172839,47.96296296296296,0)" xlink:href="#S"/><use transform="matrix(0.06172839506172839,0,0,0.06172839506172839,63.95061728395061,0)" xlink:href="#s"/></g><path fill="#fff" d="M371-216h461V0H108v-1328h263v1112" id="U"/><path fill="#fff" d="M928-1328v209H382v351h425v201H382v358h547L928 0H118v-1328h810" id="V"/><path fill="#fff" d="M1240 0h-202c-47 1-76-24-87-58l-84-261H378L295-59c-11 29-44 59-86 59H4l484-1328h268zM437-503h370c-61-196-127-384-186-583-56 202-123 386-184 583" id="W"/><path fill="#fff" d="M890-1328v209H373v376h433v209H373V0H109v-1328h781" id="X"/><path fill="#fff" d="M113-955c38-239 181-388 448-388 186 0 310 81 369 209 18 42 27 87 27 134 1 168-77 256-203 297 151 51 227 154 227 307C981-126 800 8 532 14 260 20 143-131 76-338c63-25 186-102 236-14 46 82 93 164 218 164 130 0 203-76 210-200 9-175-112-206-288-206v-171c158-2 269-37 269-193 0-117-60-182-173-183-99-1-165 67-190 142-19 57-44 79-118 66" id="Y"/><g id="k"><use transform="matrix(0.013020833333333334,0,0,0.013020833333333334,0,0)" xlink:href="#U"/><use transform="matrix(0.013020833333333334,0,0,0.013020833333333334,11.276041666666668,0)" xlink:href="#V"/><use transform="matrix(0.013020833333333334,0,0,0.013020833333333334,23.958333333333336,0)" xlink:href="#W"/><use transform="matrix(0.013020833333333334,0,0,0.013020833333333334,40.1171875,0)" xlink:href="#X"/><use transform="matrix(0.013020833333333334,0,0,0.013020833333333334,52.356770833333336,0)" xlink:href="#Y"/></g><filter id="j" filterUnits="objectBoundingBox" x="-.06" y="-.04" width="1.12" height="1.21"><feOffset result="offOut" in="SourceAlpha" dy="6"/><feGaussianBlur result="blurOut" in="offOut" stdDeviation="5"/><feColorMatrix result="colorOut" in="blurOut" values="0 0 0 0 0 0 0 0 0 0 0 0 0 0 0 0 0 0 0.5019607843137255 0"/><feBlend in="SourceGraphic" in2="colorOut"/></filter><path fill="#fff" d="M1007-505c-9 70 29 185-49 186H854V0H644v-319H105c-83-4-69-108-90-173l609-837h230v824h153zm-363 0c3-182-8-376 8-546L269-505h375" id="Z"/><g id="l"><use transform="matrix(0.013020833333333334,0,0,0.013020833333333334,0,0)" xlink:href="#U"/><use transform="matrix(0.013020833333333334,0,0,0.013020833333333334,11.276041666666668,0)" xlink:href="#V"/><use transform="matrix(0.013020833333333334,0,0,0.013020833333333334,23.958333333333336,0)" xlink:href="#W"/><use transform="matrix(0.013020833333333334,0,0,0.013020833333333334,40.1171875,0)" xlink:href="#X"/><use transform="matrix(0.013020833333333334,0,0,0.013020833333333334,52.356770833333336,0)" xlink:href="#Z"/></g><path fill="#fff" d="M236-180h257c2-279-3-565 3-840L323-871c-27 30-91 18-110-9l-76-104 399-346h198v1150h227V0H236v-180" id="aa"/><g id="m"><use transform="matrix(0.013020833333333334,0,0,0.013020833333333334,0,0)" xlink:href="#U"/><use transform="matrix(0.013020833333333334,0,0,0.013020833333333334,11.276041666666668,0)" xlink:href="#V"/><use transform="matrix(0.013020833333333334,0,0,0.013020833333333334,23.958333333333336,0)" xlink:href="#W"/><use transform="matrix(0.013020833333333334,0,0,0.013020833333333334,40.1171875,0)" xlink:href="#X"/><use transform="matrix(0.013020833333333334,0,0,0.013020833333333334,52.356770833333336,0)" xlink:href="#aa"/></g><path fill="#fff" d="M89-955c40-238 181-388 449-388 250 0 409 134 409 381 0 232-139 347-258 472L407-195c126-46 310-24 475-29 49-1 86 32 85 80V0H69c-2-76 0-138 43-180 161-160 326-321 472-494 63-74 110-153 115-281 6-143-107-217-242-175-61 19-100 69-121 131-19 56-46 79-119 66" id="ab"/><g id="n"><use transform="matrix(0.013020833333333334,0,0,0.013020833333333334,0,0)" xlink:href="#U"/><use transform="matrix(0.013020833333333334,0,0,0.013020833333333334,11.276041666666668,0)" xlink:href="#V"/><use transform="matrix(0.013020833333333334,0,0,0.013020833333333334,23.958333333333336,0)" xlink:href="#W"/><use transform="matrix(0.013020833333333334,0,0,0.013020833333333334,40.1171875,0)" xlink:href="#X"/><use transform="matrix(0.013020833333333334,0,0,0.013020833333333334,52.356770833333336,0)" xlink:href="#ab"/></g><path fill="#fff" d="M469-200c119 0 194-62 190-182-5-155-165-165-285-207C212-646 83-736 88-958c4-182 105-295 242-352 113-48 278-41 392 4 65 25 120 59 166 104l-67 124c-13 37-61 47-98 23-55-35-117-75-210-75-111 0-181 57-181 159 0 146 173 155 287 201 153 61 292 138 287 351-7 273-167 433-444 433-190 0-326-77-424-175l78-125c18-34 71-42 108-14 63 47 132 100 245 100" id="ac"/><path fill="#fff" d="M1037-902c0 300-189 436-495 441H378V0H115v-1328h427c303 4 495 131 495 426zm-263 0c0-143-81-224-232-224H378v461h164c156 2 232-87 232-237" id="ad"/><path fill="#fff" d="M405 0H141v-1328h264V0" id="ae"/><path fill="#fff" d="M122-1328c70 6 164-16 206 20 6 5 13 12 20 21l654 862c-4-44-6-86-6-125v-778h231V0c-62-4-141 10-187-10-14-6-27-18-40-35L348-902c4 41 6 80 6 115V0H122v-1328" id="af"/><g id="o"><use transform="matrix(0.013020833333333334,0,0,0.013020833333333334,0,0)" xlink:href="#ac"/><use transform="matrix(0.013020833333333334,0,0,0.013020833333333334,12.604166666666668,0)" xlink:href="#ad"/><use transform="matrix(0.013020833333333334,0,0,0.013020833333333334,26.796875,0)" xlink:href="#ae"/><use transform="matrix(0.013020833333333334,0,0,0.013020833333333334,33.90625,0)" xlink:href="#af"/><use transform="matrix(0.013020833333333334,0,0,0.013020833333333334,51.47135416666667,0)" xlink:href="#V"/><use transform="matrix(0.013020833333333334,0,0,0.013020833333333334,64.47916666666667,0)" xlink:href="#aa"/></g><g id="p"><use transform="matrix(0.013020833333333334,0,0,0.013020833333333334,0,0)" xlink:href="#ac"/><use transform="matrix(0.013020833333333334,0,0,0.013020833333333334,12.604166666666668,0)" xlink:href="#ad"/><use transform="matrix(0.013020833333333334,0,0,0.013020833333333334,26.796875,0)" xlink:href="#ae"/><use transform="matrix(0.013020833333333334,0,0,0.013020833333333334,33.90625,0)" xlink:href="#af"/><use transform="matrix(0.013020833333333334,0,0,0.013020833333333334,51.47135416666667,0)" xlink:href="#V"/><use transform="matrix(0.013020833333333334,0,0,0.013020833333333334,64.47916666666667,0)" xlink:href="#ab"/></g></defs></g></svg>