<svg xmlns="http://www.w3.org/2000/svg" xmlns:xlink="http://www.w3.org/1999/xlink" xmlns:lucid="lucid" width="1326" height="715"><g transform="translate(-233 -352)" lucid:page-tab-id="EkWQ2hv4MrNf"><path d="M0 0h3456v1360H0z" fill="#fff"/><path d="M272.77 392.24h1230.28v60H272.77z" fill="none"/><use xlink:href="#a" transform="matrix(1,0,0,1,272.7686880858787,392.23999617851194) translate(526.2777777777778 35.33333333333333)"/><use xlink:href="#b" transform="matrix(1,0,0,1,272.7686880858787,392.23999617851194) translate(590.8703703703704 35.33333333333333)"/><path d="M272.77 458.24a6 6 0 0 1 6-6h1218.28a6 6 0 0 1 6 6v535.24a6 6 0 0 1-6 6H278.77a6 6 0 0 1-6-6z" stroke="#dbdbdb" stroke-width="3" fill="#f2f3f5"/><path d="M651.2 522.18a19 19 0 0 1 19-19h456.83a19 19 0 0 1 19 19v147.6a19 19 0 0 1-19 19H670.2a19 19 0 0 1-19-19zM1013.76 808.56a19 19 0 0 1 19-19h422a19 19 0 0 1 19 19V957.1a19 19 0 0 1-19 19h-422a19 19 0 0 1-19-19zM306.02 808.56a19 19 0 0 1 19-19h422a19 19 0 0 1 19 19V957.1a19 19 0 0 1-19 19h-422a19 19 0 0 1-19-19z" stroke="#ced4db" stroke-width="3" fill="#ced4db"/><g filter="url(#c)"><path d="M1036.14 823.3a.5.5 0 0 0-.5.5v93.4a.5.5 0 0 0 .5.5h168.64a.5.5 0 0 0 .5-.5v-93.4a.5.5 0 0 0-.5-.5z" stroke="#315796" stroke-width="3" fill="#315796"/><use xlink:href="#d" transform="matrix(1,0,0,1,1045.4836325745723,834.3330261138427) translate(17.36979166666667 43.166666666666664)"/></g><g filter="url(#c)"><path d="M1276.14 823.3a.5.5 0 0 0-.5.5v93.4a.5.5 0 0 0 .5.5h168.64a.5.5 0 0 0 .5-.5v-93.4a.5.5 0 0 0-.5-.5z" stroke="#315796" stroke-width="3" fill="#315796"/><use xlink:href="#e" transform="matrix(1,0,0,1,1285.4836325745725,834.3330261138427) translate(16.796875000000007 43.166666666666664)"/></g><g filter="url(#c)"><path d="M327.88 823.3a.5.5 0 0 0-.5.5v93.4a.5.5 0 0 0 .5.5h168.64a.5.5 0 0 0 .5-.5v-93.4a.5.5 0 0 0-.5-.5z" stroke="#315796" stroke-width="3" fill="#315796"/><use xlink:href="#f" transform="matrix(1,0,0,1,337.22101123682074,834.333026113843) translate(17.36979166666667 43.166666666666664)"/></g><g filter="url(#c)"><path d="M567.88 823.3a.5.5 0 0 0-.5.5v93.4a.5.5 0 0 0 .5.5h168.64a.5.5 0 0 0 .5-.5v-93.4a.5.5 0 0 0-.5-.5z" stroke="#315796" stroke-width="3" fill="#315796"/><use xlink:href="#g" transform="matrix(1,0,0,1,577.2210112368207,834.333026113843) translate(16.796875000000007 43.166666666666664)"/></g><path d="M479.88 859.96a.5.5 0 0 0-.5.5v21.03a.5.5 0 0 0 .5.5h37a.5.5 0 0 0 .5-.5v-21.04a.5.5 0 0 0-.5-.5z" stroke="#5e5e5e" fill="#fff"/><use xlink:href="#h" transform="matrix(1,0,0,1,493.78338045573526,858.9950412622222) translate(-11.669921874999993 15.333333333333332)"/><path d="M547.88 859.96a.5.5 0 0 0-.5.5v21.03a.5.5 0 0 0 .5.5h37a.5.5 0 0 0 .5-.5v-21.04a.5.5 0 0 0-.5-.5z" stroke="#5e5e5e" fill="#fff"/><use xlink:href="#h" transform="matrix(1,0,0,1,561.7833804557353,858.9950412622222) translate(-11.669921874999993 15.333333333333332)"/><path d="M519.37 870.98h3.9m5.2 0h7.82m5.2 0h3.9" stroke="#00ba95" stroke-width="3" fill="none"/><path d="M519.4 872.48h-1.53v-3h1.54zM546.9 872.48h-1.54v-3h1.54z" stroke="#00ba95" stroke-width=".05" fill="#00ba95"/><path d="M1187.78 858.96a.5.5 0 0 0-.5.5v21.03a.5.5 0 0 0 .5.5h37a.5.5 0 0 0 .5-.5v-21.04a.5.5 0 0 0-.5-.5z" stroke="#5e5e5e" fill="#fff"/><use xlink:href="#h" transform="matrix(1,0,0,1,1201.686096892126,857.9950412622222) translate(-11.669921874999993 15.333333333333332)"/><path d="M1255.78 858.96a.5.5 0 0 0-.5.5v21.03a.5.5 0 0 0 .5.5h37a.5.5 0 0 0 .5-.5v-21.04a.5.5 0 0 0-.5-.5z" stroke="#5e5e5e" fill="#fff"/><use xlink:href="#h" transform="matrix(1,0,0,1,1269.686096892126,857.9950412622222) translate(-11.669921874999993 15.333333333333332)"/><path d="M1227.27 869.98h3.9m5.2 0h7.82m5.2 0h3.9" stroke="#00ba95" stroke-width="3" fill="none"/><path d="M1227.3 871.48h-1.53v-3h1.54zM1254.8 871.48h-1.54v-3h1.54z" stroke="#00ba95" stroke-width=".05" fill="#00ba95"/><g filter="url(#c)"><path d="M674.62 560.56a.5.5 0 0 0-.5.5v93.42a.5.5 0 0 0 .5.5h168.64a.5.5 0 0 0 .5-.5v-93.42a.5.5 0 0 0-.5-.5z" stroke="#315796" stroke-width="3" fill="#315796"/><use xlink:href="#i" transform="matrix(1,0,0,1,683.9583054308096,571.6118128789797) translate(15.052083333333329 43.166666666666664)"/></g><g filter="url(#c)"><path d="M954.62 560.56a.5.5 0 0 0-.5.5v93.42a.5.5 0 0 0 .5.5h168.64a.5.5 0 0 0 .5-.5v-93.42a.5.5 0 0 0-.5-.5z" stroke="#315796" stroke-width="3" fill="#315796"/><use xlink:href="#j" transform="matrix(1,0,0,1,963.9583054308096,571.6118128789797) translate(15.052083333333329 43.166666666666664)"/></g><path d="M393.7 810.9l3.98-1.9m5.33-2.53l8-3.8m5.34-2.52l8-3.78m5.32-2.53l8-3.8m5.33-2.5l7.98-3.8m5.33-2.52l8-3.8m5.34-2.52l8-3.78m5.33-2.53l8-3.8m5.32-2.52l8-3.8m5.32-2.5l8-3.8m5.32-2.53l8-3.78m5.33-2.53l8-3.8m5.32-2.5l8-3.8m5.32-2.52l8-3.8m5.32-2.52l8-3.78m5.33-2.53l8-3.8m5.32-2.52l8-3.8m5.32-2.5l8-3.8m5.32-2.53l8-3.78m5.33-2.53l8-3.8m5.32-2.5l8-3.8m5.32-2.53l8-3.77m5.32-2.53l8-3.8m5.33-2.5l4-1.9" stroke="#e08fff" stroke-width="3" fill="none"/><path d="M394.03 811.53H389l-.02-.07 4.1-1.95zM704.84 665.06l.03.07-4.1 1.94-.95-2.02z" stroke="#e08fff" stroke-width=".05" fill="#e08fff"/><path d="M433 811.14l4.4-1.18m5.84-1.58l8.76-2.36m5.84-1.58l8.77-2.36m5.85-1.57l8.76-2.36m5.86-1.57l8.76-2.37m5.84-1.57l8.77-2.36m5.84-1.58l8.76-2.37m5.85-1.58l8.76-2.36m5.84-1.58l8.77-2.37m5.84-1.57l8.75-2.36m5.85-1.58l8.76-2.36m5.84-1.58l8.77-2.36m5.84-1.57l8.77-2.37m5.85-1.57l8.76-2.37m5.84-1.57l8.77-2.37m5.83-1.58l8.76-2.36m5.84-1.6l8.76-2.35m5.84-1.57l8.77-2.37m5.85-1.56l8.76-2.36m5.86-1.58l8.76-2.36m5.84-1.58l8.77-2.36m5.84-1.57l8.76-2.37m5.85-1.57l8.76-2.38m5.84-1.57l8.77-2.36m5.84-1.6l8.75-2.35m5.85-1.58l8.76-2.36m5.84-1.56l8.77-2.37M823 706l8.77-2.36m5.85-1.58l8.76-2.36m5.84-1.58l8.77-2.36m5.83-1.57l8.76-2.38m5.84-1.57l8.76-2.36m5.84-1.6l8.77-2.35m5.85-1.58l8.76-2.36m5.86-1.57l8.76-2.36m5.84-1.57l8.77-2.37m5.84-1.57l8.76-2.36m5.85-1.58l4.38-1.18" stroke="#e08fff" stroke-width="3" fill="none"/><path d="M433.16 811.53h-4.7l-.18-.67 4.38-1.18zM978 665.05l.2.67-4.4 1.18-.5-1.85z" stroke="#e08fff" stroke-width=".05" fill="#e08fff"/><path d="M633.35 810.3l2.43-3.6m3.25-4.8l4.88-7.2m3.26-4.8l4.88-7.2m3.25-4.8l4.86-7.2m3.25-4.8l4.9-7.2m3.24-4.8l4.87-7.2m3.26-4.8l4.88-7.2m3.25-4.8l4.86-7.2m3.25-4.8l4.9-7.2m3.24-4.8l4.88-7.2m3.25-4.8l4.87-7.2m3.25-4.8l4.87-7.2m3.25-4.8l2.44-3.6" stroke="#e08fff" stroke-width="3" fill="none"/><path d="M634.6 811.1l-.28.43h-3.62l1.43-2.12zM733.5 665.05l-1.42 2.1-2.5-1.67.3-.43z" stroke="#e08fff" stroke-width=".05" fill="#e08fff"/><path d="M674.24 810.94l4.1-1.74m5.48-2.33l8.2-3.48m5.48-2.34l8.2-3.5m5.48-2.3l8.2-3.5m5.48-2.32l8.2-3.5m5.48-2.32l8.2-3.48m5.48-2.33l8.2-3.48m5.48-2.32l8.2-3.5m5.48-2.3l8.2-3.5m5.48-2.32l8.2-3.5m5.5-2.32l8.2-3.48m5.47-2.33l8.2-3.5m5.48-2.3l8.22-3.5m5.47-2.32l8.2-3.5m5.47-2.3l8.2-3.5m5.48-2.33l8.2-3.48m5.48-2.33l8.2-3.5m5.48-2.32l8.22-3.5m5.47-2.3l8.2-3.5m5.48-2.33l8.2-3.48m5.48-2.33l8.2-3.5m5.48-2.3l8.2-3.5m5.48-2.32l8.2-3.5m5.48-2.3l8.2-3.5m5.48-2.33l8.2-3.5m5.48-2.32l4.1-1.74" stroke="#e08fff" stroke-width="3" fill="none"/><path d="M674.53 811.53h-4.93l-.1-.2 4.2-1.78zM1020.9 665.05l.1.2-4.18 1.78-.84-1.98z" stroke="#e08fff" stroke-width=".05" fill="#e08fff"/><path d="M1102.43 810.9l-4.2-1.88m-5.57-2.53l-8.38-3.8m-5.6-2.52l-8.36-3.8m-5.6-2.52l-8.37-3.8m-5.58-2.5l-8.38-3.8m-5.6-2.53l-8.37-3.8m-5.6-2.5l-8.37-3.8m-5.58-2.53l-8.38-3.8m-5.6-2.5l-8.36-3.8m-5.6-2.53l-8.37-3.8m-5.58-2.5l-8.4-3.8m-5.57-2.53l-8.38-3.8m-5.6-2.5l-8.37-3.8m-5.58-2.53l-8.38-3.78m-5.58-2.52l-8.38-3.8m-5.6-2.52l-8.37-3.8m-5.6-2.5l-8.37-3.8m-5.58-2.53l-8.38-3.78m-5.6-2.53l-8.36-3.8m-5.58-2.52l-8.38-3.78m-5.58-2.53l-8.38-3.78m-5.6-2.53l-8.36-3.8m-5.6-2.52l-8.37-3.8m-5.58-2.5l-4.2-1.9" stroke="#e08fff" stroke-width="3" fill="none"/><path d="M1107.15 811.4l-.06.13h-5l.9-2zM781.6 665.05l-.9 2-4.14-1.87.06-.13z" stroke="#e08fff" stroke-width=".05" fill="#e08fff"/><path d="M1134.27 810.18l-1.92-3.92m-2.56-5.23l-3.84-7.85m-2.56-5.22l-3.84-7.85m-2.55-5.2l-3.83-7.86m-2.56-5.22l-3.82-7.85m-2.56-5.22l-3.84-7.85m-2.55-5.22l-3.84-7.85m-2.57-5.22l-3.83-7.84m-2.56-5.23l-3.84-7.84m-2.56-5.24l-3.83-7.84m-2.55-5.23l-3.84-7.85m-2.54-5.23l-1.92-3.92" stroke="#e08fff" stroke-width="3" fill="none"/><path d="M1136.6 811.52h-3.34l-.36-.72 2.7-1.32zM1064.95 665.06l.35.72-2.7 1.32-1-2.05z" stroke="#e08fff" stroke-width=".05" fill="#e08fff"/><path d="M1338.62 811.12l-4.3-1.2m-5.76-1.63l-8.63-2.44m-5.75-1.62l-8.63-2.43m-5.75-1.6l-8.62-2.43m-5.76-1.62l-8.62-2.43m-5.75-1.62l-8.63-2.42m-5.75-1.62l-8.63-2.43m-5.75-1.62l-8.64-2.42m-5.75-1.6l-8.62-2.44m-5.75-1.62l-8.62-2.43m-5.75-1.63l-8.62-2.42m-5.75-1.62l-8.63-2.43m-5.75-1.62l-8.63-2.43m-5.75-1.62l-8.63-2.42m-5.76-1.6l-8.63-2.44m-5.74-1.62l-8.62-2.43m-5.75-1.6l-8.64-2.43m-5.75-1.62l-8.62-2.43m-5.75-1.62l-8.63-2.42m-5.75-1.62l-8.63-2.43m-5.75-1.62l-8.62-2.42m-5.76-1.6l-8.63-2.44m-5.75-1.62l-8.63-2.43m-5.76-1.63l-8.63-2.42m-5.74-1.62l-8.63-2.43m-5.75-1.62l-8.63-2.43m-5.75-1.62l-8.62-2.42m-5.76-1.6l-8.62-2.44m-5.75-1.62l-8.63-2.43m-5.75-1.6l-8.63-2.43m-5.75-1.62l-8.64-2.43m-5.75-1.62l-8.62-2.42m-5.75-1.62l-8.62-2.43m-5.75-1.62l-8.62-2.42m-5.75-1.6l-8.63-2.44m-5.75-1.62l-8.63-2.43m-5.75-1.63l-4.3-1.2" stroke="#e08fff" stroke-width="3" fill="none"/><path d="M1343.36 810.9l-.18.63h-4.7l.5-1.86zM821.16 665.05l-.52 1.86-4.37-1.22.18-.63z" stroke="#e08fff" stroke-width=".05" fill="#e08fff"/><path d="M1378.44 810.83l-3.96-2.07m-5.3-2.76l-7.92-4.15m-5.3-2.76l-7.92-4.16m-5.3-2.76l-7.92-4.15m-5.3-2.76l-7.92-4.15m-5.3-2.76l-7.92-4.14m-5.3-2.77l-7.93-4.14m-5.28-2.76l-7.94-4.14m-5.28-2.77l-7.94-4.14m-5.28-2.77l-7.93-4.15m-5.3-2.76l-7.93-4.15m-5.3-2.76l-7.92-4.14m-5.3-2.76l-7.92-4.15m-5.3-2.76l-7.92-4.15m-5.28-2.77l-7.93-4.14m-5.3-2.77l-7.93-4.14m-5.3-2.77l-7.92-4.14m-5.3-2.76l-7.92-4.15m-5.3-2.75l-7.92-4.15m-5.28-2.76l-7.93-4.15m-5.3-2.77l-7.94-4.15m-5.28-2.76l-3.97-2.07" stroke="#e08fff" stroke-width="3" fill="none"/><path d="M1383.02 811.53h-4.98l1.07-2.04zM1101.22 665.05l-1.07 2.04-3.9-2.05z" stroke="#e08fff" stroke-width=".05" fill="#e08fff"/><path d="M680.44 642.53a.5.5 0 0 0-.5.5v21.03a.5.5 0 0 0 .5.5h37a.5.5 0 0 0 .5-.5v-21.03a.5.5 0 0 0-.5-.5z" stroke="#5e5e5e" fill="#fff"/><use xlink:href="#k" transform="matrix(1,0,0,1,694.3411157078953,641.5649309668115) translate(0.49479166666666696 16.444444444444443)"/><path d="M720.44 642.53a.5.5 0 0 0-.5.5v21.03a.5.5 0 0 0 .5.5h37a.5.5 0 0 0 .5-.5v-21.03a.5.5 0 0 0-.5-.5z" stroke="#5e5e5e" fill="#fff"/><use xlink:href="#l" transform="matrix(1,0,0,1,734.3395416724915,641.5649309668115) translate(0.49479166666666696 16.444444444444443)"/><path d="M760.44 642.53a.5.5 0 0 0-.5.5v21.03a.5.5 0 0 0 .5.5h37a.5.5 0 0 0 .5-.5v-21.03a.5.5 0 0 0-.5-.5z" stroke="#5e5e5e" fill="#fff"/><use xlink:href="#m" transform="matrix(1,0,0,1,774.3419027255972,641.5649309668115) translate(0.49479166666666696 16.444444444444443)"/><path d="M800.44 642.53a.5.5 0 0 0-.5.5v21.03a.5.5 0 0 0 .5.5h37a.5.5 0 0 0 .5-.5v-21.03a.5.5 0 0 0-.5-.5z" stroke="#5e5e5e" fill="#fff"/><use xlink:href="#n" transform="matrix(1,0,0,1,814.3403286901936,641.5649309668115) translate(0.49479166666666696 16.444444444444443)"/><path d="M960.44 642.53a.5.5 0 0 0-.5.5v21.03a.5.5 0 0 0 .5.5h37a.5.5 0 0 0 .5-.5v-21.03a.5.5 0 0 0-.5-.5z" stroke="#5e5e5e" fill="#fff"/><use xlink:href="#k" transform="matrix(1,0,0,1,974.341115707895,641.5649309668115) translate(0.49479166666666696 16.444444444444443)"/><path d="M1000.44 642.53a.5.5 0 0 0-.5.5v21.03a.5.5 0 0 0 .5.5h37a.5.5 0 0 0 .5-.5v-21.03a.5.5 0 0 0-.5-.5z" stroke="#5e5e5e" fill="#fff"/><use xlink:href="#l" transform="matrix(1,0,0,1,1014.3395416724924,641.5649309668115) translate(0.49479166666666696 16.444444444444443)"/><path d="M1040.44 642.53a.5.5 0 0 0-.5.5v21.03a.5.5 0 0 0 .5.5h37a.5.5 0 0 0 .5-.5v-21.03a.5.5 0 0 0-.5-.5z" stroke="#5e5e5e" fill="#fff"/><use xlink:href="#m" transform="matrix(1,0,0,1,1054.341902725597,641.5649309668115) translate(0.49479166666666696 16.444444444444443)"/><path d="M1080.44 642.53a.5.5 0 0 0-.5.5v21.03a.5.5 0 0 0 .5.5h37a.5.5 0 0 0 .5-.5v-21.03a.5.5 0 0 0-.5-.5z" stroke="#5e5e5e" fill="#fff"/><use xlink:href="#n" transform="matrix(1,0,0,1,1094.3403286901935,641.5649309668115) translate(0.49479166666666696 16.444444444444443)"/><path d="M374.16 812.02a.5.5 0 0 0-.5.5v21.03a.5.5 0 0 0 .5.5h37a.5.5 0 0 0 .5-.5v-21.03a.5.5 0 0 0-.5-.5z" stroke="#5e5e5e" fill="#fff"/><use xlink:href="#k" transform="matrix(1,0,0,1,388.0616578185392,811.0459971411276) translate(0.49479166666666696 16.444444444444443)"/><path d="M413.24 812.02a.5.5 0 0 0-.5.5v21.03a.5.5 0 0 0 .5.5h37a.5.5 0 0 0 .5-.5v-21.03a.5.5 0 0 0-.5-.5z" stroke="#5e5e5e" fill="#fff"/><use xlink:href="#l" transform="matrix(1,0,0,1,427.14519819157215,811.0459971411276) translate(0.49479166666666696 16.444444444444443)"/><path d="M613.7 812.02a.5.5 0 0 0-.5.5v21.03a.5.5 0 0 0 .5.5h37a.5.5 0 0 0 .5-.5v-21.03a.5.5 0 0 0-.5-.5z" stroke="#5e5e5e" fill="#fff"/><use xlink:href="#k" transform="matrix(1,0,0,1,627.6042150227576,811.0459971411276) translate(0.49479166666666696 16.444444444444443)"/><path d="M653.7 812.02a.5.5 0 0 0-.5.5v21.03a.5.5 0 0 0 .5.5h37a.5.5 0 0 0 .5-.5v-21.03a.5.5 0 0 0-.5-.5z" stroke="#5e5e5e" fill="#fff"/><use xlink:href="#l" transform="matrix(1,0,0,1,667.6026409873538,811.0459971411276) translate(0.49479166666666696 16.444444444444443)"/><path d="M1081.97 812.02a.5.5 0 0 0-.5.5v21.03a.5.5 0 0 0 .5.5h37a.5.5 0 0 0 .5-.5v-21.03a.5.5 0 0 0-.5-.5z" stroke="#5e5e5e" fill="#fff"/><use xlink:href="#k" transform="matrix(1,0,0,1,1095.8668363605088,811.0459971411276) translate(0.49479166666666696 16.444444444444443)"/><path d="M1121.96 812.02a.5.5 0 0 0-.5.5v21.03a.5.5 0 0 0 .5.5h37a.5.5 0 0 0 .5-.5v-21.03a.5.5 0 0 0-.5-.5z" stroke="#5e5e5e" fill="#fff"/><use xlink:href="#l" transform="matrix(1,0,0,1,1135.865262325105,811.0459971411276) translate(0.49479166666666696 16.444444444444443)"/><path d="M1321.97 812.02a.5.5 0 0 0-.5.5v21.03a.5.5 0 0 0 .5.5h37a.5.5 0 0 0 .5-.5v-21.03a.5.5 0 0 0-.5-.5z" stroke="#5e5e5e" fill="#fff"/><use xlink:href="#k" transform="matrix(1,0,0,1,1335.8668363605088,811.0459971411276) translate(0.49479166666666696 16.444444444444443)"/><path d="M1361.96 812.02a.5.5 0 0 0-.5.5v21.03a.5.5 0 0 0 .5.5h37a.5.5 0 0 0 .5-.5v-21.03a.5.5 0 0 0-.5-.5z" stroke="#5e5e5e" fill="#fff"/><use xlink:href="#l" transform="matrix(1,0,0,1,1375.865262325105,811.0459971411276) translate(0.49479166666666696 16.444444444444443)"/><path d="M272.77 452.24h1230.28v60H272.77z" fill="none"/><use xlink:href="#o" transform="matrix(1,0,0,1,272.7686880858787,452.23999617851194) translate(586.6913580246913 35.77777777777778)"/><path d="M1213.46 812.94h49.65v33h-49.64z" fill="none"/><use xlink:href="#p" transform="matrix(1,0,0,1,1213.4582441309976,812.9366617139639) translate(10.762345679012348 19.61111111111111)"/><path d="M507.46 812.94h49.65v33h-49.64z" fill="none"/><use xlink:href="#p" transform="matrix(1,0,0,1,507.45824413099683,812.9366617139639) translate(10.762345679012348 19.61111111111111)"/><path d="M808.1 517.4h161.6v36H808.1z" fill="none"/><use xlink:href="#q" transform="matrix(1,0,0,1,808.1008124530115,517.40045175853) translate(34.73456790123456 22.944444444444443)"/><path d="M455.2 940.1h161.63v36H455.2z" fill="none"/><use xlink:href="#r" transform="matrix(1,0,0,1,455.2131391345251,940.0974341564607) translate(34.73456790123456 22.944444444444443)"/><path d="M1162.95 940.1h161.6v36h-161.6z" fill="none"/><use xlink:href="#s" transform="matrix(1,0,0,1,1162.9512203462155,940.0974341564607) translate(34.73456790123456 22.944444444444443)"/><path d="M287.86 473.75H495.3v38.3H287.85z" fill="none"/><use xlink:href="#t" transform="matrix(1,0,0,1,287.8561749154388,473.748500038067) translate(52.80246913580247 25.27777777777778)"/><path d="M295.95 526.4h-4.38v-3h4.38zm14.6 0h-8.76v-3h8.75zm14.6 0h-8.76v-3h8.75zm14.6 0H331v-3h8.75zm9.28 0h-3.44v-3h3.43zm107.5 0h-8.75v-3h8.76zm14.6 0h-8.75v-3h8.76zm14.6 0H477v-3h8.76zm10.23 0h-4.38v-3h4.38zm-54.02 0h-3.43v-3h3.44z" stroke="#e08fff" stroke-width=".05" fill="#e08fff"/><path d="M291.6 526.4h-1.53v-3h1.54zM497.46 526.4h-1.54v-3h1.54z" stroke="#e08fff" stroke-width=".05" fill="#e08fff"/><use xlink:href="#u" transform="matrix(1,0,0,1,349.02507231387614,514.2422889514186) translate(0 14.222222222222223)"/><use xlink:href="#v" transform="matrix(1,0,0,1,349.02507231387614,514.2422889514186) translate(52.938271604938286 14.222222222222223)"/><path d="M295.48 549.2h-4.38v-3h4.38zm14.6 0h-8.76v-3h8.76zm14.6 0h-8.76v-3h8.76zm14.6 0h-8.76v-3h8.76zm11.75 0h-5.9v-3h5.9zm105.04 0h-8.75v-3h8.75zm14.6 0h-8.76v-3h8.77zm14.6 0h-8.76v-3h8.77zm10.22 0h-4.4v-3h4.4zm-54.02 0h-5.9v-3h5.9z" stroke="#00c2a8" stroke-width=".05" fill="#00c2a8"/><path d="M291.14 549.2h-1.54v-3h1.54zM497 549.2h-1.54v-3H497z" stroke="#00c2a8" stroke-width=".05" fill="#00c2a8"/><g><use xlink:href="#w" transform="matrix(1,0,0,1,351.0250913448448,537.0283061682771) translate(0 14.222222222222223)"/><use xlink:href="#v" transform="matrix(1,0,0,1,351.0250913448448,537.0283061682771) translate(48.00000000000001 14.222222222222223)"/></g><defs><path fill="#333" d="M182-130c37 4 62 22 62 59C244 23 116-4 24 0v-248c84 5 203-23 205 63 0 31-19 50-47 55zM76-148c40-3 101 13 101-30 0-44-60-28-101-31v61zm0 110c48-3 116 14 116-37 0-48-69-32-116-35v72" id="x"/><path fill="#333" d="M67-125c0 54 23 88 75 88 28 0 53-7 68-21v-34h-60v-39h108v91C232-14 192 4 140 4 58 4 20-42 15-125 8-236 126-280 215-234c19 10 29 26 37 47l-47 15c-11-23-29-39-63-39-53 1-75 33-75 86" id="y"/><path fill="#333" d="M24-248c93 1 206-16 204 79-1 75-69 88-152 82V0H24v-248zm52 121c47 0 100 7 100-41 0-47-54-39-100-39v80" id="z"/><g id="a"><use transform="matrix(0.07407407407407407,0,0,0.07407407407407407,0,0)" xlink:href="#x"/><use transform="matrix(0.07407407407407407,0,0,0.07407407407407407,19.185185185185183,0)" xlink:href="#y"/><use transform="matrix(0.07407407407407407,0,0,0.07407407407407407,39.925925925925924,0)" xlink:href="#z"/></g><path fill="#333" d="M238-95c0 69-44 99-111 99C63 4 22-25 22-93v-155h51v151c-1 38 19 59 55 60 90 1 49-130 58-211h52v153" id="A"/><path fill="#333" d="M135-194c87-1 58 113 63 194h-50c-7-57 23-157-34-157-59 0-34 97-39 157H25l-1-190h47c2 12-1 28 3 38 12-26 28-41 61-42" id="B"/><path fill="#333" d="M88-194c31-1 46 15 58 34l-1-101h50l1 261h-48c-2-10 0-23-3-31C134-8 116 4 84 4 32 4 16-41 15-95c0-56 19-97 73-99zm17 164c33 0 40-30 41-66 1-37-9-64-41-64s-38 30-39 65c0 43 13 65 39 65" id="C"/><path fill="#333" d="M185-48c-13 30-37 53-82 52C43 2 14-33 14-96s30-98 90-98c62 0 83 45 84 108H66c0 31 8 55 39 56 18 0 30-7 34-22zm-45-69c5-46-57-63-70-21-2 6-4 13-4 21h74" id="D"/><path fill="#333" d="M135-150c-39-12-60 13-60 57V0H25l-1-190h47c2 13-1 29 3 40 6-28 27-53 61-41v41" id="E"/><path fill="#333" d="M25 0v-261h50V0H25" id="F"/><path fill="#333" d="M133-34C117-15 103 5 69 4 32 3 11-16 11-54c-1-60 55-63 116-61 1-26-3-47-28-47-18 1-26 9-28 27l-52-2c7-38 36-58 82-57s74 22 75 68l1 82c-1 14 12 18 25 15v27c-30 8-71 5-69-32zm-48 3c29 0 43-24 42-57-32 0-66-3-65 30 0 17 8 27 23 27" id="G"/><path fill="#333" d="M123 10C108 53 80 86 19 72V37c35 8 53-11 59-39L3-190h52l48 148c12-52 28-100 44-148h51" id="H"/><g id="b"><use transform="matrix(0.07407407407407407,0,0,0.07407407407407407,0,0)" xlink:href="#A"/><use transform="matrix(0.07407407407407407,0,0,0.07407407407407407,19.185185185185183,0)" xlink:href="#B"/><use transform="matrix(0.07407407407407407,0,0,0.07407407407407407,35.407407407407405,0)" xlink:href="#C"/><use transform="matrix(0.07407407407407407,0,0,0.07407407407407407,51.629629629629626,0)" xlink:href="#D"/><use transform="matrix(0.07407407407407407,0,0,0.07407407407407407,66.44444444444444,0)" xlink:href="#E"/><use transform="matrix(0.07407407407407407,0,0,0.07407407407407407,76.81481481481481,0)" xlink:href="#F"/><use transform="matrix(0.07407407407407407,0,0,0.07407407407407407,84.22222222222221,0)" xlink:href="#G"/><use transform="matrix(0.07407407407407407,0,0,0.07407407407407407,99.03703703703704,0)" xlink:href="#H"/></g><path fill="#fff" d="M483-1012c112 0 179 37 238 92v-517h254V0H818c-73 2-64-82-83-135C661-54 570 15 422 15 157 15 63-214 63-494c0-232 92-397 247-478 52-26 110-40 173-40zM325-494c0 166 29 308 186 308 106 0 161-51 210-111v-438c-43-55-93-85-178-85-170 0-218 146-218 326" id="I"/><path fill="#fff" d="M836-149C753-51 641 15 467 15 259 15 147-118 88-282c-42-119-44-295-4-419 59-179 186-308 419-308 153 0 247 58 325 142-30 37-55 81-89 113-66 29-96-36-151-51-19-5-41-11-69-11-164 0-199 147-204 317-6 202 85 372 277 308 37-12 60-40 86-61 24-21 64-16 84 9" id="J"/><path fill="#fff" d="M236-180h257c2-279-3-565 3-840L323-871c-27 30-91 18-110-9l-76-104 399-346h198v1150h227V0H236v-180" id="K"/><path fill="#fff" d="M61-690h505v212H61v-212" id="L"/><path fill="#fff" d="M379-1437V0H125v-1437h254" id="M"/><path fill="#fff" d="M960-149C871-45 736 15 551 15 231 15 63-191 63-518c0-229 113-378 277-452 59-26 125-39 199-39 278 0 430 170 430 452 0 55-4 97-59 97H316c14 166 83 276 257 279 98 1 159-38 221-71 33-18 71-20 93 9zM741-612c-4-130-65-216-197-216-140 0-203 89-223 216h420" id="N"/><path fill="#fff" d="M534-1012c240 0 371 147 371 387V0c-80-7-186 24-201-53l-22-66C598-47 516 18 362 15 183 12 73-75 73-255c0-177 142-239 303-283 75-20 169-31 281-34 9-142-26-239-155-239-97 0-149 37-209 70-49 27-108 2-128-33l-46-80c103-96 231-158 415-158zM316-268c-2 80 48 110 125 110 107 0 156-41 216-100v-160c-111 5-199 15-269 48-43 21-70 49-72 102" id="O"/><path fill="#fff" d="M562-1233c-141 0-169 100-160 247h230v180H410V0H156v-806c-55-15-135-9-136-77v-103h136c-14-277 106-437 363-437 48 0 83 7 122 18l-6 127c-1 39-36 45-73 45" id="P"/><path fill="#fff" d="M89-955c40-238 181-388 449-388 250 0 409 134 409 381 0 232-139 347-258 472L407-195c126-46 310-24 475-29 49-1 86 32 85 80V0H69c-2-76 0-138 43-180 161-160 326-321 472-494 63-74 110-153 115-281 6-143-107-217-242-175-61 19-100 69-121 131-19 56-46 79-119 66" id="Q"/><g id="d"><use transform="matrix(0.013020833333333334,0,0,0.013020833333333334,0,0)" xlink:href="#I"/><use transform="matrix(0.013020833333333334,0,0,0.013020833333333334,14.309895833333334,0)" xlink:href="#J"/><use transform="matrix(0.013020833333333334,0,0,0.013020833333333334,25.46875,0)" xlink:href="#K"/><use transform="matrix(0.013020833333333334,0,0,0.013020833333333334,38.984375,0)" xlink:href="#L"/><use transform="matrix(0.013020833333333334,0,0,0.013020833333333334,47.1484375,0)" xlink:href="#M"/><use transform="matrix(0.013020833333333334,0,0,0.013020833333333334,53.69791666666667,0)" xlink:href="#N"/><use transform="matrix(0.013020833333333334,0,0,0.013020833333333334,67.12239583333333,0)" xlink:href="#O"/><use transform="matrix(0.013020833333333334,0,0,0.013020833333333334,80.14322916666666,0)" xlink:href="#P"/><use transform="matrix(0.013020833333333334,0,0,0.013020833333333334,88.58072916666666,0)" xlink:href="#Q"/><use transform="matrix(0.013020833333333334,0,0,0.013020833333333334,102.09635416666666,0)" xlink:href="#O"/></g><filter id="c" filterUnits="objectBoundingBox" x="-.06" y="-.04" width="1.12" height="1.21"><feOffset result="offOut" in="SourceAlpha" dy="6"/><feGaussianBlur result="blurOut" in="offOut" stdDeviation="5"/><feColorMatrix result="colorOut" in="blurOut" values="0 0 0 0 0 0 0 0 0 0 0 0 0 0 0 0 0 0 0.5019607843137255 0"/><feBlend in="SourceGraphic" in2="colorOut"/></filter><path fill="#fff" d="M619 15c-128 0-198-56-256-127-11 50-5 112-70 112H124v-1437h254v561c71-71 156-133 289-133 266 0 369 213 369 487 0 241-87 415-246 498-51 26-108 39-171 39zm155-527c0-166-35-299-195-299-102 0-149 49-201 111v438c43 54 92 85 176 85 177 0 220-149 220-335" id="R"/><g id="e"><use transform="matrix(0.013020833333333334,0,0,0.013020833333333334,0,0)" xlink:href="#I"/><use transform="matrix(0.013020833333333334,0,0,0.013020833333333334,14.309895833333334,0)" xlink:href="#J"/><use transform="matrix(0.013020833333333334,0,0,0.013020833333333334,25.46875,0)" xlink:href="#K"/><use transform="matrix(0.013020833333333334,0,0,0.013020833333333334,38.984375,0)" xlink:href="#L"/><use transform="matrix(0.013020833333333334,0,0,0.013020833333333334,47.1484375,0)" xlink:href="#M"/><use transform="matrix(0.013020833333333334,0,0,0.013020833333333334,53.69791666666667,0)" xlink:href="#N"/><use transform="matrix(0.013020833333333334,0,0,0.013020833333333334,67.12239583333333,0)" xlink:href="#O"/><use transform="matrix(0.013020833333333334,0,0,0.013020833333333334,80.14322916666666,0)" xlink:href="#P"/><use transform="matrix(0.013020833333333334,0,0,0.013020833333333334,88.58072916666666,0)" xlink:href="#Q"/><use transform="matrix(0.013020833333333334,0,0,0.013020833333333334,102.09635416666666,0)" xlink:href="#R"/></g><g id="f"><use transform="matrix(0.013020833333333334,0,0,0.013020833333333334,0,0)" xlink:href="#I"/><use transform="matrix(0.013020833333333334,0,0,0.013020833333333334,14.309895833333334,0)" xlink:href="#J"/><use transform="matrix(0.013020833333333334,0,0,0.013020833333333334,25.46875,0)" xlink:href="#K"/><use transform="matrix(0.013020833333333334,0,0,0.013020833333333334,38.984375,0)" xlink:href="#L"/><use transform="matrix(0.013020833333333334,0,0,0.013020833333333334,47.1484375,0)" xlink:href="#M"/><use transform="matrix(0.013020833333333334,0,0,0.013020833333333334,53.69791666666667,0)" xlink:href="#N"/><use transform="matrix(0.013020833333333334,0,0,0.013020833333333334,67.12239583333333,0)" xlink:href="#O"/><use transform="matrix(0.013020833333333334,0,0,0.013020833333333334,80.14322916666666,0)" xlink:href="#P"/><use transform="matrix(0.013020833333333334,0,0,0.013020833333333334,88.58072916666666,0)" xlink:href="#K"/><use transform="matrix(0.013020833333333334,0,0,0.013020833333333334,102.09635416666666,0)" xlink:href="#O"/></g><g id="g"><use transform="matrix(0.013020833333333334,0,0,0.013020833333333334,0,0)" xlink:href="#I"/><use transform="matrix(0.013020833333333334,0,0,0.013020833333333334,14.309895833333334,0)" xlink:href="#J"/><use transform="matrix(0.013020833333333334,0,0,0.013020833333333334,25.46875,0)" xlink:href="#K"/><use transform="matrix(0.013020833333333334,0,0,0.013020833333333334,38.984375,0)" xlink:href="#L"/><use transform="matrix(0.013020833333333334,0,0,0.013020833333333334,47.1484375,0)" xlink:href="#M"/><use transform="matrix(0.013020833333333334,0,0,0.013020833333333334,53.69791666666667,0)" xlink:href="#N"/><use transform="matrix(0.013020833333333334,0,0,0.013020833333333334,67.12239583333333,0)" xlink:href="#O"/><use transform="matrix(0.013020833333333334,0,0,0.013020833333333334,80.14322916666666,0)" xlink:href="#P"/><use transform="matrix(0.013020833333333334,0,0,0.013020833333333334,88.58072916666666,0)" xlink:href="#K"/><use transform="matrix(0.013020833333333334,0,0,0.013020833333333334,102.09635416666666,0)" xlink:href="#R"/></g><path d="M600 0H369L11-993h210c36-1 65 20 72 46l145 507c21 61 37 123 49 185 14-65 34-123 52-185l150-507c9-25 34-46 68-46h201" id="S"/><path d="M1007-505c-9 70 29 185-49 186H854V0H644v-319H105c-83-4-69-108-90-173l609-837h230v824h153zm-363 0c3-182-8-376 8-546L269-505h375" id="T"/><path d="M960-966c48 161 48 442 0 603C896-149 775 14 517 14 261 14 140-150 78-363c-47-161-48-443 0-603 63-213 183-377 439-377s380 165 443 377zM602-206c161-87 169-454 126-694-24-133-71-244-211-244-138 0-184 113-207 244-41 238-36 607 122 694 54 29 116 28 170 0" id="U"/><path d="M558-1343c315 4 477 226 426 559-19 123-74 216-134 304L560-55C509 26 342-7 215 0c152-194 307-385 457-581-80 52-225 75-333 30-135-54-228-169-228-358 0-206 113-334 264-399 55-23 116-35 183-35zm-4 636c137 0 210-84 210-219 0-137-73-221-209-221-132 0-201 87-204 219-3 139 67 221 203 221" id="V"/><path d="M113-955c38-239 181-388 448-388 186 0 310 81 369 209 18 42 27 87 27 134 1 168-77 256-203 297 151 51 227 154 227 307C981-126 800 8 532 14 260 20 143-131 76-338c63-25 186-102 236-14 46 82 93 164 218 164 130 0 203-76 210-200 9-175-112-206-288-206v-171c158-2 269-37 269-193 0-117-60-182-173-183-99-1-165 67-190 142-19 57-44 79-118 66" id="W"/><g id="h"><use transform="matrix(0.006510416666666664,0,0,0.006510416666666664,0,0)" xlink:href="#S"/><use transform="matrix(0.006510416666666664,0,0,0.006510416666666664,6.308593749999997,0)" xlink:href="#T"/><use transform="matrix(0.006510416666666664,0,0,0.006510416666666664,13.066406249999995,0)" xlink:href="#U"/><use transform="matrix(0.006510416666666664,0,0,0.006510416666666664,19.824218749999993,0)" xlink:href="#V"/><use transform="matrix(0.006510416666666664,0,0,0.006510416666666664,26.58203124999999,0)" xlink:href="#W"/></g><path fill="#fff" d="M80-702c6-234 206-338 457-298 93 15 166 59 220 115-26 37-46 85-79 115-8 4-17 7-28 7-73 0-113-61-203-61-94 0-160 79-107 152 93 83 270 88 356 179 39 42 70 95 69 176C761-63 553 47 286 6 191-9 109-52 51-106c29-40 47-92 85-123 77-33 115 38 178 55 22 6 48 12 80 12 81 0 133-35 133-110 0-69-60-91-116-111C252-440 75-483 80-702" id="X"/><path fill="#fff" d="M615 15c-112 0-178-37-238-91v398H123V-993c65 5 149-11 197 11 31 24 28 81 42 121 74-81 161-151 314-151 265 0 360 229 360 508 0 232-93 399-248 480-52 26-109 39-173 39zm159-519c0-165-29-307-185-307-108 0-158 47-212 111v440c43 53 94 83 178 83 171 0 219-146 219-327" id="Y"/><path fill="#fff" d="M379-993V0H125v-993h254zm-132-444c97 0 163 62 163 159 0 96-66 158-163 158-94 0-157-63-157-158s62-159 157-159" id="Z"/><path fill="#fff" d="M582-811c-92 1-152 44-204 95V0H124v-993c65 5 150-14 196 11 30 17 27 71 39 107 74-72 158-134 301-134 225 0 332 151 332 377V0H738v-632c0-109-49-180-156-179" id="aa"/><g id="i"><use transform="matrix(0.013020833333333334,0,0,0.013020833333333334,0,0)" xlink:href="#I"/><use transform="matrix(0.013020833333333334,0,0,0.013020833333333334,14.309895833333334,0)" xlink:href="#J"/><use transform="matrix(0.013020833333333334,0,0,0.013020833333333334,25.46875,0)" xlink:href="#K"/><use transform="matrix(0.013020833333333334,0,0,0.013020833333333334,38.984375,0)" xlink:href="#L"/><use transform="matrix(0.013020833333333334,0,0,0.013020833333333334,47.1484375,0)" xlink:href="#X"/><use transform="matrix(0.013020833333333334,0,0,0.013020833333333334,57.786458333333336,0)" xlink:href="#Y"/><use transform="matrix(0.013020833333333334,0,0,0.013020833333333334,72.09635416666667,0)" xlink:href="#Z"/><use transform="matrix(0.013020833333333334,0,0,0.013020833333333334,78.64583333333334,0)" xlink:href="#aa"/><use transform="matrix(0.013020833333333334,0,0,0.013020833333333334,92.95572916666667,0)" xlink:href="#N"/><use transform="matrix(0.013020833333333334,0,0,0.013020833333333334,106.38020833333334,0)" xlink:href="#K"/></g><g id="j"><use transform="matrix(0.013020833333333334,0,0,0.013020833333333334,0,0)" xlink:href="#I"/><use transform="matrix(0.013020833333333334,0,0,0.013020833333333334,14.309895833333334,0)" xlink:href="#J"/><use transform="matrix(0.013020833333333334,0,0,0.013020833333333334,25.46875,0)" xlink:href="#K"/><use transform="matrix(0.013020833333333334,0,0,0.013020833333333334,38.984375,0)" xlink:href="#L"/><use transform="matrix(0.013020833333333334,0,0,0.013020833333333334,47.1484375,0)" xlink:href="#X"/><use transform="matrix(0.013020833333333334,0,0,0.013020833333333334,57.786458333333336,0)" xlink:href="#Y"/><use transform="matrix(0.013020833333333334,0,0,0.013020833333333334,72.09635416666667,0)" xlink:href="#Z"/><use transform="matrix(0.013020833333333334,0,0,0.013020833333333334,78.64583333333334,0)" xlink:href="#aa"/><use transform="matrix(0.013020833333333334,0,0,0.013020833333333334,92.95572916666667,0)" xlink:href="#N"/><use transform="matrix(0.013020833333333334,0,0,0.013020833333333334,106.38020833333334,0)" xlink:href="#Q"/></g><path d="M236-180h257c2-279-3-565 3-840L323-871c-27 30-91 18-110-9l-76-104 399-346h198v1150h227V0H236v-180" id="ab"/><use transform="matrix(0.008680555555555554,0,0,0.008680555555555554,0,0)" xlink:href="#ab" id="k"/><path d="M89-955c40-238 181-388 449-388 250 0 409 134 409 381 0 232-139 347-258 472L407-195c126-46 310-24 475-29 49-1 86 32 85 80V0H69c-2-76 0-138 43-180 161-160 326-321 472-494 63-74 110-153 115-281 6-143-107-217-242-175-61 19-100 69-121 131-19 56-46 79-119 66" id="ac"/><use transform="matrix(0.008680555555555554,0,0,0.008680555555555554,0,0)" xlink:href="#ac" id="l"/><use transform="matrix(0.008680555555555554,0,0,0.008680555555555554,0,0)" xlink:href="#W" id="m"/><use transform="matrix(0.008680555555555554,0,0,0.008680555555555554,0,0)" xlink:href="#T" id="n"/><path fill="#979ea8" d="M24-248c120-7 223 5 221 122C244-46 201 0 124 0H24v-248zM76-40c74 7 117-18 117-86 0-67-45-88-117-82v168" id="ad"/><path fill="#979ea8" d="M67-125c0 53 21 87 73 88 37 1 54-22 65-47l45 17C233-25 199 4 140 4 58 4 20-42 15-125 8-235 124-281 211-232c18 10 29 29 36 50l-46 12c-8-25-30-41-62-41-52 0-71 34-72 86" id="ae"/><path fill="#979ea8" d="M23 0v-37h61v-169l-59 37v-38l62-41h46v211h57V0H23" id="af"/><g id="o"><use transform="matrix(0.08024691358024691,0,0,0.08024691358024691,0,0)" xlink:href="#ad"/><use transform="matrix(0.08024691358024691,0,0,0.08024691358024691,20.78395061728395,0)" xlink:href="#ae"/><use transform="matrix(0.08024691358024691,0,0,0.08024691358024691,41.5679012345679,0)" xlink:href="#af"/></g><path fill="#333" d="M110-194c64 0 96 36 96 99 0 64-35 99-97 99-61 0-95-36-95-99 0-62 34-99 96-99zm-1 164c35 0 45-28 45-65 0-40-10-65-43-65-34 0-45 26-45 65 0 36 10 65 43 65" id="ag"/><path fill="#333" d="M128-127c34 4 56 21 59 58 7 91-148 94-172 28-4-9-6-17-7-26l51-5c1 24 16 35 40 36 23 0 39-12 38-36-1-31-31-36-65-34v-40c32 2 59-3 59-33 0-20-13-33-34-33s-33 13-35 32l-50-3c6-44 37-68 86-68 50 0 83 20 83 66 0 35-22 52-53 58" id="ah"/><g id="p"><use transform="matrix(0.04320987654320987,0,0,0.04320987654320987,0,0)" xlink:href="#z"/><use transform="matrix(0.04320987654320987,0,0,0.04320987654320987,10.370370370370368,0)" xlink:href="#ag"/><use transform="matrix(0.04320987654320987,0,0,0.04320987654320987,19.83333333333333,0)" xlink:href="#ah"/></g><path fill="#333" d="M199 0l-22-63H83L61 0H9l90-248h61L250 0h-51zm-33-102l-36-108c-10 38-24 72-36 108h72" id="ai"/><path fill="#333" d="M169-182c-1-43-94-46-97-3 18 66 151 10 154 114 3 95-165 93-204 36-6-8-10-19-12-30l50-8c3 46 112 56 116 5-17-69-150-10-154-114-4-87 153-88 188-35 5 8 8 18 10 28" id="aj"/><path fill="#333" d="M115-159c48 0 72 30 72 78 0 54-30 85-83 85-64 0-91-50-91-122 0-98 58-163 141-120 15 8 21 24 27 44l-47 6c-5-31-48-31-61-4-7 14-11 33-11 60 9-17 28-27 53-27zM102-35c24 0 36-20 36-45s-11-43-37-43c-23 0-36 14-36 38 0 27 11 50 37 50" id="ak"/><path fill="#333" d="M139-81c0-46-55-55-73-27H18l9-140h149v37H72l-4 63c44-38 133-4 122 66C201 21 21 35 11-62l49-4c5 18 15 30 39 30 26 0 40-18 40-45" id="al"/><path fill="#333" d="M23 0v-37h61v-169l-59 37v-38l62-41h46v211h57V0H23" id="am"/><path fill="#333" d="M101-251c68 0 84 54 84 127C185-50 166 4 99 4S15-52 14-124c-1-75 17-127 87-127zm-1 216c37-5 36-46 36-89s4-89-36-89c-39 0-36 45-36 89 0 43-3 85 36 89" id="an"/><g id="q"><use transform="matrix(0.06172839506172839,0,0,0.06172839506172839,0,0)" xlink:href="#ai"/><use transform="matrix(0.06172839506172839,0,0,0.06172839506172839,15.987654320987653,0)" xlink:href="#aj"/><use transform="matrix(0.06172839506172839,0,0,0.06172839506172839,30.80246913580247,0)" xlink:href="#ak"/><use transform="matrix(0.06172839506172839,0,0,0.06172839506172839,43.148148148148145,0)" xlink:href="#al"/><use transform="matrix(0.06172839506172839,0,0,0.06172839506172839,55.49382716049382,0)" xlink:href="#am"/><use transform="matrix(0.06172839506172839,0,0,0.06172839506172839,67.8395061728395,0)" xlink:href="#an"/><use transform="matrix(0.06172839506172839,0,0,0.06172839506172839,80.18518518518519,0)" xlink:href="#an"/></g><g id="r"><use transform="matrix(0.06172839506172839,0,0,0.06172839506172839,0,0)" xlink:href="#ai"/><use transform="matrix(0.06172839506172839,0,0,0.06172839506172839,15.987654320987653,0)" xlink:href="#aj"/><use transform="matrix(0.06172839506172839,0,0,0.06172839506172839,30.80246913580247,0)" xlink:href="#ak"/><use transform="matrix(0.06172839506172839,0,0,0.06172839506172839,43.148148148148145,0)" xlink:href="#al"/><use transform="matrix(0.06172839506172839,0,0,0.06172839506172839,55.49382716049382,0)" xlink:href="#am"/><use transform="matrix(0.06172839506172839,0,0,0.06172839506172839,67.8395061728395,0)" xlink:href="#an"/><use transform="matrix(0.06172839506172839,0,0,0.06172839506172839,80.18518518518519,0)" xlink:href="#am"/></g><path fill="#333" d="M182-182c0 78-84 86-111 141h115V0H12c-6-101 99-100 120-180 1-22-12-31-33-32-23 0-32 14-35 34l-49-3c5-45 32-70 84-70 51 0 83 22 83 69" id="ao"/><g id="s"><use transform="matrix(0.06172839506172839,0,0,0.06172839506172839,0,0)" xlink:href="#ai"/><use transform="matrix(0.06172839506172839,0,0,0.06172839506172839,15.987654320987653,0)" xlink:href="#aj"/><use transform="matrix(0.06172839506172839,0,0,0.06172839506172839,30.80246913580247,0)" xlink:href="#ak"/><use transform="matrix(0.06172839506172839,0,0,0.06172839506172839,43.148148148148145,0)" xlink:href="#al"/><use transform="matrix(0.06172839506172839,0,0,0.06172839506172839,55.49382716049382,0)" xlink:href="#am"/><use transform="matrix(0.06172839506172839,0,0,0.06172839506172839,67.8395061728395,0)" xlink:href="#an"/><use transform="matrix(0.06172839506172839,0,0,0.06172839506172839,80.18518518518519,0)" xlink:href="#ao"/></g><path fill="#979ea8" d="M24 0v-248h52v208h133V0H24" id="ap"/><path fill="#979ea8" d="M185-48c-13 30-37 53-82 52C43 2 14-33 14-96s30-98 90-98c62 0 83 45 84 108H66c0 31 8 55 39 56 18 0 30-7 34-22zm-45-69c5-46-57-63-70-21-2 6-4 13-4 21h74" id="aq"/><path fill="#979ea8" d="M195-6C206 82 75 100 31 46c-4-6-6-13-8-21l49-6c3 16 16 24 34 25 40 0 42-37 40-79-11 22-30 35-61 35-53 0-70-43-70-97 0-56 18-96 73-97 30 0 46 14 59 34l2-30h47zm-90-29c32 0 41-27 41-63 0-35-9-62-40-62-32 0-39 29-40 63 0 36 9 62 39 62" id="ar"/><path fill="#979ea8" d="M135-194c87-1 58 113 63 194h-50c-7-57 23-157-34-157-59 0-34 97-39 157H25l-1-190h47c2 12-1 28 3 38 12-26 28-41 61-42" id="as"/><path fill="#979ea8" d="M88-194c31-1 46 15 58 34l-1-101h50l1 261h-48c-2-10 0-23-3-31C134-8 116 4 84 4 32 4 16-41 15-95c0-56 19-97 73-99zm17 164c33 0 40-30 41-66 1-37-9-64-41-64s-38 30-39 65c0 43 13 65 39 65" id="at"/><g id="t"><use transform="matrix(0.08024691358024691,0,0,0.08024691358024691,0,0)" xlink:href="#ap"/><use transform="matrix(0.08024691358024691,0,0,0.08024691358024691,17.574074074074073,0)" xlink:href="#aq"/><use transform="matrix(0.08024691358024691,0,0,0.08024691358024691,33.623456790123456,0)" xlink:href="#ar"/><use transform="matrix(0.08024691358024691,0,0,0.08024691358024691,51.197530864197525,0)" xlink:href="#aq"/><use transform="matrix(0.08024691358024691,0,0,0.08024691358024691,67.24691358024691,0)" xlink:href="#as"/><use transform="matrix(0.08024691358024691,0,0,0.08024691358024691,84.82098765432099,0)" xlink:href="#at"/></g><path fill="#979ea8" d="M182-130c37 4 62 22 62 59C244 23 116-4 24 0v-248c84 5 203-23 205 63 0 31-19 50-47 55zM76-148c40-3 101 13 101-30 0-44-60-28-101-31v61zm0 110c48-3 116 14 116-37 0-48-69-32-116-35v72" id="au"/><path fill="#979ea8" d="M67-125c0 54 23 88 75 88 28 0 53-7 68-21v-34h-60v-39h108v91C232-14 192 4 140 4 58 4 20-42 15-125 8-236 126-280 215-234c19 10 29 26 37 47l-47 15c-11-23-29-39-63-39-53 1-75 33-75 86" id="av"/><path fill="#979ea8" d="M24-248c93 1 206-16 204 79-1 75-69 88-152 82V0H24v-248zm52 121c47 0 100 7 100-41 0-47-54-39-100-39v80" id="aw"/><g id="u"><use transform="matrix(0.04938271604938272,0,0,0.04938271604938272,0,0)" xlink:href="#aq"/><use transform="matrix(0.04938271604938272,0,0,0.04938271604938272,9.876543209876544,0)" xlink:href="#au"/><use transform="matrix(0.04938271604938272,0,0,0.04938271604938272,22.66666666666667,0)" xlink:href="#av"/><use transform="matrix(0.04938271604938272,0,0,0.04938271604938272,36.49382716049384,0)" xlink:href="#aw"/></g><path fill="#979ea8" d="M24 0v-248h52V0H24" id="ax"/><path fill="#979ea8" d="M128 0H69L1-190h53L99-40l48-150h52" id="ay"/><path fill="#979ea8" d="M165-50V0h-47v-50H5v-38l105-160h55v161h33v37h-33zm-47-37l2-116L46-87h72" id="az"/><g id="v"><use transform="matrix(0.04938271604938272,0,0,0.04938271604938272,0,0)" xlink:href="#ax"/><use transform="matrix(0.04938271604938272,0,0,0.04938271604938272,4.938271604938272,0)" xlink:href="#aw"/><use transform="matrix(0.04938271604938272,0,0,0.04938271604938272,16.790123456790127,0)" xlink:href="#ay"/><use transform="matrix(0.04938271604938272,0,0,0.04938271604938272,26.666666666666668,0)" xlink:href="#az"/></g><path fill="#979ea8" d="M25-224v-37h50v37H25zM25 0v-190h50V0H25" id="aA"/><g id="w"><use transform="matrix(0.04938271604938272,0,0,0.04938271604938272,0,0)" xlink:href="#aA"/><use transform="matrix(0.04938271604938272,0,0,0.04938271604938272,4.938271604938272,0)" xlink:href="#au"/><use transform="matrix(0.04938271604938272,0,0,0.04938271604938272,17.7283950617284,0)" xlink:href="#av"/><use transform="matrix(0.04938271604938272,0,0,0.04938271604938272,31.555555555555557,0)" xlink:href="#aw"/></g></defs></g></svg>